  0
SECTION
  2
HEADER
  9
$ACADVER
  1
AC1027
  9
$ACADMAINTVER
 70
     8
  9
$DWGCODEPAGE
  3
ANSI_1252
  9
$REQUIREDVERSIONS
160
                 0
  9
$LASTSAVEDBY
  1
Wombat
  9
$INSBASE
 10
0.0
 20
0.0
 30
0.0
  9
$EXTMIN
 10
65.73307984790873
 20
34.25817490494296
 30
0.0
  9
$EXTMAX
 10
336.3880746781527
 20
300.8732359726893
 30
0.0000000000000071
  9
$LIMMIN
 10
0.0
 20
0.0
  9
$LIMMAX
 10
420.0
 20
297.0
  9
$ORTHOMODE
 70
     0
  9
$REGENMODE
 70
     1
  9
$FILLMODE
 70
     1
  9
$QTEXTMODE
 70
     0
  9
$MIRRTEXT
 70
     0
  9
$LTSCALE
 40
1.0
  9
$ATTMODE
 70
     1
  9
$TEXTSIZE
 40
2.5
  9
$TRACEWID
 40
1.0
  9
$TEXTSTYLE
  7
Standard
  9
$CLAYER
  8
0
  9
$CELTYPE
  6
ByLayer
  9
$CECOLOR
 62
   256
  9
$CELTSCALE
 40
1.0
  9
$DISPSILH
 70
     0
  9
$DIMSCALE
 40
1.0
  9
$DIMASZ
 40
2.5
  9
$DIMEXO
 40
0.625
  9
$DIMDLI
 40
3.75
  9
$DIMRND
 40
0.0
  9
$DIMDLE
 40
0.0
  9
$DIMEXE
 40
1.25
  9
$DIMTP
 40
0.0
  9
$DIMTM
 40
0.0
  9
$DIMTXT
 40
2.5
  9
$DIMCEN
 40
2.5
  9
$DIMTSZ
 40
0.0
  9
$DIMTOL
 70
     0
  9
$DIMLIM
 70
     0
  9
$DIMTIH
 70
     0
  9
$DIMTOH
 70
     0
  9
$DIMSE1
 70
     0
  9
$DIMSE2
 70
     0
  9
$DIMTAD
 70
     1
  9
$DIMZIN
 70
     8
  9
$DIMBLK
  1

  9
$DIMASO
 70
     1
  9
$DIMSHO
 70
     1
  9
$DIMPOST
  1

  9
$DIMAPOST
  1

  9
$DIMALT
 70
     0
  9
$DIMALTD
 70
     3
  9
$DIMALTF
 40
0.03937007874016
  9
$DIMLFAC
 40
1.0
  9
$DIMTOFL
 70
     1
  9
$DIMTVP
 40
0.0
  9
$DIMTIX
 70
     0
  9
$DIMSOXD
 70
     0
  9
$DIMSAH
 70
     0
  9
$DIMBLK1
  1

  9
$DIMBLK2
  1

  9
$DIMSTYLE
  2
ISO-25
  9
$DIMCLRD
 70
     0
  9
$DIMCLRE
 70
     0
  9
$DIMCLRT
 70
     0
  9
$DIMTFAC
 40
1.0
  9
$DIMGAP
 40
0.625
  9
$DIMJUST
 70
     0
  9
$DIMSD1
 70
     0
  9
$DIMSD2
 70
     0
  9
$DIMTOLJ
 70
     0
  9
$DIMTZIN
 70
     8
  9
$DIMALTZ
 70
     0
  9
$DIMALTTZ
 70
     0
  9
$DIMUPT
 70
     0
  9
$DIMDEC
 70
     2
  9
$DIMTDEC
 70
     2
  9
$DIMALTU
 70
     2
  9
$DIMALTTD
 70
     3
  9
$DIMTXSTY
  7
Standard
  9
$DIMAUNIT
 70
     0
  9
$DIMADEC
 70
     0
  9
$DIMALTRND
 40
0.0
  9
$DIMAZIN
 70
     0
  9
$DIMDSEP
 70
    44
  9
$DIMATFIT
 70
     3
  9
$DIMFRAC
 70
     0
  9
$DIMLDRBLK
  1

  9
$DIMLUNIT
 70
     2
  9
$DIMLWD
 70
    -2
  9
$DIMLWE
 70
    -2
  9
$DIMTMOVE
 70
     0
  9
$DIMFXL
 40
1.0
  9
$DIMFXLON
 70
     0
  9
$DIMJOGANG
 40
0.7853981633974483
  9
$DIMTFILL
 70
     0
  9
$DIMTFILLCLR
 70
     0
  9
$DIMARCSYM
 70
     0
  9
$DIMLTYPE
  6

  9
$DIMLTEX1
  6

  9
$DIMLTEX2
  6

  9
$DIMTXTDIRECTION
 70
     0
  9
$LUNITS
 70
     2
  9
$LUPREC
 70
     3
  9
$SKETCHINC
 40
1.0
  9
$FILLETRAD
 40
20.0
  9
$AUNITS
 70
     0
  9
$AUPREC
 70
     0
  9
$MENU
  1
.
  9
$ELEVATION
 40
0.0
  9
$PELEVATION
 40
0.0
  9
$THICKNESS
 40
0.0
  9
$LIMCHECK
 70
     0
  9
$CHAMFERA
 40
10.0
  9
$CHAMFERB
 40
10.0
  9
$CHAMFERC
 40
20.0
  9
$CHAMFERD
 40
0.0
  9
$SKPOLY
 70
     0
  9
$TDCREATE
 40
2455023.05402618
  9
$TDUCREATE
 40
2455022.637359514
  9
$TDUPDATE
 40
2457170.942089861
  9
$TDUUPDATE
 40
2457170.525423194
  9
$TDINDWG
 40
0.2673701042
  9
$TDUSRTIMER
 40
2457170.505095636
  9
$USRTIMER
 70
     1
  9
$ANGBASE
 50
0.0
  9
$ANGDIR
 70
     0
  9
$PDMODE
 70
     0
  9
$PDSIZE
 40
0.0
  9
$PLINEWID
 40
0.0
  9
$SPLFRAME
 70
     0
  9
$SPLINETYPE
 70
     6
  9
$SPLINESEGS
 70
     8
  9
$HANDSEED
  5
108E
  9
$SURFTAB1
 70
     6
  9
$SURFTAB2
 70
     6
  9
$SURFTYPE
 70
     6
  9
$SURFU
 70
     6
  9
$SURFV
 70
     6
  9
$UCSBASE
  2

  9
$UCSNAME
  2

  9
$UCSORG
 10
0.0
 20
0.0
 30
0.0
  9
$UCSXDIR
 10
1.0
 20
0.0
 30
0.0
  9
$UCSYDIR
 10
0.0
 20
1.0
 30
0.0
  9
$UCSORTHOREF
  2

  9
$UCSORTHOVIEW
 70
     0
  9
$UCSORGTOP
 10
0.0
 20
0.0
 30
0.0
  9
$UCSORGBOTTOM
 10
0.0
 20
0.0
 30
0.0
  9
$UCSORGLEFT
 10
0.0
 20
0.0
 30
0.0
  9
$UCSORGRIGHT
 10
0.0
 20
0.0
 30
0.0
  9
$UCSORGFRONT
 10
0.0
 20
0.0
 30
0.0
  9
$UCSORGBACK
 10
0.0
 20
0.0
 30
0.0
  9
$PUCSBASE
  2

  9
$PUCSNAME
  2

  9
$PUCSORG
 10
0.0
 20
0.0
 30
0.0
  9
$PUCSXDIR
 10
1.0
 20
0.0
 30
0.0
  9
$PUCSYDIR
 10
0.0
 20
1.0
 30
0.0
  9
$PUCSORTHOREF
  2

  9
$PUCSORTHOVIEW
 70
     0
  9
$PUCSORGTOP
 10
0.0
 20
0.0
 30
0.0
  9
$PUCSORGBOTTOM
 10
0.0
 20
0.0
 30
0.0
  9
$PUCSORGLEFT
 10
0.0
 20
0.0
 30
0.0
  9
$PUCSORGRIGHT
 10
0.0
 20
0.0
 30
0.0
  9
$PUCSORGFRONT
 10
0.0
 20
0.0
 30
0.0
  9
$PUCSORGBACK
 10
0.0
 20
0.0
 30
0.0
  9
$USERI1
 70
     0
  9
$USERI2
 70
     0
  9
$USERI3
 70
     0
  9
$USERI4
 70
     0
  9
$USERI5
 70
     0
  9
$USERR1
 40
0.0
  9
$USERR2
 40
0.0
  9
$USERR3
 40
0.0
  9
$USERR4
 40
0.0
  9
$USERR5
 40
0.0
  9
$WORLDVIEW
 70
     1
  9
$SHADEDGE
 70
     3
  9
$SHADEDIF
 70
    70
  9
$TILEMODE
 70
     1
  9
$MAXACTVP
 70
    64
  9
$PINSBASE
 10
0.0
 20
0.0
 30
0.0
  9
$PLIMCHECK
 70
     0
  9
$PEXTMIN
 10
1.000000000000000E+20
 20
1.000000000000000E+20
 30
1.000000000000000E+20
  9
$PEXTMAX
 10
-1.000000000000000E+20
 20
-1.000000000000000E+20
 30
-1.000000000000000E+20
  9
$PLIMMIN
 10
0.0
 20
0.0
  9
$PLIMMAX
 10
0.0
 20
0.0
  9
$UNITMODE
 70
     0
  9
$VISRETAIN
 70
     1
  9
$PLINEGEN
 70
     0
  9
$PSLTSCALE
 70
     1
  9
$TREEDEPTH
 70
  3020
  9
$CMLSTYLE
  2
Standard
  9
$CMLJUST
 70
     0
  9
$CMLSCALE
 40
20.0
  9
$PROXYGRAPHICS
 70
     1
  9
$MEASUREMENT
 70
     1
  9
$CELWEIGHT
370
    -1
  9
$ENDCAPS
280
     0
  9
$JOINSTYLE
280
     0
  9
$LWDISPLAY
290
     0
  9
$INSUNITS
 70
     4
  9
$HYPERLINKBASE
  1

  9
$STYLESHEET
  1

  9
$XEDIT
290
     1
  9
$CEPSNTYPE
380
     0
  9
$PSTYLEMODE
290
     1
  9
$FINGERPRINTGUID
  2
{EC6BB858-51AA-46EC-B484-6C9CC7AB3E2E}
  9
$VERSIONGUID
  2
{FAEB1C32-E019-11D5-929B-00C0DF256EC4}
  9
$EXTNAMES
290
     1
  9
$PSVPSCALE
 40
0.0
  9
$OLESTARTUP
290
     0
  9
$SORTENTS
280
   127
  9
$INDEXCTL
280
     0
  9
$HIDETEXT
280
     1
  9
$XCLIPFRAME
280
     0
  9
$HALOGAP
280
     0
  9
$OBSCOLOR
 70
   257
  9
$OBSLTYPE
280
     0
  9
$INTERSECTIONDISPLAY
280
     0
  9
$INTERSECTIONCOLOR
 70
   257
  9
$DIMASSOC
280
     2
  9
$PROJECTNAME
  1

  9
$CAMERADISPLAY
290
     0
  9
$LENSLENGTH
 40
50.0
  9
$CAMERAHEIGHT
 40
0.0
  9
$STEPSPERSEC
 40
2.0
  9
$STEPSIZE
 40
6.0
  9
$3DDWFPREC
 40
2.0
  9
$PSOLWIDTH
 40
5.0
  9
$PSOLHEIGHT
 40
80.0
  9
$LOFTANG1
 40
1.570796326794897
  9
$LOFTANG2
 40
1.570796326794897
  9
$LOFTMAG1
 40
0.0
  9
$LOFTMAG2
 40
0.0
  9
$LOFTPARAM
 70
     7
  9
$LOFTNORMALS
280
     1
  9
$LATITUDE
 40
37.795
  9
$LONGITUDE
 40
-122.394
  9
$NORTHDIRECTION
 40
0.0
  9
$TIMEZONE
 70
 -8000
  9
$LIGHTGLYPHDISPLAY
280
     1
  9
$TILEMODELIGHTSYNCH
280
     1
  9
$SOLIDHIST
280
     1
  9
$SHOWHIST
280
     1
  9
$DWFFRAME
280
     2
  9
$DGNFRAME
280
     2
  9
$REALWORLDSCALE
290
     1
  9
$INTERFERECOLOR
 62
   256
  9
$CSHADOW
280
     0
  9
$SHADOWPLANELOCATION
 40
0.0
  0
ENDSEC
  0
SECTION
  2
CLASSES
  0
CLASS
  1
ACDBDICTIONARYWDFLT
  2
AcDbDictionaryWithDefault
  3
ObjectDBX Classes
 90
        0
 91
        4
280
     0
281
     0
  0
CLASS
  1
VISUALSTYLE
  2
AcDbVisualStyle
  3
ObjectDBX Classes
 90
     4095
 91
        4
280
     0
281
     0
  0
CLASS
  1
TABLESTYLE
  2
AcDbTableStyle
  3
ObjectDBX Classes
 90
     4095
 91
        4
280
     0
281
     0
  0
CLASS
  1
DICTIONARYVAR
  2
AcDbDictionaryVar
  3
ObjectDBX Classes
 90
        0
 91
        4
280
     0
281
     0
  0
CLASS
  1
SCALE
  2
AcDbScale
  3
ObjectDBX Classes
 90
     1153
 91
        4
280
     0
281
     0
  0
CLASS
  1
CELLSTYLEMAP
  2
AcDbCellStyleMap
  3
ObjectDBX Classes
 90
     1152
 91
        4
280
     0
281
     0
  0
CLASS
  1
RASTERVARIABLES
  2
AcDbRasterVariables
  3
ISM
 90
        0
 91
        4
280
     0
281
     0
  0
CLASS
  1
MATERIAL
  2
AcDbMaterial
  3
ObjectDBX Classes
 90
     1153
 91
        4
280
     0
281
     0
  0
CLASS
  1
SUN
  2
AcDbSun
  3
SCENEOE
 90
     1153
 91
        4
280
     0
281
     0
  0
CLASS
  1
MLEADERSTYLE
  2
AcDbMLeaderStyle
  3
ACDB_MLEADERSTYLE_CLASS
 90
     4095
 91
        4
280
     0
281
     0
  0
CLASS
  1
SORTENTSTABLE
  2
AcDbSortentsTable
  3
ObjectDBX Classes
 90
        0
 91
        4
280
     0
281
     0
  0
ENDSEC
  0
SECTION
  2
TABLES
  0
TABLE
  2
VPORT
  5
8
330
0
100
AcDbSymbolTable
 70
     1
  0
VPORT
  5
29
330
8
100
AcDbSymbolTableRecord
100
AcDbViewportTableRecord
  2
*Active
 70
     0
 10
0.0
 20
0.0
 11
1.0
 21
1.0
 12
488.222279529412
 22
86.72448702998389
 13
0.0
 23
0.0
 14
10.0
 24
10.0
 15
10.0
 25
10.0
 16
0.0
 26
0.0
 36
1.0
 17
-134.1869158878516
 27
0.0
 37
0.0
 40
944.877646220117
 41
1.846501128668172
 42
50.0
 43
0.0
 44
0.0
 50
0.0
 51
0.0
 71
    16
 72
  1000
 73
     1
 74
     3
 75
     0
 76
     0
 77
     0
 78
     0
281
     0
 65
     1
110
0.0
120
0.0
130
0.0
111
1.0
121
0.0
131
0.0
112
0.0
122
1.0
132
0.0
 79
     0
146
0.0
348
2F
 60
     3
 61
     5
292
     1
282
     1
141
0.0
142
0.0
 63
   256
361
80
  0
ENDTAB
  0
TABLE
  2
LTYPE
  5
5
330
0
100
AcDbSymbolTable
 70
     1
  0
LTYPE
  5
14
330
5
100
AcDbSymbolTableRecord
100
AcDbLinetypeTableRecord
  2
ByBlock
 70
     0
  3

 72
    65
 73
     0
 40
0.0
  0
LTYPE
  5
15
330
5
100
AcDbSymbolTableRecord
100
AcDbLinetypeTableRecord
  2
ByLayer
 70
     0
  3

 72
    65
 73
     0
 40
0.0
  0
LTYPE
  5
16
330
5
100
AcDbSymbolTableRecord
100
AcDbLinetypeTableRecord
  2
Continuous
 70
     0
  3
Solid line
 72
    65
 73
     0
 40
0.0
  0
ENDTAB
  0
TABLE
  2
LAYER
  5
2
102
{ACAD_XDICTIONARY
360
E5
102
}
330
0
100
AcDbSymbolTable
 70
     4
  0
LAYER
  5
10
330
2
100
AcDbSymbolTableRecord
100
AcDbLayerTableRecord
  2
0
 70
     0
 62
     7
  6
Continuous
370
    -3
390
F
347
75
348
0
  0
LAYER
  5
B9
330
2
100
AcDbSymbolTableRecord
100
AcDbLayerTableRecord
  2
Defpoints
 70
     0
 62
     7
  6
Continuous
290
     0
370
    -3
390
F
347
75
348
0
  0
LAYER
  5
174
102
{ACAD_XDICTIONARY
360
175
102
}
330
2
100
AcDbSymbolTableRecord
100
AcDbLayerTableRecord
  2
FRAME
 70
     0
 62
     7
  6
Continuous
370
    -3
390
F
347
75
348
0
  0
LAYER
  5
178
102
{ACAD_XDICTIONARY
360
179
102
}
330
2
100
AcDbSymbolTableRecord
100
AcDbLayerTableRecord
  2
CORTES_INTERIORES
 70
     0
 62
     1
  6
Continuous
370
    -3
390
F
347
75
348
0
  0
ENDTAB
  0
TABLE
  2
STYLE
  5
3
330
0
100
AcDbSymbolTable
 70
     1
  0
STYLE
  5
11
330
3
100
AcDbSymbolTableRecord
100
AcDbTextStyleTableRecord
  2
Standard
 70
     0
 40
0.0
 41
1.0
 50
0.0
 71
     0
 42
2.5
  3
arial.ttf
  4

1001
ACAD
1000
Arial
1071
        0
  0
ENDTAB
  0
TABLE
  2
VIEW
  5
6
330
0
100
AcDbSymbolTable
 70
     0
  0
ENDTAB
  0
TABLE
  2
UCS
  5
7
330
0
100
AcDbSymbolTable
 70
     0
  0
ENDTAB
  0
TABLE
  2
APPID
  5
9
330
0
100
AcDbSymbolTable
 70
     2
  0
APPID
  5
12
330
9
100
AcDbSymbolTableRecord
100
AcDbRegAppTableRecord
  2
ACAD
 70
     0
  0
APPID
  5
BC
330
9
100
AcDbSymbolTableRecord
100
AcDbRegAppTableRecord
  2
ACAD_NAV_VCDISPLAY
 70
     0
  0
ENDTAB
  0
TABLE
  2
DIMSTYLE
  5
A
330
0
100
AcDbSymbolTable
 70
     2
100
AcDbDimStyleTable
  0
DIMSTYLE
105
27
330
A
100
AcDbSymbolTableRecord
100
AcDbDimStyleTableRecord
  2
ISO-25
 70
     0
 41
2.5
 42
0.625
 43
3.75
 44
1.25
 73
     0
 74
     0
 77
     1
 78
     8
140
2.5
141
2.5
143
0.03937007874016
147
0.625
171
     3
172
     1
178
     0
271
     2
272
     2
274
     3
278
    44
283
     0
284
     8
340
11
  0
DIMSTYLE
105
BA
330
A
100
AcDbSymbolTableRecord
100
AcDbDimStyleTableRecord
  2
Standard
 70
     0
178
     0
340
11
  0
ENDTAB
  0
TABLE
  2
BLOCK_RECORD
  5
1
330
0
100
AcDbSymbolTable
 70
     1
  0
BLOCK_RECORD
  5
1F
330
1
100
AcDbSymbolTableRecord
100
AcDbBlockTableRecord
  2
*Model_Space
340
22
 70
     0
280
     1
281
     0
  0
BLOCK_RECORD
  5
1B
330
1
100
AcDbSymbolTableRecord
100
AcDbBlockTableRecord
  2
*Paper_Space
340
1E
 70
     0
280
     1
281
     0
  0
BLOCK_RECORD
  5
23
330
1
100
AcDbSymbolTableRecord
100
AcDbBlockTableRecord
  2
*Paper_Space0
340
26
 70
     0
280
     1
281
     0
  0
ENDTAB
  0
ENDSEC
  0
SECTION
  2
BLOCKS
  0
BLOCK
  5
20
330
1F
100
AcDbEntity
  8
0
100
AcDbBlockBegin
  2
*Model_Space
 70
     0
 10
0.0
 20
0.0
 30
0.0
  3
*Model_Space
  1
*Model_Space
  0
ENDBLK
  5
21
330
1F
100
AcDbEntity
  8
0
100
AcDbBlockEnd
  0
BLOCK
  5
1C
330
1B
100
AcDbEntity
 67
     1
  8
0
100
AcDbBlockBegin
  2
*Paper_Space
 70
     0
 10
0.0
 20
0.0
 30
0.0
  3
*Paper_Space
  1
*Paper_Space
  0
ENDBLK
  5
1D
330
1B
100
AcDbEntity
 67
     1
  8
0
100
AcDbBlockEnd
  0
BLOCK
  5
24
330
23
100
AcDbEntity
  8
0
100
AcDbBlockBegin
  2
*Paper_Space0
 70
     0
 10
0.0
 20
0.0
 30
0.0
  3
*Paper_Space0
  1
*Paper_Space0
  0
ENDBLK
  5
25
330
23
100
AcDbEntity
  8
0
100
AcDbBlockEnd
  0
ENDSEC
  0
SECTION
  2
ENTITIES
  0
ARC
  5
EC
330
1F
100
AcDbEntity
  8
FRAME
  6
Continuous
 62
     0
100
AcDbCircle
 10
80.73307984790873
 20
282.7961507021409
 30
0.0000000000000071
 40
15.0
100
AcDbArc
 50
8.787074624561447
 51
255.9016941484026
  0
ARC
  5
ED
330
1F
100
AcDbEntity
  8
FRAME
  6
Continuous
 62
     0
100
AcDbCircle
 10
293.2241354760907
 20
282.7961507021409
 30
0.0000000000000071
 40
15.0
100
AcDbArc
 50
284.1616544582292
 51
171.2762739820708
  0
ARC
  5
EE
330
1F
100
AcDbEntity
  8
FRAME
  6
Continuous
 62
     0
100
AcDbCircle
 10
293.3531102796386
 20
49.49311384228969
 30
0.0000000000000071
 40
15.0
100
AcDbArc
 50
188.7870746245615
 51
75.90169414840274
  0
ARC
  5
EF
330
1F
100
AcDbEntity
  8
FRAME
  6
Continuous
 62
     0
100
AcDbCircle
 10
80.86218453062034
 20
49.25817490494296
 30
0.0000000000000071
 40
15.0
100
AcDbArc
 50
104.1616544582292
 51
351.2762739820707
  0
LINE
  5
F6
330
1F
100
AcDbEntity
  8
FRAME
  6
Continuous
 62
     0
100
AcDbLine
 10
295.0060622782498
 20
266.1757998754422
 30
0.0000000000000071
 11
232.2460187921557
 21
197.1575343555042
 31
0.0000000000000071
  0
LINE
  5
F9
330
1F
100
AcDbEntity
  8
FRAME
  6
Continuous
 62
     0
100
AcDbLine
 10
277.1867177883825
 20
283.7395006791843
 30
0.0000000000000071
 11
253.5992648174
 21
257.799985636448
 31
0.0000000000000071
  0
LINE
  5
FB
330
1F
100
AcDbEntity
  8
FRAME
  6
Continuous
 62
     0
100
AcDbLine
 10
296.8940133348077
 20
268.2520111090918
 30
0.0000000000000071
 11
295.0060622782498
 21
266.1757998754422
 31
0.0000000000000071
  0
LINE
  5
FD
330
1F
100
AcDbEntity
  8
FRAME
  6
Continuous
 62
     0
100
AcDbLine
 10
278.3976679952852
 20
285.071202798383
 30
0.0000000000000071
 11
277.1867177883825
 21
283.7395006791843
 31
0.0000000000000071
  0
LINE
  5
102
330
1F
100
AcDbEntity
  8
FRAME
  6
Continuous
 62
     0
100
AcDbLine
 10
95.55702287435777
 20
285.0875941661157
 30
0.0000000000000071
 11
120.4925646611903
 21
257.7264014656861
 31
0.0000000000000071
  0
LINE
  5
103
330
1F
100
AcDbEntity
  8
FRAME
  6
Continuous
 62
     0
100
AcDbLine
 10
77.07928483715531
 20
268.2479624293904
 30
0.0000000000000071
 11
141.8252854935356
 21
197.203674894526
 31
0.0000000000000071
  0
LINE
  5
10D
330
1F
100
AcDbEntity
  8
FRAME
  6
Continuous
 62
     0
100
AcDbLine
 10
253.7006270421697
 20
74.44545272688252
 30
0.0000000000000071
 11
278.5291672531895
 21
47.20167037831493
 31
0.0000000000000071
  0
LINE
  5
10E
330
1F
100
AcDbEntity
  8
FRAME
  6
Continuous
 62
     0
100
AcDbLine
 10
141.8401713353916
 20
134.8966484212992
 30
0.0000000000000071
 11
77.1923066719034
 21
63.80231449799209
 31
0.0000000000000071
  0
LINE
  5
10F
330
1F
100
AcDbEntity
  8
FRAME
  6
Continuous
 62
     0
100
AcDbLine
 10
232.2609046340117
 20
135.0855896499046
 30
0.0000000000000071
 11
297.0069052903921
 21
64.04130211504008
 31
0.0000000000000071
  0
LINE
  5
110
330
1F
100
AcDbEntity
  8
FRAME
  6
Continuous
 62
     0
100
AcDbLine
 10
120.59392688596
 20
74.37186855612059
 30
0.0000000000000071
 11
95.68865201142589
 21
46.98312280870081
 31
0.0000000000000071
  0
ARC
  5
15D
330
1F
100
AcDbEntity
  8
FRAME
  6
Continuous
 62
     0
100
AcDbCircle
 10
187.0124215951191
 20
318.3490757178968
 30
0.0000000000000071
 40
90.0
100
AcDbArc
 50
222.3443843864821
 51
317.7189642201499
  0
ARC
  5
15E
330
1F
100
AcDbEntity
  8
FRAME
  6
Continuous
 62
     0
100
AcDbCircle
 10
187.1807701082409
 20
13.82277847467188
 30
0.0000000000000071
 40
90.0
100
AcDbArc
 50
42.34438438648212
 51
137.7189642201499
  0
LINE
  5
163
330
1F
100
AcDbEntity
  8
FRAME
 62
     0
100
AcDbLine
 10
147.0430950637736
 20
148.3520017727323
 30
0.0000000000000071
 11
147.0430950637736
 21
183.7319695051459
 31
0.0000000000000071
  0
LINE
  5
164
330
1F
100
AcDbEntity
  8
FRAME
 62
     0
100
AcDbLine
 10
227.0430950637736
 20
148.5572950392848
 30
0.0000000000000071
 11
227.0430950637736
 21
183.7021810040712
 31
0.0000000000000071
  0
ARC
  5
168
330
1F
100
AcDbEntity
  8
FRAME
 62
     0
100
AcDbCircle
 10
247.0430950637737
 20
183.7021810040712
 30
0.0000000000000071
 40
20.00000000000004
100
AcDbArc
 50
137.7189642201499
 51
180.0
  0
ARC
  5
169
330
1F
100
AcDbEntity
  8
FRAME
 62
     0
100
AcDbCircle
 10
247.0430950637736
 20
148.5572950392848
 30
0.0000000000000071
 40
20.0
100
AcDbArc
 50
180.0
 51
222.3443843864821
  0
ARC
  5
16A
330
1F
100
AcDbEntity
  8
FRAME
 62
     0
100
AcDbCircle
 10
127.0430950637736
 20
183.7319695051459
 30
0.0000000000000071
 40
20.0
100
AcDbArc
 50
0.0
 51
42.34438438648212
  0
ARC
  5
16B
330
1F
100
AcDbEntity
  8
FRAME
 62
     0
100
AcDbCircle
 10
127.0430950637737
 20
148.3520017727323
 30
0.0000000000000071
 40
19.99999999999999
100
AcDbArc
 50
317.7189642201499
 51
0.0
  0
CIRCLE
  5
1C2
330
1F
100
AcDbEntity
  8
CORTES_INTERIORES
100
AcDbCircle
 10
301.3756527138299
 20
41.46316146687886
 30
0.0000000000000071
 40
1.0
  0
CIRCLE
  5
1C3
330
1F
100
AcDbEntity
  8
CORTES_INTERIORES
100
AcDbCircle
 10
301.3579624492379
 20
57.46315168733022
 30
0.0000000000000071
 40
1.0
  0
CIRCLE
  5
1C4
330
1F
100
AcDbEntity
  8
CORTES_INTERIORES
100
AcDbCircle
 10
285.3579722287865
 20
57.44546142273796
 30
0.0000000000000071
 40
1.0
  0
CIRCLE
  5
1C5
330
1F
100
AcDbEntity
  8
CORTES_INTERIORES
100
AcDbCircle
 10
285.3756624933789
 20
41.44547120228665
 30
0.0000000000000071
 40
1.0
  0
CIRCLE
  5
204
330
1F
100
AcDbEntity
  8
CORTES_INTERIORES
100
AcDbCircle
 10
88.91506350213984
 20
57.27036245473599
 30
0.0
 40
1.0
  0
CIRCLE
  5
205
330
1F
100
AcDbEntity
  8
CORTES_INTERIORES
100
AcDbCircle
 10
88.9327537667321
 20
41.27037223428461
 30
0.0
 40
1.0
  0
CIRCLE
  5
206
330
1F
100
AcDbEntity
  8
CORTES_INTERIORES
100
AcDbCircle
 10
72.93276354628068
 20
41.25268196969235
 30
0.0
 40
1.0
  0
CIRCLE
  5
207
330
1F
100
AcDbEntity
  8
CORTES_INTERIORES
100
AcDbCircle
 10
72.91507328168842
 20
57.25267219014371
 30
0.0
 40
1.0
  0
CIRCLE
  5
2A0
330
1F
100
AcDbEntity
  8
CORTES_INTERIORES
100
AcDbCircle
 10
88.71287253265194
 20
290.7699710727208
 30
0.0
 40
1.0
  0
CIRCLE
  5
2A1
330
1F
100
AcDbEntity
  8
CORTES_INTERIORES
100
AcDbCircle
 10
88.71287253265194
 20
274.7699710727209
 30
0.0
 40
1.0
  0
CIRCLE
  5
2A2
330
1F
100
AcDbEntity
  8
CORTES_INTERIORES
100
AcDbCircle
 10
72.71287253265194
 20
274.7699710727209
 30
0.0
 40
1.0
  0
CIRCLE
  5
2A3
330
1F
100
AcDbEntity
  8
CORTES_INTERIORES
100
AcDbCircle
 10
72.71287253265194
 20
290.7699710727208
 30
0.0
 40
1.0
  0
CIRCLE
  5
2EF
330
1F
100
AcDbEntity
  8
CORTES_INTERIORES
100
AcDbCircle
 10
301.8674125369346
 20
291.594139120847
 30
0.0
 40
1.0
  0
CIRCLE
  5
2F0
330
1F
100
AcDbEntity
  8
CORTES_INTERIORES
100
AcDbCircle
 10
301.8674125369346
 20
275.5941391208471
 30
0.0
 40
1.0
  0
CIRCLE
  5
2F1
330
1F
100
AcDbEntity
  8
CORTES_INTERIORES
100
AcDbCircle
 10
285.8674125369346
 20
275.5941391208471
 30
0.0
 40
1.0
  0
CIRCLE
  5
2F2
330
1F
100
AcDbEntity
  8
CORTES_INTERIORES
100
AcDbCircle
 10
285.8674125369346
 20
291.594139120847
 30
0.0
 40
1.0
  0
CIRCLE
  5
465
330
1F
100
AcDbEntity
  8
CORTES_INTERIORES
  6
Continuous
 62
     1
100
AcDbCircle
 10
171.861458529999
 20
151.3457013556491
 30
0.0
 40
1.5
  0
CIRCLE
  5
466
330
1F
100
AcDbEntity
  8
CORTES_INTERIORES
  6
Continuous
 62
     1
100
AcDbCircle
 10
202.361458529999
 20
151.3457013556491
 30
0.0
 40
1.5
  0
CIRCLE
  5
467
330
1F
100
AcDbEntity
  8
CORTES_INTERIORES
  6
Continuous
 62
     1
100
AcDbCircle
 10
171.861458529999
 20
181.8457013556491
 30
0.0
 40
1.5
  0
CIRCLE
  5
468
330
1F
100
AcDbEntity
  8
CORTES_INTERIORES
  6
Continuous
 62
     1
100
AcDbCircle
 10
202.361458529999
 20
181.8457013556491
 30
0.0
 40
1.5
  0
CIRCLE
  5
471
330
1F
100
AcDbEntity
  8
CORTES_INTERIORES
  6
Continuous
100
AcDbCircle
 10
164.6130922199985
 20
144.134676354782
 30
0.0
 40
1.5
  0
CIRCLE
  5
472
330
1F
100
AcDbEntity
  8
CORTES_INTERIORES
  6
Continuous
100
AcDbCircle
 10
209.6130922199985
 20
144.134676354782
 30
0.0
 40
1.5
  0
CIRCLE
  5
473
330
1F
100
AcDbEntity
  8
CORTES_INTERIORES
  6
Continuous
100
AcDbCircle
 10
164.6130922199985
 20
189.134676354782
 30
0.0
 40
1.5
  0
CIRCLE
  5
474
330
1F
100
AcDbEntity
  8
CORTES_INTERIORES
  6
Continuous
100
AcDbCircle
 10
209.6130922199985
 20
189.134676354782
 30
0.0
 40
1.5
  0
CIRCLE
  5
48B
330
1F
100
AcDbEntity
  8
Defpoints
  6
Continuous
 62
     1
100
AcDbCircle
 10
149.814145383083
 20
129.5426643958337
 30
0.0
 40
1.5
  0
LINE
  5
4D3
330
1F
100
AcDbEntity
  8
FRAME
  6
Continuous
 62
     0
100
AcDbLine
 10
129.9069279281239
 20
78.31700169310005
 30
0.0
 11
230.9069279281238
 21
78.31700169310005
 31
0.0
  0
LINE
  5
4D4
330
1F
100
AcDbEntity
  8
FRAME
  6
Continuous
 62
     0
100
AcDbLine
 10
129.9069279281239
 20
78.31700169310005
 30
0.0
 11
129.9069279281239
 21
59.81700169310005
 31
0.0
  0
LINE
  5
4D5
330
1F
100
AcDbEntity
  8
FRAME
  6
Continuous
 62
     0
100
AcDbLine
 10
138.906927928124
 20
63.31700169310005
 30
0.0
 11
148.906927928124
 21
63.31700169310005
 31
0.0
  0
LINE
  5
4D6
330
1F
100
AcDbEntity
  8
FRAME
  6
Continuous
 62
     0
100
AcDbLine
 10
138.906927928124
 20
63.31700169310005
 30
0.0
 11
138.9069279281239
 21
59.81700169310005
 31
0.0
  0
LINE
  5
4D7
330
1F
100
AcDbEntity
  8
FRAME
  6
Continuous
 62
     0
100
AcDbLine
 10
129.9069279281239
 20
59.81700169310005
 30
0.0
 11
138.906927928124
 21
59.81700169310005
 31
0.0
  0
LINE
  5
4D8
330
1F
100
AcDbEntity
  8
FRAME
  6
Continuous
 62
     0
100
AcDbLine
 10
148.906927928124
 20
63.31700169310005
 30
0.0
 11
148.9069279281239
 21
59.81700169310005
 31
0.0
  0
LINE
  5
4D9
330
1F
100
AcDbEntity
  8
FRAME
  6
Continuous
 62
     0
100
AcDbLine
 10
157.9069279281242
 20
63.31700169310005
 30
0.0
 11
157.906927928124
 21
59.81700169310005
 31
0.0
  0
LINE
  5
4DA
330
1F
100
AcDbEntity
  8
FRAME
  6
Continuous
 62
     0
100
AcDbLine
 10
148.9069279281239
 20
59.81700169310005
 30
0.0
 11
157.906927928124
 21
59.81700169310005
 31
0.0
  0
LINE
  5
4DB
330
1F
100
AcDbEntity
  8
FRAME
  6
Continuous
 62
     0
100
AcDbLine
 10
167.9069279281242
 20
63.31700169310005
 30
0.0
 11
167.906927928124
 21
59.81700169310005
 31
0.0
  0
LINE
  5
4DC
330
1F
100
AcDbEntity
  8
FRAME
  6
Continuous
 62
     0
100
AcDbLine
 10
176.9069279281243
 20
63.31700169310005
 30
0.0
 11
176.9069279281242
 21
59.81700169310005
 31
0.0
  0
LINE
  5
4DD
330
1F
100
AcDbEntity
  8
FRAME
  6
Continuous
 62
     0
100
AcDbLine
 10
167.906927928124
 20
59.81700169310005
 30
0.0
 11
176.9069279281242
 21
59.81700169310005
 31
0.0
  0
LINE
  5
4DE
330
1F
100
AcDbEntity
  8
FRAME
  6
Continuous
 62
     0
100
AcDbLine
 10
176.9069279281243
 20
63.31700169310005
 30
0.0
 11
186.9069279281243
 21
63.31700169310005
 31
0.0
  0
LINE
  5
4DF
330
1F
100
AcDbEntity
  8
FRAME
  6
Continuous
 62
     0
100
AcDbLine
 10
186.9069279281243
 20
63.31700169310005
 30
0.0
 11
186.9069279281242
 21
59.81700169310005
 31
0.0
  0
LINE
  5
4E0
330
1F
100
AcDbEntity
  8
FRAME
  6
Continuous
 62
     0
100
AcDbLine
 10
195.9069279281244
 20
63.31700169310005
 30
0.0
 11
195.9069279281243
 21
59.81700169310005
 31
0.0
  0
LINE
  5
4E1
330
1F
100
AcDbEntity
  8
FRAME
  6
Continuous
 62
     0
100
AcDbLine
 10
186.9069279281242
 20
59.81700169310005
 30
0.0
 11
195.9069279281243
 21
59.81700169310005
 31
0.0
  0
LINE
  5
4E2
330
1F
100
AcDbEntity
  8
FRAME
  6
Continuous
 62
     0
100
AcDbLine
 10
205.9069279281244
 20
63.31700169310005
 30
0.0
 11
205.9069279281243
 21
59.81700169310005
 31
0.0
  0
LINE
  5
4E3
330
1F
100
AcDbEntity
  8
FRAME
  6
Continuous
 62
     0
100
AcDbLine
 10
214.9069279281245
 20
63.31700169310005
 30
0.0
 11
214.9069279281244
 21
59.81700169310005
 31
0.0
  0
LINE
  5
4E4
330
1F
100
AcDbEntity
  8
FRAME
  6
Continuous
 62
     0
100
AcDbLine
 10
205.9069279281243
 20
59.81700169310005
 30
0.0
 11
214.9069279281244
 21
59.81700169310005
 31
0.0
  0
LINE
  5
4E5
330
1F
100
AcDbEntity
  8
FRAME
  6
Continuous
 62
     0
100
AcDbLine
 10
214.9069279281245
 20
63.31700169310005
 30
0.0
 11
239.9069279281239
 21
63.31700169310005
 31
0.0
  0
LINE
  5
4E6
330
1F
100
AcDbEntity
  8
FRAME
  6
Continuous
 62
     0
100
AcDbLine
 10
157.9069279281242
 20
63.31700169310005
 30
0.0
 11
167.9069279281242
 21
63.31700169310005
 31
0.0
  0
LINE
  5
4E7
330
1F
100
AcDbEntity
  8
FRAME
  6
Continuous
 62
     0
100
AcDbLine
 10
195.9069279281244
 20
63.31700169310005
 30
0.0
 11
205.9069279281244
 21
63.31700169310005
 31
0.0
  0
LINE
  5
4E8
330
1F
100
AcDbEntity
  8
FRAME
  6
Continuous
 62
     0
100
AcDbLine
 10
239.9069279281239
 20
81.81700169310005
 30
0.0
 11
239.9069279281239
 21
63.31700169310005
 31
0.0
  0
LINE
  5
4E9
330
1F
100
AcDbEntity
  8
FRAME
  6
Continuous
 62
     0
100
AcDbLine
 10
230.9069279281238
 20
78.31700169310005
 30
0.0
 11
230.9069279281239
 21
81.81700169310005
 31
0.0
  0
LINE
  5
4EA
330
1F
100
AcDbEntity
  8
FRAME
  6
Continuous
 62
     0
100
AcDbLine
 10
239.9069279281239
 20
81.81700169310005
 30
0.0
 11
230.9069279281238
 21
81.81700169310005
 31
0.0
  0
LINE
  5
586
330
1F
100
AcDbEntity
  8
FRAME
  6
Continuous
 62
     0
100
AcDbLine
 10
134.9273332638827
 20
269.3358585848692
 30
0.0
 11
235.9273332638826
 21
269.3358585848692
 31
0.0
  0
LINE
  5
587
330
1F
100
AcDbEntity
  8
FRAME
  6
Continuous
 62
     0
100
AcDbLine
 10
134.9273332638827
 20
269.3358585848692
 30
0.0
 11
134.9273332638827
 21
250.8358585848692
 31
0.0
  0
LINE
  5
588
330
1F
100
AcDbEntity
  8
FRAME
  6
Continuous
 62
     0
100
AcDbLine
 10
143.9273332638828
 20
254.3358585848692
 30
0.0
 11
153.9273332638828
 21
254.3358585848692
 31
0.0
  0
LINE
  5
589
330
1F
100
AcDbEntity
  8
FRAME
  6
Continuous
 62
     0
100
AcDbLine
 10
143.9273332638828
 20
254.3358585848692
 30
0.0
 11
143.9273332638827
 21
250.8358585848692
 31
0.0
  0
LINE
  5
58A
330
1F
100
AcDbEntity
  8
FRAME
  6
Continuous
 62
     0
100
AcDbLine
 10
134.9273332638827
 20
250.8358585848692
 30
0.0
 11
143.9273332638828
 21
250.8358585848692
 31
0.0
  0
LINE
  5
58B
330
1F
100
AcDbEntity
  8
FRAME
  6
Continuous
 62
     0
100
AcDbLine
 10
153.9273332638828
 20
254.3358585848692
 30
0.0
 11
153.9273332638827
 21
250.8358585848692
 31
0.0
  0
LINE
  5
58C
330
1F
100
AcDbEntity
  8
FRAME
  6
Continuous
 62
     0
100
AcDbLine
 10
162.9273332638829
 20
254.3358585848692
 30
0.0
 11
162.9273332638828
 21
250.8358585848692
 31
0.0
  0
LINE
  5
58D
330
1F
100
AcDbEntity
  8
FRAME
  6
Continuous
 62
     0
100
AcDbLine
 10
153.9273332638827
 20
250.8358585848692
 30
0.0
 11
162.9273332638828
 21
250.8358585848692
 31
0.0
  0
LINE
  5
58E
330
1F
100
AcDbEntity
  8
FRAME
  6
Continuous
 62
     0
100
AcDbLine
 10
172.9273332638829
 20
254.3358585848692
 30
0.0
 11
172.9273332638828
 21
250.8358585848692
 31
0.0
  0
LINE
  5
58F
330
1F
100
AcDbEntity
  8
FRAME
  6
Continuous
 62
     0
100
AcDbLine
 10
181.927333263883
 20
254.3358585848692
 30
0.0
 11
181.9273332638829
 21
250.8358585848692
 31
0.0
  0
LINE
  5
590
330
1F
100
AcDbEntity
  8
FRAME
  6
Continuous
 62
     0
100
AcDbLine
 10
172.9273332638828
 20
250.8358585848692
 30
0.0
 11
181.9273332638829
 21
250.8358585848692
 31
0.0
  0
LINE
  5
591
330
1F
100
AcDbEntity
  8
FRAME
  6
Continuous
 62
     0
100
AcDbLine
 10
181.927333263883
 20
254.3358585848692
 30
0.0
 11
191.927333263883
 21
254.3358585848692
 31
0.0
  0
LINE
  5
592
330
1F
100
AcDbEntity
  8
FRAME
  6
Continuous
 62
     0
100
AcDbLine
 10
191.927333263883
 20
254.3358585848692
 30
0.0
 11
191.9273332638829
 21
250.8358585848692
 31
0.0
  0
LINE
  5
593
330
1F
100
AcDbEntity
  8
FRAME
  6
Continuous
 62
     0
100
AcDbLine
 10
200.9273332638831
 20
254.3358585848692
 30
0.0
 11
200.927333263883
 21
250.8358585848692
 31
0.0
  0
LINE
  5
594
330
1F
100
AcDbEntity
  8
FRAME
  6
Continuous
 62
     0
100
AcDbLine
 10
191.9273332638829
 20
250.8358585848692
 30
0.0
 11
200.927333263883
 21
250.8358585848692
 31
0.0
  0
LINE
  5
595
330
1F
100
AcDbEntity
  8
FRAME
  6
Continuous
 62
     0
100
AcDbLine
 10
210.9273332638831
 20
254.3358585848692
 30
0.0
 11
210.927333263883
 21
250.8358585848692
 31
0.0
  0
LINE
  5
596
330
1F
100
AcDbEntity
  8
FRAME
  6
Continuous
 62
     0
100
AcDbLine
 10
219.9273332638832
 20
254.3358585848692
 30
0.0
 11
219.9273332638831
 21
250.8358585848692
 31
0.0
  0
LINE
  5
597
330
1F
100
AcDbEntity
  8
FRAME
  6
Continuous
 62
     0
100
AcDbLine
 10
210.927333263883
 20
250.8358585848692
 30
0.0
 11
219.9273332638831
 21
250.8358585848692
 31
0.0
  0
LINE
  5
598
330
1F
100
AcDbEntity
  8
FRAME
  6
Continuous
 62
     0
100
AcDbLine
 10
219.9273332638832
 20
254.3358585848692
 30
0.0
 11
244.9273332638827
 21
254.3358585848692
 31
0.0
  0
LINE
  5
599
330
1F
100
AcDbEntity
  8
FRAME
  6
Continuous
 62
     0
100
AcDbLine
 10
162.9273332638829
 20
254.3358585848692
 30
0.0
 11
172.9273332638829
 21
254.3358585848692
 31
0.0
  0
LINE
  5
59A
330
1F
100
AcDbEntity
  8
FRAME
  6
Continuous
 62
     0
100
AcDbLine
 10
200.9273332638831
 20
254.3358585848692
 30
0.0
 11
210.9273332638831
 21
254.3358585848692
 31
0.0
  0
LINE
  5
59B
330
1F
100
AcDbEntity
  8
FRAME
  6
Continuous
 62
     0
100
AcDbLine
 10
244.9273332638827
 20
272.8358585848692
 30
0.0
 11
244.9273332638827
 21
254.3358585848692
 31
0.0
  0
LINE
  5
59C
330
1F
100
AcDbEntity
  8
FRAME
  6
Continuous
 62
     0
100
AcDbLine
 10
235.9273332638826
 20
269.3358585848692
 30
0.0
 11
235.9273332638827
 21
272.8358585848692
 31
0.0
  0
LINE
  5
59D
330
1F
100
AcDbEntity
  8
FRAME
  6
Continuous
 62
     0
100
AcDbLine
 10
244.9273332638827
 20
272.8358585848692
 30
0.0
 11
235.9273332638826
 21
272.8358585848692
 31
0.0
  0
LINE
  5
5DE
330
1F
100
AcDbEntity
  8
FRAME
  6
Continuous
 62
     0
100
AcDbLine
 10
137.9179868519168
 20
297.3732359726893
 30
0.0
 11
238.9179868519167
 21
297.3732359726893
 31
0.0
  0
LINE
  5
5DF
330
1F
100
AcDbEntity
  8
FRAME
  6
Continuous
 62
     0
100
AcDbLine
 10
137.9179868519168
 20
297.3732359726893
 30
0.0
 11
137.9179868519168
 21
278.8732359726893
 31
0.0
  0
LINE
  5
5E0
330
1F
100
AcDbEntity
  8
FRAME
  6
Continuous
 62
     0
100
AcDbLine
 10
146.9179868519169
 20
282.3732359726893
 30
0.0
 11
156.9179868519169
 21
282.3732359726893
 31
0.0
  0
LINE
  5
5E1
330
1F
100
AcDbEntity
  8
FRAME
  6
Continuous
 62
     0
100
AcDbLine
 10
146.9179868519169
 20
282.3732359726893
 30
0.0
 11
146.9179868519168
 21
278.8732359726893
 31
0.0
  0
LINE
  5
5E2
330
1F
100
AcDbEntity
  8
FRAME
  6
Continuous
 62
     0
100
AcDbLine
 10
137.9179868519168
 20
278.8732359726893
 30
0.0
 11
146.9179868519169
 21
278.8732359726893
 31
0.0
  0
LINE
  5
5E3
330
1F
100
AcDbEntity
  8
FRAME
  6
Continuous
 62
     0
100
AcDbLine
 10
156.9179868519169
 20
282.3732359726893
 30
0.0
 11
156.9179868519168
 21
278.8732359726893
 31
0.0
  0
LINE
  5
5E4
330
1F
100
AcDbEntity
  8
FRAME
  6
Continuous
 62
     0
100
AcDbLine
 10
165.917986851917
 20
282.3732359726893
 30
0.0
 11
165.9179868519169
 21
278.8732359726893
 31
0.0
  0
LINE
  5
5E5
330
1F
100
AcDbEntity
  8
FRAME
  6
Continuous
 62
     0
100
AcDbLine
 10
156.9179868519168
 20
278.8732359726893
 30
0.0
 11
165.9179868519169
 21
278.8732359726893
 31
0.0
  0
LINE
  5
5E6
330
1F
100
AcDbEntity
  8
FRAME
  6
Continuous
 62
     0
100
AcDbLine
 10
175.917986851917
 20
282.3732359726893
 30
0.0
 11
175.9179868519169
 21
278.8732359726893
 31
0.0
  0
LINE
  5
5E7
330
1F
100
AcDbEntity
  8
FRAME
  6
Continuous
 62
     0
100
AcDbLine
 10
184.9179868519172
 20
282.3732359726893
 30
0.0
 11
184.917986851917
 21
278.8732359726893
 31
0.0
  0
LINE
  5
5E8
330
1F
100
AcDbEntity
  8
FRAME
  6
Continuous
 62
     0
100
AcDbLine
 10
175.9179868519169
 20
278.8732359726893
 30
0.0
 11
184.917986851917
 21
278.8732359726893
 31
0.0
  0
LINE
  5
5E9
330
1F
100
AcDbEntity
  8
FRAME
  6
Continuous
 62
     0
100
AcDbLine
 10
184.9179868519172
 20
282.3732359726893
 30
0.0
 11
194.9179868519172
 21
282.3732359726893
 31
0.0
  0
LINE
  5
5EA
330
1F
100
AcDbEntity
  8
FRAME
  6
Continuous
 62
     0
100
AcDbLine
 10
194.9179868519172
 20
282.3732359726893
 30
0.0
 11
194.917986851917
 21
278.8732359726893
 31
0.0
  0
LINE
  5
5EB
330
1F
100
AcDbEntity
  8
FRAME
  6
Continuous
 62
     0
100
AcDbLine
 10
203.9179868519173
 20
282.3732359726893
 30
0.0
 11
203.9179868519172
 21
278.8732359726893
 31
0.0
  0
LINE
  5
5EC
330
1F
100
AcDbEntity
  8
FRAME
  6
Continuous
 62
     0
100
AcDbLine
 10
194.917986851917
 20
278.8732359726893
 30
0.0
 11
203.9179868519172
 21
278.8732359726893
 31
0.0
  0
LINE
  5
5ED
330
1F
100
AcDbEntity
  8
FRAME
  6
Continuous
 62
     0
100
AcDbLine
 10
213.9179868519173
 20
282.3732359726893
 30
0.0
 11
213.9179868519172
 21
278.8732359726893
 31
0.0
  0
LINE
  5
5EE
330
1F
100
AcDbEntity
  8
FRAME
  6
Continuous
 62
     0
100
AcDbLine
 10
222.9179868519174
 20
282.3732359726893
 30
0.0
 11
222.9179868519173
 21
278.8732359726893
 31
0.0
  0
LINE
  5
5EF
330
1F
100
AcDbEntity
  8
FRAME
  6
Continuous
 62
     0
100
AcDbLine
 10
213.9179868519172
 20
278.8732359726893
 30
0.0
 11
222.9179868519173
 21
278.8732359726893
 31
0.0
  0
LINE
  5
5F0
330
1F
100
AcDbEntity
  8
FRAME
  6
Continuous
 62
     0
100
AcDbLine
 10
222.9179868519174
 20
282.3732359726893
 30
0.0
 11
247.9179868519168
 21
282.3732359726893
 31
0.0
  0
LINE
  5
5F1
330
1F
100
AcDbEntity
  8
FRAME
  6
Continuous
 62
     0
100
AcDbLine
 10
165.917986851917
 20
282.3732359726893
 30
0.0
 11
175.917986851917
 21
282.3732359726893
 31
0.0
  0
LINE
  5
5F2
330
1F
100
AcDbEntity
  8
FRAME
  6
Continuous
 62
     0
100
AcDbLine
 10
203.9179868519173
 20
282.3732359726893
 30
0.0
 11
213.9179868519173
 21
282.3732359726893
 31
0.0
  0
LINE
  5
5F3
330
1F
100
AcDbEntity
  8
FRAME
  6
Continuous
 62
     0
100
AcDbLine
 10
247.9179868519168
 20
300.8732359726893
 30
0.0
 11
247.9179868519168
 21
282.3732359726893
 31
0.0
  0
LINE
  5
5F4
330
1F
100
AcDbEntity
  8
FRAME
  6
Continuous
 62
     0
100
AcDbLine
 10
238.9179868519167
 20
297.3732359726893
 30
0.0
 11
238.9179868519168
 21
300.8732359726893
 31
0.0
  0
LINE
  5
5F5
330
1F
100
AcDbEntity
  8
FRAME
  6
Continuous
 62
     0
100
AcDbLine
 10
247.9179868519168
 20
300.8732359726893
 30
0.0
 11
238.9179868519167
 21
300.8732359726893
 31
0.0
  0
LINE
  5
636
330
1F
100
AcDbEntity
  8
FRAME
  6
Continuous
 62
     0
100
AcDbLine
 10
128.8003861005513
 20
55.81233344314316
 30
0.0
 11
229.8003861005512
 21
55.81233344314316
 31
0.0
  0
LINE
  5
637
330
1F
100
AcDbEntity
  8
FRAME
  6
Continuous
 62
     0
100
AcDbLine
 10
128.8003861005513
 20
55.81233344314316
 30
0.0
 11
128.8003861005513
 21
37.31233344314316
 31
0.0
  0
LINE
  5
638
330
1F
100
AcDbEntity
  8
FRAME
  6
Continuous
 62
     0
100
AcDbLine
 10
137.8003861005515
 20
40.81233344314316
 30
0.0
 11
147.8003861005515
 21
40.81233344314316
 31
0.0
  0
LINE
  5
639
330
1F
100
AcDbEntity
  8
FRAME
  6
Continuous
 62
     0
100
AcDbLine
 10
137.8003861005515
 20
40.81233344314316
 30
0.0
 11
137.8003861005513
 21
37.31233344314316
 31
0.0
  0
LINE
  5
63A
330
1F
100
AcDbEntity
  8
FRAME
  6
Continuous
 62
     0
100
AcDbLine
 10
128.8003861005513
 20
37.31233344314316
 30
0.0
 11
137.8003861005515
 21
37.31233344314316
 31
0.0
  0
LINE
  5
63B
330
1F
100
AcDbEntity
  8
FRAME
  6
Continuous
 62
     0
100
AcDbLine
 10
147.8003861005515
 20
40.81233344314316
 30
0.0
 11
147.8003861005513
 21
37.31233344314316
 31
0.0
  0
LINE
  5
63C
330
1F
100
AcDbEntity
  8
FRAME
  6
Continuous
 62
     0
100
AcDbLine
 10
156.8003861005516
 20
40.81233344314316
 30
0.0
 11
156.8003861005515
 21
37.31233344314316
 31
0.0
  0
LINE
  5
63D
330
1F
100
AcDbEntity
  8
FRAME
  6
Continuous
 62
     0
100
AcDbLine
 10
147.8003861005513
 20
37.31233344314316
 30
0.0
 11
156.8003861005515
 21
37.31233344314316
 31
0.0
  0
LINE
  5
63E
330
1F
100
AcDbEntity
  8
FRAME
  6
Continuous
 62
     0
100
AcDbLine
 10
166.8003861005516
 20
40.81233344314316
 30
0.0
 11
166.8003861005515
 21
37.31233344314316
 31
0.0
  0
LINE
  5
63F
330
1F
100
AcDbEntity
  8
FRAME
  6
Continuous
 62
     0
100
AcDbLine
 10
175.8003861005517
 20
40.81233344314316
 30
0.0
 11
175.8003861005516
 21
37.31233344314316
 31
0.0
  0
LINE
  5
640
330
1F
100
AcDbEntity
  8
FRAME
  6
Continuous
 62
     0
100
AcDbLine
 10
166.8003861005515
 20
37.31233344314316
 30
0.0
 11
175.8003861005516
 21
37.31233344314316
 31
0.0
  0
LINE
  5
641
330
1F
100
AcDbEntity
  8
FRAME
  6
Continuous
 62
     0
100
AcDbLine
 10
175.8003861005517
 20
40.81233344314316
 30
0.0
 11
185.8003861005517
 21
40.81233344314316
 31
0.0
  0
LINE
  5
642
330
1F
100
AcDbEntity
  8
FRAME
  6
Continuous
 62
     0
100
AcDbLine
 10
185.8003861005517
 20
40.81233344314316
 30
0.0
 11
185.8003861005516
 21
37.31233344314316
 31
0.0
  0
LINE
  5
643
330
1F
100
AcDbEntity
  8
FRAME
  6
Continuous
 62
     0
100
AcDbLine
 10
194.8003861005518
 20
40.81233344314316
 30
0.0
 11
194.8003861005517
 21
37.31233344314316
 31
0.0
  0
LINE
  5
644
330
1F
100
AcDbEntity
  8
FRAME
  6
Continuous
 62
     0
100
AcDbLine
 10
185.8003861005516
 20
37.31233344314316
 30
0.0
 11
194.8003861005517
 21
37.31233344314316
 31
0.0
  0
LINE
  5
645
330
1F
100
AcDbEntity
  8
FRAME
  6
Continuous
 62
     0
100
AcDbLine
 10
204.8003861005518
 20
40.81233344314316
 30
0.0
 11
204.8003861005517
 21
37.31233344314316
 31
0.0
  0
LINE
  5
646
330
1F
100
AcDbEntity
  8
FRAME
  6
Continuous
 62
     0
100
AcDbLine
 10
213.8003861005519
 20
40.81233344314316
 30
0.0
 11
213.8003861005518
 21
37.31233344314316
 31
0.0
  0
LINE
  5
647
330
1F
100
AcDbEntity
  8
FRAME
  6
Continuous
 62
     0
100
AcDbLine
 10
204.8003861005517
 20
37.31233344314316
 30
0.0
 11
213.8003861005518
 21
37.31233344314316
 31
0.0
  0
LINE
  5
648
330
1F
100
AcDbEntity
  8
FRAME
  6
Continuous
 62
     0
100
AcDbLine
 10
213.8003861005519
 20
40.81233344314316
 30
0.0
 11
238.8003861005513
 21
40.81233344314316
 31
0.0
  0
LINE
  5
649
330
1F
100
AcDbEntity
  8
FRAME
  6
Continuous
 62
     0
100
AcDbLine
 10
156.8003861005516
 20
40.81233344314316
 30
0.0
 11
166.8003861005516
 21
40.81233344314316
 31
0.0
  0
LINE
  5
64A
330
1F
100
AcDbEntity
  8
FRAME
  6
Continuous
 62
     0
100
AcDbLine
 10
194.8003861005518
 20
40.81233344314316
 30
0.0
 11
204.8003861005518
 21
40.81233344314316
 31
0.0
  0
LINE
  5
64B
330
1F
100
AcDbEntity
  8
FRAME
  6
Continuous
 62
     0
100
AcDbLine
 10
238.8003861005513
 20
59.31233344314316
 30
0.0
 11
238.8003861005513
 21
40.81233344314316
 31
0.0
  0
LINE
  5
64C
330
1F
100
AcDbEntity
  8
FRAME
  6
Continuous
 62
     0
100
AcDbLine
 10
229.8003861005512
 20
55.81233344314316
 30
0.0
 11
229.8003861005513
 21
59.31233344314316
 31
0.0
  0
LINE
  5
64D
330
1F
100
AcDbEntity
  8
FRAME
  6
Continuous
 62
     0
100
AcDbLine
 10
238.8003861005513
 20
59.31233344314316
 30
0.0
 11
229.8003861005512
 21
59.31233344314316
 31
0.0
  0
CIRCLE
  5
64E
330
1F
100
AcDbEntity
  8
Defpoints
  6
Continuous
 62
     1
100
AcDbCircle
 10
224.814145383083
 20
129.5426643958337
 30
0.0
 40
1.5
  0
CIRCLE
  5
64F
330
1F
100
AcDbEntity
  8
Defpoints
  6
Continuous
 62
     1
100
AcDbCircle
 10
149.814145383083
 20
204.5426643958337
 30
0.0
 40
1.5
  0
CIRCLE
  5
650
330
1F
100
AcDbEntity
  8
Defpoints
  6
Continuous
 62
     1
100
AcDbCircle
 10
224.814145383083
 20
204.5426643958337
 30
0.0
 40
1.5
  0
LINE
  5
849
330
1F
100
AcDbEntity
  8
CORTES_INTERIORES
  6
Continuous
 62
     1
100
AcDbLine
 10
277.969116707619
 20
69.5202581083328
 30
0.0
 11
285.6295611388089
 21
63.09238201146735
 31
0.0
  0
LINE
  5
84A
330
1F
100
AcDbEntity
  8
CORTES_INTERIORES
  6
Continuous
 62
     1
100
AcDbLine
 10
275.7193600737161
 20
66.83910255741641
 30
0.0
 11
283.379804504906
 21
60.41122646055098
 31
0.0
  0
LINE
  5
84B
330
1F
100
AcDbEntity
  8
CORTES_INTERIORES
  6
Continuous
 62
     1
100
AcDbLine
 10
285.6295611388089
 20
63.09238201146735
 30
0.0
 11
283.379804504906
 21
60.41122646055098
 31
0.0
  0
LINE
  5
84C
330
1F
100
AcDbEntity
  8
CORTES_INTERIORES
  6
Continuous
 62
     1
100
AcDbLine
 10
277.9691167076192
 20
69.52025810833281
 30
0.0
 11
275.7193600737161
 21
66.83910255741641
 31
0.0
  0
LINE
  5
84D
330
1F
100
AcDbEntity
  8
CORTES_INTERIORES
  6
Continuous
 62
     1
100
AcDbLine
 10
263.031250066799
 20
82.05461649722037
 30
0.0
 11
270.6916944979887
 21
75.62674040035492
 31
0.0
  0
LINE
  5
84E
330
1F
100
AcDbEntity
  8
CORTES_INTERIORES
  6
Continuous
 62
     1
100
AcDbLine
 10
260.781493432896
 20
79.373460946304
 30
0.0
 11
268.4419378640857
 21
72.94558484943852
 31
0.0
  0
LINE
  5
84F
330
1F
100
AcDbEntity
  8
CORTES_INTERIORES
  6
Continuous
 62
     1
100
AcDbLine
 10
270.6916944979887
 20
75.62674040035492
 30
0.0
 11
268.4419378640858
 21
72.94558484943853
 31
0.0
  0
LINE
  5
850
330
1F
100
AcDbEntity
  8
CORTES_INTERIORES
  6
Continuous
 62
     1
100
AcDbLine
 10
263.031250066799
 20
82.05461649722037
 30
0.0
 11
260.781493432896
 21
79.373460946304
 31
0.0
  0
LINE
  5
851
330
1F
100
AcDbEntity
  8
CORTES_INTERIORES
  6
Continuous
 62
     1
100
AcDbLine
 10
248.0933834259789
 20
94.58897488610795
 30
0.0
 11
255.7538278571685
 21
88.16109878924247
 31
0.0
  0
LINE
  5
852
330
1F
100
AcDbEntity
  8
CORTES_INTERIORES
  6
Continuous
 62
     1
100
AcDbLine
 10
245.843626792076
 20
91.90781933519156
 30
0.0
 11
253.5040712232656
 21
85.4799432383261
 31
0.0
  0
LINE
  5
853
330
1F
100
AcDbEntity
  8
CORTES_INTERIORES
  6
Continuous
 62
     1
100
AcDbLine
 10
255.7538278571686
 20
88.16109878924249
 30
0.0
 11
253.5040712232658
 21
85.47994323832611
 31
0.0
  0
LINE
  5
854
330
1F
100
AcDbEntity
  8
CORTES_INTERIORES
  6
Continuous
 62
     1
100
AcDbLine
 10
248.0933834259789
 20
94.58897488610795
 30
0.0
 11
245.8436267920759
 21
91.90781933519155
 31
0.0
  0
LINE
  5
855
330
1F
100
AcDbEntity
  8
CORTES_INTERIORES
  6
Continuous
 62
     1
100
AcDbLine
 10
233.1555167851586
 20
107.1233332749954
 30
0.0
 11
240.8159612163485
 21
100.6954571781301
 31
0.0
  0
LINE
  5
856
330
1F
100
AcDbEntity
  8
CORTES_INTERIORES
  6
Continuous
 62
     1
100
AcDbLine
 10
230.9057601512558
 20
104.4421777240791
 30
0.0
 11
238.5662045824456
 21
98.01430162721367
 31
0.0
  0
LINE
  5
857
330
1F
100
AcDbEntity
  8
CORTES_INTERIORES
  6
Continuous
 62
     1
100
AcDbLine
 10
240.8159612163485
 20
100.6954571781301
 30
0.0
 11
238.5662045824456
 21
98.01430162721367
 31
0.0
  0
LINE
  5
858
330
1F
100
AcDbEntity
  8
CORTES_INTERIORES
  6
Continuous
 62
     1
100
AcDbLine
 10
233.1555167851585
 20
107.1233332749954
 30
0.0
 11
230.9057601512558
 21
104.4421777240791
 31
0.0
  0
LINE
  5
859
330
1F
100
AcDbEntity
  8
CORTES_INTERIORES
  6
Continuous
 62
     1
100
AcDbLine
 10
218.2176501443384
 20
119.657691663883
 30
0.0
 11
225.8780945755282
 21
113.2298155670176
 31
0.0
  0
LINE
  5
85A
330
1F
100
AcDbEntity
  8
CORTES_INTERIORES
  6
Continuous
 62
     1
100
AcDbLine
 10
215.9678935104355
 20
116.9765361129668
 30
0.0
 11
223.6283379416253
 21
110.5486600161013
 31
0.0
  0
LINE
  5
85B
330
1F
100
AcDbEntity
  8
CORTES_INTERIORES
  6
Continuous
 62
     1
100
AcDbLine
 10
225.8780945755283
 20
113.2298155670177
 30
0.0
 11
223.6283379416253
 21
110.5486600161013
 31
0.0
  0
LINE
  5
85C
330
1F
100
AcDbEntity
  8
CORTES_INTERIORES
  6
Continuous
 62
     1
100
AcDbLine
 10
218.2176501443384
 20
119.657691663883
 30
0.0
 11
215.9678935104355
 21
116.9765361129668
 31
0.0
  0
LINE
  5
E03
330
1F
100
AcDbEntity
  8
CORTES_INTERIORES
  6
Continuous
 62
     1
100
AcDbLine
 10
98.9033071639445
 20
66.23965458938716
 30
0.0
 11
91.24286273275465
 21
59.81177849252173
 31
0.0
  0
LINE
  5
E04
330
1F
100
AcDbEntity
  8
CORTES_INTERIORES
  6
Continuous
 62
     1
100
AcDbLine
 10
91.24286273275465
 20
59.81177849252173
 30
0.0
 11
88.99310609885183
 21
62.4929340434381
 31
0.0
  0
LINE
  5
E05
330
1F
100
AcDbEntity
  8
CORTES_INTERIORES
  6
Continuous
 62
     1
100
AcDbLine
 10
96.65355053004168
 20
68.92081014030353
 30
0.0
 11
88.99310609885183
 21
62.4929340434381
 31
0.0
  0
LINE
  5
E06
330
1F
100
AcDbEntity
  8
CORTES_INTERIORES
  6
Continuous
 62
     1
100
AcDbLine
 10
98.90330716394448
 20
66.23965458938704
 30
0.0
 11
96.65355053004168
 21
68.92081014030353
 31
0.0
  0
LINE
  5
E07
330
1F
100
AcDbEntity
  8
CORTES_INTERIORES
  6
Continuous
 62
     1
100
AcDbLine
 10
113.8411738047646
 20
78.77401297827465
 30
0.0
 11
106.1807293735748
 21
72.34613688140922
 31
0.0
  0
LINE
  5
E08
330
1F
100
AcDbEntity
  8
CORTES_INTERIORES
  6
Continuous
 62
     1
100
AcDbLine
 10
106.1807293735748
 20
72.34613688140922
 30
0.0
 11
103.9309727396719
 21
75.02729243232571
 31
0.0
  0
LINE
  5
E09
330
1F
100
AcDbEntity
  8
CORTES_INTERIORES
  6
Continuous
 62
     1
100
AcDbLine
 10
113.8411738047646
 20
78.77401297827465
 30
0.0
 11
111.5914171708618
 21
81.45516852919114
 31
0.0
  0
LINE
  5
E0A
330
1F
100
AcDbEntity
  8
CORTES_INTERIORES
  6
Continuous
 62
     1
100
AcDbLine
 10
111.5914171708618
 20
81.45516852919114
 30
0.0
 11
103.9309727396719
 21
75.02729243232582
 31
0.0
  0
LINE
  5
E0B
330
1F
100
AcDbEntity
  8
CORTES_INTERIORES
  6
Continuous
 62
     1
100
AcDbLine
 10
128.7790404455847
 20
91.30837136716215
 30
0.0
 11
121.1185960143949
 21
84.88049527029695
 31
0.0
  0
LINE
  5
E0C
330
1F
100
AcDbEntity
  8
CORTES_INTERIORES
  6
Continuous
 62
     1
100
AcDbLine
 10
126.5292838116819
 20
93.98952691807852
 30
0.0
 11
118.8688393804921
 21
87.5616508212133
 31
0.0
  0
LINE
  5
E0D
330
1F
100
AcDbEntity
  8
CORTES_INTERIORES
  6
Continuous
 62
     1
100
AcDbLine
 10
121.1185960143949
 20
84.88049527029683
 30
0.0
 11
118.8688393804921
 21
87.56165082121319
 31
0.0
  0
LINE
  5
E0E
330
1F
100
AcDbEntity
  8
CORTES_INTERIORES
  6
Continuous
 62
     1
100
AcDbLine
 10
128.7790404455847
 20
91.30837136716215
 30
0.0
 11
126.5292838116819
 21
93.98952691807864
 31
0.0
  0
LINE
  5
E0F
330
1F
100
AcDbEntity
  8
CORTES_INTERIORES
  6
Continuous
 62
     1
100
AcDbLine
 10
143.7169070864048
 20
103.8427297560499
 30
0.0
 11
136.0564626552151
 21
97.41485365918437
 31
0.0
  0
LINE
  5
E10
330
1F
100
AcDbEntity
  8
CORTES_INTERIORES
  6
Continuous
 62
     1
100
AcDbLine
 10
136.0564626552151
 20
97.41485365918437
 30
0.0
 11
133.8067060213122
 21
100.0960092101008
 31
0.0
  0
LINE
  5
E11
330
1F
100
AcDbEntity
  8
CORTES_INTERIORES
  6
Continuous
 62
     1
100
AcDbLine
 10
141.4671504525021
 20
106.5238853069662
 30
0.0
 11
133.8067060213122
 21
100.0960092101008
 31
0.0
  0
LINE
  5
E12
330
1F
100
AcDbEntity
  8
CORTES_INTERIORES
  6
Continuous
 62
     1
100
AcDbLine
 10
143.7169070864048
 20
103.84272975605
 30
0.0
 11
141.4671504525021
 21
106.5238853069662
 31
0.0
  0
LINE
  5
E13
330
1F
100
AcDbEntity
  8
CORTES_INTERIORES
  6
Continuous
 62
     1
100
AcDbLine
 10
158.654773727225
 20
116.3770881449375
 30
0.0
 11
150.9943292960352
 21
109.949212048072
 31
0.0
  0
LINE
  5
E14
330
1F
100
AcDbEntity
  8
CORTES_INTERIORES
  6
Continuous
 62
     1
100
AcDbLine
 10
156.4050170933223
 20
119.0582436958539
 30
0.0
 11
148.7445726621325
 21
112.6303675989884
 31
0.0
  0
LINE
  5
E15
330
1F
100
AcDbEntity
  8
CORTES_INTERIORES
  6
Continuous
 62
     1
100
AcDbLine
 10
150.9943292960353
 20
109.9492120480719
 30
0.0
 11
148.7445726621325
 21
112.6303675989884
 31
0.0
  0
LINE
  5
E16
330
1F
100
AcDbEntity
  8
CORTES_INTERIORES
  6
Continuous
 62
     1
100
AcDbLine
 10
158.654773727225
 20
116.3770881449375
 30
0.0
 11
156.4050170933223
 21
119.0582436958539
 31
0.0
  0
LINE
  5
E1D
330
1F
100
AcDbEntity
  8
CORTES_INTERIORES
  6
Continuous
 62
     1
100
AcDbLine
 10
143.7690242447675
 20
228.5278396490327
 30
0.0
 11
136.1085798135776
 21
234.9557157458982
 31
0.0
  0
LINE
  5
E1E
330
1F
100
AcDbEntity
  8
CORTES_INTERIORES
  6
Continuous
 62
     1
100
AcDbLine
 10
133.8588231796748
 20
232.2745601949818
 30
0.0
 11
136.1085798135776
 21
234.9557157458982
 31
0.0
  0
LINE
  5
E1F
330
1F
100
AcDbEntity
  8
CORTES_INTERIORES
  6
Continuous
 62
     1
100
AcDbLine
 10
141.5192676108646
 20
225.8466840981164
 30
0.0
 11
133.8588231796748
 21
232.2745601949818
 31
0.0
  0
LINE
  5
E20
330
1F
100
AcDbEntity
  8
CORTES_INTERIORES
  6
Continuous
 62
     1
100
AcDbLine
 10
141.5192676108647
 20
225.8466840981164
 30
0.0
 11
143.7690242447675
 21
228.5278396490327
 31
0.0
  0
LINE
  5
E21
330
1F
100
AcDbEntity
  8
CORTES_INTERIORES
  6
Continuous
 62
     1
100
AcDbLine
 10
126.5814009700443
 20
238.3810424870039
 30
0.0
 11
118.9209565388547
 21
244.8089185838694
 31
0.0
  0
LINE
  5
E22
330
1F
100
AcDbEntity
  8
CORTES_INTERIORES
  6
Continuous
 62
     1
100
AcDbLine
 10
128.8311576039472
 20
241.0621980379203
 30
0.0
 11
121.1707131727576
 21
247.4900741347857
 31
0.0
  0
LINE
  5
E23
330
1F
100
AcDbEntity
  8
CORTES_INTERIORES
  6
Continuous
 62
     1
100
AcDbLine
 10
118.9209565388546
 20
244.8089185838693
 30
0.0
 11
121.1707131727574
 21
247.4900741347857
 31
0.0
  0
LINE
  5
E24
330
1F
100
AcDbEntity
  8
CORTES_INTERIORES
  6
Continuous
 62
     1
100
AcDbLine
 10
126.5814009700443
 20
238.3810424870039
 30
0.0
 11
128.8311576039474
 21
241.0621980379203
 31
0.0
  0
LINE
  5
E25
330
1F
100
AcDbEntity
  8
CORTES_INTERIORES
  6
Continuous
 62
     1
100
AcDbLine
 10
113.8932909631272
 20
253.5965564268078
 30
0.0
 11
106.2328465319375
 21
260.0244325236733
 31
0.0
  0
LINE
  5
E26
330
1F
100
AcDbEntity
  8
CORTES_INTERIORES
  6
Continuous
 62
     1
100
AcDbLine
 10
103.9830898980345
 20
257.3432769727569
 30
0.0
 11
106.2328465319374
 21
260.0244325236733
 31
0.0
  0
LINE
  5
E27
330
1F
100
AcDbEntity
  8
CORTES_INTERIORES
  6
Continuous
 62
     1
100
AcDbLine
 10
111.6435343292243
 20
250.9154008758915
 30
0.0
 11
113.8932909631272
 21
253.5965564268078
 31
0.0
  0
LINE
  5
E28
330
1F
100
AcDbEntity
  8
CORTES_INTERIORES
  6
Continuous
 62
     1
100
AcDbLine
 10
111.6435343292243
 20
250.9154008758915
 30
0.0
 11
103.9830898980345
 21
257.3432769727569
 31
0.0
  0
LINE
  5
E29
330
1F
100
AcDbEntity
  8
CORTES_INTERIORES
  6
Continuous
 62
     1
100
AcDbLine
 10
96.70566768840419
 20
263.4497592647791
 30
0.0
 11
89.04522325721436
 21
269.8776353616445
 31
0.0
  0
LINE
  5
E2A
330
1F
100
AcDbEntity
  8
CORTES_INTERIORES
  6
Continuous
 62
     1
100
AcDbLine
 10
98.95542432230704
 20
266.1309148156954
 30
0.0
 11
91.29497989111721
 21
272.5587909125609
 31
0.0
  0
LINE
  5
E2B
330
1F
100
AcDbEntity
  8
CORTES_INTERIORES
  6
Continuous
 62
     1
100
AcDbLine
 10
89.04522325721436
 20
269.8776353616445
 30
0.0
 11
91.29497989111721
 21
272.5587909125609
 31
0.0
  0
LINE
  5
E2C
330
1F
100
AcDbEntity
  8
CORTES_INTERIORES
  6
Continuous
 62
     1
100
AcDbLine
 10
96.70566768840408
 20
263.449759264779
 30
0.0
 11
98.95542432230704
 21
266.1309148156954
 31
0.0
  0
LINE
  5
E2D
330
1F
100
AcDbEntity
  8
CORTES_INTERIORES
  6
Continuous
 62
     1
100
AcDbLine
 10
156.4571342516849
 20
213.3123257092288
 30
0.0
 11
148.796689820495
 21
219.7402018060942
 31
0.0
  0
LINE
  5
E2E
330
1F
100
AcDbEntity
  8
CORTES_INTERIORES
  6
Continuous
 62
     1
100
AcDbLine
 10
158.7068908855877
 20
215.993481260145
 30
0.0
 11
151.0464464543979
 21
222.4213573570105
 31
0.0
  0
LINE
  5
E2F
330
1F
100
AcDbEntity
  8
CORTES_INTERIORES
  6
Continuous
 62
     1
100
AcDbLine
 10
148.7966898204949
 20
219.7402018060941
 30
0.0
 11
151.0464464543979
 21
222.4213573570105
 31
0.0
  0
LINE
  5
E30
330
1F
100
AcDbEntity
  8
CORTES_INTERIORES
  6
Continuous
 62
     1
100
AcDbLine
 10
156.4571342516849
 20
213.3123257092288
 30
0.0
 11
158.7068908855877
 21
215.993481260145
 31
0.0
  0
LINE
  5
E39
330
1F
100
AcDbEntity
  8
CORTES_INTERIORES
  6
Continuous
 62
     1
100
AcDbLine
 10
216.0200106687982
 20
216.5929292281743
 30
0.0
 11
223.680455099988
 21
223.0208053250398
 31
0.0
  0
LINE
  5
E3A
330
1F
100
AcDbEntity
  8
CORTES_INTERIORES
  6
Continuous
 62
     1
100
AcDbLine
 10
218.269767302701
 20
213.9117736772579
 30
0.0
 11
225.9302117338907
 21
220.3396497741234
 31
0.0
  0
LINE
  5
E3B
330
1F
100
AcDbEntity
  8
CORTES_INTERIORES
  6
Continuous
 62
     1
100
AcDbLine
 10
223.6804550999879
 20
223.0208053250399
 30
0.0
 11
225.9302117338907
 21
220.3396497741234
 31
0.0
  0
LINE
  5
E3C
330
1F
100
AcDbEntity
  8
CORTES_INTERIORES
  6
Continuous
 62
     1
100
AcDbLine
 10
216.0200106687982
 20
216.5929292281743
 30
0.0
 11
218.269767302701
 21
213.9117736772579
 31
0.0
  0
LINE
  5
E3D
330
1F
100
AcDbEntity
  8
CORTES_INTERIORES
  6
Continuous
 62
     1
100
AcDbLine
 10
230.9578773096184
 20
229.1272876170619
 30
0.0
 11
238.6183217408081
 21
235.5551637139274
 31
0.0
  0
LINE
  5
E3E
330
1F
100
AcDbEntity
  8
CORTES_INTERIORES
  6
Continuous
 62
     1
100
AcDbLine
 10
238.6183217408081
 20
235.5551637139274
 30
0.0
 11
240.868078374711
 21
232.874008163011
 31
0.0
  0
LINE
  5
E3F
330
1F
100
AcDbEntity
  8
CORTES_INTERIORES
  6
Continuous
 62
     1
100
AcDbLine
 10
233.2076339435211
 20
226.4461320661456
 30
0.0
 11
240.868078374711
 21
232.874008163011
 31
0.0
  0
LINE
  5
E40
330
1F
100
AcDbEntity
  8
CORTES_INTERIORES
  6
Continuous
 62
     1
100
AcDbLine
 10
230.9578773096184
 20
229.1272876170618
 30
0.0
 11
233.2076339435211
 21
226.4461320661456
 31
0.0
  0
LINE
  5
E41
330
1F
100
AcDbEntity
  8
CORTES_INTERIORES
  6
Continuous
 62
     1
100
AcDbLine
 10
245.8957439504385
 20
241.6616460059497
 30
0.0
 11
253.5561883816283
 21
248.0895221028149
 31
0.0
  0
LINE
  5
E42
330
1F
100
AcDbEntity
  8
CORTES_INTERIORES
  6
Continuous
 62
     1
100
AcDbLine
 10
248.1455005843413
 20
238.9804904550333
 30
0.0
 11
255.8059450155311
 21
245.4083665518985
 31
0.0
  0
LINE
  5
E43
330
1F
100
AcDbEntity
  8
CORTES_INTERIORES
  6
Continuous
 62
     1
100
AcDbLine
 10
253.5561883816283
 20
248.089522102815
 30
0.0
 11
255.8059450155311
 21
245.4083665518986
 31
0.0
  0
LINE
  5
E44
330
1F
100
AcDbEntity
  8
CORTES_INTERIORES
  6
Continuous
 62
     1
100
AcDbLine
 10
245.8957439504385
 20
241.6616460059497
 30
0.0
 11
248.1455005843413
 21
238.9804904550332
 31
0.0
  0
LINE
  5
E45
330
1F
100
AcDbEntity
  8
CORTES_INTERIORES
  6
Continuous
 62
     1
100
AcDbLine
 10
260.8336105912587
 20
254.1960043948372
 30
0.0
 11
268.4940550224485
 21
260.6238804917026
 31
0.0
  0
LINE
  5
E46
330
1F
100
AcDbEntity
  8
CORTES_INTERIORES
  6
Continuous
 62
     1
100
AcDbLine
 10
268.4940550224485
 20
260.6238804917026
 30
0.0
 11
270.7438116563513
 21
257.9427249407861
 31
0.0
  0
LINE
  5
E47
330
1F
100
AcDbEntity
  8
CORTES_INTERIORES
  6
Continuous
 62
     1
100
AcDbLine
 10
260.8336105912587
 20
254.1960043948372
 30
0.0
 11
263.0833672251614
 21
251.5148488439207
 31
0.0
  0
LINE
  5
E48
330
1F
100
AcDbEntity
  8
CORTES_INTERIORES
  6
Continuous
 62
     1
100
AcDbLine
 10
263.0833672251614
 20
251.5148488439207
 30
0.0
 11
270.7438116563513
 21
257.942724940786
 31
0.0
  0
LINE
  5
E49
330
1F
100
AcDbEntity
  8
CORTES_INTERIORES
  6
Continuous
 62
     1
100
AcDbLine
 10
275.7714772320787
 20
266.7303627837247
 30
0.0
 11
283.4319216632687
 21
273.1582388805901
 31
0.0
  0
LINE
  5
E4A
330
1F
100
AcDbEntity
  8
CORTES_INTERIORES
  6
Continuous
 62
     1
100
AcDbLine
 10
283.4319216632687
 20
273.1582388805901
 30
0.0
 11
285.6816782971714
 21
270.4770833296737
 31
0.0
  0
LINE
  5
E4B
330
1F
100
AcDbEntity
  8
CORTES_INTERIORES
  6
Continuous
 62
     1
100
AcDbLine
 10
278.0212338659816
 20
264.0492072328083
 30
0.0
 11
285.6816782971714
 21
270.4770833296737
 31
0.0
  0
LINE
  5
E4C
330
1F
100
AcDbEntity
  8
CORTES_INTERIORES
  6
Continuous
 62
     1
100
AcDbLine
 10
275.7714772320787
 20
266.7303627837248
 30
0.0
 11
278.0212338659816
 21
264.0492072328083
 31
0.0
  0
CIRCLE
  5
E4D
330
1F
100
AcDbEntity
  8
CORTES_INTERIORES
  6
Continuous
 62
     1
100
AcDbCircle
 10
277.5542520135781
 20
152.408045849582
 30
0.0
 40
1.5
  0
CIRCLE
  5
E4E
330
1F
100
AcDbEntity
  8
CORTES_INTERIORES
  6
Continuous
 62
     1
100
AcDbCircle
 10
308.0542520135781
 20
152.408045849582
 30
0.0
 40
1.5
  0
CIRCLE
  5
E4F
330
1F
100
AcDbEntity
  8
CORTES_INTERIORES
  6
Continuous
 62
     1
100
AcDbCircle
 10
277.5542520135781
 20
182.908045849582
 30
0.0
 40
1.5
  0
CIRCLE
  5
E50
330
1F
100
AcDbEntity
  8
CORTES_INTERIORES
  6
Continuous
 62
     1
100
AcDbCircle
 10
308.0542520135781
 20
182.908045849582
 30
0.0
 40
1.5
  0
LINE
  5
E51
330
1F
100
AcDbEntity
  8
FRAME
 62
     0
100
AcDbLine
 10
333.3880746289647
 20
121.9235701556602
 30
0.0
 11
301.9517725628417
 21
121.9235699951793
 31
0.0
  0
ARC
  5
E52
330
1F
100
AcDbEntity
  8
FRAME
 62
     0
100
AcDbCircle
 10
252.7880747174487
 20
124.9235697442001
 30
0.0
 40
3.0
100
AcDbArc
 50
180.0000000021408
 51
270.0000002924946
  0
ARC
  5
E53
330
1F
100
AcDbEntity
  8
FRAME
 62
     0
100
AcDbCircle
 10
333.3880746136496
 20
124.9235701556602
 30
0.0
 40
3.0
100
AcDbArc
 50
270.0000002924946
 51
359.9999999523018
  0
LINE
  5
E54
330
1F
100
AcDbEntity
  8
FRAME
 62
     0
100
AcDbLine
 10
252.7880747174487
 20
121.9235697442002
 30
0.0
 11
277.1485543085627
 21
121.9235697442002
 31
0.0
  0
LINE
  5
E55
330
1F
100
AcDbEntity
  8
FRAME
 62
     0
100
AcDbLine
 10
249.7893479349497
 20
209.8331663520821
 30
0.0
 11
249.7880747174487
 21
124.9235697440882
 31
0.0
  0
LINE
  5
E56
330
1F
100
AcDbEntity
  8
CORTES_INTERIORES
100
AcDbLine
 10
252.6129449861675
 20
185.0003427208758
 30
0.0
 11
267.6129108285549
 21
185.0003427096999
 31
0.0
  0
LINE
  5
E57
330
1F
100
AcDbEntity
  8
CORTES_INTERIORES
100
AcDbLine
 10
252.6129449861675
 20
182.0003427208758
 30
0.0
 11
252.6129449861675
 21
185.0003427208758
 31
0.0
  0
LINE
  5
E58
330
1F
100
AcDbEntity
  8
FRAME
  6
Continuous
 62
     0
100
AcDbLine
 10
277.1485543085627
 20
121.9235697442002
 30
0.0
 11
301.9517725628417
 21
121.9235699951793
 31
0.0
  0
CIRCLE
  5
E59
330
1F
100
AcDbEntity
  8
CORTES_INTERIORES
  6
Continuous
100
AcDbCircle
 10
270.3058857035777
 20
145.1970208487149
 30
0.0
 40
1.5
  0
CIRCLE
  5
E5A
330
1F
100
AcDbEntity
  8
CORTES_INTERIORES
  6
Continuous
100
AcDbCircle
 10
315.3058857035777
 20
145.1970208487149
 30
0.0
 40
1.5
  0
CIRCLE
  5
E5B
330
1F
100
AcDbEntity
  8
CORTES_INTERIORES
  6
Continuous
100
AcDbCircle
 10
270.3058857035777
 20
190.1970208487149
 30
0.0
 40
1.5
  0
CIRCLE
  5
E5C
330
1F
100
AcDbEntity
  8
CORTES_INTERIORES
  6
Continuous
100
AcDbCircle
 10
315.3058857035777
 20
190.1970208487149
 30
0.0
 40
1.5
  0
LINE
  5
E5D
330
1F
100
AcDbEntity
  8
CORTES_INTERIORES
100
AcDbLine
 10
252.6208323314742
 20
181.9831566853513
 30
0.0
 11
267.6207981738616
 21
181.9831566741752
 31
0.0
  0
LINE
  5
E5E
330
1F
100
AcDbEntity
  8
CORTES_INTERIORES
100
AcDbLine
 10
252.6129449861675
 20
181.9842940768802
 30
0.0
 11
252.6129449861675
 21
184.9842940768802
 31
0.0
  0
LINE
  5
E5F
330
1F
100
AcDbEntity
  8
CORTES_INTERIORES
100
AcDbLine
 10
267.6207981738616
 20
181.9841908664921
 30
0.0
 11
267.6207981738616
 21
184.9841908664921
 31
0.0
  0
LINE
  5
E60
330
1F
100
AcDbEntity
  8
CORTES_INTERIORES
100
AcDbLine
 10
267.5756851403663
 20
150.5883575906334
 30
0.0
 11
267.5756851403663
 21
153.5883575906334
 31
0.0
  0
LINE
  5
E61
330
1F
100
AcDbEntity
  8
CORTES_INTERIORES
100
AcDbLine
 10
252.5678319526721
 20
153.6045094450171
 30
0.0
 11
267.5677977950595
 21
153.6045094338411
 31
0.0
  0
LINE
  5
E62
330
1F
100
AcDbEntity
  8
CORTES_INTERIORES
100
AcDbLine
 10
252.5678319526721
 20
150.6045094450171
 30
0.0
 11
252.5678319526721
 21
153.6045094450171
 31
0.0
  0
LINE
  5
E63
330
1F
100
AcDbEntity
  8
CORTES_INTERIORES
100
AcDbLine
 10
252.5757192979789
 20
150.5873234094927
 30
0.0
 11
267.5756851403663
 21
150.5873233983166
 31
0.0
  0
LINE
  5
E64
330
1F
100
AcDbEntity
  8
CORTES_INTERIORES
100
AcDbLine
 10
252.5678319526721
 20
150.5884608010217
 30
0.0
 11
252.5678319526721
 21
153.5884608010217
 31
0.0
  0
LINE
  5
E65
330
1F
100
AcDbEntity
  8
CORTES_INTERIORES
100
AcDbLine
 10
318.0826787177075
 20
185.8843642841136
 30
0.0
 11
333.0826445600949
 21
185.8843642729375
 31
0.0
  0
LINE
  5
E66
330
1F
100
AcDbEntity
  8
CORTES_INTERIORES
100
AcDbLine
 10
318.0826787177075
 20
182.8843642841136
 30
0.0
 11
318.0826787177075
 21
185.8843642841136
 31
0.0
  0
LINE
  5
E67
330
1F
100
AcDbEntity
  8
CORTES_INTERIORES
100
AcDbLine
 10
318.0905660630142
 20
182.8671782485892
 30
0.0
 11
333.0905319054016
 21
182.8671782374131
 31
0.0
  0
LINE
  5
E68
330
1F
100
AcDbEntity
  8
CORTES_INTERIORES
100
AcDbLine
 10
318.0826787177075
 20
182.868315640118
 30
0.0
 11
318.0826787177075
 21
185.868315640118
 31
0.0
  0
LINE
  5
E69
330
1F
100
AcDbEntity
  8
CORTES_INTERIORES
100
AcDbLine
 10
333.0905319054016
 20
182.8682124297299
 30
0.0
 11
333.0905319054016
 21
185.8682124297299
 31
0.0
  0
LINE
  5
E6A
330
1F
100
AcDbEntity
  8
CORTES_INTERIORES
100
AcDbLine
 10
333.2270277264727
 20
151.4723791538713
 30
0.0
 11
333.2270277264727
 21
154.4723791538713
 31
0.0
  0
LINE
  5
E6B
330
1F
100
AcDbEntity
  8
CORTES_INTERIORES
100
AcDbLine
 10
318.2191745387784
 20
154.488531008255
 30
0.0
 11
333.2191403811659
 21
154.4885309970789
 31
0.0
  0
LINE
  5
E6C
330
1F
100
AcDbEntity
  8
CORTES_INTERIORES
100
AcDbLine
 10
318.2191745387784
 20
151.488531008255
 30
0.0
 11
318.2191745387784
 21
154.488531008255
 31
0.0
  0
LINE
  5
E6D
330
1F
100
AcDbEntity
  8
CORTES_INTERIORES
100
AcDbLine
 10
318.2270618840853
 20
151.4713449727304
 30
0.0
 11
333.2270277264727
 21
151.4713449615544
 31
0.0
  0
LINE
  5
E6E
330
1F
100
AcDbEntity
  8
CORTES_INTERIORES
100
AcDbLine
 10
318.2191745387784
 20
151.4724823642593
 30
0.0
 11
318.2191745387784
 21
154.4724823642593
 31
0.0
  0
LWPOLYLINE
  5
E6F
330
1F
100
AcDbEntity
  8
FRAME
 62
     0
100
AcDbPolyline
 90
       69
 70
     0
 43
0.0
 10
336.3880746781527
 20
209.7178027442081
 10
336.3855282246676
 20
209.9485299141452
 10
336.3779569565776
 20
210.1720185412001
 10
336.3654630124016
 20
210.3883543012421
 10
336.3481485306596
 20
210.5976228701402
 10
336.3261156498696
 20
210.7999099237632
 10
336.2994665085527
 20
210.9953011379791
 10
336.2683032452277
 20
211.1838821886572
 10
336.2327279984127
 20
211.3657387516653
 10
336.1928429066287
 20
211.5409565028722
 10
336.1487501083938
 20
211.7096211181472
 10
336.1005517422278
 20
211.8718182733593
 10
336.0749448894586
 20
211.9505183271501
 10
336.0483499466507
 20
212.0276336443751
 10
336.0207796811197
 20
212.1031749345191
 10
335.9922468601818
 20
212.1771529070652
 10
335.9627642511497
 20
212.2495782714973
 10
335.9323446213388
 20
212.3204617372971
 10
335.9010007380658
 20
212.3898140139511
 10
335.8687453686437
 20
212.4576458109411
 10
335.8355912803876
 20
212.5239678377502
 10
335.8015512406137
 20
212.5887908038633
 10
335.7666380166357
 20
212.6521254187631
 10
335.7308643757686
 20
212.7139823919342
 10
335.6942430853277
 20
212.7743724328591
 10
335.6567869126287
 20
212.8333062510221
 10
335.6185086249847
 20
212.8907945559062
 10
335.5794209897118
 20
212.9468480569951
 10
335.5395367741247
 20
213.0014774637732
 10
335.4988687455376
 20
213.0546934857223
 10
335.4574296712686
 20
213.1065068323281
 10
335.4152323186287
 20
213.1569282130722
 10
335.3722894549347
 20
213.2059683374401
 10
335.3286138475006
 20
213.2536379149132
 10
335.2842182636417
 20
213.2999476549771
 10
335.2391154706737
 20
213.3449082671152
 10
335.1933182359106
 20
213.3885304608091
 10
335.1468393266676
 20
213.4308249455453
 10
335.0996915102597
 20
213.4718024308041
 10
335.0518875540016
 20
213.5114736260721
 10
335.0034402252087
 20
213.5498492408312
 10
334.9543622911946
 20
213.5869399845651
 10
334.9046665192767
 20
213.6227565667573
 10
334.8543656767666
 20
213.6573096968923
 10
334.8034725309827
 20
213.6906100844533
 10
334.7519998492377
 20
213.7226684389233
 10
334.6999603988467
 20
213.7534954697862
 10
334.6473669471258
 20
213.7831018865261
 10
334.5942322613888
 20
213.8114983986252
 10
334.5405691089508
 20
213.8386957155692
 10
334.4863902571266
 20
213.8647045468392
 10
334.4317084732317
 20
213.8895356019211
 10
334.3765365245807
 20
213.9131995902961
 10
334.3208871784888
 20
213.9357072214502
 10
334.2647732022707
 20
213.9570692048662
 10
334.2082073632406
 20
213.9772962500261
 10
334.1512024287147
 20
213.9963990664162
 10
334.0937711660066
 20
214.0143883635171
 10
334.0359263424326
 20
214.0312748508152
 10
333.9776807253066
 20
214.0470692377921
 10
333.9190470819447
 20
214.0617822339321
 10
333.8600381796597
 20
214.0754245487192
 10
333.8006667857686
 20
214.0880068916362
 10
333.7409456675856
 20
214.0995399721671
 10
333.6808875924247
 20
214.1100344997951
 10
333.6205053276027
 20
214.1195011840041
 10
333.4988192982306
 20
214.1353938600992
 10
333.3759897179897
 20
214.1473036763223
 10
333.2521187253986
 20
214.1553163085391
  0
LINE
  5
E70
330
1F
100
AcDbEntity
  8
CORTES_INTERIORES
  6
Continuous
 62
     1
100
AcDbLine
 10
252.9240306618427
 20
214.1570947082402
 30
0.0
 11
253.427885817222
 21
214.1571129428008
 31
0.0
  0
LWPOLYLINE
  5
E71
330
1F
100
AcDbEntity
  8
FRAME
 62
     0
100
AcDbPolyline
 90
       74
 70
     0
 43
0.0
 10
249.7880747082087
 20
209.7178027542121
 10
249.7906211616897
 20
209.9485299499522
 10
249.7981924297777
 20
210.1720187576302
 10
249.8106863739507
 20
210.3883550079352
 10
249.8280008556907
 20
210.5976245315551
 10
249.8500337364786
 20
210.7999131591803
 10
249.8766828777958
 20
210.9953067214961
 10
249.9078461411206
 20
211.1838910491931
 10
249.9434213879357
 20
211.3657519729602
 10
249.9833064797207
 20
211.5409753234842
 10
250.0273992779568
 20
211.7096469314552
 10
250.0755976441257
 20
211.8718526275602
 10
250.1012044968967
 20
211.9505575807532
 10
250.1277994397066
 20
212.0276782424891
 10
250.1553697052376
 20
212.1032253416022
 10
250.1839025261808
 20
212.1772096069292
 10
250.2133851352156
 20
212.2496417673062
 10
250.2438047650288
 20
212.3205325515692
 10
250.2751486483056
 20
212.3898926885553
 10
250.3074040177318
 20
212.4577329070981
 10
250.3405581059918
 20
212.5240639360361
 10
250.3745981457697
 20
212.5888965042052
 10
250.4095113697527
 20
212.6522413404391
 10
250.4452850106246
 20
212.7141091735763
 10
250.4819063010708
 20
212.7745107324522
 10
250.5193624737757
 20
212.8334567459021
 10
250.5576407614257
 20
212.8909579427632
 10
250.5967283967046
 20
212.9470250518712
 10
250.6366126122986
 20
213.0016688020612
 10
250.6772806408927
 20
213.0548999221701
 10
250.7187197151707
 20
213.1067291410352
 10
250.7609170678187
 20
213.1571671874901
 10
250.8038599315206
 20
213.2062247903723
 10
250.8475355389647
 20
213.2539126785173
 10
250.8919311228327
 20
213.3002415807613
 10
250.9370339158116
 20
213.3452222259402
 10
250.9828311505847
 20
213.3888653428912
 10
251.0293100598398
 20
213.4311816604493
 10
251.0764578762588
 20
213.4721819074501
 10
251.1242618325288
 20
213.5118768127311
 10
251.1727091613346
 20
213.5502771051272
 10
251.2217870953608
 20
213.5873935134751
 10
251.2714828672937
 20
213.6232367666113
 10
251.3217837098167
 20
213.6578175933703
 10
251.3726768556156
 20
213.6911467225891
 10
251.4241495373757
 20
213.7232348831031
 10
251.4761889877826
 20
213.7540928037502
 10
251.5287824395206
 20
213.7837312133641
 10
251.5819171252746
 20
213.8121608407821
 10
251.6355802777297
 20
213.8393924148411
 10
251.6897591295727
 20
213.8654366643752
 10
251.7444409134856
 20
213.8903043182222
 10
251.7996128621567
 20
213.9140061052171
 10
251.8552622082688
 20
213.9365527541961
 10
251.9113761845077
 20
213.9579549939951
 10
251.9679420235597
 20
213.9782235534511
 10
252.0249469581078
 20
213.9973691614002
 10
252.0823782208378
 20
214.0154025466761
 10
252.1402230444347
 20
214.0323344381181
 10
252.1984686615857
 20
214.0481755645601
 10
252.2571023049737
 20
214.0629366548392
 10
252.3161112072836
 20
214.0766284377901
 10
252.3754826012008
 20
214.0892616422511
 10
252.4352037194116
 20
214.1008469970561
 10
252.4952617945986
 20
214.1113952310421
 10
252.5556440594497
 20
214.1209170730451
 10
252.6773300888816
 20
214.1369244964462
 10
252.8001596691846
 20
214.1489550979481
 10
252.9240306618427
 20
214.1570947082402
 10
253.0488409283336
 20
214.1614291580092
 10
253.1744883301386
 20
214.1620442779442
 10
253.3008707287407
 20
214.1590258987343
 10
253.4278859856178
 20
214.1524598510671
 10
253.4916589739352
 20
214.1474459083491
  0
LINE
  5
E72
330
1F
100
AcDbEntity
  8
FRAME
  6
Continuous
 62
     0
100
AcDbLine
 10
253.4916589739352
 20
214.1553083556695
 30
0.0
 11
333.2521187253986
 21
214.1553163085391
 31
0.0
  0
CIRCLE
  5
E73
330
1F
100
AcDbEntity
  8
Defpoints
  6
Continuous
 62
     1
100
AcDbCircle
 10
255.5069388666622
 20
130.6050088897666
 30
0.0
 40
1.5
  0
LINE
  5
E74
330
1F
100
AcDbEntity
  8
FRAME
 62
     0
100
AcDbLine
 10
336.3880746136496
 20
124.9235701531621
 30
0.0
 11
336.3880746781527
 21
209.7178027442081
 31
0.0
  0
CIRCLE
  5
E75
330
1F
100
AcDbEntity
  8
Defpoints
  6
Continuous
 62
     1
100
AcDbCircle
 10
330.5069388666622
 20
130.6050088897667
 30
0.0
 40
1.5
  0
CIRCLE
  5
E76
330
1F
100
AcDbEntity
  8
Defpoints
  6
Continuous
 62
     1
100
AcDbCircle
 10
255.5069388666622
 20
205.6050088897666
 30
0.0
 40
1.5
  0
CIRCLE
  5
E77
330
1F
100
AcDbEntity
  8
Defpoints
  6
Continuous
 62
     1
100
AcDbCircle
 10
330.5069388666622
 20
205.6050088897666
 30
0.0
 40
1.5
  0
LINE
  5
E78
330
1F
100
AcDbEntity
  8
CORTES_INTERIORES
  6
Continuous
 62
     1
100
AcDbLine
 10
303.9932881068249
 20
137.4325140096653
 30
0.0
 11
311.6537325380148
 21
131.0046379127999
 31
0.0
  0
LINE
  5
E79
330
1F
100
AcDbEntity
  8
CORTES_INTERIORES
  6
Continuous
 62
     1
100
AcDbLine
 10
301.7435314729221
 20
134.751358458749
 30
0.0
 11
309.4039759041119
 21
128.3234823618836
 31
0.0
  0
LINE
  5
E7A
330
1F
100
AcDbEntity
  8
CORTES_INTERIORES
  6
Continuous
 62
     1
100
AcDbLine
 10
311.6537325380148
 20
131.0046379128
 30
0.0
 11
309.4039759041119
 21
128.3234823618836
 31
0.0
  0
LINE
  5
E7B
330
1F
100
AcDbEntity
  8
CORTES_INTERIORES
  6
Continuous
 62
     1
100
AcDbLine
 10
303.9932881068249
 20
137.4325140096653
 30
0.0
 11
301.7435314729221
 21
134.751358458749
 31
0.0
  0
LINE
  5
E7C
330
1F
100
AcDbEntity
  8
CORTES_INTERIORES
  6
Continuous
 62
     1
100
AcDbLine
 10
284.2647227318968
 20
134.1519104907198
 30
0.0
 11
276.6042783007071
 21
127.7240343938543
 31
0.0
  0
LINE
  5
E7D
330
1F
100
AcDbEntity
  8
CORTES_INTERIORES
  6
Continuous
 62
     1
100
AcDbLine
 10
282.014966097994
 20
136.8330660416362
 30
0.0
 11
274.3545216668043
 21
130.4051899447707
 31
0.0
  0
LINE
  5
E7E
330
1F
100
AcDbEntity
  8
CORTES_INTERIORES
  6
Continuous
 62
     1
100
AcDbLine
 10
276.6042783007072
 20
127.7240343938543
 30
0.0
 11
274.3545216668043
 21
130.4051899447707
 31
0.0
  0
LINE
  5
E7F
330
1F
100
AcDbEntity
  8
CORTES_INTERIORES
  6
Continuous
 62
     1
100
AcDbLine
 10
284.2647227318968
 20
134.1519104907198
 30
0.0
 11
282.014966097994
 21
136.8330660416362
 31
0.0
  0
LINE
  5
E80
330
1F
100
AcDbEntity
  8
CORTES_INTERIORES
  6
Continuous
 62
     1
100
AcDbLine
 10
282.0670832563566
 20
197.6621923513124
 30
0.0
 11
274.4066388251668
 21
204.0900684481778
 31
0.0
  0
LINE
  5
E81
330
1F
100
AcDbEntity
  8
CORTES_INTERIORES
  6
Continuous
 62
     1
100
AcDbLine
 10
284.3168398902595
 20
200.3433479022287
 30
0.0
 11
276.6563954590696
 21
206.7712239990941
 31
0.0
  0
LINE
  5
E82
330
1F
100
AcDbEntity
  8
CORTES_INTERIORES
  6
Continuous
 62
     1
100
AcDbLine
 10
274.4066388251668
 20
204.0900684481777
 30
0.0
 11
276.6563954590696
 21
206.7712239990941
 31
0.0
  0
LINE
  5
E83
330
1F
100
AcDbEntity
  8
CORTES_INTERIORES
  6
Continuous
 62
     1
100
AcDbLine
 10
282.0670832563566
 20
197.6621923513124
 30
0.0
 11
284.3168398902595
 21
200.3433479022287
 31
0.0
  0
LINE
  5
E84
330
1F
100
AcDbEntity
  8
CORTES_INTERIORES
  6
Continuous
 62
     1
100
AcDbLine
 10
301.7956486312847
 20
200.9427958702579
 30
0.0
 11
309.4560930624745
 21
207.3706719671234
 31
0.0
  0
LINE
  5
E85
330
1F
100
AcDbEntity
  8
CORTES_INTERIORES
  6
Continuous
 62
     1
100
AcDbLine
 10
304.0454052651875
 20
198.2616403193415
 30
0.0
 11
311.7058496963772
 21
204.6895164162069
 31
0.0
  0
LINE
  5
E86
330
1F
100
AcDbEntity
  8
CORTES_INTERIORES
  6
Continuous
 62
     1
100
AcDbLine
 10
309.4560930624744
 20
207.3706719671234
 30
0.0
 11
311.7058496963772
 21
204.6895164162069
 31
0.0
  0
LINE
  5
E87
330
1F
100
AcDbEntity
  8
CORTES_INTERIORES
  6
Continuous
 62
     1
100
AcDbLine
 10
301.7956486312847
 20
200.9427958702579
 30
0.0
 11
304.0454052651875
 21
198.2616403193415
 31
0.0
  0
ENDSEC
  0
SECTION
  2
OBJECTS
  0
DICTIONARY
  5
C
330
0
100
AcDbDictionary
281
     1
  3
ACAD_COLOR
350
BE
  3
ACAD_DETAILVIEWSTYLE
350
B5
  3
ACAD_GROUP
350
D
  3
ACAD_IMAGE_VARS
350
6A
  3
ACAD_LAYOUT
350
1A
  3
ACAD_MATERIAL
350
72
  3
ACAD_MLEADERSTYLE
350
3F
  3
ACAD_MLINESTYLE
350
17
  3
ACAD_PLOTSETTINGS
350
19
  3
ACAD_PLOTSTYLENAME
350
E
  3
ACAD_SCALELIST
350
40
  3
ACAD_SECTIONVIEWSTYLE
350
B6
  3
ACAD_TABLESTYLE
350
3B
  3
ACAD_VISUALSTYLE
350
2A
  3
ACDB_RECOMPOSE_DATA
350
108D
  3
AcDbVariableDictionary
350
3D
  3
APPDATA
350
71
  0
SUN
  5
80
330
29
100
AcDbSun
 90
        1
290
     0
 63
     7
421
 16777215
 40
1.0
291
     1
 91
  2455826
 92
 54000000
292
     0
 70
     2
 71
   256
280
     1
  0
DICTIONARY
  5
E5
330
2
100
AcDbDictionary
280
     1
281
     1
  3
ACAD_LAYERSTATES
360
E6
  0
DICTIONARY
  5
175
330
174
100
AcDbDictionary
280
     1
281
     1
  3
ADSK_XREC_LAYER_RECONCILED
360
176
  0
DICTIONARY
  5
179
330
178
100
AcDbDictionary
280
     1
281
     1
  3
ADSK_XREC_LAYER_RECONCILED
360
17A
  0
DICTIONARY
  5
BE
102
{ACAD_REACTORS
330
C
102
}
330
C
100
AcDbDictionary
281
     1
  0
DICTIONARY
  5
B5
102
{ACAD_REACTORS
330
C
102
}
330
C
100
AcDbDictionary
281
     1
  0
DICTIONARY
  5
D
102
{ACAD_REACTORS
330
C
102
}
330
C
100
AcDbDictionary
281
     1
  0
RASTERVARIABLES
  5
6A
102
{ACAD_REACTORS
330
C
102
}
330
C
100
AcDbRasterVariables
 90
        0
 70
     1
 71
     1
 72
     1
  0
DICTIONARY
  5
1A
102
{ACAD_REACTORS
330
C
102
}
330
C
100
AcDbDictionary
281
     1
  3
Model
350
22
  3
Sheet1
350
1E
  3
Sheet2
350
26
  0
DICTIONARY
  5
72
102
{ACAD_REACTORS
330
C
102
}
330
C
100
AcDbDictionary
281
     1
  3
ByBlock
350
74
  3
ByLayer
350
73
  3
Global
350
75
  0
DICTIONARY
  5
3F
102
{ACAD_REACTORS
330
C
102
}
330
C
100
AcDbDictionary
281
     1
  3
Standard
350
B7
  0
DICTIONARY
  5
17
102
{ACAD_REACTORS
330
C
102
}
330
C
100
AcDbDictionary
281
     1
  3
Standard
350
18
  0
DICTIONARY
  5
19
102
{ACAD_REACTORS
330
C
102
}
330
C
100
AcDbDictionary
281
     1
  0
ACDBDICTIONARYWDFLT
  5
E
102
{ACAD_REACTORS
330
C
102
}
330
C
100
AcDbDictionary
281
     1
  3
Normal
350
F
100
AcDbDictionaryWithDefault
340
F
  0
DICTIONARY
  5
40
102
{ACAD_REACTORS
330
C
102
}
330
C
100
AcDbDictionary
281
     1
  3
A0
350
41
  3
A1
350
42
  3
A2
350
43
  3
A3
350
44
  3
A4
350
45
  3
A5
350
46
  3
A6
350
47
  3
A7
350
48
  3
A8
350
49
  3
A9
350
4A
  3
B0
350
4B
  3
B1
350
4C
  3
B2
350
4D
  3
B3
350
4E
  3
B4
350
4F
  3
B5
350
50
  3
B6
350
51
  3
B7
350
52
  3
B8
350
53
  3
B9
350
54
  3
C0
350
55
  3
C1
350
56
  3
C2
350
57
  3
C3
350
58
  3
C4
350
59
  3
C5
350
5A
  3
C6
350
5B
  3
C7
350
5C
  3
C8
350
5D
  3
C9
350
5E
  3
D0
350
5F
  3
D1
350
60
  3
D2
350
61
  0
DICTIONARY
  5
B6
102
{ACAD_REACTORS
330
C
102
}
330
C
100
AcDbDictionary
281
     1
  0
DICTIONARY
  5
3B
102
{ACAD_REACTORS
330
C
102
}
330
C
100
AcDbDictionary
281
     1
  3
Standard
350
3C
  0
DICTIONARY
  5
2A
102
{ACAD_REACTORS
330
C
102
}
330
C
100
AcDbDictionary
281
     1
  3
2dWireframe
350
2F
  3
3D Hidden
350
31
  3
3dWireframe
350
30
  3
Basic
350
32
  3
Brighten
350
36
  3
ColorChange
350
3A
  3
Conceptual
350
34
  3
Dim
350
35
  3
EdgeColorOff
350
7A
  3
Facepattern
350
39
  3
Flat
350
2B
  3
FlatWithEdges
350
2C
  3
Gouraud
350
2D
  3
GouraudWithEdges
350
2E
  3
Hidden
350
77
  3
JitterOff
350
78
  3
Linepattern
350
38
  3
OverhangOff
350
79
  3
Realistic
350
33
  3
Shaded
350
7F
  3
Shaded with edges
350
7E
  3
Shades of Gray
350
7B
  3
Sketchy
350
7C
  3
Thicken
350
37
  3
Wireframe
350
76
  3
X-Ray
350
7D
  0
XRECORD
  5
108D
102
{ACAD_REACTORS
330
C
102
}
330
C
100
AcDbXrecord
280
     1
 90
        1
330
3C
  0
DICTIONARY
  5
3D
102
{ACAD_REACTORS
330
C
102
}
330
C
100
AcDbDictionary
281
     1
  3
CANNOSCALE
350
62
  3
CMLEADERSTYLE
350
105
  3
CTABLESTYLE
350
3E
  3
LIGHTSINBLOCKS
350
6F
  3
XCLIPFRAME
350
70
  0
DICTIONARY
  5
71
102
{ACAD_REACTORS
330
C
102
}
330
C
100
AcDbDictionary
281
     1
  0
DICTIONARY
  5
E6
102
{ACAD_REACTORS
330
E5
102
}
330
E5
100
AcDbDictionary
281
     1
  0
XRECORD
  5
176
102
{ACAD_REACTORS
330
175
102
}
330
175
100
AcDbXrecord
280
     1
290
     1
  0
XRECORD
  5
17A
102
{ACAD_REACTORS
330
179
102
}
330
179
100
AcDbXrecord
280
     1
290
     1
  0
LAYOUT
  5
22
102
{ACAD_REACTORS
330
1A
102
}
330
1A
100
AcDbPlotSettings
  1

  2
none_device
  4
ISO_A3_(420.00_x_297.00_MM)
  6

 40
7.5
 41
20.0
 42
7.5
 43
20.0
 44
420.0
 45
297.0
 46
20.78282828282826
 47
0.0
 48
0.0
 49
0.0
140
0.0
141
0.0
142
1.0
143
1.155642023346303
 70
  1204
 72
     1
 73
     0
 74
     1
  7
monochrome.ctb
 75
     0
 76
     0
 77
     2
 78
   300
147
0.8653198653198654
148
-134.1869158878504
149
0.0
100
AcDbLayout
  1
Model
 70
     1
 71
     0
 10
0.0
 20
0.0
 11
420.0
 21
297.0
 12
0.0
 22
0.0
 32
0.0
 14
65.73307984790873
 24
34.25817490494296
 34
0.0
 15
336.3880746781527
 25
300.8732359726893
 35
0.0000000000000071
146
0.0
 13
0.0
 23
0.0
 33
0.0
 16
1.0
 26
0.0
 36
0.0
 17
0.0
 27
1.0
 37
0.0
 76
     0
330
1F
331
29
  0
LAYOUT
  5
1E
102
{ACAD_REACTORS
330
1A
102
}
330
1A
100
AcDbPlotSettings
  1

  2
none_device
  4

  6

 40
0.0
 41
0.0
 42
0.0
 43
0.0
 44
0.0
 45
0.0
 46
0.0
 47
0.0
 48
0.0
 49
0.0
140
0.0
141
0.0
142
1.0
143
1.0
 70
   688
 72
     0
 73
     0
 74
     5
  7

 75
    16
 76
     0
 77
     2
 78
   300
147
1.0
148
0.0
149
0.0
100
AcDbLayout
  1
Sheet1
 70
     1
 71
     1
 10
0.0
 20
0.0
 11
420.0
 21
297.0
 12
0.0
 22
0.0
 32
0.0
 14
1.000000000000000E+20
 24
1.000000000000000E+20
 34
1.000000000000000E+20
 15
-1.000000000000000E+20
 25
-1.000000000000000E+20
 35
-1.000000000000000E+20
146
0.0
 13
0.0
 23
0.0
 33
0.0
 16
1.0
 26
0.0
 36
0.0
 17
0.0
 27
1.0
 37
0.0
 76
     0
330
1B
  0
LAYOUT
  5
26
102
{ACAD_REACTORS
330
1A
102
}
330
1A
100
AcDbPlotSettings
  1

  2
none_device
  4

  6

 40
0.0
 41
0.0
 42
0.0
 43
0.0
 44
0.0
 45
0.0
 46
0.0
 47
0.0
 48
0.0
 49
0.0
140
0.0
141
0.0
142
1.0
143
1.0
 70
   688
 72
     0
 73
     0
 74
     5
  7

 75
    16
 76
     0
 77
     2
 78
   300
147
1.0
148
0.0
149
0.0
100
AcDbLayout
  1
Sheet2
 70
     1
 71
     2
 10
0.0
 20
0.0
 11
0.0
 21
0.0
 12
0.0
 22
0.0
 32
0.0
 14
0.0
 24
0.0
 34
0.0
 15
0.0
 25
0.0
 35
0.0
146
0.0
 13
0.0
 23
0.0
 33
0.0
 16
1.0
 26
0.0
 36
0.0
 17
0.0
 27
1.0
 37
0.0
 76
     0
330
23
  0
MATERIAL
  5
74
102
{ACAD_REACTORS
330
72
102
}
330
72
100
AcDbMaterial
  1
ByBlock
 72
     1
 94
      127
  0
MATERIAL
  5
73
102
{ACAD_REACTORS
330
72
102
}
330
72
100
AcDbMaterial
  1
ByLayer
 72
     1
 94
      127
  0
MATERIAL
  5
75
102
{ACAD_REACTORS
330
72
102
}
330
72
100
AcDbMaterial
  1
Global
 72
     1
 94
      127
  0
MLEADERSTYLE
  5
B7
102
{ACAD_REACTORS
330
3F
102
}
330
3F
100
AcDbMLeaderStyle
179
     2
170
     2
171
     1
172
     0
 90
        2
 40
0.0
 41
0.0
173
     1
 91
-1056964608
340
14
 92
       -2
290
     1
 42
2.0
291
     1
 43
8.0
  3
Standard
341
0
 44
4.0
300

342
11
174
     1
178
     6
175
     1
176
     0
 93
-1056964608
 45
4.0
292
     0
297
     0
 46
4.0
343
0
 94
-1056964608
 47
1.0
 49
1.0
140
1.0
293
     1
141
0.0
294
     1
177
     0
142
1.0
295
     0
296
     0
143
3.75
271
     0
272
     9
273
     9
298
     0
  0
MLINESTYLE
  5
18
102
{ACAD_REACTORS
330
17
102
}
330
17
100
AcDbMlineStyle
  2
Standard
 70
     0
  3

 62
   256
 51
90.0
 52
90.0
 71
     2
 49
0.5
 62
   256
  6
BYLAYER
 49
-0.5
 62
   256
  6
BYLAYER
  0
ACDBPLACEHOLDER
  5
F
102
{ACAD_REACTORS
330
E
102
}
330
E
  0
SCALE
  5
41
102
{ACAD_REACTORS
330
40
102
}
330
40
100
AcDbScale
 70
     0
300
1:1
140
1.0
141
1.0
290
     1
  0
SCALE
  5
42
102
{ACAD_REACTORS
330
40
102
}
330
40
100
AcDbScale
 70
     0
300
1:2
140
1.0
141
2.0
290
     0
  0
SCALE
  5
43
102
{ACAD_REACTORS
330
40
102
}
330
40
100
AcDbScale
 70
     0
300
1:4
140
1.0
141
4.0
290
     0
  0
SCALE
  5
44
102
{ACAD_REACTORS
330
40
102
}
330
40
100
AcDbScale
 70
     0
300
1:5
140
1.0
141
5.0
290
     0
  0
SCALE
  5
45
102
{ACAD_REACTORS
330
40
102
}
330
40
100
AcDbScale
 70
     0
300
1:8
140
1.0
141
8.0
290
     0
  0
SCALE
  5
46
102
{ACAD_REACTORS
330
40
102
}
330
40
100
AcDbScale
 70
     0
300
1:10
140
1.0
141
10.0
290
     0
  0
SCALE
  5
47
102
{ACAD_REACTORS
330
40
102
}
330
40
100
AcDbScale
 70
     0
300
1:16
140
1.0
141
16.0
290
     0
  0
SCALE
  5
48
102
{ACAD_REACTORS
330
40
102
}
330
40
100
AcDbScale
 70
     0
300
1:20
140
1.0
141
20.0
290
     0
  0
SCALE
  5
49
102
{ACAD_REACTORS
330
40
102
}
330
40
100
AcDbScale
 70
     0
300
1:30
140
1.0
141
30.0
290
     0
  0
SCALE
  5
4A
102
{ACAD_REACTORS
330
40
102
}
330
40
100
AcDbScale
 70
     0
300
1:40
140
1.0
141
40.0
290
     0
  0
SCALE
  5
4B
102
{ACAD_REACTORS
330
40
102
}
330
40
100
AcDbScale
 70
     0
300
1:50
140
1.0
141
50.0
290
     0
  0
SCALE
  5
4C
102
{ACAD_REACTORS
330
40
102
}
330
40
100
AcDbScale
 70
     0
300
1:100
140
1.0
141
100.0
290
     0
  0
SCALE
  5
4D
102
{ACAD_REACTORS
330
40
102
}
330
40
100
AcDbScale
 70
     0
300
2:1
140
2.0
141
1.0
290
     0
  0
SCALE
  5
4E
102
{ACAD_REACTORS
330
40
102
}
330
40
100
AcDbScale
 70
     0
300
4:1
140
4.0
141
1.0
290
     0
  0
SCALE
  5
4F
102
{ACAD_REACTORS
330
40
102
}
330
40
100
AcDbScale
 70
     0
300
8:1
140
8.0
141
1.0
290
     0
  0
SCALE
  5
50
102
{ACAD_REACTORS
330
40
102
}
330
40
100
AcDbScale
 70
     0
300
10:1
140
10.0
141
1.0
290
     0
  0
SCALE
  5
51
102
{ACAD_REACTORS
330
40
102
}
330
40
100
AcDbScale
 70
     0
300
100:1
140
100.0
141
1.0
290
     0
  0
SCALE
  5
52
102
{ACAD_REACTORS
330
40
102
}
330
40
100
AcDbScale
 70
     0
300
1/128" = 1'-0"
140
0.0078125
141
12.0
290
     0
  0
SCALE
  5
53
102
{ACAD_REACTORS
330
40
102
}
330
40
100
AcDbScale
 70
     0
300
1/64" = 1'-0"
140
0.015625
141
12.0
290
     0
  0
SCALE
  5
54
102
{ACAD_REACTORS
330
40
102
}
330
40
100
AcDbScale
 70
     0
300
1/32" = 1'-0"
140
0.03125
141
12.0
290
     0
  0
SCALE
  5
55
102
{ACAD_REACTORS
330
40
102
}
330
40
100
AcDbScale
 70
     0
300
1/16" = 1'-0"
140
0.0625
141
12.0
290
     0
  0
SCALE
  5
56
102
{ACAD_REACTORS
330
40
102
}
330
40
100
AcDbScale
 70
     0
300
3/32" = 1'-0"
140
0.09375
141
12.0
290
     0
  0
SCALE
  5
57
102
{ACAD_REACTORS
330
40
102
}
330
40
100
AcDbScale
 70
     0
300
1/8" = 1'-0"
140
0.125
141
12.0
290
     0
  0
SCALE
  5
58
102
{ACAD_REACTORS
330
40
102
}
330
40
100
AcDbScale
 70
     0
300
3/16" = 1'-0"
140
0.1875
141
12.0
290
     0
  0
SCALE
  5
59
102
{ACAD_REACTORS
330
40
102
}
330
40
100
AcDbScale
 70
     0
300
1/4" = 1'-0"
140
0.25
141
12.0
290
     0
  0
SCALE
  5
5A
102
{ACAD_REACTORS
330
40
102
}
330
40
100
AcDbScale
 70
     0
300
3/8" = 1'-0"
140
0.375
141
12.0
290
     0
  0
SCALE
  5
5B
102
{ACAD_REACTORS
330
40
102
}
330
40
100
AcDbScale
 70
     0
300
1/2" = 1'-0"
140
0.5
141
12.0
290
     0
  0
SCALE
  5
5C
102
{ACAD_REACTORS
330
40
102
}
330
40
100
AcDbScale
 70
     0
300
3/4" = 1'-0"
140
0.75
141
12.0
290
     0
  0
SCALE
  5
5D
102
{ACAD_REACTORS
330
40
102
}
330
40
100
AcDbScale
 70
     0
300
1" = 1'-0"
140
1.0
141
12.0
290
     0
  0
SCALE
  5
5E
102
{ACAD_REACTORS
330
40
102
}
330
40
100
AcDbScale
 70
     0
300
1-1/2" = 1'-0"
140
1.5
141
12.0
290
     0
  0
SCALE
  5
5F
102
{ACAD_REACTORS
330
40
102
}
330
40
100
AcDbScale
 70
     0
300
3" = 1'-0"
140
3.0
141
12.0
290
     0
  0
SCALE
  5
60
102
{ACAD_REACTORS
330
40
102
}
330
40
100
AcDbScale
 70
     0
300
6" = 1'-0"
140
6.0
141
12.0
290
     0
  0
SCALE
  5
61
102
{ACAD_REACTORS
330
40
102
}
330
40
100
AcDbScale
 70
     0
300
1'-0" = 1'-0"
140
12.0
141
12.0
290
     0
  0
TABLESTYLE
  5
3C
102
{ACAD_REACTORS
330
3B
102
}
102
{ACAD_XDICTIONARY
360
108B
102
}
330
3B
100
AcDbTableStyle
  3
Standard
 70
     0
 71
     0
 40
1.5
 41
1.5
280
     0
281
     0
  7
Standard
140
4.5
170
     2
 62
     0
 63
   257
283
     0
 90
      512
 91
        0
  1

274
    -2
284
     1
 64
     0
275
    -2
285
     1
 65
     0
276
    -2
286
     1
 66
     0
277
    -2
287
     1
 67
     0
278
    -2
288
     1
 68
     0
279
    -2
289
     1
 69
     0
  7
Standard
140
6.0
170
     5
 62
     0
 63
   257
283
     0
 90
      512
 91
        0
  1

274
    -2
284
     1
 64
     0
275
    -2
285
     1
 65
     0
276
    -2
286
     1
 66
     0
277
    -2
287
     1
 67
     0
278
    -2
288
     1
 68
     0
279
    -2
289
     1
 69
     0
  7
Standard
140
4.5
170
     5
 62
     0
 63
   257
283
     0
 90
      512
 91
        0
  1

274
    -2
284
     1
 64
     0
275
    -2
285
     1
 65
     0
276
    -2
286
     1
 66
     0
277
    -2
287
     1
 67
     0
278
    -2
288
     1
 68
     0
279
    -2
289
     1
 69
     0
  0
VISUALSTYLE
  5
2F
102
{ACAD_REACTORS
330
2A
102
}
330
2A
100
AcDbVisualStyle
  2
2dWireframe
 70
     4
177
     3
291
     0
 70
    58
 90
        0
176
     1
 90
        2
176
     1
 90
        0
176
     1
 90
        0
176
     1
 40
-0.6
176
     1
 40
-30.0
176
     1
 62
     7
420
 16777215
176
     1
 90
        1
176
     1
 90
        4
176
     1
 62
     7
176
     1
 62
   257
176
     1
 90
        1
176
     1
 90
        1
176
     1
 40
1.0
176
     1
 90
        0
176
     1
 62
   257
176
     1
 40
1.0
176
     1
 90
        1
176
     1
 90
        6
176
     1
 90
        2
176
     1
 62
     7
176
     1
 90
        5
176
     1
 90
        0
176
     1
 90
        0
176
     1
290
     0
176
     1
 90
        1
176
     1
 40
0.0
176
     1
 90
        0
176
     1
290
     1
176
     1
290
     1
176
     1
290
     0
176
     1
290
     0
176
     1
290
     0
176
     1
290
     0
176
     1
290
     0
176
     1
290
     0
176
     1
290
     0
176
     1
 90
       50
176
     1
 40
0.0
176
     1
 40
1.0
176
     1
 90
        0
176
     1
 62
    18
420
        0
176
     1
 90
       50
176
     1
 90
        3
176
     1
 62
     5
420
      255
176
     1
290
     0
176
     1
 90
       50
176
     1
 90
       50
176
     1
 90
       50
176
     1
290
     0
176
     1
 90
       50
176
     1
 62
   256
176
     0
 40
1.0
176
     0
 90
        2
176
     1
  1
strokes_ogs.tif
176
     1
290
     0
176
     1
 40
1.0
176
     1
 40
1.0
176
     1
  0
VISUALSTYLE
  5
31
102
{ACAD_REACTORS
330
2A
102
}
330
2A
100
AcDbVisualStyle
  2
3D Hidden
 70
     6
177
     3
291
     0
 70
    58
 90
        1
176
     1
 90
        2
176
     1
 90
        2
176
     1
 90
        0
176
     1
 40
-0.6
176
     1
 40
-30.0
176
     1
 62
     7
420
 16777215
176
     1
 90
        2
176
     1
 90
        2
176
     1
 62
     7
176
     1
 62
   257
176
     1
 90
        2
176
     1
 90
        1
176
     1
 40
40.0
176
     1
 90
        0
176
     1
 62
   257
176
     1
 40
1.0
176
     1
 90
        1
176
     1
 90
        6
176
     1
 90
        2
176
     1
 62
     7
176
     1
 90
        3
176
     1
 90
        0
176
     1
 90
        0
176
     1
290
     0
176
     1
 90
        1
176
     1
 40
0.0
176
     1
 90
        0
176
     1
290
     0
176
     1
290
     1
176
     1
290
     1
176
     1
290
     0
176
     1
290
     0
176
     1
290
     0
176
     1
290
     0
176
     1
290
     0
176
     1
290
     0
176
     1
 90
       50
176
     1
 40
0.0
176
     1
 40
1.0
176
     1
 90
        0
176
     1
 62
    18
420
        0
176
     1
 90
       50
176
     1
 90
        3
176
     1
 62
     5
420
      255
176
     1
290
     0
176
     1
 90
       50
176
     1
 90
       50
176
     1
 90
       50
176
     1
290
     0
176
     1
 90
       50
176
     1
 62
   256
176
     0
 40
1.0
176
     0
 90
        2
176
     1
  1
strokes_ogs.tif
176
     1
290
     0
176
     1
 40
1.0
176
     1
 40
1.0
176
     1
  0
VISUALSTYLE
  5
30
102
{ACAD_REACTORS
330
2A
102
}
330
2A
100
AcDbVisualStyle
  2
3dWireframe
 70
     5
177
     3
291
     0
 70
    58
 90
        0
176
     1
 90
        2
176
     1
 90
        0
176
     1
 90
        0
176
     1
 40
-0.6
176
     1
 40
-30.0
176
     1
 62
     7
420
 16777215
176
     1
 90
        1
176
     1
 90
        4
176
     1
 62
     7
176
     1
 62
   257
176
     1
 90
        1
176
     1
 90
        1
176
     1
 40
1.0
176
     1
 90
        0
176
     1
 62
   257
176
     1
 40
1.0
176
     1
 90
        1
176
     1
 90
        6
176
     1
 90
        2
176
     1
 62
     7
176
     1
 90
        5
176
     1
 90
        0
176
     1
 90
        0
176
     1
290
     0
176
     1
 90
        1
176
     1
 40
0.0
176
     1
 90
        0
176
     1
290
     0
176
     1
290
     1
176
     1
290
     1
176
     1
290
     0
176
     1
290
     0
176
     1
290
     0
176
     1
290
     0
176
     1
290
     0
176
     1
290
     0
176
     1
 90
       50
176
     1
 40
0.0
176
     1
 40
1.0
176
     1
 90
        0
176
     1
 62
    18
420
        0
176
     1
 90
       50
176
     1
 90
        3
176
     1
 62
     5
420
      255
176
     1
290
     0
176
     1
 90
       50
176
     1
 90
       50
176
     1
 90
       50
176
     1
290
     0
176
     1
 90
       50
176
     1
 62
   256
176
     0
 40
1.0
176
     0
 90
        2
176
     1
  1
strokes_ogs.tif
176
     1
290
     0
176
     1
 40
1.0
176
     1
 40
1.0
176
     1
  0
VISUALSTYLE
  5
32
102
{ACAD_REACTORS
330
2A
102
}
330
2A
100
AcDbVisualStyle
  2
Basic
 70
     7
177
     3
291
     1
 70
    58
 90
        1
176
     1
 90
        0
176
     1
 90
        1
176
     1
 90
        0
176
     1
 40
-0.6
176
     1
 40
-30.0
176
     1
 62
     7
420
 16777215
176
     1
 90
        0
176
     1
 90
        4
176
     1
 62
     7
176
     1
 62
   257
176
     1
 90
        1
176
     1
 90
        1
176
     1
 40
1.0
176
     1
 90
        8
176
     1
 62
     7
176
     1
 40
1.0
176
     1
 90
        1
176
     1
 90
        6
176
     1
 90
        2
176
     1
 62
     7
176
     1
 90
        5
176
     1
 90
        0
176
     1
 90
        0
176
     1
290
     0
176
     1
 90
        1
176
     1
 40
0.0
176
     1
 90
        0
176
     1
290
     0
176
     1
290
     1
176
     1
290
     1
176
     1
290
     0
176
     1
290
     0
176
     1
290
     0
176
     1
290
     0
176
     1
290
     0
176
     1
290
     0
176
     1
 90
       50
176
     1
 40
0.0
176
     1
 40
1.0
176
     1
 90
        0
176
     1
 62
    18
420
        0
176
     1
 90
       50
176
     1
 90
        3
176
     1
 62
     5
420
      255
176
     1
290
     0
176
     1
 90
       50
176
     1
 90
       50
176
     1
 90
       50
176
     1
290
     0
176
     1
 90
       50
176
     1
 62
   256
176
     0
 40
1.0
176
     0
 90
        2
176
     1
  1
strokes_ogs.tif
176
     1
290
     0
176
     1
 40
1.0
176
     1
 40
1.0
176
     1
  0
VISUALSTYLE
  5
36
102
{ACAD_REACTORS
330
2A
102
}
330
2A
100
AcDbVisualStyle
  2
Brighten
 70
    12
177
     3
291
     1
 70
    58
 90
        2
176
     1
 90
        2
176
     1
 90
        0
176
     1
 90
        0
176
     1
 40
-0.6
176
     1
 40
-30.0
176
     1
 62
     7
420
 16777215
176
     1
 90
        1
176
     1
 90
        4
176
     1
 62
     7
176
     1
 62
   257
176
     1
 90
        1
176
     1
 90
        1
176
     1
 40
1.0
176
     1
 90
        8
176
     1
 62
     7
176
     1
 40
1.0
176
     1
 90
        1
176
     1
 90
        6
176
     1
 90
        2
176
     1
 62
     7
176
     1
 90
        5
176
     1
 90
        0
176
     1
 90
        0
176
     1
290
     0
176
     1
 90
        1
176
     1
 40
50.0
176
     1
 90
        0
176
     1
290
     0
176
     1
290
     1
176
     1
290
     1
176
     1
290
     0
176
     1
290
     0
176
     1
290
     0
176
     1
290
     0
176
     1
290
     0
176
     1
290
     0
176
     1
 90
       50
176
     1
 40
0.0
176
     1
 40
1.0
176
     1
 90
        0
176
     1
 62
    18
420
        0
176
     1
 90
       50
176
     1
 90
        3
176
     1
 62
     5
420
      255
176
     1
290
     0
176
     1
 90
       50
176
     1
 90
       50
176
     1
 90
       50
176
     1
290
     0
176
     1
 90
       50
176
     1
 62
   256
176
     0
 40
1.0
176
     0
 90
        2
176
     1
  1
strokes_ogs.tif
176
     1
290
     0
176
     1
 40
1.0
176
     1
 40
1.0
176
     1
  0
VISUALSTYLE
  5
3A
102
{ACAD_REACTORS
330
2A
102
}
330
2A
100
AcDbVisualStyle
  2
ColorChange
 70
    16
177
     3
291
     1
 70
    58
 90
        2
176
     1
 90
        2
176
     1
 90
        3
176
     1
 90
        0
176
     1
 40
-0.6
176
     1
 40
-30.0
176
     1
 62
     8
420
  8421504
176
     1
 90
        1
176
     1
 90
        4
176
     1
 62
     7
176
     1
 62
   257
176
     1
 90
        1
176
     1
 90
        1
176
     1
 40
1.0
176
     1
 90
        8
176
     1
 62
     8
420
  8421504
176
     1
 40
1.0
176
     1
 90
        1
176
     1
 90
        6
176
     1
 90
        2
176
     1
 62
     7
176
     1
 90
        5
176
     1
 90
        0
176
     1
 90
        0
176
     1
290
     0
176
     1
 90
        1
176
     1
 40
0.0
176
     1
 90
        0
176
     1
290
     0
176
     1
290
     1
176
     1
290
     1
176
     1
290
     0
176
     1
290
     0
176
     1
290
     0
176
     1
290
     0
176
     1
290
     0
176
     1
290
     0
176
     1
 90
       50
176
     1
 40
0.0
176
     1
 40
1.0
176
     1
 90
        0
176
     1
 62
    18
420
        0
176
     1
 90
       50
176
     1
 90
        3
176
     1
 62
     5
420
      255
176
     1
290
     0
176
     1
 90
       50
176
     1
 90
       50
176
     1
 90
       50
176
     1
290
     0
176
     1
 90
       50
176
     1
 62
   256
176
     0
 40
1.0
176
     0
 90
        2
176
     1
  1
strokes_ogs.tif
176
     1
290
     0
176
     1
 40
1.0
176
     1
 40
1.0
176
     1
  0
VISUALSTYLE
  5
34
102
{ACAD_REACTORS
330
2A
102
}
330
2A
100
AcDbVisualStyle
  2
Conceptual
 70
     9
177
     3
291
     0
 70
    58
 90
        3
176
     1
 90
        2
176
     1
 90
        0
176
     1
 90
        0
176
     1
 40
-0.6
176
     1
 40
-30.0
176
     1
 62
     7
420
 16777215
176
     1
 90
        2
176
     1
 90
        2
176
     1
 62
     7
176
     1
 62
   257
176
     1
 90
        1
176
     1
 90
        1
176
     1
 40
40.0
176
     1
 90
        8
176
     1
 62
     7
176
     1
 40
1.0
176
     1
 90
        1
176
     1
 90
        6
176
     1
 90
        2
176
     1
 62
     7
176
     1
 90
        3
176
     1
 90
        0
176
     1
 90
        0
176
     1
290
     0
176
     1
 90
        1
176
     1
 40
0.0
176
     1
 90
        0
176
     1
290
     0
176
     1
290
     1
176
     1
290
     1
176
     1
290
     0
176
     1
290
     0
176
     1
290
     0
176
     1
290
     0
176
     1
290
     0
176
     1
290
     0
176
     1
 90
       50
176
     1
 40
0.0
176
     1
 40
1.0
176
     1
 90
        0
176
     1
 62
    18
420
        0
176
     1
 90
       50
176
     1
 90
        3
176
     1
 62
     5
420
      255
176
     1
290
     0
176
     1
 90
       50
176
     1
 90
       50
176
     1
 90
       50
176
     1
290
     0
176
     1
 90
       50
176
     1
 62
   256
176
     0
 40
1.0
176
     0
 90
        2
176
     1
  1
strokes_ogs.tif
176
     1
290
     0
176
     1
 40
1.0
176
     1
 40
1.0
176
     1
  0
VISUALSTYLE
  5
35
102
{ACAD_REACTORS
330
2A
102
}
330
2A
100
AcDbVisualStyle
  2
Dim
 70
    11
177
     3
291
     1
 70
    58
 90
        2
176
     1
 90
        2
176
     1
 90
        0
176
     1
 90
        0
176
     1
 40
-0.6
176
     1
 40
-30.0
176
     1
 62
     7
420
 16777215
176
     1
 90
        1
176
     1
 90
        4
176
     1
 62
     7
176
     1
 62
   257
176
     1
 90
        1
176
     1
 90
        1
176
     1
 40
1.0
176
     1
 90
        8
176
     1
 62
     7
176
     1
 40
1.0
176
     1
 90
        1
176
     1
 90
        6
176
     1
 90
        2
176
     1
 62
     7
176
     1
 90
        5
176
     1
 90
        0
176
     1
 90
        0
176
     1
290
     0
176
     1
 90
        1
176
     1
 40
-50.0
176
     1
 90
        0
176
     1
290
     0
176
     1
290
     1
176
     1
290
     1
176
     1
290
     0
176
     1
290
     0
176
     1
290
     0
176
     1
290
     0
176
     1
290
     0
176
     1
290
     0
176
     1
 90
       50
176
     1
 40
0.0
176
     1
 40
1.0
176
     1
 90
        0
176
     1
 62
    18
420
        0
176
     1
 90
       50
176
     1
 90
        3
176
     1
 62
     5
420
      255
176
     1
290
     0
176
     1
 90
       50
176
     1
 90
       50
176
     1
 90
       50
176
     1
290
     0
176
     1
 90
       50
176
     1
 62
   256
176
     0
 40
1.0
176
     0
 90
        2
176
     1
  1
strokes_ogs.tif
176
     1
290
     0
176
     1
 40
1.0
176
     1
 40
1.0
176
     1
  0
VISUALSTYLE
  5
7A
102
{ACAD_REACTORS
330
2A
102
}
330
2A
100
AcDbVisualStyle
  2
EdgeColorOff
 70
    22
177
     3
291
     1
 70
    58
 90
        2
176
     0
 90
        2
176
     0
 90
        0
176
     0
 90
        0
176
     0
 40
0.6
176
     0
 40
30.0
176
     0
 62
     7
420
 16777215
176
     0
 90
        1
176
     0
 90
        4
176
     0
 62
     7
176
     0
 62
   257
176
     0
 90
        1
176
     0
 90
        1
176
     0
 40
1.0
176
     0
 90
        8
176
     2
 62
     7
176
     0
 40
1.0
176
     0
 90
        1
176
     0
 90
        6
176
     0
 90
        2
176
     0
 62
     7
176
     0
 90
        5
176
     0
 90
        0
176
     0
 90
        0
176
     0
290
     0
176
     0
 90
        1
176
     0
 40
0.0
176
     0
 90
        0
176
     0
290
     0
176
     0
290
     1
176
     0
290
     1
176
     0
290
     0
176
     0
290
     0
176
     0
290
     0
176
     0
290
     0
176
     0
290
     0
176
     0
290
     0
176
     0
 90
       50
176
     0
 40
0.0
176
     0
 40
1.0
176
     0
 90
        0
176
     0
 62
    18
420
        0
176
     0
 90
       50
176
     0
 90
        3
176
     0
 62
     5
420
      255
176
     0
290
     0
176
     0
 90
       50
176
     0
 90
       50
176
     0
 90
       50
176
     0
290
     0
176
     0
 90
       50
176
     0
 62
   256
176
     0
 40
1.0
176
     0
 90
        2
176
     0
  1
strokes_ogs.tif
176
     0
290
     0
176
     0
 40
1.0
176
     0
 40
1.0
176
     0
  0
VISUALSTYLE
  5
39
102
{ACAD_REACTORS
330
2A
102
}
330
2A
100
AcDbVisualStyle
  2
Facepattern
 70
    15
177
     3
291
     1
 70
    58
 90
        2
176
     1
 90
        2
176
     1
 90
        0
176
     1
 90
        0
176
     1
 40
-0.6
176
     1
 40
-30.0
176
     1
 62
     7
420
 16777215
176
     1
 90
        1
176
     1
 90
        4
176
     1
 62
     7
176
     1
 62
   257
176
     1
 90
        1
176
     1
 90
        1
176
     1
 40
1.0
176
     1
 90
        8
176
     1
 62
     7
176
     1
 40
1.0
176
     1
 90
        1
176
     1
 90
        6
176
     1
 90
        2
176
     1
 62
     7
176
     1
 90
        5
176
     1
 90
        0
176
     1
 90
        0
176
     1
290
     0
176
     1
 90
        1
176
     1
 40
0.0
176
     1
 90
        0
176
     1
290
     0
176
     1
290
     1
176
     1
290
     1
176
     1
290
     0
176
     1
290
     0
176
     1
290
     0
176
     1
290
     0
176
     1
290
     0
176
     1
290
     0
176
     1
 90
       50
176
     1
 40
0.0
176
     1
 40
1.0
176
     1
 90
        0
176
     1
 62
    18
420
        0
176
     1
 90
       50
176
     1
 90
        3
176
     1
 62
     5
420
      255
176
     1
290
     0
176
     1
 90
       50
176
     1
 90
       50
176
     1
 90
       50
176
     1
290
     0
176
     1
 90
       50
176
     1
 62
   256
176
     0
 40
1.0
176
     0
 90
        2
176
     1
  1
strokes_ogs.tif
176
     1
290
     0
176
     1
 40
1.0
176
     1
 40
1.0
176
     1
  0
VISUALSTYLE
  5
2B
102
{ACAD_REACTORS
330
2A
102
}
330
2A
100
AcDbVisualStyle
  2
Flat
 70
     0
177
     3
291
     1
 70
    58
 90
        2
176
     1
 90
        1
176
     1
 90
        1
176
     1
 90
        2
176
     1
 40
-0.6
176
     1
 40
30.0
176
     1
 62
     7
420
 16777215
176
     1
 90
        0
176
     1
 90
        4
176
     1
 62
     7
176
     1
 62
   257
176
     1
 90
        1
176
     1
 90
        1
176
     1
 40
1.0
176
     1
 90
        8
176
     1
 62
     7
176
     1
 40
1.0
176
     1
 90
        1
176
     1
 90
        6
176
     1
 90
        2
176
     1
 62
     7
176
     1
 90
        5
176
     1
 90
        0
176
     1
 90
        0
176
     1
290
     0
176
     1
 90
       13
176
     1
 40
0.0
176
     1
 90
        0
176
     1
290
     0
176
     1
290
     1
176
     1
290
     1
176
     1
290
     0
176
     1
290
     0
176
     1
290
     0
176
     1
290
     0
176
     1
290
     0
176
     1
290
     0
176
     1
 90
       50
176
     1
 40
0.0
176
     1
 40
1.0
176
     1
 90
        0
176
     1
 62
    18
420
        0
176
     1
 90
       50
176
     1
 90
        3
176
     1
 62
     5
420
      255
176
     1
290
     0
176
     1
 90
       50
176
     1
 90
       50
176
     1
 90
       50
176
     1
290
     0
176
     1
 90
       50
176
     1
 62
   256
176
     0
 40
1.0
176
     0
 90
        2
176
     1
  1
strokes_ogs.tif
176
     1
290
     0
176
     1
 40
1.0
176
     1
 40
1.0
176
     1
  0
VISUALSTYLE
  5
2C
102
{ACAD_REACTORS
330
2A
102
}
330
2A
100
AcDbVisualStyle
  2
FlatWithEdges
 70
     1
177
     3
291
     1
 70
    58
 90
        2
176
     1
 90
        1
176
     1
 90
        1
176
     1
 90
        2
176
     1
 40
-0.6
176
     1
 40
30.0
176
     1
 62
     7
420
 16777215
176
     1
 90
        1
176
     1
 90
        4
176
     1
 62
     7
176
     1
 62
   257
176
     1
 90
        1
176
     1
 90
        1
176
     1
 40
1.0
176
     1
 90
        0
176
     1
 62
   257
176
     1
 40
1.0
176
     1
 90
        1
176
     1
 90
        6
176
     1
 90
        2
176
     1
 62
     7
176
     1
 90
        5
176
     1
 90
        0
176
     1
 90
        0
176
     1
290
     0
176
     1
 90
       13
176
     1
 40
0.0
176
     1
 90
        0
176
     1
290
     0
176
     1
290
     1
176
     1
290
     1
176
     1
290
     0
176
     1
290
     0
176
     1
290
     0
176
     1
290
     0
176
     1
290
     0
176
     1
290
     0
176
     1
 90
       50
176
     1
 40
0.0
176
     1
 40
1.0
176
     1
 90
        0
176
     1
 62
    18
420
        0
176
     1
 90
       50
176
     1
 90
        3
176
     1
 62
     5
420
      255
176
     1
290
     0
176
     1
 90
       50
176
     1
 90
       50
176
     1
 90
       50
176
     1
290
     0
176
     1
 90
       50
176
     1
 62
   256
176
     0
 40
1.0
176
     0
 90
        2
176
     1
  1
strokes_ogs.tif
176
     1
290
     0
176
     1
 40
1.0
176
     1
 40
1.0
176
     1
  0
VISUALSTYLE
  5
2D
102
{ACAD_REACTORS
330
2A
102
}
330
2A
100
AcDbVisualStyle
  2
Gouraud
 70
     2
177
     3
291
     1
 70
    58
 90
        2
176
     1
 90
        2
176
     1
 90
        1
176
     1
 90
        2
176
     1
 40
-0.6
176
     1
 40
30.0
176
     1
 62
     7
420
 16777215
176
     1
 90
        0
176
     1
 90
        4
176
     1
 62
     7
176
     1
 62
   257
176
     1
 90
        1
176
     1
 90
        1
176
     1
 40
1.0
176
     1
 90
        0
176
     1
 62
     7
176
     1
 40
1.0
176
     1
 90
        1
176
     1
 90
        6
176
     1
 90
        2
176
     1
 62
     7
176
     1
 90
        5
176
     1
 90
        0
176
     1
 90
        0
176
     1
290
     0
176
     1
 90
       13
176
     1
 40
0.0
176
     1
 90
        0
176
     1
290
     0
176
     1
290
     1
176
     1
290
     1
176
     1
290
     0
176
     1
290
     0
176
     1
290
     0
176
     1
290
     0
176
     1
290
     0
176
     1
290
     0
176
     1
 90
       50
176
     1
 40
0.0
176
     1
 40
1.0
176
     1
 90
        0
176
     1
 62
    18
420
        0
176
     1
 90
       50
176
     1
 90
        3
176
     1
 62
     5
420
      255
176
     1
290
     0
176
     1
 90
       50
176
     1
 90
       50
176
     1
 90
       50
176
     1
290
     0
176
     1
 90
       50
176
     1
 62
   256
176
     0
 40
1.0
176
     0
 90
        2
176
     1
  1
strokes_ogs.tif
176
     1
290
     0
176
     1
 40
1.0
176
     1
 40
1.0
176
     1
  0
VISUALSTYLE
  5
2E
102
{ACAD_REACTORS
330
2A
102
}
330
2A
100
AcDbVisualStyle
  2
GouraudWithEdges
 70
     3
177
     3
291
     1
 70
    58
 90
        2
176
     1
 90
        2
176
     1
 90
        1
176
     1
 90
        2
176
     1
 40
-0.6
176
     1
 40
30.0
176
     1
 62
     7
420
 16777215
176
     1
 90
        1
176
     1
 90
        4
176
     1
 62
     7
176
     1
 62
   257
176
     1
 90
        1
176
     1
 90
        1
176
     1
 40
1.0
176
     1
 90
        0
176
     1
 62
   257
176
     1
 40
1.0
176
     1
 90
        1
176
     1
 90
        6
176
     1
 90
        2
176
     1
 62
     7
176
     1
 90
        5
176
     1
 90
        0
176
     1
 90
        0
176
     1
290
     0
176
     1
 90
       13
176
     1
 40
0.0
176
     1
 90
        0
176
     1
290
     0
176
     1
290
     1
176
     1
290
     1
176
     1
290
     0
176
     1
290
     0
176
     1
290
     0
176
     1
290
     0
176
     1
290
     0
176
     1
290
     0
176
     1
 90
       50
176
     1
 40
0.0
176
     1
 40
1.0
176
     1
 90
        0
176
     1
 62
    18
420
        0
176
     1
 90
       50
176
     1
 90
        3
176
     1
 62
     5
420
      255
176
     1
290
     0
176
     1
 90
       50
176
     1
 90
       50
176
     1
 90
       50
176
     1
290
     0
176
     1
 90
       50
176
     1
 62
   256
176
     0
 40
1.0
176
     0
 90
        2
176
     1
  1
strokes_ogs.tif
176
     1
290
     0
176
     1
 40
1.0
176
     1
 40
1.0
176
     1
  0
VISUALSTYLE
  5
77
102
{ACAD_REACTORS
330
2A
102
}
330
2A
100
AcDbVisualStyle
  2
Hidden
 70
     6
177
     3
291
     0
 70
    58
 90
        1
176
     1
 90
        2
176
     1
 90
        2
176
     1
 90
        0
176
     1
 40
0.6
176
     1
 40
30.0
176
     1
 62
     7
420
 16777215
176
     1
 90
        2
176
     1
 90
        2
176
     1
 62
     7
176
     1
 62
   257
176
     1
 90
        2
176
     1
 90
        1
176
     1
 40
40.0
176
     1
 90
        0
176
     1
 62
   257
176
     1
 40
1.0
176
     1
 90
        1
176
     1
 90
        6
176
     1
 90
        2
176
     1
 62
     7
176
     1
 90
        3
176
     1
 90
        0
176
     1
 90
        0
176
     1
290
     0
176
     1
 90
        1
176
     1
 40
0.0
176
     1
 90
        0
176
     1
290
     0
176
     1
290
     1
176
     1
290
     1
176
     1
290
     0
176
     1
290
     0
176
     1
290
     0
176
     1
290
     0
176
     1
290
     0
176
     1
290
     0
176
     1
 90
       50
176
     1
 40
0.0
176
     1
 40
1.0
176
     1
 90
        0
176
     1
 62
    18
420
        0
176
     1
 90
       50
176
     1
 90
        3
176
     1
 62
     5
420
      255
176
     1
290
     0
176
     1
 90
       50
176
     1
 90
       50
176
     1
 90
       50
176
     1
290
     0
176
     1
 90
       50
176
     1
 62
   256
176
     0
 40
1.0
176
     0
 90
        2
176
     1
  1
strokes_ogs.tif
176
     1
290
     0
176
     1
 40
1.0
176
     1
 40
1.0
176
     1
  0
VISUALSTYLE
  5
78
102
{ACAD_REACTORS
330
2A
102
}
330
2A
100
AcDbVisualStyle
  2
JitterOff
 70
    20
177
     3
291
     1
 70
    58
 90
        2
176
     0
 90
        2
176
     0
 90
        0
176
     0
 90
        0
176
     0
 40
0.6
176
     0
 40
30.0
176
     0
 62
     7
420
 16777215
176
     0
 90
        1
176
     0
 90
        4
176
     0
 62
     7
176
     0
 62
   257
176
     0
 90
        1
176
     0
 90
        1
176
     0
 40
1.0
176
     0
 90
       10
176
     2
 62
     7
176
     0
 40
1.0
176
     0
 90
        1
176
     0
 90
        6
176
     0
 90
        2
176
     0
 62
     7
176
     0
 90
        5
176
     0
 90
        0
176
     0
 90
        0
176
     0
290
     0
176
     0
 90
        1
176
     0
 40
0.0
176
     0
 90
        0
176
     0
290
     0
176
     0
290
     1
176
     0
290
     1
176
     0
290
     0
176
     0
290
     0
176
     0
290
     0
176
     0
290
     0
176
     0
290
     0
176
     0
290
     0
176
     0
 90
       50
176
     0
 40
0.0
176
     0
 40
1.0
176
     0
 90
        0
176
     0
 62
    18
420
        0
176
     0
 90
       50
176
     0
 90
        3
176
     0
 62
     5
420
      255
176
     0
290
     0
176
     0
 90
       50
176
     0
 90
       50
176
     0
 90
       50
176
     0
290
     0
176
     0
 90
       50
176
     0
 62
   256
176
     0
 40
1.0
176
     0
 90
        2
176
     0
  1
strokes_ogs.tif
176
     0
290
     0
176
     0
 40
1.0
176
     0
 40
1.0
176
     0
  0
VISUALSTYLE
  5
38
102
{ACAD_REACTORS
330
2A
102
}
330
2A
100
AcDbVisualStyle
  2
Linepattern
 70
    14
177
     3
291
     1
 70
    58
 90
        2
176
     1
 90
        2
176
     1
 90
        0
176
     1
 90
        0
176
     1
 40
-0.6
176
     1
 40
-30.0
176
     1
 62
     7
420
 16777215
176
     1
 90
        1
176
     1
 90
        4
176
     1
 62
     7
176
     1
 62
   257
176
     1
 90
        7
176
     1
 90
        7
176
     1
 40
1.0
176
     1
 90
        8
176
     1
 62
     7
176
     1
 40
1.0
176
     1
 90
        1
176
     1
 90
        6
176
     1
 90
        2
176
     1
 62
     7
176
     1
 90
        5
176
     1
 90
        0
176
     1
 90
        0
176
     1
290
     0
176
     1
 90
        1
176
     1
 40
0.0
176
     1
 90
        0
176
     1
290
     0
176
     1
290
     1
176
     1
290
     1
176
     1
290
     0
176
     1
290
     0
176
     1
290
     0
176
     1
290
     0
176
     1
290
     0
176
     1
290
     0
176
     1
 90
       50
176
     1
 40
0.0
176
     1
 40
1.0
176
     1
 90
        0
176
     1
 62
    18
420
        0
176
     1
 90
       50
176
     1
 90
        3
176
     1
 62
     5
420
      255
176
     1
290
     0
176
     1
 90
       50
176
     1
 90
       50
176
     1
 90
       50
176
     1
290
     0
176
     1
 90
       50
176
     1
 62
   256
176
     0
 40
1.0
176
     0
 90
        2
176
     1
  1
strokes_ogs.tif
176
     1
290
     0
176
     1
 40
1.0
176
     1
 40
1.0
176
     1
  0
VISUALSTYLE
  5
79
102
{ACAD_REACTORS
330
2A
102
}
330
2A
100
AcDbVisualStyle
  2
OverhangOff
 70
    21
177
     3
291
     1
 70
    58
 90
        2
176
     0
 90
        2
176
     0
 90
        0
176
     0
 90
        0
176
     0
 40
0.6
176
     0
 40
30.0
176
     0
 62
     7
420
 16777215
176
     0
 90
        1
176
     0
 90
        4
176
     0
 62
     7
176
     0
 62
   257
176
     0
 90
        1
176
     0
 90
        1
176
     0
 40
1.0
176
     0
 90
        9
176
     2
 62
     7
176
     0
 40
1.0
176
     0
 90
        1
176
     0
 90
        6
176
     0
 90
        2
176
     0
 62
     7
176
     0
 90
        5
176
     0
 90
        0
176
     0
 90
        0
176
     0
290
     0
176
     0
 90
        1
176
     0
 40
0.0
176
     0
 90
        0
176
     0
290
     0
176
     0
290
     1
176
     0
290
     1
176
     0
290
     0
176
     0
290
     0
176
     0
290
     0
176
     0
290
     0
176
     0
290
     0
176
     0
290
     0
176
     0
 90
       50
176
     0
 40
0.0
176
     0
 40
1.0
176
     0
 90
        0
176
     0
 62
    18
420
        0
176
     0
 90
       50
176
     0
 90
        3
176
     0
 62
     5
420
      255
176
     0
290
     0
176
     0
 90
       50
176
     0
 90
       50
176
     0
 90
       50
176
     0
290
     0
176
     0
 90
       50
176
     0
 62
   256
176
     0
 40
1.0
176
     0
 90
        2
176
     0
  1
strokes_ogs.tif
176
     0
290
     0
176
     0
 40
1.0
176
     0
 40
1.0
176
     0
  0
VISUALSTYLE
  5
33
102
{ACAD_REACTORS
330
2A
102
}
330
2A
100
AcDbVisualStyle
  2
Realistic
 70
     8
177
     3
291
     0
 70
    58
 90
        2
176
     1
 90
        2
176
     1
 90
        0
176
     1
 90
        0
176
     1
 40
-0.6
176
     1
 40
-30.0
176
     1
 62
     7
420
 16777215
176
     1
 90
        1
176
     1
 90
        0
176
     1
 62
     7
176
     1
 62
   257
176
     1
 90
        1
176
     1
 90
        1
176
     1
 40
1.0
176
     1
 90
        8
176
     1
 62
     8
420
  7895160
176
     1
 40
1.0
176
     1
 90
        1
176
     1
 90
        6
176
     1
 90
        2
176
     1
 62
     7
176
     1
 90
        5
176
     1
 90
        0
176
     1
 90
        0
176
     1
290
     0
176
     1
 90
       13
176
     1
 40
0.0
176
     1
 90
        0
176
     1
290
     0
176
     1
290
     1
176
     1
290
     1
176
     1
290
     0
176
     1
290
     0
176
     1
290
     0
176
     1
290
     0
176
     1
290
     0
176
     1
290
     0
176
     1
 90
       50
176
     1
 40
0.0
176
     1
 40
1.0
176
     1
 90
        0
176
     1
 62
    18
420
        0
176
     1
 90
       50
176
     1
 90
        3
176
     1
 62
     5
420
      255
176
     1
290
     0
176
     1
 90
       50
176
     1
 90
       50
176
     1
 90
       50
176
     1
290
     0
176
     1
 90
       50
176
     1
 62
   256
176
     0
 40
1.0
176
     0
 90
        2
176
     1
  1
strokes_ogs.tif
176
     1
290
     0
176
     1
 40
1.0
176
     1
 40
1.0
176
     1
  0
VISUALSTYLE
  5
7F
102
{ACAD_REACTORS
330
2A
102
}
330
2A
100
AcDbVisualStyle
  2
Shaded
 70
    27
177
     3
291
     0
 70
    58
 90
        2
176
     1
 90
        2
176
     1
 90
        1
176
     1
 90
        2
176
     1
 40
0.6
176
     1
 40
30.0
176
     1
 62
     7
420
 16777215
176
     1
 90
        0
176
     1
 90
        4
176
     1
 62
     7
176
     1
 62
   257
176
     1
 90
        1
176
     1
 90
        1
176
     1
 40
1.0
176
     1
 90
        8
176
     1
 62
   257
176
     1
 40
1.0
176
     1
 90
        1
176
     1
 90
        6
176
     1
 90
        2
176
     1
 62
     8
420
  7895160
176
     1
 90
        3
176
     1
 90
        0
176
     1
 90
        0
176
     1
290
     0
176
     1
 90
        5
176
     1
 40
0.0
176
     1
 90
        0
176
     1
290
     0
176
     1
290
     1
176
     1
290
     1
176
     1
290
     0
176
     1
290
     0
176
     1
290
     0
176
     1
290
     0
176
     1
290
     0
176
     1
290
     0
176
     1
 90
       50
176
     1
 40
0.0
176
     1
 40
1.0
176
     1
 90
        0
176
     1
 62
    18
420
        0
176
     1
 90
       50
176
     1
 90
        3
176
     1
 62
     5
420
      255
176
     1
290
     0
176
     1
 90
       50
176
     1
 90
       50
176
     1
 90
       50
176
     1
290
     0
176
     1
 90
       50
176
     1
 62
   256
176
     0
 40
1.0
176
     0
 90
        2
176
     1
  1
strokes_ogs.tif
176
     1
290
     0
176
     1
 40
1.0
176
     1
 40
1.0
176
     1
  0
VISUALSTYLE
  5
7E
102
{ACAD_REACTORS
330
2A
102
}
330
2A
100
AcDbVisualStyle
  2
Shaded with edges
 70
    26
177
     3
291
     0
 70
    58
 90
        2
176
     1
 90
        2
176
     1
 90
        1
176
     1
 90
        2
176
     1
 40
0.6
176
     1
 40
30.0
176
     1
 62
     7
420
 16777215
176
     1
 90
        1
176
     1
 90
       10
176
     1
 62
     7
176
     1
 62
   257
176
     1
 90
        2
176
     1
 90
        1
176
     1
 40
1.0
176
     1
 90
        8
176
     1
 62
   257
176
     1
 40
1.0
176
     1
 90
        1
176
     1
 90
        6
176
     1
 90
        2
176
     1
 62
     7
176
     1
 90
        3
176
     1
 90
        0
176
     1
 90
        0
176
     1
290
     0
176
     1
 90
        5
176
     1
 40
0.0
176
     1
 90
        0
176
     1
290
     0
176
     1
290
     1
176
     1
290
     1
176
     1
290
     0
176
     1
290
     0
176
     1
290
     0
176
     1
290
     0
176
     1
290
     0
176
     1
290
     0
176
     1
 90
       50
176
     1
 40
0.0
176
     1
 40
1.0
176
     1
 90
        0
176
     1
 62
    18
420
        0
176
     1
 90
       50
176
     1
 90
        3
176
     1
 62
     5
420
      255
176
     1
290
     0
176
     1
 90
       50
176
     1
 90
       50
176
     1
 90
       50
176
     1
290
     0
176
     1
 90
       50
176
     1
 62
   256
176
     0
 40
1.0
176
     0
 90
        2
176
     1
  1
strokes_ogs.tif
176
     1
290
     0
176
     1
 40
1.0
176
     1
 40
1.0
176
     1
  0
VISUALSTYLE
  5
7B
102
{ACAD_REACTORS
330
2A
102
}
330
2A
100
AcDbVisualStyle
  2
Shades of Gray
 70
    23
177
     3
291
     0
 70
    58
 90
        2
176
     1
 90
        2
176
     1
 90
        3
176
     1
 90
        0
176
     1
 40
0.6
176
     1
 40
30.0
176
     1
 62
     7
420
 16777215
176
     1
 90
        2
176
     1
 90
        2
176
     1
 62
     7
176
     1
 62
     7
176
     1
 90
        1
176
     1
 90
        1
176
     1
 40
40.0
176
     1
 90
        8
176
     1
 62
     7
176
     1
 40
1.0
176
     1
 90
        1
176
     1
 90
        6
176
     1
 90
        2
176
     1
 62
     7
176
     1
 90
        3
176
     1
 90
        0
176
     1
 90
        0
176
     1
290
     0
176
     1
 90
        1
176
     1
 40
0.0
176
     1
 90
        0
176
     1
290
     0
176
     1
290
     1
176
     1
290
     1
176
     1
290
     0
176
     1
290
     0
176
     1
290
     0
176
     1
290
     0
176
     1
290
     0
176
     1
290
     0
176
     1
 90
       50
176
     1
 40
0.0
176
     1
 40
1.0
176
     1
 90
        0
176
     1
 62
    18
420
        0
176
     1
 90
       50
176
     1
 90
        3
176
     1
 62
     5
420
      255
176
     1
290
     0
176
     1
 90
       50
176
     1
 90
       50
176
     1
 90
       50
176
     1
290
     0
176
     1
 90
       50
176
     1
 62
   256
176
     0
 40
1.0
176
     0
 90
        2
176
     1
  1
strokes_ogs.tif
176
     1
290
     0
176
     1
 40
1.0
176
     1
 40
1.0
176
     1
  0
VISUALSTYLE
  5
7C
102
{ACAD_REACTORS
330
2A
102
}
330
2A
100
AcDbVisualStyle
  2
Sketchy
 70
    24
177
     3
291
     0
 70
    58
 90
        1
176
     1
 90
        2
176
     1
 90
        2
176
     1
 90
        0
176
     1
 40
0.6
176
     1
 40
30.0
176
     1
 62
     7
420
 16777215
176
     1
 90
        2
176
     1
 90
        2
176
     1
 62
     7
176
     1
 62
     7
176
     1
 90
        1
176
     1
 90
        1
176
     1
 40
40.0
176
     1
 90
       11
176
     1
 62
     7
176
     1
 40
1.0
176
     1
 90
        1
176
     1
 90
        6
176
     1
 90
        2
176
     1
 62
     7
176
     1
 90
        6
176
     1
 90
        0
176
     1
 90
        0
176
     1
290
     0
176
     1
 90
        1
176
     1
 40
0.0
176
     1
 90
        0
176
     1
290
     0
176
     1
290
     1
176
     1
290
     1
176
     1
290
     0
176
     1
290
     0
176
     1
290
     0
176
     1
290
     0
176
     1
290
     0
176
     1
290
     0
176
     1
 90
       50
176
     1
 40
0.0
176
     1
 40
1.0
176
     1
 90
        0
176
     1
 62
    18
420
        0
176
     1
 90
       50
176
     1
 90
        3
176
     1
 62
     5
420
      255
176
     1
290
     0
176
     1
 90
       50
176
     1
 90
       50
176
     1
 90
       50
176
     1
290
     0
176
     1
 90
       50
176
     1
 62
   256
176
     0
 40
1.0
176
     0
 90
        2
176
     1
  1
strokes_ogs.tif
176
     1
290
     0
176
     1
 40
1.0
176
     1
 40
1.0
176
     1
  0
VISUALSTYLE
  5
37
102
{ACAD_REACTORS
330
2A
102
}
330
2A
100
AcDbVisualStyle
  2
Thicken
 70
    13
177
     3
291
     1
 70
    58
 90
        2
176
     1
 90
        2
176
     1
 90
        0
176
     1
 90
        0
176
     1
 40
-0.6
176
     1
 40
-30.0
176
     1
 62
     7
420
 16777215
176
     1
 90
        1
176
     1
 90
        4
176
     1
 62
     7
176
     1
 62
   257
176
     1
 90
        1
176
     1
 90
        1
176
     1
 40
1.0
176
     1
 90
       12
176
     1
 62
     7
176
     1
 40
1.0
176
     1
 90
        1
176
     1
 90
        6
176
     1
 90
        2
176
     1
 62
     7
176
     1
 90
        5
176
     1
 90
        0
176
     1
 90
        0
176
     1
290
     0
176
     1
 90
        1
176
     1
 40
0.0
176
     1
 90
        0
176
     1
290
     0
176
     1
290
     1
176
     1
290
     1
176
     1
290
     0
176
     1
290
     0
176
     1
290
     0
176
     1
290
     0
176
     1
290
     0
176
     1
290
     0
176
     1
 90
       50
176
     1
 40
0.0
176
     1
 40
1.0
176
     1
 90
        0
176
     1
 62
    18
420
        0
176
     1
 90
       50
176
     1
 90
        3
176
     1
 62
     5
420
      255
176
     1
290
     0
176
     1
 90
       50
176
     1
 90
       50
176
     1
 90
       50
176
     1
290
     0
176
     1
 90
       50
176
     1
 62
   256
176
     0
 40
1.0
176
     0
 90
        2
176
     1
  1
strokes_ogs.tif
176
     1
290
     0
176
     1
 40
1.0
176
     1
 40
1.0
176
     1
  0
VISUALSTYLE
  5
76
102
{ACAD_REACTORS
330
2A
102
}
330
2A
100
AcDbVisualStyle
  2
Wireframe
 70
     5
177
     3
291
     0
 70
    58
 90
        0
176
     1
 90
        2
176
     1
 90
        0
176
     1
 90
        0
176
     1
 40
0.6
176
     1
 40
30.0
176
     1
 62
     7
420
 16777215
176
     1
 90
        1
176
     1
 90
        4
176
     1
 62
     7
176
     1
 62
   257
176
     1
 90
        1
176
     1
 90
        1
176
     1
 40
1.0
176
     1
 90
        0
176
     1
 62
   257
176
     1
 40
1.0
176
     1
 90
        1
176
     1
 90
        6
176
     1
 90
        2
176
     1
 62
     7
176
     1
 90
        3
176
     1
 90
        0
176
     1
 90
        0
176
     1
290
     0
176
     1
 90
        1
176
     1
 40
0.0
176
     1
 90
        0
176
     1
290
     0
176
     1
290
     1
176
     1
290
     1
176
     1
290
     0
176
     1
290
     0
176
     1
290
     0
176
     1
290
     0
176
     1
290
     0
176
     1
290
     0
176
     1
 90
       50
176
     1
 40
0.0
176
     1
 40
1.0
176
     1
 90
        0
176
     1
 62
    18
420
        0
176
     1
 90
       50
176
     1
 90
        3
176
     1
 62
     5
420
      255
176
     1
290
     0
176
     1
 90
       50
176
     1
 90
       50
176
     1
 90
       50
176
     1
290
     0
176
     1
 90
       50
176
     1
 62
   256
176
     0
 40
1.0
176
     0
 90
        2
176
     1
  1
strokes_ogs.tif
176
     1
290
     0
176
     1
 40
1.0
176
     1
 40
1.0
176
     1
  0
VISUALSTYLE
  5
7D
102
{ACAD_REACTORS
330
2A
102
}
330
2A
100
AcDbVisualStyle
  2
X-Ray
 70
    25
177
     3
291
     0
 70
    58
 90
        2
176
     1
 90
        2
176
     1
 90
        1
176
     1
 90
        1
176
     1
 40
0.5
176
     1
 40
30.0
176
     1
 62
     7
420
 16777215
176
     1
 90
        1
176
     1
 90
        0
176
     1
 62
     7
176
     1
 62
   257
176
     1
 90
        1
176
     1
 90
        1
176
     1
 40
1.0
176
     1
 90
        8
176
     1
 62
     7
176
     1
 40
1.0
176
     1
 90
        1
176
     1
 90
        6
176
     1
 90
        2
176
     1
 62
     7
176
     1
 90
        3
176
     1
 90
        0
176
     1
 90
        0
176
     1
290
     0
176
     1
 90
       13
176
     1
 40
0.0
176
     1
 90
        0
176
     1
290
     0
176
     1
290
     1
176
     1
290
     1
176
     1
290
     0
176
     1
290
     0
176
     1
290
     0
176
     1
290
     0
176
     1
290
     0
176
     1
290
     0
176
     1
 90
       50
176
     1
 40
0.0
176
     1
 40
1.0
176
     1
 90
        0
176
     1
 62
    18
420
        0
176
     1
 90
       50
176
     1
 90
        3
176
     1
 62
     5
420
      255
176
     1
290
     0
176
     1
 90
       50
176
     1
 90
       50
176
     1
 90
       50
176
     1
290
     0
176
     1
 90
       50
176
     1
 62
   256
176
     0
 40
1.0
176
     0
 90
        2
176
     1
  1
strokes_ogs.tif
176
     1
290
     0
176
     1
 40
1.0
176
     1
 40
1.0
176
     1
  0
DICTIONARYVAR
  5
62
102
{ACAD_REACTORS
330
3D
102
}
330
3D
100
DictionaryVariables
280
     0
  1
1:1
  0
DICTIONARYVAR
  5
105
102
{ACAD_REACTORS
330
3D
102
}
330
3D
100
DictionaryVariables
280
     0
  1
Standard
  0
DICTIONARYVAR
  5
3E
102
{ACAD_REACTORS
330
3D
102
}
330
3D
100
DictionaryVariables
280
     0
  1
Standard
  0
DICTIONARYVAR
  5
6F
102
{ACAD_REACTORS
330
3D
102
}
330
3D
100
DictionaryVariables
280
     0
  1
0
  0
DICTIONARYVAR
  5
70
102
{ACAD_REACTORS
330
3D
102
}
330
3D
100
DictionaryVariables
280
     0
  1
0
  0
DICTIONARY
  5
108B
330
3C
100
AcDbDictionary
280
     1
281
     1
  3
ACAD_ROUNDTRIP_2008_TABLESTYLE_CELLSTYLEMAP
360
108C
  0
CELLSTYLEMAP
  5
108C
102
{ACAD_REACTORS
330
108B
102
}
330
108B
100
AcDbCellStyleMap
 90
        3
300
CELLSTYLE
  1
TABLEFORMAT_BEGIN
 90
        5
170
     1
 91
        0
 92
    32768
 62
   257
 93
        1
300
CONTENTFORMAT
  1
CONTENTFORMAT_BEGIN
 90
        0
 91
        0
 92
      512
 93
        0
300

 40
0.0
140
1.0
 94
        5
 62
     0
340
11
144
6.0
309
CONTENTFORMAT_END
171
     1
301
MARGIN
  1
CELLMARGIN_BEGIN
 40
1.5
 40
1.5
 40
1.5
 40
1.5
 40
0.18
 40
0.18
309
CELLMARGIN_END
 94
        6
 95
        1
302
GRIDFORMAT
  1
GRIDFORMAT_BEGIN
 90
        0
 91
        1
 62
     0
 92
       -2
340
0
 93
        0
 40
0.045
309
GRIDFORMAT_END
 95
        2
302
GRIDFORMAT
  1
GRIDFORMAT_BEGIN
 90
        0
 91
        1
 62
     0
 92
       -2
340
0
 93
        0
 40
0.045
309
GRIDFORMAT_END
 95
        4
302
GRIDFORMAT
  1
GRIDFORMAT_BEGIN
 90
        0
 91
        1
 62
     0
 92
       -2
340
0
 93
        0
 40
0.045
309
GRIDFORMAT_END
 95
        8
302
GRIDFORMAT
  1
GRIDFORMAT_BEGIN
 90
        0
 91
        1
 62
     0
 92
       -2
340
0
 93
        0
 40
0.045
309
GRIDFORMAT_END
 95
       16
302
GRIDFORMAT
  1
GRIDFORMAT_BEGIN
 90
        0
 91
        1
 62
     0
 92
       -2
340
0
 93
        0
 40
0.045
309
GRIDFORMAT_END
 95
       32
302
GRIDFORMAT
  1
GRIDFORMAT_BEGIN
 90
        0
 91
        1
 62
     0
 92
       -2
340
0
 93
        0
 40
0.045
309
GRIDFORMAT_END
309
TABLEFORMAT_END
  1
CELLSTYLE_BEGIN
 90
        1
 91
        1
300
_TITLE
309
CELLSTYLE_END
300
CELLSTYLE
  1
TABLEFORMAT_BEGIN
 90
        5
170
     1
 91
        0
 92
        0
 62
   257
 93
        1
300
CONTENTFORMAT
  1
CONTENTFORMAT_BEGIN
 90
        0
 91
        0
 92
      512
 93
        0
300

 40
0.0
140
1.0
 94
        5
 62
     0
340
11
144
4.5
309
CONTENTFORMAT_END
171
     1
301
MARGIN
  1
CELLMARGIN_BEGIN
 40
1.5
 40
1.5
 40
1.5
 40
1.5
 40
0.18
 40
0.18
309
CELLMARGIN_END
 94
        6
 95
        1
302
GRIDFORMAT
  1
GRIDFORMAT_BEGIN
 90
        0
 91
        1
 62
     0
 92
       -2
340
0
 93
        0
 40
0.045
309
GRIDFORMAT_END
 95
        2
302
GRIDFORMAT
  1
GRIDFORMAT_BEGIN
 90
        0
 91
        1
 62
     0
 92
       -2
340
0
 93
        0
 40
0.045
309
GRIDFORMAT_END
 95
        4
302
GRIDFORMAT
  1
GRIDFORMAT_BEGIN
 90
        0
 91
        1
 62
     0
 92
       -2
340
0
 93
        0
 40
0.045
309
GRIDFORMAT_END
 95
        8
302
GRIDFORMAT
  1
GRIDFORMAT_BEGIN
 90
        0
 91
        1
 62
     0
 92
       -2
340
0
 93
        0
 40
0.045
309
GRIDFORMAT_END
 95
       16
302
GRIDFORMAT
  1
GRIDFORMAT_BEGIN
 90
        0
 91
        1
 62
     0
 92
       -2
340
0
 93
        0
 40
0.045
309
GRIDFORMAT_END
 95
       32
302
GRIDFORMAT
  1
GRIDFORMAT_BEGIN
 90
        0
 91
        1
 62
     0
 92
       -2
340
0
 93
        0
 40
0.045
309
GRIDFORMAT_END
309
TABLEFORMAT_END
  1
CELLSTYLE_BEGIN
 90
        2
 91
        1
300
_HEADER
309
CELLSTYLE_END
300
CELLSTYLE
  1
TABLEFORMAT_BEGIN
 90
        5
170
     1
 91
        0
 92
        0
 62
   257
 93
        1
300
CONTENTFORMAT
  1
CONTENTFORMAT_BEGIN
 90
        0
 91
        0
 92
      512
 93
        0
300

 40
0.0
140
1.0
 94
        2
 62
     0
340
11
144
4.5
309
CONTENTFORMAT_END
171
     1
301
MARGIN
  1
CELLMARGIN_BEGIN
 40
1.5
 40
1.5
 40
1.5
 40
1.5
 40
0.18
 40
0.18
309
CELLMARGIN_END
 94
        6
 95
        1
302
GRIDFORMAT
  1
GRIDFORMAT_BEGIN
 90
        0
 91
        1
 62
     0
 92
       -2
340
0
 93
        0
 40
0.045
309
GRIDFORMAT_END
 95
        2
302
GRIDFORMAT
  1
GRIDFORMAT_BEGIN
 90
        0
 91
        1
 62
     0
 92
       -2
340
0
 93
        0
 40
0.045
309
GRIDFORMAT_END
 95
        4
302
GRIDFORMAT
  1
GRIDFORMAT_BEGIN
 90
        0
 91
        1
 62
     0
 92
       -2
340
0
 93
        0
 40
0.045
309
GRIDFORMAT_END
 95
        8
302
GRIDFORMAT
  1
GRIDFORMAT_BEGIN
 90
        0
 91
        1
 62
     0
 92
       -2
340
0
 93
        0
 40
0.045
309
GRIDFORMAT_END
 95
       16
302
GRIDFORMAT
  1
GRIDFORMAT_BEGIN
 90
        0
 91
        1
 62
     0
 92
       -2
340
0
 93
        0
 40
0.045
309
GRIDFORMAT_END
 95
       32
302
GRIDFORMAT
  1
GRIDFORMAT_BEGIN
 90
        0
 91
        1
 62
     0
 92
       -2
340
0
 93
        0
 40
0.045
309
GRIDFORMAT_END
309
TABLEFORMAT_END
  1
CELLSTYLE_BEGIN
 90
        3
 91
        2
300
_DATA
309
CELLSTYLE_END
  0
ENDSEC
  0
EOF
