  0
SECTION
  2
HEADER
  9
$ACADVER
  1
AC1009
  9
$EXTMAX
 10
420.0
 20
280.0
 30
0.0
  9
$EXTMIN
 10
0.0
 20
0.0
 30
0.0
  9
$INSUNITS
 70
     4
  9
$LUNITS
 70
     2
  9
$LUPREC
 70
     4
  9
$MEASUREMENT
 70
     1
  0
ENDSEC
  0
SECTION
  2
TABLES
  0
TABLE
  2
LAYER
 70
     1
  0
LAYER
  2
0
 70
     0
 62
     7
  6
Continuous
  0
LAYER
  2
FRAME
 70
     0
 62
     7
  6
Continuous
  0
LAYER
  2
CORTES_INTERIORES
 70
     0
 62
     1
  6
Continuous
  0
ENDTAB
  0
TABLE
  2
APPID
 70
     1
  0
APPID
  2
ACAD
 70
     0
  0
ENDTAB
  0
ENDSEC
  0
SECTION
  2
ENTITIES
  0
LINE
  8
FRAME
 10
291.587859381188
 20
202.51815409913
 30
0.0
 11
331.587859381188
 21
202.51815409913
 31
0.0
  0
POLYLINE
  8
FRAME
 66
     1
 10
0.0
 20
0.0
 30
0.0
 70
     0
  0
VERTEX
  8
FRAME
 10
268.287859382411
 20
212.518154098062
 42
0.0
  0
VERTEX
  8
FRAME
 10
268.290405835892
 20
212.748881293802
 42
0.0
  0
VERTEX
  8
FRAME
 10
268.29797710398
 20
212.97237010148
 42
0.0
  0
VERTEX
  8
FRAME
 10
268.310471048153
 20
213.188706351785
 42
0.0
  0
VERTEX
  8
FRAME
 10
268.327785529893
 20
213.397975875405
 42
0.0
  0
VERTEX
  8
FRAME
 10
268.349818410681
 20
213.60026450303
 42
0.0
  0
VERTEX
  8
FRAME
 10
268.376467551998
 20
213.795658065346
 42
0.0
  0
VERTEX
  8
FRAME
 10
268.407630815323
 20
213.984242393043
 42
0.0
  0
VERTEX
  8
FRAME
 10
268.443206062138
 20
214.16610331681
 42
0.0
  0
VERTEX
  8
FRAME
 10
268.483091153923
 20
214.341326667334
 42
0.0
  0
VERTEX
  8
FRAME
 10
268.527183952159
 20
214.509998275305
 42
0.0
  0
VERTEX
  8
FRAME
 10
268.575382318328
 20
214.67220397141
 42
0.0
  0
VERTEX
  8
FRAME
 10
268.600989171099
 20
214.750908924603
 42
0.0
  0
VERTEX
  8
FRAME
 10
268.627584113909
 20
214.828029586339
 42
0.0
  0
VERTEX
  8
FRAME
 10
268.65515437944
 20
214.903576685452
 42
0.0
  0
VERTEX
  8
FRAME
 10
268.683687200383
 20
214.977560950779
 42
0.0
  0
VERTEX
  8
FRAME
 10
268.713169809418
 20
215.049993111156
 42
0.0
  0
VERTEX
  8
FRAME
 10
268.743589439231
 20
215.120883895419
 42
0.0
  0
VERTEX
  8
FRAME
 10
268.774933322508
 20
215.190244032405
 42
0.0
  0
VERTEX
  8
FRAME
 10
268.807188691934
 20
215.258084250948
 42
0.0
  0
VERTEX
  8
FRAME
 10
268.840342780194
 20
215.324415279886
 42
0.0
  0
VERTEX
  8
FRAME
 10
268.874382819972
 20
215.389247848055
 42
0.0
  0
VERTEX
  8
FRAME
 10
268.909296043955
 20
215.452592684289
 42
0.0
  0
VERTEX
  8
FRAME
 10
268.945069684827
 20
215.514460517426
 42
0.0
  0
VERTEX
  8
FRAME
 10
268.981690975273
 20
215.574862076302
 42
0.0
  0
VERTEX
  8
FRAME
 10
269.019147147978
 20
215.633808089752
 42
0.0
  0
VERTEX
  8
FRAME
 10
269.057425435628
 20
215.691309286613
 42
0.0
  0
VERTEX
  8
FRAME
 10
269.096513070907
 20
215.747376395721
 42
0.0
  0
VERTEX
  8
FRAME
 10
269.136397286501
 20
215.802020145911
 42
0.0
  0
VERTEX
  8
FRAME
 10
269.177065315095
 20
215.85525126602
 42
0.0
  0
VERTEX
  8
FRAME
 10
269.218504389373
 20
215.907080484885
 42
0.0
  0
VERTEX
  8
FRAME
 10
269.260701742021
 20
215.95751853134
 42
0.0
  0
VERTEX
  8
FRAME
 10
269.303644605723
 20
216.006576134222
 42
0.0
  0
VERTEX
  8
FRAME
 10
269.347320213167
 20
216.054264022367
 42
0.0
  0
VERTEX
  8
FRAME
 10
269.391715797035
 20
216.100592924611
 42
0.0
  0
VERTEX
  8
FRAME
 10
269.436818590014
 20
216.14557356979
 42
0.0
  0
VERTEX
  8
FRAME
 10
269.482615824787
 20
216.189216686741
 42
0.0
  0
VERTEX
  8
FRAME
 10
269.529094734042
 20
216.231533004299
 42
0.0
  0
VERTEX
  8
FRAME
 10
269.576242550461
 20
216.2725332513
 42
0.0
  0
VERTEX
  8
FRAME
 10
269.624046506731
 20
216.312228156581
 42
0.0
  0
VERTEX
  8
FRAME
 10
269.672493835537
 20
216.350628448977
 42
0.0
  0
VERTEX
  8
FRAME
 10
269.721571769563
 20
216.387744857325
 42
0.0
  0
VERTEX
  8
FRAME
 10
269.771267541496
 20
216.423588110461
 42
0.0
  0
VERTEX
  8
FRAME
 10
269.821568384019
 20
216.45816893722
 42
0.0
  0
VERTEX
  8
FRAME
 10
269.872461529818
 20
216.491498066439
 42
0.0
  0
VERTEX
  8
FRAME
 10
269.923934211578
 20
216.523586226953
 42
0.0
  0
VERTEX
  8
FRAME
 10
269.975973661985
 20
216.5544441476
 42
0.0
  0
VERTEX
  8
FRAME
 10
270.028567113723
 20
216.584082557214
 42
0.0
  0
VERTEX
  8
FRAME
 10
270.081701799477
 20
216.612512184632
 42
0.0
  0
VERTEX
  8
FRAME
 10
270.135364951932
 20
216.639743758691
 42
0.0
  0
VERTEX
  8
FRAME
 10
270.189543803775
 20
216.665788008225
 42
0.0
  0
VERTEX
  8
FRAME
 10
270.244225587688
 20
216.690655662072
 42
0.0
  0
VERTEX
  8
FRAME
 10
270.299397536359
 20
216.714357449067
 42
0.0
  0
VERTEX
  8
FRAME
 10
270.355046882471
 20
216.736904098046
 42
0.0
  0
VERTEX
  8
FRAME
 10
270.41116085871
 20
216.758306337845
 42
0.0
  0
VERTEX
  8
FRAME
 10
270.467726697762
 20
216.778574897301
 42
0.0
  0
VERTEX
  8
FRAME
 10
270.52473163231
 20
216.79772050525
 42
0.0
  0
VERTEX
  8
FRAME
 10
270.58216289504
 20
216.815753890526
 42
0.0
  0
VERTEX
  8
FRAME
 10
270.640007718637
 20
216.832685781968
 42
0.0
  0
VERTEX
  8
FRAME
 10
270.698253335788
 20
216.84852690841
 42
0.0
  0
VERTEX
  8
FRAME
 10
270.756886979176
 20
216.863287998689
 42
0.0
  0
VERTEX
  8
FRAME
 10
270.815895881486
 20
216.87697978164
 42
0.0
  0
VERTEX
  8
FRAME
 10
270.875267275403
 20
216.889612986101
 42
0.0
  0
VERTEX
  8
FRAME
 10
270.934988393614
 20
216.901198340906
 42
0.0
  0
VERTEX
  8
FRAME
 10
270.995046468801
 20
216.911746574892
 42
0.0
  0
VERTEX
  8
FRAME
 10
271.055428733652
 20
216.921268416895
 42
0.0
  0
VERTEX
  8
FRAME
 10
271.177114763084
 20
216.937275840296
 42
0.0
  0
VERTEX
  8
FRAME
 10
271.299944343387
 20
216.949306441798
 42
0.0
  0
VERTEX
  8
FRAME
 10
271.423815336045
 20
216.95744605209
 42
0.0
  0
VERTEX
  8
FRAME
 10
271.548625602536
 20
216.961780501859
 42
0.0
  0
VERTEX
  8
FRAME
 10
271.674273004341
 20
216.962395621794
 42
0.0
  0
VERTEX
  8
FRAME
 10
271.800655402943
 20
216.959377242584
 42
0.0
  0
VERTEX
  8
FRAME
 10
271.92767065982
 20
216.952811194917
 42
0.0
  0
VERTEX
  8
FRAME
 10
272.055216636455
 20
216.942783309481
 42
0.0
  0
VERTEX
  8
FRAME
 10
272.183191194327
 20
216.929379416966
 42
0.0
  0
VERTEX
  8
FRAME
 10
272.311492194917
 20
216.912685348059
 42
0.0
  0
VERTEX
  8
FRAME
 10
272.440017499706
 20
216.892786933449
 42
0.0
  0
VERTEX
  8
FRAME
 10
272.568664970175
 20
216.869770003825
 42
0.0
  0
VERTEX
  8
FRAME
 10
272.697332467805
 20
216.843720389875
 42
0.0
  0
VERTEX
  8
FRAME
 10
272.825917854076
 20
216.814723922287
 42
0.0
  0
VERTEX
  8
FRAME
 10
272.954318990468
 20
216.782866431751
 42
0.0
  0
VERTEX
  8
FRAME
 10
273.082433738464
 20
216.748233748953
 42
0.0
  0
VERTEX
  8
FRAME
 10
273.210159959542
 20
216.710911704584
 42
0.0
  0
VERTEX
  8
FRAME
 10
273.337395515185
 20
216.670986129331
 42
0.0
  0
VERTEX
  8
FRAME
 10
273.464038266873
 20
216.628542853883
 42
0.0
  0
VERTEX
  8
FRAME
 10
273.589986076085
 20
216.583667708929
 42
0.0
  0
VERTEX
  8
FRAME
 10
273.715136804305
 20
216.536446525156
 42
0.0
  0
VERTEX
  8
FRAME
 10
273.839388313011
 20
216.486965133253
 42
0.0
  0
VERTEX
  8
FRAME
 10
273.962638463685
 20
216.43530936391
 42
0.0
  0
VERTEX
  8
FRAME
 10
274.084785117807
 20
216.381565047814
 42
0.0
  0
VERTEX
  8
FRAME
 10
274.325359382319
 20
216.268154098117
 42
0.0
  0
VERTEX
  8
FRAME
 10
274.560580724383
 20
216.147220751833
 42
0.0
  0
VERTEX
  8
FRAME
 10
274.7910656658
 20
216.018460765278
 42
0.0
  0
VERTEX
  8
FRAME
 10
275.017717454357
 20
215.881371716931
 42
0.0
  0
VERTEX
  8
FRAME
 10
275.241439337846
 20
215.735451185269
 42
0.0
  0
VERTEX
  8
FRAME
 10
275.463134564057
 20
215.580196748771
 42
0.0
  0
VERTEX
  8
FRAME
 10
275.683706380778
 20
215.415105985914
 42
0.0
  0
VERTEX
  8
FRAME
 10
275.904058035799
 20
215.239676475178
 42
0.0
  0
VERTEX
  8
FRAME
 10
276.125092776911
 20
215.053405795039
 42
0.0
  0
VERTEX
  8
FRAME
 10
276.347713851903
 20
214.855791523977
 42
0.0
  0
VERTEX
  8
FRAME
 10
276.572824508565
 20
214.646331240469
 42
0.0
  0
VERTEX
  8
FRAME
 10
276.801327994686
 20
214.424522522994
 42
0.0
  0
VERTEX
  8
FRAME
 10
277.034127558057
 20
214.189862950029
 42
0.0
  0
VERTEX
  8
FRAME
 10
277.516227907706
 20
213.679981551544
 42
0.0
  0
VERTEX
  8
FRAME
 10
278.02635153983
 20
213.112667672839
 42
0.0
  0
VERTEX
  8
FRAME
 10
283.983296644092
 20
206.024262694311
 42
0.0
  0
SEQEND
  0
POLYLINE
  8
FRAME
 66
     1
 10
0.0
 20
0.0
 30
0.0
 70
     0
  0
VERTEX
  8
FRAME
 10
354.887859352355
 20
212.518154088058
 42
0.0
  0
VERTEX
  8
FRAME
 10
354.88531289887
 20
212.748881257995
 42
0.0
  0
VERTEX
  8
FRAME
 10
354.87774163078
 20
212.97236988505
 42
0.0
  0
VERTEX
  8
FRAME
 10
354.865247686604
 20
213.188705645092
 42
0.0
  0
VERTEX
  8
FRAME
 10
354.847933204862
 20
213.39797421399
 42
0.0
  0
VERTEX
  8
FRAME
 10
354.825900324072
 20
213.600261267613
 42
0.0
  0
VERTEX
  8
FRAME
 10
354.799251182755
 20
213.795652481829
 42
0.0
  0
VERTEX
  8
FRAME
 10
354.76808791943
 20
213.984233532507
 42
0.0
  0
VERTEX
  8
FRAME
 10
354.732512672615
 20
214.166090095515
 42
0.0
  0
VERTEX
  8
FRAME
 10
354.692627580831
 20
214.341307846722
 42
0.0
  0
VERTEX
  8
FRAME
 10
354.648534782596
 20
214.509972461997
 42
0.0
  0
VERTEX
  8
FRAME
 10
354.60033641643
 20
214.672169617209
 42
0.0
  0
VERTEX
  8
FRAME
 10
354.574729563661
 20
214.750869671
 42
0.0
  0
VERTEX
  8
FRAME
 10
354.548134620853
 20
214.827984988225
 42
0.0
  0
VERTEX
  8
FRAME
 10
354.520564355322
 20
214.903526278369
 42
0.0
  0
VERTEX
  8
FRAME
 10
354.492031534384
 20
214.977504250915
 42
0.0
  0
VERTEX
  8
FRAME
 10
354.462548925352
 20
215.049929615347
 42
0.0
  0
VERTEX
  8
FRAME
 10
354.432129295541
 20
215.120813081147
 42
0.0
  0
VERTEX
  8
FRAME
 10
354.400785412268
 20
215.190165357801
 42
0.0
  0
VERTEX
  8
FRAME
 10
354.368530042846
 20
215.257997154791
 42
0.0
  0
VERTEX
  8
FRAME
 10
354.33537595459
 20
215.3243191816
 42
0.0
  0
VERTEX
  8
FRAME
 10
354.301335914816
 20
215.389142147713
 42
0.0
  0
VERTEX
  8
FRAME
 10
354.266422690838
 20
215.452476762613
 42
0.0
  0
VERTEX
  8
FRAME
 10
354.230649049971
 20
215.514333735784
 42
0.0
  0
VERTEX
  8
FRAME
 10
354.19402775953
 20
215.574723776709
 42
0.0
  0
VERTEX
  8
FRAME
 10
354.156571586831
 20
215.633657594872
 42
0.0
  0
VERTEX
  8
FRAME
 10
354.118293299187
 20
215.691145899756
 42
0.0
  0
VERTEX
  8
FRAME
 10
354.079205663914
 20
215.747199400845
 42
0.0
  0
VERTEX
  8
FRAME
 10
354.039321448327
 20
215.801828807623
 42
0.0
  0
VERTEX
  8
FRAME
 10
353.99865341974
 20
215.855044829572
 42
0.0
  0
VERTEX
  8
FRAME
 10
353.957214345471
 20
215.906858176178
 42
0.0
  0
VERTEX
  8
FRAME
 10
353.915016992831
 20
215.957279556922
 42
0.0
  0
VERTEX
  8
FRAME
 10
353.872074129137
 20
216.00631968129
 42
0.0
  0
VERTEX
  8
FRAME
 10
353.828398521703
 20
216.053989258763
 42
0.0
  0
VERTEX
  8
FRAME
 10
353.784002937844
 20
216.100298998827
 42
0.0
  0
VERTEX
  8
FRAME
 10
353.738900144876
 20
216.145259610965
 42
0.0
  0
VERTEX
  8
FRAME
 10
353.693102910113
 20
216.188881804659
 42
0.0
  0
VERTEX
  8
FRAME
 10
353.64662400087
 20
216.231176289395
 42
0.0
  0
VERTEX
  8
FRAME
 10
353.599476184462
 20
216.272153774654
 42
0.0
  0
VERTEX
  8
FRAME
 10
353.551672228204
 20
216.311824969922
 42
0.0
  0
VERTEX
  8
FRAME
 10
353.503224899411
 20
216.350200584681
 42
0.0
  0
VERTEX
  8
FRAME
 10
353.454146965397
 20
216.387291328415
 42
0.0
  0
VERTEX
  8
FRAME
 10
353.404451193479
 20
216.423107910607
 42
0.0
  0
VERTEX
  8
FRAME
 10
353.354150350969
 20
216.457661040742
 42
0.0
  0
VERTEX
  8
FRAME
 10
353.303257205185
 20
216.490961428303
 42
0.0
  0
VERTEX
  8
FRAME
 10
353.25178452344
 20
216.523019782773
 42
0.0
  0
VERTEX
  8
FRAME
 10
353.199745073049
 20
216.553846813636
 42
0.0
  0
VERTEX
  8
FRAME
 10
353.147151621328
 20
216.583453230376
 42
0.0
  0
VERTEX
  8
FRAME
 10
353.094016935591
 20
216.611849742475
 42
0.0
  0
VERTEX
  8
FRAME
 10
353.040353783153
 20
216.639047059419
 42
0.0
  0
VERTEX
  8
FRAME
 10
352.986174931329
 20
216.665055890689
 42
0.0
  0
VERTEX
  8
FRAME
 10
352.931493147434
 20
216.689886945771
 42
0.0
  0
VERTEX
  8
FRAME
 10
352.876321198783
 20
216.713550934146
 42
0.0
  0
VERTEX
  8
FRAME
 10
352.820671852691
 20
216.7360585653
 42
0.0
  0
VERTEX
  8
FRAME
 10
352.764557876473
 20
216.757420548716
 42
0.0
  0
VERTEX
  8
FRAME
 10
352.707992037443
 20
216.777647593876
 42
0.0
  0
VERTEX
  8
FRAME
 10
352.650987102917
 20
216.796750410266
 42
0.0
  0
VERTEX
  8
FRAME
 10
352.593555840209
 20
216.814739707367
 42
0.0
  0
VERTEX
  8
FRAME
 10
352.535711016635
 20
216.831626194665
 42
0.0
  0
VERTEX
  8
FRAME
 10
352.477465399509
 20
216.847420581642
 42
0.0
  0
VERTEX
  8
FRAME
 10
352.418831756147
 20
216.862133577782
 42
0.0
  0
VERTEX
  8
FRAME
 10
352.359822853862
 20
216.875775892569
 42
0.0
  0
VERTEX
  8
FRAME
 10
352.300451459971
 20
216.888358235486
 42
0.0
  0
VERTEX
  8
FRAME
 10
352.240730341788
 20
216.899891316017
 42
0.0
  0
VERTEX
  8
FRAME
 10
352.180672266627
 20
216.910385843645
 42
0.0
  0
VERTEX
  8
FRAME
 10
352.120290001805
 20
216.919852527854
 42
0.0
  0
VERTEX
  8
FRAME
 10
351.998603972433
 20
216.935745203949
 42
0.0
  0
VERTEX
  8
FRAME
 10
351.875774392192
 20
216.947655020172
 42
0.0
  0
VERTEX
  8
FRAME
 10
351.751903399601
 20
216.955667652389
 42
0.0
  0
VERTEX
  8
FRAME
 10
351.627093133179
 20
216.959868776471
 42
0.0
  0
VERTEX
  8
FRAME
 10
351.501445731446
 20
216.960344068285
 42
0.0
  0
VERTEX
  8
FRAME
 10
351.375063332921
 20
216.957179203701
 42
0.0
  0
VERTEX
  8
FRAME
 10
351.248048076123
 20
216.950459858587
 42
0.0
  0
VERTEX
  8
FRAME
 10
351.120502099572
 20
216.940271708811
 42
0.0
  0
VERTEX
  8
FRAME
 10
350.992527541787
 20
216.926700430243
 42
0.0
  0
VERTEX
  8
FRAME
 10
350.864226541287
 20
216.90983169875
 42
0.0
  0
VERTEX
  8
FRAME
 10
350.735701236592
 20
216.889751190202
 42
0.0
  0
VERTEX
  8
FRAME
 10
350.607053766222
 20
216.866544580467
 42
0.0
  0
VERTEX
  8
FRAME
 10
350.478386268695
 20
216.840297545414
 42
0.0
  0
VERTEX
  8
FRAME
 10
350.34980088253
 20
216.811095760911
 42
0.0
  0
VERTEX
  8
FRAME
 10
350.221399746248
 20
216.779024902828
 42
0.0
  0
VERTEX
  8
FRAME
 10
350.093284998368
 20
216.744170647032
 42
0.0
  0
VERTEX
  8
FRAME
 10
349.965558777408
 20
216.706618669392
 42
0.0
  0
VERTEX
  8
FRAME
 10
349.838323221889
 20
216.666454645778
 42
0.0
  0
VERTEX
  8
FRAME
 10
349.71168047033
 20
216.623764252057
 42
0.0
  0
VERTEX
  8
FRAME
 10
349.585732661249
 20
216.578633164098
 42
0.0
  0
VERTEX
  8
FRAME
 10
349.460581933167
 20
216.53114705777
 42
0.0
  0
VERTEX
  8
FRAME
 10
349.336330424603
 20
216.481391608941
 42
0.0
  0
VERTEX
  8
FRAME
 10
349.213080274076
 20
216.429452493481
 42
0.0
  0
VERTEX
  8
FRAME
 10
349.090933620105
 20
216.375415387258
 42
0.0
  0
VERTEX
  8
FRAME
 10
348.850359355911
 20
216.261389905995
 42
0.0
  0
VERTEX
  8
FRAME
 10
348.615137605442
 20
216.139803568023
 42
0.0
  0
VERTEX
  8
FRAME
 10
348.384649803185
 20
216.010356759889
 42
0.0
  0
VERTEX
  8
FRAME
 10
348.157990248897
 20
215.872552864058
 42
0.0
  0
VERTEX
  8
FRAME
 10
347.934253242331
 20
215.725895262996
 42
0.0
  0
VERTEX
  8
FRAME
 10
347.712533083242
 20
215.569887339172
 42
0.0
  0
VERTEX
  8
FRAME
 10
347.491924071385
 20
215.404032475051
 42
0.0
  0
VERTEX
  8
FRAME
 10
347.271520506514
 20
215.227834053099
 42
0.0
  0
VERTEX
  8
FRAME
 10
347.050416688386
 20
215.040795455783
 42
0.0
  0
VERTEX
  8
FRAME
 10
346.827706916753
 20
214.84242006557
 42
0.0
  0
VERTEX
  8
FRAME
 10
346.602485491371
 20
214.632211264925
 42
0.0
  0
VERTEX
  8
FRAME
 10
346.373846711995
 20
214.409672436316
 42
0.0
  0
VERTEX
  8
FRAME
 10
346.140884878378
 20
214.174306962209
 42
0.0
  0
VERTEX
  8
FRAME
 10
345.658369247445
 20
213.663109607366
 42
0.0
  0
VERTEX
  8
FRAME
 10
339.179028437965
 20
206.008610923806
 42
0.0
  0
SEQEND
  0
ARC
  8
FRAME
 10
291.587859381188
 20
212.51815409913
 30
0.0
 40
10.0
 50
220.495561503214
 51
270.0
  0
ARC
  8
FRAME
 10
331.587859381188
 20
212.51815409913
 30
0.0
 40
10.0
 50
270.0
 51
319.386407975207
  0
LINE
  8
FRAME
 10
351.887859303167
 20
124.72392149951
 30
0.0
 11
320.451557237044
 21
124.723921339029
 31
0.0
  0
ARC
  8
FRAME
 10
271.287859391651
 20
127.72392108805
 30
0.0
 40
3.0
 50
180.000000002141
 51
270.000000292492
  0
ARC
  8
FRAME
 10
295.64833896745
 20
127.723921298624
 30
0.0
 40
3.0
 50
270.000000292492
 51
359.999999996986
  0
ARC
  8
FRAME
 10
351.887859287852
 20
127.72392149951
 30
0.0
 40
3.0
 50
270.000000292492
 51
359.999999952302
  0
LINE
  8
FRAME
 10
271.287859391651
 20
124.72392108805
 30
0.0
 11
295.648338982765
 21
124.72392108805
 31
0.0
  0
LINE
  8
FRAME
 10
298.64833896745
 20
127.723921298466
 30
0.0
 11
298.648338968519
 21
148.058417615273
 31
0.0
  0
LINE
  8
FRAME
 10
298.648338968519
 20
148.058417615273
 30
0.0
 11
317.451557117923
 21
148.058417615273
 31
0.0
  0
LINE
  8
FRAME
 10
317.451557117923
 20
148.058417615273
 30
0.0
 11
317.451557221729
 21
127.723921323714
 31
0.0
  0
ARC
  8
FRAME
 10
320.451557221729
 20
127.723921339029
 30
0.0
 40
3.0
 50
180.000000292492
 51
270.000000292492
  0
LINE
  8
FRAME
 10
354.887859287852
 20
127.723921497012
 30
0.0
 11
354.887859352355
 21
212.518154088058
 31
0.0
  0
LINE
  8
FRAME
 10
268.289132609152
 20
212.633517695932
 30
0.0
 11
268.287859391651
 21
127.723921087938
 31
0.0
  0
POLYLINE
  8
FRAME
 66
     1
 10
0.0
 20
0.0
 30
0.0
 70
     0
  0
VERTEX
  8
FRAME
 10
41.065212736615
 20
143.952163186855
 42
0.0
  0
VERTEX
  8
FRAME
 10
41.065212736602
 20
145.119164226826
 42
0.0
  0
SEQEND
  0
POLYLINE
  8
FRAME
 66
     1
 10
0.0
 20
0.0
 30
0.0
 70
     0
  0
VERTEX
  8
FRAME
 10
41.065212736615
 20
143.952163186855
 42
0.1045500575177
  0
VERTEX
  8
FRAME
 10
42.776511164921
 20
135.857510950872
 42
0.0
  0
SEQEND
  0
POLYLINE
  8
FRAME
 66
     1
 10
0.0
 20
0.0
 30
0.0
 70
     0
  0
VERTEX
  8
FRAME
 10
41.073246381743
 20
145.119164226818
 42
0.3419987135024
  0
VERTEX
  8
FRAME
 10
39.572427701019
 20
147.055021478325
 42
0.0
  0
SEQEND
  0
POLYLINE
  8
FRAME
 66
     1
 10
0.0
 20
0.0
 30
0.0
 70
     0
  0
VERTEX
  8
FRAME
 10
41.045647894917
 20
221.017306149704
 42
0.0
  0
VERTEX
  8
FRAME
 10
41.0595299388329
 20
237.815480070276
 42
0.0
  0
SEQEND
  0
POLYLINE
  8
FRAME
 66
     1
 10
0.0
 20
0.0
 30
0.0
 70
     0
  0
VERTEX
  8
FRAME
 10
39.546465958109
 20
219.080180398293
 42
0.3419987141191
  0
VERTEX
  8
FRAME
 10
41.045647017266
 20
221.01730615043
 42
0.0
  0
SEQEND
  0
POLYLINE
  8
FRAME
 66
     1
 10
0.0
 20
0.0
 30
0.0
 70
     0
  0
VERTEX
  8
FRAME
 10
41.999002988092
 20
243.856721651267
 42
0.0768748145541
  0
VERTEX
  8
FRAME
 10
41.059529938834
 20
237.815480070277
 42
0.0
  0
SEQEND
  0
POLYLINE
  8
FRAME
 66
     1
 10
0.0
 20
0.0
 30
0.0
 70
     0
  0
VERTEX
  8
FRAME
 10
25.015212735699
 20
171.617072358329
 42
0.0
  0
VERTEX
  8
FRAME
 10
25.765951421369
 20
135.857510950872
 42
0.0
  0
VERTEX
  8
FRAME
 10
42.765951421369
 20
135.857510950872
 42
0.0
  0
SEQEND
  0
POLYLINE
  8
FRAME
 66
     1
 10
0.0
 20
0.0
 30
0.0
 70
     0
  0
VERTEX
  8
FRAME
 10
27.765212736615
 20
243.904928686238
 42
0.0
  0
VERTEX
  8
FRAME
 10
41.765951421369
 20
243.857510950872
 42
0.0
  0
SEQEND
  0
POLYLINE
  8
FRAME
 66
     1
 10
0.0
 20
0.0
 30
0.0
 70
     0
  0
VERTEX
  8
FRAME
 10
27.765212736615
 20
226.857510950872
 42
0.0
  0
VERTEX
  8
FRAME
 10
27.765212736615
 20
243.904928686238
 42
0.0
  0
SEQEND
  0
POLYLINE
  8
FRAME
 66
     1
 10
0.0
 20
0.0
 30
0.0
 70
     0
  0
VERTEX
  8
FRAME
 10
27.765951421369
 20
226.857510950872
 42
0.0
  0
VERTEX
  8
FRAME
 10
25.0152127006939
 20
196.589010758266
 42
0.0
  0
SEQEND
  0
POLYLINE
  8
FRAME
 66
     1
 10
0.0
 20
0.0
 30
0.0
 70
     0
  0
VERTEX
  8
FRAME
 10
25.015212735699
 20
171.617072358329
 42
0.0
  0
VERTEX
  8
FRAME
 10
25.0152127006939
 20
196.589010758266
 42
0.0
  0
SEQEND
  0
POLYLINE
  8
FRAME
 66
     1
 10
0.0
 20
0.0
 30
0.0
 70
     0
  0
VERTEX
  8
FRAME
 10
39.546465958205
 20
219.080180397925
 42
0.341998714119
  0
VERTEX
  8
FRAME
 10
38.047284899048
 20
217.143054645789
 42
0.0
  0
SEQEND
  0
POLYLINE
  8
FRAME
 66
     1
 10
0.0
 20
0.0
 30
0.0
 70
     0
  0
VERTEX
  8
FRAME
 10
38.047284899049
 20
217.143054645789
 42
0.0
  0
VERTEX
  8
FRAME
 10
38.071609020297
 20
148.990878728258
 42
0.0
  0
SEQEND
  0
POLYLINE
  8
FRAME
 66
     1
 10
0.0
 20
0.0
 30
0.0
 70
     0
  0
VERTEX
  8
FRAME
 10
38.071609020297
 20
148.990878728257
 42
0.3419987132828
  0
VERTEX
  8
FRAME
 10
39.57242770102
 20
147.055021478324
 42
0.0
  0
SEQEND
  0
POLYLINE
  8
FRAME
 66
     1
 10
0.0
 20
0.0
 30
0.0
 70
     0
  0
VERTEX
  8
FRAME
 10
18.9957220417814
 20
241.836118568789
 42
0.0
  0
VERTEX
  8
FRAME
 10
4.9964607265354
 20
241.788700833423
 42
0.0
  0
SEQEND
  0
POLYLINE
  8
FRAME
 66
     1
 10
0.0
 20
0.0
 30
0.0
 70
     0
  0
VERTEX
  8
FRAME
 10
18.9957220417814
 20
241.836118568789
 42
0.0
  0
VERTEX
  8
FRAME
 10
18.9957220417814
 20
224.518200605363
 42
0.0
  0
SEQEND
  0
POLYLINE
  8
FRAME
 66
     1
 10
0.0
 20
0.0
 30
0.0
 70
     0
  0
VERTEX
  8
FRAME
 10
5.6957220363624
 20
235.727549076399
 42
0.0771164923078
  0
VERTEX
  8
FRAME
 10
4.7554265411374
 20
241.787884412116
 42
0.0
  0
SEQEND
  0
POLYLINE
  8
FRAME
 66
     1
 10
0.0
 20
0.0
 30
0.0
 70
     0
  0
VERTEX
  8
FRAME
 10
18.9957220417814
 20
224.518200605363
 42
0.0
  0
VERTEX
  8
FRAME
 10
21.7457220691844
 20
194.520200626799
 42
0.0
  0
SEQEND
  0
POLYLINE
  8
FRAME
 66
     1
 10
0.0
 20
0.0
 30
0.0
 70
     0
  0
VERTEX
  8
FRAME
 10
21.7457220613174
 20
169.54826224088
 42
0.0
  0
VERTEX
  8
FRAME
 10
21.7457220691844
 20
194.520200626799
 42
0.0
  0
SEQEND
  0
POLYLINE
  8
FRAME
 66
     1
 10
0.0
 20
0.0
 30
0.0
 70
     0
  0
VERTEX
  8
FRAME
 10
21.7457220613174
 20
169.54826224088
 42
0.0
  0
VERTEX
  8
FRAME
 10
20.9964607265354
 20
133.788700833423
 42
0.0
  0
VERTEX
  8
FRAME
 10
3.4104184301034
 20
133.788700833423
 42
0.0
  0
SEQEND
  0
POLYLINE
  8
FRAME
 66
     1
 10
0.0
 20
0.0
 30
0.0
 70
     0
  0
VERTEX
  8
FRAME
 10
3.4104184301044
 20
133.788700833423
 42
0.1209879448672
  0
VERTEX
  8
FRAME
 10
5.6957220002114
 20
143.049458910359
 42
0.0
  0
SEQEND
  0
POLYLINE
  8
FRAME
 66
     1
 10
0.0
 20
0.0
 30
0.0
 70
     0
  0
VERTEX
  8
FRAME
 10
5.6957220232184
 20
219.019200606937
 42
0.0
  0
VERTEX
  8
FRAME
 10
5.6957220363624
 20
235.7275490764
 42
0.0
  0
SEQEND
  0
POLYLINE
  8
FRAME
 66
     1
 10
0.0
 20
0.0
 30
0.0
 70
     0
  0
VERTEX
  8
FRAME
 10
5.6957220232184
 20
219.019200606936
 42
0.3419987135024
  0
VERTEX
  8
FRAME
 10
7.1957220243493
 20
217.082708931967
 42
0.0
  0
SEQEND
  0
POLYLINE
  8
FRAME
 66
     1
 10
0.0
 20
0.0
 30
0.0
 70
     0
  0
VERTEX
  8
FRAME
 10
7.1957220071424
 20
144.985950585252
 42
0.341998714119
  0
VERTEX
  8
FRAME
 10
5.6957220002114
 20
143.049458910359
 42
0.0
  0
SEQEND
  0
POLYLINE
  8
FRAME
 66
     1
 10
0.0
 20
0.0
 30
0.0
 70
     0
  0
VERTEX
  8
FRAME
 10
8.6957220254814
 20
215.146217258572
 42
0.3419987132828
  0
VERTEX
  8
FRAME
 10
7.1957220243504
 20
217.082708931968
 42
0.0
  0
SEQEND
  0
POLYLINE
  8
FRAME
 66
     1
 10
0.0
 20
0.0
 30
0.0
 70
     0
  0
VERTEX
  8
FRAME
 10
8.6957220254814
 20
215.146217258572
 42
0.0
  0
VERTEX
  8
FRAME
 10
8.6957220139774
 20
146.922442260514
 42
0.0
  0
SEQEND
  0
POLYLINE
  8
FRAME
 66
     1
 10
0.0
 20
0.0
 30
0.0
 70
     0
  0
VERTEX
  8
FRAME
 10
7.1957220070463
 20
144.985950585621
 42
0.341998714119
  0
VERTEX
  8
FRAME
 10
8.6957220139774
 20
146.922442260514
 42
0.0
  0
SEQEND
  0
POLYLINE
  8
FRAME
 66
     1
 10
0.0
 20
0.0
 30
0.0
 70
     1
  0
VERTEX
  8
FRAME
 10
260.798935022193
 20
314.959354781745
 42
0.0
  0
SEQEND
  0
POLYLINE
  8
FRAME
 66
     1
 10
0.0
 20
0.0
 30
0.0
 70
     1
  0
VERTEX
  8
FRAME
 10
352.932805977532
 20
327.290474309029
 42
0.0
  0
SEQEND
  0
POLYLINE
  8
FRAME
 66
     1
 10
0.0
 20
0.0
 30
0.0
 70
     1
  0
VERTEX
  8
FRAME
 10
352.932805977538
 20
327.313606937148
 42
0.0
  0
SEQEND
  0
POLYLINE
  8
FRAME
 66
     1
 10
0.0
 20
0.0
 30
0.0
 70
     1
  0
VERTEX
  8
FRAME
 10
352.932805977532
 20
328.635712774018
 42
0.0
  0
SEQEND
  0
POLYLINE
  8
FRAME
 66
     1
 10
0.0
 20
0.0
 30
0.0
 70
     1
  0
VERTEX
  8
FRAME
 10
352.870937783284
 20
327.313606937145
 42
0.0002765904648
  0
SEQEND
  0
POLYLINE
  8
FRAME
 66
     1
 10
0.0
 20
0.0
 30
0.0
 70
     1
  0
VERTEX
  8
FRAME
 10
352.932805977532
 20
327.290474309029
 42
0.0059963331769
  0
SEQEND
  0
POLYLINE
  8
FRAME
 66
     1
 10
0.0
 20
0.0
 30
0.0
 70
     1
  0
VERTEX
  8
FRAME
 10
357.286511145093
 20
314.959354781745
 42
0.0
  0
SEQEND
  0
POLYLINE
  8
FRAME
 66
     1
 10
0.0
 20
0.0
 30
0.0
 70
     1
  0
VERTEX
  8
FRAME
 10
360.475859367472
 20
437.243239808414
 42
0.0
  0
SEQEND
  0
CIRCLE
  8
FRAME
 10
134.125930773495
 20
187.763148924808
 30
0.0
 40
0.0
  0
POLYLINE
  8
FRAME
 66
     1
 10
0.0
 20
0.0
 30
0.0
 70
     1
  0
VERTEX
  8
FRAME
 10
28.7568027990954
 20
236.239589136919
 42
0.5773502691896
  0
VERTEX
  8
FRAME
 10
28.7568027990954
 20
236.239589136919
 42
0.5773502691896
  0
VERTEX
  8
FRAME
 10
28.7568027990954
 20
236.239589136919
 42
0.5773502691896
  0
SEQEND
  0
POLYLINE
  8
FRAME
 66
     1
 10
0.0
 20
0.0
 30
0.0
 70
     1
  0
VERTEX
  8
FRAME
 10
43.7568027990954
 20
236.239589136919
 42
0.0675294089717
  0
SEQEND
  0
POLYLINE
  8
FRAME
 66
     1
 10
0.0
 20
0.0
 30
0.0
 70
     1
  0
VERTEX
  8
FRAME
 10
39.787961691026
 20
226.075262622045
 42
0.0002838395211
  0
SEQEND
  0
POLYLINE
  8
FRAME
 66
     1
 10
0.0
 20
0.0
 30
0.0
 70
     0
  0
VERTEX
  8
FRAME
 10
67.3587367456086
 20
214.997819240832
 42
0.2894462237043
  0
VERTEX
  8
FRAME
 10
30.2138924645216
 20
252.438411546853
 42
-0.3508903651321
  0
VERTEX
  8
FRAME
 10
11.682733572591
 20
249.612357004961
 42
-0.5773502691896
  0
VERTEX
  8
FRAME
 10
11.682733572591
 20
275.593119118494
 42
-0.490689786729
  0
VERTEX
  8
FRAME
 10
33.6425961666929
 20
266.600079803179
 42
0.2875528377869
  0
VERTEX
  8
FRAME
 10
57.9887906876616
 20
254.703383997661
 42
0.0
  0
SEQEND
  0
POLYLINE
  8
FRAME
 66
     1
 10
0.0
 20
0.0
 30
0.0
 70
     8
  0
VERTEX
  8
FRAME
 10
153.955246026992
 20
214.997819240832
 30
0.0
 42
-0.2894462237043
  0
VERTEX
  8
FRAME
 10
191.100090308079
 20
252.438411546853
 30
0.0
 42
0.3508903651321
  0
VERTEX
  8
FRAME
 10
209.63124920001
 20
249.612357004961
 30
0.0
 42
0.5773502691896
  0
VERTEX
  8
FRAME
 10
209.63124920001
 20
275.593119118494
 30
0.0
 42
0.490689786729
  0
VERTEX
  8
FRAME
 10
187.671386605908
 20
266.600079803179
 30
0.0
 42
-0.2875528377869
  0
VERTEX
  8
FRAME
 10
163.325192084939
 20
254.703383997661
 30
0.0
 42
0.0
  0
SEQEND
  0
POLYLINE
  8
FRAME
 66
     1
 10
0.0
 20
0.0
 30
0.0
 70
     9
  0
VERTEX
  8
FRAME
 10
154.079256956911
 20
121.245020555428
 30
0.0
 42
0.2894462237043
  0
VERTEX
  8
FRAME
 10
191.224101237998
 20
83.8044282494068
 30
0.0
 42
-0.3508903651321
  0
VERTEX
  8
FRAME
 10
209.755260129928
 20
86.6304827912989
 30
0.0
 42
-0.5773502691896
  0
VERTEX
  8
FRAME
 10
209.755260129928
 20
60.6497206777658
 30
0.0
 42
-0.490689786729
  0
VERTEX
  8
FRAME
 10
187.795397535826
 20
69.6427599930809
 30
0.0
 42
0.2875528377869
  0
VERTEX
  8
FRAME
 10
163.449203014858
 20
81.5394557985987
 30
0.0
 42
0.0
  0
VERTEX
  8
FRAME
 10
164.027868382592
 20
81.5132704636727
 30
0.0
 42
0.0
  0
VERTEX
  8
FRAME
 10
163.03297052489
 20
81.5726219623716
 30
0.0
 42
0.0
  0
VERTEX
  8
FRAME
 10
161.735945177728
 20
81.6801375368227
 30
0.0
 42
0.0
  0
VERTEX
  8
FRAME
 10
160.519810664421
 20
81.8115036529207
 30
0.0
 42
0.0
  0
VERTEX
  8
FRAME
 10
159.3801975484
 20
81.9655314478036
 30
0.0
 42
0.0
  0
VERTEX
  8
FRAME
 10
158.312783042722
 20
82.1410398707477
 30
0.0
 42
0.0
  0
VERTEX
  8
FRAME
 10
157.313305525005
 20
82.3368473438717
 30
0.0
 42
0.0
  0
VERTEX
  8
FRAME
 10
156.377579620458
 20
82.5517591705936
 30
0.0
 42
0.0
  0
VERTEX
  8
FRAME
 10
155.5057976836
 20
82.7834109326886
 30
0.0
 42
0.0
  0
VERTEX
  8
FRAME
 10
155.084634870795
 20
82.9073684682597
 30
0.0
 42
0.0
  0
VERTEX
  8
FRAME
 10
154.681121772459
 20
83.0340680223327
 30
0.0
 42
0.0
  0
VERTEX
  8
FRAME
 10
154.29054717044
 20
83.1645822200167
 30
0.0
 42
0.0
  0
VERTEX
  8
FRAME
 10
153.912434255671
 20
83.2987328606436
 30
0.0
 42
0.0
  0
VERTEX
  8
FRAME
 10
153.54631208202
 20
83.4363346279847
 30
0.0
 42
0.0
  0
VERTEX
  8
FRAME
 10
153.191714953427
 20
83.5771944764437
 30
0.0
 42
0.0
  0
VERTEX
  8
FRAME
 10
152.848181629781
 20
83.7211111654537
 30
0.0
 42
0.0
  0
VERTEX
  8
FRAME
 10
152.515254367305
 20
83.8678749840836
 30
0.0
 42
0.0
  0
VERTEX
  8
FRAME
 10
152.192477820592
 20
84.0172677035216
 30
0.0
 42
0.0
  0
VERTEX
  8
FRAME
 10
151.875599329079
 20
84.1709044762936
 30
0.0
 42
0.0
  0
VERTEX
  8
FRAME
 10
151.280826682491
 20
84.4786300725627
 30
0.0
 42
0.0
  0
VERTEX
  8
FRAME
 10
150.715330003721
 20
84.7951548306506
 30
0.0
 42
0.0
  0
VERTEX
  8
FRAME
 10
150.179428049079
 20
85.1163663026416
 30
0.0
 42
0.0
  0
VERTEX
  8
FRAME
 10
149.662978194039
 20
85.4442434011677
 30
0.0
 42
0.0
  0
VERTEX
  8
FRAME
 10
146.473990919457
 20
87.6334798875606
 30
0.0
 42
0.0
  0
VERTEX
  8
FRAME
 10
146.028918817075
 20
87.9140715887467
 30
0.0
 42
0.0
  0
VERTEX
  8
FRAME
 10
145.563907079135
 20
88.1895910736116
 30
0.0
 42
0.0
  0
VERTEX
  8
FRAME
 10
145.077060326509
 20
88.4572739565427
 30
0.0
 42
0.0
  0
VERTEX
  8
FRAME
 10
144.831309885853
 20
88.5840578647517
 30
0.0
 42
0.0
  0
VERTEX
  8
FRAME
 10
144.57547130654
 20
88.7100530692657
 30
0.0
 42
0.0
  0
VERTEX
  8
FRAME
 10
144.312668594777
 20
88.8332370638236
 30
0.0
 42
0.0
  0
VERTEX
  8
FRAME
 10
144.042252602594
 20
88.9535241534497
 30
0.0
 42
0.0
  0
VERTEX
  8
FRAME
 10
143.76357199758
 20
89.0708195787487
 30
0.0
 42
0.0
  0
VERTEX
  8
FRAME
 10
143.475871360475
 20
89.1850597701046
 30
0.0
 42
0.0
  0
VERTEX
  8
FRAME
 10
143.178126092648
 20
89.2963401245247
 30
0.0
 42
0.0
  0
VERTEX
  8
FRAME
 10
142.873921999283
 20
89.4033866475026
 30
0.0
 42
0.0
  0
VERTEX
  8
FRAME
 10
142.221781246308
 20
89.6134089554157
 30
0.0
 42
0.0
  0
VERTEX
  8
FRAME
 10
141.534062683046
 20
89.8106827245896
 30
0.0
 42
0.0
  0
VERTEX
  8
FRAME
 10
140.807830608268
 20
89.9966671639697
 30
0.0
 42
0.0
  0
VERTEX
  8
FRAME
 10
140.044654468954
 20
90.1714598881507
 30
0.0
 42
0.0
  0
VERTEX
  8
FRAME
 10
139.246064159861
 20
90.3352364512556
 30
0.0
 42
0.0
  0
VERTEX
  8
FRAME
 10
138.413551872732
 20
90.4882320957026
 30
0.0
 42
0.0
  0
VERTEX
  8
FRAME
 10
137.552344101341
 20
90.6301069737707
 30
0.0
 42
0.0
  0
VERTEX
  8
FRAME
 10
135.726324760989
 20
90.8855146716906
 30
0.0
 42
0.0
  0
VERTEX
  8
FRAME
 10
133.791708673817
 20
91.1024088054116
 30
0.0
 42
0.0
  0
VERTEX
  8
FRAME
 10
131.754795563724
 20
91.2845100741346
 30
0.0
 42
0.0
  0
VERTEX
  8
FRAME
 10
129.629314923457
 20
91.4348532700196
 30
0.0
 42
0.0
  0
VERTEX
  8
FRAME
 10
125.139173078724
 20
91.6548847037347
 30
0.0
 42
0.0
  0
VERTEX
  8
FRAME
 10
110.516994822977
 20
91.9181052331906
 30
0.0
 42
0.0
  0
VERTEX
  8
FRAME
 10
95.8924475824266
 20
91.9181052331847
 30
0.0
 42
0.0
  0
VERTEX
  8
FRAME
 10
91.3990728367096
 20
91.7789254487726
 30
0.0
 42
0.0
  0
VERTEX
  8
FRAME
 10
89.2712305380656
 20
91.6668621593296
 30
0.0
 42
0.0
  0
VERTEX
  8
FRAME
 10
87.2313698238066
 20
91.5214518550167
 30
0.0
 42
0.0
  0
VERTEX
  8
FRAME
 10
85.2931633408486
 20
91.3394131244167
 30
0.0
 42
0.0
  0
VERTEX
  8
FRAME
 10
83.4628428254567
 20
91.1169124851866
 30
0.0
 42
0.0
  0
VERTEX
  8
FRAME
 10
82.5992210174545
 20
90.9905610733266
 30
0.0
 42
0.0
  0
VERTEX
  8
FRAME
 10
81.7640898878416
 20
90.8525742196227
 30
0.0
 42
0.0
  0
VERTEX
  8
FRAME
 10
80.9626812005306
 20
90.7031976474777
 30
0.0
 42
0.0
  0
VERTEX
  8
FRAME
 10
80.1964826715296
 20
90.5421692953037
 30
0.0
 42
0.0
  0
VERTEX
  8
FRAME
 10
79.4670207880556
 20
90.3692861015396
 30
0.0
 42
0.0
  0
VERTEX
  8
FRAME
 10
78.7758629859356
 20
90.1844222196457
 30
0.0
 42
0.0
  0
VERTEX
  8
FRAME
 10
78.1200477758536
 20
89.9861715153897
 30
0.0
 42
0.0
  0
VERTEX
  8
FRAME
 10
77.8139662782116
 20
89.8846175627267
 30
0.0
 42
0.0
  0
VERTEX
  8
FRAME
 10
77.5142663570667
 20
89.7787142150027
 30
0.0
 42
0.0
  0
VERTEX
  8
FRAME
 10
77.2245561667966
 20
89.6696707210876
 30
0.0
 42
0.0
  0
VERTEX
  8
FRAME
 10
76.9438095577346
 20
89.5574101407106
 30
0.0
 42
0.0
  0
VERTEX
  8
FRAME
 10
76.6712723771485
 20
89.4420096296346
 30
0.0
 42
0.0
  0
VERTEX
  8
FRAME
 10
76.4062951036646
 20
89.3235756549377
 30
0.0
 42
0.0
  0
VERTEX
  8
FRAME
 10
76.1482302368536
 20
89.2022055814346
 30
0.0
 42
0.0
  0
VERTEX
  8
FRAME
 10
75.9002376790355
 20
89.0798653602056
 30
0.0
 42
0.0
  0
VERTEX
  8
FRAME
 10
75.4086518875596
 20
88.8209883701607
 30
0.0
 42
0.0
  0
VERTEX
  8
FRAME
 10
74.9387565263726
 20
88.5538830491757
 30
0.0
 42
0.0
  0
VERTEX
  8
FRAME
 10
74.4887062782866
 20
88.2813474491316
 30
0.0
 42
0.0
  0
VERTEX
  8
FRAME
 10
71.2608325127376
 20
86.1498627120247
 30
0.0
 42
0.0
  0
VERTEX
  8
FRAME
 10
70.7385650060336
 20
85.8313340697437
 30
0.0
 42
0.0
  0
VERTEX
  8
FRAME
 10
70.1969685222717
 20
85.5198200836907
 30
0.0
 42
0.0
  0
VERTEX
  8
FRAME
 10
69.6258664623546
 20
85.2135247142446
 30
0.0
 42
0.0
  0
VERTEX
  8
FRAME
 10
69.0256515490286
 20
84.9165540060116
 30
0.0
 42
0.0
  0
VERTEX
  8
FRAME
 10
68.7060591497476
 20
84.7686454712556
 30
0.0
 42
0.0
  0
VERTEX
  8
FRAME
 10
68.3806460374466
 20
84.6250864587476
 30
0.0
 42
0.0
  0
VERTEX
  8
FRAME
 10
68.0451311700486
 20
84.4843386192867
 30
0.0
 42
0.0
  0
VERTEX
  8
FRAME
 10
67.6990632037036
 20
84.3466283418867
 30
0.0
 42
0.0
  0
VERTEX
  8
FRAME
 10
67.3419882432766
 20
84.2121735422297
 30
0.0
 42
0.0
  0
VERTEX
  8
FRAME
 10
66.9734487454076
 20
84.0811837299347
 30
0.0
 42
0.0
  0
VERTEX
  8
FRAME
 10
66.5929825640126
 20
83.9538603011746
 30
0.0
 42
0.0
  0
VERTEX
  8
FRAME
 10
66.2001221646677
 20
83.8303970185056
 30
0.0
 42
0.0
  0
VERTEX
  8
FRAME
 10
65.7943940228976
 20
83.7109806355977
 30
0.0
 42
0.0
  0
VERTEX
  8
FRAME
 10
65.3710683780146
 20
83.5946234961496
 30
0.0
 42
0.0
  0
VERTEX
  8
FRAME
 10
64.4952582643896
 20
83.3787000625196
 30
0.0
 42
0.0
  0
VERTEX
  8
FRAME
 10
63.5558158355896
 20
83.1806647508107
 30
0.0
 42
0.0
  0
VERTEX
  8
FRAME
 10
62.5529759710566
 20
83.0028781341436
 30
0.0
 42
0.0
  0
VERTEX
  8
FRAME
 10
61.4825754767695
 20
82.8466100462186
 30
0.0
 42
0.0
  0
VERTEX
  8
FRAME
 10
60.3403746873566
 20
82.7131185765076
 30
0.0
 42
0.0
  0
VERTEX
  8
FRAME
 10
59.1220727732965
 20
82.6036623882817
 30
0.0
 42
0.0
  0
VERTEX
  8
FRAME
 10
57.8233224036126
 20
82.5195087953127
 30
0.0
 42
0.0
  0
VERTEX
  8
FRAME
 10
57.1033050292486
 20
82.4895490675476
 30
0.0
 42
0.0
  0
VERTEX
  8
FRAME
 10
58.0678557173376
 20
82.6008398382201
 30
0.0
 42
0.2875528377869
  0
VERTEX
  8
FRAME
 10
33.721661196369
 20
70.7041440327022
 30
0.0
 42
-0.490689786729
  0
VERTEX
  8
FRAME
 10
11.761798602267
 20
61.7111047173871
 30
0.0
 42
-0.5773502691896
  0
VERTEX
  8
FRAME
 10
11.761798602267
 20
87.6918668309203
 30
0.0
 42
-0.3508903651321
  0
VERTEX
  8
FRAME
 10
30.2929574941976
 20
84.8658122890282
 30
0.0
 42
0.2894462237043
  0
VERTEX
  8
FRAME
 10
67.4378017752846
 20
122.306404595049
 30
0.0
 42
0.0
  0
VERTEX
  8
FRAME
 10
67.3622438436266
 20
122.438119263104
 30
0.0
 42
0.0
  0
VERTEX
  8
FRAME
 10
67.3622438435577
 20
122.34949162031
 30
0.0
 42
0.0
  0
VERTEX
  8
FRAME
 10
67.3587367094577
 20
122.319729074791
 30
0.0
 42
-0.341998714119
  0
VERTEX
  8
FRAME
 10
68.8587367162929
 20
124.256220750052
 30
0.0
 42
0.341998714119
  0
VERTEX
  8
FRAME
 10
70.3587367232236
 20
126.192712424946
 30
0.0
 42
0.0
  0
VERTEX
  8
FRAME
 10
70.3587367347276
 20
194.416487423004
 30
0.0
 42
0.3419987132828
  0
VERTEX
  8
FRAME
 10
68.8587367335964
 20
196.3529790964
 30
0.0
 42
-0.3419987135024
  0
VERTEX
  8
FRAME
 10
67.3587367324646
 20
198.289470771368
 30
0.0
 42
0.0
  0
VERTEX
  8
FRAME
 10
67.3587367456086
 20
214.997819240832
 30
0.0
 42
0.2894462237043
  0
VERTEX
  8
FRAME
 10
30.2138924645216
 20
252.438411546853
 30
0.0
 42
-0.3508903651321
  0
VERTEX
  8
FRAME
 10
11.682733572591
 20
249.612357004961
 30
0.0
 42
-0.5773502691896
  0
VERTEX
  8
FRAME
 10
11.682733572591
 20
275.593119118494
 30
0.0
 42
-0.490689786729
  0
VERTEX
  8
FRAME
 10
33.6425961666929
 20
266.600079803179
 30
0.0
 42
0.2875528377869
  0
VERTEX
  8
FRAME
 10
57.9887906876616
 20
254.703383997661
 30
0.0
 42
0.0
  0
VERTEX
  8
FRAME
 10
56.9933989532426
 20
254.753779375975
 30
0.0
 42
0.0
  0
VERTEX
  8
FRAME
 10
57.9887906876616
 20
254.703383997661
 30
0.0
 42
0.0
  0
VERTEX
  8
FRAME
 10
59.2867311094716
 20
254.607545532712
 30
0.0
 42
0.0
  0
VERTEX
  8
FRAME
 10
60.5039986194866
 20
254.487129503985
 30
0.0
 42
0.0
  0
VERTEX
  8
FRAME
 10
61.6449517779946
 20
254.343364049529
 30
0.0
 42
0.0
  0
VERTEX
  8
FRAME
 10
62.7139025678486
 20
254.177469075746
 30
0.0
 42
0.0
  0
VERTEX
  8
FRAME
 10
63.7151018050757
 20
253.990664465715
 30
0.0
 42
0.0
  0
VERTEX
  8
FRAME
 10
64.6527239431356
 20
253.784182534481
 30
0.0
 42
0.0
  0
VERTEX
  8
FRAME
 10
65.5265553563966
 20
253.5603858734
 30
0.0
 42
0.0
  0
VERTEX
  8
FRAME
 10
65.9488166857846
 20
253.440223669613
 30
0.0
 42
0.0
  0
VERTEX
  8
FRAME
 10
66.3534536926397
 20
253.317160717375
 30
0.0
 42
0.0
  0
VERTEX
  8
FRAME
 10
66.7451870575586
 20
253.190166834257
 30
0.0
 42
0.0
  0
VERTEX
  8
FRAME
 10
67.1244919665546
 20
253.05942450482
 30
0.0
 42
0.0
  0
VERTEX
  8
FRAME
 10
67.4918376789116
 20
252.925123276131
 30
0.0
 42
0.0
  0
VERTEX
  8
FRAME
 10
67.8476881344886
 20
252.787460377064
 30
0.0
 42
0.0
  0
VERTEX
  8
FRAME
 10
68.1925027436276
 20
252.646641191028
 30
0.0
 42
0.0
  0
VERTEX
  8
FRAME
 10
68.5267373442436
 20
252.502879539989
 30
0.0
 42
0.0
  0
VERTEX
  8
FRAME
 10
68.8508452993256
 20
252.356397741865
 30
0.0
 42
0.0
  0
VERTEX
  8
FRAME
 10
69.1690936329966
 20
252.205618981932
 30
0.0
 42
0.0
  0
VERTEX
  8
FRAME
 10
69.7666116109625
 20
251.90325858483
 30
0.0
 42
0.0
  0
VERTEX
  8
FRAME
 10
70.3349339959656
 20
251.591835909214
 30
0.0
 42
0.0
  0
VERTEX
  8
FRAME
 10
70.8737050340706
 20
251.275460367764
 30
0.0
 42
0.0
  0
VERTEX
  8
FRAME
 10
71.3930847485436
 20
250.952244407914
 30
0.0
 42
0.0
  0
VERTEX
  8
FRAME
 10
74.6016452074356
 20
248.791796303368
 30
0.0
 42
0.0
  0
VERTEX
  8
FRAME
 10
75.0492245085326
 20
248.515221452158
 30
0.0
 42
0.0
  0
VERTEX
  8
FRAME
 10
75.5166969895855
 20
248.24389806131
 30
0.0
 42
0.0
  0
VERTEX
  8
FRAME
 10
76.0059330744965
 20
247.980607462204
 30
0.0
 42
0.0
  0
VERTEX
  8
FRAME
 10
76.2528145718297
 20
247.856040352827
 30
0.0
 42
0.0
  0
VERTEX
  8
FRAME
 10
76.5097767012266
 20
247.732352704776
 30
0.0
 42
0.0
  0
VERTEX
  8
FRAME
 10
76.7736773811786
 20
247.611538827486
 30
0.0
 42
0.0
  0
VERTEX
  8
FRAME
 10
77.0451649621446
 20
247.493690254561
 30
0.0
 42
0.0
  0
VERTEX
  8
FRAME
 10
77.3248898973556
 20
247.37890760331
 30
0.0
 42
0.0
  0
VERTEX
  8
FRAME
 10
77.6136070033766
 20
247.267261239274
 30
0.0
 42
0.0
  0
VERTEX
  8
FRAME
 10
77.9123416958846
 20
247.158664990323
 30
0.0
 42
0.0
  0
VERTEX
  8
FRAME
 10
78.2174968494216
 20
247.05436052843
 30
0.0
 42
0.0
  0
VERTEX
  8
FRAME
 10
78.8715013165236
 20
246.85021575499
 30
0.0
 42
0.0
  0
VERTEX
  8
FRAME
 10
79.5609674208966
 20
246.659139191329
 30
0.0
 42
0.0
  0
VERTEX
  8
FRAME
 10
80.2888438772286
 20
246.479698107839
 30
0.0
 42
0.0
  0
VERTEX
  8
FRAME
 10
81.0535621805966
 20
246.311780769426
 30
0.0
 42
0.0
  0
VERTEX
  8
FRAME
 10
81.8535940781216
 20
246.155197860582
 30
0.0
 42
0.0
  0
VERTEX
  8
FRAME
 10
82.6874495555876
 20
246.009700719233
 30
0.0
 42
0.0
  0
VERTEX
  8
FRAME
 10
83.5498992723746
 20
245.8755821428
 30
0.0
 42
0.0
  0
VERTEX
  8
FRAME
 10
85.3781432396276
 20
245.636618296783
 30
0.0
 42
0.0
  0
VERTEX
  8
FRAME
 10
87.3146329477566
 20
245.4371437864
 30
0.0
 42
0.0
  0
VERTEX
  8
FRAME
 10
89.3531024129266
 20
245.27338136791
 30
0.0
 42
0.0
  0
VERTEX
  8
FRAME
 10
91.4798500104236
 20
245.142172811625
 30
0.0
 42
0.0
  0
VERTEX
  8
FRAME
 10
95.9717902181646
 20
244.962559928686
 30
0.0
 42
0.0
  0
VERTEX
  8
FRAME
 10
110.595745200493
 20
244.83094433385
 30
0.0
 42
0.0
  0
VERTEX
  8
FRAME
 10
125.21970018286
 20
244.962559928692
 30
0.0
 42
0.0
  0
VERTEX
  8
FRAME
 10
129.711640390623
 20
245.14217281164
 30
0.0
 42
0.0
  0
VERTEX
  8
FRAME
 10
131.838387988128
 20
245.27338136793
 30
0.0
 42
0.0
  0
VERTEX
  8
FRAME
 10
133.876857453307
 20
245.437143786427
 30
0.0
 42
0.0
  0
VERTEX
  8
FRAME
 10
135.813347161444
 20
245.63661829682
 30
0.0
 42
0.0
  0
VERTEX
  8
FRAME
 10
137.641591128702
 20
245.875582142847
 30
0.0
 42
0.0
  0
VERTEX
  8
FRAME
 10
138.504040845491
 20
246.009700719287
 30
0.0
 42
0.0
  0
VERTEX
  8
FRAME
 10
139.337896322958
 20
246.155197860642
 30
0.0
 42
0.0
  0
VERTEX
  8
FRAME
 10
140.137928220484
 20
246.311780769493
 30
0.0
 42
0.0
  0
VERTEX
  8
FRAME
 10
140.902646523851
 20
246.479698107913
 30
0.0
 42
0.0
  0
VERTEX
  8
FRAME
 10
141.630522980182
 20
246.659139191412
 30
0.0
 42
0.0
  0
VERTEX
  8
FRAME
 10
142.319989084553
 20
246.850215755081
 30
0.0
 42
0.0
  0
VERTEX
  8
FRAME
 10
142.973993551652
 20
247.054360528531
 30
0.0
 42
0.0
  0
VERTEX
  8
FRAME
 10
143.279148705187
 20
247.158664990427
 30
0.0
 42
0.0
  0
VERTEX
  8
FRAME
 10
143.577883397692
 20
247.267261239382
 30
0.0
 42
0.0
  0
VERTEX
  8
FRAME
 10
143.866600503711
 20
247.378907603424
 30
0.0
 42
0.0
  0
VERTEX
  8
FRAME
 10
144.146325438919
 20
247.493690254679
 30
0.0
 42
0.0
  0
VERTEX
  8
FRAME
 10
144.417813019882
 20
247.611538827609
 30
0.0
 42
0.0
  0
VERTEX
  8
FRAME
 10
144.681713699832
 20
247.732352704905
 30
0.0
 42
0.0
  0
VERTEX
  8
FRAME
 10
144.938675829226
 20
247.856040352961
 30
0.0
 42
0.0
  0
VERTEX
  8
FRAME
 10
145.185557326555
 20
247.980607462344
 30
0.0
 42
0.0
  0
VERTEX
  8
FRAME
 10
145.67479341146
 20
248.243898061459
 30
0.0
 42
0.0
  0
VERTEX
  8
FRAME
 10
146.142265892506
 20
248.515221452319
 30
0.0
 42
0.0
  0
VERTEX
  8
FRAME
 10
146.589845193598
 20
248.791796303542
 30
0.0
 42
0.0
  0
VERTEX
  8
FRAME
 10
149.798405652446
 20
250.952244408162
 30
0.0
 42
0.0
  0
VERTEX
  8
FRAME
 10
150.317785366917
 20
251.275460368021
 30
0.0
 42
0.0
  0
VERTEX
  8
FRAME
 10
150.856556405019
 20
251.591835909477
 30
0.0
 42
0.0
  0
VERTEX
  8
FRAME
 10
151.424878790021
 20
251.9032585851
 30
0.0
 42
0.0
  0
VERTEX
  8
FRAME
 10
152.022396767985
 20
252.205618982205
 30
0.0
 42
0.0
  0
VERTEX
  8
FRAME
 10
152.340645101656
 20
252.356397742138
 30
0.0
 42
0.0
  0
VERTEX
  8
FRAME
 10
152.664753056738
 20
252.502879540263
 30
0.0
 42
0.0
  0
VERTEX
  8
FRAME
 10
152.998987657355
 20
252.646641191302
 30
0.0
 42
0.0
  0
VERTEX
  8
FRAME
 10
153.343802266494
 20
252.787460377338
 30
0.0
 42
0.0
  0
VERTEX
  8
FRAME
 10
153.699652722073
 20
252.925123276403
 30
0.0
 42
0.0
  0
VERTEX
  8
FRAME
 10
154.066998434431
 20
253.05942450509
 30
0.0
 42
0.0
  0
VERTEX
  8
FRAME
 10
154.44630334343
 20
253.190166834525
 30
0.0
 42
0.0
  0
VERTEX
  8
FRAME
 10
154.83803670835
 20
253.317160717639
 30
0.0
 42
0.0
  0
VERTEX
  8
FRAME
 10
155.242673715208
 20
253.440223669875
 30
0.0
 42
0.0
  0
VERTEX
  8
FRAME
 10
155.664935044598
 20
253.560385873655
 30
0.0
 42
0.0
  0
VERTEX
  8
FRAME
 10
156.538766457865
 20
253.784182534727
 30
0.0
 42
0.0
  0
VERTEX
  8
FRAME
 10
157.476388595931
 20
253.990664465946
 30
0.0
 42
0.0
  0
VERTEX
  8
FRAME
 10
158.477587833167
 20
254.177469075959
 30
0.0
 42
0.0
  0
VERTEX
  8
FRAME
 10
159.546538623032
 20
254.343364049722
 30
0.0
 42
0.0
  0
VERTEX
  8
FRAME
 10
160.687491781551
 20
254.487129504154
 30
0.0
 42
0.0
  0
VERTEX
  8
FRAME
 10
161.90475929158
 20
254.607545532857
 30
0.0
 42
0.0
  0
VERTEX
  8
FRAME
 10
163.202699713405
 20
254.703383997774
 30
0.0
 42
0.0
  0
VERTEX
  8
FRAME
 10
163.922418302207
 20
254.739822406181
 30
0.0
 42
0.0
  0
VERTEX
  8
FRAME
 10
163.325192084939
 20
254.703383997661
 30
0.0
 42
0.2875528377869
  0
VERTEX
  8
FRAME
 10
187.671386605908
 20
266.600079803179
 30
0.0
 42
-0.490689786729
  0
VERTEX
  8
FRAME
 10
209.63124920001
 20
275.593119118494
 30
0.0
 42
-0.5773502691896
  0
VERTEX
  8
FRAME
 10
209.63124920001
 20
249.612357004961
 30
0.0
 42
-0.3508903651321
  0
VERTEX
  8
FRAME
 10
191.100090308079
 20
252.438411546853
 30
0.0
 42
0.2894462237043
  0
VERTEX
  8
FRAME
 10
153.955246026992
 20
214.997819240832
 30
0.0
 42
0.0
  0
VERTEX
  8
FRAME
 10
153.953053953245
 20
215.016940117259
 30
0.0
 42
0.0
  0
VERTEX
  8
FRAME
 10
153.939171210466
 20
198.217920530278
 30
0.0
 42
0.0
  0
VERTEX
  8
FRAME
 10
153.939171031678
 20
198.218766197413
 30
0.0
 42
-0.3419987141191
  0
VERTEX
  8
FRAME
 10
152.439989972521
 20
196.281640445277
 30
0.0
 42
0.341998714119
  0
VERTEX
  8
FRAME
 10
150.940808913461
 20
194.344514692772
 30
0.0
 42
0.0
  0
VERTEX
  8
FRAME
 10
150.965133034709
 20
126.19233877524
 30
0.0
 42
0.3419987132828
  0
VERTEX
  8
FRAME
 10
152.465951715432
 20
124.256481525307
 30
0.0
 42
-0.3419987135024
  0
VERTEX
  8
FRAME
 10
153.966770396154
 20
122.320624273801
 30
0.0
 42
0.0
  0
VERTEX
  8
FRAME
 10
153.958736751027
 20
122.498861698826
 30
0.0
 42
0.0
  0
VERTEX
  8
FRAME
 10
153.958736751027
 20
121.153623233837
 30
0.0
 42
0.0
  0
SEQEND
  0
POLYLINE
  8
FRAME
 66
     1
 10
0.0
 20
0.0
 30
0.0
 70
     1
  0
VERTEX
  8
FRAME
 10
514.87430177414
 20
93.2146878988248
 42
0.0
  0
SEQEND
  0
POLYLINE
  8
FRAME
 66
     1
 10
0.0
 20
0.0
 30
0.0
 70
     1
  0
VERTEX
  8
FRAME
 10
418.517627502663
 20
93.2146878988247
 42
0.0
  0
SEQEND
  0
POLYLINE
  8
FRAME
 66
     1
 10
0.0
 20
0.0
 30
0.0
 70
     1
  0
VERTEX
  8
FRAME
 10
416.856764155549
 20
215.498572925493
 42
0.0
  0
SEQEND
  0
POLYLINE
  8
FRAME
 66
     1
 10
0.0
 20
0.0
 30
0.0
 70
     1
  0
VERTEX
  8
FRAME
 10
516.910676463358
 20
215.498572925492
 42
0.0
  0
SEQEND
  0
POLYLINE
  8
FRAME
 66
     1
 10
0.0
 20
0.0
 30
0.0
 70
     1
  0
VERTEX
  8
FRAME
 10
600.611060492865
 20
226.757648738568
 42
0.0
  0
SEQEND
  0
POLYLINE
  8
FRAME
 66
     1
 10
0.0
 20
0.0
 30
0.0
 70
     1
  0
VERTEX
  8
FRAME
 10
697.852810399461
 20
226.757648738568
 42
0.0
  0
SEQEND
  0
POLYLINE
  8
FRAME
 66
     1
 10
0.0
 20
0.0
 30
0.0
 70
     1
  0
VERTEX
  8
FRAME
 10
590.863974299502
 20
349.041533765236
 42
0.0
  0
SEQEND
  0
CIRCLE
  8
FRAME
 10
263.718311043987
 20
249.188777057441
 30
0.0
 40
0.0
  0
CIRCLE
  8
FRAME
 10
264.333248336386
 20
265.729805716625
 30
0.0
 40
0.0
  0
CIRCLE
  8
FRAME
 10
280.311260865156
 20
266.270599986829
 30
0.0
 40
0.0
  0
ARC
  8
FRAME
 10
236.608771923849
 20
259.750932437655
 30
0.0
 40
15.0000000000001
 50
150.0
 51
227.341922052738
  0
ARC
  8
FRAME
 10
236.608771923848
 20
259.750932437655
 30
0.0
 40
15.0
 50
30.0000000000001
 51
150.0
  0
ARC
  8
FRAME
 10
236.608241897767
 20
259.749638391592
 30
0.0
 40
15.0011060634864
 50
-74.5435927510732
 51
30.003268153687
  0
ARC
  8
FRAME
 10
254.074275267859
 20
223.630152751893
 30
0.0
 40
25.5066012280039
 50
121.872210714949
 51
186.043168799371
  0
ARC
  8
FRAME
 10
271.796835092208
 20
256.333516852192
 30
0.0
 40
14.9999999999995
 50
150.0
 51
227.341922052739
  0
ARC
  8
FRAME
 10
271.796835092209
 20
256.333516852192
 30
0.0
 40
15.0
 50
30.0000000000001
 51
150.0
  0
ARC
  8
FRAME
 10
271.796305066127
 20
256.332222806129
 30
0.0
 40
15.0011060634863
 50
-74.5435927510732
 51
30.0032681536869
  0
ARC
  8
FRAME
 10
289.262338436218
 20
220.21273716643
 30
0.0
 40
25.5066012280033
 50
121.872210714949
 51
186.04316879937
  0
LINE
  8
FRAME
 10
263.897481028142
 20
217.527459737122
 30
0.0
 11
263.923666363068
 21
218.106125104856
 31
0.0
  0
LINE
  8
FRAME
 10
263.923666363068
 20
218.106125104856
 30
0.0
 11
263.864314864369
 21
217.111227247154
 31
0.0
  0
LINE
  8
FRAME
 10
263.864314864369
 20
217.111227247154
 30
0.0
 11
263.756799289918
 21
215.814201899992
 31
0.0
  0
LINE
  8
FRAME
 10
263.756799289918
 20
215.814201899992
 30
0.0
 11
263.62543317382
 21
214.598067386685
 31
0.0
  0
LINE
  8
FRAME
 10
263.62543317382
 20
214.598067386685
 30
0.0
 11
263.471405378937
 21
213.458454270664
 31
0.0
  0
LINE
  8
FRAME
 10
263.471405378937
 20
213.458454270664
 30
0.0
 11
263.295896955993
 21
212.391039764986
 31
0.0
  0
LINE
  8
FRAME
 10
263.295896955993
 20
212.391039764986
 30
0.0
 11
263.100089482869
 21
211.391562247269
 31
0.0
  0
LINE
  8
FRAME
 10
263.100089482869
 20
211.391562247269
 30
0.0
 11
262.885177656147
 21
210.455836342722
 31
0.0
  0
LINE
  8
FRAME
 10
262.885177656147
 20
210.455836342722
 30
0.0
 11
262.653525894052
 21
209.584054405864
 31
0.0
  0
LINE
  8
FRAME
 10
262.653525894052
 20
209.584054405864
 30
0.0
 11
262.529568358481
 21
209.162891593059
 31
0.0
  0
LINE
  8
FRAME
 10
262.529568358481
 20
209.162891593059
 30
0.0
 11
262.402868804408
 21
208.759378494723
 31
0.0
  0
LINE
  8
FRAME
 10
262.402868804408
 20
208.759378494723
 30
0.0
 11
262.272354606724
 21
208.368803892704
 31
0.0
  0
LINE
  8
FRAME
 10
262.272354606724
 20
208.368803892704
 30
0.0
 11
262.138203966097
 21
207.990690977935
 31
0.0
  0
LINE
  8
FRAME
 10
262.138203966097
 20
207.990690977935
 30
0.0
 11
262.000602198756
 21
207.624568804284
 31
0.0
  0
LINE
  8
FRAME
 10
262.000602198756
 20
207.624568804284
 30
0.0
 11
261.859742350297
 21
207.269971675691
 31
0.0
  0
LINE
  8
FRAME
 10
261.859742350297
 20
207.269971675691
 30
0.0
 11
261.715825661287
 21
206.926438352045
 31
0.0
  0
LINE
  8
FRAME
 10
261.715825661287
 20
206.926438352045
 30
0.0
 11
261.569061842657
 21
206.593511089569
 31
0.0
  0
LINE
  8
FRAME
 10
261.569061842657
 20
206.593511089569
 30
0.0
 11
261.419669123219
 21
206.270734542856
 31
0.0
  0
LINE
  8
FRAME
 10
261.419669123219
 20
206.270734542856
 30
0.0
 11
261.266032350447
 21
205.953856051343
 31
0.0
  0
LINE
  8
FRAME
 10
261.266032350447
 20
205.953856051343
 30
0.0
 11
260.958306754178
 21
205.359083404755
 31
0.0
  0
LINE
  8
FRAME
 10
260.958306754178
 20
205.359083404755
 30
0.0
 11
260.64178199609
 21
204.793586725985
 31
0.0
  0
LINE
  8
FRAME
 10
260.64178199609
 20
204.793586725985
 30
0.0
 11
260.320570524099
 21
204.257684771343
 31
0.0
  0
LINE
  8
FRAME
 10
260.320570524099
 20
204.257684771343
 30
0.0
 11
259.992693425573
 21
203.741234916303
 31
0.0
  0
LINE
  8
FRAME
 10
259.992693425573
 20
203.741234916303
 30
0.0
 11
257.80345693918
 21
200.552247641721
 31
0.0
  0
LINE
  8
FRAME
 10
257.80345693918
 20
200.552247641721
 30
0.0
 11
257.522865237994
 21
200.107175539339
 31
0.0
  0
LINE
  8
FRAME
 10
257.522865237994
 20
200.107175539339
 30
0.0
 11
257.247345753129
 21
199.642163801399
 31
0.0
  0
LINE
  8
FRAME
 10
257.247345753129
 20
199.642163801399
 30
0.0
 11
256.979662870198
 21
199.155317048773
 31
0.0
  0
LINE
  8
FRAME
 10
256.979662870198
 20
199.155317048773
 30
0.0
 11
256.852878961989
 21
198.909566608117
 31
0.0
  0
LINE
  8
FRAME
 10
256.852878961989
 20
198.909566608117
 30
0.0
 11
256.726883757475
 21
198.653728028804
 31
0.0
  0
LINE
  8
FRAME
 10
256.726883757475
 20
198.653728028804
 30
0.0
 11
256.603699762917
 21
198.390925317041
 31
0.0
  0
LINE
  8
FRAME
 10
256.603699762917
 20
198.390925317041
 30
0.0
 11
256.483412673291
 21
198.120509324858
 31
0.0
  0
LINE
  8
FRAME
 10
256.483412673291
 20
198.120509324858
 30
0.0
 11
256.366117247992
 21
197.841828719844
 31
0.0
  0
LINE
  8
FRAME
 10
256.366117247992
 20
197.841828719844
 30
0.0
 11
256.251877056636
 21
197.554128082739
 31
0.0
  0
LINE
  8
FRAME
 10
256.251877056636
 20
197.554128082739
 30
0.0
 11
256.140596702216
 21
197.256382814912
 31
0.0
  0
LINE
  8
FRAME
 10
256.140596702216
 20
197.256382814912
 30
0.0
 11
256.033550179238
 21
196.952178721547
 31
0.0
  0
LINE
  8
FRAME
 10
256.033550179238
 20
196.952178721547
 30
0.0
 11
255.823527871325
 21
196.300037968572
 31
0.0
  0
LINE
  8
FRAME
 10
255.823527871325
 20
196.300037968572
 30
0.0
 11
255.626254102151
 21
195.61231940531
 31
0.0
  0
LINE
  8
FRAME
 10
255.626254102151
 20
195.61231940531
 30
0.0
 11
255.440269662771
 21
194.886087330532
 31
0.0
  0
LINE
  8
FRAME
 10
255.440269662771
 20
194.886087330532
 30
0.0
 11
255.26547693859
 21
194.122911191218
 31
0.0
  0
LINE
  8
FRAME
 10
255.26547693859
 20
194.122911191218
 30
0.0
 11
255.101700375485
 21
193.324320882125
 31
0.0
  0
LINE
  8
FRAME
 10
255.101700375485
 20
193.324320882125
 30
0.0
 11
254.948704731038
 21
192.491808594996
 31
0.0
  0
LINE
  8
FRAME
 10
254.948704731038
 20
192.491808594996
 30
0.0
 11
254.80682985297
 21
191.630600823605
 31
0.0
  0
LINE
  8
FRAME
 10
254.80682985297
 20
191.630600823605
 30
0.0
 11
254.55142215505
 21
189.804581483253
 31
0.0
  0
LINE
  8
FRAME
 10
254.55142215505
 20
189.804581483253
 30
0.0
 11
254.334528021329
 21
187.869965396081
 31
0.0
  0
LINE
  8
FRAME
 10
254.334528021329
 20
187.869965396081
 30
0.0
 11
254.152426752606
 21
185.833052285988
 31
0.0
  0
LINE
  8
FRAME
 10
254.152426752606
 20
185.833052285988
 30
0.0
 11
254.002083556721
 21
183.707571645721
 31
0.0
  0
LINE
  8
FRAME
 10
254.002083556721
 20
183.707571645721
 30
0.0
 11
253.782052123006
 21
179.217429800988
 31
0.0
  0
LINE
  8
FRAME
 10
253.782052123006
 20
179.217429800988
 30
0.0
 11
253.51883159355
 21
164.595251545241
 31
0.0
  0
LINE
  8
FRAME
 10
253.51883159355
 20
164.595251545241
 30
0.0
 11
253.518831593556
 21
149.970704304691
 31
0.0
  0
LINE
  8
FRAME
 10
253.518831593556
 20
149.970704304691
 30
0.0
 11
253.658011377968
 21
145.477329558974
 31
0.0
  0
LINE
  8
FRAME
 10
253.658011377968
 20
145.477329558974
 30
0.0
 11
253.770074667411
 21
143.34948726033
 31
0.0
  0
LINE
  8
FRAME
 10
253.770074667411
 20
143.34948726033
 30
0.0
 11
253.915484971724
 21
141.309626546071
 31
0.0
  0
LINE
  8
FRAME
 10
253.915484971724
 20
141.309626546071
 30
0.0
 11
254.097523702324
 21
139.371420063113
 31
0.0
  0
LINE
  8
FRAME
 10
254.097523702324
 20
139.371420063113
 30
0.0
 11
254.320024341554
 21
137.541099547721
 31
0.0
  0
LINE
  8
FRAME
 10
254.320024341554
 20
137.541099547721
 30
0.0
 11
254.446375753414
 21
136.677477739719
 31
0.0
  0
LINE
  8
FRAME
 10
254.446375753414
 20
136.677477739719
 30
0.0
 11
254.584362607118
 21
135.842346610106
 31
0.0
  0
LINE
  8
FRAME
 10
254.584362607118
 20
135.842346610106
 30
0.0
 11
254.733739179263
 21
135.040937922795
 31
0.0
  0
LINE
  8
FRAME
 10
254.733739179263
 20
135.040937922795
 30
0.0
 11
254.894767531437
 21
134.274739393794
 31
0.0
  0
LINE
  8
FRAME
 10
254.894767531437
 20
134.274739393794
 30
0.0
 11
255.067650725201
 21
133.54527751032
 31
0.0
  0
LINE
  8
FRAME
 10
255.067650725201
 20
133.54527751032
 30
0.0
 11
255.252514607095
 21
132.8541197082
 31
0.0
  0
LINE
  8
FRAME
 10
255.252514607095
 20
132.8541197082
 30
0.0
 11
255.450765311351
 21
132.198304498118
 31
0.0
  0
LINE
  8
FRAME
 10
255.450765311351
 20
132.198304498118
 30
0.0
 11
255.552319264014
 21
131.892223000476
 31
0.0
  0
LINE
  8
FRAME
 10
255.552319264014
 20
131.892223000476
 30
0.0
 11
255.658222611738
 21
131.592523079331
 31
0.0
  0
LINE
  8
FRAME
 10
255.658222611738
 20
131.592523079331
 30
0.0
 11
255.767266105653
 21
131.302812889061
 31
0.0
  0
LINE
  8
FRAME
 10
255.767266105653
 20
131.302812889061
 30
0.0
 11
255.87952668603
 21
131.022066279999
 31
0.0
  0
LINE
  8
FRAME
 10
255.87952668603
 20
131.022066279999
 30
0.0
 11
255.994927197106
 21
130.749529099413
 31
0.0
  0
LINE
  8
FRAME
 10
255.994927197106
 20
130.749529099413
 30
0.0
 11
256.113361171803
 21
130.484551825929
 31
0.0
  0
LINE
  8
FRAME
 10
256.113361171803
 20
130.484551825929
 30
0.0
 11
256.234731245306
 21
130.226486959118
 31
0.0
  0
LINE
  8
FRAME
 10
256.234731245306
 20
130.226486959118
 30
0.0
 11
256.357071466535
 21
129.9784944013
 31
0.0
  0
LINE
  8
FRAME
 10
256.357071466535
 20
129.9784944013
 30
0.0
 11
256.61594845658
 21
129.486908609824
 31
0.0
  0
LINE
  8
FRAME
 10
256.61594845658
 20
129.486908609824
 30
0.0
 11
256.883053777565
 21
129.017013248637
 31
0.0
  0
LINE
  8
FRAME
 10
256.883053777565
 20
129.017013248637
 30
0.0
 11
257.155589377609
 21
128.566963000551
 31
0.0
  0
LINE
  8
FRAME
 10
257.155589377609
 20
128.566963000551
 30
0.0
 11
259.287074114716
 21
125.339089235002
 31
0.0
  0
LINE
  8
FRAME
 10
259.287074114716
 20
125.339089235002
 30
0.0
 11
259.605602756997
 21
124.816821728298
 31
0.0
  0
LINE
  8
FRAME
 10
259.605602756997
 20
124.816821728298
 30
0.0
 11
259.91711674305
 21
124.275225244536
 31
0.0
  0
LINE
  8
FRAME
 10
259.91711674305
 20
124.275225244536
 30
0.0
 11
260.223412112496
 21
123.704123184619
 31
0.0
  0
LINE
  8
FRAME
 10
260.223412112496
 20
123.704123184619
 30
0.0
 11
260.520382820729
 21
123.103908271293
 31
0.0
  0
LINE
  8
FRAME
 10
260.520382820729
 20
123.103908271293
 30
0.0
 11
260.668291355485
 21
122.784315872012
 31
0.0
  0
LINE
  8
FRAME
 10
260.668291355485
 20
122.784315872012
 30
0.0
 11
260.811850367993
 21
122.458902759711
 31
0.0
  0
LINE
  8
FRAME
 10
260.811850367993
 20
122.458902759711
 30
0.0
 11
260.952598207454
 21
122.123387892313
 31
0.0
  0
LINE
  8
FRAME
 10
260.952598207454
 20
122.123387892313
 30
0.0
 11
261.090308484854
 21
121.777319925968
 31
0.0
  0
LINE
  8
FRAME
 10
261.090308484854
 20
121.777319925968
 30
0.0
 11
261.224763284511
 21
121.420244965541
 31
0.0
  0
LINE
  8
FRAME
 10
261.224763284511
 20
121.420244965541
 30
0.0
 11
261.355753096806
 21
121.051705467672
 31
0.0
  0
LINE
  8
FRAME
 10
261.355753096806
 20
121.051705467672
 30
0.0
 11
261.483076525566
 21
120.671239286277
 31
0.0
  0
LINE
  8
FRAME
 10
261.483076525566
 20
120.671239286277
 30
0.0
 11
261.606539808235
 21
120.278378886932
 31
0.0
  0
LINE
  8
FRAME
 10
261.606539808235
 20
120.278378886932
 30
0.0
 11
261.725956191143
 21
119.872650745162
 31
0.0
  0
LINE
  8
FRAME
 10
261.725956191143
 20
119.872650745162
 30
0.0
 11
261.842313330591
 21
119.449325100279
 31
0.0
  0
LINE
  8
FRAME
 10
261.842313330591
 20
119.449325100279
 30
0.0
 11
262.058236764221
 21
118.573514986654
 31
0.0
  0
LINE
  8
FRAME
 10
262.058236764221
 20
118.573514986654
 30
0.0
 11
262.25627207593
 21
117.634072557854
 31
0.0
  0
LINE
  8
FRAME
 10
262.25627207593
 20
117.634072557854
 30
0.0
 11
262.434058692597
 21
116.631232693321
 31
0.0
  0
LINE
  8
FRAME
 10
262.434058692597
 20
116.631232693321
 30
0.0
 11
262.590326780522
 21
115.560832199034
 31
0.0
  0
LINE
  8
FRAME
 10
262.590326780522
 20
115.560832199034
 30
0.0
 11
262.723818250233
 21
114.418631409621
 31
0.0
  0
LINE
  8
FRAME
 10
262.723818250233
 20
114.418631409621
 30
0.0
 11
262.833274438459
 21
113.200329495561
 31
0.0
  0
LINE
  8
FRAME
 10
262.833274438459
 20
113.200329495561
 30
0.0
 11
262.917428031428
 21
111.901579125877
 31
0.0
  0
LINE
  8
FRAME
 10
262.917428031428
 20
111.901579125877
 30
0.0
 11
262.947387759193
 21
111.181561751513
 31
0.0
  0
LINE
  8
FRAME
 10
262.947387759193
 20
111.181561751513
 30
0.0
 11
262.836096988521
 21
112.146112439602
 31
0.0
  0
ARC
  8
FRAME
 10
288.200954396597
 20
109.460835010293
 30
0.0
 40
25.5066012280038
 50
173.956831200629
 51
238.12778928505
  0
ARC
  8
FRAME
 10
270.734921026506
 20
73.3413493705946
 30
0.0
 40
15.0011060634864
 50
-30.0032681536868
 51
74.5435927510732
  0
ARC
  8
FRAME
 10
270.735451052587
 20
73.3400553245311
 30
0.0
 40
15.0
 50
210.0
 51
330.0
  0
ARC
  8
FRAME
 10
270.735451052587
 20
73.3400553245311
 30
0.0
 40
15.0
 50
132.658077947262
 51
210.0
  0
ARC
  8
FRAME
 10
236.608771923849
 20
259.750932437655
 30
0.0
 40
15.0000000000001
 50
150.0
 51
227.341922052738
  0
ARC
  8
FRAME
 10
236.608771923848
 20
259.750932437655
 30
0.0
 40
15.0
 50
30.0000000000001
 51
150.0
  0
ARC
  8
FRAME
 10
236.608241897767
 20
259.749638391592
 30
0.0
 40
15.0011060634864
 50
-74.5435927510732
 51
30.003268153687
  0
ARC
  8
FRAME
 10
254.074275267859
 20
223.630152751893
 30
0.0
 40
25.5066012280039
 50
121.872210714949
 51
186.043168799371
  0
LINE
  8
FRAME
 10
228.709417859782
 20
220.944875322585
 30
0.0
 11
228.759813238096
 21
221.940267057004
 31
0.0
  0
LINE
  8
FRAME
 10
228.759813238096
 20
221.940267057004
 30
0.0
 11
228.709417859782
 21
220.944875322585
 31
0.0
  0
LINE
  8
FRAME
 10
228.709417859782
 20
220.944875322585
 30
0.0
 11
228.613579394833
 21
219.646934900775
 31
0.0
  0
LINE
  8
FRAME
 10
228.613579394833
 20
219.646934900775
 30
0.0
 11
228.493163366106
 21
218.42966739076
 31
0.0
  0
LINE
  8
FRAME
 10
228.493163366106
 20
218.42966739076
 30
0.0
 11
228.34939791165
 21
217.288714232252
 31
0.0
  0
LINE
  8
FRAME
 10
228.34939791165
 20
217.288714232252
 30
0.0
 11
228.183502937867
 21
216.219763442398
 31
0.0
  0
LINE
  8
FRAME
 10
228.183502937867
 20
216.219763442398
 30
0.0
 11
227.996698327836
 21
215.218564205171
 31
0.0
  0
LINE
  8
FRAME
 10
227.996698327836
 20
215.218564205171
 30
0.0
 11
227.790216396602
 21
214.280942067111
 31
0.0
  0
LINE
  8
FRAME
 10
227.790216396602
 20
214.280942067111
 30
0.0
 11
227.566419735521
 21
213.40711065385
 31
0.0
  0
LINE
  8
FRAME
 10
227.566419735521
 20
213.40711065385
 30
0.0
 11
227.446257531734
 21
212.984849324462
 31
0.0
  0
LINE
  8
FRAME
 10
227.446257531734
 20
212.984849324462
 30
0.0
 11
227.323194579496
 21
212.580212317607
 31
0.0
  0
LINE
  8
FRAME
 10
227.323194579496
 20
212.580212317607
 30
0.0
 11
227.196200696378
 21
212.188478952688
 31
0.0
  0
LINE
  8
FRAME
 10
227.196200696378
 20
212.188478952688
 30
0.0
 11
227.065458366941
 21
211.809174043692
 31
0.0
  0
LINE
  8
FRAME
 10
227.065458366941
 20
211.809174043692
 30
0.0
 11
226.931157138252
 21
211.441828331335
 31
0.0
  0
LINE
  8
FRAME
 10
226.931157138252
 20
211.441828331335
 30
0.0
 11
226.793494239185
 21
211.085977875758
 31
0.0
  0
LINE
  8
FRAME
 10
226.793494239185
 20
211.085977875758
 30
0.0
 11
226.652675053149
 21
210.741163266619
 31
0.0
  0
LINE
  8
FRAME
 10
226.652675053149
 20
210.741163266619
 30
0.0
 11
226.50891340211
 21
210.406928666003
 31
0.0
  0
LINE
  8
FRAME
 10
226.50891340211
 20
210.406928666003
 30
0.0
 11
226.362431603986
 21
210.082820710921
 31
0.0
  0
LINE
  8
FRAME
 10
226.362431603986
 20
210.082820710921
 30
0.0
 11
226.211652844053
 21
209.76457237725
 31
0.0
  0
LINE
  8
FRAME
 10
226.211652844053
 20
209.76457237725
 30
0.0
 11
225.909292446951
 21
209.167054399284
 31
0.0
  0
LINE
  8
FRAME
 10
225.909292446951
 20
209.167054399284
 30
0.0
 11
225.597869771335
 21
208.598732014281
 31
0.0
  0
LINE
  8
FRAME
 10
225.597869771335
 20
208.598732014281
 30
0.0
 11
225.281494229885
 21
208.059960976176
 31
0.0
  0
LINE
  8
FRAME
 10
225.281494229885
 20
208.059960976176
 30
0.0
 11
224.958278270035
 21
207.540581261703
 31
0.0
  0
LINE
  8
FRAME
 10
224.958278270035
 20
207.540581261703
 30
0.0
 11
222.797830165489
 21
204.332020802811
 31
0.0
  0
LINE
  8
FRAME
 10
222.797830165489
 20
204.332020802811
 30
0.0
 11
222.521255314279
 21
203.884441501714
 31
0.0
  0
LINE
  8
FRAME
 10
222.521255314279
 20
203.884441501714
 30
0.0
 11
222.249931923431
 21
203.416969020661
 31
0.0
  0
LINE
  8
FRAME
 10
222.249931923431
 20
203.416969020661
 30
0.0
 11
221.986641324325
 21
202.92773293575
 31
0.0
  0
LINE
  8
FRAME
 10
221.986641324325
 20
202.92773293575
 30
0.0
 11
221.862074214948
 21
202.680851438417
 31
0.0
  0
LINE
  8
FRAME
 10
221.862074214948
 20
202.680851438417
 30
0.0
 11
221.738386566897
 21
202.42388930902
 31
0.0
  0
LINE
  8
FRAME
 10
221.738386566897
 20
202.42388930902
 30
0.0
 11
221.617572689607
 21
202.159988629068
 31
0.0
  0
LINE
  8
FRAME
 10
221.617572689607
 20
202.159988629068
 30
0.0
 11
221.499724116682
 21
201.888501048102
 31
0.0
  0
LINE
  8
FRAME
 10
221.499724116682
 20
201.888501048102
 30
0.0
 11
221.384941465431
 21
201.608776112891
 31
0.0
  0
LINE
  8
FRAME
 10
221.384941465431
 20
201.608776112891
 30
0.0
 11
221.273295101395
 21
201.32005900687
 31
0.0
  0
LINE
  8
FRAME
 10
221.273295101395
 20
201.32005900687
 30
0.0
 11
221.164698852444
 21
201.021324314362
 31
0.0
  0
LINE
  8
FRAME
 10
221.164698852444
 20
201.021324314362
 30
0.0
 11
221.060394390551
 21
200.716169160825
 31
0.0
  0
LINE
  8
FRAME
 10
221.060394390551
 20
200.716169160825
 30
0.0
 11
220.856249617111
 21
200.062164693723
 31
0.0
  0
LINE
  8
FRAME
 10
220.856249617111
 20
200.062164693723
 30
0.0
 11
220.66517305345
 21
199.37269858935
 31
0.0
  0
LINE
  8
FRAME
 10
220.66517305345
 20
199.37269858935
 30
0.0
 11
220.48573196996
 21
198.644822133018
 31
0.0
  0
LINE
  8
FRAME
 10
220.48573196996
 20
198.644822133018
 30
0.0
 11
220.317814631547
 21
197.88010382965
 31
0.0
  0
LINE
  8
FRAME
 10
220.317814631547
 20
197.88010382965
 30
0.0
 11
220.161231722703
 21
197.080071932125
 31
0.0
  0
LINE
  8
FRAME
 10
220.161231722703
 20
197.080071932125
 30
0.0
 11
220.015734581354
 21
196.246216454659
 31
0.0
  0
LINE
  8
FRAME
 10
220.015734581354
 20
196.246216454659
 30
0.0
 11
219.881616004921
 21
195.383766737872
 31
0.0
  0
LINE
  8
FRAME
 10
219.881616004921
 20
195.383766737872
 30
0.0
 11
219.642652158904
 21
193.555522770619
 31
0.0
  0
LINE
  8
FRAME
 10
219.642652158904
 20
193.555522770619
 30
0.0
 11
219.443177648521
 21
191.61903306249
 31
0.0
  0
LINE
  8
FRAME
 10
219.443177648521
 20
191.61903306249
 30
0.0
 11
219.279415230031
 21
189.580563597319
 31
0.0
  0
LINE
  8
FRAME
 10
219.279415230031
 20
189.580563597319
 30
0.0
 11
219.148206673746
 21
187.453815999822
 31
0.0
  0
LINE
  8
FRAME
 10
219.148206673746
 20
187.453815999822
 30
0.0
 11
218.968593790807
 21
182.961875792081
 31
0.0
  0
LINE
  8
FRAME
 10
218.968593790807
 20
182.961875792081
 30
0.0
 11
218.836978195971
 21
168.337920809753
 31
0.0
  0
LINE
  8
FRAME
 10
218.836978195971
 20
168.337920809753
 30
0.0
 11
218.968593790813
 21
153.713965827386
 31
0.0
  0
LINE
  8
FRAME
 10
218.968593790813
 20
153.713965827386
 30
0.0
 11
219.148206673761
 21
149.222025619623
 31
0.0
  0
LINE
  8
FRAME
 10
219.148206673761
 20
149.222025619623
 30
0.0
 11
219.279415230051
 21
147.095278022118
 31
0.0
  0
LINE
  8
FRAME
 10
219.279415230051
 20
147.095278022118
 30
0.0
 11
219.443177648548
 21
145.056808556939
 31
0.0
  0
LINE
  8
FRAME
 10
219.443177648548
 20
145.056808556939
 30
0.0
 11
219.642652158941
 21
143.120318848802
 31
0.0
  0
LINE
  8
FRAME
 10
219.642652158941
 20
143.120318848802
 30
0.0
 11
219.881616004968
 21
141.292074881544
 31
0.0
  0
LINE
  8
FRAME
 10
219.881616004968
 20
141.292074881544
 30
0.0
 11
220.015734581408
 21
140.429625164755
 31
0.0
  0
LINE
  8
FRAME
 10
220.015734581408
 20
140.429625164755
 30
0.0
 11
220.161231722763
 21
139.595769687288
 31
0.0
  0
LINE
  8
FRAME
 10
220.161231722763
 20
139.595769687288
 30
0.0
 11
220.317814631614
 21
138.795737789762
 31
0.0
  0
LINE
  8
FRAME
 10
220.317814631614
 20
138.795737789762
 30
0.0
 11
220.485731970034
 21
138.031019486395
 31
0.0
  0
LINE
  8
FRAME
 10
220.485731970034
 20
138.031019486395
 30
0.0
 11
220.665173053533
 21
137.303143030064
 31
0.0
  0
LINE
  8
FRAME
 10
220.665173053533
 20
137.303143030064
 30
0.0
 11
220.856249617202
 21
136.613676925693
 31
0.0
  0
LINE
  8
FRAME
 10
220.856249617202
 20
136.613676925693
 30
0.0
 11
221.060394390652
 21
135.959672458594
 31
0.0
  0
LINE
  8
FRAME
 10
221.060394390652
 20
135.959672458594
 30
0.0
 11
221.164698852548
 21
135.654517305059
 31
0.0
  0
LINE
  8
FRAME
 10
221.164698852548
 20
135.654517305059
 30
0.0
 11
221.273295101503
 21
135.355782612554
 31
0.0
  0
LINE
  8
FRAME
 10
221.273295101503
 20
135.355782612554
 30
0.0
 11
221.384941465545
 21
135.067065506535
 31
0.0
  0
LINE
  8
FRAME
 10
221.384941465545
 20
135.067065506535
 30
0.0
 11
221.4997241168
 21
134.787340571327
 31
0.0
  0
LINE
  8
FRAME
 10
221.4997241168
 20
134.787340571327
 30
0.0
 11
221.61757268973
 21
134.515852990364
 31
0.0
  0
LINE
  8
FRAME
 10
221.61757268973
 20
134.515852990364
 30
0.0
 11
221.738386567026
 21
134.251952310414
 31
0.0
  0
LINE
  8
FRAME
 10
221.738386567026
 20
134.251952310414
 30
0.0
 11
221.862074215082
 21
133.99499018102
 31
0.0
  0
LINE
  8
FRAME
 10
221.862074215082
 20
133.99499018102
 30
0.0
 11
221.986641324465
 21
133.748108683691
 31
0.0
  0
LINE
  8
FRAME
 10
221.986641324465
 20
133.748108683691
 30
0.0
 11
222.24993192358
 21
133.258872598786
 31
0.0
  0
LINE
  8
FRAME
 10
222.24993192358
 20
133.258872598786
 30
0.0
 11
222.52125531444
 21
132.79140011774
 31
0.0
  0
LINE
  8
FRAME
 10
222.52125531444
 20
132.79140011774
 30
0.0
 11
222.797830165663
 21
132.343820816648
 31
0.0
  0
LINE
  8
FRAME
 10
222.797830165663
 20
132.343820816648
 30
0.0
 11
224.958278270283
 21
129.1352603578
 31
0.0
  0
LINE
  8
FRAME
 10
224.958278270283
 20
129.1352603578
 30
0.0
 11
225.281494230142
 21
128.615880643329
 31
0.0
  0
LINE
  8
FRAME
 10
225.281494230142
 20
128.615880643329
 30
0.0
 11
225.597869771598
 21
128.077109605227
 31
0.0
  0
LINE
  8
FRAME
 10
225.597869771598
 20
128.077109605227
 30
0.0
 11
225.909292447221
 21
127.508787220225
 31
0.0
  0
LINE
  8
FRAME
 10
225.909292447221
 20
127.508787220225
 30
0.0
 11
226.211652844326
 21
126.911269242261
 31
0.0
  0
LINE
  8
FRAME
 10
226.211652844326
 20
126.911269242261
 30
0.0
 11
226.362431604259
 21
126.59302090859
 31
0.0
  0
LINE
  8
FRAME
 10
226.362431604259
 20
126.59302090859
 30
0.0
 11
226.508913402384
 21
126.268912953508
 31
0.0
  0
LINE
  8
FRAME
 10
226.508913402384
 20
126.268912953508
 30
0.0
 11
226.652675053423
 21
125.934678352891
 31
0.0
  0
LINE
  8
FRAME
 10
226.652675053423
 20
125.934678352891
 30
0.0
 11
226.793494239459
 21
125.589863743752
 31
0.0
  0
LINE
  8
FRAME
 10
226.793494239459
 20
125.589863743752
 30
0.0
 11
226.931157138524
 21
125.234013288173
 31
0.0
  0
LINE
  8
FRAME
 10
226.931157138524
 20
125.234013288173
 30
0.0
 11
227.065458367211
 21
124.866667575815
 31
0.0
  0
LINE
  8
FRAME
 10
227.065458367211
 20
124.866667575815
 30
0.0
 11
227.196200696646
 21
124.487362666816
 31
0.0
  0
LINE
  8
FRAME
 10
227.196200696646
 20
124.487362666816
 30
0.0
 11
227.32319457976
 21
124.095629301896
 31
0.0
  0
LINE
  8
FRAME
 10
227.32319457976
 20
124.095629301896
 30
0.0
 11
227.446257531996
 21
123.690992295038
 31
0.0
  0
LINE
  8
FRAME
 10
227.446257531996
 20
123.690992295038
 30
0.0
 11
227.566419735776
 21
123.268730965648
 31
0.0
  0
LINE
  8
FRAME
 10
227.566419735776
 20
123.268730965648
 30
0.0
 11
227.790216396848
 21
122.394899552381
 31
0.0
  0
LINE
  8
FRAME
 10
227.790216396848
 20
122.394899552381
 30
0.0
 11
227.996698328067
 21
121.457277414315
 31
0.0
  0
LINE
  8
FRAME
 10
227.996698328067
 20
121.457277414315
 30
0.0
 11
228.18350293808
 21
120.456078177079
 31
0.0
  0
LINE
  8
FRAME
 10
228.18350293808
 20
120.456078177079
 30
0.0
 11
228.349397911843
 21
119.387127387214
 31
0.0
  0
LINE
  8
FRAME
 10
228.349397911843
 20
119.387127387214
 30
0.0
 11
228.493163366275
 21
118.246174228695
 31
0.0
  0
LINE
  8
FRAME
 10
228.493163366275
 20
118.246174228695
 30
0.0
 11
228.613579394978
 21
117.028906718666
 31
0.0
  0
LINE
  8
FRAME
 10
228.613579394978
 20
117.028906718666
 30
0.0
 11
228.709417859895
 21
115.730966296841
 31
0.0
  0
LINE
  8
FRAME
 10
228.709417859895
 20
115.730966296841
 30
0.0
 11
228.745856268302
 21
115.011247708039
 31
0.0
  0
LINE
  8
FRAME
 10
228.745856268302
 20
115.011247708039
 30
0.0
 11
228.709417859782
 21
115.608473925307
 31
0.0
  0
ARC
  8
FRAME
 10
254.074275267859
 20
112.923196495998
 30
0.0
 40
25.5066012280042
 50
173.956831200629
 51
238.12778928505
  0
ARC
  8
FRAME
 10
236.608241897767
 20
76.8037108562994
 30
0.0
 40
15.0011060634863
 50
-30.003268153687
 51
74.5435927510732
  0
ARC
  8
FRAME
 10
236.608771923848
 20
76.8024168102365
 30
0.0
 40
14.9999999999999
 50
210.0
 51
330.0
  0
ARC
  8
FRAME
 10
236.608771923849
 20
76.8024168102365
 30
0.0
 40
15.0000000000003
 50
132.658077947262
 51
210.0
  0
POLYLINE
  8
FRAME
 66
     1
 10
0.0
 20
0.0
 30
0.0
 70
     0
  0
VERTEX
  8
FRAME
 10
205.112422595342
 20
218.30363077785
 42
0.1953047288489
  0
VERTEX
  8
FRAME
 10
226.444445408974
 20
248.719773545725
 42
0.0
  0
SEQEND
  0
ARC
  8
FRAME
 10
236.608771923849
 20
76.8024168102365
 30
0.0
 40
15.0000000000003
 50
132.658077947262
 51
210.0
  0
ARC
  8
FRAME
 10
236.608771923848
 20
76.8024168102365
 30
0.0
 40
14.9999999999999
 50
210.0
 51
330.0
  0
ARC
  8
FRAME
 10
236.608241897767
 20
76.8037108562994
 30
0.0
 40
15.0011060634863
 50
329.996731846313
 51
434.543592751073
  0
ARC
  8
FRAME
 10
254.074275267859
 20
112.923196495998
 30
0.0
 40
25.5066012280042
 50
173.956831200629
 51
238.12778928505
  0
POLYLINE
  8
FRAME
 66
     1
 10
0.0
 20
0.0
 30
0.0
 70
     0
  0
VERTEX
  8
FRAME
 10
226.444445408974
 20
87.8335757021675
 42
0.1953047288489
  0
VERTEX
  8
FRAME
 10
205.112422595342
 20
118.249718470041
 42
0.0
  0
SEQEND
  0
POLYLINE
  8
FRAME
 66
     1
 10
0.0
 20
0.0
 30
0.0
 70
     0
  0
VERTEX
  8
FRAME
 10
205.112422595342
 20
118.249718470041
 42
-0.1953047288489
  0
VERTEX
  8
FRAME
 10
226.444445408974
 20
87.8335757021675
 42
0.0
  0
SEQEND
  0
POLYLINE
  8
FRAME
 66
     1
 10
0.0
 20
0.0
 30
0.0
 70
     0
  0
VERTEX
  8
FRAME
 10
205.112422595342
 20
218.30363077785
 42
0.1953047288489
  0
VERTEX
  8
FRAME
 10
226.444445408974
 20
248.719773545725
 42
0.0
  0
SEQEND
  0
POLYLINE
  8
FRAME
 66
     1
 10
0.0
 20
0.0
 30
0.0
 70
     0
  0
VERTEX
  8
FRAME
 10
205.112422595342
 20
218.30363077785
 42
0.0
  0
VERTEX
  8
FRAME
 10
205.112422595342
 20
118.249718470042
 42
0.0
  0
SEQEND
  0
POLYLINE
  8
FRAME
 66
     1
 10
0.0
 20
0.0
 30
0.0
 70
     0
  0
VERTEX
  8
FRAME
 10
260.571124537713
 20
84.3712142164618
 42
0.2114676802582
  0
VERTEX
  8
FRAME
 10
236.614433120188
 20
116.369155301774
 42
0.0
  0
SEQEND
  0
POLYLINE
  8
FRAME
 66
     1
 10
0.0
 20
0.0
 30
0.0
 70
     0
  0
VERTEX
  8
FRAME
 10
236.614433120188
 20
212.72582957325
 42
0.2178714015189
  0
VERTEX
  8
FRAME
 10
261.632508577334
 20
245.302357960262
 42
0.0
  0
SEQEND
  0
POLYLINE
  8
FRAME
 66
     1
 10
0.0
 20
0.0
 30
0.0
 70
     0
  0
VERTEX
  8
FRAME
 10
236.614433120188
 20
116.369155301774
 42
0.0
  0
VERTEX
  8
FRAME
 10
236.614433120188
 20
212.72582957325
 42
0.0
  0
SEQEND
  0
POLYLINE
  8
FRAME
 66
     1
 10
0.0
 20
0.0
 30
0.0
 70
     1
  0
VERTEX
  8
FRAME
 10
45.41594435642
 20
277.538848923953
 42
0.4142135623731
  0
VERTEX
  8
FRAME
 10
42.41594435642
 20
274.538848923953
 42
0.0
  0
VERTEX
  8
FRAME
 10
42.4159443564195
 20
270.623283203054
 42
0.0
  0
VERTEX
  8
FRAME
 10
45.4516407751005
 20
270.623283203054
 42
0.0
  0
VERTEX
  8
FRAME
 10
45.4516407751008
 20
266.623283203054
 42
0.0
  0
VERTEX
  8
FRAME
 10
42.4159443564199
 20
266.623283203055
 42
0.0
  0
VERTEX
  8
FRAME
 10
42.41594435642
 20
262.938848923953
 42
0.4142135623731
  0
VERTEX
  8
FRAME
 10
45.41594435642
 20
259.938848923953
 42
0.0
  0
VERTEX
  8
FRAME
 10
103.791833141223
 20
259.938848923953
 42
0.0
  0
VERTEX
  8
FRAME
 10
103.77983574
 20
259.938848923953
 42
0.0
  0
VERTEX
  8
FRAME
 10
103.77983574
 20
264.938848923953
 42
0.0
  0
VERTEX
  8
FRAME
 10
112.77983574
 20
264.938848923953
 42
0.0
  0
VERTEX
  8
FRAME
 10
112.77983574
 20
272.538848923953
 42
0.0
  0
VERTEX
  8
FRAME
 10
103.77983574
 20
272.538848923953
 42
0.0
  0
VERTEX
  8
FRAME
 10
103.77983574
 20
277.538848923953
 42
0.0
  0
VERTEX
  8
FRAME
 10
103.791833141223
 20
277.538848923953
 42
0.0
  0
SEQEND
  0
POLYLINE
  8
FRAME
 66
     1
 10
0.0
 20
0.0
 30
0.0
 70
     1
  0
VERTEX
  8
FRAME
 10
181.408587872959
 20
97.9162238071822
 42
0.4142135623731
  0
VERTEX
  8
FRAME
 10
184.408587872959
 20
94.9162238071822
 42
0.0
  0
VERTEX
  8
FRAME
 10
196.008587872958
 20
94.9162238071822
 42
0.4142135623731
  0
VERTEX
  8
FRAME
 10
199.008587872958
 20
97.9162238071822
 42
0.0
  0
VERTEX
  8
FRAME
 10
199.008587872958
 20
156.292112591985
 42
0.0
  0
VERTEX
  8
FRAME
 10
199.014766245593
 20
156.280085158073
 42
0.0
  0
VERTEX
  8
FRAME
 10
194.014766245593
 20
156.280085158073
 42
0.0
  0
VERTEX
  8
FRAME
 10
194.014766245593
 20
165.280085158073
 42
0.0
  0
VERTEX
  8
FRAME
 10
192.224894481664
 20
165.280085158073
 42
0.0
  0
VERTEX
  8
FRAME
 10
192.218716109029
 20
165.292112591985
 42
0.0
  0
VERTEX
  8
FRAME
 10
192.218716109028
 20
97.803804194499
 42
0.0
  0
VERTEX
  8
FRAME
 10
188.218716109028
 20
97.803804194499
 42
0.0
  0
VERTEX
  8
FRAME
 10
188.218716109028
 20
165.292112591986
 42
0.0
  0
VERTEX
  8
FRAME
 10
188.224894481664
 20
165.280085158074
 42
0.0
  0
VERTEX
  8
FRAME
 10
186.414766245594
 20
165.280085158073
 42
0.0
  0
VERTEX
  8
FRAME
 10
186.414766245594
 20
156.280085158073
 42
0.0
  0
VERTEX
  8
FRAME
 10
181.414766245594
 20
156.280085158073
 42
0.0
  0
VERTEX
  8
FRAME
 10
181.408587872959
 20
156.292112591985
 42
0.0
  0
SEQEND
  0
POLYLINE
  8
FRAME
 66
     1
 10
0.0
 20
0.0
 30
0.0
 70
     1
  0
VERTEX
  8
FRAME
 10
118.442597689159
 20
278.265482290448
 42
0.4142135623731
  0
VERTEX
  8
FRAME
 10
115.442597689159
 20
275.265482290448
 42
0.0
  0
VERTEX
  8
FRAME
 10
115.442597689158
 20
271.349916569549
 42
0.0
  0
VERTEX
  8
FRAME
 10
118.478294107839
 20
271.349916569549
 42
0.0
  0
VERTEX
  8
FRAME
 10
118.478294107839
 20
267.349916569549
 42
0.0
  0
VERTEX
  8
FRAME
 10
115.442597689158
 20
267.34991656955
 42
0.0
  0
VERTEX
  8
FRAME
 10
115.442597689159
 20
263.665482290448
 42
0.4142135623731
  0
VERTEX
  8
FRAME
 10
118.442597689159
 20
260.665482290448
 42
0.0
  0
VERTEX
  8
FRAME
 10
176.818486473962
 20
260.665482290448
 42
0.0
  0
VERTEX
  8
FRAME
 10
176.806489072738
 20
260.665482290448
 42
0.0
  0
VERTEX
  8
FRAME
 10
176.806489072738
 20
265.665482290448
 42
0.0
  0
VERTEX
  8
FRAME
 10
185.806489072738
 20
265.665482290448
 42
0.0
  0
VERTEX
  8
FRAME
 10
185.806489072738
 20
273.265482290448
 42
0.0
  0
VERTEX
  8
FRAME
 10
176.806489072738
 20
273.265482290448
 42
0.0
  0
VERTEX
  8
FRAME
 10
176.806489072738
 20
278.265482290448
 42
0.0
  0
VERTEX
  8
FRAME
 10
176.818486473962
 20
278.265482290448
 42
0.0
  0
SEQEND
  0
POLYLINE
  8
FRAME
 66
     1
 10
0.0
 20
0.0
 30
0.0
 70
     1
  0
VERTEX
  8
FRAME
 10
116.262698344978
 20
75.8981598390165
 42
0.4142135623731
  0
VERTEX
  8
FRAME
 10
113.262698344978
 20
72.8981598390165
 42
0.0
  0
VERTEX
  8
FRAME
 10
113.262698344977
 20
68.9825941181182
 42
0.0
  0
VERTEX
  8
FRAME
 10
116.298394763658
 20
68.9825941181183
 42
0.0
  0
VERTEX
  8
FRAME
 10
116.298394763659
 20
64.9825941181182
 42
0.0
  0
VERTEX
  8
FRAME
 10
113.262698344978
 20
64.9825941181185
 42
0.0
  0
VERTEX
  8
FRAME
 10
113.262698344978
 20
61.2981598390164
 42
0.4142135623731
  0
VERTEX
  8
FRAME
 10
116.262698344978
 20
58.2981598390164
 42
0.0
  0
VERTEX
  8
FRAME
 10
174.638587129781
 20
58.2981598390164
 42
0.0
  0
VERTEX
  8
FRAME
 10
174.626589728558
 20
58.2981598390164
 42
0.0
  0
VERTEX
  8
FRAME
 10
174.626589728558
 20
63.2981598390164
 42
0.0
  0
VERTEX
  8
FRAME
 10
183.626589728558
 20
63.2981598390164
 42
0.0
  0
VERTEX
  8
FRAME
 10
183.626589728558
 20
70.8981598390165
 42
0.0
  0
VERTEX
  8
FRAME
 10
174.626589728558
 20
70.8981598390165
 42
0.0
  0
VERTEX
  8
FRAME
 10
174.626589728558
 20
75.8981598390165
 42
0.0
  0
VERTEX
  8
FRAME
 10
174.638587129781
 20
75.8981598390165
 42
0.0
  0
SEQEND
  0
POLYLINE
  8
FRAME
 66
     1
 10
0.0
 20
0.0
 30
0.0
 70
     1
  0
VERTEX
  8
FRAME
 10
43.2360450122394
 20
75.1715264725215
 42
0.4142135623731
  0
VERTEX
  8
FRAME
 10
40.2360450122394
 20
72.1715264725215
 42
0.0
  0
VERTEX
  8
FRAME
 10
40.2360450122389
 20
68.2559607516232
 42
0.0
  0
VERTEX
  8
FRAME
 10
43.2717414309199
 20
68.2559607516233
 42
0.0
  0
VERTEX
  8
FRAME
 10
43.2717414309202
 20
64.2559607516233
 42
0.0
  0
VERTEX
  8
FRAME
 10
40.2360450122393
 20
64.2559607516236
 42
0.0
  0
VERTEX
  8
FRAME
 10
40.2360450122394
 20
60.5715264725215
 42
0.4142135623731
  0
VERTEX
  8
FRAME
 10
43.2360450122394
 20
57.5715264725215
 42
0.0
  0
VERTEX
  8
FRAME
 10
101.611933797042
 20
57.5715264725215
 42
0.0
  0
VERTEX
  8
FRAME
 10
101.599936395819
 20
57.5715264725215
 42
0.0
  0
VERTEX
  8
FRAME
 10
101.599936395819
 20
62.5715264725215
 42
0.0
  0
VERTEX
  8
FRAME
 10
110.599936395819
 20
62.5715264725215
 42
0.0
  0
VERTEX
  8
FRAME
 10
110.599936395819
 20
70.1715264725215
 42
0.0
  0
VERTEX
  8
FRAME
 10
101.599936395819
 20
70.1715264725215
 42
0.0
  0
VERTEX
  8
FRAME
 10
101.599936395819
 20
75.1715264725215
 42
0.0
  0
VERTEX
  8
FRAME
 10
101.611933797042
 20
75.1715264725215
 42
0.0
  0
SEQEND
  0
POLYLINE
  8
FRAME
 66
     1
 10
0.0
 20
0.0
 30
0.0
 70
     1
  0
VERTEX
  8
FRAME
 10
44.4191537133009
 20
162.544454960231
 42
0.4142135623731
  0
VERTEX
  8
FRAME
 10
47.4191537133009
 20
159.544454960231
 42
0.0
  0
VERTEX
  8
FRAME
 10
59.0191537132999
 20
159.544454960231
 42
0.4142135623731
  0
VERTEX
  8
FRAME
 10
62.0191537132999
 20
162.544454960231
 42
0.0
  0
VERTEX
  8
FRAME
 10
62.0191537132999
 20
220.920343745034
 42
0.0
  0
VERTEX
  8
FRAME
 10
62.0253320859348
 20
220.908316311122
 42
0.0
  0
VERTEX
  8
FRAME
 10
57.0253320859348
 20
220.908316311122
 42
0.0
  0
VERTEX
  8
FRAME
 10
57.0253320859348
 20
229.908316311122
 42
0.0
  0
VERTEX
  8
FRAME
 10
55.2354603220057
 20
229.908316311122
 42
0.0
  0
VERTEX
  8
FRAME
 10
55.2292819493705
 20
229.920343745034
 42
0.0
  0
VERTEX
  8
FRAME
 10
55.2292819493705
 20
162.432035347548
 42
0.0
  0
VERTEX
  8
FRAME
 10
51.2292819493705
 20
162.432035347548
 42
0.0
  0
VERTEX
  8
FRAME
 10
51.2292819493704
 20
229.920343745035
 42
0.0
  0
VERTEX
  8
FRAME
 10
51.2354603220055
 20
229.908316311123
 42
0.0
  0
VERTEX
  8
FRAME
 10
49.4253320859358
 20
229.908316311122
 42
0.0
  0
VERTEX
  8
FRAME
 10
49.4253320859358
 20
220.908316311122
 42
0.0
  0
VERTEX
  8
FRAME
 10
44.4253320859358
 20
220.908316311122
 42
0.0
  0
VERTEX
  8
FRAME
 10
44.4191537133009
 20
220.920343745034
 42
0.0
  0
SEQEND
  0
POLYLINE
  8
FRAME
 66
     1
 10
0.0
 20
0.0
 30
0.0
 70
     1
  0
VERTEX
  8
FRAME
 10
156.683969938601
 20
132.389180699067
 42
0.4142135623731
  0
VERTEX
  8
FRAME
 10
159.683969938601
 20
129.389180699067
 42
0.0
  0
VERTEX
  8
FRAME
 10
171.2839699386
 20
129.389180699067
 42
0.4142135623731
  0
VERTEX
  8
FRAME
 10
174.2839699386
 20
132.389180699067
 42
0.0
  0
VERTEX
  8
FRAME
 10
174.2839699386
 20
190.76506948387
 42
0.0
  0
VERTEX
  8
FRAME
 10
174.290148311235
 20
190.753042049957
 42
0.0
  0
VERTEX
  8
FRAME
 10
169.290148311235
 20
190.753042049957
 42
0.0
  0
VERTEX
  8
FRAME
 10
169.290148311235
 20
199.753042049957
 42
0.0
  0
VERTEX
  8
FRAME
 10
167.500276547306
 20
199.753042049958
 42
0.0
  0
VERTEX
  8
FRAME
 10
167.494098174671
 20
199.76506948387
 42
0.0
  0
VERTEX
  8
FRAME
 10
167.494098174671
 20
132.276761086383
 42
0.0
  0
VERTEX
  8
FRAME
 10
163.494098174671
 20
132.276761086383
 42
0.0
  0
VERTEX
  8
FRAME
 10
163.494098174671
 20
199.76506948387
 42
0.0
  0
VERTEX
  8
FRAME
 10
163.500276547306
 20
199.753042049958
 42
0.0
  0
VERTEX
  8
FRAME
 10
161.690148311236
 20
199.753042049957
 42
0.0
  0
VERTEX
  8
FRAME
 10
161.690148311236
 20
190.753042049957
 42
0.0
  0
VERTEX
  8
FRAME
 10
156.690148311236
 20
190.753042049957
 42
0.0
  0
VERTEX
  8
FRAME
 10
156.683969938601
 20
190.76506948387
 42
0.0
  0
SEQEND
  0
POLYLINE
  8
FRAME
 66
     1
 10
0.0
 20
0.0
 30
0.0
 70
     1
  0
VERTEX
  8
FRAME
 10
181.045271315595
 20
174.212700853503
 42
0.4142135623731
  0
VERTEX
  8
FRAME
 10
184.045271315595
 20
171.212700853503
 42
0.0
  0
VERTEX
  8
FRAME
 10
195.645271315594
 20
171.212700853503
 42
0.4142135623731
  0
VERTEX
  8
FRAME
 10
198.645271315594
 20
174.212700853503
 42
0.0
  0
VERTEX
  8
FRAME
 10
198.645271315594
 20
232.588589638306
 42
0.0
  0
VERTEX
  8
FRAME
 10
198.651449688229
 20
232.576562204394
 42
0.0
  0
VERTEX
  8
FRAME
 10
193.651449688229
 20
232.576562204394
 42
0.0
  0
VERTEX
  8
FRAME
 10
193.651449688229
 20
241.576562204394
 42
0.0
  0
VERTEX
  8
FRAME
 10
191.8615779243
 20
241.576562204394
 42
0.0
  0
VERTEX
  8
FRAME
 10
191.855399551665
 20
241.588589638306
 42
0.0
  0
VERTEX
  8
FRAME
 10
191.855399551665
 20
174.10028124082
 42
0.0
  0
VERTEX
  8
FRAME
 10
187.855399551665
 20
174.10028124082
 42
0.0
  0
VERTEX
  8
FRAME
 10
187.855399551665
 20
241.588589638306
 42
0.0
  0
VERTEX
  8
FRAME
 10
187.8615779243
 20
241.576562204394
 42
0.0
  0
VERTEX
  8
FRAME
 10
186.05144968823
 20
241.576562204394
 42
0.0
  0
VERTEX
  8
FRAME
 10
186.05144968823
 20
232.576562204394
 42
0.0
  0
VERTEX
  8
FRAME
 10
181.05144968823
 20
232.576562204394
 42
0.0
  0
VERTEX
  8
FRAME
 10
181.045271315595
 20
232.588589638306
 42
0.0
  0
SEQEND
  0
CIRCLE
  8
CORTES_INTERIORES
 10
37.734358051969
 20
235.245969712372
 30
0.0
 40
1.5
  0
CIRCLE
  8
CORTES_INTERIORES
 10
37.065212736615
 20
222.8698756612
 30
0.0
 40
1.5
  0
POLYLINE
  8
CORTES_INTERIORES
 66
     1
 10
0.0
 20
0.0
 30
0.0
 70
     1
  0
VERTEX
  8
CORTES_INTERIORES
 10
11.1957220467234
 20
220.801065599287
 42
0.5773502691896
  0
VERTEX
  8
CORTES_INTERIORES
 10
8.9457220467234
 20
222.100103704964
 42
0.5773502691896
  0
VERTEX
  8
CORTES_INTERIORES
 10
8.9457220467234
 20
219.50202749361
 42
0.5773502691896
  0
SEQEND
  0
POLYLINE
  8
CORTES_INTERIORES
 66
     1
 10
0.0
 20
0.0
 30
0.0
 70
     1
  0
VERTEX
  8
CORTES_INTERIORES
 10
10.5207220362124
 20
233.177159594923
 42
0.5773502691896
  0
VERTEX
  8
CORTES_INTERIORES
 10
8.2707220362124
 20
234.4761977006
 42
0.5773502691896
  0
VERTEX
  8
CORTES_INTERIORES
 10
8.2707220362124
 20
231.878121489246
 42
0.5773502691896
  0
SEQEND
  0
CIRCLE
  8
CORTES_INTERIORES
 10
195.110520335177
 20
81.7186257827537
 30
0.0
 40
0.0
  0
CIRCLE
  8
CORTES_INTERIORES
 10
195.110520335177
 20
81.7186257827537
 30
0.0
 40
1.0
  0
CIRCLE
  8
CORTES_INTERIORES
 10
211.110520335177
 20
81.7186257827537
 30
0.0
 40
1.0
  0
CIRCLE
  8
CORTES_INTERIORES
 10
211.651548994361
 20
81.1036884903553
 30
0.0
 40
0.0
  0
CIRCLE
  8
CORTES_INTERIORES
 10
195.110520335177
 20
65.7186257827537
 30
0.0
 40
1.0
  0
CIRCLE
  8
CORTES_INTERIORES
 10
26.6585745318587
 20
83.1497592269571
 30
0.0
 40
1.0
  0
CIRCLE
  8
CORTES_INTERIORES
 10
26.6585745318587
 20
67.1497592269571
 30
0.0
 40
1.0
  0
CIRCLE
  8
CORTES_INTERIORES
 10
10.6585745318587
 20
67.1497592269571
 30
0.0
 40
1.0
  0
CIRCLE
  8
CORTES_INTERIORES
 10
10.6585745318587
 20
83.1497592269571
 30
0.0
 40
1.0
  0
POLYLINE
  8
CORTES_INTERIORES
 66
     1
 10
0.0
 20
0.0
 30
0.0
 70
     1
  0
VERTEX
  8
CORTES_INTERIORES
 10
18.3828848022833
 20
78.7348655267757
 42
0.0
  0
VERTEX
  8
CORTES_INTERIORES
 10
19.050521371431
 20
78.0590242646907
 42
0.0
  0
VERTEX
  8
CORTES_INTERIORES
 10
19.7263626335161
 20
78.7266608338383
 42
0.0
  0
VERTEX
  8
CORTES_INTERIORES
 10
23.3105168468353
 20
75.098460374224
 42
0.0
  0
VERTEX
  8
CORTES_INTERIORES
 10
22.6346755847502
 20
74.4308238050762
 42
0.0
  0
VERTEX
  8
CORTES_INTERIORES
 10
23.3023121538979
 20
73.7549825429912
 42
0.0
  0
VERTEX
  8
CORTES_INTERIORES
 10
19.6741116942836
 20
70.170828329672
 42
0.0
  0
VERTEX
  8
CORTES_INTERIORES
 10
19.0064751251359
 20
70.8466695917571
 42
0.0
  0
VERTEX
  8
CORTES_INTERIORES
 10
18.3306338630509
 20
70.1790330226094
 42
0.0
  0
VERTEX
  8
CORTES_INTERIORES
 10
14.7464796497316
 20
73.8072334822236
 42
0.0
  0
VERTEX
  8
CORTES_INTERIORES
 10
15.4223209118166
 20
74.4748700513713
 42
0.0
  0
VERTEX
  8
CORTES_INTERIORES
 10
14.7546843426689
 20
75.1507113134564
 42
0.0
  0
SEQEND
  0
CIRCLE
  8
CORTES_INTERIORES
 10
211.110520335177
 20
65.7186257827537
 30
0.0
 40
1.0
  0
CIRCLE
  8
CORTES_INTERIORES
 10
212.192343264565
 20
65.1256759615852
 30
0.0
 40
0.0
  0
POLYLINE
  8
CORTES_INTERIORES
 66
     1
 10
0.0
 20
0.0
 30
0.0
 70
     1
  0
VERTEX
  8
CORTES_INTERIORES
 10
202.539375409285
 20
78.8963741914561
 42
0.0
  0
VERTEX
  8
CORTES_INTERIORES
 10
203.207011978433
 20
78.2205329293711
 42
0.0
  0
VERTEX
  8
CORTES_INTERIORES
 10
203.882853240518
 20
78.8881694985188
 42
0.0
  0
VERTEX
  8
CORTES_INTERIORES
 10
207.467007453837
 20
75.2599690389044
 42
0.0
  0
VERTEX
  8
CORTES_INTERIORES
 10
206.791166191752
 20
74.5923324697567
 42
0.0
  0
VERTEX
  8
CORTES_INTERIORES
 10
207.4588027609
 20
73.9164912076716
 42
0.0
  0
VERTEX
  8
CORTES_INTERIORES
 10
203.830602301286
 20
70.3323369943524
 42
0.0
  0
VERTEX
  8
CORTES_INTERIORES
 10
203.162965732138
 20
71.0081782564375
 42
0.0
  0
VERTEX
  8
CORTES_INTERIORES
 10
202.487124470053
 20
70.3405416872897
 42
0.0
  0
VERTEX
  8
CORTES_INTERIORES
 10
198.902970256734
 20
73.9687421469041
 42
0.0
  0
VERTEX
  8
CORTES_INTERIORES
 10
199.578811518819
 20
74.6363787160518
 42
0.0
  0
VERTEX
  8
CORTES_INTERIORES
 10
198.911174949671
 20
75.3122199781369
 42
0.0
  0
SEQEND
  0
POLYLINE
  8
CORTES_INTERIORES
 66
     1
 10
0.0
 20
0.0
 30
0.0
 70
     1
  0
VERTEX
  8
CORTES_INTERIORES
 10
201.995910487958
 20
267.326025709692
 42
0.0
  0
VERTEX
  8
CORTES_INTERIORES
 10
202.663547057105
 20
266.650184447607
 42
0.0
  0
VERTEX
  8
CORTES_INTERIORES
 10
203.33938831919
 20
267.317821016755
 42
0.0
  0
VERTEX
  8
CORTES_INTERIORES
 10
206.92354253251
 20
263.689620557141
 42
0.0
  0
VERTEX
  8
CORTES_INTERIORES
 10
206.247701270424
 20
263.021983987993
 42
0.0
  0
VERTEX
  8
CORTES_INTERIORES
 10
206.915337839572
 20
262.346142725908
 42
0.0
  0
VERTEX
  8
CORTES_INTERIORES
 10
203.287137379958
 20
258.761988512589
 42
0.0
  0
VERTEX
  8
CORTES_INTERIORES
 10
202.61950081081
 20
259.437829774674
 42
0.0
  0
VERTEX
  8
CORTES_INTERIORES
 10
201.943659548725
 20
258.770193205526
 42
0.0
  0
VERTEX
  8
CORTES_INTERIORES
 10
198.359505335406
 20
262.39839366514
 42
0.0
  0
VERTEX
  8
CORTES_INTERIORES
 10
199.035346597491
 20
263.066030234288
 42
0.0
  0
VERTEX
  8
CORTES_INTERIORES
 10
198.367710028343
 20
263.741871496373
 42
0.0
  0
SEQEND
  0
POLYLINE
  8
CORTES_INTERIORES
 66
     1
 10
0.0
 20
0.0
 30
0.0
 70
     1
  0
VERTEX
  8
CORTES_INTERIORES
 10
18.9683505298778
 20
266.13538020624
 42
0.0
  0
VERTEX
  8
CORTES_INTERIORES
 10
19.6359870990255
 20
265.459538944155
 42
0.0
  0
VERTEX
  8
CORTES_INTERIORES
 10
20.3118283611106
 20
266.127175513303
 42
0.0
  0
VERTEX
  8
CORTES_INTERIORES
 10
23.8959825744298
 20
262.498975053688
 42
0.0
  0
VERTEX
  8
CORTES_INTERIORES
 10
23.2201413123447
 20
261.831338484541
 42
0.0
  0
VERTEX
  8
CORTES_INTERIORES
 10
23.8877778814924
 20
261.155497222455
 42
0.0
  0
VERTEX
  8
CORTES_INTERIORES
 10
20.2595774218781
 20
257.571343009136
 42
0.0
  0
VERTEX
  8
CORTES_INTERIORES
 10
19.5919408527304
 20
258.247184271221
 42
0.0
  0
VERTEX
  8
CORTES_INTERIORES
 10
18.9160995906454
 20
257.579547702074
 42
0.0
  0
VERTEX
  8
CORTES_INTERIORES
 10
15.3319453773262
 20
261.207748161688
 42
0.0
  0
VERTEX
  8
CORTES_INTERIORES
 10
16.0077866394111
 20
261.875384730836
 42
0.0
  0
VERTEX
  8
CORTES_INTERIORES
 10
15.3401500702634
 20
262.551225992921
 42
0.0
  0
SEQEND
  0
CIRCLE
  8
CORTES_INTERIORES
 10
76.8837367534726
 20
167.193532403709
 30
0.0
 40
2.0
  0
POLYLINE
  8
CORTES_INTERIORES
 66
     1
 10
0.0
 20
0.0
 30
0.0
 70
     1
  0
VERTEX
  8
CORTES_INTERIORES
 10
11.1957220417814
 20
140.56511085303
 42
0.5773502691896
  0
VERTEX
  8
CORTES_INTERIORES
 10
8.9457220417813
 20
141.864148958707
 42
0.5773502691896
  0
VERTEX
  8
CORTES_INTERIORES
 10
8.9457220417813
 20
139.266072747353
 42
0.5773502691896
  0
SEQEND
  0
CIRCLE
  8
CORTES_INTERIORES
 10
58.4850817682406
 20
238.387296165573
 30
0.0
 40
1.5
  0
POLYLINE
  8
CORTES_INTERIORES
 66
     1
 10
0.0
 20
0.0
 30
0.0
 70
     1
  0
VERTEX
  8
CORTES_INTERIORES
 10
17.2207220442264
 20
187.923262239277
 42
0.5773502691896
  0
VERTEX
  8
CORTES_INTERIORES
 10
14.2207220442264
 20
189.655313046846
 42
0.5773502691896
  0
VERTEX
  8
CORTES_INTERIORES
 10
14.2207220442264
 20
186.191211431708
 42
0.5773502691896
  0
SEQEND
  0
CIRCLE
  8
CORTES_INTERIORES
 10
162.989810936747
 20
97.8063998136376
 30
0.0
 40
1.5
  0
CIRCLE
  8
CORTES_INTERIORES
 10
31.536089110871
 20
190.017262778481
 30
0.0
 40
2.0
  0
CIRCLE
  8
CORTES_INTERIORES
 10
37.065212736615
 20
142.633920970479
 30
0.0
 40
1.5
  0
CIRCLE
  8
CORTES_INTERIORES
 10
311.587859394793
 20
179.111253695408
 30
0.0
 40
2.791190511403
  0
CIRCLE
  8
CORTES_INTERIORES
 10
110.658736751027
 20
240.161470758625
 30
0.0
 40
2.0
  0
CIRCLE
  8
CORTES_INTERIORES
 10
144.429613125283
 20
167.218722825463
 30
0.0
 40
2.0
  0
CIRCLE
  8
CORTES_INTERIORES
 10
71.3587367510276
 20
119.835381017462
 30
0.0
 40
1.5
  0
CIRCLE
  8
CORTES_INTERIORES
 10
149.958736751027
 20
119.835381017462
 30
0.0
 40
1.5
  0
CIRCLE
  8
CORTES_INTERIORES
 10
272.287859398955
 20
132.063640928713
 30
0.0
 40
1.5
  0
CIRCLE
  8
CORTES_INTERIORES
 10
350.887859398955
 20
132.063640928713
 30
0.0
 40
1.5
  0
LINE
  8
CORTES_INTERIORES
 10
80.6587367510277
 20
221.106388733221
 30
0.0
 11
80.6587367510277
 21
203.788470769795
 31
0.0
  0
LINE
  8
CORTES_INTERIORES
 10
140.658736751027
 20
203.788470769795
 30
0.0
 11
140.658736751027
 21
221.106388733221
 31
0.0
  0
ARC
  8
CORTES_INTERIORES
 10
90.6587367510276
 20
221.106388733221
 30
0.0
 40
10.0
 50
90.0
 51
180.0
  0
ARC
  8
CORTES_INTERIORES
 10
130.658736751027
 20
221.106388733221
 30
0.0
 40
10.0
 50
0.0
 51
90.0
  0
LINE
  8
CORTES_INTERIORES
 10
337.587859381449
 20
191.07842749566
 30
0.0
 11
351.012359366616
 21
191.078427484484
 31
0.0
  0
LINE
  8
CORTES_INTERIORES
 10
351.012359364119
 20
188.07842749566
 30
0.0
 11
351.012359366616
 21
191.078427484484
 31
0.0
  0
LINE
  8
CORTES_INTERIORES
 10
337.587859381449
 20
188.07842749566
 30
0.0
 11
351.012359364119
 21
188.07842749566
 31
0.0
  0
LINE
  8
CORTES_INTERIORES
 10
351.012359373452
 20
160.069393894044
 30
0.0
 11
351.01235937595
 21
163.069393882868
 31
0.0
  0
LINE
  8
CORTES_INTERIORES
 10
337.587859390783
 20
160.069393894044
 30
0.0
 11
351.012359373452
 21
160.069393894044
 31
0.0
  0
LINE
  8
CORTES_INTERIORES
 10
272.163359397531
 20
191.07842749566
 30
0.0
 11
285.587859382698
 21
191.078427484484
 31
0.0
  0
LINE
  8
CORTES_INTERIORES
 10
272.163359397531
 20
188.07842749566
 30
0.0
 11
272.163359397531
 21
191.07842749566
 31
0.0
  0
LINE
  8
CORTES_INTERIORES
 10
272.163359403342
 20
160.05841761366
 30
0.0
 11
285.587859386012
 21
160.05841761366
 31
0.0
  0
LINE
  8
CORTES_INTERIORES
 10
272.163359403342
 20
160.05841761366
 30
0.0
 11
272.163359403342
 21
163.05841761366
 31
0.0
  0
LINE
  8
CORTES_INTERIORES
 10
272.163359403342
 20
163.05841761366
 30
0.0
 11
285.587859388509
 21
163.058417602484
 31
0.0
  0
LINE
  8
CORTES_INTERIORES
 10
272.163359397531
 20
188.07842749566
 30
0.0
 11
285.587859380201
 21
188.07842749566
 31
0.0
  0
LINE
  8
CORTES_INTERIORES
 10
337.587859390783
 20
160.069393894044
 30
0.0
 11
337.587859390783
 21
163.069393894044
 31
0.0
  0
LINE
  8
CORTES_INTERIORES
 10
351.01235937595
 20
163.069393882868
 30
0.0
 11
337.58785938726
 21
163.069393882868
 31
0.0
  0
ARC
  8
CORTES_INTERIORES
 10
93.4058229443906
 20
118.822503706553
 30
0.0
 40
10.0
 50
89.0134710963499
 51
270.0
  0
ARC
  8
CORTES_INTERIORES
 10
127.908736750111
 20
118.822503706553
 30
0.0
 40
10.0
 50
270.0
 51
450.0
  0
LINE
  8
CORTES_INTERIORES
 10
93.5779962122026
 20
128.821021414986
 30
0.0
 11
127.908736750111
 21
128.821021414986
 31
0.0
  0
CIRCLE
  8
CORTES_INTERIORES
 10
110.496029383701
 20
96.5879566072197
 30
0.0
 40
2.0
  0
LINE
  8
CORTES_INTERIORES
 10
93.4058229443906
 20
108.822503706553
 30
0.0
 11
127.908736750111
 21
108.822503706553
 31
0.0
  0
LINE
  8
CORTES_INTERIORES
 10
110.65873676427
 20
193.788470769795
 30
0.0
 11
90.6587367510276
 21
193.788470769795
 31
0.0
  0
LINE
  8
CORTES_INTERIORES
 10
110.65873676427
 20
193.788470769795
 30
0.0
 11
130.658736751027
 21
193.788470769795
 31
0.0
  0
ARC
  8
CORTES_INTERIORES
 10
90.6587367510276
 20
203.788470769795
 30
0.0
 40
10.0
 50
180.0
 51
270.0
  0
ARC
  8
CORTES_INTERIORES
 10
130.658736751027
 20
203.788470769795
 30
0.0
 40
10.0
 50
270.0
 51
360.0
  0
CIRCLE
  8
CORTES_INTERIORES
 10
272.287859384269
 20
212.299595619434
 30
0.0
 40
1.5
  0
CIRCLE
  8
CORTES_INTERIORES
 10
350.887859362031
 20
212.274397782447
 30
0.0
 40
1.5
  0
CIRCLE
  8
CORTES_INTERIORES
 10
71.3587367559696
 20
200.071335763719
 30
0.0
 40
1.5
  0
CIRCLE
  8
CORTES_INTERIORES
 10
149.958736751027
 20
200.071335708183
 30
0.0
 40
1.5
  0
LINE
  8
CORTES_INTERIORES
 10
295.667996109074
 20
144.029023057022
 30
0.0
 11
287.667996109074
 21
144.029023057022
 31
0.0
  0
LINE
  8
CORTES_INTERIORES
 10
287.667996109074
 20
132.029023057022
 30
0.0
 11
290.16799607295
 21
128.02902303896
 31
0.0
  0
LINE
  8
CORTES_INTERIORES
 10
293.16799607295
 20
128.02902303896
 30
0.0
 11
295.667996091012
 21
132.029023020898
 31
0.0
  0
LINE
  8
CORTES_INTERIORES
 10
287.667996109074
 20
144.029023057022
 30
0.0
 11
287.667996109074
 21
132.029023057022
 31
0.0
  0
LINE
  8
CORTES_INTERIORES
 10
290.16799607295
 20
128.02902303896
 30
0.0
 11
293.16799607295
 21
128.02902303896
 31
0.0
  0
LINE
  8
CORTES_INTERIORES
 10
295.667996109074
 20
144.029023057022
 30
0.0
 11
295.667996091012
 21
132.029023020898
 31
0.0
  0
CIRCLE
  8
CORTES_INTERIORES
 10
70.6837367454586
 20
212.447429759355
 30
0.0
 40
1.5
  0
CIRCLE
  8
CORTES_INTERIORES
 10
150.627882066381
 20
212.447429759355
 30
0.0
 40
1.5
  0
LINE
  8
CORTES_INTERIORES
 10
285.587859382698
 20
191.078427484484
 30
0.0
 11
285.587859382698
 21
188.07842749566
 31
0.0
  0
LINE
  8
CORTES_INTERIORES
 10
337.587859381449
 20
191.07842749566
 30
0.0
 11
337.587859381449
 21
188.07842749566
 31
0.0
  0
LINE
  8
CORTES_INTERIORES
 10
285.587859388509
 20
163.058417602484
 30
0.0
 11
285.587859386012
 21
160.05841761366
 31
0.0
  0
LINE
  8
CORTES_INTERIORES
 10
337.587859390783
 20
163.069393894044
 30
0.0
 11
337.587859390783
 21
160.069393894044
 31
0.0
  0
LINE
  8
CORTES_INTERIORES
 10
90.6587367510276
 20
231.106388733221
 30
0.0
 11
130.658736751027
 21
231.106388733221
 31
0.0
  0
CIRCLE
  8
CORTES_INTERIORES
 10
163.045996333213
 20
238.387296165573
 30
0.0
 40
1.5
  0
CIRCLE
  8
CORTES_INTERIORES
 10
58.3215538140896
 20
98.9260809059266
 30
0.0
 40
1.5
  0
CIRCLE
  8
CORTES_INTERIORES
 10
110.658736751027
 20
167.193532405312
 30
0.0
 40
2.0
  0
POLYLINE
  8
CORTES_INTERIORES
 66
     1
 10
0.0
 20
0.0
 30
0.0
 70
     1
  0
VERTEX
  8
CORTES_INTERIORES
 10
93.4087367784296
 20
183.790470783365
 42
0.4142135626035
  0
VERTEX
  8
CORTES_INTERIORES
 10
83.4087367784296
 20
173.790470791231
 42
0.0
  0
VERTEX
  8
CORTES_INTERIORES
 10
83.4133542499587
 20
173.797102651032
 42
0.0
  0
VERTEX
  8
CORTES_INTERIORES
 10
83.4133542436586
 20
153.797102669127
 42
0.0
  0
VERTEX
  8
CORTES_INTERIORES
 10
83.4087367705636
 20
153.967750663542
 42
0.4142135623731
  0
VERTEX
  8
CORTES_INTERIORES
 10
93.4087367705636
 20
143.967750663542
 42
0.0
  0
VERTEX
  8
CORTES_INTERIORES
 10
127.908736750111
 20
143.967750663542
 42
0.4142135623731
  0
VERTEX
  8
CORTES_INTERIORES
 10
137.908736750111
 20
153.967750663542
 42
0.0
  0
VERTEX
  8
CORTES_INTERIORES
 10
137.879029059582
 20
153.869626869947
 42
0.0
  0
VERTEX
  8
CORTES_INTERIORES
 10
137.879029065882
 20
173.869626851852
 42
0.0
  0
VERTEX
  8
CORTES_INTERIORES
 10
137.908736715106
 20
173.790470791231
 42
0.4142135621427
  0
VERTEX
  8
CORTES_INTERIORES
 10
127.908736757977
 20
183.790470756226
 42
0.0
  0
SEQEND
  0
CIRCLE
  8
CORTES_INTERIORES
 10
87.1259307734956
 20
187.763148924808
 30
0.0
 40
2.0
  0
CIRCLE
  8
CORTES_INTERIORES
 10
134.125930773495
 20
187.763148924808
 30
0.0
 40
2.0
  0
CIRCLE
  8
CORTES_INTERIORES
 10
134.125930773495
 20
140.763148924808
 30
0.0
 40
2.0
  0
CIRCLE
  8
CORTES_INTERIORES
 10
87.1259307734956
 20
140.763148924808
 30
0.0
 40
2.0
  0
CIRCLE
  8
CORTES_INTERIORES
 10
335.792884353815
 20
199.054703292937
 30
0.0
 40
2.0
  0
CIRCLE
  8
CORTES_INTERIORES
 10
335.792884353815
 20
152.054703292937
 30
0.0
 40
2.0
  0
CIRCLE
  8
CORTES_INTERIORES
 10
288.792884353815
 20
152.054703292937
 30
0.0
 40
2.0
  0
CIRCLE
  8
CORTES_INTERIORES
 10
288.792884353815
 20
199.054703292937
 30
0.0
 40
2.0
  0
CIRCLE
  8
CORTES_INTERIORES
 10
27.1752546075203
 20
270.842527171645
 30
0.0
 40
1.0
  0
CIRCLE
  8
CORTES_INTERIORES
 10
27.1752546075203
 20
254.842527171645
 30
0.0
 40
1.0
  0
CIRCLE
  8
CORTES_INTERIORES
 10
11.1752546075203
 20
254.842527171645
 30
0.0
 40
1.0
  0
CIRCLE
  8
CORTES_INTERIORES
 10
11.1752546075203
 20
270.842527171645
 30
0.0
 40
1.0
  0
CIRCLE
  8
CORTES_INTERIORES
 10
210.186622272852
 20
271.035992798211
 30
0.0
 40
1.0
  0
CIRCLE
  8
CORTES_INTERIORES
 10
210.186622272852
 20
255.035992798211
 30
0.0
 40
1.0
  0
CIRCLE
  8
CORTES_INTERIORES
 10
194.186622272852
 20
255.035992798211
 30
0.0
 40
1.0
  0
CIRCLE
  8
CORTES_INTERIORES
 10
194.186622272852
 20
271.035992798211
 30
0.0
 40
1.0
  0
POLYLINE
  8
CORTES_INTERIORES
 66
     1
 10
0.0
 20
0.0
 30
0.0
 70
     1
  0
VERTEX
  8
CORTES_INTERIORES
 10
241.332059571813
 20
76.9377555222884
 42
0.0
  0
VERTEX
  8
CORTES_INTERIORES
 10
240.656218309728
 20
76.2701189531415
 42
0.0
  0
VERTEX
  8
CORTES_INTERIORES
 10
241.323854878876
 20
75.5942776910564
 42
0.0
  0
VERTEX
  8
CORTES_INTERIORES
 10
237.695654419262
 20
72.0101234777365
 42
0.0
  0
VERTEX
  8
CORTES_INTERIORES
 10
237.028017850114
 20
72.6859647398225
 42
0.0
  0
VERTEX
  8
CORTES_INTERIORES
 10
236.352176588029
 20
72.0183281706744
 42
0.0
  0
VERTEX
  8
CORTES_INTERIORES
 10
232.76802237471
 20
75.6465286302885
 42
0.0
  0
VERTEX
  8
CORTES_INTERIORES
 10
233.443863636795
 20
76.3141651994364
 42
0.0
  0
VERTEX
  8
CORTES_INTERIORES
 10
232.776227067647
 20
76.9900064615215
 42
0.0
  0
VERTEX
  8
CORTES_INTERIORES
 10
236.404427527261
 20
80.5741606748404
 42
0.0
  0
VERTEX
  8
CORTES_INTERIORES
 10
237.072064096409
 20
79.8983194127555
 42
0.0
  0
VERTEX
  8
CORTES_INTERIORES
 10
237.747905358494
 20
80.5659559819034
 42
0.0
  0
SEQEND
  0
CIRCLE
  8
CORTES_INTERIORES
 10
229.042026660332
 20
68.7470437373944
 30
0.0
 40
1.0
  0
CIRCLE
  8
CORTES_INTERIORES
 10
245.042026660332
 20
68.7470437373944
 30
0.0
 40
1.0
  0
CIRCLE
  8
CORTES_INTERIORES
 10
245.042026660332
 20
84.7470437373944
 30
0.0
 40
1.0
  0
CIRCLE
  8
CORTES_INTERIORES
 10
229.042026660332
 20
84.7470437373944
 30
0.0
 40
1.0
  0
CIRCLE
  8
CORTES_INTERIORES
 10
212.393330027694
 20
115.887669677033
 30
0.0
 40
1.5
  0
CIRCLE
  8
CORTES_INTERIORES
 10
214.167504620746
 20
168.274929259219
 30
0.0
 40
2.0
  0
CIRCLE
  8
CORTES_INTERIORES
 10
212.393330027694
 20
220.448584242006
 30
0.0
 40
1.5
  0
POLYLINE
  8
CORTES_INTERIORES
 66
     1
 10
0.0
 20
0.0
 30
0.0
 70
     1
  0
VERTEX
  8
CORTES_INTERIORES
 10
240.141414068361
 20
259.965315480369
 42
0.0
  0
VERTEX
  8
CORTES_INTERIORES
 10
239.465572806276
 20
259.297678911221
 42
0.0
  0
VERTEX
  8
CORTES_INTERIORES
 10
240.133209375424
 20
258.621837649136
 42
0.0
  0
VERTEX
  8
CORTES_INTERIORES
 10
236.505008915809
 20
255.037683435816
 42
0.0
  0
VERTEX
  8
CORTES_INTERIORES
 10
235.837372346662
 20
255.713524697902
 42
0.0
  0
VERTEX
  8
CORTES_INTERIORES
 10
235.161531084576
 20
255.045888128754
 42
0.0
  0
VERTEX
  8
CORTES_INTERIORES
 10
231.577376871257
 20
258.674088588368
 42
0.0
  0
VERTEX
  8
CORTES_INTERIORES
 10
232.253218133342
 20
259.341725157516
 42
0.0
  0
VERTEX
  8
CORTES_INTERIORES
 10
231.585581564195
 20
260.017566419601
 42
0.0
  0
VERTEX
  8
CORTES_INTERIORES
 10
235.213782023809
 20
263.60172063292
 42
0.0
  0
VERTEX
  8
CORTES_INTERIORES
 10
235.881418592957
 20
262.925879370835
 42
0.0
  0
VERTEX
  8
CORTES_INTERIORES
 10
236.557259855042
 20
263.593515939983
 42
0.0
  0
SEQEND
  0
CIRCLE
  8
CORTES_INTERIORES
 10
244.848561033766
 20
251.758411402726
 30
0.0
 40
1.0
  0
CIRCLE
  8
CORTES_INTERIORES
 10
228.848561033766
 20
251.758411402726
 30
0.0
 40
1.0
  0
CIRCLE
  8
CORTES_INTERIORES
 10
228.848561033766
 20
267.758411402726
 30
0.0
 40
1.0
  0
CIRCLE
  8
CORTES_INTERIORES
 10
244.848561033766
 20
267.758411402726
 30
0.0
 40
1.0
  0
CIRCLE
  8
CORTES_INTERIORES
 10
262.287177599784
 20
80.7368312541229
 30
0.0
 40
1.0
  0
CIRCLE
  8
CORTES_INTERIORES
 10
262.287177599784
 20
64.7368312541229
 30
0.0
 40
1.0
  0
POLYLINE
  8
CORTES_INTERIORES
 66
     1
 10
0.0
 20
0.0
 30
0.0
 70
     1
  0
VERTEX
  8
CORTES_INTERIORES
 10
266.702071299965
 20
72.4611415245475
 42
0.0
  0
VERTEX
  8
CORTES_INTERIORES
 10
267.37791256205
 20
73.1287780936951
 42
0.0
  0
VERTEX
  8
CORTES_INTERIORES
 10
266.710275992903
 20
73.8046193557803
 42
0.0
  0
VERTEX
  8
CORTES_INTERIORES
 10
270.338476452517
 20
77.3887735690995
 42
0.0
  0
VERTEX
  8
CORTES_INTERIORES
 10
271.006113021665
 20
76.7129323070144
 42
0.0
  0
VERTEX
  8
CORTES_INTERIORES
 10
271.68195428375
 20
77.3805688761621
 42
0.0
  0
VERTEX
  8
CORTES_INTERIORES
 10
275.266108497069
 20
73.7523684165477
 42
0.0
  0
VERTEX
  8
CORTES_INTERIORES
 10
274.590267234984
 20
73.0847318474001
 42
0.0
  0
VERTEX
  8
CORTES_INTERIORES
 10
275.257903804131
 20
72.4088905853151
 42
0.0
  0
VERTEX
  8
CORTES_INTERIORES
 10
271.629703344517
 20
68.8247363719958
 42
0.0
  0
VERTEX
  8
CORTES_INTERIORES
 10
270.96206677537
 20
69.5005776340807
 42
0.0
  0
VERTEX
  8
CORTES_INTERIORES
 10
270.286225513284
 20
68.8329410649332
 42
0.0
  0
SEQEND
  0
CIRCLE
  8
CORTES_INTERIORES
 10
278.287177599784
 20
80.7368312541229
 30
0.0
 40
1.0
  0
CIRCLE
  8
CORTES_INTERIORES
 10
278.287177599784
 20
64.7368312541229
 30
0.0
 40
1.0
  0
CIRCLE
  8
CORTES_INTERIORES
 10
246.510855920814
 20
112.399810536354
 30
0.0
 40
1.5
  0
CIRCLE
  8
CORTES_INTERIORES
 10
248.848980219521
 20
164.574286105965
 30
0.0
 40
2.0
  0
CIRCLE
  8
CORTES_INTERIORES
 10
247.630537013103
 20
217.068067659011
 30
0.0
 40
1.5
  0
CIRCLE
  8
CORTES_INTERIORES
 10
263.718311043987
 20
265.188777057441
 30
0.0
 40
1.0
  0
CIRCLE
  8
CORTES_INTERIORES
 10
279.718311043987
 20
265.188777057441
 30
0.0
 40
1.0
  0
CIRCLE
  8
CORTES_INTERIORES
 10
279.718311043987
 20
249.188777057441
 30
0.0
 40
1.0
  0
POLYLINE
  8
CORTES_INTERIORES
 66
     1
 10
0.0
 20
0.0
 30
0.0
 70
     1
  0
VERTEX
  8
CORTES_INTERIORES
 10
266.540562635285
 20
256.617632131549
 42
0.0
  0
VERTEX
  8
CORTES_INTERIORES
 10
267.21640389737
 20
257.285268700697
 42
0.0
  0
VERTEX
  8
CORTES_INTERIORES
 10
266.548767328222
 20
257.961109962782
 42
0.0
  0
VERTEX
  8
CORTES_INTERIORES
 10
270.176967787836
 20
261.545264176101
 42
0.0
  0
VERTEX
  8
CORTES_INTERIORES
 10
270.844604356984
 20
260.869422914016
 42
0.0
  0
VERTEX
  8
CORTES_INTERIORES
 10
271.520445619069
 20
261.537059483164
 42
0.0
  0
VERTEX
  8
CORTES_INTERIORES
 10
275.104599832388
 20
257.90885902355
 42
0.0
  0
VERTEX
  8
CORTES_INTERIORES
 10
274.428758570303
 20
257.241222454402
 42
0.0
  0
VERTEX
  8
CORTES_INTERIORES
 10
275.096395139451
 20
256.565381192317
 42
0.0
  0
VERTEX
  8
CORTES_INTERIORES
 10
271.468194679837
 20
252.981226978998
 42
0.0
  0
VERTEX
  8
CORTES_INTERIORES
 10
270.800558110689
 20
253.657068241083
 42
0.0
  0
VERTEX
  8
CORTES_INTERIORES
 10
270.124716848604
 20
252.989431671935
 42
0.0
  0
SEQEND
  0
CIRCLE
  8
CORTES_INTERIORES
 10
263.718311043987
 20
249.188777057441
 30
0.0
 40
1.0
  0
ENDSEC
  0
EOF
