  0
SECTION
  2
HEADER
  9
$ACADVER
  1
AC1027
  9
$ACADMAINTVER
 70
     8
  9
$DWGCODEPAGE
  3
ANSI_1252
  9
$REQUIREDVERSIONS
160
                 0
  9
$LASTSAVEDBY
  1
Wombat
  9
$INSBASE
 10
0.0
 20
0.0
 30
0.0
  9
$EXTMIN
 10
65.73307984790873
 20
18.75591123988042
 30
0.0
  9
$EXTMAX
 10
336.3880746781527
 20
313.1744107375894
 30
0.0000000000000142
  9
$LIMMIN
 10
0.0
 20
0.0
  9
$LIMMAX
 10
420.0
 20
297.0
  9
$ORTHOMODE
 70
     0
  9
$REGENMODE
 70
     1
  9
$FILLMODE
 70
     1
  9
$QTEXTMODE
 70
     0
  9
$MIRRTEXT
 70
     0
  9
$LTSCALE
 40
1.0
  9
$ATTMODE
 70
     1
  9
$TEXTSIZE
 40
2.5
  9
$TRACEWID
 40
1.0
  9
$TEXTSTYLE
  7
Standard
  9
$CLAYER
  8
0
  9
$CELTYPE
  6
ByLayer
  9
$CECOLOR
 62
   256
  9
$CELTSCALE
 40
1.0
  9
$DISPSILH
 70
     0
  9
$DIMSCALE
 40
1.0
  9
$DIMASZ
 40
2.5
  9
$DIMEXO
 40
0.625
  9
$DIMDLI
 40
3.75
  9
$DIMRND
 40
0.0
  9
$DIMDLE
 40
0.0
  9
$DIMEXE
 40
1.25
  9
$DIMTP
 40
0.0
  9
$DIMTM
 40
0.0
  9
$DIMTXT
 40
2.5
  9
$DIMCEN
 40
2.5
  9
$DIMTSZ
 40
0.0
  9
$DIMTOL
 70
     0
  9
$DIMLIM
 70
     0
  9
$DIMTIH
 70
     0
  9
$DIMTOH
 70
     0
  9
$DIMSE1
 70
     0
  9
$DIMSE2
 70
     0
  9
$DIMTAD
 70
     1
  9
$DIMZIN
 70
     8
  9
$DIMBLK
  1

  9
$DIMASO
 70
     1
  9
$DIMSHO
 70
     1
  9
$DIMPOST
  1

  9
$DIMAPOST
  1

  9
$DIMALT
 70
     0
  9
$DIMALTD
 70
     3
  9
$DIMALTF
 40
0.03937007874016
  9
$DIMLFAC
 40
1.0
  9
$DIMTOFL
 70
     1
  9
$DIMTVP
 40
0.0
  9
$DIMTIX
 70
     0
  9
$DIMSOXD
 70
     0
  9
$DIMSAH
 70
     0
  9
$DIMBLK1
  1

  9
$DIMBLK2
  1

  9
$DIMSTYLE
  2
ISO-25
  9
$DIMCLRD
 70
     0
  9
$DIMCLRE
 70
     0
  9
$DIMCLRT
 70
     0
  9
$DIMTFAC
 40
1.0
  9
$DIMGAP
 40
0.625
  9
$DIMJUST
 70
     0
  9
$DIMSD1
 70
     0
  9
$DIMSD2
 70
     0
  9
$DIMTOLJ
 70
     0
  9
$DIMTZIN
 70
     8
  9
$DIMALTZ
 70
     0
  9
$DIMALTTZ
 70
     0
  9
$DIMUPT
 70
     0
  9
$DIMDEC
 70
     2
  9
$DIMTDEC
 70
     2
  9
$DIMALTU
 70
     2
  9
$DIMALTTD
 70
     3
  9
$DIMTXSTY
  7
Standard
  9
$DIMAUNIT
 70
     0
  9
$DIMADEC
 70
     0
  9
$DIMALTRND
 40
0.0
  9
$DIMAZIN
 70
     0
  9
$DIMDSEP
 70
    44
  9
$DIMATFIT
 70
     3
  9
$DIMFRAC
 70
     0
  9
$DIMLDRBLK
  1

  9
$DIMLUNIT
 70
     2
  9
$DIMLWD
 70
    -2
  9
$DIMLWE
 70
    -2
  9
$DIMTMOVE
 70
     0
  9
$DIMFXL
 40
1.0
  9
$DIMFXLON
 70
     0
  9
$DIMJOGANG
 40
0.7853981633974483
  9
$DIMTFILL
 70
     0
  9
$DIMTFILLCLR
 70
     0
  9
$DIMARCSYM
 70
     0
  9
$DIMLTYPE
  6

  9
$DIMLTEX1
  6

  9
$DIMLTEX2
  6

  9
$DIMTXTDIRECTION
 70
     0
  9
$LUNITS
 70
     2
  9
$LUPREC
 70
     3
  9
$SKETCHINC
 40
1.0
  9
$FILLETRAD
 40
20.0
  9
$AUNITS
 70
     0
  9
$AUPREC
 70
     0
  9
$MENU
  1
.
  9
$ELEVATION
 40
0.0
  9
$PELEVATION
 40
0.0
  9
$THICKNESS
 40
0.0
  9
$LIMCHECK
 70
     0
  9
$CHAMFERA
 40
10.0
  9
$CHAMFERB
 40
10.0
  9
$CHAMFERC
 40
20.0
  9
$CHAMFERD
 40
0.0
  9
$SKPOLY
 70
     0
  9
$TDCREATE
 40
2455023.05402618
  9
$TDUCREATE
 40
2455022.637359514
  9
$TDUPDATE
 40
2457251.607720254
  9
$TDUUPDATE
 40
2457251.191053588
  9
$TDINDWG
 40
0.8843247338
  9
$TDUSRTIMER
 40
2457251.080272292
  9
$USRTIMER
 70
     1
  9
$ANGBASE
 50
0.0
  9
$ANGDIR
 70
     0
  9
$PDMODE
 70
     0
  9
$PDSIZE
 40
0.0
  9
$PLINEWID
 40
0.0
  9
$SPLFRAME
 70
     0
  9
$SPLINETYPE
 70
     6
  9
$SPLINESEGS
 70
     8
  9
$HANDSEED
  5
1C22
  9
$SURFTAB1
 70
     6
  9
$SURFTAB2
 70
     6
  9
$SURFTYPE
 70
     6
  9
$SURFU
 70
     6
  9
$SURFV
 70
     6
  9
$UCSBASE
  2

  9
$UCSNAME
  2

  9
$UCSORG
 10
0.0
 20
0.0
 30
0.0
  9
$UCSXDIR
 10
1.0
 20
0.0
 30
0.0
  9
$UCSYDIR
 10
0.0
 20
1.0
 30
0.0
  9
$UCSORTHOREF
  2

  9
$UCSORTHOVIEW
 70
     0
  9
$UCSORGTOP
 10
0.0
 20
0.0
 30
0.0
  9
$UCSORGBOTTOM
 10
0.0
 20
0.0
 30
0.0
  9
$UCSORGLEFT
 10
0.0
 20
0.0
 30
0.0
  9
$UCSORGRIGHT
 10
0.0
 20
0.0
 30
0.0
  9
$UCSORGFRONT
 10
0.0
 20
0.0
 30
0.0
  9
$UCSORGBACK
 10
0.0
 20
0.0
 30
0.0
  9
$PUCSBASE
  2

  9
$PUCSNAME
  2

  9
$PUCSORG
 10
0.0
 20
0.0
 30
0.0
  9
$PUCSXDIR
 10
1.0
 20
0.0
 30
0.0
  9
$PUCSYDIR
 10
0.0
 20
1.0
 30
0.0
  9
$PUCSORTHOREF
  2

  9
$PUCSORTHOVIEW
 70
     0
  9
$PUCSORGTOP
 10
0.0
 20
0.0
 30
0.0
  9
$PUCSORGBOTTOM
 10
0.0
 20
0.0
 30
0.0
  9
$PUCSORGLEFT
 10
0.0
 20
0.0
 30
0.0
  9
$PUCSORGRIGHT
 10
0.0
 20
0.0
 30
0.0
  9
$PUCSORGFRONT
 10
0.0
 20
0.0
 30
0.0
  9
$PUCSORGBACK
 10
0.0
 20
0.0
 30
0.0
  9
$USERI1
 70
     0
  9
$USERI2
 70
     0
  9
$USERI3
 70
     0
  9
$USERI4
 70
     0
  9
$USERI5
 70
     0
  9
$USERR1
 40
0.0
  9
$USERR2
 40
0.0
  9
$USERR3
 40
0.0
  9
$USERR4
 40
0.0
  9
$USERR5
 40
0.0
  9
$WORLDVIEW
 70
     1
  9
$SHADEDGE
 70
     3
  9
$SHADEDIF
 70
    70
  9
$TILEMODE
 70
     1
  9
$MAXACTVP
 70
    64
  9
$PINSBASE
 10
0.0
 20
0.0
 30
0.0
  9
$PLIMCHECK
 70
     0
  9
$PEXTMIN
 10
1.000000000000000E+20
 20
1.000000000000000E+20
 30
1.000000000000000E+20
  9
$PEXTMAX
 10
-1.000000000000000E+20
 20
-1.000000000000000E+20
 30
-1.000000000000000E+20
  9
$PLIMMIN
 10
0.0
 20
0.0
  9
$PLIMMAX
 10
0.0
 20
0.0
  9
$UNITMODE
 70
     0
  9
$VISRETAIN
 70
     1
  9
$PLINEGEN
 70
     0
  9
$PSLTSCALE
 70
     1
  9
$TREEDEPTH
 70
  3020
  9
$CMLSTYLE
  2
Standard
  9
$CMLJUST
 70
     0
  9
$CMLSCALE
 40
20.0
  9
$PROXYGRAPHICS
 70
     1
  9
$MEASUREMENT
 70
     1
  9
$CELWEIGHT
370
    -1
  9
$ENDCAPS
280
     0
  9
$JOINSTYLE
280
     0
  9
$LWDISPLAY
290
     0
  9
$INSUNITS
 70
     4
  9
$HYPERLINKBASE
  1

  9
$STYLESHEET
  1

  9
$XEDIT
290
     1
  9
$CEPSNTYPE
380
     0
  9
$PSTYLEMODE
290
     1
  9
$FINGERPRINTGUID
  2
{EC6BB858-51AA-46EC-B484-6C9CC7AB3E2E}
  9
$VERSIONGUID
  2
{FAEB1C32-E019-11D5-929B-00C0DF256EC4}
  9
$EXTNAMES
290
     1
  9
$PSVPSCALE
 40
0.0
  9
$OLESTARTUP
290
     0
  9
$SORTENTS
280
   127
  9
$INDEXCTL
280
     0
  9
$HIDETEXT
280
     1
  9
$XCLIPFRAME
280
     0
  9
$HALOGAP
280
     0
  9
$OBSCOLOR
 70
   257
  9
$OBSLTYPE
280
     0
  9
$INTERSECTIONDISPLAY
280
     0
  9
$INTERSECTIONCOLOR
 70
   257
  9
$DIMASSOC
280
     2
  9
$PROJECTNAME
  1

  9
$CAMERADISPLAY
290
     0
  9
$LENSLENGTH
 40
50.0
  9
$CAMERAHEIGHT
 40
0.0
  9
$STEPSPERSEC
 40
2.0
  9
$STEPSIZE
 40
6.0
  9
$3DDWFPREC
 40
2.0
  9
$PSOLWIDTH
 40
5.0
  9
$PSOLHEIGHT
 40
80.0
  9
$LOFTANG1
 40
1.570796326794897
  9
$LOFTANG2
 40
1.570796326794897
  9
$LOFTMAG1
 40
0.0
  9
$LOFTMAG2
 40
0.0
  9
$LOFTPARAM
 70
     7
  9
$LOFTNORMALS
280
     1
  9
$LATITUDE
 40
37.795
  9
$LONGITUDE
 40
-122.394
  9
$NORTHDIRECTION
 40
0.0
  9
$TIMEZONE
 70
 -8000
  9
$LIGHTGLYPHDISPLAY
280
     1
  9
$TILEMODELIGHTSYNCH
280
     1
  9
$SOLIDHIST
280
     1
  9
$SHOWHIST
280
     1
  9
$DWFFRAME
280
     2
  9
$DGNFRAME
280
     2
  9
$REALWORLDSCALE
290
     1
  9
$INTERFERECOLOR
 62
   256
  9
$CSHADOW
280
     0
  9
$SHADOWPLANELOCATION
 40
0.0
  0
ENDSEC
  0
SECTION
  2
CLASSES
  0
CLASS
  1
ACDBDICTIONARYWDFLT
  2
AcDbDictionaryWithDefault
  3
ObjectDBX Classes
 90
        0
 91
        6
280
     0
281
     0
  0
CLASS
  1
VISUALSTYLE
  2
AcDbVisualStyle
  3
ObjectDBX Classes
 90
     4095
 91
        6
280
     0
281
     0
  0
CLASS
  1
TABLESTYLE
  2
AcDbTableStyle
  3
ObjectDBX Classes
 90
     4095
 91
        6
280
     0
281
     0
  0
CLASS
  1
DICTIONARYVAR
  2
AcDbDictionaryVar
  3
ObjectDBX Classes
 90
        0
 91
        6
280
     0
281
     0
  0
CLASS
  1
SCALE
  2
AcDbScale
  3
ObjectDBX Classes
 90
     1153
 91
        6
280
     0
281
     0
  0
CLASS
  1
CELLSTYLEMAP
  2
AcDbCellStyleMap
  3
ObjectDBX Classes
 90
     1152
 91
        6
280
     0
281
     0
  0
CLASS
  1
RASTERVARIABLES
  2
AcDbRasterVariables
  3
ISM
 90
        0
 91
        6
280
     0
281
     0
  0
CLASS
  1
MATERIAL
  2
AcDbMaterial
  3
ObjectDBX Classes
 90
     1153
 91
        6
280
     0
281
     0
  0
CLASS
  1
SUN
  2
AcDbSun
  3
SCENEOE
 90
     1153
 91
        6
280
     0
281
     0
  0
CLASS
  1
MLEADERSTYLE
  2
AcDbMLeaderStyle
  3
ACDB_MLEADERSTYLE_CLASS
 90
     4095
 91
        6
280
     0
281
     0
  0
CLASS
  1
SORTENTSTABLE
  2
AcDbSortentsTable
  3
ObjectDBX Classes
 90
        0
 91
        5
280
     0
281
     0
  0
ENDSEC
  0
SECTION
  2
TABLES
  0
TABLE
  2
VPORT
  5
8
330
0
100
AcDbSymbolTable
 70
     1
  0
VPORT
  5
29
330
8
100
AcDbSymbolTableRecord
100
AcDbViewportTableRecord
  2
*Active
 70
     0
 10
0.0
 20
0.0
 11
1.0
 21
1.0
 12
465.942732950759
 22
202.514335685104
 13
0.0
 23
0.0
 14
10.0
 24
10.0
 15
10.0
 25
10.0
 16
0.0
 26
0.0
 36
1.0
 17
-134.1869158878515
 27
0.0
 37
0.0
 40
452.9481739315702
 41
1.846501128668171
 42
50.0
 43
0.0
 44
0.0
 50
0.0
 51
0.0
 71
    16
 72
  1000
 73
     1
 74
     3
 75
     0
 76
     0
 77
     0
 78
     0
281
     0
 65
     1
110
0.0
120
0.0
130
0.0
111
1.0
121
0.0
131
0.0
112
0.0
122
1.0
132
0.0
 79
     0
146
0.0
348
2F
 60
     3
 61
     5
292
     1
282
     1
141
0.0
142
0.0
 63
   256
361
80
  0
ENDTAB
  0
TABLE
  2
LTYPE
  5
5
330
0
100
AcDbSymbolTable
 70
     1
  0
LTYPE
  5
14
330
5
100
AcDbSymbolTableRecord
100
AcDbLinetypeTableRecord
  2
ByBlock
 70
     0
  3

 72
    65
 73
     0
 40
0.0
  0
LTYPE
  5
15
330
5
100
AcDbSymbolTableRecord
100
AcDbLinetypeTableRecord
  2
ByLayer
 70
     0
  3

 72
    65
 73
     0
 40
0.0
  0
LTYPE
  5
16
330
5
100
AcDbSymbolTableRecord
100
AcDbLinetypeTableRecord
  2
Continuous
 70
     0
  3
Solid line
 72
    65
 73
     0
 40
0.0
  0
ENDTAB
  0
TABLE
  2
LAYER
  5
2
102
{ACAD_XDICTIONARY
360
E5
102
}
330
0
100
AcDbSymbolTable
 70
     4
  0
LAYER
  5
10
330
2
100
AcDbSymbolTableRecord
100
AcDbLayerTableRecord
  2
0
 70
     0
 62
     7
  6
Continuous
370
    -3
390
F
347
75
348
0
  0
LAYER
  5
B9
330
2
100
AcDbSymbolTableRecord
100
AcDbLayerTableRecord
  2
Defpoints
 70
     0
 62
     7
  6
Continuous
290
     0
370
    -3
390
F
347
75
348
0
  0
LAYER
  5
174
102
{ACAD_XDICTIONARY
360
175
102
}
330
2
100
AcDbSymbolTableRecord
100
AcDbLayerTableRecord
  2
FRAME
 70
     0
 62
     7
  6
Continuous
370
    -3
390
F
347
75
348
0
  0
LAYER
  5
178
102
{ACAD_XDICTIONARY
360
179
102
}
330
2
100
AcDbSymbolTableRecord
100
AcDbLayerTableRecord
  2
CORTES_INTERIORES
 70
     0
 62
     1
  6
Continuous
370
    -3
390
F
347
75
348
0
  0
ENDTAB
  0
TABLE
  2
STYLE
  5
3
330
0
100
AcDbSymbolTable
 70
     1
  0
STYLE
  5
11
330
3
100
AcDbSymbolTableRecord
100
AcDbTextStyleTableRecord
  2
Standard
 70
     0
 40
0.0
 41
1.0
 50
0.0
 71
     0
 42
2.5
  3
arial.ttf
  4

1001
ACAD
1000
Arial
1071
        0
  0
ENDTAB
  0
TABLE
  2
VIEW
  5
6
330
0
100
AcDbSymbolTable
 70
     0
  0
ENDTAB
  0
TABLE
  2
UCS
  5
7
330
0
100
AcDbSymbolTable
 70
     0
  0
ENDTAB
  0
TABLE
  2
APPID
  5
9
330
0
100
AcDbSymbolTable
 70
     2
  0
APPID
  5
12
330
9
100
AcDbSymbolTableRecord
100
AcDbRegAppTableRecord
  2
ACAD
 70
     0
  0
APPID
  5
BC
330
9
100
AcDbSymbolTableRecord
100
AcDbRegAppTableRecord
  2
ACAD_NAV_VCDISPLAY
 70
     0
  0
ENDTAB
  0
TABLE
  2
DIMSTYLE
  5
A
330
0
100
AcDbSymbolTable
 70
     2
100
AcDbDimStyleTable
  0
DIMSTYLE
105
27
330
A
100
AcDbSymbolTableRecord
100
AcDbDimStyleTableRecord
  2
ISO-25
 70
     0
 41
2.5
 42
0.625
 43
3.75
 44
1.25
 73
     0
 74
     0
 77
     1
 78
     8
140
2.5
141
2.5
143
0.03937007874016
147
0.625
171
     3
172
     1
178
     0
271
     2
272
     2
274
     3
278
    44
283
     0
284
     8
340
11
  0
DIMSTYLE
105
BA
330
A
100
AcDbSymbolTableRecord
100
AcDbDimStyleTableRecord
  2
Standard
 70
     0
178
     0
340
11
  0
ENDTAB
  0
TABLE
  2
BLOCK_RECORD
  5
1
330
0
100
AcDbSymbolTable
 70
     1
  0
BLOCK_RECORD
  5
1F
102
{ACAD_XDICTIONARY
360
13BB
102
}
330
1
100
AcDbSymbolTableRecord
100
AcDbBlockTableRecord
  2
*Model_Space
340
22
 70
     0
280
     1
281
     0
  0
BLOCK_RECORD
  5
1B
330
1
100
AcDbSymbolTableRecord
100
AcDbBlockTableRecord
  2
*Paper_Space
340
1E
 70
     0
280
     1
281
     0
  0
BLOCK_RECORD
  5
23
330
1
100
AcDbSymbolTableRecord
100
AcDbBlockTableRecord
  2
*Paper_Space0
340
26
 70
     0
280
     1
281
     0
  0
ENDTAB
  0
ENDSEC
  0
SECTION
  2
BLOCKS
  0
BLOCK
  5
20
330
1F
100
AcDbEntity
  8
0
100
AcDbBlockBegin
  2
*Model_Space
 70
     0
 10
0.0
 20
0.0
 30
0.0
  3
*Model_Space
  1
*Model_Space
  0
ENDBLK
  5
21
330
1F
100
AcDbEntity
  8
0
100
AcDbBlockEnd
  0
BLOCK
  5
1C
330
1B
100
AcDbEntity
 67
     1
  8
0
100
AcDbBlockBegin
  2
*Paper_Space
 70
     0
 10
0.0
 20
0.0
 30
0.0
  3
*Paper_Space
  1
*Paper_Space
  0
ENDBLK
  5
1D
330
1B
100
AcDbEntity
 67
     1
  8
0
100
AcDbBlockEnd
  0
BLOCK
  5
24
330
23
100
AcDbEntity
  8
0
100
AcDbBlockBegin
  2
*Paper_Space0
 70
     0
 10
0.0
 20
0.0
 30
0.0
  3
*Paper_Space0
  1
*Paper_Space0
  0
ENDBLK
  5
25
330
23
100
AcDbEntity
  8
0
100
AcDbBlockEnd
  0
ENDSEC
  0
SECTION
  2
ENTITIES
  0
ARC
  5
EC
330
1F
100
AcDbEntity
  8
FRAME
  6
Continuous
 62
     0
100
AcDbCircle
 10
80.73307984790873
 20
282.7961507021409
 30
0.0000000000000071
 40
15.0
100
AcDbArc
 50
8.787074624561447
 51
255.9016941484026
  0
ARC
  5
ED
330
1F
100
AcDbEntity
  8
FRAME
  6
Continuous
 62
     0
100
AcDbCircle
 10
293.2241354760907
 20
282.7961507021409
 30
0.0000000000000071
 40
15.0
100
AcDbArc
 50
284.1616544582292
 51
171.2762739820708
  0
ARC
  5
EE
330
1F
100
AcDbEntity
  8
FRAME
  6
Continuous
 62
     0
100
AcDbCircle
 10
293.3531102796386
 20
49.49311384228969
 30
0.0000000000000071
 40
15.0
100
AcDbArc
 50
188.7870746245615
 51
75.90169414840274
  0
ARC
  5
EF
330
1F
100
AcDbEntity
  8
FRAME
  6
Continuous
 62
     0
100
AcDbCircle
 10
80.86218453062034
 20
49.25817490494296
 30
0.0000000000000071
 40
15.0
100
AcDbArc
 50
104.1616544582292
 51
351.2762739820707
  0
LINE
  5
F6
330
1F
100
AcDbEntity
  8
FRAME
  6
Continuous
 62
     0
100
AcDbLine
 10
295.0060622782498
 20
266.1757998754422
 30
0.0000000000000071
 11
232.2460187921557
 21
197.1575343555042
 31
0.0000000000000071
  0
LINE
  5
F9
330
1F
100
AcDbEntity
  8
FRAME
  6
Continuous
 62
     0
100
AcDbLine
 10
277.1867177883825
 20
283.7395006791843
 30
0.0000000000000071
 11
253.5992648174
 21
257.799985636448
 31
0.0000000000000071
  0
LINE
  5
FB
330
1F
100
AcDbEntity
  8
FRAME
  6
Continuous
 62
     0
100
AcDbLine
 10
296.8940133348077
 20
268.2520111090918
 30
0.0000000000000071
 11
295.0060622782498
 21
266.1757998754422
 31
0.0000000000000071
  0
LINE
  5
FD
330
1F
100
AcDbEntity
  8
FRAME
  6
Continuous
 62
     0
100
AcDbLine
 10
278.3976679952852
 20
285.071202798383
 30
0.0000000000000071
 11
277.1867177883825
 21
283.7395006791843
 31
0.0000000000000071
  0
LINE
  5
102
330
1F
100
AcDbEntity
  8
FRAME
  6
Continuous
 62
     0
100
AcDbLine
 10
95.55702287435777
 20
285.0875941661157
 30
0.0000000000000071
 11
120.4925646611903
 21
257.7264014656861
 31
0.0000000000000071
  0
LINE
  5
103
330
1F
100
AcDbEntity
  8
FRAME
  6
Continuous
 62
     0
100
AcDbLine
 10
77.07928483715531
 20
268.2479624293904
 30
0.0000000000000071
 11
141.8252854935356
 21
197.203674894526
 31
0.0000000000000071
  0
LINE
  5
10D
330
1F
100
AcDbEntity
  8
FRAME
  6
Continuous
 62
     0
100
AcDbLine
 10
253.7006270421697
 20
74.44545272688252
 30
0.0000000000000071
 11
278.5291672531895
 21
47.20167037831493
 31
0.0000000000000071
  0
LINE
  5
10E
330
1F
100
AcDbEntity
  8
FRAME
  6
Continuous
 62
     0
100
AcDbLine
 10
141.8401713353916
 20
134.8966484212992
 30
0.0000000000000071
 11
77.1923066719034
 21
63.80231449799209
 31
0.0000000000000071
  0
LINE
  5
10F
330
1F
100
AcDbEntity
  8
FRAME
  6
Continuous
 62
     0
100
AcDbLine
 10
232.2609046340117
 20
135.0855896499046
 30
0.0000000000000071
 11
297.0069052903921
 21
64.04130211504008
 31
0.0000000000000071
  0
LINE
  5
110
330
1F
100
AcDbEntity
  8
FRAME
  6
Continuous
 62
     0
100
AcDbLine
 10
120.59392688596
 20
74.37186855612059
 30
0.0000000000000071
 11
95.68865201142589
 21
46.98312280870081
 31
0.0000000000000071
  0
ARC
  5
15D
330
1F
100
AcDbEntity
  8
FRAME
  6
Continuous
 62
     0
100
AcDbCircle
 10
187.0124215951191
 20
318.3490757178968
 30
0.0000000000000071
 40
90.0
100
AcDbArc
 50
222.3443843864821
 51
317.7189642201499
  0
ARC
  5
15E
330
1F
100
AcDbEntity
  8
FRAME
  6
Continuous
 62
     0
100
AcDbCircle
 10
187.1807701082409
 20
13.82277847467188
 30
0.0000000000000071
 40
90.0
100
AcDbArc
 50
42.34438438648212
 51
137.7189642201499
  0
LINE
  5
163
330
1F
100
AcDbEntity
  8
FRAME
 62
     0
100
AcDbLine
 10
147.0430950637736
 20
148.3520017727323
 30
0.0000000000000071
 11
147.0430950637736
 21
183.7319695051459
 31
0.0000000000000071
  0
LINE
  5
164
330
1F
100
AcDbEntity
  8
FRAME
 62
     0
100
AcDbLine
 10
227.0430950637736
 20
148.5572950392848
 30
0.0000000000000071
 11
227.0430950637736
 21
183.7021810040712
 31
0.0000000000000071
  0
ARC
  5
168
330
1F
100
AcDbEntity
  8
FRAME
 62
     0
100
AcDbCircle
 10
247.0430950637737
 20
183.7021810040712
 30
0.0000000000000071
 40
20.00000000000004
100
AcDbArc
 50
137.7189642201499
 51
180.0
  0
ARC
  5
169
330
1F
100
AcDbEntity
  8
FRAME
 62
     0
100
AcDbCircle
 10
247.0430950637736
 20
148.5572950392848
 30
0.0000000000000071
 40
20.0
100
AcDbArc
 50
180.0
 51
222.3443843864821
  0
ARC
  5
16A
330
1F
100
AcDbEntity
  8
FRAME
 62
     0
100
AcDbCircle
 10
127.0430950637736
 20
183.7319695051459
 30
0.0000000000000071
 40
20.0
100
AcDbArc
 50
0.0
 51
42.34438438648212
  0
ARC
  5
16B
330
1F
100
AcDbEntity
  8
FRAME
 62
     0
100
AcDbCircle
 10
127.0430950637737
 20
148.3520017727323
 30
0.0000000000000071
 40
19.99999999999999
100
AcDbArc
 50
317.7189642201499
 51
0.0
  0
CIRCLE
  5
465
330
1F
100
AcDbEntity
  8
CORTES_INTERIORES
  6
Continuous
 62
     1
100
AcDbCircle
 10
171.861458529999
 20
151.3457013556491
 30
0.0
 40
1.5
  0
CIRCLE
  5
466
330
1F
100
AcDbEntity
  8
CORTES_INTERIORES
  6
Continuous
 62
     1
100
AcDbCircle
 10
202.361458529999
 20
151.3457013556491
 30
0.0
 40
1.5
  0
CIRCLE
  5
467
330
1F
100
AcDbEntity
  8
CORTES_INTERIORES
  6
Continuous
 62
     1
100
AcDbCircle
 10
171.861458529999
 20
181.8457013556491
 30
0.0
 40
1.5
  0
CIRCLE
  5
468
330
1F
100
AcDbEntity
  8
CORTES_INTERIORES
  6
Continuous
 62
     1
100
AcDbCircle
 10
202.361458529999
 20
181.8457013556491
 30
0.0
 40
1.5
  0
CIRCLE
  5
471
330
1F
100
AcDbEntity
  8
CORTES_INTERIORES
  6
Continuous
100
AcDbCircle
 10
164.6130922199985
 20
144.134676354782
 30
0.0
 40
1.5
  0
CIRCLE
  5
472
330
1F
100
AcDbEntity
  8
CORTES_INTERIORES
  6
Continuous
100
AcDbCircle
 10
209.6130922199985
 20
144.134676354782
 30
0.0
 40
1.5
  0
CIRCLE
  5
473
330
1F
100
AcDbEntity
  8
CORTES_INTERIORES
  6
Continuous
100
AcDbCircle
 10
164.6130922199985
 20
189.134676354782
 30
0.0
 40
1.5
  0
CIRCLE
  5
474
330
1F
100
AcDbEntity
  8
CORTES_INTERIORES
  6
Continuous
100
AcDbCircle
 10
209.6130922199985
 20
189.134676354782
 30
0.0
 40
1.5
  0
CIRCLE
  5
48B
330
1F
100
AcDbEntity
  8
Defpoints
  6
Continuous
 62
     1
100
AcDbCircle
 10
149.814145383083
 20
129.5426643958337
 30
0.0
 40
1.5
  0
CIRCLE
  5
64E
330
1F
100
AcDbEntity
  8
Defpoints
  6
Continuous
 62
     1
100
AcDbCircle
 10
224.814145383083
 20
129.5426643958337
 30
0.0
 40
1.5
  0
CIRCLE
  5
64F
330
1F
100
AcDbEntity
  8
Defpoints
  6
Continuous
 62
     1
100
AcDbCircle
 10
149.814145383083
 20
204.5426643958337
 30
0.0
 40
1.5
  0
CIRCLE
  5
650
330
1F
100
AcDbEntity
  8
Defpoints
  6
Continuous
 62
     1
100
AcDbCircle
 10
224.814145383083
 20
204.5426643958337
 30
0.0
 40
1.5
  0
CIRCLE
  5
E4D
330
1F
100
AcDbEntity
  8
CORTES_INTERIORES
  6
Continuous
100
AcDbCircle
 10
277.5542520135781
 20
152.408045849582
 30
0.0
 40
1.5
  0
CIRCLE
  5
E4E
330
1F
100
AcDbEntity
  8
CORTES_INTERIORES
  6
Continuous
100
AcDbCircle
 10
308.0542520135781
 20
152.408045849582
 30
0.0
 40
1.5
  0
CIRCLE
  5
E4F
330
1F
100
AcDbEntity
  8
CORTES_INTERIORES
  6
Continuous
100
AcDbCircle
 10
277.5542520135781
 20
182.908045849582
 30
0.0
 40
1.5
  0
CIRCLE
  5
E50
330
1F
100
AcDbEntity
  8
CORTES_INTERIORES
  6
Continuous
100
AcDbCircle
 10
308.0542520135781
 20
182.908045849582
 30
0.0
 40
1.5
  0
LINE
  5
E51
330
1F
100
AcDbEntity
  8
FRAME
 62
     0
100
AcDbLine
 10
333.3880746289647
 20
121.9235701556602
 30
0.0
 11
301.9517725628417
 21
121.9235699951793
 31
0.0
  0
ARC
  5
E52
330
1F
100
AcDbEntity
  8
FRAME
 62
     0
100
AcDbCircle
 10
252.7880747174487
 20
124.9235697442001
 30
0.0
 40
3.0
100
AcDbArc
 50
180.0000000021408
 51
270.0000002924946
  0
ARC
  5
E53
330
1F
100
AcDbEntity
  8
FRAME
 62
     0
100
AcDbCircle
 10
333.3880746136496
 20
124.9235701556602
 30
0.0
 40
3.0
100
AcDbArc
 50
270.0000002924946
 51
359.9999999523018
  0
LINE
  5
E54
330
1F
100
AcDbEntity
  8
FRAME
 62
     0
100
AcDbLine
 10
252.7880747174487
 20
121.9235697442002
 30
0.0
 11
277.1485543085627
 21
121.9235697442002
 31
0.0
  0
LINE
  5
E55
330
1F
100
AcDbEntity
  8
FRAME
 62
     0
100
AcDbLine
 10
249.7893479349497
 20
209.8331663520821
 30
0.0
 11
249.7880747174487
 21
124.9235697440882
 31
0.0
  0
LINE
  5
E56
330
1F
100
AcDbEntity
  8
CORTES_INTERIORES
100
AcDbLine
 10
252.6129449861675
 20
185.0003427208758
 30
0.0
 11
267.6129108285549
 21
185.0003427096999
 31
0.0
  0
LINE
  5
E57
330
1F
100
AcDbEntity
  8
CORTES_INTERIORES
100
AcDbLine
 10
252.6129449861675
 20
182.0003427208758
 30
0.0
 11
252.6129449861675
 21
185.0003427208758
 31
0.0
  0
LINE
  5
E58
330
1F
100
AcDbEntity
  8
FRAME
  6
Continuous
 62
     0
100
AcDbLine
 10
277.1485543085627
 20
121.9235697442002
 30
0.0
 11
301.9517725628417
 21
121.9235699951793
 31
0.0
  0
CIRCLE
  5
E59
330
1F
100
AcDbEntity
  8
CORTES_INTERIORES
  6
Continuous
100
AcDbCircle
 10
270.3058857035777
 20
145.1970208487149
 30
0.0
 40
1.5
  0
CIRCLE
  5
E5A
330
1F
100
AcDbEntity
  8
CORTES_INTERIORES
  6
Continuous
100
AcDbCircle
 10
315.3058857035777
 20
145.1970208487149
 30
0.0
 40
1.5
  0
CIRCLE
  5
E5B
330
1F
100
AcDbEntity
  8
CORTES_INTERIORES
  6
Continuous
100
AcDbCircle
 10
270.3058857035777
 20
190.1970208487149
 30
0.0
 40
1.5
  0
CIRCLE
  5
E5C
330
1F
100
AcDbEntity
  8
CORTES_INTERIORES
  6
Continuous
100
AcDbCircle
 10
315.3058857035777
 20
190.1970208487149
 30
0.0
 40
1.5
  0
LINE
  5
E5D
330
1F
100
AcDbEntity
  8
CORTES_INTERIORES
100
AcDbLine
 10
252.6208323314742
 20
181.9831566853513
 30
0.0
 11
267.6207981738616
 21
181.9831566741752
 31
0.0
  0
LINE
  5
E5E
330
1F
100
AcDbEntity
  8
CORTES_INTERIORES
100
AcDbLine
 10
252.6129449861675
 20
181.9842940768802
 30
0.0
 11
252.6129449861675
 21
184.9842940768802
 31
0.0
  0
LINE
  5
E5F
330
1F
100
AcDbEntity
  8
CORTES_INTERIORES
100
AcDbLine
 10
267.6207981738616
 20
181.9841908664921
 30
0.0
 11
267.6207981738616
 21
184.9841908664921
 31
0.0
  0
LINE
  5
E60
330
1F
100
AcDbEntity
  8
CORTES_INTERIORES
100
AcDbLine
 10
267.5756851403663
 20
150.5883575906334
 30
0.0
 11
267.5756851403663
 21
153.5883575906334
 31
0.0
  0
LINE
  5
E61
330
1F
100
AcDbEntity
  8
CORTES_INTERIORES
100
AcDbLine
 10
252.5678319526721
 20
153.6045094450171
 30
0.0
 11
267.5677977950595
 21
153.6045094338411
 31
0.0
  0
LINE
  5
E62
330
1F
100
AcDbEntity
  8
CORTES_INTERIORES
100
AcDbLine
 10
252.5678319526721
 20
150.6045094450171
 30
0.0
 11
252.5678319526721
 21
153.6045094450171
 31
0.0
  0
LINE
  5
E63
330
1F
100
AcDbEntity
  8
CORTES_INTERIORES
100
AcDbLine
 10
252.5757192979789
 20
150.5873234094927
 30
0.0
 11
267.5756851403663
 21
150.5873233983166
 31
0.0
  0
LINE
  5
E64
330
1F
100
AcDbEntity
  8
CORTES_INTERIORES
100
AcDbLine
 10
252.5678319526721
 20
150.5884608010217
 30
0.0
 11
252.5678319526721
 21
153.5884608010217
 31
0.0
  0
LINE
  5
E65
330
1F
100
AcDbEntity
  8
CORTES_INTERIORES
100
AcDbLine
 10
318.0826787177075
 20
185.8843642841136
 30
0.0
 11
333.0826445600949
 21
185.8843642729375
 31
0.0
  0
LINE
  5
E66
330
1F
100
AcDbEntity
  8
CORTES_INTERIORES
100
AcDbLine
 10
318.0826787177075
 20
182.8843642841136
 30
0.0
 11
318.0826787177075
 21
185.8843642841136
 31
0.0
  0
LINE
  5
E67
330
1F
100
AcDbEntity
  8
CORTES_INTERIORES
100
AcDbLine
 10
318.0905660630142
 20
182.8671782485892
 30
0.0
 11
333.0905319054016
 21
182.8671782374131
 31
0.0
  0
LINE
  5
E68
330
1F
100
AcDbEntity
  8
CORTES_INTERIORES
100
AcDbLine
 10
318.0826787177075
 20
182.868315640118
 30
0.0
 11
318.0826787177075
 21
185.868315640118
 31
0.0
  0
LINE
  5
E69
330
1F
100
AcDbEntity
  8
CORTES_INTERIORES
100
AcDbLine
 10
333.0905319054016
 20
182.8682124297299
 30
0.0
 11
333.0905319054016
 21
185.8682124297299
 31
0.0
  0
LINE
  5
E6A
330
1F
100
AcDbEntity
  8
CORTES_INTERIORES
100
AcDbLine
 10
333.2270277264727
 20
151.4723791538713
 30
0.0
 11
333.2270277264727
 21
154.4723791538713
 31
0.0
  0
LINE
  5
E6B
330
1F
100
AcDbEntity
  8
CORTES_INTERIORES
100
AcDbLine
 10
318.2191745387784
 20
154.488531008255
 30
0.0
 11
333.2191403811659
 21
154.4885309970789
 31
0.0
  0
LINE
  5
E6C
330
1F
100
AcDbEntity
  8
CORTES_INTERIORES
100
AcDbLine
 10
318.2191745387784
 20
151.488531008255
 30
0.0
 11
318.2191745387784
 21
154.488531008255
 31
0.0
  0
LINE
  5
E6D
330
1F
100
AcDbEntity
  8
CORTES_INTERIORES
100
AcDbLine
 10
318.2270618840853
 20
151.4713449727304
 30
0.0
 11
333.2270277264727
 21
151.4713449615544
 31
0.0
  0
LINE
  5
E6E
330
1F
100
AcDbEntity
  8
CORTES_INTERIORES
100
AcDbLine
 10
318.2191745387784
 20
151.4724823642593
 30
0.0
 11
318.2191745387784
 21
154.4724823642593
 31
0.0
  0
LWPOLYLINE
  5
E6F
330
1F
100
AcDbEntity
  8
FRAME
 62
     0
100
AcDbPolyline
 90
       69
 70
     0
 43
0.0
 10
336.3880746781527
 20
209.7178027442081
 10
336.3855282246676
 20
209.9485299141452
 10
336.3779569565776
 20
210.1720185412001
 10
336.3654630124016
 20
210.3883543012421
 10
336.3481485306596
 20
210.5976228701402
 10
336.3261156498696
 20
210.7999099237632
 10
336.2994665085527
 20
210.9953011379791
 10
336.2683032452277
 20
211.1838821886572
 10
336.2327279984127
 20
211.3657387516653
 10
336.1928429066287
 20
211.5409565028722
 10
336.1487501083938
 20
211.7096211181472
 10
336.1005517422278
 20
211.8718182733593
 10
336.0749448894586
 20
211.9505183271501
 10
336.0483499466507
 20
212.0276336443751
 10
336.0207796811197
 20
212.1031749345191
 10
335.9922468601818
 20
212.1771529070652
 10
335.9627642511497
 20
212.2495782714973
 10
335.9323446213388
 20
212.3204617372971
 10
335.9010007380658
 20
212.3898140139511
 10
335.8687453686437
 20
212.4576458109411
 10
335.8355912803876
 20
212.5239678377502
 10
335.8015512406137
 20
212.5887908038633
 10
335.7666380166357
 20
212.6521254187631
 10
335.7308643757686
 20
212.7139823919342
 10
335.6942430853277
 20
212.7743724328591
 10
335.6567869126287
 20
212.8333062510221
 10
335.6185086249847
 20
212.8907945559062
 10
335.5794209897118
 20
212.9468480569951
 10
335.5395367741247
 20
213.0014774637732
 10
335.4988687455376
 20
213.0546934857223
 10
335.4574296712686
 20
213.1065068323281
 10
335.4152323186287
 20
213.1569282130722
 10
335.3722894549347
 20
213.2059683374401
 10
335.3286138475006
 20
213.2536379149132
 10
335.2842182636417
 20
213.2999476549771
 10
335.2391154706737
 20
213.3449082671152
 10
335.1933182359106
 20
213.3885304608091
 10
335.1468393266676
 20
213.4308249455453
 10
335.0996915102597
 20
213.4718024308041
 10
335.0518875540016
 20
213.5114736260721
 10
335.0034402252087
 20
213.5498492408312
 10
334.9543622911946
 20
213.5869399845651
 10
334.9046665192767
 20
213.6227565667573
 10
334.8543656767666
 20
213.6573096968923
 10
334.8034725309827
 20
213.6906100844533
 10
334.7519998492377
 20
213.7226684389233
 10
334.6999603988467
 20
213.7534954697862
 10
334.6473669471258
 20
213.7831018865261
 10
334.5942322613888
 20
213.8114983986252
 10
334.5405691089508
 20
213.8386957155692
 10
334.4863902571266
 20
213.8647045468392
 10
334.4317084732317
 20
213.8895356019211
 10
334.3765365245807
 20
213.9131995902961
 10
334.3208871784888
 20
213.9357072214502
 10
334.2647732022707
 20
213.9570692048662
 10
334.2082073632406
 20
213.9772962500261
 10
334.1512024287147
 20
213.9963990664162
 10
334.0937711660066
 20
214.0143883635171
 10
334.0359263424326
 20
214.0312748508152
 10
333.9776807253066
 20
214.0470692377921
 10
333.9190470819447
 20
214.0617822339321
 10
333.8600381796597
 20
214.0754245487192
 10
333.8006667857686
 20
214.0880068916362
 10
333.7409456675856
 20
214.0995399721671
 10
333.6808875924247
 20
214.1100344997951
 10
333.6205053276027
 20
214.1195011840041
 10
333.4988192982306
 20
214.1353938600992
 10
333.3759897179897
 20
214.1473036763223
 10
333.2521187253986
 20
214.1553163085391
  0
LINE
  5
E70
330
1F
100
AcDbEntity
  8
CORTES_INTERIORES
  6
Continuous
 62
     1
100
AcDbLine
 10
252.9240306618427
 20
214.1570947082402
 30
0.0
 11
253.427885817222
 21
214.1571129428008
 31
0.0
  0
LWPOLYLINE
  5
E71
330
1F
100
AcDbEntity
  8
FRAME
 62
     0
100
AcDbPolyline
 90
       74
 70
     0
 43
0.0
 10
249.7880747082087
 20
209.7178027542121
 10
249.7906211616897
 20
209.9485299499522
 10
249.7981924297777
 20
210.1720187576302
 10
249.8106863739507
 20
210.3883550079352
 10
249.8280008556907
 20
210.5976245315551
 10
249.8500337364786
 20
210.7999131591803
 10
249.8766828777958
 20
210.9953067214961
 10
249.9078461411206
 20
211.1838910491931
 10
249.9434213879357
 20
211.3657519729602
 10
249.9833064797207
 20
211.5409753234842
 10
250.0273992779568
 20
211.7096469314552
 10
250.0755976441257
 20
211.8718526275602
 10
250.1012044968967
 20
211.9505575807532
 10
250.1277994397066
 20
212.0276782424891
 10
250.1553697052376
 20
212.1032253416022
 10
250.1839025261808
 20
212.1772096069292
 10
250.2133851352156
 20
212.2496417673062
 10
250.2438047650288
 20
212.3205325515692
 10
250.2751486483056
 20
212.3898926885553
 10
250.3074040177318
 20
212.4577329070981
 10
250.3405581059918
 20
212.5240639360361
 10
250.3745981457697
 20
212.5888965042052
 10
250.4095113697527
 20
212.6522413404391
 10
250.4452850106246
 20
212.7141091735763
 10
250.4819063010708
 20
212.7745107324522
 10
250.5193624737757
 20
212.8334567459021
 10
250.5576407614257
 20
212.8909579427632
 10
250.5967283967046
 20
212.9470250518712
 10
250.6366126122986
 20
213.0016688020612
 10
250.6772806408927
 20
213.0548999221701
 10
250.7187197151707
 20
213.1067291410352
 10
250.7609170678187
 20
213.1571671874901
 10
250.8038599315206
 20
213.2062247903723
 10
250.8475355389647
 20
213.2539126785173
 10
250.8919311228327
 20
213.3002415807613
 10
250.9370339158116
 20
213.3452222259402
 10
250.9828311505847
 20
213.3888653428912
 10
251.0293100598398
 20
213.4311816604493
 10
251.0764578762588
 20
213.4721819074501
 10
251.1242618325288
 20
213.5118768127311
 10
251.1727091613346
 20
213.5502771051272
 10
251.2217870953608
 20
213.5873935134751
 10
251.2714828672937
 20
213.6232367666113
 10
251.3217837098167
 20
213.6578175933703
 10
251.3726768556156
 20
213.6911467225891
 10
251.4241495373757
 20
213.7232348831031
 10
251.4761889877826
 20
213.7540928037502
 10
251.5287824395206
 20
213.7837312133641
 10
251.5819171252746
 20
213.8121608407821
 10
251.6355802777297
 20
213.8393924148411
 10
251.6897591295727
 20
213.8654366643752
 10
251.7444409134856
 20
213.8903043182222
 10
251.7996128621567
 20
213.9140061052171
 10
251.8552622082688
 20
213.9365527541961
 10
251.9113761845077
 20
213.9579549939951
 10
251.9679420235597
 20
213.9782235534511
 10
252.0249469581078
 20
213.9973691614002
 10
252.0823782208378
 20
214.0154025466761
 10
252.1402230444347
 20
214.0323344381181
 10
252.1984686615857
 20
214.0481755645601
 10
252.2571023049737
 20
214.0629366548392
 10
252.3161112072836
 20
214.0766284377901
 10
252.3754826012008
 20
214.0892616422511
 10
252.4352037194116
 20
214.1008469970561
 10
252.4952617945986
 20
214.1113952310421
 10
252.5556440594497
 20
214.1209170730451
 10
252.6773300888816
 20
214.1369244964462
 10
252.8001596691846
 20
214.1489550979481
 10
252.9240306618427
 20
214.1570947082402
 10
253.0488409283336
 20
214.1614291580092
 10
253.1744883301386
 20
214.1620442779442
 10
253.3008707287407
 20
214.1590258987343
 10
253.4278859856178
 20
214.1524598510671
 10
253.4916589739352
 20
214.1474459083491
  0
LINE
  5
E72
330
1F
100
AcDbEntity
  8
FRAME
  6
Continuous
 62
     0
100
AcDbLine
 10
253.4916589739352
 20
214.1553083556695
 30
0.0
 11
333.2521187253986
 21
214.1553163085391
 31
0.0
  0
CIRCLE
  5
E73
330
1F
100
AcDbEntity
  8
CORTES_INTERIORES
  6
Continuous
100
AcDbCircle
 10
255.5069388666622
 20
130.6050088897666
 30
0.0
 40
1.5
  0
LINE
  5
E74
330
1F
100
AcDbEntity
  8
FRAME
 62
     0
100
AcDbLine
 10
336.3880746136496
 20
124.9235701531621
 30
0.0
 11
336.3880746781527
 21
209.7178027442081
 31
0.0
  0
CIRCLE
  5
E75
330
1F
100
AcDbEntity
  8
CORTES_INTERIORES
  6
Continuous
100
AcDbCircle
 10
330.5069388666622
 20
130.6050088897667
 30
0.0
 40
1.5
  0
CIRCLE
  5
E76
330
1F
100
AcDbEntity
  8
CORTES_INTERIORES
  6
Continuous
100
AcDbCircle
 10
255.5069388666622
 20
205.6050088897666
 30
0.0
 40
1.5
  0
CIRCLE
  5
E77
330
1F
100
AcDbEntity
  8
CORTES_INTERIORES
  6
Continuous
100
AcDbCircle
 10
330.5069388666622
 20
205.6050088897666
 30
0.0
 40
1.5
  0
LWPOLYLINE
  5
155E
330
1F
100
AcDbEntity
  8
CORTES_INTERIORES
100
AcDbPolyline
 90
        4
 70
     1
 43
0.0
 10
269.9376649006376
 20
258.2287816455773
 10
267.5413007848135
 20
260.7797498979063
 10
274.8297815057533
 20
267.6265045145468
 10
277.2261456215776
 20
265.0755362622178
  0
LWPOLYLINE
  5
155F
330
1F
100
AcDbEntity
  8
CORTES_INTERIORES
100
AcDbPolyline
 90
        4
 70
     1
 43
0.0
 10
256.0895515308518
 20
245.2199478739605
 10
253.6931874150278
 20
247.7709161262894
 10
260.9816681359675
 20
254.6176707429299
 10
263.3780322517919
 20
252.0667024906009
  0
LWPOLYLINE
  5
1560
330
1F
100
AcDbEntity
  8
CORTES_INTERIORES
100
AcDbPolyline
 90
        4
 70
     1
 43
0.0
 10
242.2414381610658
 20
232.2111141023434
 10
239.8450740452417
 20
234.7620823546724
 10
247.1335547661818
 20
241.6088369713128
 10
249.5299188820059
 20
239.0578687189839
  0
LWPOLYLINE
  5
1561
330
1F
100
AcDbEntity
  8
CORTES_INTERIORES
100
AcDbPolyline
 90
        4
 70
     1
 43
0.0
 10
228.3933247912801
 20
219.2022803307265
 10
225.996960675456
 20
221.7532485830554
 10
233.285441396396
 20
228.6000031996959
 10
235.6818055122201
 20
226.049034947367
  0
LWPOLYLINE
  5
1562
330
1F
100
AcDbEntity
  8
CORTES_INTERIORES
100
AcDbPolyline
 90
        4
 70
     1
 43
0.0
 10
214.5449392161202
 20
206.1940292784324
 10
212.1485751002958
 20
208.7449975307613
 10
219.4370558212358
 20
215.5917521474018
 10
221.8334199370599
 20
213.0407838950729
  0
LWPOLYLINE
  5
1563
330
1F
100
AcDbEntity
  8
CORTES_INTERIORES
100
AcDbPolyline
 90
        4
 70
     1
 43
0.0
 10
307.8447569561724
 20
195.6144874678402
 10
305.4483928403483
 20
198.1654557201692
 10
312.7368735612881
 20
205.0122103368097
 10
315.1332376771124
 20
202.4612420844807
  0
LWPOLYLINE
  5
156B
330
1F
100
AcDbEntity
  8
CORTES_INTERIORES
100
AcDbPolyline
 90
        4
 70
     1
 43
0.0
 10
104.7413232073898
 20
257.4046135974511
 10
107.1376873232139
 20
259.9555818497801
 10
99.84920660227408
 20
266.8023364664206
 10
97.45284248644975
 20
264.2513682140917
  0
LWPOLYLINE
  5
156C
330
1F
100
AcDbEntity
  8
CORTES_INTERIORES
100
AcDbPolyline
 90
        4
 70
     1
 43
0.0
 10
118.5894365771755
 20
244.3957798258343
 10
120.9858006929996
 20
246.9467480781632
 10
113.6973199720599
 20
253.7935026948037
 10
111.3009558562355
 20
251.2425344424747
  0
LWPOLYLINE
  5
156D
330
1F
100
AcDbEntity
  8
CORTES_INTERIORES
100
AcDbPolyline
 90
        4
 70
     1
 43
0.0
 10
132.4375499469616
 20
231.3869460542172
 10
134.8339140627857
 20
233.9379143065462
 10
127.5454333418456
 20
240.7846689231866
 10
125.1490692260215
 20
238.2337006708577
  0
LWPOLYLINE
  5
156E
330
1F
100
AcDbEntity
  8
CORTES_INTERIORES
100
AcDbPolyline
 90
        4
 70
     1
 43
0.0
 10
146.2856633167473
 20
218.3781122826003
 10
148.6820274325714
 20
220.9290805349293
 10
141.3935467116314
 20
227.7758351515698
 10
138.9971825958073
 20
225.2248668992408
  0
LWPOLYLINE
  5
156F
330
1F
100
AcDbEntity
  8
CORTES_INTERIORES
100
AcDbPolyline
 90
        4
 70
     1
 43
0.0
 10
160.1340488919072
 20
205.3698612303062
 10
162.5304130077316
 20
207.9208294826352
 10
155.2419322867916
 20
214.7675840992757
 10
152.8455681709675
 20
212.2166158469467
  0
LWPOLYLINE
  5
1570
330
1F
100
AcDbEntity
  8
CORTES_INTERIORES
100
AcDbPolyline
 90
        4
 70
     1
 43
0.0
 10
278.2198181190133
 20
194.790319419714
 10
280.6161822348374
 20
197.341287672043
 10
273.3277015138976
 20
204.1880422886835
 10
270.9313373980733
 20
201.6370740363545
  0
LWPOLYLINE
  5
1578
330
1F
100
AcDbEntity
  8
CORTES_INTERIORES
100
AcDbPolyline
 90
        4
 70
     1
 43
0.0
 10
269.4282245924895
 20
74.81081889800777
 10
267.0318604766654
 20
72.2598506456788
 10
274.3203411976052
 20
65.41309602903829
 10
276.7167053134295
 20
67.96406428136726
  0
LWPOLYLINE
  5
1579
330
1F
100
AcDbEntity
  8
CORTES_INTERIORES
100
AcDbPolyline
 90
        4
 70
     1
 43
0.0
 10
255.5801112227037
 20
87.81965266962465
 10
253.1837471068797
 20
85.26868441729567
 10
260.4722278278194
 20
78.42192980065522
 10
262.8685919436438
 20
80.97289805298419
  0
LWPOLYLINE
  5
157A
330
1F
100
AcDbEntity
  8
CORTES_INTERIORES
100
AcDbPolyline
 90
        4
 70
     1
 43
0.0
 10
241.7319978529177
 20
100.8284864412417
 10
239.3356337370936
 20
98.27751818891272
 10
246.6241144580337
 20
91.43076357227227
 10
249.0204785738578
 20
93.98173182460124
  0
LWPOLYLINE
  5
157B
330
1F
100
AcDbEntity
  8
CORTES_INTERIORES
100
AcDbPolyline
 90
        4
 70
     1
 43
0.0
 10
227.883884483132
 20
113.8373202128586
 10
225.4875203673079
 20
111.2863519605297
 10
232.7760010882479
 20
104.4395973438891
 10
235.172365204072
 20
106.9905655962181
  0
LWPOLYLINE
  5
157C
330
1F
100
AcDbEntity
  8
CORTES_INTERIORES
100
AcDbPolyline
 90
        4
 70
     1
 43
0.0
 10
214.0354989079721
 20
126.8455712651527
 10
211.6391347921477
 20
124.2946030128238
 10
218.9276155130877
 20
117.4478483961832
 10
221.3239796289118
 20
119.9988166485122
  0
LWPOLYLINE
  5
157D
330
1F
100
AcDbEntity
  8
CORTES_INTERIORES
100
AcDbPolyline
 90
        4
 70
     1
 43
0.0
 10
307.3353166480243
 20
139.5498020636107
 10
304.9389525322002
 20
136.9988338112818
 10
312.22743325314
 20
130.1520791946413
 10
314.6237973689643
 20
132.7030474469702
  0
LWPOLYLINE
  5
1585
330
1F
100
AcDbEntity
  8
CORTES_INTERIORES
100
AcDbPolyline
 90
        4
 70
     1
 43
0.0
 10
104.8448111384368
 20
74.63571993000579
 10
107.2411752542609
 20
72.08475167767682
 10
99.95269453332111
 20
65.23799706103631
 10
97.55633041749678
 20
67.78896531336528
  0
LWPOLYLINE
  5
1586
330
1F
100
AcDbEntity
  8
CORTES_INTERIORES
100
AcDbPolyline
 90
        4
 70
     1
 43
0.0
 10
118.6929245082226
 20
87.64455370162267
 10
121.0892886240467
 20
85.0935854492937
 10
113.8008079031069
 20
78.24683083265325
 10
111.4044437872826
 20
80.79779908498222
  0
LWPOLYLINE
  5
1587
330
1F
100
AcDbEntity
  8
CORTES_INTERIORES
100
AcDbPolyline
 90
        4
 70
     1
 43
0.0
 10
132.5410378780086
 20
100.6533874732397
 10
134.9374019938327
 20
98.10241922091075
 10
127.6489212728927
 20
91.2556646042703
 10
125.2525571570686
 20
93.80663285659926
  0
LWPOLYLINE
  5
1588
330
1F
100
AcDbEntity
  8
CORTES_INTERIORES
100
AcDbPolyline
 90
        4
 70
     1
 43
0.0
 10
146.3891512477944
 20
113.6622212448567
 10
148.7855153636185
 20
111.1112529925277
 10
141.4970346426784
 20
104.2644983758872
 10
139.1006705268543
 20
106.8154666282161
  0
LWPOLYLINE
  5
1589
330
1F
100
AcDbEntity
  8
CORTES_INTERIORES
100
AcDbPolyline
 90
        4
 70
     1
 43
0.0
 10
160.2375368229543
 20
126.6704722971508
 10
162.6339009387786
 20
124.1195040448218
 10
155.3454202178386
 20
117.2727494281813
 10
152.9490561020145
 20
119.8237176805102
  0
LWPOLYLINE
  5
158A
330
1F
100
AcDbEntity
  8
CORTES_INTERIORES
100
AcDbPolyline
 90
        4
 70
     1
 43
0.0
 10
278.3233060500603
 20
139.3747030956088
 10
280.7196701658844
 20
136.8237348432798
 10
273.4311894449446
 20
129.9769802266393
 10
271.0348253291203
 20
132.5279484789683
  0
LINE
  5
163A
330
1F
100
AcDbEntity
  8
0
100
AcDbLine
 10
120.4925646611903
 20
266.9758000441722
 30
0.0000000000000071
 11
137.4925646611897
 21
266.9758000441722
 31
0.0000000000000071
  0
LINE
  5
163B
330
1F
100
AcDbEntity
  8
0
100
AcDbLine
 10
129.4925646611903
 20
281.9758000441722
 30
0.0000000000000071
 11
255.4925646611903
 21
281.9758000441722
 31
0.0000000000000071
  0
LINE
  5
163C
330
1F
100
AcDbEntity
  8
0
100
AcDbLine
 10
120.4925646611903
 20
281.9758000441722
 30
0.0000000000000071
 11
120.4925646611903
 21
266.9758000441722
 31
0.0000000000000071
  0
LINE
  5
163D
330
1F
100
AcDbEntity
  8
0
100
AcDbLine
 10
255.4925646611903
 20
281.9758000441722
 30
0.0000000000000071
 11
255.4925646611903
 21
266.9758000441722
 31
0.0000000000000071
  0
LINE
  5
1641
330
1F
100
AcDbEntity
  8
0
100
AcDbLine
 10
240.4925646611903
 20
266.9758000441722
 30
0.0000000000000071
 11
255.4925646611903
 21
266.9758000441722
 31
0.0000000000000071
  0
LINE
  5
1642
330
1F
100
AcDbEntity
  8
0
100
AcDbLine
 10
120.4925646611903
 20
285.4758000441722
 30
0.0000000000000071
 11
129.4921524741631
 21
285.4758000441722
 31
0.0000000000000071
  0
LINE
  5
1643
330
1F
100
AcDbEntity
  8
0
100
AcDbLine
 10
120.4925646611903
 20
285.4758000441722
 30
0.0000000000000071
 11
120.4925646611903
 21
281.9758000441722
 31
0.0000000000000071
  0
LINE
  5
1644
330
1F
100
AcDbEntity
  8
0
100
AcDbLine
 10
129.4925646611903
 20
285.4758000441722
 30
0.0000000000000071
 11
129.4925646611903
 21
281.9758000441722
 31
0.0000000000000071
  0
LINE
  5
1645
330
1F
100
AcDbEntity
  8
FRAME
  6
Continuous
 62
     0
100
AcDbLine
 10
156.4925646611898
 20
266.9758000441722
 30
0.0000000000000071
 11
156.4925646611897
 21
263.4758000441722
 31
0.0000000000000071
  0
LINE
  5
1646
330
1F
100
AcDbEntity
  8
FRAME
  6
Continuous
 62
     0
100
AcDbLine
 10
165.49256466119
 20
266.9758000441722
 30
0.0000000000000071
 11
165.4925646611898
 21
263.4758000441722
 31
0.0000000000000071
  0
LINE
  5
1647
330
1F
100
AcDbEntity
  8
FRAME
  6
Continuous
 62
     0
100
AcDbLine
 10
156.4925646611897
 20
263.4758000441722
 30
0.0000000000000071
 11
165.4925646611898
 21
263.4758000441722
 31
0.0000000000000071
  0
LINE
  5
1648
330
1F
100
AcDbEntity
  8
FRAME
  6
Continuous
 62
     0
100
AcDbLine
 10
175.49256466119
 20
266.9758000441722
 30
0.0000000000000071
 11
175.4925646611898
 21
263.4758000441722
 31
0.0000000000000071
  0
LINE
  5
1649
330
1F
100
AcDbEntity
  8
FRAME
  6
Continuous
 62
     0
100
AcDbLine
 10
184.4925646611901
 20
266.9758000441722
 30
0.0000000000000071
 11
184.49256466119
 21
263.4758000441722
 31
0.0000000000000071
  0
LINE
  5
164A
330
1F
100
AcDbEntity
  8
FRAME
  6
Continuous
 62
     0
100
AcDbLine
 10
175.4925646611898
 20
263.4758000441722
 30
0.0000000000000071
 11
184.49256466119
 21
263.4758000441722
 31
0.0000000000000071
  0
LINE
  5
164B
330
1F
100
AcDbEntity
  8
FRAME
  6
Continuous
 62
     0
100
AcDbLine
 10
194.4925646611901
 20
266.9758000441722
 30
0.0000000000000071
 11
194.49256466119
 21
263.4758000441722
 31
0.0000000000000071
  0
LINE
  5
164C
330
1F
100
AcDbEntity
  8
FRAME
  6
Continuous
 62
     0
100
AcDbLine
 10
203.4925646611902
 20
266.9758000441722
 30
0.0000000000000071
 11
203.4925646611901
 21
263.4758000441722
 31
0.0000000000000071
  0
LINE
  5
164D
330
1F
100
AcDbEntity
  8
FRAME
  6
Continuous
 62
     0
100
AcDbLine
 10
194.49256466119
 20
263.4758000441722
 30
0.0000000000000071
 11
203.4925646611901
 21
263.4758000441722
 31
0.0000000000000071
  0
LINE
  5
164E
330
1F
100
AcDbEntity
  8
FRAME
  6
Continuous
 62
     0
100
AcDbLine
 10
213.4925646611902
 20
266.9758000441722
 30
0.0000000000000071
 11
213.4925646611901
 21
263.4758000441722
 31
0.0000000000000071
  0
LINE
  5
164F
330
1F
100
AcDbEntity
  8
FRAME
  6
Continuous
 62
     0
100
AcDbLine
 10
222.4925646611903
 20
266.9758000441722
 30
0.0000000000000071
 11
222.4925646611902
 21
263.4758000441722
 31
0.0000000000000071
  0
LINE
  5
1650
330
1F
100
AcDbEntity
  8
FRAME
  6
Continuous
 62
     0
100
AcDbLine
 10
213.4925646611901
 20
263.4758000441722
 30
0.0000000000000071
 11
222.4925646611902
 21
263.4758000441722
 31
0.0000000000000071
  0
LINE
  5
1651
330
1F
100
AcDbEntity
  8
0
100
AcDbLine
 10
165.49256466119
 20
266.9758000441722
 30
0.0000000000000071
 11
175.49256466119
 21
266.9758000441722
 31
0.0000000000000071
  0
LINE
  5
1652
330
1F
100
AcDbEntity
  8
0
100
AcDbLine
 10
184.4925646611901
 20
266.9758000441722
 30
0.0000000000000071
 11
194.4925646611901
 21
266.9758000441722
 31
0.0000000000000071
  0
LINE
  5
1653
330
1F
100
AcDbEntity
  8
0
100
AcDbLine
 10
203.4925646611902
 20
266.9758000441722
 30
0.0000000000000071
 11
213.4925646611902
 21
266.9758000441722
 31
0.0000000000000071
  0
LINE
  5
1654
330
1F
100
AcDbEntity
  8
0
100
AcDbLine
 10
222.4925646611903
 20
266.9758000441722
 30
0.0000000000000071
 11
232.4925646611903
 21
266.9758000441722
 31
0.0000000000000071
  0
LINE
  5
1655
330
1F
100
AcDbEntity
  8
FRAME
  6
Continuous
 62
     0
100
AcDbLine
 10
137.4925646611897
 20
266.9758000441722
 30
0.0000000000000071
 11
137.4925646611896
 21
263.4758000441722
 31
0.0000000000000071
  0
LINE
  5
1656
330
1F
100
AcDbEntity
  8
FRAME
  6
Continuous
 62
     0
100
AcDbLine
 10
146.4925646611898
 20
266.9758000441722
 30
0.0000000000000071
 11
146.4925646611897
 21
263.4758000441722
 31
0.0000000000000071
  0
LINE
  5
1657
330
1F
100
AcDbEntity
  8
FRAME
  6
Continuous
 62
     0
100
AcDbLine
 10
137.4925646611896
 20
263.4758000441722
 30
0.0000000000000071
 11
146.4925646611897
 21
263.4758000441722
 31
0.0000000000000071
  0
LINE
  5
1658
330
1F
100
AcDbEntity
  8
0
100
AcDbLine
 10
146.4925646611898
 20
266.9758000441722
 30
0.0000000000000071
 11
156.4925646611898
 21
266.9758000441722
 31
0.0000000000000071
  0
LINE
  5
16A2
330
1F
100
AcDbEntity
  8
0
100
AcDbLine
 10
122.1888189981241
 20
294.6744107375894
 30
0.0
 11
139.1888189981236
 21
294.6744107375894
 31
0.0
  0
LINE
  5
16A3
330
1F
100
AcDbEntity
  8
0
100
AcDbLine
 10
131.1888189981241
 20
309.6744107375894
 30
0.0
 11
257.1888189981241
 21
309.6744107375894
 31
0.0
  0
LINE
  5
16A4
330
1F
100
AcDbEntity
  8
0
100
AcDbLine
 10
122.1888189981241
 20
309.6744107375894
 30
0.0
 11
122.1888189981241
 21
294.6744107375894
 31
0.0
  0
LINE
  5
16A5
330
1F
100
AcDbEntity
  8
0
100
AcDbLine
 10
257.1888189981241
 20
309.6744107375894
 30
0.0
 11
257.1888189981241
 21
294.6744107375894
 31
0.0
  0
LINE
  5
16A9
330
1F
100
AcDbEntity
  8
0
100
AcDbLine
 10
242.1888189981241
 20
294.6744107375894
 30
0.0
 11
257.1888189981241
 21
294.6744107375894
 31
0.0
  0
LINE
  5
16AA
330
1F
100
AcDbEntity
  8
0
100
AcDbLine
 10
122.1888189981241
 20
313.1744107375894
 30
0.0
 11
131.1884068110969
 21
313.1744107375894
 31
0.0
  0
LINE
  5
16AB
330
1F
100
AcDbEntity
  8
0
100
AcDbLine
 10
122.1888189981241
 20
313.1744107375894
 30
0.0
 11
122.1888189981241
 21
309.6744107375894
 31
0.0
  0
LINE
  5
16AC
330
1F
100
AcDbEntity
  8
0
100
AcDbLine
 10
131.1888189981241
 20
313.1744107375894
 30
0.0
 11
131.1888189981241
 21
309.6744107375894
 31
0.0
  0
LINE
  5
16AD
330
1F
100
AcDbEntity
  8
FRAME
  6
Continuous
 62
     0
100
AcDbLine
 10
158.1888189981237
 20
294.6744107375894
 30
0.0
 11
158.1888189981236
 21
291.1744107375894
 31
0.0
  0
LINE
  5
16AE
330
1F
100
AcDbEntity
  8
FRAME
  6
Continuous
 62
     0
100
AcDbLine
 10
167.1888189981238
 20
294.6744107375894
 30
0.0
 11
167.1888189981237
 21
291.1744107375894
 31
0.0
  0
LINE
  5
16AF
330
1F
100
AcDbEntity
  8
FRAME
  6
Continuous
 62
     0
100
AcDbLine
 10
158.1888189981236
 20
291.1744107375894
 30
0.0
 11
167.1888189981237
 21
291.1744107375894
 31
0.0
  0
LINE
  5
16B0
330
1F
100
AcDbEntity
  8
FRAME
  6
Continuous
 62
     0
100
AcDbLine
 10
177.1888189981238
 20
294.6744107375894
 30
0.0
 11
177.1888189981237
 21
291.1744107375894
 31
0.0
  0
LINE
  5
16B1
330
1F
100
AcDbEntity
  8
FRAME
  6
Continuous
 62
     0
100
AcDbLine
 10
186.1888189981239
 20
294.6744107375894
 30
0.0
 11
186.1888189981238
 21
291.1744107375894
 31
0.0
  0
LINE
  5
16B2
330
1F
100
AcDbEntity
  8
FRAME
  6
Continuous
 62
     0
100
AcDbLine
 10
177.1888189981237
 20
291.1744107375894
 30
0.0
 11
186.1888189981238
 21
291.1744107375894
 31
0.0
  0
LINE
  5
16B3
330
1F
100
AcDbEntity
  8
FRAME
  6
Continuous
 62
     0
100
AcDbLine
 10
196.1888189981239
 20
294.6744107375894
 30
0.0
 11
196.1888189981238
 21
291.1744107375894
 31
0.0
  0
LINE
  5
16B4
330
1F
100
AcDbEntity
  8
FRAME
  6
Continuous
 62
     0
100
AcDbLine
 10
205.188818998124
 20
294.6744107375894
 30
0.0
 11
205.1888189981239
 21
291.1744107375894
 31
0.0
  0
LINE
  5
16B5
330
1F
100
AcDbEntity
  8
FRAME
  6
Continuous
 62
     0
100
AcDbLine
 10
196.1888189981238
 20
291.1744107375894
 30
0.0
 11
205.1888189981239
 21
291.1744107375894
 31
0.0
  0
LINE
  5
16B6
330
1F
100
AcDbEntity
  8
FRAME
  6
Continuous
 62
     0
100
AcDbLine
 10
215.188818998124
 20
294.6744107375894
 30
0.0
 11
215.1888189981239
 21
291.1744107375894
 31
0.0
  0
LINE
  5
16B7
330
1F
100
AcDbEntity
  8
FRAME
  6
Continuous
 62
     0
100
AcDbLine
 10
224.1888189981241
 20
294.6744107375894
 30
0.0
 11
224.188818998124
 21
291.1744107375894
 31
0.0
  0
LINE
  5
16B8
330
1F
100
AcDbEntity
  8
FRAME
  6
Continuous
 62
     0
100
AcDbLine
 10
215.1888189981239
 20
291.1744107375894
 30
0.0
 11
224.188818998124
 21
291.1744107375894
 31
0.0
  0
LINE
  5
16B9
330
1F
100
AcDbEntity
  8
0
100
AcDbLine
 10
167.1888189981238
 20
294.6744107375894
 30
0.0
 11
177.1888189981238
 21
294.6744107375894
 31
0.0
  0
LINE
  5
16BA
330
1F
100
AcDbEntity
  8
0
100
AcDbLine
 10
186.1888189981239
 20
294.6744107375894
 30
0.0
 11
196.1888189981239
 21
294.6744107375894
 31
0.0
  0
LINE
  5
16BB
330
1F
100
AcDbEntity
  8
0
100
AcDbLine
 10
205.188818998124
 20
294.6744107375894
 30
0.0
 11
215.188818998124
 21
294.6744107375894
 31
0.0
  0
LINE
  5
16BC
330
1F
100
AcDbEntity
  8
0
100
AcDbLine
 10
224.1888189981241
 20
294.6744107375894
 30
0.0
 11
234.1888189981241
 21
294.6744107375894
 31
0.0
  0
LINE
  5
16BD
330
1F
100
AcDbEntity
  8
FRAME
  6
Continuous
 62
     0
100
AcDbLine
 10
139.1888189981236
 20
294.6744107375894
 30
0.0
 11
139.1888189981235
 21
291.1744107375894
 31
0.0
  0
LINE
  5
16BE
330
1F
100
AcDbEntity
  8
FRAME
  6
Continuous
 62
     0
100
AcDbLine
 10
148.1888189981237
 20
294.6744107375894
 30
0.0
 11
148.1888189981236
 21
291.1744107375894
 31
0.0
  0
LINE
  5
16BF
330
1F
100
AcDbEntity
  8
FRAME
  6
Continuous
 62
     0
100
AcDbLine
 10
139.1888189981235
 20
291.1744107375894
 30
0.0
 11
148.1888189981236
 21
291.1744107375894
 31
0.0
  0
LINE
  5
16C0
330
1F
100
AcDbEntity
  8
0
100
AcDbLine
 10
148.1888189981237
 20
294.6744107375894
 30
0.0
 11
158.1888189981237
 21
294.6744107375894
 31
0.0
  0
LINE
  5
170A
330
1F
100
AcDbEntity
  8
0
100
AcDbLine
 10
120.1532729559924
 20
47.05702531077016
 30
0.0
 11
137.1532729559919
 21
47.05702531077016
 31
0.0
  0
LINE
  5
170B
330
1F
100
AcDbEntity
  8
0
100
AcDbLine
 10
129.1532729559924
 20
62.05702531077016
 30
0.0
 11
255.1532729559924
 21
62.05702531077016
 31
0.0
  0
LINE
  5
170C
330
1F
100
AcDbEntity
  8
0
100
AcDbLine
 10
120.1532729559924
 20
62.05702531077016
 30
0.0
 11
120.1532729559924
 21
47.05702531077016
 31
0.0
  0
LINE
  5
170D
330
1F
100
AcDbEntity
  8
0
100
AcDbLine
 10
255.1532729559924
 20
62.05702531077016
 30
0.0
 11
255.1532729559924
 21
47.05702531077016
 31
0.0
  0
LINE
  5
1711
330
1F
100
AcDbEntity
  8
0
100
AcDbLine
 10
240.1532729559924
 20
47.05702531077016
 30
0.0
 11
255.1532729559924
 21
47.05702531077016
 31
0.0
  0
LINE
  5
1712
330
1F
100
AcDbEntity
  8
0
100
AcDbLine
 10
120.1532729559924
 20
65.55702531077016
 30
0.0
 11
129.1528607689652
 21
65.55702531077016
 31
0.0
  0
LINE
  5
1713
330
1F
100
AcDbEntity
  8
0
100
AcDbLine
 10
120.1532729559924
 20
65.55702531077016
 30
0.0
 11
120.1532729559924
 21
62.05702531077016
 31
0.0
  0
LINE
  5
1714
330
1F
100
AcDbEntity
  8
0
100
AcDbLine
 10
129.1532729559924
 20
65.55702531077016
 30
0.0
 11
129.1532729559924
 21
62.05702531077016
 31
0.0
  0
LINE
  5
1715
330
1F
100
AcDbEntity
  8
FRAME
  6
Continuous
 62
     0
100
AcDbLine
 10
156.153272955992
 20
47.05702531077016
 30
0.0
 11
156.1532729559919
 21
43.55702531077016
 31
0.0
  0
LINE
  5
1716
330
1F
100
AcDbEntity
  8
FRAME
  6
Continuous
 62
     0
100
AcDbLine
 10
165.1532729559921
 20
47.05702531077016
 30
0.0
 11
165.153272955992
 21
43.55702531077016
 31
0.0
  0
LINE
  5
1717
330
1F
100
AcDbEntity
  8
FRAME
  6
Continuous
 62
     0
100
AcDbLine
 10
156.1532729559919
 20
43.55702531077016
 30
0.0
 11
165.153272955992
 21
43.55702531077016
 31
0.0
  0
LINE
  5
1718
330
1F
100
AcDbEntity
  8
FRAME
  6
Continuous
 62
     0
100
AcDbLine
 10
175.1532729559921
 20
47.05702531077016
 30
0.0
 11
175.153272955992
 21
43.55702531077016
 31
0.0
  0
LINE
  5
1719
330
1F
100
AcDbEntity
  8
FRAME
  6
Continuous
 62
     0
100
AcDbLine
 10
184.1532729559922
 20
47.05702531077016
 30
0.0
 11
184.1532729559921
 21
43.55702531077016
 31
0.0
  0
LINE
  5
171A
330
1F
100
AcDbEntity
  8
FRAME
  6
Continuous
 62
     0
100
AcDbLine
 10
175.153272955992
 20
43.55702531077016
 30
0.0
 11
184.1532729559921
 21
43.55702531077016
 31
0.0
  0
LINE
  5
171B
330
1F
100
AcDbEntity
  8
FRAME
  6
Continuous
 62
     0
100
AcDbLine
 10
194.1532729559922
 20
47.05702531077016
 30
0.0
 11
194.1532729559921
 21
43.55702531077016
 31
0.0
  0
LINE
  5
171C
330
1F
100
AcDbEntity
  8
FRAME
  6
Continuous
 62
     0
100
AcDbLine
 10
203.1532729559923
 20
47.05702531077016
 30
0.0
 11
203.1532729559922
 21
43.55702531077016
 31
0.0
  0
LINE
  5
171D
330
1F
100
AcDbEntity
  8
FRAME
  6
Continuous
 62
     0
100
AcDbLine
 10
194.1532729559921
 20
43.55702531077016
 30
0.0
 11
203.1532729559922
 21
43.55702531077016
 31
0.0
  0
LINE
  5
171E
330
1F
100
AcDbEntity
  8
FRAME
  6
Continuous
 62
     0
100
AcDbLine
 10
213.1532729559923
 20
47.05702531077016
 30
0.0
 11
213.1532729559922
 21
43.55702531077016
 31
0.0
  0
LINE
  5
171F
330
1F
100
AcDbEntity
  8
FRAME
  6
Continuous
 62
     0
100
AcDbLine
 10
222.1532729559924
 20
47.05702531077016
 30
0.0
 11
222.1532729559923
 21
43.55702531077016
 31
0.0
  0
LINE
  5
1720
330
1F
100
AcDbEntity
  8
FRAME
  6
Continuous
 62
     0
100
AcDbLine
 10
213.1532729559922
 20
43.55702531077016
 30
0.0
 11
222.1532729559923
 21
43.55702531077016
 31
0.0
  0
LINE
  5
1721
330
1F
100
AcDbEntity
  8
0
100
AcDbLine
 10
165.1532729559921
 20
47.05702531077016
 30
0.0
 11
175.1532729559921
 21
47.05702531077016
 31
0.0
  0
LINE
  5
1722
330
1F
100
AcDbEntity
  8
0
100
AcDbLine
 10
184.1532729559922
 20
47.05702531077016
 30
0.0
 11
194.1532729559922
 21
47.05702531077016
 31
0.0
  0
LINE
  5
1723
330
1F
100
AcDbEntity
  8
0
100
AcDbLine
 10
203.1532729559923
 20
47.05702531077016
 30
0.0
 11
213.1532729559923
 21
47.05702531077016
 31
0.0
  0
LINE
  5
1724
330
1F
100
AcDbEntity
  8
0
100
AcDbLine
 10
222.1532729559924
 20
47.05702531077016
 30
0.0
 11
232.1532729559924
 21
47.05702531077016
 31
0.0
  0
LINE
  5
1725
330
1F
100
AcDbEntity
  8
FRAME
  6
Continuous
 62
     0
100
AcDbLine
 10
137.1532729559919
 20
47.05702531077016
 30
0.0
 11
137.1532729559918
 21
43.55702531077016
 31
0.0
  0
LINE
  5
1726
330
1F
100
AcDbEntity
  8
FRAME
  6
Continuous
 62
     0
100
AcDbLine
 10
146.153272955992
 20
47.05702531077016
 30
0.0
 11
146.1532729559919
 21
43.55702531077016
 31
0.0
  0
LINE
  5
1727
330
1F
100
AcDbEntity
  8
FRAME
  6
Continuous
 62
     0
100
AcDbLine
 10
137.1532729559918
 20
43.55702531077016
 30
0.0
 11
146.1532729559919
 21
43.55702531077016
 31
0.0
  0
LINE
  5
1728
330
1F
100
AcDbEntity
  8
0
100
AcDbLine
 10
146.153272955992
 20
47.05702531077016
 30
0.0
 11
156.153272955992
 21
47.05702531077016
 31
0.0
  0
LINE
  5
1772
330
1F
100
AcDbEntity
  8
0
100
AcDbLine
 10
121.0058574997594
 20
22.25591123988042
 30
0.0
 11
138.0058574997589
 21
22.25591123988042
 31
0.0
  0
LINE
  5
1773
330
1F
100
AcDbEntity
  8
0
100
AcDbLine
 10
130.0058574997594
 20
37.25591123988042
 30
0.0
 11
256.0058574997594
 21
37.25591123988042
 31
0.0
  0
LINE
  5
1774
330
1F
100
AcDbEntity
  8
0
100
AcDbLine
 10
121.0058574997594
 20
37.25591123988042
 30
0.0
 11
121.0058574997594
 21
22.25591123988042
 31
0.0
  0
LINE
  5
1775
330
1F
100
AcDbEntity
  8
0
100
AcDbLine
 10
256.0058574997594
 20
37.25591123988042
 30
0.0
 11
256.0058574997594
 21
22.25591123988042
 31
0.0
  0
LINE
  5
1779
330
1F
100
AcDbEntity
  8
0
100
AcDbLine
 10
241.0058574997594
 20
22.25591123988042
 30
0.0
 11
256.0058574997594
 21
22.25591123988042
 31
0.0
  0
LINE
  5
177A
330
1F
100
AcDbEntity
  8
0
100
AcDbLine
 10
121.0058574997594
 20
40.75591123988042
 30
0.0
 11
130.0054453127322
 21
40.75591123988042
 31
0.0
  0
LINE
  5
177B
330
1F
100
AcDbEntity
  8
0
100
AcDbLine
 10
121.0058574997594
 20
40.75591123988042
 30
0.0
 11
121.0058574997594
 21
37.25591123988042
 31
0.0
  0
LINE
  5
177C
330
1F
100
AcDbEntity
  8
0
100
AcDbLine
 10
130.0058574997594
 20
40.75591123988042
 30
0.0
 11
130.0058574997594
 21
37.25591123988042
 31
0.0
  0
LINE
  5
177D
330
1F
100
AcDbEntity
  8
FRAME
  6
Continuous
 62
     0
100
AcDbLine
 10
157.005857499759
 20
22.25591123988042
 30
0.0
 11
157.0058574997589
 21
18.75591123988042
 31
0.0
  0
LINE
  5
177E
330
1F
100
AcDbEntity
  8
FRAME
  6
Continuous
 62
     0
100
AcDbLine
 10
166.0058574997591
 20
22.25591123988042
 30
0.0
 11
166.005857499759
 21
18.75591123988042
 31
0.0
  0
LINE
  5
177F
330
1F
100
AcDbEntity
  8
FRAME
  6
Continuous
 62
     0
100
AcDbLine
 10
157.0058574997589
 20
18.75591123988042
 30
0.0
 11
166.005857499759
 21
18.75591123988042
 31
0.0
  0
LINE
  5
1780
330
1F
100
AcDbEntity
  8
FRAME
  6
Continuous
 62
     0
100
AcDbLine
 10
176.0058574997591
 20
22.25591123988042
 30
0.0
 11
176.005857499759
 21
18.75591123988042
 31
0.0
  0
LINE
  5
1781
330
1F
100
AcDbEntity
  8
FRAME
  6
Continuous
 62
     0
100
AcDbLine
 10
185.0058574997592
 20
22.25591123988042
 30
0.0
 11
185.0058574997591
 21
18.75591123988042
 31
0.0
  0
LINE
  5
1782
330
1F
100
AcDbEntity
  8
FRAME
  6
Continuous
 62
     0
100
AcDbLine
 10
176.005857499759
 20
18.75591123988042
 30
0.0
 11
185.0058574997591
 21
18.75591123988042
 31
0.0
  0
LINE
  5
1783
330
1F
100
AcDbEntity
  8
FRAME
  6
Continuous
 62
     0
100
AcDbLine
 10
195.0058574997592
 20
22.25591123988042
 30
0.0
 11
195.0058574997591
 21
18.75591123988042
 31
0.0
  0
LINE
  5
1784
330
1F
100
AcDbEntity
  8
FRAME
  6
Continuous
 62
     0
100
AcDbLine
 10
204.0058574997593
 20
22.25591123988042
 30
0.0
 11
204.0058574997592
 21
18.75591123988042
 31
0.0
  0
LINE
  5
1785
330
1F
100
AcDbEntity
  8
FRAME
  6
Continuous
 62
     0
100
AcDbLine
 10
195.0058574997591
 20
18.75591123988042
 30
0.0
 11
204.0058574997592
 21
18.75591123988042
 31
0.0
  0
LINE
  5
1786
330
1F
100
AcDbEntity
  8
FRAME
  6
Continuous
 62
     0
100
AcDbLine
 10
214.0058574997593
 20
22.25591123988042
 30
0.0
 11
214.0058574997592
 21
18.75591123988042
 31
0.0
  0
LINE
  5
1787
330
1F
100
AcDbEntity
  8
FRAME
  6
Continuous
 62
     0
100
AcDbLine
 10
223.0058574997594
 20
22.25591123988042
 30
0.0
 11
223.0058574997593
 21
18.75591123988042
 31
0.0
  0
LINE
  5
1788
330
1F
100
AcDbEntity
  8
FRAME
  6
Continuous
 62
     0
100
AcDbLine
 10
214.0058574997592
 20
18.75591123988042
 30
0.0
 11
223.0058574997593
 21
18.75591123988042
 31
0.0
  0
LINE
  5
1789
330
1F
100
AcDbEntity
  8
0
100
AcDbLine
 10
166.0058574997591
 20
22.25591123988042
 30
0.0
 11
176.0058574997591
 21
22.25591123988042
 31
0.0
  0
LINE
  5
178A
330
1F
100
AcDbEntity
  8
0
100
AcDbLine
 10
185.0058574997592
 20
22.25591123988042
 30
0.0
 11
195.0058574997592
 21
22.25591123988042
 31
0.0
  0
LINE
  5
178B
330
1F
100
AcDbEntity
  8
0
100
AcDbLine
 10
204.0058574997593
 20
22.25591123988042
 30
0.0
 11
214.0058574997593
 21
22.25591123988042
 31
0.0
  0
LINE
  5
178C
330
1F
100
AcDbEntity
  8
0
100
AcDbLine
 10
223.0058574997594
 20
22.25591123988042
 30
0.0
 11
233.0058574997594
 21
22.25591123988042
 31
0.0
  0
LINE
  5
178D
330
1F
100
AcDbEntity
  8
FRAME
  6
Continuous
 62
     0
100
AcDbLine
 10
138.0058574997589
 20
22.25591123988042
 30
0.0
 11
138.0058574997587
 21
18.75591123988042
 31
0.0
  0
LINE
  5
178E
330
1F
100
AcDbEntity
  8
FRAME
  6
Continuous
 62
     0
100
AcDbLine
 10
147.005857499759
 20
22.25591123988042
 30
0.0
 11
147.0058574997589
 21
18.75591123988042
 31
0.0
  0
LINE
  5
178F
330
1F
100
AcDbEntity
  8
FRAME
  6
Continuous
 62
     0
100
AcDbLine
 10
138.0058574997587
 20
18.75591123988042
 30
0.0
 11
147.0058574997589
 21
18.75591123988042
 31
0.0
  0
LINE
  5
1790
330
1F
100
AcDbEntity
  8
0
100
AcDbLine
 10
147.005857499759
 20
22.25591123988042
 30
0.0
 11
157.005857499759
 21
22.25591123988042
 31
0.0
  0
CIRCLE
  5
18B2
330
1F
100
AcDbEntity
  8
CORTES_INTERIORES
100
AcDbCircle
 10
293.2241354760907
 20
282.7961507021409
 30
0.0000000000000071
 40
1.5
  0
CIRCLE
  5
18B3
330
1F
100
AcDbEntity
  8
CORTES_INTERIORES
100
AcDbCircle
 10
80.73307984790873
 20
282.7961507021409
 30
0.0000000000000071
 40
1.5
  0
CIRCLE
  5
18C4
330
1F
100
AcDbEntity
  8
CORTES_INTERIORES
100
AcDbCircle
 10
80.73307984790873
 20
276.7961507021409
 30
0.0000000000000071
 40
1.0
  0
CIRCLE
  5
18C5
330
1F
100
AcDbEntity
  8
CORTES_INTERIORES
100
AcDbCircle
 10
72.73307984790873
 20
282.7961507021409
 30
0.0000000000000071
 40
1.0
  0
CIRCLE
  5
18C6
330
1F
100
AcDbEntity
  8
CORTES_INTERIORES
100
AcDbCircle
 10
80.73307984790873
 20
288.7961507021409
 30
0.0000000000000071
 40
1.0
  0
CIRCLE
  5
18C7
330
1F
100
AcDbEntity
  8
CORTES_INTERIORES
100
AcDbCircle
 10
88.73307984790873
 20
282.7961507021409
 30
0.0000000000000071
 40
1.0
  0
CIRCLE
  5
18C9
330
1F
100
AcDbEntity
  8
CORTES_INTERIORES
100
AcDbCircle
 10
80.73307984790873
 20
294.1098592011256
 30
0.0000000000000071
 40
1.0
  0
CIRCLE
  5
18CA
330
1F
100
AcDbEntity
  8
CORTES_INTERIORES
100
AcDbCircle
 10
92.04678834689349
 20
282.7961507021409
 30
0.0000000000000071
 40
1.0
  0
CIRCLE
  5
18CB
330
1F
100
AcDbEntity
  8
CORTES_INTERIORES
100
AcDbCircle
 10
80.73307984790873
 20
271.4824422031562
 30
0.0000000000000071
 40
1.0
  0
CIRCLE
  5
18CC
330
1F
100
AcDbEntity
  8
CORTES_INTERIORES
100
AcDbCircle
 10
69.41937134892396
 20
282.7961507021409
 30
0.0000000000000071
 40
1.0
  0
CIRCLE
  5
192C
330
1F
100
AcDbEntity
  8
CORTES_INTERIORES
100
AcDbCircle
 10
293.2241354760907
 20
276.7961507021409
 30
0.0000000000000071
 40
1.0
  0
CIRCLE
  5
192D
330
1F
100
AcDbEntity
  8
CORTES_INTERIORES
100
AcDbCircle
 10
293.2241354760907
 20
288.7961507021409
 30
0.0000000000000071
 40
1.0
  0
CIRCLE
  5
192E
330
1F
100
AcDbEntity
  8
CORTES_INTERIORES
100
AcDbCircle
 10
293.2241354760907
 20
294.1098592011256
 30
0.0000000000000071
 40
1.0
  0
CIRCLE
  5
192F
330
1F
100
AcDbEntity
  8
CORTES_INTERIORES
100
AcDbCircle
 10
293.2241354760907
 20
271.4824422031562
 30
0.0000000000000071
 40
1.0
  0
CIRCLE
  5
1931
330
1F
100
AcDbEntity
  8
CORTES_INTERIORES
100
AcDbCircle
 10
285.2241354760907
 20
282.7961507021409
 30
0.0000000000000071
 40
1.0
  0
CIRCLE
  5
1932
330
1F
100
AcDbEntity
  8
CORTES_INTERIORES
100
AcDbCircle
 10
301.2241354760907
 20
282.7961507021409
 30
0.0000000000000071
 40
1.0
  0
CIRCLE
  5
1933
330
1F
100
AcDbEntity
  8
CORTES_INTERIORES
100
AcDbCircle
 10
304.5378439750755
 20
282.7961507021409
 30
0.0000000000000071
 40
1.0
  0
CIRCLE
  5
1934
330
1F
100
AcDbEntity
  8
CORTES_INTERIORES
100
AcDbCircle
 10
281.910426977106
 20
282.7961507021409
 30
0.0000000000000071
 40
1.0
  0
CIRCLE
  5
1965
330
1F
100
AcDbEntity
  8
CORTES_INTERIORES
100
AcDbCircle
 10
293.3531102796386
 20
43.49311384228969
 30
0.0000000000000071
 40
1.0
  0
CIRCLE
  5
1966
330
1F
100
AcDbEntity
  8
CORTES_INTERIORES
100
AcDbCircle
 10
293.3531102796386
 20
55.49311384228969
 30
0.0000000000000071
 40
1.0
  0
CIRCLE
  5
1967
330
1F
100
AcDbEntity
  8
CORTES_INTERIORES
100
AcDbCircle
 10
293.3531102796386
 20
60.80682234127443
 30
0.0000000000000071
 40
1.0
  0
CIRCLE
  5
1968
330
1F
100
AcDbEntity
  8
CORTES_INTERIORES
100
AcDbCircle
 10
293.3531102796386
 20
38.17940534330495
 30
0.0000000000000071
 40
1.0
  0
CIRCLE
  5
1969
330
1F
100
AcDbEntity
  8
CORTES_INTERIORES
100
AcDbCircle
 10
293.3531102796386
 20
49.49311384228969
 30
0.0000000000000071
 40
1.5
  0
CIRCLE
  5
196A
330
1F
100
AcDbEntity
  8
CORTES_INTERIORES
100
AcDbCircle
 10
285.3531102796386
 20
49.49311384228969
 30
0.0000000000000071
 40
1.0
  0
CIRCLE
  5
196B
330
1F
100
AcDbEntity
  8
CORTES_INTERIORES
100
AcDbCircle
 10
301.3531102796386
 20
49.49311384228969
 30
0.0000000000000071
 40
1.0
  0
CIRCLE
  5
196C
330
1F
100
AcDbEntity
  8
CORTES_INTERIORES
100
AcDbCircle
 10
304.6668187786234
 20
49.49311384228969
 30
0.0000000000000071
 40
1.0
  0
CIRCLE
  5
196D
330
1F
100
AcDbEntity
  8
CORTES_INTERIORES
100
AcDbCircle
 10
282.0394017806539
 20
49.49311384228969
 30
0.0000000000000071
 40
1.0
  0
CIRCLE
  5
199E
330
1F
100
AcDbEntity
  8
CORTES_INTERIORES
100
AcDbCircle
 10
80.86218453062034
 20
43.25817490494296
 30
0.0000000000000071
 40
1.0
  0
CIRCLE
  5
199F
330
1F
100
AcDbEntity
  8
CORTES_INTERIORES
100
AcDbCircle
 10
80.86218453062034
 20
55.25817490494296
 30
0.0000000000000071
 40
1.0
  0
CIRCLE
  5
19A0
330
1F
100
AcDbEntity
  8
CORTES_INTERIORES
100
AcDbCircle
 10
80.86218453062034
 20
60.5718834039277
 30
0.0000000000000071
 40
1.0
  0
CIRCLE
  5
19A1
330
1F
100
AcDbEntity
  8
CORTES_INTERIORES
100
AcDbCircle
 10
80.86218453062034
 20
37.94446640595822
 30
0.0000000000000071
 40
1.0
  0
CIRCLE
  5
19A2
330
1F
100
AcDbEntity
  8
CORTES_INTERIORES
100
AcDbCircle
 10
80.86218453062034
 20
49.25817490494296
 30
0.0000000000000071
 40
1.5
  0
CIRCLE
  5
19A3
330
1F
100
AcDbEntity
  8
CORTES_INTERIORES
100
AcDbCircle
 10
72.86218453062034
 20
49.25817490494296
 30
0.0000000000000071
 40
1.0
  0
CIRCLE
  5
19A4
330
1F
100
AcDbEntity
  8
CORTES_INTERIORES
100
AcDbCircle
 10
88.86218453062034
 20
49.25817490494296
 30
0.0000000000000071
 40
1.0
  0
CIRCLE
  5
19A5
330
1F
100
AcDbEntity
  8
CORTES_INTERIORES
100
AcDbCircle
 10
92.1758930296051
 20
49.25817490494296
 30
0.0000000000000071
 40
1.0
  0
CIRCLE
  5
19A6
330
1F
100
AcDbEntity
  8
CORTES_INTERIORES
100
AcDbCircle
 10
69.54847603163557
 20
49.25817490494296
 30
0.0000000000000071
 40
1.0
  0
LINE
  5
19A7
330
1F
100
AcDbEntity
  8
0
100
AcDbLine
 10
233.0058574997594
 20
22.25591123988042
 30
0.0
 11
241.0058574997594
 21
22.25591123988042
 31
0.0
  0
LINE
  5
19A8
330
1F
100
AcDbEntity
  8
0
100
AcDbLine
 10
232.1532729559924
 20
47.05702531077016
 30
0.0
 11
240.1532729559924
 21
47.05702531077016
 31
0.0
  0
LINE
  5
19A9
330
1F
100
AcDbEntity
  8
0
100
AcDbLine
 10
232.4925646611903
 20
266.9758000441722
 30
0.0000000000000071
 11
240.4925646611903
 21
266.9758000441722
 31
0.0000000000000071
  0
LINE
  5
19AA
330
1F
100
AcDbEntity
  8
0
100
AcDbLine
 10
234.1888189981241
 20
294.6744107375894
 30
0.0
 11
242.1888189981241
 21
294.6744107375894
 31
0.0
  0
ARC
  5
1AE6
330
1F
100
AcDbEntity
  8
FRAME
  6
Continuous
 62
     0
100
AcDbCircle
 10
291.6279311742546
 20
101.1615552104307
 30
0.0000000000000142
 40
15.0
100
AcDbArc
 50
8.787074624561235
 51
255.9016941484025
  0
ARC
  5
1AE7
330
1F
100
AcDbEntity
  8
FRAME
  6
Continuous
 62
     0
100
AcDbCircle
 10
313.4658843844226
 20
254.3161882198399
 30
0.0000000000000142
 40
15.0
100
AcDbArc
 50
284.1616544582287
 51
171.2762739820709
  0
ARC
  5
1AE8
330
1F
100
AcDbEntity
  8
FRAME
  6
Continuous
 62
     0
100
AcDbCircle
 10
126.0840415929626
 20
178.1800315964882
 30
0.0000000000000071
 40
15.0
100
AcDbArc
 50
188.7870746245615
 51
75.90169414840295
  0
ARC
  5
1AE9
330
1F
100
AcDbEntity
  8
FRAME
  6
Continuous
 62
     0
100
AcDbCircle
 10
102.8752683893172
 20
122.2062238041912
 30
0.0000000000000071
 40
15.0
100
AcDbArc
 50
104.1616544582294
 51
351.2762739820706
  0
LINE
  5
1AEA
330
1F
100
AcDbEntity
  8
FRAME
  6
Continuous
 62
     0
100
AcDbLine
 10
315.2478111865815
 20
237.6958373931412
 30
0.0000000000000142
 11
297.0202889761034
 21
217.6507275140811
 31
0.0000000000000142
  0
LINE
  5
1AEB
330
1F
100
AcDbEntity
  8
FRAME
  6
Continuous
 62
     0
100
AcDbLine
 10
297.4284666967143
 20
255.2595381968834
 30
0.0000000000000142
 11
278.523943636581
 21
234.4699192033724
 31
0.0000000000000142
  0
LINE
  5
1AEC
330
1F
100
AcDbEntity
  8
FRAME
  6
Continuous
 62
     0
100
AcDbLine
 10
317.1357622431394
 20
239.7720486267908
 30
0.0000000000000142
 11
315.2478111865815
 21
237.6958373931412
 31
0.0000000000000142
  0
LINE
  5
1AED
330
1F
100
AcDbEntity
  8
FRAME
  6
Continuous
 62
     0
100
AcDbLine
 10
298.639416903617
 20
256.5912403160821
 30
0.0000000000000142
 11
297.4284666967143
 21
255.2595381968834
 31
0.0000000000000142
  0
LINE
  5
1AEE
330
1F
100
AcDbEntity
  8
FRAME
  6
Continuous
 62
     0
100
AcDbLine
 10
306.4518742007036
 20
103.4529986744054
 30
0.0000000000000142
 11
327.331657524203
 21
80.54209583774991
 31
0.0000000000000142
  0
LINE
  5
1AEF
330
1F
100
AcDbEntity
  8
FRAME
  6
Continuous
 62
     0
100
AcDbLine
 10
287.9741361635012
 20
86.61336693768021
 30
0.0000000000000142
 11
308.8539194870006
 21
63.70246410102476
 31
0.0000000000000142
  0
CIRCLE
  5
1BBA
330
1F
100
AcDbEntity
  8
CORTES_INTERIORES
100
AcDbCircle
 10
291.6279311742546
 20
95.16155521043072
 30
0.0000000000000142
 40
1.0
  0
CIRCLE
  5
1BBB
330
1F
100
AcDbEntity
  8
CORTES_INTERIORES
100
AcDbCircle
 10
283.6279311742546
 20
101.1615552104307
 30
0.0000000000000142
 40
1.0
  0
CIRCLE
  5
1BBC
330
1F
100
AcDbEntity
  8
CORTES_INTERIORES
100
AcDbCircle
 10
291.6279311742546
 20
107.1615552104307
 30
0.0000000000000142
 40
1.0
  0
CIRCLE
  5
1BBD
330
1F
100
AcDbEntity
  8
CORTES_INTERIORES
100
AcDbCircle
 10
299.6279311742546
 20
101.1615552104307
 30
0.0000000000000142
 40
1.0
  0
CIRCLE
  5
1BBE
330
1F
100
AcDbEntity
  8
CORTES_INTERIORES
100
AcDbCircle
 10
291.6279311742546
 20
112.4752637094155
 30
0.0000000000000142
 40
1.0
  0
CIRCLE
  5
1BBF
330
1F
100
AcDbEntity
  8
CORTES_INTERIORES
100
AcDbCircle
 10
302.9416396732393
 20
101.1615552104307
 30
0.0000000000000142
 40
1.0
  0
CIRCLE
  5
1BC0
330
1F
100
AcDbEntity
  8
CORTES_INTERIORES
100
AcDbCircle
 10
291.6279311742546
 20
89.84784671144592
 30
0.0000000000000142
 40
1.0
  0
CIRCLE
  5
1BC1
330
1F
100
AcDbEntity
  8
CORTES_INTERIORES
100
AcDbCircle
 10
280.3142226752698
 20
101.1615552104307
 30
0.0000000000000142
 40
1.0
  0
CIRCLE
  5
1BC2
330
1F
100
AcDbEntity
  8
CORTES_INTERIORES
100
AcDbCircle
 10
313.4658843844226
 20
248.3161882198399
 30
0.0000000000000142
 40
1.0
  0
CIRCLE
  5
1BC3
330
1F
100
AcDbEntity
  8
CORTES_INTERIORES
100
AcDbCircle
 10
313.4658843844226
 20
260.3161882198399
 30
0.0000000000000142
 40
1.0
  0
CIRCLE
  5
1BC4
330
1F
100
AcDbEntity
  8
CORTES_INTERIORES
100
AcDbCircle
 10
313.4658843844226
 20
265.6298967188247
 30
0.0000000000000142
 40
1.0
  0
CIRCLE
  5
1BC5
330
1F
100
AcDbEntity
  8
CORTES_INTERIORES
100
AcDbCircle
 10
313.4658843844226
 20
243.0024797208551
 30
0.0000000000000142
 40
1.0
  0
CIRCLE
  5
1BC6
330
1F
100
AcDbEntity
  8
CORTES_INTERIORES
100
AcDbCircle
 10
305.4658843844226
 20
254.3161882198399
 30
0.0000000000000142
 40
1.0
  0
CIRCLE
  5
1BC7
330
1F
100
AcDbEntity
  8
CORTES_INTERIORES
100
AcDbCircle
 10
321.4658843844226
 20
254.3161882198399
 30
0.0000000000000142
 40
1.0
  0
CIRCLE
  5
1BC8
330
1F
100
AcDbEntity
  8
CORTES_INTERIORES
100
AcDbCircle
 10
324.7795928834073
 20
254.3161882198399
 30
0.0000000000000142
 40
1.0
  0
CIRCLE
  5
1BC9
330
1F
100
AcDbEntity
  8
CORTES_INTERIORES
100
AcDbCircle
 10
302.1521758854378
 20
254.3161882198399
 30
0.0000000000000142
 40
1.0
  0
CIRCLE
  5
1BCA
330
1F
100
AcDbEntity
  8
CORTES_INTERIORES
100
AcDbCircle
 10
126.0840415929626
 20
172.1800315964882
 30
0.0000000000000071
 40
1.0
  0
CIRCLE
  5
1BCB
330
1F
100
AcDbEntity
  8
CORTES_INTERIORES
100
AcDbCircle
 10
126.0840415929626
 20
184.1800315964882
 30
0.0000000000000071
 40
1.0
  0
CIRCLE
  5
1BCC
330
1F
100
AcDbEntity
  8
CORTES_INTERIORES
100
AcDbCircle
 10
126.0840415929626
 20
189.493740095473
 30
0.0000000000000071
 40
1.0
  0
CIRCLE
  5
1BCD
330
1F
100
AcDbEntity
  8
CORTES_INTERIORES
100
AcDbCircle
 10
126.0840415929626
 20
166.8663230975035
 30
0.0000000000000071
 40
1.0
  0
CIRCLE
  5
1BCF
330
1F
100
AcDbEntity
  8
CORTES_INTERIORES
100
AcDbCircle
 10
118.0840415929626
 20
178.1800315964882
 30
0.0000000000000071
 40
1.0
  0
CIRCLE
  5
1BD0
330
1F
100
AcDbEntity
  8
CORTES_INTERIORES
100
AcDbCircle
 10
134.0840415929626
 20
178.1800315964882
 30
0.0000000000000071
 40
1.0
  0
CIRCLE
  5
1BD1
330
1F
100
AcDbEntity
  8
CORTES_INTERIORES
100
AcDbCircle
 10
137.3977500919474
 20
178.1800315964882
 30
0.0000000000000071
 40
1.0
  0
CIRCLE
  5
1BD2
330
1F
100
AcDbEntity
  8
CORTES_INTERIORES
100
AcDbCircle
 10
114.7703330939779
 20
178.1800315964882
 30
0.0000000000000071
 40
1.0
  0
CIRCLE
  5
1BD3
330
1F
100
AcDbEntity
  8
CORTES_INTERIORES
100
AcDbCircle
 10
102.8752683893172
 20
116.2062238041912
 30
0.0000000000000071
 40
1.0
  0
CIRCLE
  5
1BD4
330
1F
100
AcDbEntity
  8
CORTES_INTERIORES
100
AcDbCircle
 10
102.8752683893172
 20
128.2062238041912
 30
0.0000000000000071
 40
1.0
  0
CIRCLE
  5
1BD5
330
1F
100
AcDbEntity
  8
CORTES_INTERIORES
100
AcDbCircle
 10
102.8752683893172
 20
133.519932303176
 30
0.0000000000000071
 40
1.0
  0
CIRCLE
  5
1BD6
330
1F
100
AcDbEntity
  8
CORTES_INTERIORES
100
AcDbCircle
 10
102.8752683893172
 20
110.8925153052065
 30
0.0000000000000071
 40
1.0
  0
CIRCLE
  5
1BD8
330
1F
100
AcDbEntity
  8
CORTES_INTERIORES
100
AcDbCircle
 10
94.87526838931723
 20
122.2062238041912
 30
0.0000000000000071
 40
1.0
  0
CIRCLE
  5
1BD9
330
1F
100
AcDbEntity
  8
CORTES_INTERIORES
100
AcDbCircle
 10
110.8752683893172
 20
122.2062238041912
 30
0.0000000000000071
 40
1.0
  0
CIRCLE
  5
1BDA
330
1F
100
AcDbEntity
  8
CORTES_INTERIORES
100
AcDbCircle
 10
114.188976888302
 20
122.2062238041912
 30
0.0000000000000071
 40
1.0
  0
CIRCLE
  5
1BDB
330
1F
100
AcDbEntity
  8
CORTES_INTERIORES
100
AcDbCircle
 10
91.56155989033249
 20
122.2062238041912
 30
0.0000000000000071
 40
1.0
  0
LINE
  5
1BE1
330
1F
100
AcDbEntity
  8
0
100
AcDbLine
 10
297.0202889761034
 20
217.6507275140811
 30
0.0000000000000142
 11
278.523943636581
 21
234.4699192033724
 31
0.0000000000000142
  0
LINE
  5
1BE3
330
1F
100
AcDbEntity
  8
0
100
AcDbLine
 10
308.8539194870006
 20
63.70246410102476
 30
0.0000000000000142
 11
327.3316575242031
 21
80.54209583774997
 31
0.0000000000000142
  0
LINE
  5
1BE5
330
1F
100
AcDbEntity
  8
0
100
AcDbLine
 10
120.039220254388
 20
159.6616730745857
 30
0.0000000000000071
 11
138.5355655939105
 21
142.8424813852944
 31
0.0000000000000071
  0
LINE
  5
1BE7
330
1F
100
AcDbEntity
  8
0
100
AcDbLine
 10
90.45489357384554
 20
198.717657893369
 30
0.0000000000000071
 11
108.932631611048
 21
215.5572896300942
 31
0.0000000000000071
  0
LINE
  5
1BEA
330
1F
100
AcDbEntity
  8
0
100
AcDbLine
 10
96.38381277049893
 20
204.1209608121259
 30
0.0
 11
132.3451348291362
 21
170.3391128176485
 31
0.0
  0
LINE
  5
1BEC
330
1F
100
AcDbEntity
  8
0
100
AcDbLine
 10
98.97850227645836
 20
206.485623394934
 30
0.0
 11
134.6863522792839
 21
172.9418855134912
 31
0.0
  0
LINE
  5
1BF4
330
1F
100
AcDbEntity
  8
0
100
AcDbLine
 10
132.3451348291362
 20
170.3391128176485
 30
0.0
 11
134.6863522792839
 21
172.9418855134912
 31
0.0
  0
LINE
  5
1BFB
330
1F
100
AcDbEntity
  8
0
100
AcDbLine
 10
96.61109735200665
 20
114.3680122560315
 30
0.0
 11
132.6346570073619
 21
148.2083258716683
 31
0.0
  0
LINE
  5
1BFC
330
1F
100
AcDbEntity
  8
0
100
AcDbLine
 10
94.27057911692674
 20
116.9714417902721
 30
0.0
 11
130.0371297515754
 21
150.5703226894872
 31
0.0
  0
LINE
  5
1BFD
330
1F
100
AcDbEntity
  8
0
100
AcDbLine
 10
94.27057911692674
 20
116.9714417902721
 30
0.0
 11
96.61109735200665
 21
114.3680122560315
 31
0.0
  0
LINE
  5
1C06
330
1F
100
AcDbEntity
  8
0
100
AcDbLine
 10
285.3692979342451
 20
109.0046367270019
 30
0.0000000000000071
 11
321.4115176690503
 21
75.14679394582129
 31
0.0000000000000071
  0
LINE
  5
1C07
330
1F
100
AcDbEntity
  8
0
100
AcDbLine
 10
283.027521764993
 20
106.4023888884989
 30
0.0000000000000071
 11
318.816828163091
 21
72.78213136301315
 31
0.0000000000000071
  0
LINE
  5
1C08
330
1F
100
AcDbEntity
  8
0
100
AcDbLine
 10
283.027521764993
 20
106.4023888884989
 30
0.0000000000000071
 11
285.3692979342451
 21
109.0046367270019
 31
0.0000000000000071
  0
LINE
  5
1C13
330
1F
100
AcDbEntity
  8
0
100
AcDbLine
 10
322.0038932976364
 20
259.6445423192965
 30
0.0000000000000071
 11
287.0001790545277
 21
226.7622653030432
 31
0.0000000000000071
  0
LINE
  5
1C14
330
1F
100
AcDbEntity
  8
0
100
AcDbLine
 10
319.643869534389
 20
262.2296484785918
 30
0.0000000000000071
 11
284.4026517987412
 21
229.1242621208621
 31
0.0000000000000071
  0
LINE
  5
1C15
330
1F
100
AcDbEntity
  8
0
100
AcDbLine
 10
319.643869534389
 20
262.2296484785918
 30
0.0000000000000071
 11
322.0038932976364
 21
259.6445423192965
 31
0.0000000000000071
  0
LINE
  5
1C16
330
1F
100
AcDbEntity
  8
FRAME
  6
Continuous
 62
     0
100
AcDbLine
 10
138.5355655939105
 20
142.8424813852943
 30
0.0000000000000071
 11
117.7017358701228
 21
119.9311717079491
 31
0.0000000000000071
  0
LINE
  5
1C17
330
1F
100
AcDbEntity
  8
FRAME
  6
Continuous
 62
     0
100
AcDbLine
 10
120.039220254388
 20
159.6616730745857
 30
0.0000000000000071
 11
99.20539053060025
 21
136.7503633972404
 31
0.0000000000000071
  0
LINE
  5
1C1C
330
1F
100
AcDbEntity
  8
FRAME
  6
Continuous
 62
     0
100
AcDbLine
 10
108.932631611048
 20
215.5572896300942
 30
0.0000000000000071
 11
129.7378366037161
 21
192.7282198692386
 31
0.0000000000000071
  0
LINE
  5
1C1D
330
1F
100
AcDbEntity
  8
FRAME
  6
Continuous
 62
     0
100
AcDbLine
 10
90.45489357384554
 20
198.717657893369
 30
0.0000000000000071
 11
111.2600985665135
 21
175.8885881325135
 31
0.0000000000000071
  0
ENDSEC
  0
SECTION
  2
OBJECTS
  0
DICTIONARY
  5
C
330
0
100
AcDbDictionary
281
     1
  3
ACAD_COLOR
350
BE
  3
ACAD_DETAILVIEWSTYLE
350
B5
  3
ACAD_GROUP
350
D
  3
ACAD_IMAGE_VARS
350
6A
  3
ACAD_LAYOUT
350
1A
  3
ACAD_MATERIAL
350
72
  3
ACAD_MLEADERSTYLE
350
3F
  3
ACAD_MLINESTYLE
350
17
  3
ACAD_PLOTSETTINGS
350
19
  3
ACAD_PLOTSTYLENAME
350
E
  3
ACAD_SCALELIST
350
40
  3
ACAD_SECTIONVIEWSTYLE
350
B6
  3
ACAD_TABLESTYLE
350
3B
  3
ACAD_VISUALSTYLE
350
2A
  3
ACDB_RECOMPOSE_DATA
350
1C21
  3
AcDbVariableDictionary
350
3D
  3
APPDATA
350
71
  0
SUN
  5
80
330
29
100
AcDbSun
 90
        1
290
     0
 63
     7
421
 16777215
 40
1.0
291
     1
 91
  2455826
 92
 54000000
292
     0
 70
     2
 71
   256
280
     1
  0
DICTIONARY
  5
E5
330
2
100
AcDbDictionary
280
     1
281
     1
  3
ACAD_LAYERSTATES
360
E6
  0
DICTIONARY
  5
175
330
174
100
AcDbDictionary
280
     1
281
     1
  3
ADSK_XREC_LAYER_RECONCILED
360
176
  0
DICTIONARY
  5
179
330
178
100
AcDbDictionary
280
     1
281
     1
  3
ADSK_XREC_LAYER_RECONCILED
360
17A
  0
DICTIONARY
  5
13BB
330
1F
100
AcDbDictionary
280
     1
281
     1
  3
ACAD_SORTENTS
360
13BC
  0
DICTIONARY
  5
BE
102
{ACAD_REACTORS
330
C
102
}
330
C
100
AcDbDictionary
281
     1
  0
DICTIONARY
  5
B5
102
{ACAD_REACTORS
330
C
102
}
330
C
100
AcDbDictionary
281
     1
  0
DICTIONARY
  5
D
102
{ACAD_REACTORS
330
C
102
}
330
C
100
AcDbDictionary
281
     1
  0
RASTERVARIABLES
  5
6A
102
{ACAD_REACTORS
330
C
102
}
330
C
100
AcDbRasterVariables
 90
        0
 70
     1
 71
     1
 72
     1
  0
DICTIONARY
  5
1A
102
{ACAD_REACTORS
330
C
102
}
330
C
100
AcDbDictionary
281
     1
  3
Model
350
22
  3
Sheet1
350
1E
  3
Sheet2
350
26
  0
DICTIONARY
  5
72
102
{ACAD_REACTORS
330
C
102
}
330
C
100
AcDbDictionary
281
     1
  3
ByBlock
350
15A4
  3
ByLayer
350
15A3
  3
Global
350
75
  0
DICTIONARY
  5
3F
102
{ACAD_REACTORS
330
C
102
}
330
C
100
AcDbDictionary
281
     1
  3
Standard
350
B7
  0
DICTIONARY
  5
17
102
{ACAD_REACTORS
330
C
102
}
330
C
100
AcDbDictionary
281
     1
  3
Standard
350
18
  0
DICTIONARY
  5
19
102
{ACAD_REACTORS
330
C
102
}
330
C
100
AcDbDictionary
281
     1
  0
ACDBDICTIONARYWDFLT
  5
E
102
{ACAD_REACTORS
330
C
102
}
330
C
100
AcDbDictionary
281
     1
  3
Normal
350
F
100
AcDbDictionaryWithDefault
340
F
  0
DICTIONARY
  5
40
102
{ACAD_REACTORS
330
C
102
}
330
C
100
AcDbDictionary
281
     1
  3
A0
350
41
  3
A1
350
42
  3
A2
350
43
  3
A3
350
44
  3
A4
350
45
  3
A5
350
46
  3
A6
350
47
  3
A7
350
48
  3
A8
350
49
  3
A9
350
4A
  3
B0
350
4B
  3
B1
350
4C
  3
B2
350
4D
  3
B3
350
4E
  3
B4
350
4F
  3
B5
350
50
  3
B6
350
51
  3
B7
350
52
  3
B8
350
53
  3
B9
350
54
  3
C0
350
55
  3
C1
350
56
  3
C2
350
57
  3
C3
350
58
  3
C4
350
59
  3
C5
350
5A
  3
C6
350
5B
  3
C7
350
5C
  3
C8
350
5D
  3
C9
350
5E
  3
D0
350
5F
  3
D1
350
60
  3
D2
350
61
  0
DICTIONARY
  5
B6
102
{ACAD_REACTORS
330
C
102
}
330
C
100
AcDbDictionary
281
     1
  0
DICTIONARY
  5
3B
102
{ACAD_REACTORS
330
C
102
}
330
C
100
AcDbDictionary
281
     1
  3
Standard
350
3C
  0
DICTIONARY
  5
2A
102
{ACAD_REACTORS
330
C
102
}
330
C
100
AcDbDictionary
281
     1
  3
2dWireframe
350
2F
  3
3D Hidden
350
31
  3
3dWireframe
350
30
  3
Basic
350
32
  3
Brighten
350
36
  3
ColorChange
350
3A
  3
Conceptual
350
34
  3
Dim
350
35
  3
EdgeColorOff
350
7A
  3
Facepattern
350
39
  3
Flat
350
2B
  3
FlatWithEdges
350
2C
  3
Gouraud
350
2D
  3
GouraudWithEdges
350
2E
  3
Hidden
350
77
  3
JitterOff
350
78
  3
Linepattern
350
38
  3
OverhangOff
350
79
  3
Realistic
350
33
  3
Shaded
350
7F
  3
Shaded with edges
350
7E
  3
Shades of Gray
350
7B
  3
Sketchy
350
7C
  3
Thicken
350
37
  3
Wireframe
350
76
  3
X-Ray
350
7D
  0
XRECORD
  5
1C21
102
{ACAD_REACTORS
330
C
102
}
330
C
100
AcDbXrecord
280
     1
 90
        1
330
3C
  0
DICTIONARY
  5
3D
102
{ACAD_REACTORS
330
C
102
}
330
C
100
AcDbDictionary
281
     1
  3
CANNOSCALE
350
62
  3
CMLEADERSTYLE
350
105
  3
CTABLESTYLE
350
3E
  3
LIGHTSINBLOCKS
350
6F
  3
XCLIPFRAME
350
70
  0
DICTIONARY
  5
71
102
{ACAD_REACTORS
330
C
102
}
330
C
100
AcDbDictionary
281
     1
  0
DICTIONARY
  5
E6
102
{ACAD_REACTORS
330
E5
102
}
330
E5
100
AcDbDictionary
281
     1
  3
ARGON_LAYERP_2
350
15F0
  0
XRECORD
  5
176
102
{ACAD_REACTORS
330
175
102
}
330
175
100
AcDbXrecord
280
     1
290
     1
  0
XRECORD
  5
17A
102
{ACAD_REACTORS
330
179
102
}
330
179
100
AcDbXrecord
280
     1
290
     1
  0
SORTENTSTABLE
  5
13BC
102
{ACAD_REACTORS
330
13BB
102
}
330
13BB
100
AcDbSortentsTable
330
1F
331
EC
  5
102
331
ED
  5
103
331
EE
  5
10D
331
EF
  5
10E
331
F6
  5
10F
331
F9
  5
110
331
FB
  5
15D
331
FD
  5
15E
331
102
  5
163
331
103
  5
164
331
10D
  5
168
331
10E
  5
169
331
10F
  5
16A
331
110
  5
16B
331
15D
  5
1C2
331
15E
  5
1C3
331
163
  5
1C4
331
164
  5
1C5
331
168
  5
471
331
169
  5
472
331
16A
  5
473
331
16B
  5
474
331
465
  5
48B
331
466
  5
64E
331
467
  5
64F
331
468
  5
650
331
471
  5
849
331
472
  5
84A
331
473
  5
84B
331
474
  5
84C
331
48B
  5
E51
331
64E
  5
E52
331
64F
  5
E53
331
650
  5
E54
331
E4D
  5
E55
331
E4E
  5
E56
331
E4F
  5
E57
331
E50
  5
E58
331
E51
  5
E59
331
E52
  5
E5A
331
E53
  5
E5B
331
E54
  5
E5C
331
E55
  5
E5D
331
E56
  5
E5E
331
E57
  5
E5F
331
E58
  5
E60
331
E59
  5
E61
331
E5A
  5
E62
331
E5B
  5
E63
331
E5C
  5
E64
331
E5D
  5
E65
331
E5E
  5
E66
331
E5F
  5
E67
331
E60
  5
E68
331
E61
  5
E69
331
E62
  5
E6A
331
E63
  5
E6B
331
E64
  5
E6C
331
E65
  5
E6D
331
E66
  5
E6E
331
E67
  5
E6F
331
E68
  5
E70
331
E69
  5
E71
331
E6A
  5
E72
331
E6B
  5
E73
331
E6C
  5
E74
331
E6D
  5
E75
331
E6E
  5
E76
331
E6F
  5
E77
331
E70
  5
108B
331
E71
  5
108D
331
E72
  5
1108
331
E73
  5
1109
331
E74
  5
155E
331
E75
  5
155F
331
E76
  5
1560
331
E77
  5
1561
331
155E
  5
1562
331
155F
  5
1563
331
1560
  5
156B
331
1561
  5
156C
331
1562
  5
156D
331
1563
  5
156E
331
156B
  5
156F
331
156C
  5
1570
331
156D
  5
1578
331
156E
  5
1579
331
156F
  5
157A
331
1570
  5
157B
331
1578
  5
157C
331
1579
  5
157D
331
157A
  5
1585
331
157B
  5
1586
331
157C
  5
1587
331
157D
  5
1588
331
1585
  5
1589
331
1586
  5
158A
331
1587
  5
163A
331
1588
  5
163B
331
1589
  5
163C
331
158A
  5
163D
331
163A
  5
1641
331
163B
  5
1642
331
163C
  5
1643
331
163D
  5
1644
331
1641
  5
1645
331
1642
  5
1646
331
1643
  5
1647
331
1644
  5
1648
331
1645
  5
1649
331
1646
  5
164A
331
1647
  5
164B
331
1648
  5
164C
331
1649
  5
164D
331
164A
  5
164E
331
164B
  5
164F
331
164C
  5
1650
331
164D
  5
1651
331
164E
  5
1652
331
164F
  5
1653
331
1650
  5
1654
331
1651
  5
1655
331
1652
  5
1656
331
1653
  5
1657
331
1654
  5
1658
331
1655
  5
16A2
331
1656
  5
16A3
331
1657
  5
16A4
331
1658
  5
16A5
331
16A2
  5
16A9
331
16A3
  5
16AA
331
16A4
  5
16AB
331
16A5
  5
16AC
331
16A9
  5
16AD
331
16AA
  5
16AE
331
16AB
  5
16AF
331
16AC
  5
16B0
331
16AD
  5
16B1
331
16AE
  5
16B2
331
16AF
  5
16B3
331
16B0
  5
16B4
331
16B1
  5
16B5
331
16B2
  5
16B6
331
16B3
  5
16B7
331
16B4
  5
16B8
331
16B5
  5
16B9
331
16B6
  5
16BA
331
16B7
  5
16BB
331
16B8
  5
16BC
331
16B9
  5
16BD
331
16BA
  5
16BE
331
16BB
  5
16BF
331
16BC
  5
16C0
331
16BD
  5
170A
331
16BE
  5
170B
331
16BF
  5
170C
331
16C0
  5
170D
331
170A
  5
1711
331
170B
  5
1712
331
170C
  5
1713
331
170D
  5
1714
331
1711
  5
1715
331
1712
  5
1716
331
1713
  5
1717
331
1714
  5
1718
331
1715
  5
1719
331
1716
  5
171A
331
1717
  5
171B
331
1718
  5
171C
331
1719
  5
171D
331
171A
  5
171E
331
171B
  5
171F
331
171C
  5
1720
331
171D
  5
1721
331
171E
  5
1722
331
171F
  5
1723
331
1720
  5
1724
331
1721
  5
1725
331
1722
  5
1726
331
1723
  5
1727
331
1724
  5
1728
331
1725
  5
1772
331
1726
  5
1773
331
1727
  5
1774
331
1728
  5
1775
331
1772
  5
1779
331
1773
  5
177A
331
1774
  5
177B
331
1775
  5
177C
331
1779
  5
177D
331
177A
  5
177E
331
177B
  5
177F
331
177C
  5
1780
331
177D
  5
1781
331
177E
  5
1782
331
177F
  5
1783
331
1780
  5
1784
331
1781
  5
1785
331
1782
  5
1786
331
1783
  5
1787
331
1784
  5
1788
331
1785
  5
1789
331
1786
  5
178A
331
1787
  5
178B
331
1788
  5
178C
331
1789
  5
178D
331
178A
  5
178E
331
178B
  5
178F
331
178C
  5
1790
331
178D
  5
18B2
331
178E
  5
18B3
331
178F
  5
18C4
331
1790
  5
18C5
331
18B2
  5
18C6
331
18B3
  5
18C7
331
18C4
  5
18C9
331
18C5
  5
18CA
331
18C6
  5
18CB
331
18C7
  5
18CC
331
18C9
  5
192C
331
18CA
  5
192D
331
18CB
  5
192E
331
18CC
  5
192F
331
192C
  5
1931
331
192D
  5
1932
331
192E
  5
1933
331
192F
  5
1934
331
1931
  5
1965
331
1932
  5
1966
331
1933
  5
1967
331
1934
  5
1968
331
1965
  5
1969
331
1966
  5
196A
331
1967
  5
196B
331
1968
  5
196C
331
1969
  5
196D
331
196A
  5
199E
331
196B
  5
199F
331
196C
  5
19A0
331
196D
  5
19A1
331
199E
  5
19A2
331
199F
  5
19A3
331
19A0
  5
19A4
331
19A1
  5
19A5
331
19A2
  5
19A6
331
19A3
  5
19A7
331
19A4
  5
19A8
331
19A5
  5
19A9
331
19A6
  5
19AA
331
19A7
  5
1AE6
331
19A8
  5
1AE7
331
19A9
  5
1AE8
331
19AA
  5
1AE9
331
1AE6
  5
1AEA
331
1AE7
  5
1AEB
331
1AE8
  5
1AEC
331
1AE9
  5
1AED
331
1AEA
  5
1AEE
331
1AEB
  5
1AEF
331
1AEC
  5
1BBA
331
1AED
  5
1BBB
331
1AEE
  5
1BBC
331
1AEF
  5
1BBD
331
1BBA
  5
1BBE
331
1BBB
  5
1BBF
331
1BBC
  5
1BC0
331
1BBD
  5
1BC1
331
1BBE
  5
1BC2
331
1BBF
  5
1BC3
331
1BC0
  5
1BC4
331
1BC1
  5
1BC5
331
1BC2
  5
1BC6
331
1BC3
  5
1BC7
331
1BC4
  5
1BC8
331
1BC5
  5
1BC9
331
1BC6
  5
1BCA
331
1BC7
  5
1BCB
331
1BC8
  5
1BCC
331
1BC9
  5
1BCD
331
1BCA
  5
1BCF
331
1BCB
  5
1BD0
331
1BCC
  5
1BD1
331
1BCD
  5
1BD2
331
1BCF
  5
1BD3
331
1BD0
  5
1BD4
331
1BD1
  5
1BD5
331
1BD2
  5
1BD6
331
1BD3
  5
1BD8
331
1BD4
  5
1BD9
331
1BD5
  5
1BDA
331
1BD6
  5
1BDB
331
1BD8
  5
1BE0
331
1BD9
  5
1BE1
331
1BDA
  5
1BE2
331
1BDB
  5
1BE3
331
0
  5
1BE4
331
1BE1
  5
F6
331
0
  5
1BE5
331
1BE3
  5
F9
331
0
  5
1BE6
331
1BE5
  5
FB
331
0
  5
1BE7
331
1BE7
  5
FD
  0
LAYOUT
  5
22
102
{ACAD_REACTORS
330
1A
102
}
330
1A
100
AcDbPlotSettings
  1

  2
none_device
  4
ISO_A3_(420.00_x_297.00_MM)
  6

 40
7.5
 41
20.0
 42
7.5
 43
20.0
 44
420.0
 45
297.0
 46
20.78282828282826
 47
0.0
 48
0.0
 49
0.0
140
0.0
141
0.0
142
1.0
143
1.155642023346303
 70
  1204
 72
     1
 73
     0
 74
     1
  7
monochrome.ctb
 75
     0
 76
     0
 77
     2
 78
   300
147
0.8653198653198654
148
-134.1869158878504
149
0.0
100
AcDbLayout
  1
Model
 70
     1
 71
     0
 10
0.0
 20
0.0
 11
420.0
 21
297.0
 12
0.0
 22
0.0
 32
0.0
 14
65.73307984790873
 24
18.75591123988042
 34
0.0
 15
336.3880746781527
 25
313.1744107375894
 35
0.0000000000000142
146
0.0
 13
0.0
 23
0.0
 33
0.0
 16
1.0
 26
0.0
 36
0.0
 17
0.0
 27
1.0
 37
0.0
 76
     0
330
1F
331
29
  0
LAYOUT
  5
1E
102
{ACAD_REACTORS
330
1A
102
}
330
1A
100
AcDbPlotSettings
  1

  2
none_device
  4

  6

 40
0.0
 41
0.0
 42
0.0
 43
0.0
 44
0.0
 45
0.0
 46
0.0
 47
0.0
 48
0.0
 49
0.0
140
0.0
141
0.0
142
1.0
143
1.0
 70
   688
 72
     0
 73
     0
 74
     5
  7

 75
    16
 76
     0
 77
     2
 78
   300
147
1.0
148
0.0
149
0.0
100
AcDbLayout
  1
Sheet1
 70
     1
 71
     1
 10
0.0
 20
0.0
 11
420.0
 21
297.0
 12
0.0
 22
0.0
 32
0.0
 14
1.000000000000000E+20
 24
1.000000000000000E+20
 34
1.000000000000000E+20
 15
-1.000000000000000E+20
 25
-1.000000000000000E+20
 35
-1.000000000000000E+20
146
0.0
 13
0.0
 23
0.0
 33
0.0
 16
1.0
 26
0.0
 36
0.0
 17
0.0
 27
1.0
 37
0.0
 76
     0
330
1B
  0
LAYOUT
  5
26
102
{ACAD_REACTORS
330
1A
102
}
330
1A
100
AcDbPlotSettings
  1

  2
none_device
  4

  6

 40
0.0
 41
0.0
 42
0.0
 43
0.0
 44
0.0
 45
0.0
 46
0.0
 47
0.0
 48
0.0
 49
0.0
140
0.0
141
0.0
142
1.0
143
1.0
 70
   688
 72
     0
 73
     0
 74
     5
  7

 75
    16
 76
     0
 77
     2
 78
   300
147
1.0
148
0.0
149
0.0
100
AcDbLayout
  1
Sheet2
 70
     1
 71
     2
 10
0.0
 20
0.0
 11
0.0
 21
0.0
 12
0.0
 22
0.0
 32
0.0
 14
0.0
 24
0.0
 34
0.0
 15
0.0
 25
0.0
 35
0.0
146
0.0
 13
0.0
 23
0.0
 33
0.0
 16
1.0
 26
0.0
 36
0.0
 17
0.0
 27
1.0
 37
0.0
 76
     0
330
23
  0
MATERIAL
  5
15A4
102
{ACAD_REACTORS
330
72
102
}
330
72
100
AcDbMaterial
  1
ByBlock
 72
     1
 94
      127
  0
MATERIAL
  5
15A3
102
{ACAD_REACTORS
330
72
102
}
330
72
100
AcDbMaterial
  1
ByLayer
 72
     1
 94
      127
  0
MATERIAL
  5
75
102
{ACAD_REACTORS
330
72
102
}
330
72
100
AcDbMaterial
  1
Global
 72
     1
 94
      127
  0
MLEADERSTYLE
  5
B7
102
{ACAD_REACTORS
330
3F
102
}
330
3F
100
AcDbMLeaderStyle
179
     2
170
     2
171
     1
172
     0
 90
        2
 40
0.0
 41
0.0
173
     1
 91
-1056964608
340
14
 92
       -2
290
     1
 42
2.0
291
     1
 43
8.0
  3
Standard
341
0
 44
4.0
300

342
11
174
     1
178
     6
175
     1
176
     0
 93
-1056964608
 45
4.0
292
     0
297
     0
 46
4.0
343
0
 94
-1056964608
 47
1.0
 49
1.0
140
1.0
293
     1
141
0.0
294
     1
177
     0
142
1.0
295
     0
296
     0
143
3.75
271
     0
272
     9
273
     9
298
     0
  0
MLINESTYLE
  5
18
102
{ACAD_REACTORS
330
17
102
}
330
17
100
AcDbMlineStyle
  2
Standard
 70
     0
  3

 62
   256
 51
90.0
 52
90.0
 71
     2
 49
0.5
 62
   256
  6
BYLAYER
 49
-0.5
 62
   256
  6
BYLAYER
  0
ACDBPLACEHOLDER
  5
F
102
{ACAD_REACTORS
330
E
102
}
330
E
  0
SCALE
  5
41
102
{ACAD_REACTORS
330
40
102
}
330
40
100
AcDbScale
 70
     0
300
1:1
140
1.0
141
1.0
290
     1
  0
SCALE
  5
42
102
{ACAD_REACTORS
330
40
102
}
330
40
100
AcDbScale
 70
     0
300
1:2
140
1.0
141
2.0
290
     0
  0
SCALE
  5
43
102
{ACAD_REACTORS
330
40
102
}
330
40
100
AcDbScale
 70
     0
300
1:4
140
1.0
141
4.0
290
     0
  0
SCALE
  5
44
102
{ACAD_REACTORS
330
40
102
}
330
40
100
AcDbScale
 70
     0
300
1:5
140
1.0
141
5.0
290
     0
  0
SCALE
  5
45
102
{ACAD_REACTORS
330
40
102
}
330
40
100
AcDbScale
 70
     0
300
1:8
140
1.0
141
8.0
290
     0
  0
SCALE
  5
46
102
{ACAD_REACTORS
330
40
102
}
330
40
100
AcDbScale
 70
     0
300
1:10
140
1.0
141
10.0
290
     0
  0
SCALE
  5
47
102
{ACAD_REACTORS
330
40
102
}
330
40
100
AcDbScale
 70
     0
300
1:16
140
1.0
141
16.0
290
     0
  0
SCALE
  5
48
102
{ACAD_REACTORS
330
40
102
}
330
40
100
AcDbScale
 70
     0
300
1:20
140
1.0
141
20.0
290
     0
  0
SCALE
  5
49
102
{ACAD_REACTORS
330
40
102
}
330
40
100
AcDbScale
 70
     0
300
1:30
140
1.0
141
30.0
290
     0
  0
SCALE
  5
4A
102
{ACAD_REACTORS
330
40
102
}
330
40
100
AcDbScale
 70
     0
300
1:40
140
1.0
141
40.0
290
     0
  0
SCALE
  5
4B
102
{ACAD_REACTORS
330
40
102
}
330
40
100
AcDbScale
 70
     0
300
1:50
140
1.0
141
50.0
290
     0
  0
SCALE
  5
4C
102
{ACAD_REACTORS
330
40
102
}
330
40
100
AcDbScale
 70
     0
300
1:100
140
1.0
141
100.0
290
     0
  0
SCALE
  5
4D
102
{ACAD_REACTORS
330
40
102
}
330
40
100
AcDbScale
 70
     0
300
2:1
140
2.0
141
1.0
290
     0
  0
SCALE
  5
4E
102
{ACAD_REACTORS
330
40
102
}
330
40
100
AcDbScale
 70
     0
300
4:1
140
4.0
141
1.0
290
     0
  0
SCALE
  5
4F
102
{ACAD_REACTORS
330
40
102
}
330
40
100
AcDbScale
 70
     0
300
8:1
140
8.0
141
1.0
290
     0
  0
SCALE
  5
50
102
{ACAD_REACTORS
330
40
102
}
330
40
100
AcDbScale
 70
     0
300
10:1
140
10.0
141
1.0
290
     0
  0
SCALE
  5
51
102
{ACAD_REACTORS
330
40
102
}
330
40
100
AcDbScale
 70
     0
300
100:1
140
100.0
141
1.0
290
     0
  0
SCALE
  5
52
102
{ACAD_REACTORS
330
40
102
}
330
40
100
AcDbScale
 70
     0
300
1/128" = 1'-0"
140
0.0078125
141
12.0
290
     0
  0
SCALE
  5
53
102
{ACAD_REACTORS
330
40
102
}
330
40
100
AcDbScale
 70
     0
300
1/64" = 1'-0"
140
0.015625
141
12.0
290
     0
  0
SCALE
  5
54
102
{ACAD_REACTORS
330
40
102
}
330
40
100
AcDbScale
 70
     0
300
1/32" = 1'-0"
140
0.03125
141
12.0
290
     0
  0
SCALE
  5
55
102
{ACAD_REACTORS
330
40
102
}
330
40
100
AcDbScale
 70
     0
300
1/16" = 1'-0"
140
0.0625
141
12.0
290
     0
  0
SCALE
  5
56
102
{ACAD_REACTORS
330
40
102
}
330
40
100
AcDbScale
 70
     0
300
3/32" = 1'-0"
140
0.09375
141
12.0
290
     0
  0
SCALE
  5
57
102
{ACAD_REACTORS
330
40
102
}
330
40
100
AcDbScale
 70
     0
300
1/8" = 1'-0"
140
0.125
141
12.0
290
     0
  0
SCALE
  5
58
102
{ACAD_REACTORS
330
40
102
}
330
40
100
AcDbScale
 70
     0
300
3/16" = 1'-0"
140
0.1875
141
12.0
290
     0
  0
SCALE
  5
59
102
{ACAD_REACTORS
330
40
102
}
330
40
100
AcDbScale
 70
     0
300
1/4" = 1'-0"
140
0.25
141
12.0
290
     0
  0
SCALE
  5
5A
102
{ACAD_REACTORS
330
40
102
}
330
40
100
AcDbScale
 70
     0
300
3/8" = 1'-0"
140
0.375
141
12.0
290
     0
  0
SCALE
  5
5B
102
{ACAD_REACTORS
330
40
102
}
330
40
100
AcDbScale
 70
     0
300
1/2" = 1'-0"
140
0.5
141
12.0
290
     0
  0
SCALE
  5
5C
102
{ACAD_REACTORS
330
40
102
}
330
40
100
AcDbScale
 70
     0
300
3/4" = 1'-0"
140
0.75
141
12.0
290
     0
  0
SCALE
  5
5D
102
{ACAD_REACTORS
330
40
102
}
330
40
100
AcDbScale
 70
     0
300
1" = 1'-0"
140
1.0
141
12.0
290
     0
  0
SCALE
  5
5E
102
{ACAD_REACTORS
330
40
102
}
330
40
100
AcDbScale
 70
     0
300
1-1/2" = 1'-0"
140
1.5
141
12.0
290
     0
  0
SCALE
  5
5F
102
{ACAD_REACTORS
330
40
102
}
330
40
100
AcDbScale
 70
     0
300
3" = 1'-0"
140
3.0
141
12.0
290
     0
  0
SCALE
  5
60
102
{ACAD_REACTORS
330
40
102
}
330
40
100
AcDbScale
 70
     0
300
6" = 1'-0"
140
6.0
141
12.0
290
     0
  0
SCALE
  5
61
102
{ACAD_REACTORS
330
40
102
}
330
40
100
AcDbScale
 70
     0
300
1'-0" = 1'-0"
140
12.0
141
12.0
290
     0
  0
TABLESTYLE
  5
3C
102
{ACAD_REACTORS
330
3B
102
}
102
{ACAD_XDICTIONARY
360
1C1F
102
}
330
3B
100
AcDbTableStyle
  3
Standard
 70
     0
 71
     0
 40
1.5
 41
1.5
280
     0
281
     0
  7
Standard
140
4.5
170
     2
 62
     0
 63
   257
283
     0
 90
      512
 91
        0
  1

274
    -2
284
     1
 64
     0
275
    -2
285
     1
 65
     0
276
    -2
286
     1
 66
     0
277
    -2
287
     1
 67
     0
278
    -2
288
     1
 68
     0
279
    -2
289
     1
 69
     0
  7
Standard
140
6.0
170
     5
 62
     0
 63
   257
283
     0
 90
      512
 91
        0
  1

274
    -2
284
     1
 64
     0
275
    -2
285
     1
 65
     0
276
    -2
286
     1
 66
     0
277
    -2
287
     1
 67
     0
278
    -2
288
     1
 68
     0
279
    -2
289
     1
 69
     0
  7
Standard
140
4.5
170
     5
 62
     0
 63
   257
283
     0
 90
      512
 91
        0
  1

274
    -2
284
     1
 64
     0
275
    -2
285
     1
 65
     0
276
    -2
286
     1
 66
     0
277
    -2
287
     1
 67
     0
278
    -2
288
     1
 68
     0
279
    -2
289
     1
 69
     0
  0
VISUALSTYLE
  5
2F
102
{ACAD_REACTORS
330
2A
102
}
330
2A
100
AcDbVisualStyle
  2
2dWireframe
 70
     4
177
     3
291
     0
 70
    58
 90
        0
176
     1
 90
        2
176
     1
 90
        0
176
     1
 90
        0
176
     1
 40
-0.6
176
     1
 40
-30.0
176
     1
 62
     7
420
 16777215
176
     1
 90
        1
176
     1
 90
        4
176
     1
 62
     7
176
     1
 62
   257
176
     1
 90
        1
176
     1
 90
        1
176
     1
 40
1.0
176
     1
 90
        0
176
     1
 62
   257
176
     1
 40
1.0
176
     1
 90
        1
176
     1
 90
        6
176
     1
 90
        2
176
     1
 62
     7
176
     1
 90
        5
176
     1
 90
        0
176
     1
 90
        0
176
     1
290
     0
176
     1
 90
        1
176
     1
 40
0.0
176
     1
 90
        0
176
     1
290
     1
176
     1
290
     1
176
     1
290
     0
176
     1
290
     0
176
     1
290
     0
176
     1
290
     0
176
     1
290
     0
176
     1
290
     0
176
     1
290
     0
176
     1
 90
       50
176
     1
 40
0.0
176
     1
 40
1.0
176
     1
 90
        0
176
     1
 62
    18
420
        0
176
     1
 90
       50
176
     1
 90
        3
176
     1
 62
     5
420
      255
176
     1
290
     0
176
     1
 90
       50
176
     1
 90
       50
176
     1
 90
       50
176
     1
290
     0
176
     1
 90
       50
176
     1
 62
   256
176
     0
 40
1.0
176
     0
 90
        2
176
     1
  1
strokes_ogs.tif
176
     1
290
     0
176
     1
 40
1.0
176
     1
 40
1.0
176
     1
  0
VISUALSTYLE
  5
31
102
{ACAD_REACTORS
330
2A
102
}
330
2A
100
AcDbVisualStyle
  2
3D Hidden
 70
     6
177
     3
291
     0
 70
    58
 90
        1
176
     1
 90
        2
176
     1
 90
        2
176
     1
 90
        0
176
     1
 40
-0.6
176
     1
 40
-30.0
176
     1
 62
     7
420
 16777215
176
     1
 90
        2
176
     1
 90
        2
176
     1
 62
     7
176
     1
 62
   257
176
     1
 90
        2
176
     1
 90
        1
176
     1
 40
40.0
176
     1
 90
        0
176
     1
 62
   257
176
     1
 40
1.0
176
     1
 90
        1
176
     1
 90
        6
176
     1
 90
        2
176
     1
 62
     7
176
     1
 90
        3
176
     1
 90
        0
176
     1
 90
        0
176
     1
290
     0
176
     1
 90
        1
176
     1
 40
0.0
176
     1
 90
        0
176
     1
290
     0
176
     1
290
     1
176
     1
290
     1
176
     1
290
     0
176
     1
290
     0
176
     1
290
     0
176
     1
290
     0
176
     1
290
     0
176
     1
290
     0
176
     1
 90
       50
176
     1
 40
0.0
176
     1
 40
1.0
176
     1
 90
        0
176
     1
 62
    18
420
        0
176
     1
 90
       50
176
     1
 90
        3
176
     1
 62
     5
420
      255
176
     1
290
     0
176
     1
 90
       50
176
     1
 90
       50
176
     1
 90
       50
176
     1
290
     0
176
     1
 90
       50
176
     1
 62
   256
176
     0
 40
1.0
176
     0
 90
        2
176
     1
  1
strokes_ogs.tif
176
     1
290
     0
176
     1
 40
1.0
176
     1
 40
1.0
176
     1
  0
VISUALSTYLE
  5
30
102
{ACAD_REACTORS
330
2A
102
}
330
2A
100
AcDbVisualStyle
  2
3dWireframe
 70
     5
177
     3
291
     0
 70
    58
 90
        0
176
     1
 90
        2
176
     1
 90
        0
176
     1
 90
        0
176
     1
 40
-0.6
176
     1
 40
-30.0
176
     1
 62
     7
420
 16777215
176
     1
 90
        1
176
     1
 90
        4
176
     1
 62
     7
176
     1
 62
   257
176
     1
 90
        1
176
     1
 90
        1
176
     1
 40
1.0
176
     1
 90
        0
176
     1
 62
   257
176
     1
 40
1.0
176
     1
 90
        1
176
     1
 90
        6
176
     1
 90
        2
176
     1
 62
     7
176
     1
 90
        5
176
     1
 90
        0
176
     1
 90
        0
176
     1
290
     0
176
     1
 90
        1
176
     1
 40
0.0
176
     1
 90
        0
176
     1
290
     0
176
     1
290
     1
176
     1
290
     1
176
     1
290
     0
176
     1
290
     0
176
     1
290
     0
176
     1
290
     0
176
     1
290
     0
176
     1
290
     0
176
     1
 90
       50
176
     1
 40
0.0
176
     1
 40
1.0
176
     1
 90
        0
176
     1
 62
    18
420
        0
176
     1
 90
       50
176
     1
 90
        3
176
     1
 62
     5
420
      255
176
     1
290
     0
176
     1
 90
       50
176
     1
 90
       50
176
     1
 90
       50
176
     1
290
     0
176
     1
 90
       50
176
     1
 62
   256
176
     0
 40
1.0
176
     0
 90
        2
176
     1
  1
strokes_ogs.tif
176
     1
290
     0
176
     1
 40
1.0
176
     1
 40
1.0
176
     1
  0
VISUALSTYLE
  5
32
102
{ACAD_REACTORS
330
2A
102
}
330
2A
100
AcDbVisualStyle
  2
Basic
 70
     7
177
     3
291
     1
 70
    58
 90
        1
176
     1
 90
        0
176
     1
 90
        1
176
     1
 90
        0
176
     1
 40
-0.6
176
     1
 40
-30.0
176
     1
 62
     7
420
 16777215
176
     1
 90
        0
176
     1
 90
        4
176
     1
 62
     7
176
     1
 62
   257
176
     1
 90
        1
176
     1
 90
        1
176
     1
 40
1.0
176
     1
 90
        8
176
     1
 62
     7
176
     1
 40
1.0
176
     1
 90
        1
176
     1
 90
        6
176
     1
 90
        2
176
     1
 62
     7
176
     1
 90
        5
176
     1
 90
        0
176
     1
 90
        0
176
     1
290
     0
176
     1
 90
        1
176
     1
 40
0.0
176
     1
 90
        0
176
     1
290
     0
176
     1
290
     1
176
     1
290
     1
176
     1
290
     0
176
     1
290
     0
176
     1
290
     0
176
     1
290
     0
176
     1
290
     0
176
     1
290
     0
176
     1
 90
       50
176
     1
 40
0.0
176
     1
 40
1.0
176
     1
 90
        0
176
     1
 62
    18
420
        0
176
     1
 90
       50
176
     1
 90
        3
176
     1
 62
     5
420
      255
176
     1
290
     0
176
     1
 90
       50
176
     1
 90
       50
176
     1
 90
       50
176
     1
290
     0
176
     1
 90
       50
176
     1
 62
   256
176
     0
 40
1.0
176
     0
 90
        2
176
     1
  1
strokes_ogs.tif
176
     1
290
     0
176
     1
 40
1.0
176
     1
 40
1.0
176
     1
  0
VISUALSTYLE
  5
36
102
{ACAD_REACTORS
330
2A
102
}
330
2A
100
AcDbVisualStyle
  2
Brighten
 70
    12
177
     3
291
     1
 70
    58
 90
        2
176
     1
 90
        2
176
     1
 90
        0
176
     1
 90
        0
176
     1
 40
-0.6
176
     1
 40
-30.0
176
     1
 62
     7
420
 16777215
176
     1
 90
        1
176
     1
 90
        4
176
     1
 62
     7
176
     1
 62
   257
176
     1
 90
        1
176
     1
 90
        1
176
     1
 40
1.0
176
     1
 90
        8
176
     1
 62
     7
176
     1
 40
1.0
176
     1
 90
        1
176
     1
 90
        6
176
     1
 90
        2
176
     1
 62
     7
176
     1
 90
        5
176
     1
 90
        0
176
     1
 90
        0
176
     1
290
     0
176
     1
 90
        1
176
     1
 40
50.0
176
     1
 90
        0
176
     1
290
     0
176
     1
290
     1
176
     1
290
     1
176
     1
290
     0
176
     1
290
     0
176
     1
290
     0
176
     1
290
     0
176
     1
290
     0
176
     1
290
     0
176
     1
 90
       50
176
     1
 40
0.0
176
     1
 40
1.0
176
     1
 90
        0
176
     1
 62
    18
420
        0
176
     1
 90
       50
176
     1
 90
        3
176
     1
 62
     5
420
      255
176
     1
290
     0
176
     1
 90
       50
176
     1
 90
       50
176
     1
 90
       50
176
     1
290
     0
176
     1
 90
       50
176
     1
 62
   256
176
     0
 40
1.0
176
     0
 90
        2
176
     1
  1
strokes_ogs.tif
176
     1
290
     0
176
     1
 40
1.0
176
     1
 40
1.0
176
     1
  0
VISUALSTYLE
  5
3A
102
{ACAD_REACTORS
330
2A
102
}
330
2A
100
AcDbVisualStyle
  2
ColorChange
 70
    16
177
     3
291
     1
 70
    58
 90
        2
176
     1
 90
        2
176
     1
 90
        3
176
     1
 90
        0
176
     1
 40
-0.6
176
     1
 40
-30.0
176
     1
 62
     8
420
  8421504
176
     1
 90
        1
176
     1
 90
        4
176
     1
 62
     7
176
     1
 62
   257
176
     1
 90
        1
176
     1
 90
        1
176
     1
 40
1.0
176
     1
 90
        8
176
     1
 62
     8
420
  8421504
176
     1
 40
1.0
176
     1
 90
        1
176
     1
 90
        6
176
     1
 90
        2
176
     1
 62
     7
176
     1
 90
        5
176
     1
 90
        0
176
     1
 90
        0
176
     1
290
     0
176
     1
 90
        1
176
     1
 40
0.0
176
     1
 90
        0
176
     1
290
     0
176
     1
290
     1
176
     1
290
     1
176
     1
290
     0
176
     1
290
     0
176
     1
290
     0
176
     1
290
     0
176
     1
290
     0
176
     1
290
     0
176
     1
 90
       50
176
     1
 40
0.0
176
     1
 40
1.0
176
     1
 90
        0
176
     1
 62
    18
420
        0
176
     1
 90
       50
176
     1
 90
        3
176
     1
 62
     5
420
      255
176
     1
290
     0
176
     1
 90
       50
176
     1
 90
       50
176
     1
 90
       50
176
     1
290
     0
176
     1
 90
       50
176
     1
 62
   256
176
     0
 40
1.0
176
     0
 90
        2
176
     1
  1
strokes_ogs.tif
176
     1
290
     0
176
     1
 40
1.0
176
     1
 40
1.0
176
     1
  0
VISUALSTYLE
  5
34
102
{ACAD_REACTORS
330
2A
102
}
330
2A
100
AcDbVisualStyle
  2
Conceptual
 70
     9
177
     3
291
     0
 70
    58
 90
        3
176
     1
 90
        2
176
     1
 90
        0
176
     1
 90
        0
176
     1
 40
-0.6
176
     1
 40
-30.0
176
     1
 62
     7
420
 16777215
176
     1
 90
        2
176
     1
 90
        2
176
     1
 62
     7
176
     1
 62
   257
176
     1
 90
        1
176
     1
 90
        1
176
     1
 40
40.0
176
     1
 90
        8
176
     1
 62
     7
176
     1
 40
1.0
176
     1
 90
        1
176
     1
 90
        6
176
     1
 90
        2
176
     1
 62
     7
176
     1
 90
        3
176
     1
 90
        0
176
     1
 90
        0
176
     1
290
     0
176
     1
 90
        1
176
     1
 40
0.0
176
     1
 90
        0
176
     1
290
     0
176
     1
290
     1
176
     1
290
     1
176
     1
290
     0
176
     1
290
     0
176
     1
290
     0
176
     1
290
     0
176
     1
290
     0
176
     1
290
     0
176
     1
 90
       50
176
     1
 40
0.0
176
     1
 40
1.0
176
     1
 90
        0
176
     1
 62
    18
420
        0
176
     1
 90
       50
176
     1
 90
        3
176
     1
 62
     5
420
      255
176
     1
290
     0
176
     1
 90
       50
176
     1
 90
       50
176
     1
 90
       50
176
     1
290
     0
176
     1
 90
       50
176
     1
 62
   256
176
     0
 40
1.0
176
     0
 90
        2
176
     1
  1
strokes_ogs.tif
176
     1
290
     0
176
     1
 40
1.0
176
     1
 40
1.0
176
     1
  0
VISUALSTYLE
  5
35
102
{ACAD_REACTORS
330
2A
102
}
330
2A
100
AcDbVisualStyle
  2
Dim
 70
    11
177
     3
291
     1
 70
    58
 90
        2
176
     1
 90
        2
176
     1
 90
        0
176
     1
 90
        0
176
     1
 40
-0.6
176
     1
 40
-30.0
176
     1
 62
     7
420
 16777215
176
     1
 90
        1
176
     1
 90
        4
176
     1
 62
     7
176
     1
 62
   257
176
     1
 90
        1
176
     1
 90
        1
176
     1
 40
1.0
176
     1
 90
        8
176
     1
 62
     7
176
     1
 40
1.0
176
     1
 90
        1
176
     1
 90
        6
176
     1
 90
        2
176
     1
 62
     7
176
     1
 90
        5
176
     1
 90
        0
176
     1
 90
        0
176
     1
290
     0
176
     1
 90
        1
176
     1
 40
-50.0
176
     1
 90
        0
176
     1
290
     0
176
     1
290
     1
176
     1
290
     1
176
     1
290
     0
176
     1
290
     0
176
     1
290
     0
176
     1
290
     0
176
     1
290
     0
176
     1
290
     0
176
     1
 90
       50
176
     1
 40
0.0
176
     1
 40
1.0
176
     1
 90
        0
176
     1
 62
    18
420
        0
176
     1
 90
       50
176
     1
 90
        3
176
     1
 62
     5
420
      255
176
     1
290
     0
176
     1
 90
       50
176
     1
 90
       50
176
     1
 90
       50
176
     1
290
     0
176
     1
 90
       50
176
     1
 62
   256
176
     0
 40
1.0
176
     0
 90
        2
176
     1
  1
strokes_ogs.tif
176
     1
290
     0
176
     1
 40
1.0
176
     1
 40
1.0
176
     1
  0
VISUALSTYLE
  5
7A
102
{ACAD_REACTORS
330
2A
102
}
330
2A
100
AcDbVisualStyle
  2
EdgeColorOff
 70
    22
177
     3
291
     1
 70
    58
 90
        2
176
     0
 90
        2
176
     0
 90
        0
176
     0
 90
        0
176
     0
 40
0.6
176
     0
 40
30.0
176
     0
 62
     7
420
 16777215
176
     0
 90
        1
176
     0
 90
        4
176
     0
 62
     7
176
     0
 62
   257
176
     0
 90
        1
176
     0
 90
        1
176
     0
 40
1.0
176
     0
 90
        8
176
     2
 62
     7
176
     0
 40
1.0
176
     0
 90
        1
176
     0
 90
        6
176
     0
 90
        2
176
     0
 62
     7
176
     0
 90
        5
176
     0
 90
        0
176
     0
 90
        0
176
     0
290
     0
176
     0
 90
        1
176
     0
 40
0.0
176
     0
 90
        0
176
     0
290
     0
176
     0
290
     1
176
     0
290
     1
176
     0
290
     0
176
     0
290
     0
176
     0
290
     0
176
     0
290
     0
176
     0
290
     0
176
     0
290
     0
176
     0
 90
       50
176
     0
 40
0.0
176
     0
 40
1.0
176
     0
 90
        0
176
     0
 62
    18
420
        0
176
     0
 90
       50
176
     0
 90
        3
176
     0
 62
     5
420
      255
176
     0
290
     0
176
     0
 90
       50
176
     0
 90
       50
176
     0
 90
       50
176
     0
290
     0
176
     0
 90
       50
176
     0
 62
   256
176
     0
 40
1.0
176
     0
 90
        2
176
     0
  1
strokes_ogs.tif
176
     0
290
     0
176
     0
 40
1.0
176
     0
 40
1.0
176
     0
  0
VISUALSTYLE
  5
39
102
{ACAD_REACTORS
330
2A
102
}
330
2A
100
AcDbVisualStyle
  2
Facepattern
 70
    15
177
     3
291
     1
 70
    58
 90
        2
176
     1
 90
        2
176
     1
 90
        0
176
     1
 90
        0
176
     1
 40
-0.6
176
     1
 40
-30.0
176
     1
 62
     7
420
 16777215
176
     1
 90
        1
176
     1
 90
        4
176
     1
 62
     7
176
     1
 62
   257
176
     1
 90
        1
176
     1
 90
        1
176
     1
 40
1.0
176
     1
 90
        8
176
     1
 62
     7
176
     1
 40
1.0
176
     1
 90
        1
176
     1
 90
        6
176
     1
 90
        2
176
     1
 62
     7
176
     1
 90
        5
176
     1
 90
        0
176
     1
 90
        0
176
     1
290
     0
176
     1
 90
        1
176
     1
 40
0.0
176
     1
 90
        0
176
     1
290
     0
176
     1
290
     1
176
     1
290
     1
176
     1
290
     0
176
     1
290
     0
176
     1
290
     0
176
     1
290
     0
176
     1
290
     0
176
     1
290
     0
176
     1
 90
       50
176
     1
 40
0.0
176
     1
 40
1.0
176
     1
 90
        0
176
     1
 62
    18
420
        0
176
     1
 90
       50
176
     1
 90
        3
176
     1
 62
     5
420
      255
176
     1
290
     0
176
     1
 90
       50
176
     1
 90
       50
176
     1
 90
       50
176
     1
290
     0
176
     1
 90
       50
176
     1
 62
   256
176
     0
 40
1.0
176
     0
 90
        2
176
     1
  1
strokes_ogs.tif
176
     1
290
     0
176
     1
 40
1.0
176
     1
 40
1.0
176
     1
  0
VISUALSTYLE
  5
2B
102
{ACAD_REACTORS
330
2A
102
}
330
2A
100
AcDbVisualStyle
  2
Flat
 70
     0
177
     3
291
     1
 70
    58
 90
        2
176
     1
 90
        1
176
     1
 90
        1
176
     1
 90
        2
176
     1
 40
-0.6
176
     1
 40
30.0
176
     1
 62
     7
420
 16777215
176
     1
 90
        0
176
     1
 90
        4
176
     1
 62
     7
176
     1
 62
   257
176
     1
 90
        1
176
     1
 90
        1
176
     1
 40
1.0
176
     1
 90
        8
176
     1
 62
     7
176
     1
 40
1.0
176
     1
 90
        1
176
     1
 90
        6
176
     1
 90
        2
176
     1
 62
     7
176
     1
 90
        5
176
     1
 90
        0
176
     1
 90
        0
176
     1
290
     0
176
     1
 90
       13
176
     1
 40
0.0
176
     1
 90
        0
176
     1
290
     0
176
     1
290
     1
176
     1
290
     1
176
     1
290
     0
176
     1
290
     0
176
     1
290
     0
176
     1
290
     0
176
     1
290
     0
176
     1
290
     0
176
     1
 90
       50
176
     1
 40
0.0
176
     1
 40
1.0
176
     1
 90
        0
176
     1
 62
    18
420
        0
176
     1
 90
       50
176
     1
 90
        3
176
     1
 62
     5
420
      255
176
     1
290
     0
176
     1
 90
       50
176
     1
 90
       50
176
     1
 90
       50
176
     1
290
     0
176
     1
 90
       50
176
     1
 62
   256
176
     0
 40
1.0
176
     0
 90
        2
176
     1
  1
strokes_ogs.tif
176
     1
290
     0
176
     1
 40
1.0
176
     1
 40
1.0
176
     1
  0
VISUALSTYLE
  5
2C
102
{ACAD_REACTORS
330
2A
102
}
330
2A
100
AcDbVisualStyle
  2
FlatWithEdges
 70
     1
177
     3
291
     1
 70
    58
 90
        2
176
     1
 90
        1
176
     1
 90
        1
176
     1
 90
        2
176
     1
 40
-0.6
176
     1
 40
30.0
176
     1
 62
     7
420
 16777215
176
     1
 90
        1
176
     1
 90
        4
176
     1
 62
     7
176
     1
 62
   257
176
     1
 90
        1
176
     1
 90
        1
176
     1
 40
1.0
176
     1
 90
        0
176
     1
 62
   257
176
     1
 40
1.0
176
     1
 90
        1
176
     1
 90
        6
176
     1
 90
        2
176
     1
 62
     7
176
     1
 90
        5
176
     1
 90
        0
176
     1
 90
        0
176
     1
290
     0
176
     1
 90
       13
176
     1
 40
0.0
176
     1
 90
        0
176
     1
290
     0
176
     1
290
     1
176
     1
290
     1
176
     1
290
     0
176
     1
290
     0
176
     1
290
     0
176
     1
290
     0
176
     1
290
     0
176
     1
290
     0
176
     1
 90
       50
176
     1
 40
0.0
176
     1
 40
1.0
176
     1
 90
        0
176
     1
 62
    18
420
        0
176
     1
 90
       50
176
     1
 90
        3
176
     1
 62
     5
420
      255
176
     1
290
     0
176
     1
 90
       50
176
     1
 90
       50
176
     1
 90
       50
176
     1
290
     0
176
     1
 90
       50
176
     1
 62
   256
176
     0
 40
1.0
176
     0
 90
        2
176
     1
  1
strokes_ogs.tif
176
     1
290
     0
176
     1
 40
1.0
176
     1
 40
1.0
176
     1
  0
VISUALSTYLE
  5
2D
102
{ACAD_REACTORS
330
2A
102
}
330
2A
100
AcDbVisualStyle
  2
Gouraud
 70
     2
177
     3
291
     1
 70
    58
 90
        2
176
     1
 90
        2
176
     1
 90
        1
176
     1
 90
        2
176
     1
 40
-0.6
176
     1
 40
30.0
176
     1
 62
     7
420
 16777215
176
     1
 90
        0
176
     1
 90
        4
176
     1
 62
     7
176
     1
 62
   257
176
     1
 90
        1
176
     1
 90
        1
176
     1
 40
1.0
176
     1
 90
        0
176
     1
 62
     7
176
     1
 40
1.0
176
     1
 90
        1
176
     1
 90
        6
176
     1
 90
        2
176
     1
 62
     7
176
     1
 90
        5
176
     1
 90
        0
176
     1
 90
        0
176
     1
290
     0
176
     1
 90
       13
176
     1
 40
0.0
176
     1
 90
        0
176
     1
290
     0
176
     1
290
     1
176
     1
290
     1
176
     1
290
     0
176
     1
290
     0
176
     1
290
     0
176
     1
290
     0
176
     1
290
     0
176
     1
290
     0
176
     1
 90
       50
176
     1
 40
0.0
176
     1
 40
1.0
176
     1
 90
        0
176
     1
 62
    18
420
        0
176
     1
 90
       50
176
     1
 90
        3
176
     1
 62
     5
420
      255
176
     1
290
     0
176
     1
 90
       50
176
     1
 90
       50
176
     1
 90
       50
176
     1
290
     0
176
     1
 90
       50
176
     1
 62
   256
176
     0
 40
1.0
176
     0
 90
        2
176
     1
  1
strokes_ogs.tif
176
     1
290
     0
176
     1
 40
1.0
176
     1
 40
1.0
176
     1
  0
VISUALSTYLE
  5
2E
102
{ACAD_REACTORS
330
2A
102
}
330
2A
100
AcDbVisualStyle
  2
GouraudWithEdges
 70
     3
177
     3
291
     1
 70
    58
 90
        2
176
     1
 90
        2
176
     1
 90
        1
176
     1
 90
        2
176
     1
 40
-0.6
176
     1
 40
30.0
176
     1
 62
     7
420
 16777215
176
     1
 90
        1
176
     1
 90
        4
176
     1
 62
     7
176
     1
 62
   257
176
     1
 90
        1
176
     1
 90
        1
176
     1
 40
1.0
176
     1
 90
        0
176
     1
 62
   257
176
     1
 40
1.0
176
     1
 90
        1
176
     1
 90
        6
176
     1
 90
        2
176
     1
 62
     7
176
     1
 90
        5
176
     1
 90
        0
176
     1
 90
        0
176
     1
290
     0
176
     1
 90
       13
176
     1
 40
0.0
176
     1
 90
        0
176
     1
290
     0
176
     1
290
     1
176
     1
290
     1
176
     1
290
     0
176
     1
290
     0
176
     1
290
     0
176
     1
290
     0
176
     1
290
     0
176
     1
290
     0
176
     1
 90
       50
176
     1
 40
0.0
176
     1
 40
1.0
176
     1
 90
        0
176
     1
 62
    18
420
        0
176
     1
 90
       50
176
     1
 90
        3
176
     1
 62
     5
420
      255
176
     1
290
     0
176
     1
 90
       50
176
     1
 90
       50
176
     1
 90
       50
176
     1
290
     0
176
     1
 90
       50
176
     1
 62
   256
176
     0
 40
1.0
176
     0
 90
        2
176
     1
  1
strokes_ogs.tif
176
     1
290
     0
176
     1
 40
1.0
176
     1
 40
1.0
176
     1
  0
VISUALSTYLE
  5
77
102
{ACAD_REACTORS
330
2A
102
}
330
2A
100
AcDbVisualStyle
  2
Hidden
 70
     6
177
     3
291
     0
 70
    58
 90
        1
176
     1
 90
        2
176
     1
 90
        2
176
     1
 90
        0
176
     1
 40
0.6
176
     1
 40
30.0
176
     1
 62
     7
420
 16777215
176
     1
 90
        2
176
     1
 90
        2
176
     1
 62
     7
176
     1
 62
   257
176
     1
 90
        2
176
     1
 90
        1
176
     1
 40
40.0
176
     1
 90
        0
176
     1
 62
   257
176
     1
 40
1.0
176
     1
 90
        1
176
     1
 90
        6
176
     1
 90
        2
176
     1
 62
     7
176
     1
 90
        3
176
     1
 90
        0
176
     1
 90
        0
176
     1
290
     0
176
     1
 90
        1
176
     1
 40
0.0
176
     1
 90
        0
176
     1
290
     0
176
     1
290
     1
176
     1
290
     1
176
     1
290
     0
176
     1
290
     0
176
     1
290
     0
176
     1
290
     0
176
     1
290
     0
176
     1
290
     0
176
     1
 90
       50
176
     1
 40
0.0
176
     1
 40
1.0
176
     1
 90
        0
176
     1
 62
    18
420
        0
176
     1
 90
       50
176
     1
 90
        3
176
     1
 62
     5
420
      255
176
     1
290
     0
176
     1
 90
       50
176
     1
 90
       50
176
     1
 90
       50
176
     1
290
     0
176
     1
 90
       50
176
     1
 62
   256
176
     0
 40
1.0
176
     0
 90
        2
176
     1
  1
strokes_ogs.tif
176
     1
290
     0
176
     1
 40
1.0
176
     1
 40
1.0
176
     1
  0
VISUALSTYLE
  5
78
102
{ACAD_REACTORS
330
2A
102
}
330
2A
100
AcDbVisualStyle
  2
JitterOff
 70
    20
177
     3
291
     1
 70
    58
 90
        2
176
     0
 90
        2
176
     0
 90
        0
176
     0
 90
        0
176
     0
 40
0.6
176
     0
 40
30.0
176
     0
 62
     7
420
 16777215
176
     0
 90
        1
176
     0
 90
        4
176
     0
 62
     7
176
     0
 62
   257
176
     0
 90
        1
176
     0
 90
        1
176
     0
 40
1.0
176
     0
 90
       10
176
     2
 62
     7
176
     0
 40
1.0
176
     0
 90
        1
176
     0
 90
        6
176
     0
 90
        2
176
     0
 62
     7
176
     0
 90
        5
176
     0
 90
        0
176
     0
 90
        0
176
     0
290
     0
176
     0
 90
        1
176
     0
 40
0.0
176
     0
 90
        0
176
     0
290
     0
176
     0
290
     1
176
     0
290
     1
176
     0
290
     0
176
     0
290
     0
176
     0
290
     0
176
     0
290
     0
176
     0
290
     0
176
     0
290
     0
176
     0
 90
       50
176
     0
 40
0.0
176
     0
 40
1.0
176
     0
 90
        0
176
     0
 62
    18
420
        0
176
     0
 90
       50
176
     0
 90
        3
176
     0
 62
     5
420
      255
176
     0
290
     0
176
     0
 90
       50
176
     0
 90
       50
176
     0
 90
       50
176
     0
290
     0
176
     0
 90
       50
176
     0
 62
   256
176
     0
 40
1.0
176
     0
 90
        2
176
     0
  1
strokes_ogs.tif
176
     0
290
     0
176
     0
 40
1.0
176
     0
 40
1.0
176
     0
  0
VISUALSTYLE
  5
38
102
{ACAD_REACTORS
330
2A
102
}
330
2A
100
AcDbVisualStyle
  2
Linepattern
 70
    14
177
     3
291
     1
 70
    58
 90
        2
176
     1
 90
        2
176
     1
 90
        0
176
     1
 90
        0
176
     1
 40
-0.6
176
     1
 40
-30.0
176
     1
 62
     7
420
 16777215
176
     1
 90
        1
176
     1
 90
        4
176
     1
 62
     7
176
     1
 62
   257
176
     1
 90
        7
176
     1
 90
        7
176
     1
 40
1.0
176
     1
 90
        8
176
     1
 62
     7
176
     1
 40
1.0
176
     1
 90
        1
176
     1
 90
        6
176
     1
 90
        2
176
     1
 62
     7
176
     1
 90
        5
176
     1
 90
        0
176
     1
 90
        0
176
     1
290
     0
176
     1
 90
        1
176
     1
 40
0.0
176
     1
 90
        0
176
     1
290
     0
176
     1
290
     1
176
     1
290
     1
176
     1
290
     0
176
     1
290
     0
176
     1
290
     0
176
     1
290
     0
176
     1
290
     0
176
     1
290
     0
176
     1
 90
       50
176
     1
 40
0.0
176
     1
 40
1.0
176
     1
 90
        0
176
     1
 62
    18
420
        0
176
     1
 90
       50
176
     1
 90
        3
176
     1
 62
     5
420
      255
176
     1
290
     0
176
     1
 90
       50
176
     1
 90
       50
176
     1
 90
       50
176
     1
290
     0
176
     1
 90
       50
176
     1
 62
   256
176
     0
 40
1.0
176
     0
 90
        2
176
     1
  1
strokes_ogs.tif
176
     1
290
     0
176
     1
 40
1.0
176
     1
 40
1.0
176
     1
  0
VISUALSTYLE
  5
79
102
{ACAD_REACTORS
330
2A
102
}
330
2A
100
AcDbVisualStyle
  2
OverhangOff
 70
    21
177
     3
291
     1
 70
    58
 90
        2
176
     0
 90
        2
176
     0
 90
        0
176
     0
 90
        0
176
     0
 40
0.6
176
     0
 40
30.0
176
     0
 62
     7
420
 16777215
176
     0
 90
        1
176
     0
 90
        4
176
     0
 62
     7
176
     0
 62
   257
176
     0
 90
        1
176
     0
 90
        1
176
     0
 40
1.0
176
     0
 90
        9
176
     2
 62
     7
176
     0
 40
1.0
176
     0
 90
        1
176
     0
 90
        6
176
     0
 90
        2
176
     0
 62
     7
176
     0
 90
        5
176
     0
 90
        0
176
     0
 90
        0
176
     0
290
     0
176
     0
 90
        1
176
     0
 40
0.0
176
     0
 90
        0
176
     0
290
     0
176
     0
290
     1
176
     0
290
     1
176
     0
290
     0
176
     0
290
     0
176
     0
290
     0
176
     0
290
     0
176
     0
290
     0
176
     0
290
     0
176
     0
 90
       50
176
     0
 40
0.0
176
     0
 40
1.0
176
     0
 90
        0
176
     0
 62
    18
420
        0
176
     0
 90
       50
176
     0
 90
        3
176
     0
 62
     5
420
      255
176
     0
290
     0
176
     0
 90
       50
176
     0
 90
       50
176
     0
 90
       50
176
     0
290
     0
176
     0
 90
       50
176
     0
 62
   256
176
     0
 40
1.0
176
     0
 90
        2
176
     0
  1
strokes_ogs.tif
176
     0
290
     0
176
     0
 40
1.0
176
     0
 40
1.0
176
     0
  0
VISUALSTYLE
  5
33
102
{ACAD_REACTORS
330
2A
102
}
330
2A
100
AcDbVisualStyle
  2
Realistic
 70
     8
177
     3
291
     0
 70
    58
 90
        2
176
     1
 90
        2
176
     1
 90
        0
176
     1
 90
        0
176
     1
 40
-0.6
176
     1
 40
-30.0
176
     1
 62
     7
420
 16777215
176
     1
 90
        1
176
     1
 90
        0
176
     1
 62
     7
176
     1
 62
   257
176
     1
 90
        1
176
     1
 90
        1
176
     1
 40
1.0
176
     1
 90
        8
176
     1
 62
     8
420
  7895160
176
     1
 40
1.0
176
     1
 90
        1
176
     1
 90
        6
176
     1
 90
        2
176
     1
 62
     7
176
     1
 90
        5
176
     1
 90
        0
176
     1
 90
        0
176
     1
290
     0
176
     1
 90
       13
176
     1
 40
0.0
176
     1
 90
        0
176
     1
290
     0
176
     1
290
     1
176
     1
290
     1
176
     1
290
     0
176
     1
290
     0
176
     1
290
     0
176
     1
290
     0
176
     1
290
     0
176
     1
290
     0
176
     1
 90
       50
176
     1
 40
0.0
176
     1
 40
1.0
176
     1
 90
        0
176
     1
 62
    18
420
        0
176
     1
 90
       50
176
     1
 90
        3
176
     1
 62
     5
420
      255
176
     1
290
     0
176
     1
 90
       50
176
     1
 90
       50
176
     1
 90
       50
176
     1
290
     0
176
     1
 90
       50
176
     1
 62
   256
176
     0
 40
1.0
176
     0
 90
        2
176
     1
  1
strokes_ogs.tif
176
     1
290
     0
176
     1
 40
1.0
176
     1
 40
1.0
176
     1
  0
VISUALSTYLE
  5
7F
102
{ACAD_REACTORS
330
2A
102
}
330
2A
100
AcDbVisualStyle
  2
Shaded
 70
    27
177
     3
291
     0
 70
    58
 90
        2
176
     1
 90
        2
176
     1
 90
        1
176
     1
 90
        2
176
     1
 40
0.6
176
     1
 40
30.0
176
     1
 62
     7
420
 16777215
176
     1
 90
        0
176
     1
 90
        4
176
     1
 62
     7
176
     1
 62
   257
176
     1
 90
        1
176
     1
 90
        1
176
     1
 40
1.0
176
     1
 90
        8
176
     1
 62
   257
176
     1
 40
1.0
176
     1
 90
        1
176
     1
 90
        6
176
     1
 90
        2
176
     1
 62
     8
420
  7895160
176
     1
 90
        3
176
     1
 90
        0
176
     1
 90
        0
176
     1
290
     0
176
     1
 90
        5
176
     1
 40
0.0
176
     1
 90
        0
176
     1
290
     0
176
     1
290
     1
176
     1
290
     1
176
     1
290
     0
176
     1
290
     0
176
     1
290
     0
176
     1
290
     0
176
     1
290
     0
176
     1
290
     0
176
     1
 90
       50
176
     1
 40
0.0
176
     1
 40
1.0
176
     1
 90
        0
176
     1
 62
    18
420
        0
176
     1
 90
       50
176
     1
 90
        3
176
     1
 62
     5
420
      255
176
     1
290
     0
176
     1
 90
       50
176
     1
 90
       50
176
     1
 90
       50
176
     1
290
     0
176
     1
 90
       50
176
     1
 62
   256
176
     0
 40
1.0
176
     0
 90
        2
176
     1
  1
strokes_ogs.tif
176
     1
290
     0
176
     1
 40
1.0
176
     1
 40
1.0
176
     1
  0
VISUALSTYLE
  5
7E
102
{ACAD_REACTORS
330
2A
102
}
330
2A
100
AcDbVisualStyle
  2
Shaded with edges
 70
    26
177
     3
291
     0
 70
    58
 90
        2
176
     1
 90
        2
176
     1
 90
        1
176
     1
 90
        2
176
     1
 40
0.6
176
     1
 40
30.0
176
     1
 62
     7
420
 16777215
176
     1
 90
        1
176
     1
 90
       10
176
     1
 62
     7
176
     1
 62
   257
176
     1
 90
        2
176
     1
 90
        1
176
     1
 40
1.0
176
     1
 90
        8
176
     1
 62
   257
176
     1
 40
1.0
176
     1
 90
        1
176
     1
 90
        6
176
     1
 90
        2
176
     1
 62
     7
176
     1
 90
        3
176
     1
 90
        0
176
     1
 90
        0
176
     1
290
     0
176
     1
 90
        5
176
     1
 40
0.0
176
     1
 90
        0
176
     1
290
     0
176
     1
290
     1
176
     1
290
     1
176
     1
290
     0
176
     1
290
     0
176
     1
290
     0
176
     1
290
     0
176
     1
290
     0
176
     1
290
     0
176
     1
 90
       50
176
     1
 40
0.0
176
     1
 40
1.0
176
     1
 90
        0
176
     1
 62
    18
420
        0
176
     1
 90
       50
176
     1
 90
        3
176
     1
 62
     5
420
      255
176
     1
290
     0
176
     1
 90
       50
176
     1
 90
       50
176
     1
 90
       50
176
     1
290
     0
176
     1
 90
       50
176
     1
 62
   256
176
     0
 40
1.0
176
     0
 90
        2
176
     1
  1
strokes_ogs.tif
176
     1
290
     0
176
     1
 40
1.0
176
     1
 40
1.0
176
     1
  0
VISUALSTYLE
  5
7B
102
{ACAD_REACTORS
330
2A
102
}
330
2A
100
AcDbVisualStyle
  2
Shades of Gray
 70
    23
177
     3
291
     0
 70
    58
 90
        2
176
     1
 90
        2
176
     1
 90
        3
176
     1
 90
        0
176
     1
 40
0.6
176
     1
 40
30.0
176
     1
 62
     7
420
 16777215
176
     1
 90
        2
176
     1
 90
        2
176
     1
 62
     7
176
     1
 62
     7
176
     1
 90
        1
176
     1
 90
        1
176
     1
 40
40.0
176
     1
 90
        8
176
     1
 62
     7
176
     1
 40
1.0
176
     1
 90
        1
176
     1
 90
        6
176
     1
 90
        2
176
     1
 62
     7
176
     1
 90
        3
176
     1
 90
        0
176
     1
 90
        0
176
     1
290
     0
176
     1
 90
        1
176
     1
 40
0.0
176
     1
 90
        0
176
     1
290
     0
176
     1
290
     1
176
     1
290
     1
176
     1
290
     0
176
     1
290
     0
176
     1
290
     0
176
     1
290
     0
176
     1
290
     0
176
     1
290
     0
176
     1
 90
       50
176
     1
 40
0.0
176
     1
 40
1.0
176
     1
 90
        0
176
     1
 62
    18
420
        0
176
     1
 90
       50
176
     1
 90
        3
176
     1
 62
     5
420
      255
176
     1
290
     0
176
     1
 90
       50
176
     1
 90
       50
176
     1
 90
       50
176
     1
290
     0
176
     1
 90
       50
176
     1
 62
   256
176
     0
 40
1.0
176
     0
 90
        2
176
     1
  1
strokes_ogs.tif
176
     1
290
     0
176
     1
 40
1.0
176
     1
 40
1.0
176
     1
  0
VISUALSTYLE
  5
7C
102
{ACAD_REACTORS
330
2A
102
}
330
2A
100
AcDbVisualStyle
  2
Sketchy
 70
    24
177
     3
291
     0
 70
    58
 90
        1
176
     1
 90
        2
176
     1
 90
        2
176
     1
 90
        0
176
     1
 40
0.6
176
     1
 40
30.0
176
     1
 62
     7
420
 16777215
176
     1
 90
        2
176
     1
 90
        2
176
     1
 62
     7
176
     1
 62
     7
176
     1
 90
        1
176
     1
 90
        1
176
     1
 40
40.0
176
     1
 90
       11
176
     1
 62
     7
176
     1
 40
1.0
176
     1
 90
        1
176
     1
 90
        6
176
     1
 90
        2
176
     1
 62
     7
176
     1
 90
        6
176
     1
 90
        0
176
     1
 90
        0
176
     1
290
     0
176
     1
 90
        1
176
     1
 40
0.0
176
     1
 90
        0
176
     1
290
     0
176
     1
290
     1
176
     1
290
     1
176
     1
290
     0
176
     1
290
     0
176
     1
290
     0
176
     1
290
     0
176
     1
290
     0
176
     1
290
     0
176
     1
 90
       50
176
     1
 40
0.0
176
     1
 40
1.0
176
     1
 90
        0
176
     1
 62
    18
420
        0
176
     1
 90
       50
176
     1
 90
        3
176
     1
 62
     5
420
      255
176
     1
290
     0
176
     1
 90
       50
176
     1
 90
       50
176
     1
 90
       50
176
     1
290
     0
176
     1
 90
       50
176
     1
 62
   256
176
     0
 40
1.0
176
     0
 90
        2
176
     1
  1
strokes_ogs.tif
176
     1
290
     0
176
     1
 40
1.0
176
     1
 40
1.0
176
     1
  0
VISUALSTYLE
  5
37
102
{ACAD_REACTORS
330
2A
102
}
330
2A
100
AcDbVisualStyle
  2
Thicken
 70
    13
177
     3
291
     1
 70
    58
 90
        2
176
     1
 90
        2
176
     1
 90
        0
176
     1
 90
        0
176
     1
 40
-0.6
176
     1
 40
-30.0
176
     1
 62
     7
420
 16777215
176
     1
 90
        1
176
     1
 90
        4
176
     1
 62
     7
176
     1
 62
   257
176
     1
 90
        1
176
     1
 90
        1
176
     1
 40
1.0
176
     1
 90
       12
176
     1
 62
     7
176
     1
 40
1.0
176
     1
 90
        1
176
     1
 90
        6
176
     1
 90
        2
176
     1
 62
     7
176
     1
 90
        5
176
     1
 90
        0
176
     1
 90
        0
176
     1
290
     0
176
     1
 90
        1
176
     1
 40
0.0
176
     1
 90
        0
176
     1
290
     0
176
     1
290
     1
176
     1
290
     1
176
     1
290
     0
176
     1
290
     0
176
     1
290
     0
176
     1
290
     0
176
     1
290
     0
176
     1
290
     0
176
     1
 90
       50
176
     1
 40
0.0
176
     1
 40
1.0
176
     1
 90
        0
176
     1
 62
    18
420
        0
176
     1
 90
       50
176
     1
 90
        3
176
     1
 62
     5
420
      255
176
     1
290
     0
176
     1
 90
       50
176
     1
 90
       50
176
     1
 90
       50
176
     1
290
     0
176
     1
 90
       50
176
     1
 62
   256
176
     0
 40
1.0
176
     0
 90
        2
176
     1
  1
strokes_ogs.tif
176
     1
290
     0
176
     1
 40
1.0
176
     1
 40
1.0
176
     1
  0
VISUALSTYLE
  5
76
102
{ACAD_REACTORS
330
2A
102
}
330
2A
100
AcDbVisualStyle
  2
Wireframe
 70
     5
177
     3
291
     0
 70
    58
 90
        0
176
     1
 90
        2
176
     1
 90
        0
176
     1
 90
        0
176
     1
 40
0.6
176
     1
 40
30.0
176
     1
 62
     7
420
 16777215
176
     1
 90
        1
176
     1
 90
        4
176
     1
 62
     7
176
     1
 62
   257
176
     1
 90
        1
176
     1
 90
        1
176
     1
 40
1.0
176
     1
 90
        0
176
     1
 62
   257
176
     1
 40
1.0
176
     1
 90
        1
176
     1
 90
        6
176
     1
 90
        2
176
     1
 62
     7
176
     1
 90
        3
176
     1
 90
        0
176
     1
 90
        0
176
     1
290
     0
176
     1
 90
        1
176
     1
 40
0.0
176
     1
 90
        0
176
     1
290
     0
176
     1
290
     1
176
     1
290
     1
176
     1
290
     0
176
     1
290
     0
176
     1
290
     0
176
     1
290
     0
176
     1
290
     0
176
     1
290
     0
176
     1
 90
       50
176
     1
 40
0.0
176
     1
 40
1.0
176
     1
 90
        0
176
     1
 62
    18
420
        0
176
     1
 90
       50
176
     1
 90
        3
176
     1
 62
     5
420
      255
176
     1
290
     0
176
     1
 90
       50
176
     1
 90
       50
176
     1
 90
       50
176
     1
290
     0
176
     1
 90
       50
176
     1
 62
   256
176
     0
 40
1.0
176
     0
 90
        2
176
     1
  1
strokes_ogs.tif
176
     1
290
     0
176
     1
 40
1.0
176
     1
 40
1.0
176
     1
  0
VISUALSTYLE
  5
7D
102
{ACAD_REACTORS
330
2A
102
}
330
2A
100
AcDbVisualStyle
  2
X-Ray
 70
    25
177
     3
291
     0
 70
    58
 90
        2
176
     1
 90
        2
176
     1
 90
        1
176
     1
 90
        1
176
     1
 40
0.5
176
     1
 40
30.0
176
     1
 62
     7
420
 16777215
176
     1
 90
        1
176
     1
 90
        0
176
     1
 62
     7
176
     1
 62
   257
176
     1
 90
        1
176
     1
 90
        1
176
     1
 40
1.0
176
     1
 90
        8
176
     1
 62
     7
176
     1
 40
1.0
176
     1
 90
        1
176
     1
 90
        6
176
     1
 90
        2
176
     1
 62
     7
176
     1
 90
        3
176
     1
 90
        0
176
     1
 90
        0
176
     1
290
     0
176
     1
 90
       13
176
     1
 40
0.0
176
     1
 90
        0
176
     1
290
     0
176
     1
290
     1
176
     1
290
     1
176
     1
290
     0
176
     1
290
     0
176
     1
290
     0
176
     1
290
     0
176
     1
290
     0
176
     1
290
     0
176
     1
 90
       50
176
     1
 40
0.0
176
     1
 40
1.0
176
     1
 90
        0
176
     1
 62
    18
420
        0
176
     1
 90
       50
176
     1
 90
        3
176
     1
 62
     5
420
      255
176
     1
290
     0
176
     1
 90
       50
176
     1
 90
       50
176
     1
 90
       50
176
     1
290
     0
176
     1
 90
       50
176
     1
 62
   256
176
     0
 40
1.0
176
     0
 90
        2
176
     1
  1
strokes_ogs.tif
176
     1
290
     0
176
     1
 40
1.0
176
     1
 40
1.0
176
     1
  0
DICTIONARYVAR
  5
62
102
{ACAD_REACTORS
330
3D
102
}
330
3D
100
DictionaryVariables
280
     0
  1
1:1
  0
DICTIONARYVAR
  5
105
102
{ACAD_REACTORS
330
3D
102
}
330
3D
100
DictionaryVariables
280
     0
  1
Standard
  0
DICTIONARYVAR
  5
3E
102
{ACAD_REACTORS
330
3D
102
}
330
3D
100
DictionaryVariables
280
     0
  1
Standard
  0
DICTIONARYVAR
  5
6F
102
{ACAD_REACTORS
330
3D
102
}
330
3D
100
DictionaryVariables
280
     0
  1
0
  0
DICTIONARYVAR
  5
70
102
{ACAD_REACTORS
330
3D
102
}
330
3D
100
DictionaryVariables
280
     0
  1
0
  0
XRECORD
  5
15F0
102
{ACAD_REACTORS
330
E6
102
}
330
E6
100
AcDbXrecord
280
     1
 91
     1023
301

290
     0
302
CORTES_INTERIORES
330
10
 90
        8
 62
     7
370
    -3
331
16
  1
Color_7
330
B9
 90
        0
 62
     7
370
    -3
331
16
  1
Color_7
330
174
 90
        8
 62
     7
370
    -3
331
16
  1
Color_7
330
178
 90
        8
 62
     1
370
    -3
331
16
  1
Color_1
  0
DICTIONARY
  5
1C1F
330
3C
100
AcDbDictionary
280
     1
281
     1
  3
ACAD_ROUNDTRIP_2008_TABLESTYLE_CELLSTYLEMAP
360
1C20
  0
CELLSTYLEMAP
  5
1C20
102
{ACAD_REACTORS
330
1C1F
102
}
330
1C1F
100
AcDbCellStyleMap
 90
        3
300
CELLSTYLE
  1
TABLEFORMAT_BEGIN
 90
        5
170
     1
 91
        0
 92
    32768
 62
   257
 93
        1
300
CONTENTFORMAT
  1
CONTENTFORMAT_BEGIN
 90
        0
 91
        0
 92
      512
 93
        0
300

 40
0.0
140
1.0
 94
        5
 62
     0
340
11
144
6.0
309
CONTENTFORMAT_END
171
     1
301
MARGIN
  1
CELLMARGIN_BEGIN
 40
1.5
 40
1.5
 40
1.5
 40
1.5
 40
0.18
 40
0.18
309
CELLMARGIN_END
 94
        6
 95
        1
302
GRIDFORMAT
  1
GRIDFORMAT_BEGIN
 90
        0
 91
        1
 62
     0
 92
       -2
340
0
 93
        0
 40
0.045
309
GRIDFORMAT_END
 95
        2
302
GRIDFORMAT
  1
GRIDFORMAT_BEGIN
 90
        0
 91
        1
 62
     0
 92
       -2
340
0
 93
        0
 40
0.045
309
GRIDFORMAT_END
 95
        4
302
GRIDFORMAT
  1
GRIDFORMAT_BEGIN
 90
        0
 91
        1
 62
     0
 92
       -2
340
0
 93
        0
 40
0.045
309
GRIDFORMAT_END
 95
        8
302
GRIDFORMAT
  1
GRIDFORMAT_BEGIN
 90
        0
 91
        1
 62
     0
 92
       -2
340
0
 93
        0
 40
0.045
309
GRIDFORMAT_END
 95
       16
302
GRIDFORMAT
  1
GRIDFORMAT_BEGIN
 90
        0
 91
        1
 62
     0
 92
       -2
340
0
 93
        0
 40
0.045
309
GRIDFORMAT_END
 95
       32
302
GRIDFORMAT
  1
GRIDFORMAT_BEGIN
 90
        0
 91
        1
 62
     0
 92
       -2
340
0
 93
        0
 40
0.045
309
GRIDFORMAT_END
309
TABLEFORMAT_END
  1
CELLSTYLE_BEGIN
 90
        1
 91
        1
300
_TITLE
309
CELLSTYLE_END
300
CELLSTYLE
  1
TABLEFORMAT_BEGIN
 90
        5
170
     1
 91
        0
 92
        0
 62
   257
 93
        1
300
CONTENTFORMAT
  1
CONTENTFORMAT_BEGIN
 90
        0
 91
        0
 92
      512
 93
        0
300

 40
0.0
140
1.0
 94
        5
 62
     0
340
11
144
4.5
309
CONTENTFORMAT_END
171
     1
301
MARGIN
  1
CELLMARGIN_BEGIN
 40
1.5
 40
1.5
 40
1.5
 40
1.5
 40
0.18
 40
0.18
309
CELLMARGIN_END
 94
        6
 95
        1
302
GRIDFORMAT
  1
GRIDFORMAT_BEGIN
 90
        0
 91
        1
 62
     0
 92
       -2
340
0
 93
        0
 40
0.045
309
GRIDFORMAT_END
 95
        2
302
GRIDFORMAT
  1
GRIDFORMAT_BEGIN
 90
        0
 91
        1
 62
     0
 92
       -2
340
0
 93
        0
 40
0.045
309
GRIDFORMAT_END
 95
        4
302
GRIDFORMAT
  1
GRIDFORMAT_BEGIN
 90
        0
 91
        1
 62
     0
 92
       -2
340
0
 93
        0
 40
0.045
309
GRIDFORMAT_END
 95
        8
302
GRIDFORMAT
  1
GRIDFORMAT_BEGIN
 90
        0
 91
        1
 62
     0
 92
       -2
340
0
 93
        0
 40
0.045
309
GRIDFORMAT_END
 95
       16
302
GRIDFORMAT
  1
GRIDFORMAT_BEGIN
 90
        0
 91
        1
 62
     0
 92
       -2
340
0
 93
        0
 40
0.045
309
GRIDFORMAT_END
 95
       32
302
GRIDFORMAT
  1
GRIDFORMAT_BEGIN
 90
        0
 91
        1
 62
     0
 92
       -2
340
0
 93
        0
 40
0.045
309
GRIDFORMAT_END
309
TABLEFORMAT_END
  1
CELLSTYLE_BEGIN
 90
        2
 91
        1
300
_HEADER
309
CELLSTYLE_END
300
CELLSTYLE
  1
TABLEFORMAT_BEGIN
 90
        5
170
     1
 91
        0
 92
        0
 62
   257
 93
        1
300
CONTENTFORMAT
  1
CONTENTFORMAT_BEGIN
 90
        0
 91
        0
 92
      512
 93
        0
300

 40
0.0
140
1.0
 94
        2
 62
     0
340
11
144
4.5
309
CONTENTFORMAT_END
171
     1
301
MARGIN
  1
CELLMARGIN_BEGIN
 40
1.5
 40
1.5
 40
1.5
 40
1.5
 40
0.18
 40
0.18
309
CELLMARGIN_END
 94
        6
 95
        1
302
GRIDFORMAT
  1
GRIDFORMAT_BEGIN
 90
        0
 91
        1
 62
     0
 92
       -2
340
0
 93
        0
 40
0.045
309
GRIDFORMAT_END
 95
        2
302
GRIDFORMAT
  1
GRIDFORMAT_BEGIN
 90
        0
 91
        1
 62
     0
 92
       -2
340
0
 93
        0
 40
0.045
309
GRIDFORMAT_END
 95
        4
302
GRIDFORMAT
  1
GRIDFORMAT_BEGIN
 90
        0
 91
        1
 62
     0
 92
       -2
340
0
 93
        0
 40
0.045
309
GRIDFORMAT_END
 95
        8
302
GRIDFORMAT
  1
GRIDFORMAT_BEGIN
 90
        0
 91
        1
 62
     0
 92
       -2
340
0
 93
        0
 40
0.045
309
GRIDFORMAT_END
 95
       16
302
GRIDFORMAT
  1
GRIDFORMAT_BEGIN
 90
        0
 91
        1
 62
     0
 92
       -2
340
0
 93
        0
 40
0.045
309
GRIDFORMAT_END
 95
       32
302
GRIDFORMAT
  1
GRIDFORMAT_BEGIN
 90
        0
 91
        1
 62
     0
 92
       -2
340
0
 93
        0
 40
0.045
309
GRIDFORMAT_END
309
TABLEFORMAT_END
  1
CELLSTYLE_BEGIN
 90
        3
 91
        2
300
_DATA
309
CELLSTYLE_END
  0
ENDSEC
  0
EOF
