  0
SECTION
  2
HEADER
  9
$ACADVER
  1
AC1009
  9
$EXTMAX
 10
773.470153808594
 20
689.40283203125
 30
0.0
  9
$EXTMIN
 10
502.702087402344
 20
428.164581298828
 30
0.0
  9
$INSUNITS
 70
     4
  9
$LUNITS
 70
     2
  9
$LUPREC
 70
     4
  9
$MEASUREMENT
 70
     1
  0
ENDSEC
  0
SECTION
  2
TABLES
  0
TABLE
  2
LAYER
 70
     1
  0
LAYER
  2
0
 70
     0
 62
     7
  6
Continuous
  0
LAYER
  2
FRAME
 70
     0
 62
     7
  6
Continuous
  0
LAYER
  2
CORTES_INTERIORES
 70
     0
 62
     1
  6
Continuous
  0
ENDTAB
  0
TABLE
  2
APPID
 70
     1
  0
APPID
  2
ACAD
 70
     0
  0
ENDTAB
  0
ENDSEC
  0
SECTION
  2
ENTITIES
  0
ARC
  8
FRAME
 10
701.813604212314
 20
645.026438897773
 30
0.0
 40
20.0
 50
240.0
 51
525.0
  0
LINE
  8
FRAME
 10
655.532805977532
 20
512.790474309029
 30
0.0
 11
655.532805977532
 21
514.135712774018
 31
0.0
  0
LINE
  8
FRAME
 10
687.694975027373
 20
579.563450806193
 30
0.0
 11
727.694975027373
 21
579.563450806193
 31
0.0
  0
LINE
  8
FRAME
 10
568.932805958969
 20
589.926321846561
 30
0.0
 11
568.932805972113
 21
606.634670316024
 31
0.0
  0
LINE
  8
FRAME
 10
655.513240436971
 20
589.85477160547
 30
0.0
 11
655.52712317975
 21
606.653791192451
 31
0.0
  0
LINE
  8
FRAME
 10
568.936313070062
 20
513.986342695502
 30
0.0
 11
568.936313070131
 21
514.074970338296
 31
0.0
  0
POLYLINE
  8
FRAME
 66
     1
 10
0.0
 20
0.0
 30
0.0
 70
     0
  0
VERTEX
  8
FRAME
 10
558.567468179747
 20
646.390630451167
 42
0.0
  0
VERTEX
  8
FRAME
 10
559.562859914166
 20
646.340235072853
 42
0.0
  0
VERTEX
  8
FRAME
 10
560.860800335976
 20
646.244396607904
 42
0.0
  0
VERTEX
  8
FRAME
 10
562.078067845991
 20
646.123980579177
 42
0.0
  0
VERTEX
  8
FRAME
 10
563.219021004499
 20
645.980215124721
 42
0.0
  0
VERTEX
  8
FRAME
 10
564.287971794353
 20
645.814320150938
 42
0.0
  0
VERTEX
  8
FRAME
 10
565.28917103158
 20
645.627515540907
 42
0.0
  0
VERTEX
  8
FRAME
 10
566.22679316964
 20
645.421033609673
 42
0.0
  0
VERTEX
  8
FRAME
 10
567.100624582901
 20
645.197236948592
 42
0.0
  0
VERTEX
  8
FRAME
 10
567.522885912289
 20
645.077074744805
 42
0.0
  0
VERTEX
  8
FRAME
 10
567.927522919144
 20
644.954011792567
 42
0.0
  0
VERTEX
  8
FRAME
 10
568.319256284063
 20
644.827017909449
 42
0.0
  0
VERTEX
  8
FRAME
 10
568.698561193059
 20
644.696275580012
 42
0.0
  0
VERTEX
  8
FRAME
 10
569.065906905416
 20
644.561974351323
 42
0.0
  0
VERTEX
  8
FRAME
 10
569.421757360993
 20
644.424311452256
 42
0.0
  0
VERTEX
  8
FRAME
 10
569.766571970132
 20
644.28349226622
 42
0.0
  0
VERTEX
  8
FRAME
 10
570.100806570748
 20
644.139730615181
 42
0.0
  0
VERTEX
  8
FRAME
 10
570.42491452583
 20
643.993248817057
 42
0.0
  0
VERTEX
  8
FRAME
 10
570.743162859501
 20
643.842470057124
 42
0.0
  0
VERTEX
  8
FRAME
 10
571.340680837467
 20
643.540109660022
 42
0.0
  0
VERTEX
  8
FRAME
 10
571.90900322247
 20
643.228686984406
 42
0.0
  0
VERTEX
  8
FRAME
 10
572.447774260575
 20
642.912311442956
 42
0.0
  0
VERTEX
  8
FRAME
 10
572.967153975048
 20
642.589095483106
 42
0.0
  0
VERTEX
  8
FRAME
 10
576.17571443394
 20
640.42864737856
 42
0.0
  0
VERTEX
  8
FRAME
 10
576.623293735037
 20
640.15207252735
 42
0.0
  0
VERTEX
  8
FRAME
 10
577.09076621609
 20
639.880749136502
 42
0.0
  0
VERTEX
  8
FRAME
 10
577.580002301001
 20
639.617458537396
 42
0.0
  0
VERTEX
  8
FRAME
 10
577.826883798334
 20
639.492891428019
 42
0.0
  0
VERTEX
  8
FRAME
 10
578.083845927731
 20
639.369203779968
 42
0.0
  0
VERTEX
  8
FRAME
 10
578.347746607683
 20
639.248389902678
 42
0.0
  0
VERTEX
  8
FRAME
 10
578.619234188649
 20
639.130541329753
 42
0.0
  0
VERTEX
  8
FRAME
 10
578.89895912386
 20
639.015758678502
 42
0.0
  0
VERTEX
  8
FRAME
 10
579.187676229881
 20
638.904112314466
 42
0.0
  0
VERTEX
  8
FRAME
 10
579.486410922389
 20
638.795516065515
 42
0.0
  0
VERTEX
  8
FRAME
 10
579.791566075926
 20
638.691211603622
 42
0.0
  0
VERTEX
  8
FRAME
 10
580.445570543028
 20
638.487066830182
 42
0.0
  0
VERTEX
  8
FRAME
 10
581.135036647401
 20
638.295990266521
 42
0.0
  0
VERTEX
  8
FRAME
 10
581.862913103733
 20
638.116549183031
 42
0.0
  0
VERTEX
  8
FRAME
 10
582.627631407101
 20
637.948631844618
 42
0.0
  0
VERTEX
  8
FRAME
 10
583.427663304626
 20
637.792048935774
 42
0.0
  0
VERTEX
  8
FRAME
 10
584.261518782092
 20
637.646551794425
 42
0.0
  0
VERTEX
  8
FRAME
 10
585.123968498879
 20
637.512433217992
 42
0.0
  0
VERTEX
  8
FRAME
 10
586.952212466132
 20
637.273469371975
 42
0.0
  0
VERTEX
  8
FRAME
 10
588.888702174261
 20
637.073994861592
 42
0.0
  0
VERTEX
  8
FRAME
 10
590.927171639431
 20
636.910232443102
 42
0.0
  0
VERTEX
  8
FRAME
 10
593.053919236928
 20
636.779023886817
 42
0.0
  0
VERTEX
  8
FRAME
 10
597.545859444669
 20
636.599411003878
 42
0.0
  0
VERTEX
  8
FRAME
 10
612.169814426998
 20
636.467795409042
 42
0.0
  0
VERTEX
  8
FRAME
 10
626.793769409365
 20
636.599411003884
 42
0.0
  0
VERTEX
  8
FRAME
 10
631.285709617128
 20
636.779023886832
 42
0.0
  0
VERTEX
  8
FRAME
 10
633.412457214633
 20
636.910232443122
 42
0.0
  0
VERTEX
  8
FRAME
 10
635.450926679812
 20
637.073994861619
 42
0.0
  0
VERTEX
  8
FRAME
 10
637.387416387949
 20
637.273469372012
 42
0.0
  0
VERTEX
  8
FRAME
 10
639.215660355207
 20
637.512433218039
 42
0.0
  0
VERTEX
  8
FRAME
 10
640.078110071996
 20
637.646551794479
 42
0.0
  0
VERTEX
  8
FRAME
 10
640.911965549463
 20
637.792048935834
 42
0.0
  0
VERTEX
  8
FRAME
 10
641.711997446989
 20
637.948631844685
 42
0.0
  0
VERTEX
  8
FRAME
 10
642.476715750356
 20
638.116549183105
 42
0.0
  0
VERTEX
  8
FRAME
 10
643.204592206687
 20
638.295990266604
 42
0.0
  0
VERTEX
  8
FRAME
 10
643.894058311058
 20
638.487066830273
 42
0.0
  0
VERTEX
  8
FRAME
 10
644.548062778157
 20
638.691211603723
 42
0.0
  0
VERTEX
  8
FRAME
 10
644.853217931692
 20
638.795516065619
 42
0.0
  0
VERTEX
  8
FRAME
 10
645.151952624197
 20
638.904112314574
 42
0.0
  0
VERTEX
  8
FRAME
 10
645.440669730216
 20
639.015758678616
 42
0.0
  0
VERTEX
  8
FRAME
 10
645.720394665424
 20
639.130541329871
 42
0.0
  0
VERTEX
  8
FRAME
 10
645.991882246387
 20
639.248389902801
 42
0.0
  0
VERTEX
  8
FRAME
 10
646.255782926337
 20
639.369203780097
 42
0.0
  0
VERTEX
  8
FRAME
 10
646.512745055731
 20
639.492891428153
 42
0.0
  0
VERTEX
  8
FRAME
 10
646.75962655306
 20
639.617458537536
 42
0.0
  0
VERTEX
  8
FRAME
 10
647.248862637965
 20
639.880749136651
 42
0.0
  0
VERTEX
  8
FRAME
 10
647.716335119011
 20
640.152072527511
 42
0.0
  0
VERTEX
  8
FRAME
 10
648.163914420103
 20
640.428647378734
 42
0.0
  0
VERTEX
  8
FRAME
 10
651.372474878951
 20
642.589095483354
 42
0.0
  0
VERTEX
  8
FRAME
 10
651.891854593422
 20
642.912311443213
 42
0.0
  0
VERTEX
  8
FRAME
 10
652.430625631524
 20
643.228686984669
 42
0.0
  0
VERTEX
  8
FRAME
 10
652.998948016526
 20
643.540109660292
 42
0.0
  0
VERTEX
  8
FRAME
 10
653.59646599449
 20
643.842470057397
 42
0.0
  0
VERTEX
  8
FRAME
 10
653.914714328161
 20
643.99324881733
 42
0.0
  0
VERTEX
  8
FRAME
 10
654.238822283243
 20
644.139730615455
 42
0.0
  0
VERTEX
  8
FRAME
 10
654.57305688386
 20
644.283492266494
 42
0.0
  0
VERTEX
  8
FRAME
 10
654.917871492999
 20
644.42431145253
 42
0.0
  0
VERTEX
  8
FRAME
 10
655.273721948578
 20
644.561974351595
 42
0.0
  0
VERTEX
  8
FRAME
 10
655.641067660936
 20
644.696275580282
 42
0.0
  0
VERTEX
  8
FRAME
 10
656.020372569935
 20
644.827017909717
 42
0.0
  0
VERTEX
  8
FRAME
 10
656.412105934855
 20
644.954011792831
 42
0.0
  0
VERTEX
  8
FRAME
 10
656.816742941713
 20
645.077074745067
 42
0.0
  0
VERTEX
  8
FRAME
 10
657.239004271103
 20
645.197236948847
 42
0.0
  0
VERTEX
  8
FRAME
 10
658.11283568437
 20
645.421033609919
 42
0.0
  0
VERTEX
  8
FRAME
 10
659.050457822436
 20
645.627515541138
 42
0.0
  0
VERTEX
  8
FRAME
 10
660.051657059672
 20
645.814320151151
 42
0.0
  0
VERTEX
  8
FRAME
 10
661.120607849537
 20
645.980215124914
 42
0.0
  0
VERTEX
  8
FRAME
 10
662.261561008056
 20
646.123980579346
 42
0.0
  0
VERTEX
  8
FRAME
 10
663.478828518085
 20
646.244396608049
 42
0.0
  0
VERTEX
  8
FRAME
 10
664.77676893991
 20
646.340235072966
 42
0.0
  0
VERTEX
  8
FRAME
 10
665.496487528712
 20
646.376673481373
 42
0.0
  0
SEQEND
  0
POLYLINE
  8
FRAME
 66
     1
 10
0.0
 20
0.0
 30
0.0
 70
     0
  0
VERTEX
  8
FRAME
 10
665.601937609097
 20
473.150121538865
 42
0.0
  0
VERTEX
  8
FRAME
 10
664.607039751395
 20
473.209473037564
 42
0.0
  0
VERTEX
  8
FRAME
 10
663.310014404233
 20
473.316988612015
 42
0.0
  0
VERTEX
  8
FRAME
 10
662.093879890926
 20
473.448354728113
 42
0.0
  0
VERTEX
  8
FRAME
 10
660.954266774905
 20
473.602382522996
 42
0.0
  0
VERTEX
  8
FRAME
 10
659.886852269227
 20
473.77789094594
 42
0.0
  0
VERTEX
  8
FRAME
 10
658.88737475151
 20
473.973698419064
 42
0.0
  0
VERTEX
  8
FRAME
 10
657.951648846963
 20
474.188610245786
 42
0.0
  0
VERTEX
  8
FRAME
 10
657.079866910105
 20
474.420262007881
 42
0.0
  0
VERTEX
  8
FRAME
 10
656.6587040973
 20
474.544219543452
 42
0.0
  0
VERTEX
  8
FRAME
 10
656.255190998964
 20
474.670919097525
 42
0.0
  0
VERTEX
  8
FRAME
 10
655.864616396945
 20
474.801433295209
 42
0.0
  0
VERTEX
  8
FRAME
 10
655.486503482176
 20
474.935583935836
 42
0.0
  0
VERTEX
  8
FRAME
 10
655.120381308525
 20
475.073185703177
 42
0.0
  0
VERTEX
  8
FRAME
 10
654.765784179932
 20
475.214045551636
 42
0.0
  0
VERTEX
  8
FRAME
 10
654.422250856286
 20
475.357962240646
 42
0.0
  0
VERTEX
  8
FRAME
 10
654.08932359381
 20
475.504726059276
 42
0.0
  0
VERTEX
  8
FRAME
 10
653.766547047097
 20
475.654118778714
 42
0.0
  0
VERTEX
  8
FRAME
 10
653.449668555584
 20
475.807755551486
 42
0.0
  0
VERTEX
  8
FRAME
 10
652.854895908996
 20
476.115481147755
 42
0.0
  0
VERTEX
  8
FRAME
 10
652.289399230226
 20
476.432005905843
 42
0.0
  0
VERTEX
  8
FRAME
 10
651.753497275584
 20
476.753217377834
 42
0.0
  0
VERTEX
  8
FRAME
 10
651.237047420544
 20
477.08109447636
 42
0.0
  0
VERTEX
  8
FRAME
 10
648.048060145962
 20
479.270330962753
 42
0.0
  0
VERTEX
  8
FRAME
 10
647.60298804358
 20
479.550922663939
 42
0.0
  0
VERTEX
  8
FRAME
 10
647.13797630564
 20
479.826442148804
 42
0.0
  0
VERTEX
  8
FRAME
 10
646.651129553014
 20
480.094125031735
 42
0.0
  0
VERTEX
  8
FRAME
 10
646.405379112358
 20
480.220908939944
 42
0.0
  0
VERTEX
  8
FRAME
 10
646.149540533045
 20
480.346904144458
 42
0.0
  0
VERTEX
  8
FRAME
 10
645.886737821282
 20
480.470088139016
 42
0.0
  0
VERTEX
  8
FRAME
 10
645.616321829099
 20
480.590375228642
 42
0.0
  0
VERTEX
  8
FRAME
 10
645.337641224085
 20
480.707670653941
 42
0.0
  0
VERTEX
  8
FRAME
 10
645.04994058698
 20
480.821910845297
 42
0.0
  0
VERTEX
  8
FRAME
 10
644.752195319153
 20
480.933191199717
 42
0.0
  0
VERTEX
  8
FRAME
 10
644.447991225788
 20
481.040237722695
 42
0.0
  0
VERTEX
  8
FRAME
 10
643.795850472813
 20
481.250260030608
 42
0.0
  0
VERTEX
  8
FRAME
 10
643.108131909551
 20
481.447533799782
 42
0.0
  0
VERTEX
  8
FRAME
 10
642.381899834773
 20
481.633518239162
 42
0.0
  0
VERTEX
  8
FRAME
 10
641.618723695459
 20
481.808310963343
 42
0.0
  0
VERTEX
  8
FRAME
 10
640.820133386366
 20
481.972087526448
 42
0.0
  0
VERTEX
  8
FRAME
 10
639.987621099237
 20
482.125083170895
 42
0.0
  0
VERTEX
  8
FRAME
 10
639.126413327846
 20
482.266958048963
 42
0.0
  0
VERTEX
  8
FRAME
 10
637.300393987494
 20
482.522365746883
 42
0.0
  0
VERTEX
  8
FRAME
 10
635.365777900322
 20
482.739259880604
 42
0.0
  0
VERTEX
  8
FRAME
 10
633.328864790229
 20
482.921361149327
 42
0.0
  0
VERTEX
  8
FRAME
 10
631.203384149962
 20
483.071704345212
 42
0.0
  0
VERTEX
  8
FRAME
 10
626.713242305229
 20
483.291735778927
 42
0.0
  0
VERTEX
  8
FRAME
 10
612.091064049482
 20
483.554956308383
 42
0.0
  0
VERTEX
  8
FRAME
 10
597.466516808931
 20
483.554956308377
 42
0.0
  0
VERTEX
  8
FRAME
 10
592.973142063214
 20
483.415776523965
 42
0.0
  0
VERTEX
  8
FRAME
 10
590.84529976457
 20
483.303713234522
 42
0.0
  0
VERTEX
  8
FRAME
 10
588.805439050311
 20
483.158302930209
 42
0.0
  0
VERTEX
  8
FRAME
 10
586.867232567353
 20
482.976264199609
 42
0.0
  0
VERTEX
  8
FRAME
 10
585.036912051961
 20
482.753763560379
 42
0.0
  0
VERTEX
  8
FRAME
 10
584.173290243959
 20
482.627412148519
 42
0.0
  0
VERTEX
  8
FRAME
 10
583.338159114346
 20
482.489425294815
 42
0.0
  0
VERTEX
  8
FRAME
 10
582.536750427035
 20
482.34004872267
 42
0.0
  0
VERTEX
  8
FRAME
 10
581.770551898034
 20
482.179020370496
 42
0.0
  0
VERTEX
  8
FRAME
 10
581.04109001456
 20
482.006137176732
 42
0.0
  0
VERTEX
  8
FRAME
 10
580.34993221244
 20
481.821273294838
 42
0.0
  0
VERTEX
  8
FRAME
 10
579.694117002358
 20
481.623022590582
 42
0.0
  0
VERTEX
  8
FRAME
 10
579.388035504716
 20
481.521468637919
 42
0.0
  0
VERTEX
  8
FRAME
 10
579.088335583571
 20
481.415565290195
 42
0.0
  0
VERTEX
  8
FRAME
 10
578.798625393301
 20
481.30652179628
 42
0.0
  0
VERTEX
  8
FRAME
 10
578.517878784239
 20
481.194261215903
 42
0.0
  0
VERTEX
  8
FRAME
 10
578.245341603653
 20
481.078860704827
 42
0.0
  0
VERTEX
  8
FRAME
 10
577.980364330169
 20
480.96042673013
 42
0.0
  0
VERTEX
  8
FRAME
 10
577.722299463358
 20
480.839056656627
 42
0.0
  0
VERTEX
  8
FRAME
 10
577.47430690554
 20
480.716716435398
 42
0.0
  0
VERTEX
  8
FRAME
 10
576.982721114064
 20
480.457839445353
 42
0.0
  0
VERTEX
  8
FRAME
 10
576.512825752877
 20
480.190734124368
 42
0.0
  0
VERTEX
  8
FRAME
 10
576.062775504791
 20
479.918198524324
 42
0.0
  0
VERTEX
  8
FRAME
 10
572.834901739242
 20
477.786713787217
 42
0.0
  0
VERTEX
  8
FRAME
 10
572.312634232538
 20
477.468185144936
 42
0.0
  0
VERTEX
  8
FRAME
 10
571.771037748776
 20
477.156671158883
 42
0.0
  0
VERTEX
  8
FRAME
 10
571.199935688859
 20
476.850375789437
 42
0.0
  0
VERTEX
  8
FRAME
 10
570.599720775533
 20
476.553405081204
 42
0.0
  0
VERTEX
  8
FRAME
 10
570.280128376252
 20
476.405496546448
 42
0.0
  0
VERTEX
  8
FRAME
 10
569.954715263951
 20
476.26193753394
 42
0.0
  0
VERTEX
  8
FRAME
 10
569.619200396553
 20
476.121189694479
 42
0.0
  0
VERTEX
  8
FRAME
 10
569.273132430208
 20
475.983479417079
 42
0.0
  0
VERTEX
  8
FRAME
 10
568.916057469781
 20
475.849024617422
 42
0.0
  0
VERTEX
  8
FRAME
 10
568.547517971912
 20
475.718034805127
 42
0.0
  0
VERTEX
  8
FRAME
 10
568.167051790517
 20
475.590711376367
 42
0.0
  0
VERTEX
  8
FRAME
 10
567.774191391172
 20
475.467248093698
 42
0.0
  0
VERTEX
  8
FRAME
 10
567.368463249402
 20
475.34783171079
 42
0.0
  0
VERTEX
  8
FRAME
 10
566.945137604519
 20
475.231474571342
 42
0.0
  0
VERTEX
  8
FRAME
 10
566.069327490894
 20
475.015551137712
 42
0.0
  0
VERTEX
  8
FRAME
 10
565.129885062094
 20
474.817515826003
 42
0.0
  0
VERTEX
  8
FRAME
 10
564.127045197561
 20
474.639729209336
 42
0.0
  0
VERTEX
  8
FRAME
 10
563.056644703274
 20
474.483461121411
 42
0.0
  0
VERTEX
  8
FRAME
 10
561.914443913861
 20
474.3499696517
 42
0.0
  0
VERTEX
  8
FRAME
 10
560.696141999801
 20
474.240513463474
 42
0.0
  0
VERTEX
  8
FRAME
 10
559.397391630117
 20
474.156359870505
 42
0.0
  0
VERTEX
  8
FRAME
 10
558.677374255753
 20
474.12640014274
 42
0.0
  0
SEQEND
  0
POLYLINE
  8
FRAME
 66
     1
 10
0.0
 20
0.0
 30
0.0
 70
     0
  0
VERTEX
  8
FRAME
 10
664.394975028596
 20
589.563450805125
 42
0.0
  0
VERTEX
  8
FRAME
 10
664.397521482077
 20
589.794178000865
 42
0.0
  0
VERTEX
  8
FRAME
 10
664.405092750165
 20
590.017666808543
 42
0.0
  0
VERTEX
  8
FRAME
 10
664.417586694338
 20
590.234003058848
 42
0.0
  0
VERTEX
  8
FRAME
 10
664.434901176078
 20
590.443272582468
 42
0.0
  0
VERTEX
  8
FRAME
 10
664.456934056866
 20
590.645561210093
 42
0.0
  0
VERTEX
  8
FRAME
 10
664.483583198183
 20
590.840954772409
 42
0.0
  0
VERTEX
  8
FRAME
 10
664.514746461508
 20
591.029539100106
 42
0.0
  0
VERTEX
  8
FRAME
 10
664.550321708323
 20
591.211400023873
 42
0.0
  0
VERTEX
  8
FRAME
 10
664.590206800108
 20
591.386623374397
 42
0.0
  0
VERTEX
  8
FRAME
 10
664.634299598344
 20
591.555294982368
 42
0.0
  0
VERTEX
  8
FRAME
 10
664.682497964513
 20
591.717500678473
 42
0.0
  0
VERTEX
  8
FRAME
 10
664.708104817284
 20
591.796205631666
 42
0.0
  0
VERTEX
  8
FRAME
 10
664.734699760094
 20
591.873326293402
 42
0.0
  0
VERTEX
  8
FRAME
 10
664.762270025626
 20
591.948873392515
 42
0.0
  0
VERTEX
  8
FRAME
 10
664.790802846568
 20
592.022857657842
 42
0.0
  0
VERTEX
  8
FRAME
 10
664.820285455603
 20
592.095289818219
 42
0.0
  0
VERTEX
  8
FRAME
 10
664.850705085416
 20
592.166180602482
 42
0.0
  0
VERTEX
  8
FRAME
 10
664.882048968693
 20
592.235540739468
 42
0.0
  0
VERTEX
  8
FRAME
 10
664.914304338119
 20
592.303380958011
 42
0.0
  0
VERTEX
  8
FRAME
 10
664.947458426379
 20
592.369711986949
 42
0.0
  0
VERTEX
  8
FRAME
 10
664.981498466157
 20
592.434544555118
 42
0.0
  0
VERTEX
  8
FRAME
 10
665.01641169014
 20
592.497889391352
 42
0.0
  0
VERTEX
  8
FRAME
 10
665.052185331012
 20
592.559757224489
 42
0.0
  0
VERTEX
  8
FRAME
 10
665.088806621458
 20
592.620158783365
 42
0.0
  0
VERTEX
  8
FRAME
 10
665.126262794163
 20
592.679104796815
 42
0.0
  0
VERTEX
  8
FRAME
 10
665.164541081813
 20
592.736605993676
 42
0.0
  0
VERTEX
  8
FRAME
 10
665.203628717092
 20
592.792673102784
 42
0.0
  0
VERTEX
  8
FRAME
 10
665.243512932686
 20
592.847316852974
 42
0.0
  0
VERTEX
  8
FRAME
 10
665.28418096128
 20
592.900547973083
 42
0.0
  0
VERTEX
  8
FRAME
 10
665.325620035558
 20
592.952377191948
 42
0.0
  0
VERTEX
  8
FRAME
 10
665.367817388206
 20
593.002815238403
 42
0.0
  0
VERTEX
  8
FRAME
 10
665.410760251909
 20
593.051872841285
 42
0.0
  0
VERTEX
  8
FRAME
 10
665.454435859352
 20
593.09956072943
 42
0.0
  0
VERTEX
  8
FRAME
 10
665.49883144322
 20
593.145889631674
 42
0.0
  0
VERTEX
  8
FRAME
 10
665.543934236199
 20
593.190870276853
 42
0.0
  0
VERTEX
  8
FRAME
 10
665.589731470972
 20
593.234513393804
 42
0.0
  0
VERTEX
  8
FRAME
 10
665.636210380227
 20
593.276829711362
 42
0.0
  0
VERTEX
  8
FRAME
 10
665.683358196646
 20
593.317829958363
 42
0.0
  0
VERTEX
  8
FRAME
 10
665.731162152916
 20
593.357524863644
 42
0.0
  0
VERTEX
  8
FRAME
 10
665.779609481722
 20
593.39592515604
 42
0.0
  0
VERTEX
  8
FRAME
 10
665.828687415748
 20
593.433041564388
 42
0.0
  0
VERTEX
  8
FRAME
 10
665.878383187681
 20
593.468884817524
 42
0.0
  0
VERTEX
  8
FRAME
 10
665.928684030204
 20
593.503465644283
 42
0.0
  0
VERTEX
  8
FRAME
 10
665.979577176003
 20
593.536794773502
 42
0.0
  0
VERTEX
  8
FRAME
 10
666.031049857763
 20
593.568882934016
 42
0.0
  0
VERTEX
  8
FRAME
 10
666.08308930817
 20
593.599740854663
 42
0.0
  0
VERTEX
  8
FRAME
 10
666.135682759908
 20
593.629379264277
 42
0.0
  0
VERTEX
  8
FRAME
 10
666.188817445662
 20
593.657808891695
 42
0.0
  0
VERTEX
  8
FRAME
 10
666.242480598117
 20
593.685040465754
 42
0.0
  0
VERTEX
  8
FRAME
 10
666.29665944996
 20
593.711084715288
 42
0.0
  0
VERTEX
  8
FRAME
 10
666.351341233873
 20
593.735952369135
 42
0.0
  0
VERTEX
  8
FRAME
 10
666.406513182544
 20
593.75965415613
 42
0.0
  0
VERTEX
  8
FRAME
 10
666.462162528656
 20
593.782200805109
 42
0.0
  0
VERTEX
  8
FRAME
 10
666.518276504895
 20
593.803603044908
 42
0.0
  0
VERTEX
  8
FRAME
 10
666.574842343947
 20
593.823871604364
 42
0.0
  0
VERTEX
  8
FRAME
 10
666.631847278495
 20
593.843017212313
 42
0.0
  0
VERTEX
  8
FRAME
 10
666.689278541225
 20
593.861050597589
 42
0.0
  0
VERTEX
  8
FRAME
 10
666.747123364823
 20
593.877982489031
 42
0.0
  0
VERTEX
  8
FRAME
 10
666.805368981973
 20
593.893823615473
 42
0.0
  0
VERTEX
  8
FRAME
 10
666.864002625361
 20
593.908584705752
 42
0.0
  0
VERTEX
  8
FRAME
 10
666.923011527671
 20
593.922276488703
 42
0.0
  0
VERTEX
  8
FRAME
 10
666.982382921588
 20
593.934909693164
 42
0.0
  0
VERTEX
  8
FRAME
 10
667.042104039799
 20
593.946495047969
 42
0.0
  0
VERTEX
  8
FRAME
 10
667.102162114987
 20
593.957043281955
 42
0.0
  0
VERTEX
  8
FRAME
 10
667.162544379838
 20
593.966565123958
 42
0.0
  0
VERTEX
  8
FRAME
 10
667.284230409269
 20
593.982572547359
 42
0.0
  0
VERTEX
  8
FRAME
 10
667.407059989573
 20
593.994603148861
 42
0.0
  0
VERTEX
  8
FRAME
 10
667.53093098223
 20
594.002742759153
 42
0.0
  0
VERTEX
  8
FRAME
 10
667.655741248721
 20
594.007077208922
 42
0.0
  0
VERTEX
  8
FRAME
 10
667.781388650526
 20
594.007692328857
 42
0.0
  0
VERTEX
  8
FRAME
 10
667.907771049128
 20
594.004673949647
 42
0.0
  0
VERTEX
  8
FRAME
 10
668.034786306005
 20
593.99810790198
 42
0.0
  0
VERTEX
  8
FRAME
 10
668.16233228264
 20
593.988080016544
 42
0.0
  0
VERTEX
  8
FRAME
 10
668.290306840512
 20
593.974676124029
 42
0.0
  0
VERTEX
  8
FRAME
 10
668.418607841102
 20
593.957982055122
 42
0.0
  0
VERTEX
  8
FRAME
 10
668.547133145891
 20
593.938083640512
 42
0.0
  0
VERTEX
  8
FRAME
 10
668.67578061636
 20
593.915066710888
 42
0.0
  0
VERTEX
  8
FRAME
 10
668.80444811399
 20
593.889017096938
 42
0.0
  0
VERTEX
  8
FRAME
 10
668.933033500261
 20
593.86002062935
 42
0.0
  0
VERTEX
  8
FRAME
 10
669.061434636653
 20
593.828163138814
 42
0.0
  0
VERTEX
  8
FRAME
 10
669.189549384649
 20
593.793530456016
 42
0.0
  0
VERTEX
  8
FRAME
 10
669.317275605727
 20
593.756208411647
 42
0.0
  0
VERTEX
  8
FRAME
 10
669.44451116137
 20
593.716282836394
 42
0.0
  0
VERTEX
  8
FRAME
 10
669.571153913058
 20
593.673839560946
 42
0.0
  0
VERTEX
  8
FRAME
 10
669.697101722271
 20
593.628964415992
 42
0.0
  0
VERTEX
  8
FRAME
 10
669.82225245049
 20
593.581743232219
 42
0.0
  0
VERTEX
  8
FRAME
 10
669.946503959196
 20
593.532261840316
 42
0.0
  0
VERTEX
  8
FRAME
 10
670.06975410987
 20
593.480606070973
 42
0.0
  0
VERTEX
  8
FRAME
 10
670.191900763992
 20
593.426861754877
 42
0.0
  0
VERTEX
  8
FRAME
 10
670.432475028504
 20
593.31345080518
 42
0.0
  0
VERTEX
  8
FRAME
 10
670.667696370568
 20
593.192517458896
 42
0.0
  0
VERTEX
  8
FRAME
 10
670.898181311985
 20
593.063757472341
 42
0.0
  0
VERTEX
  8
FRAME
 10
671.124833100542
 20
592.926668423994
 42
0.0
  0
VERTEX
  8
FRAME
 10
671.348554984031
 20
592.780747892332
 42
0.0
  0
VERTEX
  8
FRAME
 10
671.570250210242
 20
592.625493455834
 42
0.0
  0
VERTEX
  8
FRAME
 10
671.790822026963
 20
592.460402692977
 42
0.0
  0
VERTEX
  8
FRAME
 10
672.011173681984
 20
592.284973182241
 42
0.0
  0
VERTEX
  8
FRAME
 10
672.232208423096
 20
592.098702502102
 42
0.0
  0
VERTEX
  8
FRAME
 10
672.454829498088
 20
591.90108823104
 42
0.0
  0
VERTEX
  8
FRAME
 10
672.67994015475
 20
591.691627947532
 42
0.0
  0
VERTEX
  8
FRAME
 10
672.908443640871
 20
591.469819230057
 42
0.0
  0
VERTEX
  8
FRAME
 10
673.141243204242
 20
591.235159657092
 42
0.0
  0
VERTEX
  8
FRAME
 10
673.623343553891
 20
590.725278258607
 42
0.0
  0
VERTEX
  8
FRAME
 10
674.133467186015
 20
590.157964379902
 42
0.0
  0
VERTEX
  8
FRAME
 10
680.090412290278
 20
583.069559401374
 42
0.0
  0
SEQEND
  0
POLYLINE
  8
FRAME
 66
     1
 10
0.0
 20
0.0
 30
0.0
 70
     0
  0
VERTEX
  8
FRAME
 10
750.99497499854
 20
589.563450795121
 42
0.0
  0
VERTEX
  8
FRAME
 10
750.992428545055
 20
589.794177965058
 42
0.0
  0
VERTEX
  8
FRAME
 10
750.984857276965
 20
590.017666592113
 42
0.0
  0
VERTEX
  8
FRAME
 10
750.972363332789
 20
590.234002352155
 42
0.0
  0
VERTEX
  8
FRAME
 10
750.955048851047
 20
590.443270921053
 42
0.0
  0
VERTEX
  8
FRAME
 10
750.933015970257
 20
590.645557974676
 42
0.0
  0
VERTEX
  8
FRAME
 10
750.90636682894
 20
590.840949188892
 42
0.0
  0
VERTEX
  8
FRAME
 10
750.875203565615
 20
591.02953023957
 42
0.0
  0
VERTEX
  8
FRAME
 10
750.8396283188
 20
591.211386802578
 42
0.0
  0
VERTEX
  8
FRAME
 10
750.799743227016
 20
591.386604553785
 42
0.0
  0
VERTEX
  8
FRAME
 10
750.755650428781
 20
591.55526916906
 42
0.0
  0
VERTEX
  8
FRAME
 10
750.707452062615
 20
591.717466324272
 42
0.0
  0
VERTEX
  8
FRAME
 10
750.681845209846
 20
591.796166378063
 42
0.0
  0
VERTEX
  8
FRAME
 10
750.655250267038
 20
591.873281695288
 42
0.0
  0
VERTEX
  8
FRAME
 10
750.627680001507
 20
591.948822985432
 42
0.0
  0
VERTEX
  8
FRAME
 10
750.599147180569
 20
592.022800957978
 42
0.0
  0
VERTEX
  8
FRAME
 10
750.569664571537
 20
592.09522632241
 42
0.0
  0
VERTEX
  8
FRAME
 10
750.539244941726
 20
592.16610978821
 42
0.0
  0
VERTEX
  8
FRAME
 10
750.507901058453
 20
592.235462064864
 42
0.0
  0
VERTEX
  8
FRAME
 10
750.475645689031
 20
592.303293861854
 42
0.0
  0
VERTEX
  8
FRAME
 10
750.442491600775
 20
592.369615888663
 42
0.0
  0
VERTEX
  8
FRAME
 10
750.408451561001
 20
592.434438854776
 42
0.0
  0
VERTEX
  8
FRAME
 10
750.373538337023
 20
592.497773469676
 42
0.0
  0
VERTEX
  8
FRAME
 10
750.337764696156
 20
592.559630442847
 42
0.0
  0
VERTEX
  8
FRAME
 10
750.301143405715
 20
592.620020483772
 42
0.0
  0
VERTEX
  8
FRAME
 10
750.263687233016
 20
592.678954301935
 42
0.0
  0
VERTEX
  8
FRAME
 10
750.225408945372
 20
592.736442606819
 42
0.0
  0
VERTEX
  8
FRAME
 10
750.186321310099
 20
592.792496107908
 42
0.0
  0
VERTEX
  8
FRAME
 10
750.146437094512
 20
592.847125514686
 42
0.0
  0
VERTEX
  8
FRAME
 10
750.105769065926
 20
592.900341536635
 42
0.0
  0
VERTEX
  8
FRAME
 10
750.064329991656
 20
592.952154883241
 42
0.0
  0
VERTEX
  8
FRAME
 10
750.022132639016
 20
593.002576263985
 42
0.0
  0
VERTEX
  8
FRAME
 10
749.979189775322
 20
593.051616388353
 42
0.0
  0
VERTEX
  8
FRAME
 10
749.935514167888
 20
593.099285965826
 42
0.0
  0
VERTEX
  8
FRAME
 10
749.891118584029
 20
593.14559570589
 42
0.0
  0
VERTEX
  8
FRAME
 10
749.846015791061
 20
593.190556318028
 42
0.0
  0
VERTEX
  8
FRAME
 10
749.800218556298
 20
593.234178511722
 42
0.0
  0
VERTEX
  8
FRAME
 10
749.753739647055
 20
593.276472996458
 42
0.0
  0
VERTEX
  8
FRAME
 10
749.706591830647
 20
593.317450481717
 42
0.0
  0
VERTEX
  8
FRAME
 10
749.658787874389
 20
593.357121676985
 42
0.0
  0
VERTEX
  8
FRAME
 10
749.610340545596
 20
593.395497291744
 42
0.0
  0
VERTEX
  8
FRAME
 10
749.561262611582
 20
593.432588035478
 42
0.0
  0
VERTEX
  8
FRAME
 10
749.511566839664
 20
593.46840461767
 42
0.0
  0
VERTEX
  8
FRAME
 10
749.461265997154
 20
593.502957747805
 42
0.0
  0
VERTEX
  8
FRAME
 10
749.41037285137
 20
593.536258135366
 42
0.0
  0
VERTEX
  8
FRAME
 10
749.358900169625
 20
593.568316489836
 42
0.0
  0
VERTEX
  8
FRAME
 10
749.306860719234
 20
593.599143520699
 42
0.0
  0
VERTEX
  8
FRAME
 10
749.254267267513
 20
593.628749937439
 42
0.0
  0
VERTEX
  8
FRAME
 10
749.201132581776
 20
593.657146449538
 42
0.0
  0
VERTEX
  8
FRAME
 10
749.147469429338
 20
593.684343766482
 42
0.0
  0
VERTEX
  8
FRAME
 10
749.093290577514
 20
593.710352597752
 42
0.0
  0
VERTEX
  8
FRAME
 10
749.038608793619
 20
593.735183652834
 42
0.0
  0
VERTEX
  8
FRAME
 10
748.983436844968
 20
593.758847641209
 42
0.0
  0
VERTEX
  8
FRAME
 10
748.927787498876
 20
593.781355272363
 42
0.0
  0
VERTEX
  8
FRAME
 10
748.871673522658
 20
593.802717255779
 42
0.0
  0
VERTEX
  8
FRAME
 10
748.815107683628
 20
593.822944300939
 42
0.0
  0
VERTEX
  8
FRAME
 10
748.758102749102
 20
593.842047117329
 42
0.0
  0
VERTEX
  8
FRAME
 10
748.700671486394
 20
593.86003641443
 42
0.0
  0
VERTEX
  8
FRAME
 10
748.64282666282
 20
593.876922901728
 42
0.0
  0
VERTEX
  8
FRAME
 10
748.584581045694
 20
593.892717288705
 42
0.0
  0
VERTEX
  8
FRAME
 10
748.525947402332
 20
593.907430284845
 42
0.0
  0
VERTEX
  8
FRAME
 10
748.466938500047
 20
593.921072599632
 42
0.0
  0
VERTEX
  8
FRAME
 10
748.407567106156
 20
593.933654942549
 42
0.0
  0
VERTEX
  8
FRAME
 10
748.347845987973
 20
593.94518802308
 42
0.0
  0
VERTEX
  8
FRAME
 10
748.287787912812
 20
593.955682550708
 42
0.0
  0
VERTEX
  8
FRAME
 10
748.22740564799
 20
593.965149234917
 42
0.0
  0
VERTEX
  8
FRAME
 10
748.105719618618
 20
593.981041911012
 42
0.0
  0
VERTEX
  8
FRAME
 10
747.982890038377
 20
593.992951727235
 42
0.0
  0
VERTEX
  8
FRAME
 10
747.859019045786
 20
594.000964359452
 42
0.0
  0
VERTEX
  8
FRAME
 10
747.734208779364
 20
594.005165483534
 42
0.0
  0
VERTEX
  8
FRAME
 10
747.608561377631
 20
594.005640775348
 42
0.0
  0
VERTEX
  8
FRAME
 10
747.482178979106
 20
594.002475910764
 42
0.0
  0
VERTEX
  8
FRAME
 10
747.355163722308
 20
593.99575656565
 42
0.0
  0
VERTEX
  8
FRAME
 10
747.227617745757
 20
593.985568415874
 42
0.0
  0
VERTEX
  8
FRAME
 10
747.099643187972
 20
593.971997137306
 42
0.0
  0
VERTEX
  8
FRAME
 10
746.971342187472
 20
593.955128405813
 42
0.0
  0
VERTEX
  8
FRAME
 10
746.842816882777
 20
593.935047897265
 42
0.0
  0
VERTEX
  8
FRAME
 10
746.714169412407
 20
593.91184128753
 42
0.0
  0
VERTEX
  8
FRAME
 10
746.58550191488
 20
593.885594252477
 42
0.0
  0
VERTEX
  8
FRAME
 10
746.456916528715
 20
593.856392467974
 42
0.0
  0
VERTEX
  8
FRAME
 10
746.328515392433
 20
593.824321609891
 42
0.0
  0
VERTEX
  8
FRAME
 10
746.200400644553
 20
593.789467354095
 42
0.0
  0
VERTEX
  8
FRAME
 10
746.072674423593
 20
593.751915376455
 42
0.0
  0
VERTEX
  8
FRAME
 10
745.945438868074
 20
593.711751352841
 42
0.0
  0
VERTEX
  8
FRAME
 10
745.818796116515
 20
593.66906095912
 42
0.0
  0
VERTEX
  8
FRAME
 10
745.692848307434
 20
593.623929871161
 42
0.0
  0
VERTEX
  8
FRAME
 10
745.567697579352
 20
593.576443764833
 42
0.0
  0
VERTEX
  8
FRAME
 10
745.443446070788
 20
593.526688316004
 42
0.0
  0
VERTEX
  8
FRAME
 10
745.320195920261
 20
593.474749200544
 42
0.0
  0
VERTEX
  8
FRAME
 10
745.19804926629
 20
593.420712094321
 42
0.0
  0
VERTEX
  8
FRAME
 10
744.957475002096
 20
593.306686613058
 42
0.0
  0
VERTEX
  8
FRAME
 10
744.722253251627
 20
593.185100275086
 42
0.0
  0
VERTEX
  8
FRAME
 10
744.49176544937
 20
593.055653466952
 42
0.0
  0
VERTEX
  8
FRAME
 10
744.265105895082
 20
592.917849571121
 42
0.0
  0
VERTEX
  8
FRAME
 10
744.041368888516
 20
592.771191970059
 42
0.0
  0
VERTEX
  8
FRAME
 10
743.819648729427
 20
592.615184046235
 42
0.0
  0
VERTEX
  8
FRAME
 10
743.59903971757
 20
592.449329182114
 42
0.0
  0
VERTEX
  8
FRAME
 10
743.3786361527
 20
592.273130760162
 42
0.0
  0
VERTEX
  8
FRAME
 10
743.157532334571
 20
592.086092162846
 42
0.0
  0
VERTEX
  8
FRAME
 10
742.934822562938
 20
591.887716772633
 42
0.0
  0
VERTEX
  8
FRAME
 10
742.709601137556
 20
591.677507971988
 42
0.0
  0
VERTEX
  8
FRAME
 10
742.48096235818
 20
591.454969143379
 42
0.0
  0
VERTEX
  8
FRAME
 10
742.248000524563
 20
591.219603669272
 42
0.0
  0
VERTEX
  8
FRAME
 10
741.76548489363
 20
590.708406314429
 42
0.0
  0
VERTEX
  8
FRAME
 10
735.28614408415
 20
583.053907630869
 42
0.0
  0
SEQEND
  0
ARC
  8
FRAME
 10
687.694975027373
 20
589.563450806193
 30
0.0
 40
10.0
 50
220.495561503214
 51
270.0
  0
ARC
  8
FRAME
 10
727.694975027373
 20
589.563450806193
 30
0.0
 40
10.0
 50
270.0
 51
319.386407975207
  0
LINE
  8
FRAME
 10
747.994974949352
 20
501.769218206573
 30
0.0
 11
716.558672883229
 21
501.769218046092
 31
0.0
  0
ARC
  8
FRAME
 10
667.394975037836
 20
504.769217795113
 30
0.0
 40
3.0
 50
180.000000002141
 51
270.000000292492
  0
ARC
  8
FRAME
 10
691.755454613635
 20
504.769218005687
 30
0.0
 40
3.0
 50
270.000000292492
 51
359.999999996986
  0
ARC
  8
FRAME
 10
747.994974934037
 20
504.769218206573
 30
0.0
 40
3.0
 50
270.000000292492
 51
359.999999952302
  0
LINE
  8
FRAME
 10
667.394975037836
 20
501.769217795113
 30
0.0
 11
691.75545462895
 21
501.769217795113
 31
0.0
  0
LINE
  8
FRAME
 10
694.755454613635
 20
504.769218005529
 30
0.0
 11
694.755454614704
 21
525.103714322336
 31
0.0
  0
LINE
  8
FRAME
 10
694.755454614704
 20
525.103714322336
 30
0.0
 11
713.558672764108
 21
525.103714322336
 31
0.0
  0
LINE
  8
FRAME
 10
713.558672764108
 20
525.103714322336
 30
0.0
 11
713.558672867914
 21
504.769218030777
 31
0.0
  0
ARC
  8
FRAME
 10
716.558672867914
 20
504.769218046092
 30
0.0
 40
3.0
 50
180.000000292492
 51
270.000000292492
  0
ARC
  8
FRAME
 10
570.932805958969
 20
589.926321844987
 30
0.0
 40
2.0
 50
179.999999954928
 51
255.522487847538
  0
ARC
  8
FRAME
 10
569.932805961232
 20
586.053338498196
 30
0.0
 40
2.0
 50
0.0
 51
75.5224878475385
  0
ARC
  8
FRAME
 10
570.932805935962
 20
513.956580149983
 30
0.0
 40
2.0
 50
104.477511980869
 51
180.0
  0
ARC
  8
FRAME
 10
569.932805949728
 20
517.829563500138
 30
0.0
 40
2.0
 50
284.477511980869
 51
360.0
  0
ARC
  8
FRAME
 10
654.514877961177
 20
585.982211435099
 30
0.0
 40
2.0
 50
104.501738560438
 51
180.024226579565
  0
ARC
  8
FRAME
 10
653.513240436971
 20
589.85477160547
 30
0.0
 40
2.0
 50
284.501738560435
 51
360.024226579569
  0
ARC
  8
FRAME
 10
653.540839801447
 20
513.956629683432
 30
0.0
 40
2.0
 50
0.0242265344933
 51
75.5467144271073
  0
ARC
  8
FRAME
 10
654.539202082426
 20
517.830035517567
 30
0.0
 40
2.0
 50
180.024226579565
 51
255.546714427104
  0
LINE
  8
FRAME
 10
750.994974934037
 20
504.769218204075
 30
0.0
 11
750.99497499854
 21
589.563450795121
 31
0.0
  0
LINE
  8
FRAME
 10
571.932805961232
 20
586.053338498196
 30
0.0
 11
571.932805949728
 21
517.829563500138
 31
0.0
  0
LINE
  8
FRAME
 10
652.514878139966
 20
585.981365767964
 30
0.0
 11
652.539202261214
 21
517.829189850433
 31
0.0
  0
ARC
  8
FRAME
 10
540.495608110335
 20
566.546314963752
 30
0.0
 40
3.0
 50
180.0
 51
270.0
  0
ARC
  8
FRAME
 10
552.095608110335
 20
566.546314963752
 30
0.0
 40
3.0
 50
270.0
 51
360.0
  0
LINE
  8
FRAME
 10
540.495608110335
 20
563.546314963752
 30
0.0
 11
552.095608110335
 21
563.546314963752
 31
0.0
  0
LINE
  8
FRAME
 10
550.095608110335
 20
609.922203748555
 30
0.0
 11
555.095608110335
 21
609.922203748555
 31
0.0
  0
LINE
  8
FRAME
 10
542.495608110335
 20
609.922203748555
 30
0.0
 11
537.495608110335
 21
609.922203748555
 31
0.0
  0
LINE
  8
FRAME
 10
542.495608110335
 20
618.922203748555
 30
0.0
 11
550.095608110335
 21
618.922203748555
 31
0.0
  0
LINE
  8
FRAME
 10
550.095608110335
 20
609.922203748555
 30
0.0
 11
550.095608110335
 21
618.922203748555
 31
0.0
  0
LINE
  8
FRAME
 10
542.495608110335
 20
609.922203748555
 30
0.0
 11
542.495608110335
 21
618.922203748555
 31
0.0
  0
LINE
  8
FRAME
 10
537.495608110335
 20
609.922203748555
 30
0.0
 11
537.495608110335
 21
566.546314963752
 31
0.0
  0
LINE
  8
FRAME
 10
555.095608110335
 20
609.922203748555
 30
0.0
 11
555.095608110335
 21
566.546314963752
 31
0.0
  0
ARC
  8
FRAME
 10
544.295608110335
 20
506.103104755955
 30
0.0
 40
3.0
 50
180.0
 51
270.0
  0
ARC
  8
FRAME
 10
555.895608110335
 20
506.103104755955
 30
0.0
 40
3.0
 50
270.0
 51
360.0
  0
LINE
  8
FRAME
 10
544.295608110335
 20
503.103104755955
 30
0.0
 11
555.895608110335
 21
503.103104755955
 31
0.0
  0
LINE
  8
FRAME
 10
553.895608110335
 20
549.478993540758
 30
0.0
 11
558.895608110335
 21
549.478993540758
 31
0.0
  0
LINE
  8
FRAME
 10
546.295608110335
 20
549.478993540758
 30
0.0
 11
541.295608110335
 21
549.478993540758
 31
0.0
  0
LINE
  8
FRAME
 10
546.295608110335
 20
558.478993540758
 30
0.0
 11
553.895608110335
 21
558.478993540758
 31
0.0
  0
LINE
  8
FRAME
 10
553.895608110335
 20
549.478993540758
 30
0.0
 11
553.895608110335
 21
558.478993540758
 31
0.0
  0
LINE
  8
FRAME
 10
546.295608110335
 20
549.478993540758
 30
0.0
 11
546.295608110335
 21
558.478993540758
 31
0.0
  0
LINE
  8
FRAME
 10
541.295608110335
 20
549.478993540758
 30
0.0
 11
541.295608110335
 21
506.103104755955
 31
0.0
  0
LINE
  8
FRAME
 10
558.895608110335
 20
549.478993540758
 30
0.0
 11
558.895608110335
 21
506.103104755955
 31
0.0
  0
ARC
  8
FRAME
 10
757.933195926858
 20
631.841432897171
 30
0.0
 40
3.0
 50
180.0
 51
270.0
  0
ARC
  8
FRAME
 10
769.533195926858
 20
631.841432897171
 30
0.0
 40
3.0
 50
270.0
 51
360.0
  0
LINE
  8
FRAME
 10
757.933195926858
 20
628.841432897171
 30
0.0
 11
769.533195926858
 21
628.841432897171
 31
0.0
  0
LINE
  8
FRAME
 10
767.533195926858
 20
675.217321681974
 30
0.0
 11
772.533195926858
 21
675.217321681974
 31
0.0
  0
LINE
  8
FRAME
 10
759.933195926858
 20
675.217321681974
 30
0.0
 11
754.933195926858
 21
675.217321681974
 31
0.0
  0
LINE
  8
FRAME
 10
759.933195926858
 20
684.217321681974
 30
0.0
 11
767.533195926858
 21
684.217321681974
 31
0.0
  0
LINE
  8
FRAME
 10
767.533195926858
 20
675.217321681974
 30
0.0
 11
767.533195926858
 21
684.217321681974
 31
0.0
  0
LINE
  8
FRAME
 10
759.933195926858
 20
675.217321681974
 30
0.0
 11
759.933195926858
 21
684.217321681974
 31
0.0
  0
LINE
  8
FRAME
 10
754.933195926858
 20
675.217321681974
 30
0.0
 11
754.933195926858
 21
631.841432897171
 31
0.0
  0
LINE
  8
FRAME
 10
772.533195926858
 20
675.217321681974
 30
0.0
 11
772.533195926858
 21
631.841432897171
 31
0.0
  0
ARC
  8
FRAME
 10
736.168448913283
 20
630.195383716428
 30
0.0
 40
3.0
 50
180.0
 51
270.0
  0
ARC
  8
FRAME
 10
747.768448913282
 20
630.195383716428
 30
0.0
 40
3.0
 50
270.0
 51
360.0
  0
LINE
  8
FRAME
 10
736.168448913283
 20
627.195383716428
 30
0.0
 11
747.768448913282
 21
627.195383716428
 31
0.0
  0
LINE
  8
FRAME
 10
745.768448913282
 20
673.571272501232
 30
0.0
 11
750.768448913282
 21
673.571272501232
 31
0.0
  0
LINE
  8
FRAME
 10
738.168448913283
 20
673.571272501232
 30
0.0
 11
733.168448913283
 21
673.571272501232
 31
0.0
  0
LINE
  8
FRAME
 10
738.168448913283
 20
682.571272501232
 30
0.0
 11
745.768448913282
 21
682.571272501232
 31
0.0
  0
LINE
  8
FRAME
 10
745.768448913282
 20
673.571272501232
 30
0.0
 11
745.768448913282
 21
682.571272501232
 31
0.0
  0
LINE
  8
FRAME
 10
738.168448913283
 20
673.571272501232
 30
0.0
 11
738.168448913283
 21
682.571272501232
 31
0.0
  0
LINE
  8
FRAME
 10
733.168448913283
 20
673.571272501232
 30
0.0
 11
733.168448913283
 21
630.195383716428
 31
0.0
  0
LINE
  8
FRAME
 10
750.768448913282
 20
673.571272501232
 30
0.0
 11
750.768448913282
 21
630.195383716428
 31
0.0
  0
LINE
  8
FRAME
 10
664.396248255337
 20
589.678814402995
 30
0.0
 11
664.394975037836
 21
504.769217795001
 31
0.0
  0
POLYLINE
  8
FRAME
 66
     1
 10
0.0
 20
0.0
 30
0.0
 70
     0
  0
VERTEX
  8
FRAME
 10
532.082761091481
 20
509.95848443948
 42
0.0
  0
VERTEX
  8
FRAME
 10
532.082761091468
 20
511.125485479451
 42
0.0
  0
SEQEND
  0
POLYLINE
  8
FRAME
 66
     1
 10
0.0
 20
0.0
 30
0.0
 70
     0
  0
VERTEX
  8
FRAME
 10
532.082761091481
 20
509.95848443948
 42
0.1045500575177
  0
VERTEX
  8
FRAME
 10
533.794059519787
 20
501.863832203497
 42
0.0
  0
SEQEND
  0
POLYLINE
  8
FRAME
 66
     1
 10
0.0
 20
0.0
 30
0.0
 70
     0
  0
VERTEX
  8
FRAME
 10
532.090794736609
 20
511.125485479443
 42
0.3419987135024
  0
VERTEX
  8
FRAME
 10
530.589976055885
 20
513.06134273095
 42
0.0
  0
SEQEND
  0
POLYLINE
  8
FRAME
 66
     1
 10
0.0
 20
0.0
 30
0.0
 70
     0
  0
VERTEX
  8
FRAME
 10
532.063196249783
 20
587.023627402329
 42
0.0
  0
VERTEX
  8
FRAME
 10
532.077078293699
 20
603.821801322901
 42
0.0
  0
SEQEND
  0
POLYLINE
  8
FRAME
 66
     1
 10
0.0
 20
0.0
 30
0.0
 70
     0
  0
VERTEX
  8
FRAME
 10
530.564014312975
 20
585.086501650918
 42
0.3419987141191
  0
VERTEX
  8
FRAME
 10
532.063195372132
 20
587.023627403055
 42
0.0
  0
SEQEND
  0
POLYLINE
  8
FRAME
 66
     1
 10
0.0
 20
0.0
 30
0.0
 70
     0
  0
VERTEX
  8
FRAME
 10
533.016551342958
 20
609.863042903892
 42
0.0768748145541
  0
VERTEX
  8
FRAME
 10
532.0770782937
 20
603.821801322902
 42
0.0
  0
SEQEND
  0
POLYLINE
  8
FRAME
 66
     1
 10
0.0
 20
0.0
 30
0.0
 70
     0
  0
VERTEX
  8
FRAME
 10
516.032761090565
 20
537.623393610954
 42
0.0
  0
VERTEX
  8
FRAME
 10
516.783499776235
 20
501.863832203497
 42
0.0
  0
VERTEX
  8
FRAME
 10
533.783499776235
 20
501.863832203497
 42
0.0
  0
SEQEND
  0
POLYLINE
  8
FRAME
 66
     1
 10
0.0
 20
0.0
 30
0.0
 70
     0
  0
VERTEX
  8
FRAME
 10
518.782761091481
 20
609.911249938863
 42
0.0
  0
VERTEX
  8
FRAME
 10
532.783499776235
 20
609.863832203497
 42
0.0
  0
SEQEND
  0
POLYLINE
  8
FRAME
 66
     1
 10
0.0
 20
0.0
 30
0.0
 70
     0
  0
VERTEX
  8
FRAME
 10
518.782761091481
 20
592.863832203497
 42
0.0
  0
VERTEX
  8
FRAME
 10
518.782761091481
 20
609.911249938863
 42
0.0
  0
SEQEND
  0
POLYLINE
  8
FRAME
 66
     1
 10
0.0
 20
0.0
 30
0.0
 70
     0
  0
VERTEX
  8
FRAME
 10
518.783499776235
 20
592.863832203497
 42
0.0
  0
VERTEX
  8
FRAME
 10
516.03276105556
 20
562.595332010891
 42
0.0
  0
SEQEND
  0
POLYLINE
  8
FRAME
 66
     1
 10
0.0
 20
0.0
 30
0.0
 70
     0
  0
VERTEX
  8
FRAME
 10
516.032761090565
 20
537.623393610954
 42
0.0
  0
VERTEX
  8
FRAME
 10
516.03276105556
 20
562.595332010891
 42
0.0
  0
SEQEND
  0
POLYLINE
  8
FRAME
 66
     1
 10
0.0
 20
0.0
 30
0.0
 70
     0
  0
VERTEX
  8
FRAME
 10
530.564014313071
 20
585.08650165055
 42
0.341998714119
  0
VERTEX
  8
FRAME
 10
529.064833253914
 20
583.149375898414
 42
0.0
  0
SEQEND
  0
POLYLINE
  8
FRAME
 66
     1
 10
0.0
 20
0.0
 30
0.0
 70
     0
  0
VERTEX
  8
FRAME
 10
529.064833253915
 20
583.149375898414
 42
0.0
  0
VERTEX
  8
FRAME
 10
529.089157375163
 20
514.997199980883
 42
0.0
  0
SEQEND
  0
POLYLINE
  8
FRAME
 66
     1
 10
0.0
 20
0.0
 30
0.0
 70
     0
  0
VERTEX
  8
FRAME
 10
529.089157375163
 20
514.997199980882
 42
0.3419987132828
  0
VERTEX
  8
FRAME
 10
530.589976055886
 20
513.061342730949
 42
0.0
  0
SEQEND
  0
POLYLINE
  8
FRAME
 66
     1
 10
0.0
 20
0.0
 30
0.0
 70
     0
  0
VERTEX
  8
FRAME
 10
665.422725077582
 20
614.534449725136
 42
0.0
  0
VERTEX
  8
FRAME
 10
665.470142812948
 20
600.53518840989
 42
0.0
  0
SEQEND
  0
POLYLINE
  8
FRAME
 66
     1
 10
0.0
 20
0.0
 30
0.0
 70
     0
  0
VERTEX
  8
FRAME
 10
665.422725077582
 20
614.534449725136
 42
0.0
  0
VERTEX
  8
FRAME
 10
682.740643041008
 20
614.534449725136
 42
0.0
  0
SEQEND
  0
POLYLINE
  8
FRAME
 66
     1
 10
0.0
 20
0.0
 30
0.0
 70
     0
  0
VERTEX
  8
FRAME
 10
671.531294569972
 20
601.234449719717
 42
0.0771164923078
  0
VERTEX
  8
FRAME
 10
665.470959234255
 20
600.294154224492
 42
0.0
  0
SEQEND
  0
POLYLINE
  8
FRAME
 66
     1
 10
0.0
 20
0.0
 30
0.0
 70
     0
  0
VERTEX
  8
FRAME
 10
682.740643041008
 20
614.534449725136
 42
0.0
  0
VERTEX
  8
FRAME
 10
712.738643019572
 20
617.284449752539
 42
0.0
  0
SEQEND
  0
POLYLINE
  8
FRAME
 66
     1
 10
0.0
 20
0.0
 30
0.0
 70
     0
  0
VERTEX
  8
FRAME
 10
737.710581405491
 20
617.284449744672
 42
0.0
  0
VERTEX
  8
FRAME
 10
712.738643019572
 20
617.284449752539
 42
0.0
  0
SEQEND
  0
POLYLINE
  8
FRAME
 66
     1
 10
0.0
 20
0.0
 30
0.0
 70
     0
  0
VERTEX
  8
FRAME
 10
737.710581405491
 20
617.284449744672
 42
0.0
  0
VERTEX
  8
FRAME
 10
773.470142812948
 20
616.53518840989
 42
0.0
  0
VERTEX
  8
FRAME
 10
773.470142812948
 20
598.949146113458
 42
0.0
  0
SEQEND
  0
POLYLINE
  8
FRAME
 66
     1
 10
0.0
 20
0.0
 30
0.0
 70
     0
  0
VERTEX
  8
FRAME
 10
773.470142812948
 20
598.949146113459
 42
0.1209879448672
  0
VERTEX
  8
FRAME
 10
764.209384736012
 20
601.234449683566
 42
0.0
  0
SEQEND
  0
POLYLINE
  8
FRAME
 66
     1
 10
0.0
 20
0.0
 30
0.0
 70
     0
  0
VERTEX
  8
FRAME
 10
688.239643039434
 20
601.234449706573
 42
0.0
  0
VERTEX
  8
FRAME
 10
671.531294569971
 20
601.234449719717
 42
0.0
  0
SEQEND
  0
POLYLINE
  8
FRAME
 66
     1
 10
0.0
 20
0.0
 30
0.0
 70
     0
  0
VERTEX
  8
FRAME
 10
688.239643039435
 20
601.234449706573
 42
0.3419987135024
  0
VERTEX
  8
FRAME
 10
690.176134714404
 20
602.734449707704
 42
0.0
  0
SEQEND
  0
POLYLINE
  8
FRAME
 66
     1
 10
0.0
 20
0.0
 30
0.0
 70
     0
  0
VERTEX
  8
FRAME
 10
762.272893061119
 20
602.734449690497
 42
0.341998714119
  0
VERTEX
  8
FRAME
 10
764.209384736012
 20
601.234449683566
 42
0.0
  0
SEQEND
  0
POLYLINE
  8
FRAME
 66
     1
 10
0.0
 20
0.0
 30
0.0
 70
     0
  0
VERTEX
  8
FRAME
 10
692.112626387799
 20
604.234449708836
 42
0.3419987132828
  0
VERTEX
  8
FRAME
 10
690.176134714403
 20
602.734449707705
 42
0.0
  0
SEQEND
  0
POLYLINE
  8
FRAME
 66
     1
 10
0.0
 20
0.0
 30
0.0
 70
     0
  0
VERTEX
  8
FRAME
 10
692.112626387799
 20
604.234449708836
 42
0.0
  0
VERTEX
  8
FRAME
 10
760.336401385857
 20
604.234449697332
 42
0.0
  0
SEQEND
  0
POLYLINE
  8
FRAME
 66
     1
 10
0.0
 20
0.0
 30
0.0
 70
     0
  0
VERTEX
  8
FRAME
 10
762.27289306075
 20
602.734449690401
 42
0.341998714119
  0
VERTEX
  8
FRAME
 10
760.336401385857
 20
604.234449697332
 42
0.0
  0
SEQEND
  0
ARC
  8
FRAME
 10
681.022310390046
 20
604.507691861608
 30
0.0
 40
25.5853534903442
 50
65.053221087007
 51
175.188376681359
  0
ARC
  8
FRAME
 10
670.087989774724
 20
665.651103820982
 30
0.0
 40
19.8137719223673
 50
256.600885421657
 51
308.769257571875
  0
ARC
  8
FRAME
 10
522.865612342149
 20
645.026438897773
 30
0.0
 40
20.0
 50
15.0
 51
300.0
  0
ARC
  8
FRAME
 10
554.591226779739
 20
665.651103820982
 30
0.0
 40
19.8137719223673
 50
231.230742428125
 51
283.399114578343
  0
ARC
  8
FRAME
 10
543.656906164417
 20
604.507691861608
 30
0.0
 40
25.5853534903442
 50
4.8116233186415
 51
114.946778912993
  0
ARC
  8
FRAME
 10
522.702084387998
 20
475.560640324111
 30
0.0
 40
20.0
 50
60.0
 51
345.0
  0
ARC
  8
FRAME
 10
554.427698825588
 20
454.935975400902
 30
0.0
 40
19.8137719223673
 50
76.6008854216574
 51
128.769257571875
  0
ARC
  8
FRAME
 10
543.493378210266
 20
516.079387360276
 30
0.0
 40
25.5853534903442
 50
245.053221087007
 51
355.188376681359
  0
ARC
  8
FRAME
 10
701.757418815848
 20
474.440959231822
 30
0.0
 40
20.0
 50
-165.0
 51
120.0
  0
ARC
  8
FRAME
 10
670.031804378258
 20
453.816294308613
 30
0.0
 40
19.8137719223673
 50
51.2307424281251
 51
103.399114578343
  0
ARC
  8
FRAME
 10
680.96612499358
 20
514.959706267987
 30
0.0
 40
25.5853534903442
 50
184.811623318641
 51
294.946778912993
  0
CIRCLE
  8
FRAME
 10
564.259150994745
 20
669.224147240765
 30
0.0
 40
1.5
  0
CIRCLE
  8
FRAME
 10
616.432805977532
 20
670.998321833817
 30
0.0
 40
2.0
  0
CIRCLE
  8
FRAME
 10
668.820065559718
 20
669.224147240765
 30
0.0
 40
1.5
  0
POLYLINE
  8
FRAME
 66
     1
 10
0.0
 20
0.0
 30
0.0
 70
     1
  0
VERTEX
  8
FRAME
 10
667.463880163252
 20
448.34325088883
 42
0.5773502691896
  0
VERTEX
  8
FRAME
 10
665.213880163252
 20
449.642288994507
 42
0.5773502691896
  0
VERTEX
  8
FRAME
 10
665.213880163252
 20
447.044212783153
 42
0.5773502691896
  0
SEQEND
  0
POLYLINE
  8
FRAME
 66
     1
 10
0.0
 20
0.0
 30
0.0
 70
     1
  0
VERTEX
  8
FRAME
 10
615.470098610206
 20
447.124807682412
 42
0.5773502691896
  0
VERTEX
  8
FRAME
 10
612.470098610206
 20
448.856858489981
 42
0.5773502691896
  0
VERTEX
  8
FRAME
 10
612.470098610206
 20
445.392756874843
 42
0.5773502691896
  0
SEQEND
  0
POLYLINE
  8
FRAME
 66
     1
 10
0.0
 20
0.0
 30
0.0
 70
     1
  0
VERTEX
  8
FRAME
 10
562.795623040594
 20
449.462931981119
 42
0.5773502691896
  0
VERTEX
  8
FRAME
 10
560.545623040594
 20
450.761970086796
 42
0.5773502691896
  0
VERTEX
  8
FRAME
 10
560.545623040594
 20
448.163893875442
 42
0.5773502691896
  0
SEQEND
  0
POLYLINE
  8
FRAME
 66
     1
 10
0.0
 20
0.0
 30
0.0
 70
     1
  0
VERTEX
  8
FRAME
 10
260.798935022193
 20
314.959354781745
 42
0.0
  0
SEQEND
  0
POLYLINE
  8
FRAME
 66
     1
 10
0.0
 20
0.0
 30
0.0
 70
     1
  0
VERTEX
  8
FRAME
 10
352.932805977532
 20
327.290474309029
 42
0.0
  0
SEQEND
  0
POLYLINE
  8
FRAME
 66
     1
 10
0.0
 20
0.0
 30
0.0
 70
     1
  0
VERTEX
  8
FRAME
 10
352.932805977538
 20
327.313606937148
 42
0.0
  0
SEQEND
  0
POLYLINE
  8
FRAME
 66
     1
 10
0.0
 20
0.0
 30
0.0
 70
     1
  0
VERTEX
  8
FRAME
 10
352.932805977532
 20
328.635712774018
 42
0.0
  0
SEQEND
  0
POLYLINE
  8
FRAME
 66
     1
 10
0.0
 20
0.0
 30
0.0
 70
     1
  0
VERTEX
  8
FRAME
 10
352.870937783284
 20
327.313606937145
 42
0.0002765904648
  0
SEQEND
  0
POLYLINE
  8
FRAME
 66
     1
 10
0.0
 20
0.0
 30
0.0
 70
     1
  0
VERTEX
  8
FRAME
 10
352.932805977532
 20
327.290474309029
 42
0.0059963331769
  0
SEQEND
  0
POLYLINE
  8
FRAME
 66
     1
 10
0.0
 20
0.0
 30
0.0
 70
     1
  0
VERTEX
  8
FRAME
 10
357.286511145093
 20
314.959354781745
 42
0.0
  0
SEQEND
  0
POLYLINE
  8
FRAME
 66
     1
 10
0.0
 20
0.0
 30
0.0
 70
     9
  0
VERTEX
  8
FRAME
 10
683.838902290067
 20
428.164578329772
 30
0.0
 42
0.2316421422114
  0
VERTEX
  8
FRAME
 10
666.840302132246
 20
431.990724648223
 30
0.0
 42
0.0
  0
VERTEX
  8
FRAME
 10
667.001937609097
 20
432.050121538865
 30
0.0
 42
0.0
  0
VERTEX
  8
FRAME
 10
666.007039751395
 20
432.109473037564
 30
0.0
 42
0.0
  0
VERTEX
  8
FRAME
 10
664.710014404233
 20
432.216988612015
 30
0.0
 42
0.0
  0
VERTEX
  8
FRAME
 10
663.493879890926
 20
432.348354728113
 30
0.0
 42
0.0
  0
VERTEX
  8
FRAME
 10
662.354266774905
 20
432.502382522996
 30
0.0
 42
0.0
  0
VERTEX
  8
FRAME
 10
661.286852269227
 20
432.67789094594
 30
0.0
 42
0.0
  0
VERTEX
  8
FRAME
 10
660.28737475151
 20
432.873698419064
 30
0.0
 42
0.0
  0
VERTEX
  8
FRAME
 10
659.351648846963
 20
433.088610245786
 30
0.0
 42
0.0
  0
VERTEX
  8
FRAME
 10
658.479866910105
 20
433.320262007881
 30
0.0
 42
0.0
  0
VERTEX
  8
FRAME
 10
658.0587040973
 20
433.444219543452
 30
0.0
 42
0.0
  0
VERTEX
  8
FRAME
 10
657.655190998964
 20
433.570919097525
 30
0.0
 42
0.0
  0
VERTEX
  8
FRAME
 10
657.264616396945
 20
433.701433295209
 30
0.0
 42
0.0
  0
VERTEX
  8
FRAME
 10
656.886503482176
 20
433.835583935836
 30
0.0
 42
0.0
  0
VERTEX
  8
FRAME
 10
656.520381308525
 20
433.973185703177
 30
0.0
 42
0.0
  0
VERTEX
  8
FRAME
 10
656.165784179932
 20
434.114045551636
 30
0.0
 42
0.0
  0
VERTEX
  8
FRAME
 10
655.822250856286
 20
434.257962240646
 30
0.0
 42
0.0
  0
VERTEX
  8
FRAME
 10
655.48932359381
 20
434.404726059276
 30
0.0
 42
0.0
  0
VERTEX
  8
FRAME
 10
655.166547047097
 20
434.554118778714
 30
0.0
 42
0.0
  0
VERTEX
  8
FRAME
 10
654.849668555584
 20
434.707755551486
 30
0.0
 42
0.0
  0
VERTEX
  8
FRAME
 10
654.254895908996
 20
435.015481147755
 30
0.0
 42
0.0
  0
VERTEX
  8
FRAME
 10
653.689399230226
 20
435.332005905843
 30
0.0
 42
0.0
  0
VERTEX
  8
FRAME
 10
653.153497275584
 20
435.653217377834
 30
0.0
 42
0.0
  0
VERTEX
  8
FRAME
 10
652.637047420544
 20
435.98109447636
 30
0.0
 42
0.0
  0
VERTEX
  8
FRAME
 10
649.448060145962
 20
438.170330962753
 30
0.0
 42
0.0
  0
VERTEX
  8
FRAME
 10
649.00298804358
 20
438.450922663939
 30
0.0
 42
0.0
  0
VERTEX
  8
FRAME
 10
648.53797630564
 20
438.726442148804
 30
0.0
 42
0.0
  0
VERTEX
  8
FRAME
 10
648.051129553014
 20
438.994125031735
 30
0.0
 42
0.0
  0
VERTEX
  8
FRAME
 10
647.805379112358
 20
439.120908939944
 30
0.0
 42
0.0
  0
VERTEX
  8
FRAME
 10
647.549540533045
 20
439.246904144458
 30
0.0
 42
0.0
  0
VERTEX
  8
FRAME
 10
647.286737821282
 20
439.370088139016
 30
0.0
 42
0.0
  0
VERTEX
  8
FRAME
 10
647.016321829099
 20
439.490375228642
 30
0.0
 42
0.0
  0
VERTEX
  8
FRAME
 10
646.737641224085
 20
439.607670653941
 30
0.0
 42
0.0
  0
VERTEX
  8
FRAME
 10
646.44994058698
 20
439.721910845297
 30
0.0
 42
0.0
  0
VERTEX
  8
FRAME
 10
646.152195319153
 20
439.833191199717
 30
0.0
 42
0.0
  0
VERTEX
  8
FRAME
 10
645.847991225788
 20
439.940237722695
 30
0.0
 42
0.0
  0
VERTEX
  8
FRAME
 10
645.195850472813
 20
440.150260030608
 30
0.0
 42
0.0
  0
VERTEX
  8
FRAME
 10
644.508131909551
 20
440.347533799782
 30
0.0
 42
0.0
  0
VERTEX
  8
FRAME
 10
643.781899834773
 20
440.533518239162
 30
0.0
 42
0.0
  0
VERTEX
  8
FRAME
 10
643.018723695459
 20
440.708310963343
 30
0.0
 42
0.0
  0
VERTEX
  8
FRAME
 10
642.220133386366
 20
440.872087526448
 30
0.0
 42
0.0
  0
VERTEX
  8
FRAME
 10
641.387621099237
 20
441.025083170895
 30
0.0
 42
0.0
  0
VERTEX
  8
FRAME
 10
640.526413327846
 20
441.166958048963
 30
0.0
 42
0.0
  0
VERTEX
  8
FRAME
 10
638.700393987494
 20
441.422365746883
 30
0.0
 42
0.0
  0
VERTEX
  8
FRAME
 10
636.765777900322
 20
441.639259880604
 30
0.0
 42
0.0
  0
VERTEX
  8
FRAME
 10
634.728864790229
 20
441.821361149327
 30
0.0
 42
0.0
  0
VERTEX
  8
FRAME
 10
632.603384149962
 20
441.971704345212
 30
0.0
 42
0.0
  0
VERTEX
  8
FRAME
 10
628.113242305229
 20
442.191735778927
 30
0.0
 42
0.0
  0
VERTEX
  8
FRAME
 10
613.491064049482
 20
442.454956308383
 30
0.0
 42
0.0
  0
VERTEX
  8
FRAME
 10
598.866516808931
 20
442.454956308377
 30
0.0
 42
0.0
  0
VERTEX
  8
FRAME
 10
594.373142063214
 20
442.315776523965
 30
0.0
 42
0.0
  0
VERTEX
  8
FRAME
 10
592.24529976457
 20
442.203713234522
 30
0.0
 42
0.0
  0
VERTEX
  8
FRAME
 10
590.205439050311
 20
442.058302930209
 30
0.0
 42
0.0
  0
VERTEX
  8
FRAME
 10
588.267232567353
 20
441.876264199609
 30
0.0
 42
0.0
  0
VERTEX
  8
FRAME
 10
586.436912051961
 20
441.653763560379
 30
0.0
 42
0.0
  0
VERTEX
  8
FRAME
 10
585.573290243959
 20
441.527412148519
 30
0.0
 42
0.0
  0
VERTEX
  8
FRAME
 10
584.738159114346
 20
441.389425294815
 30
0.0
 42
0.0
  0
VERTEX
  8
FRAME
 10
583.936750427035
 20
441.24004872267
 30
0.0
 42
0.0
  0
VERTEX
  8
FRAME
 10
583.170551898034
 20
441.079020370496
 30
0.0
 42
0.0
  0
VERTEX
  8
FRAME
 10
582.44109001456
 20
440.906137176732
 30
0.0
 42
0.0
  0
VERTEX
  8
FRAME
 10
581.74993221244
 20
440.721273294838
 30
0.0
 42
0.0
  0
VERTEX
  8
FRAME
 10
581.094117002358
 20
440.523022590582
 30
0.0
 42
0.0
  0
VERTEX
  8
FRAME
 10
580.788035504716
 20
440.421468637919
 30
0.0
 42
0.0
  0
VERTEX
  8
FRAME
 10
580.488335583571
 20
440.315565290195
 30
0.0
 42
0.0
  0
VERTEX
  8
FRAME
 10
580.198625393301
 20
440.20652179628
 30
0.0
 42
0.0
  0
VERTEX
  8
FRAME
 10
579.917878784239
 20
440.094261215903
 30
0.0
 42
0.0
  0
VERTEX
  8
FRAME
 10
579.645341603653
 20
439.978860704827
 30
0.0
 42
0.0
  0
VERTEX
  8
FRAME
 10
579.380364330169
 20
439.86042673013
 30
0.0
 42
0.0
  0
VERTEX
  8
FRAME
 10
579.122299463358
 20
439.739056656627
 30
0.0
 42
0.0
  0
VERTEX
  8
FRAME
 10
578.87430690554
 20
439.616716435398
 30
0.0
 42
0.0
  0
VERTEX
  8
FRAME
 10
578.382721114064
 20
439.357839445353
 30
0.0
 42
0.0
  0
VERTEX
  8
FRAME
 10
577.912825752877
 20
439.090734124368
 30
0.0
 42
0.0
  0
VERTEX
  8
FRAME
 10
577.462775504791
 20
438.818198524324
 30
0.0
 42
0.0
  0
VERTEX
  8
FRAME
 10
574.234901739242
 20
436.686713787217
 30
0.0
 42
0.0
  0
VERTEX
  8
FRAME
 10
573.712634232538
 20
436.368185144936
 30
0.0
 42
0.0
  0
VERTEX
  8
FRAME
 10
573.171037748776
 20
436.056671158883
 30
0.0
 42
0.0
  0
VERTEX
  8
FRAME
 10
572.599935688859
 20
435.750375789437
 30
0.0
 42
0.0
  0
VERTEX
  8
FRAME
 10
571.999720775533
 20
435.453405081204
 30
0.0
 42
0.0
  0
VERTEX
  8
FRAME
 10
571.680128376252
 20
435.305496546448
 30
0.0
 42
0.0
  0
VERTEX
  8
FRAME
 10
571.354715263951
 20
435.16193753394
 30
0.0
 42
0.0
  0
VERTEX
  8
FRAME
 10
571.019200396553
 20
435.021189694479
 30
0.0
 42
0.0
  0
VERTEX
  8
FRAME
 10
570.673132430208
 20
434.883479417079
 30
0.0
 42
0.0
  0
VERTEX
  8
FRAME
 10
570.316057469781
 20
434.749024617422
 30
0.0
 42
0.0
  0
VERTEX
  8
FRAME
 10
569.947517971912
 20
434.618034805127
 30
0.0
 42
0.0
  0
VERTEX
  8
FRAME
 10
569.567051790517
 20
434.490711376367
 30
0.0
 42
0.0
  0
VERTEX
  8
FRAME
 10
569.174191391172
 20
434.367248093698
 30
0.0
 42
0.0
  0
VERTEX
  8
FRAME
 10
568.768463249402
 20
434.24783171079
 30
0.0
 42
0.0
  0
VERTEX
  8
FRAME
 10
568.345137604519
 20
434.131474571342
 30
0.0
 42
0.0
  0
VERTEX
  8
FRAME
 10
567.469327490894
 20
433.915551137712
 30
0.0
 42
0.0
  0
VERTEX
  8
FRAME
 10
566.529885062094
 20
433.717515826003
 30
0.0
 42
0.0
  0
VERTEX
  8
FRAME
 10
565.527045197561
 20
433.539729209336
 30
0.0
 42
0.0
  0
VERTEX
  8
FRAME
 10
564.456644703274
 20
433.383461121411
 30
0.0
 42
0.0
  0
VERTEX
  8
FRAME
 10
563.314443913861
 20
433.2499696517
 30
0.0
 42
0.0
  0
VERTEX
  8
FRAME
 10
562.096141999801
 20
433.140513463474
 30
0.0
 42
0.0
  0
VERTEX
  8
FRAME
 10
560.797391630117
 20
433.056359870505
 30
0.0
 42
0.0
  0
VERTEX
  8
FRAME
 10
560.077374255753
 20
433.02640014274
 30
0.0
 42
0.0
  0
VERTEX
  8
FRAME
 10
560.4192010716
 20
433.110405740512
 30
0.0
 42
0.2316421422114
  0
VERTEX
  8
FRAME
 10
543.420600913779
 20
429.284259422061
 30
0.0
 42
0.0
  0
VERTEX
  8
FRAME
 10
534.102084387998
 20
451.7811483998
 30
0.0
 42
0.3507859823556
  0
VERTEX
  8
FRAME
 10
565.157259760243
 20
459.359354781745
 30
0.0
 42
0.0
  0
VERTEX
  8
FRAME
 10
596.379892170895
 20
459.359354781745
 30
0.0
 42
0.0
  0
VERTEX
  8
FRAME
 10
630.882805976616
 20
459.359354781745
 30
0.0
 42
0.0
  0
VERTEX
  8
FRAME
 10
661.286511145094
 20
459.359354781745
 30
0.0
 42
0.3660632050846
  0
VERTEX
  8
FRAME
 10
693.157418815848
 20
450.661467307511
 30
0.0
 42
0.0
  0
SEQEND
  0
POLYLINE
  8
FRAME
 66
     1
 10
0.0
 20
0.0
 30
0.0
 70
     1
  0
VERTEX
  8
FRAME
 10
360.475859367472
 20
437.243239808414
 42
0.0
  0
SEQEND
  0
POLYLINE
  8
FRAME
 66
     1
 10
0.0
 20
0.0
 30
0.0
 70
     9
  0
VERTEX
  8
FRAME
 10
562.767468179747
 20
685.590630451167
 30
0.0
 42
0.0
  0
VERTEX
  8
FRAME
 10
563.762859914166
 20
685.540235072853
 30
0.0
 42
0.0
  0
VERTEX
  8
FRAME
 10
565.060800335976
 20
685.444396607904
 30
0.0
 42
0.0
  0
VERTEX
  8
FRAME
 10
566.278067845991
 20
685.323980579177
 30
0.0
 42
0.0
  0
VERTEX
  8
FRAME
 10
567.419021004499
 20
685.180215124721
 30
0.0
 42
0.0
  0
VERTEX
  8
FRAME
 10
568.487971794353
 20
685.014320150938
 30
0.0
 42
0.0
  0
VERTEX
  8
FRAME
 10
569.48917103158
 20
684.827515540907
 30
0.0
 42
0.0
  0
VERTEX
  8
FRAME
 10
570.42679316964
 20
684.621033609673
 30
0.0
 42
0.0
  0
VERTEX
  8
FRAME
 10
571.300624582901
 20
684.397236948592
 30
0.0
 42
0.0
  0
VERTEX
  8
FRAME
 10
571.722885912289
 20
684.277074744805
 30
0.0
 42
0.0
  0
VERTEX
  8
FRAME
 10
572.127522919144
 20
684.154011792567
 30
0.0
 42
0.0
  0
VERTEX
  8
FRAME
 10
572.519256284063
 20
684.027017909449
 30
0.0
 42
0.0
  0
VERTEX
  8
FRAME
 10
572.898561193059
 20
683.896275580012
 30
0.0
 42
0.0
  0
VERTEX
  8
FRAME
 10
573.265906905416
 20
683.761974351323
 30
0.0
 42
0.0
  0
VERTEX
  8
FRAME
 10
573.621757360993
 20
683.624311452256
 30
0.0
 42
0.0
  0
VERTEX
  8
FRAME
 10
573.966571970132
 20
683.48349226622
 30
0.0
 42
0.0
  0
VERTEX
  8
FRAME
 10
574.300806570748
 20
683.339730615181
 30
0.0
 42
0.0
  0
VERTEX
  8
FRAME
 10
574.62491452583
 20
683.193248817057
 30
0.0
 42
0.0
  0
VERTEX
  8
FRAME
 10
574.943162859501
 20
683.042470057124
 30
0.0
 42
0.0
  0
VERTEX
  8
FRAME
 10
575.540680837467
 20
682.740109660022
 30
0.0
 42
0.0
  0
VERTEX
  8
FRAME
 10
576.10900322247
 20
682.428686984406
 30
0.0
 42
0.0
  0
VERTEX
  8
FRAME
 10
576.647774260575
 20
682.112311442956
 30
0.0
 42
0.0
  0
VERTEX
  8
FRAME
 10
577.167153975048
 20
681.789095483106
 30
0.0
 42
0.0
  0
VERTEX
  8
FRAME
 10
580.37571443394
 20
679.62864737856
 30
0.0
 42
0.0
  0
VERTEX
  8
FRAME
 10
580.823293735037
 20
679.35207252735
 30
0.0
 42
0.0
  0
VERTEX
  8
FRAME
 10
581.29076621609
 20
679.080749136502
 30
0.0
 42
0.0
  0
VERTEX
  8
FRAME
 10
581.780002301001
 20
678.817458537396
 30
0.0
 42
0.0
  0
VERTEX
  8
FRAME
 10
582.026883798334
 20
678.692891428019
 30
0.0
 42
0.0
  0
VERTEX
  8
FRAME
 10
582.283845927731
 20
678.569203779968
 30
0.0
 42
0.0
  0
VERTEX
  8
FRAME
 10
582.547746607683
 20
678.448389902678
 30
0.0
 42
0.0
  0
VERTEX
  8
FRAME
 10
582.819234188649
 20
678.330541329753
 30
0.0
 42
0.0
  0
VERTEX
  8
FRAME
 10
583.09895912386
 20
678.215758678502
 30
0.0
 42
0.0
  0
VERTEX
  8
FRAME
 10
583.387676229881
 20
678.104112314466
 30
0.0
 42
0.0
  0
VERTEX
  8
FRAME
 10
583.686410922389
 20
677.995516065515
 30
0.0
 42
0.0
  0
VERTEX
  8
FRAME
 10
583.991566075926
 20
677.891211603622
 30
0.0
 42
0.0
  0
VERTEX
  8
FRAME
 10
584.645570543028
 20
677.687066830182
 30
0.0
 42
0.0
  0
VERTEX
  8
FRAME
 10
585.335036647401
 20
677.495990266521
 30
0.0
 42
0.0
  0
VERTEX
  8
FRAME
 10
586.062913103733
 20
677.316549183031
 30
0.0
 42
0.0
  0
VERTEX
  8
FRAME
 10
586.827631407101
 20
677.148631844618
 30
0.0
 42
0.0
  0
VERTEX
  8
FRAME
 10
587.627663304626
 20
676.992048935774
 30
0.0
 42
0.0
  0
VERTEX
  8
FRAME
 10
588.461518782092
 20
676.846551794425
 30
0.0
 42
0.0
  0
VERTEX
  8
FRAME
 10
589.323968498879
 20
676.712433217992
 30
0.0
 42
0.0
  0
VERTEX
  8
FRAME
 10
591.152212466132
 20
676.473469371975
 30
0.0
 42
0.0
  0
VERTEX
  8
FRAME
 10
593.088702174261
 20
676.273994861592
 30
0.0
 42
0.0
  0
VERTEX
  8
FRAME
 10
595.127171639431
 20
676.110232443102
 30
0.0
 42
0.0
  0
VERTEX
  8
FRAME
 10
597.253919236928
 20
675.979023886817
 30
0.0
 42
0.0
  0
VERTEX
  8
FRAME
 10
601.745859444669
 20
675.799411003878
 30
0.0
 42
0.0
  0
VERTEX
  8
FRAME
 10
616.369814426998
 20
675.667795409042
 30
0.0
 42
0.0
  0
VERTEX
  8
FRAME
 10
630.993769409365
 20
675.799411003884
 30
0.0
 42
0.0
  0
VERTEX
  8
FRAME
 10
635.485709617128
 20
675.979023886832
 30
0.0
 42
0.0
  0
VERTEX
  8
FRAME
 10
637.612457214633
 20
676.110232443122
 30
0.0
 42
0.0
  0
VERTEX
  8
FRAME
 10
639.650926679812
 20
676.273994861619
 30
0.0
 42
0.0
  0
VERTEX
  8
FRAME
 10
641.587416387949
 20
676.473469372012
 30
0.0
 42
0.0
  0
VERTEX
  8
FRAME
 10
643.415660355207
 20
676.712433218039
 30
0.0
 42
0.0
  0
VERTEX
  8
FRAME
 10
644.278110071996
 20
676.846551794479
 30
0.0
 42
0.0
  0
VERTEX
  8
FRAME
 10
645.111965549463
 20
676.992048935834
 30
0.0
 42
0.0
  0
VERTEX
  8
FRAME
 10
645.911997446989
 20
677.148631844685
 30
0.0
 42
0.0
  0
VERTEX
  8
FRAME
 10
646.676715750356
 20
677.316549183105
 30
0.0
 42
0.0
  0
VERTEX
  8
FRAME
 10
647.404592206687
 20
677.495990266604
 30
0.0
 42
0.0
  0
VERTEX
  8
FRAME
 10
648.094058311058
 20
677.687066830273
 30
0.0
 42
0.0
  0
VERTEX
  8
FRAME
 10
648.748062778157
 20
677.891211603723
 30
0.0
 42
0.0
  0
VERTEX
  8
FRAME
 10
649.053217931692
 20
677.995516065619
 30
0.0
 42
0.0
  0
VERTEX
  8
FRAME
 10
649.351952624197
 20
678.104112314574
 30
0.0
 42
0.0
  0
VERTEX
  8
FRAME
 10
649.640669730216
 20
678.215758678616
 30
0.0
 42
0.0
  0
VERTEX
  8
FRAME
 10
649.920394665424
 20
678.330541329871
 30
0.0
 42
0.0
  0
VERTEX
  8
FRAME
 10
650.191882246387
 20
678.448389902801
 30
0.0
 42
0.0
  0
VERTEX
  8
FRAME
 10
650.455782926337
 20
678.569203780097
 30
0.0
 42
0.0
  0
VERTEX
  8
FRAME
 10
650.712745055731
 20
678.692891428153
 30
0.0
 42
0.0
  0
VERTEX
  8
FRAME
 10
650.95962655306
 20
678.817458537536
 30
0.0
 42
0.0
  0
VERTEX
  8
FRAME
 10
651.448862637965
 20
679.080749136651
 30
0.0
 42
0.0
  0
VERTEX
  8
FRAME
 10
651.916335119011
 20
679.352072527511
 30
0.0
 42
0.0
  0
VERTEX
  8
FRAME
 10
652.363914420103
 20
679.628647378734
 30
0.0
 42
0.0
  0
VERTEX
  8
FRAME
 10
655.572474878951
 20
681.789095483354
 30
0.0
 42
0.0
  0
VERTEX
  8
FRAME
 10
656.091854593422
 20
682.112311443213
 30
0.0
 42
0.0
  0
VERTEX
  8
FRAME
 10
656.630625631524
 20
682.428686984669
 30
0.0
 42
0.0
  0
VERTEX
  8
FRAME
 10
657.198948016526
 20
682.740109660292
 30
0.0
 42
0.0
  0
VERTEX
  8
FRAME
 10
657.79646599449
 20
683.042470057397
 30
0.0
 42
0.0
  0
VERTEX
  8
FRAME
 10
658.114714328161
 20
683.19324881733
 30
0.0
 42
0.0
  0
VERTEX
  8
FRAME
 10
658.438822283243
 20
683.339730615455
 30
0.0
 42
0.0
  0
VERTEX
  8
FRAME
 10
658.77305688386
 20
683.483492266494
 30
0.0
 42
0.0
  0
VERTEX
  8
FRAME
 10
659.117871492999
 20
683.62431145253
 30
0.0
 42
0.0
  0
VERTEX
  8
FRAME
 10
659.473721948578
 20
683.761974351595
 30
0.0
 42
0.0
  0
VERTEX
  8
FRAME
 10
659.841067660936
 20
683.896275580282
 30
0.0
 42
0.0
  0
VERTEX
  8
FRAME
 10
660.220372569935
 20
684.027017909717
 30
0.0
 42
0.0
  0
VERTEX
  8
FRAME
 10
660.612105934855
 20
684.154011792831
 30
0.0
 42
0.0
  0
VERTEX
  8
FRAME
 10
661.016742941713
 20
684.277074745067
 30
0.0
 42
0.0
  0
VERTEX
  8
FRAME
 10
661.439004271103
 20
684.397236948847
 30
0.0
 42
0.0
  0
VERTEX
  8
FRAME
 10
662.31283568437
 20
684.621033609919
 30
0.0
 42
0.0
  0
VERTEX
  8
FRAME
 10
663.250457822436
 20
684.827515541138
 30
0.0
 42
0.0
  0
VERTEX
  8
FRAME
 10
664.251657059672
 20
685.014320151151
 30
0.0
 42
0.0
  0
VERTEX
  8
FRAME
 10
665.320607849537
 20
685.180215124914
 30
0.0
 42
0.0
  0
VERTEX
  8
FRAME
 10
666.461561008056
 20
685.323980579346
 30
0.0
 42
0.0
  0
VERTEX
  8
FRAME
 10
667.678828518085
 20
685.444396608049
 30
0.0
 42
0.0
  0
VERTEX
  8
FRAME
 10
668.97676893991
 20
685.540235072966
 30
0.0
 42
0.0
  0
VERTEX
  8
FRAME
 10
669.696487528712
 20
685.576673481373
 30
0.0
 42
0.2316421422114
  0
VERTEX
  8
FRAME
 10
686.695087686533
 20
689.402819799823
 30
0.0
 42
0.0
  0
VERTEX
  8
FRAME
 10
694.0
 20
667.9
 30
0.0
 42
0.0
  0
VERTEX
  8
FRAME
 10
696.013604212314
 20
666.905930822084
 30
0.0
 42
0.3128491480301
  0
VERTEX
  8
FRAME
 10
667.275859367472
 20
661.943239808414
 30
0.0
 42
0.0
  0
VERTEX
  8
FRAME
 10
636.432805977532
 20
661.943239808413
 30
0.0
 42
0.0
  0
VERTEX
  8
FRAME
 10
596.432805977532
 20
661.943239808413
 30
0.0
 42
0.0
  0
VERTEX
  8
FRAME
 10
565.896583704071
 20
661.943239808413
 30
0.0
 42
0.0
  0
VERTEX
  8
FRAME
 10
565.803357186991
 20
661.943239808413
 30
0.0
 42
0.3128491480301
  0
VERTEX
  8
FRAME
 10
537.065612342149
 20
666.905930822084
 30
0.0
 42
0.0
  0
VERTEX
  8
FRAME
 10
538.9
 20
667.7
 30
0.0
 42
0.0
  0
VERTEX
  8
FRAME
 10
546.38412886793
 20
689.402819799823
 30
0.0
 42
0.2316421422114
  0
VERTEX
  8
FRAME
 10
563.382729025751
 20
685.576673481373
 30
0.0
 42
0.0
  0
SEQEND
  0
CIRCLE
  8
CORTES_INTERIORES
 10
528.751906406835
 20
601.252290964997
 30
0.0
 40
1.5
  0
CIRCLE
  8
CORTES_INTERIORES
 10
528.082761091481
 20
588.876196913825
 30
0.0
 40
1.5
  0
POLYLINE
  8
CORTES_INTERIORES
 66
     1
 10
0.0
 20
0.0
 30
0.0
 70
     1
  0
VERTEX
  8
CORTES_INTERIORES
 10
686.457778047084
 20
606.734449730078
 42
0.5773502691896
  0
VERTEX
  8
CORTES_INTERIORES
 10
685.158739941407
 20
604.484449730078
 42
0.5773502691896
  0
VERTEX
  8
CORTES_INTERIORES
 10
687.756816152761
 20
604.484449730078
 42
0.5773502691896
  0
SEQEND
  0
POLYLINE
  8
CORTES_INTERIORES
 66
     1
 10
0.0
 20
0.0
 30
0.0
 70
     1
  0
VERTEX
  8
CORTES_INTERIORES
 10
674.081684051448
 20
606.059449719567
 42
0.5773502691896
  0
VERTEX
  8
CORTES_INTERIORES
 10
672.782645945771
 20
603.809449719567
 42
0.5773502691896
  0
VERTEX
  8
CORTES_INTERIORES
 10
675.380722157125
 20
603.809449719567
 42
0.5773502691896
  0
SEQEND
  0
CIRCLE
  8
CORTES_INTERIORES
 10
578.457805979977
 20
558.830383478901
 30
0.0
 40
2.0
  0
POLYLINE
  8
CORTES_INTERIORES
 66
     1
 10
0.0
 20
0.0
 30
0.0
 70
     1
  0
VERTEX
  8
CORTES_INTERIORES
 10
766.693732793341
 20
606.734449725136
 42
0.5773502691896
  0
VERTEX
  8
CORTES_INTERIORES
 10
765.394694687664
 20
604.484449725136
 42
0.5773502691896
  0
VERTEX
  8
CORTES_INTERIORES
 10
767.992770899018
 20
604.484449725136
 42
0.5773502691896
  0
SEQEND
  0
CIRCLE
  8
CORTES_INTERIORES
 10
560.059150994745
 20
630.024147240765
 30
0.0
 40
1.5
  0
POLYLINE
  8
CORTES_INTERIORES
 66
     1
 10
0.0
 20
0.0
 30
0.0
 70
     1
  0
VERTEX
  8
CORTES_INTERIORES
 10
719.335581407094
 20
612.759449727581
 42
0.5773502691896
  0
VERTEX
  8
CORTES_INTERIORES
 10
717.603530599525
 20
609.759449727581
 42
0.5773502691896
  0
VERTEX
  8
CORTES_INTERIORES
 10
721.067632214663
 20
609.759449727581
 42
0.5773502691896
  0
SEQEND
  0
LINE
  8
CORTES_INTERIORES
 10
701.874826220449
 20
476.4422412053
 30
0.0
 11
698.268581636397
 21
472.835996621248
 31
0.0
  0
CIRCLE
  8
CORTES_INTERIORES
 10
591.67126899633
 20
577.137714549904
 30
0.0
 40
1.5
  0
CIRCLE
  8
CORTES_INTERIORES
 10
634.7
 20
577.0
 30
0.0
 40
1.5
  0
CIRCLE
  8
CORTES_INTERIORES
 10
634.796342038394
 20
533.959897043727
 30
0.0
 40
1.5
  0
CIRCLE
  8
CORTES_INTERIORES
 10
591.67126899633
 20
533.878262664368
 30
0.0
 40
1.5
  0
LINE
  8
CORTES_INTERIORES
 10
698.268581636397
 20
472.835996621248
 30
0.0
 11
703.218329104703
 21
467.886249152942
 31
0.0
  0
LINE
  8
CORTES_INTERIORES
 10
706.824573688754
 20
471.492493736994
 30
0.0
 11
703.218329104703
 21
467.886249152942
 31
0.0
  0
LINE
  8
CORTES_INTERIORES
 10
701.874826220449
 20
476.4422412053
 30
0.0
 11
706.824573688754
 21
471.492493736994
 31
0.0
  0
CIRCLE
  8
CORTES_INTERIORES
 10
664.563880163252
 20
489.44325088883
 30
0.0
 40
1.5
  0
LINE
  8
CORTES_INTERIORES
 10
522.748204937548
 20
643.025156924295
 30
0.0
 11
526.3544495216
 21
646.631401508347
 31
0.0
  0
LINE
  8
CORTES_INTERIORES
 10
526.3544495216
 20
646.631401508347
 30
0.0
 11
521.404702053294
 21
651.581148976653
 31
0.0
  0
LINE
  8
CORTES_INTERIORES
 10
517.798457469243
 20
647.974904392601
 30
0.0
 11
521.404702053294
 21
651.581148976653
 31
0.0
  0
LINE
  8
CORTES_INTERIORES
 10
522.748204937548
 20
643.025156924295
 30
0.0
 11
517.798457469243
 21
647.974904392601
 31
0.0
  0
CIRCLE
  8
CORTES_INTERIORES
 10
522.553637465737
 20
556.023584031106
 30
0.0
 40
2.0
  0
CIRCLE
  8
CORTES_INTERIORES
 10
528.082761091481
 20
508.640242223104
 30
0.0
 40
1.5
  0
CIRCLE
  8
CORTES_INTERIORES
 10
707.694975040978
 20
556.156550402471
 30
0.0
 40
2.791190511403
  0
CIRCLE
  8
CORTES_INTERIORES
 10
612.232805977532
 20
631.798321833817
 30
0.0
 40
2.0
  0
CIRCLE
  8
CORTES_INTERIORES
 10
646.003682351788
 20
558.855573900655
 30
0.0
 40
2.0
  0
CIRCLE
  8
CORTES_INTERIORES
 10
572.932805977532
 20
511.472232092654
 30
0.0
 40
1.5
  0
CIRCLE
  8
CORTES_INTERIORES
 10
651.532805977532
 20
511.472232092654
 30
0.0
 40
1.5
  0
CIRCLE
  8
CORTES_INTERIORES
 10
668.39497504514
 20
509.108937635776
 30
0.0
 40
1.5
  0
CIRCLE
  8
CORTES_INTERIORES
 10
746.99497504514
 20
509.108937635776
 30
0.0
 40
1.5
  0
LINE
  8
CORTES_INTERIORES
 10
582.232805977532
 20
612.743239808413
 30
0.0
 11
582.232805977532
 21
595.425321844987
 31
0.0
  0
LINE
  8
CORTES_INTERIORES
 10
642.232805977532
 20
595.425321844987
 30
0.0
 11
642.232805977532
 21
612.743239808413
 31
0.0
  0
ARC
  8
CORTES_INTERIORES
 10
592.232805977532
 20
612.743239808413
 30
0.0
 40
10.0
 50
90.0
 51
180.0
  0
ARC
  8
CORTES_INTERIORES
 10
632.232805977532
 20
612.743239808413
 30
0.0
 40
10.0
 50
0.0
 51
90.0
  0
LINE
  8
CORTES_INTERIORES
 10
733.694975027634
 20
568.123724202723
 30
0.0
 11
747.119475012801
 21
568.123724191547
 31
0.0
  0
LINE
  8
CORTES_INTERIORES
 10
747.119475010304
 20
565.123724202723
 30
0.0
 11
747.119475012801
 21
568.123724191547
 31
0.0
  0
LINE
  8
CORTES_INTERIORES
 10
733.694975027634
 20
565.123724202723
 30
0.0
 11
747.119475010304
 21
565.123724202723
 31
0.0
  0
LINE
  8
CORTES_INTERIORES
 10
747.119475019637
 20
537.114690601107
 30
0.0
 11
747.119475022135
 21
540.114690589931
 31
0.0
  0
LINE
  8
CORTES_INTERIORES
 10
733.694975036968
 20
537.114690601107
 30
0.0
 11
747.119475019637
 21
537.114690601107
 31
0.0
  0
LINE
  8
CORTES_INTERIORES
 10
668.270475043716
 20
568.123724202723
 30
0.0
 11
681.694975028883
 21
568.123724191547
 31
0.0
  0
LINE
  8
CORTES_INTERIORES
 10
668.270475043716
 20
565.123724202723
 30
0.0
 11
668.270475043716
 21
568.123724202723
 31
0.0
  0
LINE
  8
CORTES_INTERIORES
 10
668.270475049527
 20
537.103714320723
 30
0.0
 11
681.694975032197
 21
537.103714320723
 31
0.0
  0
LINE
  8
CORTES_INTERIORES
 10
668.270475049527
 20
537.103714320723
 30
0.0
 11
668.270475049527
 21
540.103714320723
 31
0.0
  0
LINE
  8
CORTES_INTERIORES
 10
668.270475049527
 20
540.103714320723
 30
0.0
 11
681.694975034694
 21
540.103714309547
 31
0.0
  0
LINE
  8
CORTES_INTERIORES
 10
668.270475043716
 20
565.123724202723
 30
0.0
 11
681.694975026386
 21
565.123724202723
 31
0.0
  0
LINE
  8
CORTES_INTERIORES
 10
733.694975036968
 20
537.114690601107
 30
0.0
 11
733.694975036968
 21
540.114690601107
 31
0.0
  0
LINE
  8
CORTES_INTERIORES
 10
747.119475022135
 20
540.114690589931
 30
0.0
 11
733.694975033445
 21
540.114690589931
 31
0.0
  0
ARC
  8
CORTES_INTERIORES
 10
594.979892170895
 20
510.459354781745
 30
0.0
 40
10.0
 50
89.0134710963499
 51
270.0
  0
ARC
  8
CORTES_INTERIORES
 10
629.482805976616
 20
510.459354781745
 30
0.0
 40
10.0
 50
270.0
 51
450.0
  0
LINE
  8
CORTES_INTERIORES
 10
595.152065438707
 20
520.457872490178
 30
0.0
 11
629.482805976616
 21
520.457872490178
 31
0.0
  0
CIRCLE
  8
CORTES_INTERIORES
 10
612.070098610206
 20
488.224807682412
 30
0.0
 40
2.0
  0
LINE
  8
CORTES_INTERIORES
 10
594.979892170895
 20
500.459354781745
 30
0.0
 11
629.482805976616
 21
500.459354781745
 31
0.0
  0
LINE
  8
CORTES_INTERIORES
 10
612.232805990775
 20
585.425321844987
 30
0.0
 11
592.232805977532
 21
585.425321844987
 31
0.0
  0
LINE
  8
CORTES_INTERIORES
 10
612.232805990775
 20
585.425321844987
 30
0.0
 11
632.232805977532
 21
585.425321844987
 31
0.0
  0
ARC
  8
CORTES_INTERIORES
 10
592.232805977532
 20
595.425321844987
 30
0.0
 40
10.0
 50
180.0
 51
270.0
  0
ARC
  8
CORTES_INTERIORES
 10
632.232805977532
 20
595.425321844987
 30
0.0
 40
10.0
 50
270.0
 51
360.0
  0
LINE
  8
CORTES_INTERIORES
 10
701.931011616915
 20
643.025156924295
 30
0.0
 11
698.324767032863
 21
646.631401508347
 31
0.0
  0
LINE
  8
CORTES_INTERIORES
 10
698.324767032863
 20
646.631401508347
 30
0.0
 11
703.274514501169
 21
651.581148976653
 31
0.0
  0
LINE
  8
CORTES_INTERIORES
 10
706.88075908522
 20
647.974904392601
 30
0.0
 11
703.274514501169
 21
651.581148976653
 31
0.0
  0
LINE
  8
CORTES_INTERIORES
 10
701.931011616915
 20
643.025156924295
 30
0.0
 11
706.88075908522
 21
647.974904392601
 31
0.0
  0
CIRCLE
  8
CORTES_INTERIORES
 10
668.394975030454
 20
589.344892326497
 30
0.0
 40
1.5
  0
CIRCLE
  8
CORTES_INTERIORES
 10
746.994975008216
 20
589.31969448951
 30
0.0
 40
1.5
  0
CIRCLE
  8
CORTES_INTERIORES
 10
572.932805982474
 20
591.708186838911
 30
0.0
 40
1.5
  0
CIRCLE
  8
CORTES_INTERIORES
 10
651.532805977532
 20
591.708186783375
 30
0.0
 40
1.5
  0
LINE
  8
CORTES_INTERIORES
 10
691.775111755259
 20
521.074319764085
 30
0.0
 11
683.775111755259
 21
521.074319764085
 31
0.0
  0
LINE
  8
CORTES_INTERIORES
 10
683.775111755259
 20
509.074319764085
 30
0.0
 11
686.275111719135
 21
505.074319746023
 31
0.0
  0
LINE
  8
CORTES_INTERIORES
 10
689.275111719135
 20
505.074319746023
 30
0.0
 11
691.775111737197
 21
509.074319727961
 31
0.0
  0
LINE
  8
CORTES_INTERIORES
 10
683.775111755259
 20
521.074319764085
 30
0.0
 11
683.775111755259
 21
509.074319764085
 31
0.0
  0
LINE
  8
CORTES_INTERIORES
 10
686.275111719135
 20
505.074319746023
 30
0.0
 11
689.275111719135
 21
505.074319746023
 31
0.0
  0
LINE
  8
CORTES_INTERIORES
 10
691.775111755259
 20
521.074319764085
 30
0.0
 11
691.775111737197
 21
509.074319727961
 31
0.0
  0
CIRCLE
  8
CORTES_INTERIORES
 10
572.257805971963
 20
604.084280834547
 30
0.0
 40
1.5
  0
CIRCLE
  8
CORTES_INTERIORES
 10
652.201951292886
 20
604.084280834547
 30
0.0
 40
1.5
  0
LINE
  8
CORTES_INTERIORES
 10
681.694975028883
 20
568.123724191547
 30
0.0
 11
681.694975028883
 21
565.123724202723
 31
0.0
  0
LINE
  8
CORTES_INTERIORES
 10
733.694975027634
 20
568.123724202723
 30
0.0
 11
733.694975027634
 21
565.123724202723
 31
0.0
  0
LINE
  8
CORTES_INTERIORES
 10
681.694975034694
 20
540.103714309547
 30
0.0
 11
681.694975032197
 21
537.103714320723
 31
0.0
  0
LINE
  8
CORTES_INTERIORES
 10
733.694975036968
 20
540.114690601107
 30
0.0
 11
733.694975036968
 21
537.114690601107
 31
0.0
  0
CIRCLE
  8
CORTES_INTERIORES
 10
546.295608110335
 20
568.546314963752
 30
0.0
 40
2.0
  0
CIRCLE
  8
CORTES_INTERIORES
 10
550.095608110335
 20
508.103104755955
 30
0.0
 40
2.0
  0
CIRCLE
  8
CORTES_INTERIORES
 10
763.733195926858
 20
633.841432897171
 30
0.0
 40
2.0
  0
CIRCLE
  8
CORTES_INTERIORES
 10
741.968448913282
 20
632.195383716428
 30
0.0
 40
2.0
  0
LINE
  8
CORTES_INTERIORES
 10
592.232805977532
 20
622.743239808413
 30
0.0
 11
632.232805977532
 21
622.743239808413
 31
0.0
  0
CIRCLE
  8
CORTES_INTERIORES
 10
664.620065559718
 20
630.024147240765
 30
0.0
 40
1.5
  0
CIRCLE
  8
CORTES_INTERIORES
 10
559.895623040594
 20
490.562931981119
 30
0.0
 40
1.5
  0
LINE
  8
CORTES_INTERIORES
 10
522.584676983397
 20
477.561922297589
 30
0.0
 11
526.190921567449
 21
473.955677713537
 31
0.0
  0
LINE
  8
CORTES_INTERIORES
 10
526.190921567449
 20
473.955677713537
 30
0.0
 11
521.241174099143
 21
469.005930245231
 31
0.0
  0
LINE
  8
CORTES_INTERIORES
 10
517.634929515092
 20
472.612174829283
 30
0.0
 11
521.241174099143
 21
469.005930245231
 31
0.0
  0
LINE
  8
CORTES_INTERIORES
 10
522.584676983397
 20
477.561922297589
 30
0.0
 11
517.634929515092
 21
472.612174829283
 31
0.0
  0
CIRCLE
  8
CORTES_INTERIORES
 10
612.232805977532
 20
558.830383480504
 30
0.0
 40
2.0
  0
POLYLINE
  8
CORTES_INTERIORES
 66
     1
 10
0.0
 20
0.0
 30
0.0
 70
     1
  0
VERTEX
  8
CORTES_INTERIORES
 10
594.982806004934
 20
575.427321858557
 42
0.4142135626035
  0
VERTEX
  8
CORTES_INTERIORES
 10
584.982806004934
 20
565.427321866423
 42
0.0
  0
VERTEX
  8
CORTES_INTERIORES
 10
584.987423476463
 20
565.433953726224
 42
0.0
  0
VERTEX
  8
CORTES_INTERIORES
 10
584.987423470163
 20
545.433953744319
 42
0.0
  0
VERTEX
  8
CORTES_INTERIORES
 10
584.982805997068
 20
545.604601738734
 42
0.4142135623731
  0
VERTEX
  8
CORTES_INTERIORES
 10
594.982805997068
 20
535.604601738734
 42
0.0
  0
VERTEX
  8
CORTES_INTERIORES
 10
629.482805976616
 20
535.604601738734
 42
0.4142135623731
  0
VERTEX
  8
CORTES_INTERIORES
 10
639.482805976616
 20
545.604601738734
 42
0.0
  0
VERTEX
  8
CORTES_INTERIORES
 10
639.453098286087
 20
545.506477945139
 42
0.0
  0
VERTEX
  8
CORTES_INTERIORES
 10
639.453098292387
 20
565.506477927044
 42
0.0
  0
VERTEX
  8
CORTES_INTERIORES
 10
639.482805941611
 20
565.427321866423
 42
0.4142135621427
  0
VERTEX
  8
CORTES_INTERIORES
 10
629.482805984482
 20
575.427321831418
 42
0.0
  0
SEQEND
  0
ENDSEC
  0
EOF
