  0
SECTION
  2
HEADER
  9
$ACADVER
  1
AC1027
  9
$ACADMAINTVER
 70
     8
  9
$DWGCODEPAGE
  3
ANSI_1252
  9
$REQUIREDVERSIONS
160
                 0
  9
$LASTSAVEDBY
  1
Wombat
  9
$INSBASE
 10
0.0
 20
0.0
 30
0.0
  9
$EXTMIN
 10
128.7778846026942
 20
-6.366291711987628
 30
0.0
  9
$EXTMAX
 10
512.7778846026943
 20
377.6337082880124
 30
0.0
  9
$LIMMIN
 10
0.0
 20
0.0
  9
$LIMMAX
 10
12.0
 20
9.0
  9
$ORTHOMODE
 70
     0
  9
$REGENMODE
 70
     1
  9
$FILLMODE
 70
     1
  9
$QTEXTMODE
 70
     0
  9
$MIRRTEXT
 70
     0
  9
$LTSCALE
 40
1.0
  9
$ATTMODE
 70
     1
  9
$TEXTSIZE
 40
0.2
  9
$TRACEWID
 40
0.05
  9
$TEXTSTYLE
  7
Standard
  9
$CLAYER
  8
CORTES_INTERIORES
  9
$CELTYPE
  6
Continuous
  9
$CECOLOR
 62
     6
  9
$CELTSCALE
 40
1.0
  9
$DISPSILH
 70
     0
  9
$DIMSCALE
 40
1.0
  9
$DIMASZ
 40
0.18
  9
$DIMEXO
 40
0.0625
  9
$DIMDLI
 40
0.38
  9
$DIMRND
 40
0.0
  9
$DIMDLE
 40
0.0
  9
$DIMEXE
 40
0.18
  9
$DIMTP
 40
0.0
  9
$DIMTM
 40
0.0
  9
$DIMTXT
 40
0.18
  9
$DIMCEN
 40
0.09
  9
$DIMTSZ
 40
0.0
  9
$DIMTOL
 70
     0
  9
$DIMLIM
 70
     0
  9
$DIMTIH
 70
     1
  9
$DIMTOH
 70
     1
  9
$DIMSE1
 70
     0
  9
$DIMSE2
 70
     0
  9
$DIMTAD
 70
     0
  9
$DIMZIN
 70
     0
  9
$DIMBLK
  1

  9
$DIMASO
 70
     1
  9
$DIMSHO
 70
     1
  9
$DIMPOST
  1

  9
$DIMAPOST
  1

  9
$DIMALT
 70
     0
  9
$DIMALTD
 70
     2
  9
$DIMALTF
 40
25.4
  9
$DIMLFAC
 40
1.0
  9
$DIMTOFL
 70
     0
  9
$DIMTVP
 40
0.0
  9
$DIMTIX
 70
     0
  9
$DIMSOXD
 70
     0
  9
$DIMSAH
 70
     0
  9
$DIMBLK1
  1

  9
$DIMBLK2
  1

  9
$DIMSTYLE
  2
Standard
  9
$DIMCLRD
 70
     0
  9
$DIMCLRE
 70
     0
  9
$DIMCLRT
 70
     0
  9
$DIMTFAC
 40
1.0
  9
$DIMGAP
 40
0.09
  9
$DIMJUST
 70
     0
  9
$DIMSD1
 70
     0
  9
$DIMSD2
 70
     0
  9
$DIMTOLJ
 70
     1
  9
$DIMTZIN
 70
     0
  9
$DIMALTZ
 70
     0
  9
$DIMALTTZ
 70
     0
  9
$DIMUPT
 70
     0
  9
$DIMDEC
 70
     4
  9
$DIMTDEC
 70
     4
  9
$DIMALTU
 70
     2
  9
$DIMALTTD
 70
     2
  9
$DIMTXSTY
  7
Standard
  9
$DIMAUNIT
 70
     0
  9
$DIMADEC
 70
     0
  9
$DIMALTRND
 40
0.0
  9
$DIMAZIN
 70
     0
  9
$DIMDSEP
 70
    46
  9
$DIMATFIT
 70
     3
  9
$DIMFRAC
 70
     0
  9
$DIMLDRBLK
  1

  9
$DIMLUNIT
 70
     2
  9
$DIMLWD
 70
    -2
  9
$DIMLWE
 70
    -2
  9
$DIMTMOVE
 70
     0
  9
$DIMFXL
 40
1.0
  9
$DIMFXLON
 70
     0
  9
$DIMJOGANG
 40
0.7853981633974483
  9
$DIMTFILL
 70
     0
  9
$DIMTFILLCLR
 70
     0
  9
$DIMARCSYM
 70
     0
  9
$DIMLTYPE
  6

  9
$DIMLTEX1
  6

  9
$DIMLTEX2
  6

  9
$DIMTXTDIRECTION
 70
     0
  9
$LUNITS
 70
     2
  9
$LUPREC
 70
     4
  9
$SKETCHINC
 40
0.1
  9
$FILLETRAD
 40
20.0
  9
$AUNITS
 70
     0
  9
$AUPREC
 70
     0
  9
$MENU
  1
.
  9
$ELEVATION
 40
0.0
  9
$PELEVATION
 40
0.0
  9
$THICKNESS
 40
0.0
  9
$LIMCHECK
 70
     0
  9
$CHAMFERA
 40
0.0
  9
$CHAMFERB
 40
0.0
  9
$CHAMFERC
 40
0.0
  9
$CHAMFERD
 40
0.0
  9
$SKPOLY
 70
     0
  9
$TDCREATE
 40
2456993.795241725
  9
$TDUCREATE
 40
2456993.336908391
  9
$TDUPDATE
 40
2457091.769723426
  9
$TDUUPDATE
 40
2457091.311390093
  9
$TDINDWG
 40
0.5782560995
  9
$TDUSRTIMER
 40
2457091.305830996
  9
$USRTIMER
 70
     1
  9
$ANGBASE
 50
0.0
  9
$ANGDIR
 70
     0
  9
$PDMODE
 70
     0
  9
$PDSIZE
 40
0.0
  9
$PLINEWID
 40
0.0
  9
$SPLFRAME
 70
     0
  9
$SPLINETYPE
 70
     6
  9
$SPLINESEGS
 70
     8
  9
$HANDSEED
  5
14F3
  9
$SURFTAB1
 70
     6
  9
$SURFTAB2
 70
     6
  9
$SURFTYPE
 70
     6
  9
$SURFU
 70
     6
  9
$SURFV
 70
     6
  9
$UCSBASE
  2

  9
$UCSNAME
  2

  9
$UCSORG
 10
0.0
 20
0.0
 30
0.0
  9
$UCSXDIR
 10
1.0
 20
0.0
 30
0.0
  9
$UCSYDIR
 10
0.0
 20
1.0
 30
0.0
  9
$UCSORTHOREF
  2

  9
$UCSORTHOVIEW
 70
     0
  9
$UCSORGTOP
 10
0.0
 20
0.0
 30
0.0
  9
$UCSORGBOTTOM
 10
0.0
 20
0.0
 30
0.0
  9
$UCSORGLEFT
 10
0.0
 20
0.0
 30
0.0
  9
$UCSORGRIGHT
 10
0.0
 20
0.0
 30
0.0
  9
$UCSORGFRONT
 10
0.0
 20
0.0
 30
0.0
  9
$UCSORGBACK
 10
0.0
 20
0.0
 30
0.0
  9
$PUCSBASE
  2

  9
$PUCSNAME
  2

  9
$PUCSORG
 10
0.0
 20
0.0
 30
0.0
  9
$PUCSXDIR
 10
1.0
 20
0.0
 30
0.0
  9
$PUCSYDIR
 10
0.0
 20
1.0
 30
0.0
  9
$PUCSORTHOREF
  2

  9
$PUCSORTHOVIEW
 70
     0
  9
$PUCSORGTOP
 10
0.0
 20
0.0
 30
0.0
  9
$PUCSORGBOTTOM
 10
0.0
 20
0.0
 30
0.0
  9
$PUCSORGLEFT
 10
0.0
 20
0.0
 30
0.0
  9
$PUCSORGRIGHT
 10
0.0
 20
0.0
 30
0.0
  9
$PUCSORGFRONT
 10
0.0
 20
0.0
 30
0.0
  9
$PUCSORGBACK
 10
0.0
 20
0.0
 30
0.0
  9
$USERI1
 70
     0
  9
$USERI2
 70
     0
  9
$USERI3
 70
     0
  9
$USERI4
 70
     0
  9
$USERI5
 70
     0
  9
$USERR1
 40
0.0
  9
$USERR2
 40
0.0
  9
$USERR3
 40
0.0
  9
$USERR4
 40
0.0
  9
$USERR5
 40
0.0
  9
$WORLDVIEW
 70
     1
  9
$SHADEDGE
 70
     3
  9
$SHADEDIF
 70
    70
  9
$TILEMODE
 70
     1
  9
$MAXACTVP
 70
    64
  9
$PINSBASE
 10
0.0
 20
0.0
 30
0.0
  9
$PLIMCHECK
 70
     0
  9
$PEXTMIN
 10
1.000000000000000E+20
 20
1.000000000000000E+20
 30
1.000000000000000E+20
  9
$PEXTMAX
 10
-1.000000000000000E+20
 20
-1.000000000000000E+20
 30
-1.000000000000000E+20
  9
$PLIMMIN
 10
0.0
 20
0.0
  9
$PLIMMAX
 10
0.0
 20
0.0
  9
$UNITMODE
 70
     0
  9
$VISRETAIN
 70
     1
  9
$PLINEGEN
 70
     0
  9
$PSLTSCALE
 70
     1
  9
$TREEDEPTH
 70
  3020
  9
$CMLSTYLE
  2
Standard
  9
$CMLJUST
 70
     0
  9
$CMLSCALE
 40
1.0
  9
$PROXYGRAPHICS
 70
     1
  9
$MEASUREMENT
 70
     1
  9
$CELWEIGHT
370
    -1
  9
$ENDCAPS
280
     0
  9
$JOINSTYLE
280
     0
  9
$LWDISPLAY
290
     0
  9
$INSUNITS
 70
     4
  9
$HYPERLINKBASE
  1

  9
$STYLESHEET
  1

  9
$XEDIT
290
     1
  9
$CEPSNTYPE
380
     0
  9
$PSTYLEMODE
290
     1
  9
$FINGERPRINTGUID
  2
{F993FBBE-5F55-43D0-BB5C-1FF756D07EB8}
  9
$VERSIONGUID
  2
{BF0C5B74-0FC6-4CFC-B237-33E5B020EC9F}
  9
$EXTNAMES
290
     1
  9
$PSVPSCALE
 40
0.0
  9
$OLESTARTUP
290
     0
  9
$SORTENTS
280
   127
  9
$INDEXCTL
280
     0
  9
$HIDETEXT
280
     0
  9
$XCLIPFRAME
280
     2
  9
$HALOGAP
280
     0
  9
$OBSCOLOR
 70
   257
  9
$OBSLTYPE
280
     0
  9
$INTERSECTIONDISPLAY
280
     0
  9
$INTERSECTIONCOLOR
 70
   257
  9
$DIMASSOC
280
     1
  9
$PROJECTNAME
  1

  9
$CAMERADISPLAY
290
     0
  9
$LENSLENGTH
 40
50.0
  9
$CAMERAHEIGHT
 40
0.0
  9
$STEPSPERSEC
 40
2.0
  9
$STEPSIZE
 40
6.0
  9
$3DDWFPREC
 40
2.0
  9
$PSOLWIDTH
 40
0.25
  9
$PSOLHEIGHT
 40
4.0
  9
$LOFTANG1
 40
1.570796326794897
  9
$LOFTANG2
 40
1.570796326794897
  9
$LOFTMAG1
 40
0.0
  9
$LOFTMAG2
 40
0.0
  9
$LOFTPARAM
 70
     7
  9
$LOFTNORMALS
280
     1
  9
$LATITUDE
 40
37.795
  9
$LONGITUDE
 40
-122.394
  9
$NORTHDIRECTION
 40
0.0
  9
$TIMEZONE
 70
 -8000
  9
$LIGHTGLYPHDISPLAY
280
     1
  9
$TILEMODELIGHTSYNCH
280
     1
  9
$SOLIDHIST
280
     0
  9
$SHOWHIST
280
     1
  9
$DWFFRAME
280
     2
  9
$DGNFRAME
280
     2
  9
$REALWORLDSCALE
290
     1
  9
$INTERFERECOLOR
 62
   256
  9
$CSHADOW
280
     0
  9
$SHADOWPLANELOCATION
 40
0.0
  0
ENDSEC
  0
SECTION
  2
CLASSES
  0
CLASS
  1
ACDBDICTIONARYWDFLT
  2
AcDbDictionaryWithDefault
  3
ObjectDBX Classes
 90
        0
 91
        5
280
     0
281
     0
  0
CLASS
  1
MATERIAL
  2
AcDbMaterial
  3
ObjectDBX Classes
 90
     1153
 91
        5
280
     0
281
     0
  0
CLASS
  1
VISUALSTYLE
  2
AcDbVisualStyle
  3
ObjectDBX Classes
 90
     4095
 91
        5
280
     0
281
     0
  0
CLASS
  1
SCALE
  2
AcDbScale
  3
ObjectDBX Classes
 90
     1153
 91
        5
280
     0
281
     0
  0
CLASS
  1
TABLESTYLE
  2
AcDbTableStyle
  3
ObjectDBX Classes
 90
     4095
 91
        5
280
     0
281
     0
  0
CLASS
  1
MLEADERSTYLE
  2
AcDbMLeaderStyle
  3
ACDB_MLEADERSTYLE_CLASS
 90
     4095
 91
        5
280
     0
281
     0
  0
CLASS
  1
ACDBSECTIONVIEWSTYLE
  2
AcDbSectionViewStyle
  3
ObjectDBX Classes
 90
     1025
 91
        4
280
     0
281
     0
  0
CLASS
  1
ACDBDETAILVIEWSTYLE
  2
AcDbDetailViewStyle
  3
ObjectDBX Classes
 90
     1025
 91
        4
280
     0
281
     0
  0
CLASS
  1
SORTENTSTABLE
  2
AcDbSortentsTable
  3
ObjectDBX Classes
 90
        0
 91
        4
280
     0
281
     0
  0
CLASS
  1
DICTIONARYVAR
  2
AcDbDictionaryVar
  3
ObjectDBX Classes
 90
        0
 91
        5
280
     0
281
     0
  0
CLASS
  1
CELLSTYLEMAP
  2
AcDbCellStyleMap
  3
ObjectDBX Classes
 90
     1152
 91
        5
280
     0
281
     0
  0
CLASS
  1
SUN
  2
AcDbSun
  3
SCENEOE
 90
     1153
 91
        5
280
     0
281
     0
  0
CLASS
  1
RASTERVARIABLES
  2
AcDbRasterVariables
  3
ISM
 90
        0
 91
        5
280
     0
281
     0
  0
ENDSEC
  0
SECTION
  2
TABLES
  0
TABLE
  2
VPORT
  5
8
330
0
100
AcDbSymbolTable
 70
     1
  0
VPORT
  5
76
330
8
100
AcDbSymbolTableRecord
100
AcDbViewportTableRecord
  2
*Active
 70
     0
 10
0.0
 20
0.0
 11
1.0
 21
1.0
 12
382.1697912311701
 22
194.1743938557723
 13
0.0
 23
0.0
 14
1.0
 24
1.0
 15
0.0
 25
0.0
 16
0.005531831782263907
 26
0.1469000780451779
 36
0.9891358682749427
 17
-0.1892404838861074
 27
2.973589696673429
 37
28.922024924019
 40
543.4171918065342
 41
1.792325056433409
 42
50.0
 43
0.0
 44
0.0
 50
0.0
 51
177.9309007783139
 71
    16
 72
   100
 73
     1
 74
     1
 75
     0
 76
     0
 77
     0
 78
     0
281
     0
 65
     1
110
0.0
120
0.0
130
0.0
111
1.0
121
0.0
131
0.0
112
0.0
122
1.0
132
0.0
 79
     0
146
0.0
348
2F
 60
     3
 61
     5
292
     1
282
     1
141
0.0
142
0.0
 63
   256
361
647
1001
ACAD_NAV_VCDISPLAY
1070
     3
  0
ENDTAB
  0
TABLE
  2
LTYPE
  5
5
330
0
100
AcDbSymbolTable
 70
     1
  0
LTYPE
  5
5A
330
5
100
AcDbSymbolTableRecord
100
AcDbLinetypeTableRecord
  2
ByBlock
 70
     0
  3

 72
    65
 73
     0
 40
0.0
  0
LTYPE
  5
5B
330
5
100
AcDbSymbolTableRecord
100
AcDbLinetypeTableRecord
  2
ByLayer
 70
     0
  3

 72
    65
 73
     0
 40
0.0
  0
LTYPE
  5
5C
330
5
100
AcDbSymbolTableRecord
100
AcDbLinetypeTableRecord
  2
Continuous
 70
     0
  3
Solid line
 72
    65
 73
     0
 40
0.0
  0
ENDTAB
  0
TABLE
  2
LAYER
  5
2
102
{ACAD_XDICTIONARY
360
5A1
102
}
330
0
100
AcDbSymbolTable
 70
     4
  0
LAYER
  5
54
102
{ACAD_XDICTIONARY
360
598
102
}
330
2
100
AcDbSymbolTableRecord
100
AcDbLayerTableRecord
  2
0
 70
     0
 62
     7
  6
Continuous
370
    -3
390
F
347
21
348
0
  0
LAYER
  5
73
102
{ACAD_XDICTIONARY
360
59A
102
}
330
2
100
AcDbSymbolTableRecord
100
AcDbLayerTableRecord
  2
FRAME
 70
     0
 62
     7
  6
Continuous
370
    -3
390
F
347
21
348
0
  0
LAYER
  5
74
102
{ACAD_XDICTIONARY
360
59C
102
}
330
2
100
AcDbSymbolTableRecord
100
AcDbLayerTableRecord
  2
CORTES_INTERIORES
 70
     0
 62
     1
  6
Continuous
370
    -3
390
F
347
21
348
0
  0
LAYER
  5
78A
330
2
100
AcDbSymbolTableRecord
100
AcDbLayerTableRecord
  2
Defpoints
 70
     0
 62
     7
  6
Continuous
290
     0
370
    -3
390
F
347
21
348
0
  0
ENDTAB
  0
TABLE
  2
STYLE
  5
3
330
0
100
AcDbSymbolTable
 70
     2
  0
STYLE
  5
55
330
3
100
AcDbSymbolTableRecord
100
AcDbTextStyleTableRecord
  2
Standard
 70
     0
 40
0.0
 41
1.0
 50
0.0
 71
     0
 42
0.2
  3
txt
  4

  0
STYLE
  5
59
330
3
100
AcDbSymbolTableRecord
100
AcDbTextStyleTableRecord
  2
Annotative
 70
     0
 40
0.0
 41
1.0
 50
0.0
 71
     0
 42
0.2
  3
txt
  4

1001
AcadAnnotative
1000
AnnotativeData
1002
{
1070
     1
1070
     1
1002
}
  0
ENDTAB
  0
TABLE
  2
VIEW
  5
6
330
0
100
AcDbSymbolTable
 70
     0
  0
ENDTAB
  0
TABLE
  2
UCS
  5
7
330
0
100
AcDbSymbolTable
 70
     0
  0
ENDTAB
  0
TABLE
  2
APPID
  5
9
330
0
100
AcDbSymbolTable
 70
     5
  0
APPID
  5
56
330
9
100
AcDbSymbolTableRecord
100
AcDbRegAppTableRecord
  2
ACAD
 70
     0
  0
APPID
  5
5D
330
9
100
AcDbSymbolTableRecord
100
AcDbRegAppTableRecord
  2
AcadAnnotative
 70
     0
  0
APPID
  5
4D3
330
9
100
AcDbSymbolTableRecord
100
AcDbRegAppTableRecord
  2
ACAD_EXEMPT_FROM_CAD_STANDARDS
 70
     0
  0
APPID
  5
5AE
330
9
100
AcDbSymbolTableRecord
100
AcDbRegAppTableRecord
  2
ACAD_NAV_VCDISPLAY
 70
     0
  0
APPID
  5
63D
330
9
100
AcDbSymbolTableRecord
100
AcDbRegAppTableRecord
  2
ACAD_MLEADERVER
 70
     0
  0
ENDTAB
  0
TABLE
  2
DIMSTYLE
  5
A
330
0
100
AcDbSymbolTable
 70
     2
100
AcDbDimStyleTable
  0
DIMSTYLE
105
57
330
A
100
AcDbSymbolTableRecord
100
AcDbDimStyleTableRecord
  2
Standard
 70
     0
178
     0
340
55
  0
DIMSTYLE
105
58
330
A
100
AcDbSymbolTableRecord
100
AcDbDimStyleTableRecord
  2
Annotative
 70
     0
178
     0
340
55
1001
AcadAnnotative
1000
AnnotativeData
1002
{
1070
     1
1070
     1
1002
}
  0
ENDTAB
  0
TABLE
  2
BLOCK_RECORD
  5
1
330
0
100
AcDbSymbolTable
 70
     0
  0
BLOCK_RECORD
  5
6F
102
{ACAD_XDICTIONARY
360
2D1
102
}
330
1
100
AcDbSymbolTableRecord
100
AcDbBlockTableRecord
  2
*Model_Space
340
72
 70
     0
280
     1
281
     0
  0
BLOCK_RECORD
  5
6B
330
1
100
AcDbSymbolTableRecord
100
AcDbBlockTableRecord
  2
*Paper_Space
340
6E
 70
     0
280
     1
281
     0
  0
ENDTAB
  0
ENDSEC
  0
SECTION
  2
BLOCKS
  0
BLOCK
  5
70
330
6F
100
AcDbEntity
  8
0
100
AcDbBlockBegin
  2
*Model_Space
 70
     0
 10
0.0
 20
0.0
 30
0.0
  3
*Model_Space
  1
*Model_Space
  0
ENDBLK
  5
71
330
6F
100
AcDbEntity
  8
0
100
AcDbBlockEnd
  0
BLOCK
  5
6C
330
6B
100
AcDbEntity
 67
     1
  8
0
100
AcDbBlockBegin
  2
*Paper_Space
 70
     0
 10
0.0
 20
0.0
 30
0.0
  3
*Paper_Space
  1
*Paper_Space
  0
ENDBLK
  5
6D
330
6B
100
AcDbEntity
 67
     1
  8
0
100
AcDbBlockEnd
  0
ENDSEC
  0
SECTION
  2
ENTITIES
  0
LINE
  5
759
330
6F
100
AcDbEntity
  8
FRAME
100
AcDbLine
 10
440.9953501586887
 20
353.5873624282525
 30
0.0
 11
480.9953501586887
 21
353.5873624282525
 31
0.0
  0
LWPOLYLINE
  5
75A
330
6F
100
AcDbEntity
  8
FRAME
100
AcDbPolyline
 90
      106
 70
     0
 43
0.0
 10
417.6953501599116
 20
363.5873624271845
 10
417.6978966133927
 20
363.8180896229245
 10
417.7054678814807
 20
364.0415784306025
 10
417.7179618256537
 20
364.2579146809076
 10
417.7352763073936
 20
364.4671842045275
 10
417.7573091881816
 20
364.6694728321526
 10
417.7839583294987
 20
364.8648663944685
 10
417.8151215928236
 20
365.0534507221655
 10
417.8506968396387
 20
365.2353116459325
 10
417.8905819314236
 20
365.4105349964565
 10
417.9346747296597
 20
365.5792066044276
 10
417.9828730958286
 20
365.7414123005325
 10
418.0084799485996
 20
365.8201172537256
 10
418.0350748914096
 20
365.8972379154616
 10
418.0626451569406
 20
365.9727850145746
 10
418.0911779778837
 20
366.0467692799016
 10
418.1206605869186
 20
366.1192014402785
 10
418.1510802167317
 20
366.1900922245416
 10
418.1824241000086
 20
366.2594523615276
 10
418.2146794694347
 20
366.3272925800705
 10
418.2478335576947
 20
366.3936236090085
 10
418.2818735974727
 20
366.4584561771775
 10
418.3167868214557
 20
366.5218010134115
 10
418.3525604623276
 20
366.5836688465486
 10
418.3891817527737
 20
366.6440704054245
 10
418.4266379254786
 20
366.7030164188745
 10
418.4649162131286
 20
366.7605176157356
 10
418.5040038484076
 20
366.8165847248436
 10
418.5438880640016
 20
366.8712284750335
 10
418.5845560925957
 20
366.9244595951425
 10
418.6259951668736
 20
366.9762888140075
 10
418.6681925195217
 20
367.0267268604625
 10
418.7111353832236
 20
367.0757844633446
 10
418.7548109906677
 20
367.1234723514896
 10
418.7992065745357
 20
367.1698012537336
 10
418.8443093675146
 20
367.2147818989125
 10
418.8901066022877
 20
367.2584250158635
 10
418.9365855115427
 20
367.3007413334216
 10
418.9837333279617
 20
367.3417415804225
 10
419.0315372842317
 20
367.3814364857035
 10
419.0799846130376
 20
367.4198367780996
 10
419.1290625470637
 20
367.4569531864475
 10
419.1787583189966
 20
367.4927964395836
 10
419.2290591615197
 20
367.5273772663426
 10
419.2799523073186
 20
367.5607063955615
 10
419.3314249890786
 20
367.5927945560755
 10
419.3834644394856
 20
367.6236524767226
 10
419.4360578912236
 20
367.6532908863365
 10
419.4891925769776
 20
367.6817205137545
 10
419.5428557294326
 20
367.7089520878135
 10
419.5970345812757
 20
367.7349963373475
 10
419.6517163651886
 20
367.7598639911945
 10
419.7068883138596
 20
367.7835657781895
 10
419.7625376599717
 20
367.8061124271685
 10
419.8186516362107
 20
367.8275146669675
 10
419.8752174752626
 20
367.8477832264235
 10
419.9322224098107
 20
367.8669288343725
 10
419.9896536725407
 20
367.8849622196485
 10
420.0474984961377
 20
367.9018941110905
 10
420.1057441132887
 20
367.9177352375325
 10
420.1643777566767
 20
367.9324963278116
 10
420.2233866589866
 20
367.9461881107625
 10
420.2827580529037
 20
367.9588213152235
 10
420.3424791711146
 20
367.9704066700285
 10
420.4025372463016
 20
367.9809549040145
 10
420.4629195111527
 20
367.9904767460175
 10
420.5846055405846
 20
368.0064841694185
 10
420.7074351208876
 20
368.0185147709205
 10
420.8313061135457
 20
368.0266543812126
 10
420.9561163800366
 20
368.0309888309815
 10
421.0817637818416
 20
368.0316039509165
 10
421.2081461804437
 20
368.0285855717066
 10
421.3351614373207
 20
368.0220195240395
 10
421.4627074139556
 20
368.0119916386035
 10
421.5906819718276
 20
367.9985877460886
 10
421.7189829724176
 20
367.9818936771816
 10
421.8475082772067
 20
367.9619952625716
 10
421.9761557476756
 20
367.9389783329475
 10
422.1048232453056
 20
367.9129287189975
 10
422.2334086315766
 20
367.8839322514095
 10
422.3618097679687
 20
367.8520747608735
 10
422.4899245159646
 20
367.8174420780755
 10
422.6176507370426
 20
367.7801200337066
 10
422.7448862926856
 20
367.7401944584535
 10
422.8715290443736
 20
367.6977511830055
 10
422.9974768535856
 20
367.6528760380515
 10
423.1226275818057
 20
367.6056548542786
 10
423.2468790905116
 20
367.5561734623756
 10
423.3701292411856
 20
367.5045176930325
 10
423.4922758953076
 20
367.4507733769366
 10
423.7328501598197
 20
367.3373624272396
 10
423.9680715018836
 20
367.2164290809555
 10
424.1985564433006
 20
367.0876690944006
 10
424.4252082318576
 20
366.9505800460536
 10
424.6489301153466
 20
366.8046595143916
 10
424.8706253415576
 20
366.6494050778936
 10
425.0911971582786
 20
366.4843143150365
 10
425.3115488132996
 20
366.3088848043005
 10
425.5325835544116
 20
366.1226141241615
 10
425.7552046294036
 20
365.9249998530995
 10
425.9803152860657
 20
365.7155395695916
 10
426.2088187721866
 20
365.4937308521165
 10
426.4416183355577
 20
365.2590712791515
 10
426.9237186852067
 20
364.7491898806666
 10
427.4338423173306
 20
364.1818760019615
 10
433.3907874215927
 20
357.0934710234335
  0
LWPOLYLINE
  5
75B
330
6F
100
AcDbEntity
  8
FRAME
100
AcDbPolyline
 90
      105
 70
     0
 43
0.0
 10
504.2953501298557
 20
363.5873624171805
 10
504.2928036763706
 20
363.8180895871176
 10
504.2852324082806
 20
364.0415782141725
 10
504.2727384641046
 20
364.2579139742145
 10
504.2554239823626
 20
364.4671825431126
 10
504.2333911015726
 20
364.6694695967356
 10
504.2067419602556
 20
364.8648608109515
 10
504.1755786969306
 20
365.0534418616295
 10
504.1400034501156
 20
365.2352984246376
 10
504.1001183583317
 20
365.4105161758446
 10
504.0560255600967
 20
365.5791807911195
 10
504.0078271939307
 20
365.7413779463316
 10
503.9822203411616
 20
365.8200780001225
 10
503.9556253983536
 20
365.8971933173475
 10
503.9280551328227
 20
365.9727346074915
 10
503.8995223118847
 20
366.0467125800375
 10
503.8700397028526
 20
366.1191379444696
 10
503.8396200730417
 20
366.1900214102695
 10
503.8082761897687
 20
366.2593736869235
 10
503.7760208203466
 20
366.3272054839135
 10
503.7428667320906
 20
366.3935275107225
 10
503.7088266923166
 20
366.4583504768356
 10
503.6739134683387
 20
366.5216850917355
 10
503.6381398274716
 20
366.5835420649065
 10
503.6015185370306
 20
366.6439321058315
 10
503.5640623643317
 20
366.7028659239945
 10
503.5257840766876
 20
366.7603542288786
 10
503.4866964414147
 20
366.8164077299675
 10
503.4468122258277
 20
366.8710371367455
 10
503.4061441972406
 20
366.9242531586946
 10
503.3647051229716
 20
366.9760665053005
 10
503.3225077703316
 20
367.0264878860445
 10
503.2795649066377
 20
367.0755280104125
 10
503.2358892992036
 20
367.1231975878856
 10
503.1914937153447
 20
367.1695073279495
 10
503.1463909223767
 20
367.2144679400875
 10
503.1005936876136
 20
367.2580901337815
 10
503.0541147783706
 20
367.3003846185176
 10
503.0069669619627
 20
367.3413621037765
 10
502.9591630057046
 20
367.3810332990445
 10
502.9107156769117
 20
367.4194089138035
 10
502.8616377428976
 20
367.4564996575375
 10
502.8119419709797
 20
367.4923162397296
 10
502.7616411284696
 20
367.5268693698646
 10
502.7107479826857
 20
367.5601697574256
 10
502.6592753009406
 20
367.5922281118956
 10
502.6072358505496
 20
367.6230551427585
 10
502.5546423988287
 20
367.6526615594985
 10
502.5015077130917
 20
367.6810580715975
 10
502.4478445606537
 20
367.7082553885415
 10
502.3936657088296
 20
367.7342642198115
 10
502.3389839249346
 20
367.7590952748935
 10
502.2838119762837
 20
367.7827592632685
 10
502.2281626301917
 20
367.8052668944225
 10
502.1720486539737
 20
367.8266288778385
 10
502.1154828149436
 20
367.8468559229985
 10
502.0584778804176
 20
367.8659587393885
 10
502.0010466177096
 20
367.8839480364895
 10
501.9432017941356
 20
367.9008345237876
 10
501.8849561770096
 20
367.9166289107645
 10
501.8263225336476
 20
367.9313419069045
 10
501.7673136313626
 20
367.9449842216916
 10
501.7079422374716
 20
367.9575665646086
 10
501.6482211192886
 20
367.9690996451395
 10
501.5881630441277
 20
367.9795941727675
 10
501.5277807793057
 20
367.9890608569765
 10
501.4060947499336
 20
368.0049535330716
 10
501.2832651696926
 20
368.0168633492946
 10
501.1593941771016
 20
368.0248759815115
 10
501.0345839106797
 20
368.0290771055935
 10
500.9089365089467
 20
368.0295523974075
 10
500.7825541104216
 20
368.0263875328235
 10
500.6555388536236
 20
368.0196681877095
 10
500.5279928770726
 20
368.0094800379335
 10
500.4000183192877
 20
367.9959087593655
 10
500.2717173187876
 20
367.9790400278725
 10
500.1431920140926
 20
367.9589595193245
 10
500.0145445437226
 20
367.9357529095895
 10
499.8858770461957
 20
367.9095058745365
 10
499.7572916600307
 20
367.8803040900335
 10
499.6288905237486
 20
367.8482332319505
 10
499.5007757758686
 20
367.8133789761546
 10
499.3730495549087
 20
367.7758269985145
 10
499.2458139993896
 20
367.7356629749005
 10
499.1191712478306
 20
367.6929725811796
 10
498.9932234387496
 20
367.6478414932205
 10
498.8680727106677
 20
367.6003553868925
 10
498.7438212021036
 20
367.5505999380636
 10
498.6205710515767
 20
367.4986608226035
 10
498.4984243976056
 20
367.4446237163805
 10
498.2578501334117
 20
367.3305982351176
 10
498.0226283829427
 20
367.2090118971455
 10
497.7921405806857
 20
367.0795650890116
 10
497.5654810263977
 20
366.9417611931806
 10
497.3417440198316
 20
366.7951035921185
 10
497.1200238607427
 20
366.6390956682945
 10
496.8994148488856
 20
366.4732408041735
 10
496.6790112840147
 20
366.2970423822215
 10
496.4579074658866
 20
366.1100037849055
 10
496.2351976942537
 20
365.9116283946926
 10
496.0099762688717
 20
365.7014195940475
 10
495.7813374894956
 20
365.4788807654385
 10
495.5483756558787
 20
365.2435152913315
 10
495.0658600249457
 20
364.7323179364886
 10
488.5865192154656
 20
357.0778192529285
  0
ARC
  5
75C
330
6F
100
AcDbEntity
  8
FRAME
100
AcDbCircle
 10
440.9953501586887
 20
363.5873624282525
 30
0.0
 40
10.0
100
AcDbArc
 50
220.4955615032136
 51
270.0
  0
ARC
  5
75D
330
6F
100
AcDbEntity
  8
FRAME
100
AcDbCircle
 10
480.9953501586887
 20
363.5873624282525
 30
0.0
 40
10.0
100
AcDbArc
 50
270.0
 51
319.3864079752072
  0
LINE
  5
75E
330
6F
100
AcDbEntity
  8
FRAME
100
AcDbLine
 10
501.2953500806676
 20
275.7931298286326
 30
0.0
 11
469.8590480145447
 21
275.7931296681516
 31
0.0
  0
ARC
  5
75F
330
6F
100
AcDbEntity
  8
FRAME
100
AcDbCircle
 10
420.6953501691517
 20
278.7931294171725
 30
0.0
 40
3.0
100
AcDbArc
 50
180.0000000021408
 51
270.0000002924924
  0
ARC
  5
761
330
6F
100
AcDbEntity
  8
FRAME
100
AcDbCircle
 10
501.2953500653526
 20
278.7931298286326
 30
0.0
 40
3.0
100
AcDbArc
 50
270.0000002924924
 51
359.9999999523018
  0
LINE
  5
762
330
6F
100
AcDbEntity
  8
FRAME
100
AcDbLine
 10
420.6953501691517
 20
275.7931294171725
 30
0.0
 11
445.0558297602656
 21
275.7931294171725
 31
0.0
  0
LINE
  5
767
330
6F
100
AcDbEntity
  8
FRAME
100
AcDbLine
 10
504.2953500653526
 20
278.7931298261345
 30
0.0
 11
504.2953501298557
 21
363.5873624171805
 31
0.0
  0
LINE
  5
768
330
6F
100
AcDbEntity
  8
FRAME
100
AcDbLine
 10
417.6966233866526
 20
363.7027260250545
 30
0.0
 11
417.6953501691517
 21
278.7931294170605
 31
0.0
  0
CIRCLE
  5
76A
330
6F
100
AcDbEntity
  8
CORTES_INTERIORES
100
AcDbCircle
 10
421.6953501764556
 20
283.1328492578356
 30
0.0
 40
1.5
  0
CIRCLE
  5
76B
330
6F
100
AcDbEntity
  8
CORTES_INTERIORES
100
AcDbCircle
 10
500.2953501764557
 20
283.1328492578356
 30
0.0
 40
1.5
  0
LINE
  5
771
330
6F
100
AcDbEntity
  8
CORTES_INTERIORES
100
AcDbLine
 10
421.5708501750316
 20
338.8699023938482
 30
0.0
 11
436.570816017419
 21
338.8699023826722
 31
0.0
  0
LINE
  5
772
330
6F
100
AcDbEntity
  8
CORTES_INTERIORES
100
AcDbLine
 10
421.5708501750316
 20
335.8699023938482
 30
0.0
 11
421.5708501750316
 21
338.8699023938482
 31
0.0
  0
CIRCLE
  5
779
330
6F
100
AcDbEntity
  8
CORTES_INTERIORES
100
AcDbCircle
 10
421.6953501617696
 20
363.3688039485565
 30
0.0
 40
1.5
  0
CIRCLE
  5
77A
330
6F
100
AcDbEntity
  8
CORTES_INTERIORES
100
AcDbCircle
 10
500.2953501395316
 20
363.3436061115696
 30
0.0
 40
1.5
  0
LINE
  5
789
330
6F
100
AcDbEntity
  8
0
  6
Continuous
100
AcDbLine
 10
445.0558297602656
 20
275.7931294171725
 30
0.0
 11
469.8590480145447
 21
275.7931296681516
 31
0.0
  0
CIRCLE
  5
82A
330
6F
100
AcDbEntity
  8
CORTES_INTERIORES
  6
Continuous
100
AcDbCircle
 10
438.2131611552807
 20
299.0665805216873
 30
0.0
 40
1.5
  0
CIRCLE
  5
82B
330
6F
100
AcDbEntity
  8
CORTES_INTERIORES
  6
Continuous
100
AcDbCircle
 10
483.2131611552807
 20
299.0665805216873
 30
0.0
 40
1.5
  0
CIRCLE
  5
82C
330
6F
100
AcDbEntity
  8
CORTES_INTERIORES
  6
Continuous
100
AcDbCircle
 10
438.2131611552807
 20
344.0665805216873
 30
0.0
 40
1.5
  0
CIRCLE
  5
82D
330
6F
100
AcDbEntity
  8
CORTES_INTERIORES
  6
Continuous
100
AcDbCircle
 10
483.2131611552807
 20
344.0665805216873
 30
0.0
 40
1.5
  0
LINE
  5
88F
330
6F
100
AcDbEntity
  8
CORTES_INTERIORES
100
AcDbLine
 10
421.5787375203383
 20
335.8527163583237
 30
0.0
 11
436.5787033627257
 21
335.8527163471476
 31
0.0
  0
LINE
  5
890
330
6F
100
AcDbEntity
  8
CORTES_INTERIORES
100
AcDbLine
 10
421.5708501750316
 20
335.8538537498526
 30
0.0
 11
421.5708501750316
 21
338.8538537498526
 31
0.0
  0
LINE
  5
8BD
330
6F
100
AcDbEntity
  8
CORTES_INTERIORES
100
AcDbLine
 10
436.5787033627257
 20
335.8537505394644
 30
0.0
 11
436.5787033627257
 21
338.8537505394644
 31
0.0
  0
LINE
  5
8EE
330
6F
100
AcDbEntity
  8
CORTES_INTERIORES
100
AcDbLine
 10
436.6086353104563
 20
304.4579172636058
 30
0.0
 11
436.6086353104563
 21
307.4579172636058
 31
0.0
  0
LINE
  5
8EF
330
6F
100
AcDbEntity
  8
CORTES_INTERIORES
100
AcDbLine
 10
421.6007821227621
 20
307.4740691179895
 30
0.0
 11
436.6007479651495
 21
307.4740691068135
 31
0.0
  0
LINE
  5
8F0
330
6F
100
AcDbEntity
  8
CORTES_INTERIORES
100
AcDbLine
 10
421.6007821227621
 20
304.4740691179895
 30
0.0
 11
421.6007821227621
 21
307.4740691179895
 31
0.0
  0
LINE
  5
8F1
330
6F
100
AcDbEntity
  8
CORTES_INTERIORES
100
AcDbLine
 10
421.6086694680689
 20
304.456883082465
 30
0.0
 11
436.6086353104563
 21
304.456883071289
 31
0.0
  0
LINE
  5
8F2
330
6F
100
AcDbEntity
  8
CORTES_INTERIORES
100
AcDbLine
 10
421.6007821227621
 20
304.458020473994
 30
0.0
 11
421.6007821227621
 21
307.458020473994
 31
0.0
  0
LINE
  5
9A7
330
6F
100
AcDbEntity
  8
CORTES_INTERIORES
100
AcDbLine
 10
485.5336806835576
 20
339.753923957086
 30
0.0
 11
500.533646525945
 21
339.7539239459099
 31
0.0
  0
LINE
  5
9A8
330
6F
100
AcDbEntity
  8
CORTES_INTERIORES
100
AcDbLine
 10
485.5336806835576
 20
336.753923957086
 30
0.0
 11
485.5336806835576
 21
339.753923957086
 31
0.0
  0
LINE
  5
9A9
330
6F
100
AcDbEntity
  8
CORTES_INTERIORES
100
AcDbLine
 10
485.5415680288643
 20
336.7367379215615
 30
0.0
 11
500.5415338712517
 21
336.7367379103854
 31
0.0
  0
LINE
  5
9AA
330
6F
100
AcDbEntity
  8
CORTES_INTERIORES
100
AcDbLine
 10
485.5336806835576
 20
336.7378753130904
 30
0.0
 11
485.5336806835576
 21
339.7378753130904
 31
0.0
  0
LINE
  5
9AB
330
6F
100
AcDbEntity
  8
CORTES_INTERIORES
100
AcDbLine
 10
500.5415338712517
 20
336.7377721027023
 30
0.0
 11
500.5415338712517
 21
339.7377721027023
 31
0.0
  0
LINE
  5
9AC
330
6F
100
AcDbEntity
  8
CORTES_INTERIORES
100
AcDbLine
 10
500.5714658189822
 20
305.3419388268436
 30
0.0
 11
500.5714658189822
 21
308.3419388268436
 31
0.0
  0
LINE
  5
9AD
330
6F
100
AcDbEntity
  8
CORTES_INTERIORES
100
AcDbLine
 10
485.563612631288
 20
308.3580906812274
 30
0.0
 11
500.5635784736754
 21
308.3580906700513
 31
0.0
  0
LINE
  5
9AE
330
6F
100
AcDbEntity
  8
CORTES_INTERIORES
100
AcDbLine
 10
485.563612631288
 20
305.3580906812274
 30
0.0
 11
485.563612631288
 21
308.3580906812274
 31
0.0
  0
LINE
  5
9AF
330
6F
100
AcDbEntity
  8
CORTES_INTERIORES
100
AcDbLine
 10
485.5714999765949
 20
305.3409046457028
 30
0.0
 11
500.5714658189822
 21
305.3409046345268
 31
0.0
  0
LINE
  5
9B0
330
6F
100
AcDbEntity
  8
CORTES_INTERIORES
100
AcDbLine
 10
485.563612631288
 20
305.3420420372317
 30
0.0
 11
485.563612631288
 21
308.3420420372317
 31
0.0
  0
LWPOLYLINE
  5
A32
330
6F
100
AcDbEntity
  8
0
  6
Continuous
100
AcDbPolyline
 90
        4
 70
     1
 43
0.0
 10
128.7778846026942
 20
-6.366291711987628
 10
128.7778846026942
 20
377.6337082880124
 10
512.7778846026943
 20
377.6337082880124
 10
512.7778846026943
 20
-6.366291711987628
  0
LINE
  5
D8F
330
6F
100
AcDbEntity
  8
FRAME
100
AcDbLine
 10
427.8732170053164
 20
132.3285065988255
 30
0.0
 11
427.8656150649248
 21
146.0796869118075
 31
0.0
  0
ARC
  5
D90
330
6F
100
AcDbEntity
  8
FRAME
100
AcDbCircle
 10
447.8656120088157
 20
146.0907433288671
 30
0.0
 40
20.0
100
AcDbArc
 50
140.4115873876089
 51
180.031674303316
  0
LINE
  5
D91
330
6F
100
AcDbEntity
  8
FRAME
100
AcDbLine
 10
432.4527692405676
 20
158.8361063210014
 30
0.0
 11
493.3612627203382
 21
232.4921515692938
 31
0.0
  0
LINE
  5
D92
330
6F
100
AcDbEntity
  8
FRAME
100
AcDbLine
 10
477.8112228511144
 20
251.9584842967331
 30
0.0
 11
441.3120573234265
 21
229.1127644703126
 31
0.0
  0
ARC
  5
D93
330
6F
100
AcDbEntity
  8
FRAME
100
AcDbCircle
 10
438.6592457711994
 20
233.3509941559679
 30
0.0
 40
5.0
100
AcDbArc
 50
274.2229923822886
 51
302.0434557549923
  0
LINE
  5
D94
330
6F
100
AcDbEntity
  8
FRAME
100
AcDbLine
 10
439.0274378027635
 20
228.3645691211466
 30
0.0
 11
438.8255826985272
 21
228.3496643666599
 31
0.0
  0
LINE
  5
D95
330
6F
100
AcDbEntity
  8
FRAME
100
AcDbLine
 10
438.8255826985272
 20
228.3496643666599
 30
0.0
 11
437.6083151884981
 21
228.2292483379569
 31
0.0
  0
LINE
  5
D96
330
6F
100
AcDbEntity
  8
FRAME
100
AcDbLine
 10
437.6083151884981
 20
228.2292483379569
 30
0.0
 11
436.4673620299792
 21
228.0854828835249
 31
0.0
  0
LINE
  5
D97
330
6F
100
AcDbEntity
  8
FRAME
100
AcDbLine
 10
436.4673620299792
 20
228.0854828835249
 30
0.0
 11
435.3984112401143
 21
227.9195879097619
 31
0.0
  0
LINE
  5
D98
330
6F
100
AcDbEntity
  8
FRAME
100
AcDbLine
 10
435.3984112401143
 20
227.9195879097619
 30
0.0
 11
434.3972120028783
 21
227.7327832997489
 31
0.0
  0
LINE
  5
D99
330
6F
100
AcDbEntity
  8
FRAME
100
AcDbLine
 10
434.3972120028783
 20
227.7327832997489
 30
0.0
 11
433.4595898648121
 21
227.5263013685299
 31
0.0
  0
LINE
  5
D9A
330
6F
100
AcDbEntity
  8
FRAME
100
AcDbLine
 10
433.4595898648121
 20
227.5263013685299
 30
0.0
 11
432.5857584515451
 21
227.3025047074579
 31
0.0
  0
LINE
  5
D9B
330
6F
100
AcDbEntity
  8
FRAME
100
AcDbLine
 10
432.5857584515451
 20
227.3025047074579
 30
0.0
 11
432.1634971221553
 21
227.1823425036779
 31
0.0
  0
LINE
  5
D9C
330
6F
100
AcDbEntity
  8
FRAME
100
AcDbLine
 10
432.1634971221553
 20
227.1823425036779
 30
0.0
 11
431.7588601152974
 21
227.0592795514419
 31
0.0
  0
LINE
  5
D9D
330
6F
100
AcDbEntity
  8
FRAME
100
AcDbLine
 10
431.7588601152974
 20
227.0592795514419
 30
0.0
 11
431.3671267503772
 21
226.9322856683279
 31
0.0
  0
LINE
  5
D9E
330
6F
100
AcDbEntity
  8
FRAME
100
AcDbLine
 10
431.3671267503772
 20
226.9322856683279
 30
0.0
 11
430.9878218413781
 21
226.8015433388929
 31
0.0
  0
LINE
  5
D9F
330
6F
100
AcDbEntity
  8
FRAME
100
AcDbLine
 10
430.9878218413781
 20
226.8015433388929
 30
0.0
 11
430.6204761290202
 21
226.6672421102059
 31
0.0
  0
LINE
  5
DA0
330
6F
100
AcDbEntity
  8
FRAME
100
AcDbLine
 10
430.6204761290202
 20
226.6672421102059
 30
0.0
 11
430.2646256734414
 21
226.5295792111409
 31
0.0
  0
LINE
  5
DA1
330
6F
100
AcDbEntity
  8
FRAME
100
AcDbLine
 10
430.2646256734414
 20
226.5295792111409
 30
0.0
 11
429.9198110643023
 21
226.3887600251049
 31
0.0
  0
LINE
  5
DA2
330
6F
100
AcDbEntity
  8
FRAME
100
AcDbLine
 10
429.9198110643023
 20
226.3887600251049
 30
0.0
 11
429.5855764636852
 21
226.2449983740659
 31
0.0
  0
LINE
  5
DA3
330
6F
100
AcDbEntity
  8
FRAME
100
AcDbLine
 10
429.5855764636852
 20
226.2449983740659
 30
0.0
 11
429.2614685086031
 21
226.0985165759409
 31
0.0
  0
LINE
  5
DA4
330
6F
100
AcDbEntity
  8
FRAME
100
AcDbLine
 10
429.2614685086031
 20
226.0985165759409
 30
0.0
 11
428.9432201749322
 21
225.9477378160079
 31
0.0
  0
LINE
  5
DA5
330
6F
100
AcDbEntity
  8
FRAME
100
AcDbLine
 10
428.9432201749322
 20
225.9477378160079
 30
0.0
 11
428.3457021969683
 21
225.6453774189029
 31
0.0
  0
LINE
  5
DA6
330
6F
100
AcDbEntity
  8
FRAME
100
AcDbLine
 10
428.3457021969683
 20
225.6453774189029
 30
0.0
 11
427.7773798119664
 21
225.3339547432799
 31
0.0
  0
LINE
  5
DA7
330
6F
100
AcDbEntity
  8
FRAME
100
AcDbLine
 10
427.7773798119664
 20
225.3339547432799
 30
0.0
 11
427.2386087738643
 21
225.0175792018239
 31
0.0
  0
LINE
  5
DA8
330
6F
100
AcDbEntity
  8
FRAME
100
AcDbLine
 10
427.2386087738643
 20
225.0175792018239
 30
0.0
 11
426.7192290593933
 21
224.6943632419649
 31
0.0
  0
LINE
  5
DA9
330
6F
100
AcDbEntity
  8
FRAME
100
AcDbLine
 10
426.7192290593933
 20
224.6943632419649
 30
0.0
 11
423.5106686005453
 21
222.5339151373449
 31
0.0
  0
LINE
  5
DAA
330
6F
100
AcDbEntity
  8
FRAME
100
AcDbLine
 10
423.5106686005453
 20
222.5339151373449
 30
0.0
 11
423.0630892994533
 21
222.2573402861219
 31
0.0
  0
LINE
  5
DAB
330
6F
100
AcDbEntity
  8
FRAME
100
AcDbLine
 10
423.0630892994533
 20
222.2573402861219
 30
0.0
 11
422.5956168184072
 21
221.9860168952619
 31
0.0
  0
LINE
  5
DAC
330
6F
100
AcDbEntity
  8
FRAME
100
AcDbLine
 10
422.5956168184072
 20
221.9860168952619
 30
0.0
 11
422.1063807335021
 21
221.7227262961469
 31
0.0
  0
LINE
  5
DAD
330
6F
100
AcDbEntity
  8
FRAME
100
AcDbLine
 10
422.1063807335021
 20
221.7227262961469
 30
0.0
 11
421.8594992361731
 21
221.5981591867639
 31
0.0
  0
LINE
  5
DAE
330
6F
100
AcDbEntity
  8
FRAME
100
AcDbLine
 10
421.8594992361731
 20
221.5981591867639
 30
0.0
 11
421.6025371067793
 21
221.4744715387079
 31
0.0
  0
LINE
  5
DAF
330
6F
100
AcDbEntity
  8
FRAME
100
AcDbLine
 10
421.6025371067793
 20
221.4744715387079
 30
0.0
 11
421.3386364268293
 21
221.3536576614119
 31
0.0
  0
LINE
  5
DB0
330
6F
100
AcDbEntity
  8
FRAME
100
AcDbLine
 10
421.3386364268293
 20
221.3536576614119
 30
0.0
 11
421.0671488458662
 21
221.2358090884819
 31
0.0
  0
LINE
  5
DB1
330
6F
100
AcDbEntity
  8
FRAME
100
AcDbLine
 10
421.0671488458662
 20
221.2358090884819
 30
0.0
 11
420.7874239106583
 21
221.1210264372269
 31
0.0
  0
LINE
  5
DB2
330
6F
100
AcDbEntity
  8
FRAME
100
AcDbLine
 10
420.7874239106583
 20
221.1210264372269
 30
0.0
 11
420.4987068046393
 21
221.0093800731849
 31
0.0
  0
LINE
  5
DB3
330
6F
100
AcDbEntity
  8
FRAME
100
AcDbLine
 10
420.4987068046393
 20
221.0093800731849
 30
0.0
 11
420.1999721121341
 21
220.9007838242299
 31
0.0
  0
LINE
  5
DB4
330
6F
100
AcDbEntity
  8
FRAME
100
AcDbLine
 10
420.1999721121341
 20
220.9007838242299
 30
0.0
 11
419.8948169585991
 21
220.7964793623339
 31
0.0
  0
LINE
  5
DB5
330
6F
100
AcDbEntity
  8
FRAME
100
AcDbLine
 10
419.8948169585991
 20
220.7964793623339
 30
0.0
 11
419.2408124915004
 21
220.5923345888839
 31
0.0
  0
LINE
  5
DB6
330
6F
100
AcDbEntity
  8
FRAME
100
AcDbLine
 10
419.2408124915004
 20
220.5923345888839
 30
0.0
 11
418.5513463871292
 21
220.4012580252149
 31
0.0
  0
LINE
  5
DB7
330
6F
100
AcDbEntity
  8
FRAME
100
AcDbLine
 10
418.5513463871292
 20
220.4012580252149
 30
0.0
 11
417.8234699307981
 21
220.2218169417159
 31
0.0
  0
LINE
  5
DB8
330
6F
100
AcDbEntity
  8
FRAME
100
AcDbLine
 10
417.8234699307981
 20
220.2218169417159
 30
0.0
 11
417.0587516274312
 21
220.0538996032959
 31
0.0
  0
LINE
  5
DB9
330
6F
100
AcDbEntity
  8
FRAME
100
AcDbLine
 10
417.0587516274312
 20
220.0538996032959
 30
0.0
 11
416.2587197299052
 21
219.8973166944449
 31
0.0
  0
LINE
  5
DBA
330
6F
100
AcDbEntity
  8
FRAME
100
AcDbLine
 10
416.2587197299052
 20
219.8973166944449
 30
0.0
 11
415.4248642524384
 21
219.7518195530899
 31
0.0
  0
LINE
  5
DBB
330
6F
100
AcDbEntity
  8
FRAME
100
AcDbLine
 10
415.4248642524384
 20
219.7518195530899
 30
0.0
 11
414.5624145356493
 21
219.6177009766499
 31
0.0
  0
LINE
  5
DBC
330
6F
100
AcDbEntity
  8
FRAME
100
AcDbLine
 10
414.5624145356493
 20
219.6177009766499
 30
0.0
 11
412.7341705683913
 21
219.3787371306229
 31
0.0
  0
LINE
  5
DBD
330
6F
100
AcDbEntity
  8
FRAME
100
AcDbLine
 10
412.7341705683913
 20
219.3787371306229
 30
0.0
 11
410.7976808602542
 21
219.1792626202299
 31
0.0
  0
LINE
  5
DBE
330
6F
100
AcDbEntity
  8
FRAME
100
AcDbLine
 10
410.7976808602542
 20
219.1792626202299
 30
0.0
 11
408.7592113950753
 21
219.0155002017329
 31
0.0
  0
LINE
  5
DBF
330
6F
100
AcDbEntity
  8
FRAME
100
AcDbLine
 10
408.7592113950753
 20
219.0155002017329
 30
0.0
 11
406.6324637975703
 21
218.8842916454429
 31
0.0
  0
LINE
  5
DC0
330
6F
100
AcDbEntity
  8
FRAME
100
AcDbLine
 10
406.6324637975703
 20
218.8842916454429
 30
0.0
 11
402.1405235898072
 21
218.7046787624949
 31
0.0
  0
LINE
  5
DC1
330
6F
100
AcDbEntity
  8
FRAME
100
AcDbLine
 10
402.1405235898072
 20
218.7046787624949
 30
0.0
 11
387.851106839427
 21
218.5760740117408
 31
0.0
  0
LINE
  5
DF0
330
6F
100
AcDbEntity
  8
CORTES_INTERIORES
100
AcDbLine
 10
493.1794745260648
 20
253.2985388524234
 30
0.0
 11
493.8471110952127
 21
252.6226975903384
 31
0.0
  0
LINE
  5
DF1
330
6F
100
AcDbEntity
  8
CORTES_INTERIORES
100
AcDbLine
 10
493.8471110952127
 20
252.6226975903384
 30
0.0
 11
494.5229523572979
 21
253.2903341594864
 31
0.0
  0
LINE
  5
DF2
330
6F
100
AcDbEntity
  8
CORTES_INTERIORES
100
AcDbLine
 10
494.5229523572979
 20
253.2903341594864
 30
0.0
 11
498.1071065706177
 21
249.6621336998713
 31
0.0
  0
LINE
  5
DF3
330
6F
100
AcDbEntity
  8
CORTES_INTERIORES
100
AcDbLine
 10
498.1071065706177
 20
249.6621336998713
 30
0.0
 11
497.4312653085316
 21
248.9944971307244
 31
0.0
  0
LINE
  5
DF4
330
6F
100
AcDbEntity
  8
CORTES_INTERIORES
100
AcDbLine
 10
497.4312653085316
 20
248.9944971307244
 30
0.0
 11
498.0989018776799
 21
248.3186558686384
 31
0.0
  0
LINE
  5
DF5
330
6F
100
AcDbEntity
  8
CORTES_INTERIORES
100
AcDbLine
 10
498.0989018776799
 20
248.3186558686384
 30
0.0
 11
494.4707014180657
 21
244.7345016553194
 31
0.0
  0
LINE
  5
DF6
330
6F
100
AcDbEntity
  8
CORTES_INTERIORES
100
AcDbLine
 10
494.4707014180657
 20
244.7345016553194
 30
0.0
 11
493.8030648489176
 21
245.4103429174044
 31
0.0
  0
LINE
  5
DF7
330
6F
100
AcDbEntity
  8
CORTES_INTERIORES
100
AcDbLine
 10
493.8030648489176
 20
245.4103429174044
 30
0.0
 11
493.1272235868327
 21
244.7427063482574
 31
0.0
  0
LINE
  5
DF8
330
6F
100
AcDbEntity
  8
CORTES_INTERIORES
100
AcDbLine
 10
493.1272235868327
 20
244.7427063482574
 30
0.0
 11
489.5430693735137
 21
248.3709068078714
 31
0.0
  0
LINE
  5
DF9
330
6F
100
AcDbEntity
  8
CORTES_INTERIORES
100
AcDbLine
 10
489.5430693735137
 20
248.3709068078714
 30
0.0
 11
490.2189106355987
 21
249.0385433770194
 31
0.0
  0
LINE
  5
DFA
330
6F
100
AcDbEntity
  8
CORTES_INTERIORES
100
AcDbLine
 10
490.2189106355987
 20
249.0385433770194
 30
0.0
 11
489.5512740664507
 21
249.7143846391044
 31
0.0
  0
LINE
  5
DFB
330
6F
100
AcDbEntity
  8
CORTES_INTERIORES
100
AcDbLine
 10
489.5512740664507
 20
249.7143846391044
 30
0.0
 11
493.1794745260648
 21
253.2985388524234
 31
0.0
  0
CIRCLE
  5
DFD
330
6F
100
AcDbEntity
  8
CORTES_INTERIORES
100
AcDbCircle
 10
439.9106343436941
 20
71.54851864744
 30
0.0
 40
1.5
  0
CIRCLE
  5
E00
330
6F
100
AcDbEntity
  8
CORTES_INTERIORES
100
AcDbCircle
 10
426.8795601579742
 20
93.57749985126492
 30
0.0
 40
1.5
  0
CIRCLE
  5
E03
330
6F
100
AcDbEntity
  8
CORTES_INTERIORES
100
AcDbCircle
 10
426.8795601579742
 20
173.8134545419859
 30
0.0
 40
1.5
  0
CIRCLE
  5
E05
330
6F
100
AcDbEntity
  8
CORTES_INTERIORES
100
AcDbCircle
 10
427.5487054733284
 20
186.1895485931579
 30
0.0
 40
1.5
  0
CIRCLE
  5
E06
330
6F
100
AcDbEntity
  8
CORTES_INTERIORES
100
AcDbCircle
 10
439.9668197401601
 20
212.1294149993759
 30
0.0
 40
1.5
  0
CIRCLE
  5
E08
330
6F
100
AcDbEntity
  8
CORTES_INTERIORES
100
AcDbCircle
 10
501.8250879720653
 20
257.0165202538719
 30
0.0
 40
1.0
  0
CIRCLE
  5
E09
330
6F
100
AcDbEntity
  8
CORTES_INTERIORES
100
AcDbCircle
 10
501.8250879720653
 20
241.0165202538719
 30
0.0
 40
1.0
  0
CIRCLE
  5
E0A
330
6F
100
AcDbEntity
  8
CORTES_INTERIORES
100
AcDbCircle
 10
485.8250879720653
 20
241.0165202538719
 30
0.0
 40
1.0
  0
CIRCLE
  5
E0B
330
6F
100
AcDbEntity
  8
CORTES_INTERIORES
100
AcDbCircle
 10
485.8250879720653
 20
257.0165202538719
 30
0.0
 40
1.0
  0
ARC
  5
E0D
330
6F
100
AcDbEntity
  8
FRAME
100
AcDbCircle
 10
404.8295601570584
 20
92.5646225403558
 30
0.0
 40
10.0000000000001
100
AcDbArc
 50
270.0
 51
90.0
  0
LINE
  5
E0E
330
6F
100
AcDbEntity
  8
FRAME
100
AcDbLine
 10
404.8295601570584
 20
102.5646225403559
 30
0.0
 11
404.8295601570584
 21
102.5631402487889
 31
0.0
  0
ARC
  5
E0F
330
6F
100
AcDbEntity
  8
0
  6
Continuous
100
AcDbCircle
 10
493.8250879720653
 20
249.0165202538719
 30
0.0
 40
15.0
100
AcDbArc
 50
279.7569628532359
 51
158.9606100674803
  0
ARC
  5
E10
330
6F
100
AcDbEntity
  8
0
  6
Continuous
100
AcDbCircle
 10
497.2144734124003
 20
229.3058108212603
 30
0.0
 40
5.0
100
AcDbArc
 50
99.75696285323943
 51
140.4115873876092
  0
ARC
  5
E11
330
6F
100
AcDbEntity
  8
0
  6
Continuous
100
AcDbCircle
 10
475.158411298887
 20
256.1967139823886
 30
0.0
 40
5.0
100
AcDbArc
 50
302.0434557549953
 51
338.9606100674805
  0
LINE
  5
E25
330
6F
100
AcDbEntity
  8
FRAME
100
AcDbLine
 10
477.943460200332
 20
12.75381555490605
 30
0.0
 11
441.4190578049464
 21
35.55916642405106
 31
0.0
  0
LINE
  5
E26
330
6F
100
AcDbEntity
  8
CORTES_INTERIORES
100
AcDbLine
 10
493.3131841018507
 20
11.43075359568957
 30
0.0
 11
493.9800730247529
 21
12.10733261140814
 31
0.0
  0
LINE
  5
E27
330
6F
100
AcDbEntity
  8
CORTES_INTERIORES
100
AcDbLine
 10
493.9800730247529
 20
12.10733261140814
 30
0.0
 11
494.6566520404714
 21
11.44044368850592
 31
0.0
  0
LINE
  5
E28
330
6F
100
AcDbEntity
  8
CORTES_INTERIORES
100
AcDbLine
 10
494.6566520404714
 20
11.44044368850592
 30
0.0
 11
498.2367925739455
 21
15.07260472025905
 31
0.0
  0
LINE
  5
E29
330
6F
100
AcDbEntity
  8
CORTES_INTERIORES
100
AcDbLine
 10
498.2367925739455
 20
15.07260472025905
 30
0.0
 11
497.5602135582259
 21
15.73949364316024
 31
0.0
  0
LINE
  5
E2A
330
6F
100
AcDbEntity
  8
CORTES_INTERIORES
100
AcDbLine
 10
497.5602135582259
 20
15.73949364316024
 30
0.0
 11
498.2271024811281
 21
16.41607265887978
 31
0.0
  0
LINE
  5
E2B
330
6F
100
AcDbEntity
  8
CORTES_INTERIORES
100
AcDbLine
 10
498.2271024811281
 20
16.41607265887978
 30
0.0
 11
494.5949414493761
 21
19.99621319235291
 31
0.0
  0
LINE
  5
E2C
330
6F
100
AcDbEntity
  8
CORTES_INTERIORES
100
AcDbLine
 10
494.5949414493761
 20
19.99621319235291
 30
0.0
 11
493.9280525264738
 21
19.31963417663434
 31
0.0
  0
LINE
  5
E2D
330
6F
100
AcDbEntity
  8
CORTES_INTERIORES
100
AcDbLine
 10
493.9280525264738
 20
19.31963417663434
 30
0.0
 11
493.2514735107551
 21
19.98652309953553
 31
0.0
  0
LINE
  5
E2E
330
6F
100
AcDbEntity
  8
CORTES_INTERIORES
100
AcDbLine
 10
493.2514735107551
 20
19.98652309953553
 30
0.0
 11
489.6713329772821
 21
16.35436206778337
 31
0.0
  0
LINE
  5
E2F
330
6F
100
AcDbEntity
  8
CORTES_INTERIORES
100
AcDbLine
 10
489.6713329772821
 20
16.35436206778337
 30
0.0
 11
490.3479119930006
 21
15.68747314488115
 31
0.0
  0
LINE
  5
E30
330
6F
100
AcDbEntity
  8
CORTES_INTERIORES
100
AcDbLine
 10
490.3479119930006
 20
15.68747314488115
 30
0.0
 11
489.6810230700984
 21
15.01089412916258
 31
0.0
  0
LINE
  5
E31
330
6F
100
AcDbEntity
  8
CORTES_INTERIORES
100
AcDbLine
 10
489.6810230700984
 20
15.01089412916258
 30
0.0
 11
493.3131841018507
 21
11.43075359568957
 31
0.0
  0
CIRCLE
  5
E32
330
6F
100
AcDbEntity
  8
CORTES_INTERIORES
100
AcDbCircle
 10
501.9629030181351
 20
7.722333416091146
 30
0.0
 40
1.0
  0
CIRCLE
  5
E33
330
6F
100
AcDbEntity
  8
CORTES_INTERIORES
100
AcDbCircle
 10
501.9452127535429
 20
23.72232363654251
 30
0.0
 40
1.0
  0
CIRCLE
  5
E34
330
6F
100
AcDbEntity
  8
CORTES_INTERIORES
100
AcDbCircle
 10
485.9452225330916
 20
23.70463337195025
 30
0.0
 40
1.0
  0
CIRCLE
  5
E35
330
6F
100
AcDbEntity
  8
CORTES_INTERIORES
100
AcDbCircle
 10
485.962912797684
 20
7.704643151498942
 30
0.0
 40
1.0
  0
ARC
  5
E36
330
6F
100
AcDbEntity
  8
0
  6
Continuous
100
AcDbCircle
 10
493.9540627756131
 20
15.71348339402067
 30
0.0
 40
15.0
100
AcDbArc
 50
201.1027385391527
 51
80.30638575339579
  0
ARC
  5
E37
330
6F
100
AcDbEntity
  8
0
  6
Continuous
100
AcDbCircle
 10
497.3216531652091
 20
35.42792822434501
 30
0.0
 40
5.0
100
AcDbArc
 50
219.6517612190247
 51
260.3063857533966
  0
ARC
  5
E38
330
6F
100
AcDbEntity
  8
0
  6
Continuous
100
AcDbCircle
 10
475.295336232345
 20
8.512655401106997
 30
0.0
 40
5.0
100
AcDbArc
 50
21.10273853915367
 51
58.0198928516407
  0
LINE
  5
E4F
330
6F
100
AcDbEntity
  8
FRAME
100
AcDbLine
 10
427.8732170053164
 20
132.3285065988256
 30
0.0
 11
427.880818945708
 21
118.5773262858436
 31
0.0
  0
LINE
  5
E50
330
6F
100
AcDbEntity
  8
FRAME
100
AcDbLine
 10
432.4820743447448
 20
105.8259864218444
 30
0.0
 11
493.4719677789957
 21
32.23732915408016
 31
0.0
  0
ARC
  5
E51
330
6F
100
AcDbEntity
  8
FRAME
100
AcDbCircle
 10
447.8808158895989
 20
118.5883827029032
 30
0.0
 40
20.0
100
AcDbArc
 50
180.031674303316
 51
219.6517612190235
  0
ARC
  5
E53
330
6F
100
AcDbEntity
  8
FRAME
100
AcDbCircle
 10
405.2857707090776
 20
182.695390200341
 30
0.0
 40
10.0000000000001
100
AcDbArc
 50
270.0
 51
90.0
  0
LINE
  5
E54
330
6F
100
AcDbEntity
  8
CORTES_INTERIORES
100
AcDbLine
 10
405.2857707090776
 20
192.6953902003411
 30
0.0
 11
405.2857707090776
 21
192.6939079087741
 31
0.0
  0
CIRCLE
  5
E56
330
6F
100
AcDbEntity
  8
CORTES_INTERIORES
  6
Continuous
100
AcDbCircle
 10
410.1202593642037
 20
112.8287478663765
 30
0.0
 40
1.5
  0
CIRCLE
  5
E58
330
6F
100
AcDbEntity
  8
CORTES_INTERIORES
  6
Continuous
100
AcDbCircle
 10
410.1202593642037
 20
157.8287478663765
 30
0.0
 40
1.5
  0
LINE
  5
E5A
330
6F
100
AcDbEntity
  8
FRAME
100
AcDbLine
 10
405.2857707090776
 20
192.6939079087741
 30
0.0
 11
387.8259817190986
 21
192.6939079087741
 31
0.0
  0
ARC
  5
E5B
330
6F
100
AcDbEntity
  8
0
  6
Continuous
100
AcDbCircle
 10
387.793239387264
 20
-19.47270856066183
 30
0.0
 40
76.83902436457225
100
AcDbArc
 50
45.74137972498558
 51
90.07354224136917
  0
LINE
  5
E5E
330
6F
100
AcDbEntity
  8
FRAME
100
AcDbLine
 10
404.8295601570584
 20
102.5631402487889
 30
0.0
 11
387.7384872499835
 21
102.5631402487889
 31
0.0
  0
LINE
  5
E65
330
6F
100
AcDbEntity
  8
CORTES_INTERIORES
100
AcDbLine
 10
404.9515583391714
 20
151.70271765739
 30
0.0
 11
404.9515583391714
 21
151.701235365823
 31
0.0
  0
LINE
  5
E66
330
6F
100
AcDbEntity
  8
FRAME
100
AcDbLine
 10
404.9515583391714
 20
151.701235365823
 30
0.0
 11
387.7861880702163
 21
151.701235365823
 31
0.0
  0
ARC
  5
E68
330
6F
100
AcDbEntity
  8
FRAME
  6
Continuous
100
AcDbCircle
 10
396.2557129856604
 20
135.5067847254038
 30
0.0
 40
18.39924862356009
100
AcDbArc
 50
298.3275017147637
 51
61.67249828523635
  0
CIRCLE
  5
EC6
330
6F
100
AcDbEntity
  8
CORTES_INTERIORES
100
AcDbCircle
 10
392.64401682038
 20
206.0677383669916
 30
0.0
 40
1.5
  0
CIRCLE
  5
EF4
330
6F
100
AcDbEntity
  8
CORTES_INTERIORES
100
AcDbCircle
 10
392.4897466662509
 20
69.93924879091833
 30
0.0
 40
1.5
  0
LINE
  5
11F5
330
6F
100
AcDbEntity
  8
FRAME
100
AcDbLine
 10
234.0270709939862
 20
228.2810803631194
 30
0.0
 11
197.25977967299
 21
251.2946266771762
 31
0.0
  0
LINE
  5
11F6
330
6F
100
AcDbEntity
  8
FRAME
100
AcDbLine
 10
182.9734909283077
 20
231.5173345140076
 30
0.0
 11
242.9144105204705
 21
159.0313669014453
 31
0.0
  0
LINE
  5
11F7
330
6F
100
AcDbEntity
  8
FRAME
100
AcDbLine
 10
247.5015646961136
 20
146.2749474922514
 30
0.0
 11
247.493385380006
 21
131.4793499426828
 31
0.0
  0
ARC
  5
11F8
330
6F
100
AcDbEntity
  8
FRAME
100
AcDbCircle
 10
227.5015677522227
 20
146.286003909311
 30
0.0
 40
20.0
100
AcDbArc
 50
359.9683256966839
 51
39.58841261239167
  0
LINE
  5
11F9
330
6F
100
AcDbEntity
  8
FRAME
100
AcDbLine
 10
327.8399019050822
 20
131.5237671792694
 30
0.0
 11
327.8322999646906
 21
145.2749474922514
 31
0.0
  0
ARC
  5
11FA
330
6F
100
AcDbEntity
  8
FRAME
100
AcDbCircle
 10
347.8322969085815
 20
145.286003909311
 30
0.0
 40
20.0
100
AcDbArc
 50
140.4115873876091
 51
180.031674303316
  0
LINE
  5
11FB
330
6F
100
AcDbEntity
  8
FRAME
100
AcDbLine
 10
332.4194541403334
 20
158.0313669014453
 30
0.0
 11
393.3279476201041
 21
231.6874121497377
 31
0.0
  0
LINE
  5
11FC
330
6F
100
AcDbEntity
  8
FRAME
100
AcDbLine
 10
377.7779077508802
 20
251.153744877177
 30
0.0
 11
341.2787422231924
 21
228.3080250507565
 31
0.0
  0
ARC
  5
11FD
330
6F
100
AcDbEntity
  8
FRAME
100
AcDbCircle
 10
338.6259306709652
 20
232.5462547364118
 30
0.0
 40
5.0
100
AcDbArc
 50
274.2229923822886
 51
302.0434557549923
  0
LINE
  5
11FE
330
6F
100
AcDbEntity
  8
FRAME
100
AcDbLine
 10
338.9941227025294
 20
227.5598297015905
 30
0.0
 11
338.7922675982931
 21
227.5449249471038
 31
0.0
  0
LINE
  5
11FF
330
6F
100
AcDbEntity
  8
FRAME
100
AcDbLine
 10
338.7922675982931
 20
227.5449249471038
 30
0.0
 11
337.5750000882639
 21
227.4245089184008
 31
0.0
  0
LINE
  5
1200
330
6F
100
AcDbEntity
  8
FRAME
100
AcDbLine
 10
337.5750000882639
 20
227.4245089184008
 30
0.0
 11
336.434046929745
 21
227.2807434639688
 31
0.0
  0
LINE
  5
1201
330
6F
100
AcDbEntity
  8
FRAME
100
AcDbLine
 10
336.434046929745
 20
227.2807434639688
 30
0.0
 11
335.3650961398802
 21
227.1148484902058
 31
0.0
  0
LINE
  5
1202
330
6F
100
AcDbEntity
  8
FRAME
100
AcDbLine
 10
335.3650961398802
 20
227.1148484902058
 30
0.0
 11
334.3638969026441
 21
226.9280438801928
 31
0.0
  0
LINE
  5
1203
330
6F
100
AcDbEntity
  8
FRAME
100
AcDbLine
 10
334.3638969026441
 20
226.9280438801928
 30
0.0
 11
333.4262747645779
 21
226.7215619489738
 31
0.0
  0
LINE
  5
1204
330
6F
100
AcDbEntity
  8
FRAME
100
AcDbLine
 10
333.4262747645779
 20
226.7215619489738
 30
0.0
 11
332.5524433513109
 21
226.4977652879018
 31
0.0
  0
LINE
  5
1205
330
6F
100
AcDbEntity
  8
FRAME
100
AcDbLine
 10
332.5524433513109
 20
226.4977652879018
 30
0.0
 11
332.1301820219211
 21
226.3776030841218
 31
0.0
  0
LINE
  5
1206
330
6F
100
AcDbEntity
  8
FRAME
100
AcDbLine
 10
332.1301820219211
 20
226.3776030841218
 30
0.0
 11
331.7255450150632
 21
226.2545401318858
 31
0.0
  0
LINE
  5
1207
330
6F
100
AcDbEntity
  8
FRAME
100
AcDbLine
 10
331.7255450150632
 20
226.2545401318858
 30
0.0
 11
331.333811650143
 21
226.1275462487718
 31
0.0
  0
LINE
  5
1208
330
6F
100
AcDbEntity
  8
FRAME
100
AcDbLine
 10
331.333811650143
 20
226.1275462487718
 30
0.0
 11
330.954506741144
 21
225.9968039193368
 31
0.0
  0
LINE
  5
1209
330
6F
100
AcDbEntity
  8
FRAME
100
AcDbLine
 10
330.954506741144
 20
225.9968039193368
 30
0.0
 11
330.587161028786
 21
225.8625026906498
 31
0.0
  0
LINE
  5
120A
330
6F
100
AcDbEntity
  8
FRAME
100
AcDbLine
 10
330.587161028786
 20
225.8625026906498
 30
0.0
 11
330.2313105732072
 21
225.7248397915848
 31
0.0
  0
LINE
  5
120B
330
6F
100
AcDbEntity
  8
FRAME
100
AcDbLine
 10
330.2313105732072
 20
225.7248397915848
 30
0.0
 11
329.8864959640681
 21
225.5840206055488
 31
0.0
  0
LINE
  5
120C
330
6F
100
AcDbEntity
  8
FRAME
100
AcDbLine
 10
329.8864959640681
 20
225.5840206055488
 30
0.0
 11
329.5522613634511
 21
225.4402589545098
 31
0.0
  0
LINE
  5
120D
330
6F
100
AcDbEntity
  8
FRAME
100
AcDbLine
 10
329.5522613634511
 20
225.4402589545098
 30
0.0
 11
329.2281534083689
 21
225.2937771563848
 31
0.0
  0
LINE
  5
120E
330
6F
100
AcDbEntity
  8
FRAME
100
AcDbLine
 10
329.2281534083689
 20
225.2937771563848
 30
0.0
 11
328.909905074698
 21
225.1429983964518
 31
0.0
  0
LINE
  5
120F
330
6F
100
AcDbEntity
  8
FRAME
100
AcDbLine
 10
328.909905074698
 20
225.1429983964518
 30
0.0
 11
328.3123870967341
 21
224.8406379993468
 31
0.0
  0
LINE
  5
1210
330
6F
100
AcDbEntity
  8
FRAME
100
AcDbLine
 10
328.3123870967341
 20
224.8406379993468
 30
0.0
 11
327.7440647117322
 21
224.5292153237238
 31
0.0
  0
LINE
  5
1211
330
6F
100
AcDbEntity
  8
FRAME
100
AcDbLine
 10
327.7440647117322
 20
224.5292153237238
 30
0.0
 11
327.2052936736301
 21
224.2128397822678
 31
0.0
  0
LINE
  5
1212
330
6F
100
AcDbEntity
  8
FRAME
100
AcDbLine
 10
327.2052936736301
 20
224.2128397822678
 30
0.0
 11
326.6859139591592
 21
223.8896238224088
 31
0.0
  0
LINE
  5
1213
330
6F
100
AcDbEntity
  8
FRAME
100
AcDbLine
 10
326.6859139591592
 20
223.8896238224088
 30
0.0
 11
323.4773535003111
 21
221.7291757177888
 31
0.0
  0
LINE
  5
1214
330
6F
100
AcDbEntity
  8
FRAME
100
AcDbLine
 10
323.4773535003111
 20
221.7291757177888
 30
0.0
 11
323.0297741992191
 21
221.4526008665658
 31
0.0
  0
LINE
  5
1215
330
6F
100
AcDbEntity
  8
FRAME
100
AcDbLine
 10
323.0297741992191
 20
221.4526008665658
 30
0.0
 11
322.562301718173
 21
221.1812774757058
 31
0.0
  0
LINE
  5
1216
330
6F
100
AcDbEntity
  8
FRAME
100
AcDbLine
 10
322.562301718173
 20
221.1812774757058
 30
0.0
 11
322.0730656332679
 21
220.9179868765908
 31
0.0
  0
LINE
  5
1217
330
6F
100
AcDbEntity
  8
FRAME
100
AcDbLine
 10
322.0730656332679
 20
220.9179868765908
 30
0.0
 11
321.8261841359389
 21
220.7934197672078
 31
0.0
  0
LINE
  5
1218
330
6F
100
AcDbEntity
  8
FRAME
100
AcDbLine
 10
321.8261841359389
 20
220.7934197672078
 30
0.0
 11
321.5692220065451
 21
220.6697321191518
 31
0.0
  0
LINE
  5
1219
330
6F
100
AcDbEntity
  8
FRAME
100
AcDbLine
 10
321.5692220065451
 20
220.6697321191518
 30
0.0
 11
321.3053213265952
 21
220.5489182418558
 31
0.0
  0
LINE
  5
121A
330
6F
100
AcDbEntity
  8
FRAME
100
AcDbLine
 10
321.3053213265952
 20
220.5489182418558
 30
0.0
 11
321.033833745632
 21
220.4310696689258
 31
0.0
  0
LINE
  5
121B
330
6F
100
AcDbEntity
  8
FRAME
100
AcDbLine
 10
321.033833745632
 20
220.4310696689258
 30
0.0
 11
320.7541088104241
 21
220.3162870176708
 31
0.0
  0
LINE
  5
121C
330
6F
100
AcDbEntity
  8
FRAME
100
AcDbLine
 10
320.7541088104241
 20
220.3162870176708
 30
0.0
 11
320.4653917044051
 21
220.2046406536288
 31
0.0
  0
LINE
  5
121D
330
6F
100
AcDbEntity
  8
FRAME
100
AcDbLine
 10
320.4653917044051
 20
220.2046406536288
 30
0.0
 11
320.1666570118999
 21
220.0960444046738
 31
0.0
  0
LINE
  5
121E
330
6F
100
AcDbEntity
  8
FRAME
100
AcDbLine
 10
320.1666570118999
 20
220.0960444046738
 30
0.0
 11
319.8615018583649
 21
219.9917399427778
 31
0.0
  0
LINE
  5
121F
330
6F
100
AcDbEntity
  8
FRAME
100
AcDbLine
 10
319.8615018583649
 20
219.9917399427778
 30
0.0
 11
319.2074973912662
 21
219.7875951693278
 31
0.0
  0
LINE
  5
1220
330
6F
100
AcDbEntity
  8
FRAME
100
AcDbLine
 10
319.2074973912662
 20
219.7875951693278
 30
0.0
 11
318.5180312868951
 21
219.5965186056588
 31
0.0
  0
LINE
  5
1221
330
6F
100
AcDbEntity
  8
FRAME
100
AcDbLine
 10
318.5180312868951
 20
219.5965186056588
 30
0.0
 11
317.7901548305639
 21
219.4170775221598
 31
0.0
  0
LINE
  5
1222
330
6F
100
AcDbEntity
  8
FRAME
100
AcDbLine
 10
317.7901548305639
 20
219.4170775221598
 30
0.0
 11
317.025436527197
 21
219.2491601837398
 31
0.0
  0
LINE
  5
1223
330
6F
100
AcDbEntity
  8
FRAME
100
AcDbLine
 10
317.025436527197
 20
219.2491601837398
 30
0.0
 11
316.2254046296711
 21
219.0925772748888
 31
0.0
  0
LINE
  5
1224
330
6F
100
AcDbEntity
  8
FRAME
100
AcDbLine
 10
316.2254046296711
 20
219.0925772748888
 30
0.0
 11
315.3915491522042
 21
218.9470801335338
 31
0.0
  0
LINE
  5
1225
330
6F
100
AcDbEntity
  8
FRAME
100
AcDbLine
 10
315.3915491522042
 20
218.9470801335338
 30
0.0
 11
314.5290994354151
 21
218.8129615570938
 31
0.0
  0
LINE
  5
1226
330
6F
100
AcDbEntity
  8
FRAME
100
AcDbLine
 10
314.5290994354151
 20
218.8129615570938
 30
0.0
 11
312.7008554681571
 21
218.5739977110668
 31
0.0
  0
LINE
  5
1227
330
6F
100
AcDbEntity
  8
FRAME
100
AcDbLine
 10
312.7008554681571
 20
218.5739977110668
 30
0.0
 11
310.76436576002
 21
218.3745232006738
 31
0.0
  0
LINE
  5
1228
330
6F
100
AcDbEntity
  8
FRAME
100
AcDbLine
 10
310.76436576002
 20
218.3745232006738
 30
0.0
 11
308.7258962948412
 21
218.2107607821768
 31
0.0
  0
LINE
  5
1229
330
6F
100
AcDbEntity
  8
FRAME
100
AcDbLine
 10
308.7258962948412
 20
218.2107607821768
 30
0.0
 11
306.5991486973361
 21
218.0795522258868
 31
0.0
  0
LINE
  5
122A
330
6F
100
AcDbEntity
  8
FRAME
100
AcDbLine
 10
306.5991486973361
 20
218.0795522258868
 30
0.0
 11
302.1072084895731
 21
217.8999393429388
 31
0.0
  0
LINE
  5
122B
330
6F
100
AcDbEntity
  8
FRAME
100
AcDbLine
 10
302.1072084895731
 20
217.8999393429388
 30
0.0
 11
287.4832535072061
 21
217.7683237480968
 31
0.0
  0
LINE
  5
122C
330
6F
100
AcDbEntity
  8
FRAME
100
AcDbLine
 10
287.4832535072061
 20
217.7683237480968
 30
0.0
 11
272.8592985248779
 21
217.8999393429328
 31
0.0
  0
LINE
  5
122D
330
6F
100
AcDbEntity
  8
FRAME
100
AcDbLine
 10
272.8592985248779
 20
217.8999393429328
 30
0.0
 11
268.367358317137
 21
218.0795522258718
 31
0.0
  0
LINE
  5
122E
330
6F
100
AcDbEntity
  8
FRAME
100
AcDbLine
 10
268.367358317137
 20
218.0795522258718
 30
0.0
 11
266.2406107196401
 21
218.2107607821568
 31
0.0
  0
LINE
  5
122F
330
6F
100
AcDbEntity
  8
FRAME
100
AcDbLine
 10
266.2406107196401
 20
218.2107607821568
 30
0.0
 11
264.2021412544701
 21
218.3745232006468
 31
0.0
  0
LINE
  5
1230
330
6F
100
AcDbEntity
  8
FRAME
100
AcDbLine
 10
264.2021412544701
 20
218.3745232006468
 30
0.0
 11
262.265651546341
 21
218.5739977110298
 31
0.0
  0
LINE
  5
1231
330
6F
100
AcDbEntity
  8
FRAME
100
AcDbLine
 10
262.265651546341
 20
218.5739977110298
 30
0.0
 11
260.437407579088
 21
218.8129615570468
 31
0.0
  0
LINE
  5
1232
330
6F
100
AcDbEntity
  8
FRAME
100
AcDbLine
 10
260.437407579088
 20
218.8129615570468
 30
0.0
 11
259.5749578623011
 21
218.9470801334798
 31
0.0
  0
LINE
  5
1233
330
6F
100
AcDbEntity
  8
FRAME
100
AcDbLine
 10
259.5749578623011
 20
218.9470801334798
 30
0.0
 11
258.741102384835
 21
219.0925772748288
 31
0.0
  0
LINE
  5
1234
330
6F
100
AcDbEntity
  8
FRAME
100
AcDbLine
 10
258.741102384835
 20
219.0925772748288
 30
0.0
 11
257.9410704873101
 21
219.2491601836728
 31
0.0
  0
LINE
  5
1235
330
6F
100
AcDbEntity
  8
FRAME
100
AcDbLine
 10
257.9410704873101
 20
219.2491601836728
 30
0.0
 11
257.1763521839419
 21
219.4170775220858
 31
0.0
  0
LINE
  5
1236
330
6F
100
AcDbEntity
  8
FRAME
100
AcDbLine
 10
257.1763521839419
 20
219.4170775220858
 30
0.0
 11
256.4484757276101
 21
219.5965186055758
 31
0.0
  0
LINE
  5
1237
330
6F
100
AcDbEntity
  8
FRAME
100
AcDbLine
 10
256.4484757276101
 20
219.5965186055758
 30
0.0
 11
255.7590096232369
 21
219.7875951692368
 31
0.0
  0
LINE
  5
1238
330
6F
100
AcDbEntity
  8
FRAME
100
AcDbLine
 10
255.7590096232369
 20
219.7875951692368
 30
0.0
 11
255.105005156135
 21
219.9917399426768
 31
0.0
  0
LINE
  5
1239
330
6F
100
AcDbEntity
  8
FRAME
100
AcDbLine
 10
255.105005156135
 20
219.9917399426768
 30
0.0
 11
254.7998500025981
 21
220.0960444045698
 31
0.0
  0
LINE
  5
123A
330
6F
100
AcDbEntity
  8
FRAME
100
AcDbLine
 10
254.7998500025981
 20
220.0960444045698
 30
0.0
 11
254.50111531009
 21
220.2046406535208
 31
0.0
  0
LINE
  5
123B
330
6F
100
AcDbEntity
  8
FRAME
100
AcDbLine
 10
254.50111531009
 20
220.2046406535208
 30
0.0
 11
254.212398204069
 21
220.3162870175568
 31
0.0
  0
LINE
  5
123C
330
6F
100
AcDbEntity
  8
FRAME
100
AcDbLine
 10
254.212398204069
 20
220.3162870175568
 30
0.0
 11
253.9326732688581
 21
220.4310696688078
 31
0.0
  0
LINE
  5
123D
330
6F
100
AcDbEntity
  8
FRAME
100
AcDbLine
 10
253.9326732688581
 20
220.4310696688078
 30
0.0
 11
253.661185687892
 21
220.5489182417328
 31
0.0
  0
LINE
  5
123E
330
6F
100
AcDbEntity
  8
FRAME
100
AcDbLine
 10
253.661185687892
 20
220.5489182417328
 30
0.0
 11
253.39728500794
 21
220.6697321190228
 31
0.0
  0
LINE
  5
123F
330
6F
100
AcDbEntity
  8
FRAME
100
AcDbLine
 10
253.39728500794
 20
220.6697321190228
 30
0.0
 11
253.140322878543
 21
220.7934197670738
 31
0.0
  0
LINE
  5
1240
330
6F
100
AcDbEntity
  8
FRAME
100
AcDbLine
 10
253.140322878543
 20
220.7934197670738
 30
0.0
 11
252.8934413812102
 21
220.9179868764508
 31
0.0
  0
LINE
  5
1241
330
6F
100
AcDbEntity
  8
FRAME
100
AcDbLine
 10
252.8934413812102
 20
220.9179868764508
 30
0.0
 11
252.4042052962989
 21
221.1812774755568
 31
0.0
  0
LINE
  5
1242
330
6F
100
AcDbEntity
  8
FRAME
100
AcDbLine
 10
252.4042052962989
 20
221.1812774755568
 30
0.0
 11
251.936732815246
 21
221.4526008664048
 31
0.0
  0
LINE
  5
1243
330
6F
100
AcDbEntity
  8
FRAME
100
AcDbLine
 10
251.936732815246
 20
221.4526008664048
 30
0.0
 11
251.489153514149
 21
221.7291757176148
 31
0.0
  0
LINE
  5
1244
330
6F
100
AcDbEntity
  8
FRAME
100
AcDbLine
 10
251.489153514149
 20
221.7291757176148
 30
0.0
 11
248.280593055257
 21
223.8896238221608
 31
0.0
  0
LINE
  5
1245
330
6F
100
AcDbEntity
  8
FRAME
100
AcDbLine
 10
248.280593055257
 20
223.8896238221608
 30
0.0
 11
247.7612133407841
 21
224.2128397820108
 31
0.0
  0
LINE
  5
1246
330
6F
100
AcDbEntity
  8
FRAME
100
AcDbLine
 10
247.7612133407841
 20
224.2128397820108
 30
0.0
 11
247.222442302679
 21
224.5292153234608
 31
0.0
  0
LINE
  5
1247
330
6F
100
AcDbEntity
  8
FRAME
100
AcDbLine
 10
247.222442302679
 20
224.5292153234608
 30
0.0
 11
246.6541199176759
 21
224.8406379990768
 31
0.0
  0
LINE
  5
1248
330
6F
100
AcDbEntity
  8
FRAME
100
AcDbLine
 10
246.6541199176759
 20
224.8406379990768
 30
0.0
 11
246.05660193971
 21
225.1429983961788
 31
0.0
  0
LINE
  5
1249
330
6F
100
AcDbEntity
  8
FRAME
100
AcDbLine
 10
246.05660193971
 20
225.1429983961788
 30
0.0
 11
245.7383536060391
 21
225.2937771561118
 31
0.0
  0
LINE
  5
124A
330
6F
100
AcDbEntity
  8
FRAME
100
AcDbLine
 10
245.7383536060391
 20
225.2937771561118
 30
0.0
 11
245.414245650957
 21
225.4402589542358
 31
0.0
  0
LINE
  5
124B
330
6F
100
AcDbEntity
  8
FRAME
100
AcDbLine
 10
245.414245650957
 20
225.4402589542358
 30
0.0
 11
245.0800110503411
 21
225.5840206052748
 31
0.0
  0
LINE
  5
124C
330
6F
100
AcDbEntity
  8
FRAME
100
AcDbLine
 10
245.0800110503411
 20
225.5840206052748
 30
0.0
 11
244.7351964412019
 21
225.7248397913108
 31
0.0
  0
LINE
  5
124D
330
6F
100
AcDbEntity
  8
FRAME
100
AcDbLine
 10
244.7351964412019
 20
225.7248397913108
 30
0.0
 11
244.379345985625
 21
225.8625026903778
 31
0.0
  0
LINE
  5
124E
330
6F
100
AcDbEntity
  8
FRAME
100
AcDbLine
 10
244.379345985625
 20
225.8625026903778
 30
0.0
 11
244.0120002732681
 21
225.9968039190668
 31
0.0
  0
LINE
  5
124F
330
6F
100
AcDbEntity
  8
FRAME
100
AcDbLine
 10
244.0120002732681
 20
225.9968039190668
 30
0.0
 11
243.632695364272
 21
226.1275462485038
 31
0.0
  0
LINE
  5
1250
330
6F
100
AcDbEntity
  8
FRAME
100
AcDbLine
 10
243.632695364272
 20
226.1275462485038
 30
0.0
 11
243.240961999353
 21
226.2545401316218
 31
0.0
  0
LINE
  5
1251
330
6F
100
AcDbEntity
  8
FRAME
100
AcDbLine
 10
243.240961999353
 20
226.2545401316218
 30
0.0
 11
242.8363249924981
 21
226.3776030838598
 31
0.0
  0
LINE
  5
1252
330
6F
100
AcDbEntity
  8
FRAME
100
AcDbLine
 10
242.8363249924981
 20
226.3776030838598
 30
0.0
 11
242.4140636631099
 21
226.4977652876468
 31
0.0
  0
LINE
  5
1253
330
6F
100
AcDbEntity
  8
FRAME
100
AcDbLine
 10
242.4140636631099
 20
226.4977652876468
 30
0.0
 11
241.540232249849
 21
226.7215619487278
 31
0.0
  0
LINE
  5
1254
330
6F
100
AcDbEntity
  8
FRAME
100
AcDbLine
 10
241.540232249849
 20
226.7215619487278
 30
0.0
 11
240.6026101117889
 21
226.9280438799618
 31
0.0
  0
LINE
  5
1255
330
6F
100
AcDbEntity
  8
FRAME
100
AcDbLine
 10
240.6026101117889
 20
226.9280438799618
 30
0.0
 11
239.601410874562
 21
227.1148484899928
 31
0.0
  0
LINE
  5
1256
330
6F
100
AcDbEntity
  8
FRAME
100
AcDbLine
 10
239.601410874562
 20
227.1148484899928
 30
0.0
 11
238.532460084708
 21
227.2807434637758
 31
0.0
  0
LINE
  5
1257
330
6F
100
AcDbEntity
  8
FRAME
100
AcDbLine
 10
238.532460084708
 20
227.2807434637758
 30
0.0
 11
237.3915069262001
 21
227.4245089182318
 31
0.0
  0
LINE
  5
1258
330
6F
100
AcDbEntity
  8
FRAME
100
AcDbLine
 10
237.3915069262001
 20
227.4245089182318
 30
0.0
 11
236.1876689072975
 21
227.5435964583774
 31
0.0
  0
ARC
  5
1259
330
6F
100
AcDbEntity
  8
FRAME
100
AcDbCircle
 10
236.6798825462134
 20
232.5193100487747
 30
0.0
 40
5.0
100
AcDbArc
 50
237.9565442450077
 51
264.3504971327968
  0
LINE
  5
125A
330
6F
100
AcDbEntity
  8
CORTES_INTERIORES
100
AcDbLine
 10
393.1461594258307
 20
252.4937994328673
 30
0.0
 11
393.8137959949785
 21
251.8179581707823
 31
0.0
  0
LINE
  5
125B
330
6F
100
AcDbEntity
  8
CORTES_INTERIORES
100
AcDbLine
 10
393.8137959949785
 20
251.8179581707823
 30
0.0
 11
394.4896372570637
 21
252.4855947399303
 31
0.0
  0
LINE
  5
125C
330
6F
100
AcDbEntity
  8
CORTES_INTERIORES
100
AcDbLine
 10
394.4896372570637
 20
252.4855947399303
 30
0.0
 11
398.0737914703835
 21
248.8573942803152
 31
0.0
  0
LINE
  5
125D
330
6F
100
AcDbEntity
  8
CORTES_INTERIORES
100
AcDbLine
 10
398.0737914703835
 20
248.8573942803152
 30
0.0
 11
397.3979502082974
 21
248.1897577111683
 31
0.0
  0
LINE
  5
125E
330
6F
100
AcDbEntity
  8
CORTES_INTERIORES
100
AcDbLine
 10
397.3979502082974
 20
248.1897577111683
 30
0.0
 11
398.0655867774457
 21
247.5139164490823
 31
0.0
  0
LINE
  5
125F
330
6F
100
AcDbEntity
  8
CORTES_INTERIORES
100
AcDbLine
 10
398.0655867774457
 20
247.5139164490823
 30
0.0
 11
394.4373863178315
 21
243.9297622357633
 31
0.0
  0
LINE
  5
1260
330
6F
100
AcDbEntity
  8
CORTES_INTERIORES
100
AcDbLine
 10
394.4373863178315
 20
243.9297622357633
 30
0.0
 11
393.7697497486835
 21
244.6056034978483
 31
0.0
  0
LINE
  5
1261
330
6F
100
AcDbEntity
  8
CORTES_INTERIORES
100
AcDbLine
 10
393.7697497486835
 20
244.6056034978483
 30
0.0
 11
393.0939084865985
 21
243.9379669287013
 31
0.0
  0
LINE
  5
1262
330
6F
100
AcDbEntity
  8
CORTES_INTERIORES
100
AcDbLine
 10
393.0939084865985
 20
243.9379669287013
 30
0.0
 11
389.5097542732796
 21
247.5661673883153
 31
0.0
  0
LINE
  5
1263
330
6F
100
AcDbEntity
  8
CORTES_INTERIORES
100
AcDbLine
 10
389.5097542732796
 20
247.5661673883153
 30
0.0
 11
390.1855955353645
 21
248.2338039574633
 31
0.0
  0
LINE
  5
1264
330
6F
100
AcDbEntity
  8
CORTES_INTERIORES
100
AcDbLine
 10
390.1855955353645
 20
248.2338039574633
 30
0.0
 11
389.5179589662165
 21
248.9096452195483
 31
0.0
  0
LINE
  5
1265
330
6F
100
AcDbEntity
  8
CORTES_INTERIORES
100
AcDbLine
 10
389.5179589662165
 20
248.9096452195483
 30
0.0
 11
393.1461594258307
 21
252.4937994328673
 31
0.0
  0
CIRCLE
  5
1266
330
6F
100
AcDbEntity
  8
CORTES_INTERIORES
100
AcDbCircle
 10
235.372590074954
 20
211.3246755798198
 30
0.0
 40
1.5
  0
CIRCLE
  5
1267
330
6F
100
AcDbEntity
  8
CORTES_INTERIORES
100
AcDbCircle
 10
339.87731924346
 20
70.74377922788389
 30
0.0
 40
1.5
  0
CIRCLE
  5
1268
330
6F
100
AcDbEntity
  8
CORTES_INTERIORES
100
AcDbCircle
 10
248.246245057741
 20
92.7727604317088
 30
0.0
 40
1.5
  0
CIRCLE
  5
1269
330
6F
100
AcDbEntity
  8
CORTES_INTERIORES
100
AcDbCircle
 10
326.84624505774
 20
92.7727604317088
 30
0.0
 40
1.5
  0
CIRCLE
  5
126A
330
6F
100
AcDbEntity
  8
CORTES_INTERIORES
100
AcDbCircle
 10
248.2462450626829
 20
173.0087151779658
 30
0.0
 40
1.5
  0
CIRCLE
  5
126B
330
6F
100
AcDbEntity
  8
CORTES_INTERIORES
100
AcDbCircle
 10
326.84624505774
 20
173.0087151224298
 30
0.0
 40
1.5
  0
CIRCLE
  5
126C
330
6F
100
AcDbEntity
  8
CORTES_INTERIORES
100
AcDbCircle
 10
247.5712450521719
 20
185.3848091736018
 30
0.0
 40
1.5
  0
CIRCLE
  5
126D
330
6F
100
AcDbEntity
  8
CORTES_INTERIORES
100
AcDbCircle
 10
327.5153903730942
 20
185.3848091736018
 30
0.0
 40
1.5
  0
CIRCLE
  5
126E
330
6F
100
AcDbEntity
  8
CORTES_INTERIORES
100
AcDbCircle
 10
339.9335046399259
 20
211.3246755798198
 30
0.0
 40
1.5
  0
CIRCLE
  5
126F
330
6F
100
AcDbEntity
  8
CORTES_INTERIORES
100
AcDbCircle
 10
235.2090621208029
 20
71.86346032017289
 30
0.0
 40
1.5
  0
CIRCLE
  5
1270
330
6F
100
AcDbEntity
  8
CORTES_INTERIORES
100
AcDbCircle
 10
401.7917728718311
 20
256.2117808343157
 30
0.0
 40
1.0
  0
CIRCLE
  5
1271
330
6F
100
AcDbEntity
  8
CORTES_INTERIORES
100
AcDbCircle
 10
401.7917728718311
 20
240.2117808343158
 30
0.0
 40
1.0
  0
CIRCLE
  5
1272
330
6F
100
AcDbEntity
  8
CORTES_INTERIORES
100
AcDbCircle
 10
385.7917728718311
 20
240.2117808343158
 30
0.0
 40
1.0
  0
CIRCLE
  5
1273
330
6F
100
AcDbEntity
  8
CORTES_INTERIORES
100
AcDbCircle
 10
385.7917728718311
 20
256.2117808343157
 30
0.0
 40
1.0
  0
ARC
  5
1274
330
6F
100
AcDbEntity
  8
CORTES_INTERIORES
100
AcDbCircle
 10
270.2933312511041
 20
91.75988312079946
 30
0.0
 40
10.00000000000015
100
AcDbArc
 50
89.01347109635383
 51
269.9999999999987
  0
ARC
  5
1275
330
6F
100
AcDbEntity
  8
CORTES_INTERIORES
100
AcDbCircle
 10
304.7962450568242
 20
91.75988312079969
 30
0.0
 40
10.0000000000001
100
AcDbArc
 50
270.0
 51
90.0
  0
LINE
  5
1276
330
6F
100
AcDbEntity
  8
CORTES_INTERIORES
100
AcDbLine
 10
304.7962450568242
 20
101.7598831207998
 30
0.0
 11
304.7962450568242
 21
101.7584008292328
 31
0.0
  0
ARC
  5
1277
330
6F
100
AcDbEntity
  8
0
  6
Continuous
100
AcDbCircle
 10
393.7917728718311
 20
248.2117808343158
 30
0.0
 40
15.0
100
AcDbArc
 50
279.7569628532359
 51
158.9606100674803
  0
ARC
  5
1278
330
6F
100
AcDbEntity
  8
0
  6
Continuous
100
AcDbCircle
 10
397.1811583121661
 20
228.5010714017042
 30
0.0
 40
5.0
100
AcDbArc
 50
99.75696285323943
 51
140.4115873876092
  0
ARC
  5
1279
330
6F
100
AcDbEntity
  8
0
  6
Continuous
100
AcDbCircle
 10
375.1250961986528
 20
255.3919745628325
 30
0.0
 40
5.0
100
AcDbArc
 50
302.0434557549953
 51
338.9606100674802
  0
LINE
  5
127A
330
6F
100
AcDbEntity
  8
CORTES_INTERIORES
100
AcDbLine
 10
181.9463306896495
 20
252.4937994328673
 30
0.0
 11
181.2786941205015
 21
251.8179581707823
 31
0.0
  0
LINE
  5
127B
330
6F
100
AcDbEntity
  8
CORTES_INTERIORES
100
AcDbLine
 10
181.2786941205015
 20
251.8179581707823
 30
0.0
 11
180.6028528584165
 21
252.4855947399303
 31
0.0
  0
LINE
  5
127C
330
6F
100
AcDbEntity
  8
CORTES_INTERIORES
100
AcDbLine
 10
180.6028528584165
 20
252.4855947399303
 30
0.0
 11
177.0186986450965
 21
248.8573942803152
 31
0.0
  0
LINE
  5
127D
330
6F
100
AcDbEntity
  8
CORTES_INTERIORES
100
AcDbLine
 10
177.0186986450965
 20
248.8573942803152
 30
0.0
 11
177.6945399071824
 21
248.1897577111683
 31
0.0
  0
LINE
  5
127E
330
6F
100
AcDbEntity
  8
CORTES_INTERIORES
100
AcDbLine
 10
177.6945399071824
 20
248.1897577111683
 30
0.0
 11
177.0269033380345
 21
247.5139164490823
 31
0.0
  0
LINE
  5
127F
330
6F
100
AcDbEntity
  8
CORTES_INTERIORES
100
AcDbLine
 10
177.0269033380345
 20
247.5139164490823
 30
0.0
 11
180.6551037976486
 21
243.9297622357633
 31
0.0
  0
LINE
  5
1280
330
6F
100
AcDbEntity
  8
CORTES_INTERIORES
100
AcDbLine
 10
180.6551037976486
 20
243.9297622357633
 30
0.0
 11
181.3227403667966
 21
244.6056034978483
 31
0.0
  0
LINE
  5
1281
330
6F
100
AcDbEntity
  8
CORTES_INTERIORES
100
AcDbLine
 10
181.3227403667966
 20
244.6056034978483
 30
0.0
 11
181.9985816288815
 21
243.9379669287013
 31
0.0
  0
LINE
  5
1282
330
6F
100
AcDbEntity
  8
CORTES_INTERIORES
100
AcDbLine
 10
181.9985816288815
 20
243.9379669287013
 30
0.0
 11
185.5827358422005
 21
247.5661673883153
 31
0.0
  0
LINE
  5
1283
330
6F
100
AcDbEntity
  8
CORTES_INTERIORES
100
AcDbLine
 10
185.5827358422005
 20
247.5661673883153
 30
0.0
 11
184.9068945801155
 21
248.2338039574633
 31
0.0
  0
LINE
  5
1284
330
6F
100
AcDbEntity
  8
CORTES_INTERIORES
100
AcDbLine
 10
184.9068945801155
 20
248.2338039574633
 30
0.0
 11
185.5745311492635
 21
248.9096452195483
 31
0.0
  0
LINE
  5
1285
330
6F
100
AcDbEntity
  8
CORTES_INTERIORES
100
AcDbLine
 10
185.5745311492635
 20
248.9096452195483
 30
0.0
 11
181.9463306896495
 21
252.4937994328673
 31
0.0
  0
CIRCLE
  5
1286
330
6F
100
AcDbEntity
  8
CORTES_INTERIORES
100
AcDbCircle
 10
173.300717243649
 20
256.2117808343157
 30
0.0
 40
1.0
  0
CIRCLE
  5
1287
330
6F
100
AcDbEntity
  8
CORTES_INTERIORES
100
AcDbCircle
 10
173.300717243649
 20
240.2117808343158
 30
0.0
 40
1.0
  0
CIRCLE
  5
1288
330
6F
100
AcDbEntity
  8
CORTES_INTERIORES
100
AcDbCircle
 10
189.300717243649
 20
240.2117808343158
 30
0.0
 40
1.0
  0
CIRCLE
  5
1289
330
6F
100
AcDbEntity
  8
CORTES_INTERIORES
100
AcDbCircle
 10
189.300717243649
 20
256.2117808343157
 30
0.0
 40
1.0
  0
ARC
  5
128A
330
6F
100
AcDbEntity
  8
0
  6
Continuous
100
AcDbCircle
 10
181.300717243649
 20
248.2117808343158
 30
0.0
 40
15.0
100
AcDbArc
 50
21.47244829882933
 51
263.7410673886171
  0
ARC
  5
128B
330
6F
100
AcDbEntity
  8
0
  6
Continuous
100
AcDbCircle
 10
199.9125912252171
 20
255.5328563628316
 30
0.0
 40
5.0
100
AcDbArc
 50
201.4724482988287
 51
237.9565442450077
  0
ARC
  5
128C
330
6F
100
AcDbEntity
  8
0
  6
Continuous
100
AcDbCircle
 10
179.1202802362458
 20
228.330993765974
 30
0.0
 40
5.0
100
AcDbArc
 50
39.58841261239289
 51
83.74106738861715
  0
LINE
  5
128D
330
6F
100
AcDbEntity
  8
FRAME
100
AcDbLine
 10
377.9101451000978
 20
11.94907613534993
 30
0.0
 11
341.3857427047122
 21
34.75442700449494
 31
0.0
  0
LINE
  5
128E
330
6F
100
AcDbEntity
  8
CORTES_INTERIORES
100
AcDbLine
 10
393.2798690016165
 20
10.62601417613345
 30
0.0
 11
393.9467579245187
 21
11.30259319185202
 31
0.0
  0
LINE
  5
128F
330
6F
100
AcDbEntity
  8
CORTES_INTERIORES
100
AcDbLine
 10
393.9467579245187
 20
11.30259319185202
 30
0.0
 11
394.6233369402372
 21
10.6357042689498
 31
0.0
  0
LINE
  5
1290
330
6F
100
AcDbEntity
  8
CORTES_INTERIORES
100
AcDbLine
 10
394.6233369402372
 20
10.6357042689498
 30
0.0
 11
398.2034774737114
 21
14.26786530070293
 31
0.0
  0
LINE
  5
1291
330
6F
100
AcDbEntity
  8
CORTES_INTERIORES
100
AcDbLine
 10
398.2034774737114
 20
14.26786530070293
 30
0.0
 11
397.5268984579917
 21
14.93475422360412
 31
0.0
  0
LINE
  5
1292
330
6F
100
AcDbEntity
  8
CORTES_INTERIORES
100
AcDbLine
 10
397.5268984579917
 20
14.93475422360412
 30
0.0
 11
398.1937873808939
 21
15.61133323932366
 31
0.0
  0
LINE
  5
1293
330
6F
100
AcDbEntity
  8
CORTES_INTERIORES
100
AcDbLine
 10
398.1937873808939
 20
15.61133323932366
 30
0.0
 11
394.5616263491419
 21
19.19147377279679
 31
0.0
  0
LINE
  5
1294
330
6F
100
AcDbEntity
  8
CORTES_INTERIORES
100
AcDbLine
 10
394.5616263491419
 20
19.19147377279679
 30
0.0
 11
393.8947374262397
 21
18.51489475707822
 31
0.0
  0
LINE
  5
1295
330
6F
100
AcDbEntity
  8
CORTES_INTERIORES
100
AcDbLine
 10
393.8947374262397
 20
18.51489475707822
 30
0.0
 11
393.2181584105209
 21
19.18178367997941
 31
0.0
  0
LINE
  5
1296
330
6F
100
AcDbEntity
  8
CORTES_INTERIORES
100
AcDbLine
 10
393.2181584105209
 20
19.18178367997941
 30
0.0
 11
389.6380178770479
 21
15.54962264822725
 31
0.0
  0
LINE
  5
1297
330
6F
100
AcDbEntity
  8
CORTES_INTERIORES
100
AcDbLine
 10
389.6380178770479
 20
15.54962264822725
 30
0.0
 11
390.3145968927664
 21
14.88273372532503
 31
0.0
  0
LINE
  5
1298
330
6F
100
AcDbEntity
  8
CORTES_INTERIORES
100
AcDbLine
 10
390.3145968927664
 20
14.88273372532503
 30
0.0
 11
389.6477079698642
 21
14.20615470960646
 31
0.0
  0
LINE
  5
1299
330
6F
100
AcDbEntity
  8
CORTES_INTERIORES
100
AcDbLine
 10
389.6477079698642
 20
14.20615470960646
 30
0.0
 11
393.2798690016165
 21
10.62601417613345
 31
0.0
  0
CIRCLE
  5
129A
330
6F
100
AcDbEntity
  8
CORTES_INTERIORES
100
AcDbCircle
 10
401.9295879179009
 20
6.917593996535025
 30
0.0
 40
1.0
  0
CIRCLE
  5
129B
330
6F
100
AcDbEntity
  8
CORTES_INTERIORES
100
AcDbCircle
 10
401.9118976533088
 20
22.91758421698639
 30
0.0
 40
1.0
  0
CIRCLE
  5
129C
330
6F
100
AcDbEntity
  8
CORTES_INTERIORES
100
AcDbCircle
 10
385.9119074328574
 20
22.89989395239413
 30
0.0
 40
1.0
  0
CIRCLE
  5
129D
330
6F
100
AcDbEntity
  8
CORTES_INTERIORES
100
AcDbCircle
 10
385.9295976974498
 20
6.899903731942821
 30
0.0
 40
1.0
  0
ARC
  5
129E
330
6F
100
AcDbEntity
  8
0
  6
Continuous
100
AcDbCircle
 10
393.9207476753789
 20
14.90874397446455
 30
0.0
 40
15.0
100
AcDbArc
 50
201.1027385391527
 51
80.30638575339577
  0
ARC
  5
129F
330
6F
100
AcDbEntity
  8
0
  6
Continuous
100
AcDbCircle
 10
397.2883380649749
 20
34.62318880478889
 30
0.0
 40
5.0
100
AcDbArc
 50
219.6517612190243
 51
260.3063857533966
  0
ARC
  5
12A0
330
6F
100
AcDbEntity
  8
0
  6
Continuous
100
AcDbCircle
 10
375.2620211321108
 20
7.707915981550876
 30
0.0
 40
5.0
100
AcDbArc
 50
21.10273853915392
 51
58.01989285164075
  0
LINE
  5
12A1
330
6F
100
AcDbEntity
  8
CORTES_INTERIORES
100
AcDbLine
 10
182.080169355373
 20
10.39250287287219
 30
0.0
 11
181.4117859561273
 21
11.06760555514582
 31
0.0
  0
LINE
  5
12A2
330
6F
100
AcDbEntity
  8
CORTES_INTERIORES
100
AcDbLine
 10
181.4117859561273
 20
11.06760555514582
 30
0.0
 11
180.7366832738535
 21
10.39922215590004
 31
0.0
  0
LINE
  5
12A3
330
6F
100
AcDbEntity
  8
CORTES_INTERIORES
100
AcDbLine
 10
180.7366832738535
 20
10.39922215590004
 30
0.0
 11
177.1485197621139
 21
14.02345760810655
 31
0.0
  0
LINE
  5
12A4
330
6F
100
AcDbEntity
  8
CORTES_INTERIORES
100
AcDbLine
 10
177.1485197621139
 20
14.02345760810655
 30
0.0
 11
177.8236224443886
 21
14.69184100735131
 31
0.0
  0
LINE
  5
12A5
330
6F
100
AcDbEntity
  8
CORTES_INTERIORES
100
AcDbLine
 10
177.8236224443886
 20
14.69184100735131
 30
0.0
 11
177.1552390451429
 21
15.36694368962591
 31
0.0
  0
LINE
  5
12A6
330
6F
100
AcDbEntity
  8
CORTES_INTERIORES
100
AcDbLine
 10
177.1552390451429
 20
15.36694368962591
 30
0.0
 11
180.7794744973484
 21
18.95510720136453
 31
0.0
  0
LINE
  5
12A7
330
6F
100
AcDbEntity
  8
CORTES_INTERIORES
100
AcDbLine
 10
180.7794744973484
 20
18.95510720136453
 30
0.0
 11
181.4478578965941
 21
18.2800045190909
 31
0.0
  0
LINE
  5
12A8
330
6F
100
AcDbEntity
  8
CORTES_INTERIORES
100
AcDbLine
 10
181.4478578965941
 20
18.2800045190909
 30
0.0
 11
182.1229605788678
 21
18.94838791833566
 31
0.0
  0
LINE
  5
12A9
330
6F
100
AcDbEntity
  8
CORTES_INTERIORES
100
AcDbLine
 10
182.1229605788678
 20
18.94838791833566
 30
0.0
 11
185.7111240906063
 21
15.32415246613018
 31
0.0
  0
LINE
  5
12AA
330
6F
100
AcDbEntity
  8
CORTES_INTERIORES
100
AcDbLine
 10
185.7111240906063
 20
15.32415246613018
 30
0.0
 11
185.0360214083327
 21
14.6557690668844
 31
0.0
  0
LINE
  5
12AB
330
6F
100
AcDbEntity
  8
CORTES_INTERIORES
100
AcDbLine
 10
185.0360214083327
 20
14.6557690668844
 30
0.0
 11
185.7044048075786
 21
13.98066638461082
 31
0.0
  0
LINE
  5
12AC
330
6F
100
AcDbEntity
  8
CORTES_INTERIORES
100
AcDbLine
 10
185.7044048075786
 20
13.98066638461082
 30
0.0
 11
182.080169355373
 21
10.39250287287219
 31
0.0
  0
CIRCLE
  5
12AD
330
6F
100
AcDbEntity
  8
CORTES_INTERIORES
100
AcDbCircle
 10
173.4386719484311
 20
6.664964794596038
 30
0.0
 40
1.0
  0
CIRCLE
  5
12AE
330
6F
100
AcDbEntity
  8
CORTES_INTERIORES
100
AcDbCircle
 10
173.4209816838389
 20
22.6649550150474
 30
0.0
 40
1.0
  0
CIRCLE
  5
12AF
330
6F
100
AcDbEntity
  8
CORTES_INTERIORES
100
AcDbCircle
 10
189.4209719042903
 20
22.68264527963967
 30
0.0
 40
1.0
  0
CIRCLE
  5
12B0
330
6F
100
AcDbEntity
  8
CORTES_INTERIORES
100
AcDbCircle
 10
189.4386621688826
 20
6.682655059188299
 30
0.0
 40
1.0
  0
ARC
  5
12B1
330
6F
100
AcDbEntity
  8
0
  6
Continuous
100
AcDbCircle
 10
181.4298219263607
 20
14.67380503711782
 30
0.0
 40
15.0
100
AcDbArc
 50
96.3222812180151
 51
338.5909003078014
  0
ARC
  5
12B2
330
6F
100
AcDbEntity
  8
0
  6
Continuous
100
AcDbCircle
 10
200.0497790171458
 20
7.373312044358691
 30
0.0
 40
5.0
100
AcDbArc
 50
122.1068043616247
 51
158.5909003078012
  0
ARC
  5
12B3
330
6F
100
AcDbEntity
  8
0
  6
Continuous
100
AcDbCircle
 10
179.2274052277168
 20
34.55216917216509
 30
0.0
 40
5.0
100
AcDbArc
 50
276.3222812180147
 51
320.4749359942406
  0
LINE
  5
12B4
330
6F
100
AcDbEntity
  8
FRAME
100
AcDbLine
 10
183.0841365152945
 20
31.37009064148443
 30
0.0
 11
242.9448759736181
 21
103.9222871195117
 31
0.0
  0
ARC
  5
12B5
330
6F
100
AcDbEntity
  8
FRAME
100
AcDbCircle
 10
227.5179508233071
 20
116.6506012422344
 30
0.0
 40
20.0
100
AcDbArc
 50
320.4749359942403
 51
0.0950229099480386
  0
LINE
  5
12B6
330
6F
100
AcDbEntity
  8
FRAME
100
AcDbLine
 10
247.5179233183299
 20
116.6837704798974
 30
0.0
 11
247.493385380006
 21
131.4793499426827
 31
0.0
  0
LINE
  5
12B7
330
6F
100
AcDbEntity
  8
FRAME
100
AcDbLine
 10
327.8399019050822
 20
131.5237671792695
 30
0.0
 11
327.8475038454739
 21
117.7725868662875
 31
0.0
  0
LINE
  5
12B8
330
6F
100
AcDbEntity
  8
FRAME
100
AcDbLine
 10
332.4487592445106
 20
105.0212470022883
 30
0.0
 11
393.4386526787615
 21
31.43258973452404
 31
0.0
  0
ARC
  5
12B9
330
6F
100
AcDbEntity
  8
FRAME
100
AcDbCircle
 10
347.8475007893647
 20
117.7836432833471
 30
0.0
 40
20.0
100
AcDbArc
 50
180.031674303316
 51
219.6517612190235
  0
ARC
  5
12BA
330
6F
100
AcDbEntity
  8
CORTES_INTERIORES
100
AcDbCircle
 10
270.7495418031233
 20
181.8906507807847
 30
0.0
 40
10.00000000000015
100
AcDbArc
 50
89.01347109635383
 51
270.0
  0
ARC
  5
12BB
330
6F
100
AcDbEntity
  8
CORTES_INTERIORES
100
AcDbCircle
 10
305.2524556088434
 20
181.8906507807849
 30
0.0
 40
10.0000000000001
100
AcDbArc
 50
270.0
 51
90.0
  0
LINE
  5
12BC
330
6F
100
AcDbEntity
  8
CORTES_INTERIORES
100
AcDbLine
 10
305.2524556088434
 20
191.890650780785
 30
0.0
 11
305.2524556088434
 21
191.889168489218
 31
0.0
  0
CIRCLE
  5
12BD
330
6F
100
AcDbEntity
  8
CORTES_INTERIORES
  6
Continuous
100
AcDbCircle
 10
265.0869442639694
 20
112.0240084468204
 30
0.0
 40
1.5
  0
CIRCLE
  5
12BE
330
6F
100
AcDbEntity
  8
CORTES_INTERIORES
  6
Continuous
100
AcDbCircle
 10
310.0869442639695
 20
112.0240084468204
 30
0.0
 40
1.5
  0
CIRCLE
  5
12BF
330
6F
100
AcDbEntity
  8
CORTES_INTERIORES
  6
Continuous
100
AcDbCircle
 10
265.0869442639694
 20
157.0240084468204
 30
0.0
 40
1.5
  0
CIRCLE
  5
12C0
330
6F
100
AcDbEntity
  8
CORTES_INTERIORES
  6
Continuous
100
AcDbCircle
 10
310.0869442639695
 20
157.0240084468204
 30
0.0
 40
1.5
  0
LINE
  5
12C1
330
6F
100
AcDbEntity
  8
0
  6
Continuous
100
AcDbLine
 10
234.1341072388989
 20
34.75442833905478
 30
0.0
 11
197.392283123591
 21
11.60860608087366
 31
0.0
  0
LINE
  5
12C2
330
6F
100
AcDbEntity
  8
CORTES_INTERIORES
100
AcDbLine
 10
305.2524556088434
 20
191.889168489218
 30
0.0
 11
288.0870853398884
 21
191.889168489218
 31
0.0
  0
ARC
  5
12C3
330
6F
100
AcDbEntity
  8
0
  6
Continuous
100
AcDbCircle
 10
287.7599242870298
 20
-20.27744798021795
 30
0.0
 40
76.83902436457225
100
AcDbArc
 50
45.74137972498561
 51
90.29161329832571
  0
LINE
  5
12C4
330
6F
100
AcDbEntity
  8
CORTES_INTERIORES
100
AcDbLine
 10
270.2933312511039
 20
81.75988312079934
 30
0.0
 11
287.3974027194951
 21
81.75988312079946
 31
0.0
  0
ARC
  5
12C5
330
6F
100
AcDbEntity
  8
0
  6
Continuous
100
AcDbCircle
 10
287.7599242870298
 20
-20.27744798021795
 30
0.0
 40
76.83902436457225
100
AcDbArc
 50
90.29161329832571
 51
134.258618849122
  0
LINE
  5
12C6
330
6F
100
AcDbEntity
  8
CORTES_INTERIORES
100
AcDbLine
 10
304.7962450568242
 20
101.7584008292328
 30
0.0
 11
287.4200664133244
 21
101.7584008292328
 31
0.0
  0
LINE
  5
12C7
330
6F
100
AcDbEntity
  8
CORTES_INTERIORES
100
AcDbLine
 10
287.3974027194951
 20
81.75988312079946
 30
0.0
 11
304.7962450568242
 21
81.75988312079957
 31
0.0
  0
LINE
  5
12C8
330
6F
100
AcDbEntity
  8
CORTES_INTERIORES
100
AcDbLine
 10
270.7495418031233
 20
171.8906507807845
 30
0.0
 11
287.4995450958776
 21
171.8906507807846
 31
0.0
  0
LINE
  5
12C9
330
6F
100
AcDbEntity
  8
CORTES_INTERIORES
100
AcDbLine
 10
287.4200664133244
 20
101.7584008292328
 30
0.0
 11
270.4655045189141
 21
101.7584008292328
 31
0.0
  0
LINE
  5
12CA
330
6F
100
AcDbEntity
  8
CORTES_INTERIORES
100
AcDbLine
 10
287.4995450958776
 20
171.8906507807846
 30
0.0
 11
305.2524556088434
 21
171.8906507807848
 31
0.0
  0
LINE
  5
12CB
330
6F
100
AcDbEntity
  8
CORTES_INTERIORES
100
AcDbLine
 10
288.0870853398884
 20
191.889168489218
 30
0.0
 11
287.5222087897072
 21
191.889168489218
 31
0.0
  0
LINE
  5
12CC
330
6F
100
AcDbEntity
  8
CORTES_INTERIORES
100
AcDbLine
 10
287.5222087897072
 20
191.889168489218
 30
0.0
 11
270.9217150709333
 21
191.889168489218
 31
0.0
  0
LINE
  5
12CD
330
6F
100
AcDbEntity
  8
CORTES_INTERIORES
100
AcDbLine
 10
304.9182432389372
 20
150.8979782378339
 30
0.0
 11
304.9182432389372
 21
150.8964959462669
 31
0.0
  0
LINE
  5
12CE
330
6F
100
AcDbEntity
  8
CORTES_INTERIORES
100
AcDbLine
 10
304.9182432389372
 20
150.8964959462669
 30
0.0
 11
270.5875027010271
 21
150.8964959462669
 31
0.0
  0
ARC
  5
12CF
330
6F
100
AcDbEntity
  8
CORTES_INTERIORES
  6
Continuous
100
AcDbCircle
 10
279.2552585600295
 20
134.7020453058477
 30
0.0
 40
18.39924862356009
100
AcDbArc
 50
118.3275017147635
 51
241.6724982852363
  0
ARC
  5
12D0
330
6F
100
AcDbEntity
  8
CORTES_INTERIORES
  6
Continuous
100
AcDbCircle
 10
296.2223978854262
 20
134.7020453058477
 30
0.0
 40
18.39924862356009
100
AcDbArc
 50
298.3275017147637
 51
61.6724982852363
  0
LINE
  5
12D1
330
6F
100
AcDbEntity
  8
CORTES_INTERIORES
100
AcDbLine
 10
270.5246167523395
 20
118.5061123738612
 30
0.0
 11
304.9182432389372
 21
118.5061123738615
 31
0.0
  0
CIRCLE
  5
12D2
330
6F
100
AcDbEntity
  8
CORTES_INTERIORES
100
AcDbCircle
 10
282.3474731748677
 20
205.3198656106776
 30
0.0
 40
1.5
  0
CIRCLE
  5
12D3
330
6F
100
AcDbEntity
  8
CORTES_INTERIORES
100
AcDbCircle
 10
292.6107017201458
 20
205.2629989474355
 30
0.0
 40
1.5
  0
CIRCLE
  5
12D4
330
6F
100
AcDbEntity
  8
CORTES_INTERIORES
100
AcDbCircle
 10
292.4564315660167
 20
69.13450937136221
 30
0.0
 40
1.5
  0
CIRCLE
  5
12D5
330
6F
100
AcDbEntity
  8
CORTES_INTERIORES
100
AcDbCircle
 10
282.1932030207386
 20
69.1913760346043
 30
0.0
 40
1.5
  0
LINE
  5
12D7
330
6F
100
AcDbEntity
  8
0
  6
Continuous
100
AcDbLine
 10
387.6946123579584
 20
57.36625250034569
 30
0.0
 11
387.7190736830581
 21
82.56462254035557
 31
0.0
  0
LINE
  5
12DA
330
6F
100
AcDbEntity
  8
FRAME
100
AcDbLine
 10
387.8065681521736
 20
172.6953902003407
 30
0.0
 11
405.2857707090776
 21
172.6953902003409
 31
0.0
  0
LINE
  5
12DC
330
6F
100
AcDbEntity
  8
FRAME
100
AcDbLine
 10
387.7547450958726
 20
119.3108517934175
 30
0.0
 11
404.9515583391714
 21
119.3108517934176
 31
0.0
  0
LINE
  5
12E1
330
6F
100
AcDbEntity
  8
FRAME
100
AcDbLine
 10
387.851106839427
 20
218.5760740117408
 30
0.0
 11
387.5165686074403
 21
218.5730631676529
 31
0.0
  0
LINE
  5
12E4
330
6F
100
AcDbEntity
  8
FRAME
100
AcDbLine
 10
387.7190736830581
 20
82.56462254035557
 30
0.0
 11
404.8295601570584
 21
82.56462254035569
 31
0.0
  0
LINE
  5
12E5
330
6F
100
AcDbEntity
  8
0
  6
Continuous
100
AcDbLine
 10
387.7384872499835
 20
102.5631402487889
 30
0.0
 11
387.7547450958726
 21
119.3108517934175
 31
0.0
  0
LINE
  5
12E8
330
6F
100
AcDbEntity
  8
0
  6
Continuous
100
AcDbLine
 10
387.7861880702163
 20
151.701235365823
 30
0.0
 11
387.8065681521736
 21
172.6953902003407
 31
0.0
  0
LINE
  5
12EA
330
6F
100
AcDbEntity
  8
0
  6
Continuous
100
AcDbLine
 10
387.8259817190989
 20
192.6939079087741
 30
0.0
 11
387.8511036013982
 21
218.5727384177095
 31
0.0
  0
LINE
  5
1401
330
6F
100
AcDbEntity
  8
FRAME
100
AcDbLine
 10
379.4892295237619
 20
305.1347635078453
 30
0.0
 11
402.5027758378187
 21
341.9020548288415
 31
0.0
  0
LINE
  5
1402
330
6F
100
AcDbEntity
  8
FRAME
100
AcDbLine
 10
382.7254836746501
 20
356.1883435735238
 30
0.0
 11
310.2395160620878
 21
296.247423981361
 31
0.0
  0
LINE
  5
1403
330
6F
100
AcDbEntity
  8
FRAME
 62
     0
100
AcDbLine
 10
297.4830966528939
 20
291.6602698057179
 30
0.0
 11
282.6874991033253
 21
291.6684491218255
 31
0.0
  0
ARC
  5
1404
330
6F
100
AcDbEntity
  8
FRAME
100
AcDbCircle
 10
297.4941530699535
 20
311.6602667496088
 30
0.0
 40
20.0
100
AcDbArc
 50
269.9683256966839
 51
309.5884126123919
  0
LINE
  5
1437
330
6F
100
AcDbEntity
  8
FRAME
100
AcDbLine
 10
368.9764729087393
 20
251.6785809946255
 30
0.0
 11
369.1080885035753
 21
266.3025359769535
 31
0.0
  0
LINE
  5
1438
330
6F
100
AcDbEntity
  8
FRAME
100
AcDbLine
 10
369.1080885035753
 20
266.3025359769535
 30
0.0
 11
369.2877013865144
 21
270.7944761846945
 31
0.0
  0
LINE
  5
1439
330
6F
100
AcDbEntity
  8
FRAME
100
AcDbLine
 10
369.2877013865144
 20
270.7944761846945
 30
0.0
 11
369.4189099427993
 21
272.9212237821914
 31
0.0
  0
LINE
  5
143A
330
6F
100
AcDbEntity
  8
FRAME
100
AcDbLine
 10
369.4189099427993
 20
272.9212237821914
 30
0.0
 11
369.5826723612893
 21
274.9596932473614
 31
0.0
  0
LINE
  5
143B
330
6F
100
AcDbEntity
  8
FRAME
100
AcDbLine
 10
369.5826723612893
 20
274.9596932473614
 30
0.0
 11
369.7821468716723
 21
276.8961829554905
 31
0.0
  0
LINE
  5
143C
330
6F
100
AcDbEntity
  8
FRAME
100
AcDbLine
 10
369.7821468716723
 20
276.8961829554905
 30
0.0
 11
370.0211107176893
 21
278.7244269227435
 31
0.0
  0
LINE
  5
143D
330
6F
100
AcDbEntity
  8
FRAME
100
AcDbLine
 10
370.0211107176893
 20
278.7244269227435
 30
0.0
 11
370.1552292941223
 21
279.5868766395304
 31
0.0
  0
LINE
  5
143E
330
6F
100
AcDbEntity
  8
FRAME
100
AcDbLine
 10
370.1552292941223
 20
279.5868766395304
 30
0.0
 11
370.3007264354713
 21
280.4207321169965
 31
0.0
  0
LINE
  5
143F
330
6F
100
AcDbEntity
  8
FRAME
100
AcDbLine
 10
370.3007264354713
 20
280.4207321169965
 30
0.0
 11
370.4573093443153
 21
281.2207640145214
 31
0.0
  0
LINE
  5
1440
330
6F
100
AcDbEntity
  8
FRAME
100
AcDbLine
 10
370.4573093443153
 20
281.2207640145214
 30
0.0
 11
370.6252266827283
 21
281.9854823178896
 31
0.0
  0
LINE
  5
1441
330
6F
100
AcDbEntity
  8
FRAME
100
AcDbLine
 10
370.6252266827283
 20
281.9854823178896
 30
0.0
 11
370.8046677662183
 21
282.7133587742214
 31
0.0
  0
LINE
  5
1442
330
6F
100
AcDbEntity
  8
FRAME
100
AcDbLine
 10
370.8046677662183
 20
282.7133587742214
 30
0.0
 11
370.9957443298793
 21
283.4028248785946
 31
0.0
  0
LINE
  5
1443
330
6F
100
AcDbEntity
  8
FRAME
100
AcDbLine
 10
370.9957443298793
 20
283.4028248785946
 30
0.0
 11
371.1998891033193
 21
284.0568293456965
 31
0.0
  0
LINE
  5
1444
330
6F
100
AcDbEntity
  8
FRAME
100
AcDbLine
 10
371.1998891033193
 20
284.0568293456965
 30
0.0
 11
371.3041935652123
 21
284.3619844992334
 31
0.0
  0
LINE
  5
1445
330
6F
100
AcDbEntity
  8
FRAME
100
AcDbLine
 10
371.3041935652123
 20
284.3619844992334
 30
0.0
 11
371.4127898141633
 21
284.6607191917415
 31
0.0
  0
LINE
  5
1446
330
6F
100
AcDbEntity
  8
FRAME
100
AcDbLine
 10
371.4127898141633
 20
284.6607191917415
 30
0.0
 11
371.5244361781993
 21
284.9494362977625
 31
0.0
  0
LINE
  5
1447
330
6F
100
AcDbEntity
  8
FRAME
100
AcDbLine
 10
371.5244361781993
 20
284.9494362977625
 30
0.0
 11
371.6392188294503
 21
285.2291612329734
 31
0.0
  0
LINE
  5
1448
330
6F
100
AcDbEntity
  8
FRAME
100
AcDbLine
 10
371.6392188294503
 20
285.2291612329734
 30
0.0
 11
371.7570674023753
 21
285.5006488139395
 31
0.0
  0
LINE
  5
1449
330
6F
100
AcDbEntity
  8
FRAME
100
AcDbLine
 10
371.7570674023753
 20
285.5006488139395
 30
0.0
 11
371.8778812796654
 21
285.7645494938915
 31
0.0
  0
LINE
  5
144A
330
6F
100
AcDbEntity
  8
FRAME
100
AcDbLine
 10
371.8778812796654
 20
285.7645494938915
 30
0.0
 11
372.0015689277163
 21
286.0215116232885
 31
0.0
  0
LINE
  5
144B
330
6F
100
AcDbEntity
  8
FRAME
100
AcDbLine
 10
372.0015689277163
 20
286.0215116232885
 30
0.0
 11
372.1261360370933
 21
286.2683931206213
 31
0.0
  0
LINE
  5
144C
330
6F
100
AcDbEntity
  8
FRAME
100
AcDbLine
 10
372.1261360370933
 20
286.2683931206213
 30
0.0
 11
372.3894266361993
 21
286.7576292055326
 31
0.0
  0
LINE
  5
144D
330
6F
100
AcDbEntity
  8
FRAME
100
AcDbLine
 10
372.3894266361993
 20
286.7576292055326
 30
0.0
 11
372.6607500270473
 21
287.2251016865855
 31
0.0
  0
LINE
  5
144E
330
6F
100
AcDbEntity
  8
FRAME
100
AcDbLine
 10
372.6607500270473
 20
287.2251016865855
 30
0.0
 11
372.9373248782574
 21
287.6726809876825
 31
0.0
  0
LINE
  5
144F
330
6F
100
AcDbEntity
  8
FRAME
100
AcDbLine
 10
372.9373248782574
 20
287.6726809876825
 30
0.0
 11
375.0977729828033
 21
290.8812414465744
 31
0.0
  0
LINE
  5
1450
330
6F
100
AcDbEntity
  8
FRAME
100
AcDbLine
 10
375.0977729828033
 20
290.8812414465744
 30
0.0
 11
375.4209889426533
 21
291.4006211610474
 31
0.0
  0
LINE
  5
1451
330
6F
100
AcDbEntity
  8
FRAME
100
AcDbLine
 10
375.4209889426533
 20
291.4006211610474
 30
0.0
 11
375.7373644841034
 21
291.9393921991525
 31
0.0
  0
LINE
  5
1452
330
6F
100
AcDbEntity
  8
FRAME
100
AcDbLine
 10
375.7373644841034
 20
291.9393921991525
 30
0.0
 11
376.0487871597193
 21
292.5077145841556
 31
0.0
  0
LINE
  5
1453
330
6F
100
AcDbEntity
  8
FRAME
100
AcDbLine
 10
376.0487871597193
 20
292.5077145841556
 30
0.0
 11
376.3511475568213
 21
293.1052325621215
 31
0.0
  0
LINE
  5
1454
330
6F
100
AcDbEntity
  8
FRAME
100
AcDbLine
 10
376.3511475568213
 20
293.1052325621215
 30
0.0
 11
376.5019263167543
 21
293.4234808957924
 31
0.0
  0
LINE
  5
1455
330
6F
100
AcDbEntity
  8
FRAME
100
AcDbLine
 10
376.5019263167543
 20
293.4234808957924
 30
0.0
 11
376.6484081148784
 21
293.7475888508745
 31
0.0
  0
LINE
  5
1456
330
6F
100
AcDbEntity
  8
FRAME
100
AcDbLine
 10
376.6484081148784
 20
293.7475888508745
 30
0.0
 11
376.7921697659173
 21
294.0818234514904
 31
0.0
  0
LINE
  5
1457
330
6F
100
AcDbEntity
  8
FRAME
100
AcDbLine
 10
376.7921697659173
 20
294.0818234514904
 30
0.0
 11
376.9329889519533
 21
294.4266380606296
 31
0.0
  0
LINE
  5
1458
330
6F
100
AcDbEntity
  8
FRAME
100
AcDbLine
 10
376.9329889519533
 20
294.4266380606296
 30
0.0
 11
377.0706518510203
 21
294.7824885162065
 31
0.0
  0
LINE
  5
1459
330
6F
100
AcDbEntity
  8
FRAME
100
AcDbLine
 10
377.0706518510203
 20
294.7824885162065
 30
0.0
 11
377.2049530797094
 21
295.1498342285633
 31
0.0
  0
LINE
  5
145A
330
6F
100
AcDbEntity
  8
FRAME
100
AcDbLine
 10
377.2049530797094
 20
295.1498342285633
 30
0.0
 11
377.3356954091464
 21
295.5291391375595
 31
0.0
  0
LINE
  5
145B
330
6F
100
AcDbEntity
  8
FRAME
100
AcDbLine
 10
377.3356954091464
 20
295.5291391375595
 30
0.0
 11
377.4626892922643
 21
295.9208725024785
 31
0.0
  0
LINE
  5
145C
330
6F
100
AcDbEntity
  8
FRAME
100
AcDbLine
 10
377.4626892922643
 20
295.9208725024785
 30
0.0
 11
377.5857522445023
 21
296.3255095093334
 31
0.0
  0
LINE
  5
145D
330
6F
100
AcDbEntity
  8
FRAME
100
AcDbLine
 10
377.5857522445023
 20
296.3255095093334
 30
0.0
 11
377.7059144482893
 21
296.7477708387216
 31
0.0
  0
LINE
  5
145E
330
6F
100
AcDbEntity
  8
FRAME
100
AcDbLine
 10
377.7059144482893
 20
296.7477708387216
 30
0.0
 11
377.9297111093703
 21
297.6216022519825
 31
0.0
  0
LINE
  5
145F
330
6F
100
AcDbEntity
  8
FRAME
100
AcDbLine
 10
377.9297111093703
 20
297.6216022519825
 30
0.0
 11
378.1361930406043
 21
298.5592243900426
 31
0.0
  0
LINE
  5
1460
330
6F
100
AcDbEntity
  8
FRAME
100
AcDbLine
 10
378.1361930406043
 20
298.5592243900426
 30
0.0
 11
378.3229976506353
 21
299.5604236272695
 31
0.0
  0
LINE
  5
1461
330
6F
100
AcDbEntity
  8
FRAME
100
AcDbLine
 10
378.3229976506353
 20
299.5604236272695
 30
0.0
 11
378.4888926244183
 21
300.6293744171235
 31
0.0
  0
LINE
  5
1462
330
6F
100
AcDbEntity
  8
FRAME
100
AcDbLine
 10
378.4888926244183
 20
300.6293744171235
 30
0.0
 11
378.6326580788743
 21
301.7703275756314
 31
0.0
  0
LINE
  5
1463
330
6F
100
AcDbEntity
  8
FRAME
100
AcDbLine
 10
378.6326580788743
 20
301.7703275756314
 30
0.0
 11
378.7517456190199
 21
302.974165594534
 31
0.0
  0
ARC
  5
1464
330
6F
100
AcDbEntity
  8
FRAME
100
AcDbCircle
 10
383.7274592094172
 20
302.4819519556181
 30
0.0
 40
5.0
100
AcDbArc
 50
147.9565442450079
 51
174.3504971327969
  0
CIRCLE
  5
1471
330
6F
100
AcDbEntity
  8
CORTES_INTERIORES
100
AcDbCircle
 10
362.5328247404623
 20
303.7892444268775
 30
0.0
 40
1.5
  0
CIRCLE
  5
1473
330
6F
100
AcDbEntity
  8
CORTES_INTERIORES
100
AcDbCircle
 10
243.9809095923513
 20
290.9155894440905
 30
0.0
 40
1.5
  0
CIRCLE
  5
1475
330
6F
100
AcDbEntity
  8
CORTES_INTERIORES
100
AcDbCircle
 10
324.2168643386083
 20
290.9155894391486
 30
0.0
 40
1.5
  0
CIRCLE
  5
1477
330
6F
100
AcDbEntity
  8
CORTES_INTERIORES
100
AcDbCircle
 10
336.5929583342443
 20
291.5905894496595
 30
0.0
 40
1.5
  0
CIRCLE
  5
147A
330
6F
100
AcDbEntity
  8
CORTES_INTERIORES
100
AcDbCircle
 10
223.0716094808154
 20
303.9527723810286
 30
0.0
 40
1.5
  0
ARC
  5
147F
330
6F
100
AcDbEntity
  8
FRAME
100
AcDbCircle
 10
242.968032281442
 20
268.8685032507274
 30
0.0
 40
10.00000000000015
100
AcDbArc
 50
359.0134710963538
 51
179.9999999999987
  0
LINE
  5
1485
330
6F
100
AcDbEntity
  8
CORTES_INTERIORES
100
AcDbLine
 10
403.7019485935098
 20
357.215503812182
 30
0.0
 11
403.0261073314248
 21
357.88314038133
 31
0.0
  0
LINE
  5
1486
330
6F
100
AcDbEntity
  8
CORTES_INTERIORES
100
AcDbLine
 10
403.0261073314248
 20
357.88314038133
 30
0.0
 11
403.6937439005729
 21
358.558981643415
 31
0.0
  0
LINE
  5
1487
330
6F
100
AcDbEntity
  8
CORTES_INTERIORES
100
AcDbLine
 10
403.6937439005729
 20
358.558981643415
 30
0.0
 11
400.0655434409578
 21
362.1431358567349
 31
0.0
  0
LINE
  5
1488
330
6F
100
AcDbEntity
  8
CORTES_INTERIORES
100
AcDbLine
 10
400.0655434409578
 20
362.1431358567349
 30
0.0
 11
399.3979068718108
 21
361.467294594649
 31
0.0
  0
LINE
  5
1489
330
6F
100
AcDbEntity
  8
CORTES_INTERIORES
100
AcDbLine
 10
399.3979068718108
 20
361.467294594649
 30
0.0
 11
398.7220656097248
 21
362.134931163797
 31
0.0
  0
LINE
  5
148A
330
6F
100
AcDbEntity
  8
CORTES_INTERIORES
100
AcDbLine
 10
398.7220656097248
 20
362.134931163797
 30
0.0
 11
395.1379113964059
 21
358.5067307041829
 31
0.0
  0
LINE
  5
148B
330
6F
100
AcDbEntity
  8
CORTES_INTERIORES
100
AcDbLine
 10
395.1379113964059
 20
358.5067307041829
 30
0.0
 11
395.8137526584908
 21
357.8390941350349
 31
0.0
  0
LINE
  5
148C
330
6F
100
AcDbEntity
  8
CORTES_INTERIORES
100
AcDbLine
 10
395.8137526584908
 20
357.8390941350349
 30
0.0
 11
395.1461160893438
 21
357.16325287295
 31
0.0
  0
LINE
  5
148D
330
6F
100
AcDbEntity
  8
CORTES_INTERIORES
100
AcDbLine
 10
395.1461160893438
 20
357.16325287295
 30
0.0
 11
398.7743165489578
 21
353.579098659631
 31
0.0
  0
LINE
  5
148E
330
6F
100
AcDbEntity
  8
CORTES_INTERIORES
100
AcDbLine
 10
398.7743165489578
 20
353.579098659631
 30
0.0
 11
399.4419531181059
 21
354.254939921716
 31
0.0
  0
LINE
  5
148F
330
6F
100
AcDbEntity
  8
CORTES_INTERIORES
100
AcDbLine
 10
399.4419531181059
 20
354.254939921716
 30
0.0
 11
400.1177943801908
 21
353.587303352568
 31
0.0
  0
LINE
  5
1490
330
6F
100
AcDbEntity
  8
CORTES_INTERIORES
100
AcDbLine
 10
400.1177943801908
 20
353.587303352568
 30
0.0
 11
403.7019485935098
 21
357.215503812182
 31
0.0
  0
CIRCLE
  5
1491
330
6F
100
AcDbEntity
  8
CORTES_INTERIORES
100
AcDbCircle
 10
407.4199299949583
 20
365.8611172581825
 30
0.0
 40
1.0
  0
CIRCLE
  5
1492
330
6F
100
AcDbEntity
  8
CORTES_INTERIORES
100
AcDbCircle
 10
391.4199299949584
 20
365.8611172581825
 30
0.0
 40
1.0
  0
CIRCLE
  5
1493
330
6F
100
AcDbEntity
  8
CORTES_INTERIORES
100
AcDbCircle
 10
391.4199299949584
 20
349.8611172581825
 30
0.0
 40
1.0
  0
CIRCLE
  5
1494
330
6F
100
AcDbEntity
  8
CORTES_INTERIORES
100
AcDbCircle
 10
407.4199299949583
 20
349.8611172581825
 30
0.0
 40
1.0
  0
ARC
  5
1495
330
6F
100
AcDbEntity
  8
0
  6
Continuous
100
AcDbCircle
 10
399.4199299949584
 20
357.8611172581825
 30
0.0
 40
15.0
100
AcDbArc
 50
291.4724482988294
 51
173.7410673886172
  0
ARC
  5
1496
330
6F
100
AcDbEntity
  8
0
  6
Continuous
100
AcDbCircle
 10
406.7410055234741
 20
339.2492432766144
 30
0.0
 40
5.0
100
AcDbArc
 50
111.4724482988299
 51
147.9565442450079
  0
ARC
  5
1497
330
6F
100
AcDbEntity
  8
0
  6
Continuous
100
AcDbCircle
 10
379.5391429266165
 20
360.0415542655857
 30
0.0
 40
5.0
100
AcDbArc
 50
309.5884126123929
 51
353.7410673886171
  0
LINE
  5
14AC
330
6F
100
AcDbEntity
  8
CORTES_INTERIORES
100
AcDbLine
 10
161.6006520335147
 20
357.0816651464586
 30
0.0
 11
162.2757547157884
 21
357.7500485457043
 31
0.0
  0
LINE
  5
14AD
330
6F
100
AcDbEntity
  8
CORTES_INTERIORES
100
AcDbLine
 10
162.2757547157884
 20
357.7500485457043
 30
0.0
 11
161.6073713165426
 21
358.4251512279781
 31
0.0
  0
LINE
  5
14AE
330
6F
100
AcDbEntity
  8
CORTES_INTERIORES
100
AcDbLine
 10
161.6073713165426
 20
358.4251512279781
 30
0.0
 11
165.2316067687491
 21
362.0133147397177
 31
0.0
  0
LINE
  5
14AF
330
6F
100
AcDbEntity
  8
CORTES_INTERIORES
100
AcDbLine
 10
165.2316067687491
 20
362.0133147397177
 30
0.0
 11
165.8999901679938
 21
361.338212057443
 31
0.0
  0
LINE
  5
14B0
330
6F
100
AcDbEntity
  8
CORTES_INTERIORES
100
AcDbLine
 10
165.8999901679938
 20
361.338212057443
 30
0.0
 11
166.5750928502684
 21
362.0065954566887
 31
0.0
  0
LINE
  5
14B1
330
6F
100
AcDbEntity
  8
CORTES_INTERIORES
100
AcDbLine
 10
166.5750928502684
 20
362.0065954566887
 30
0.0
 11
170.1632563620071
 21
358.3823600044832
 31
0.0
  0
LINE
  5
14B2
330
6F
100
AcDbEntity
  8
CORTES_INTERIORES
100
AcDbLine
 10
170.1632563620071
 20
358.3823600044832
 30
0.0
 11
169.4881536797334
 21
357.7139766052375
 31
0.0
  0
LINE
  5
14B3
330
6F
100
AcDbEntity
  8
CORTES_INTERIORES
100
AcDbLine
 10
169.4881536797334
 20
357.7139766052375
 30
0.0
 11
170.1565370789782
 21
357.0388739229638
 31
0.0
  0
LINE
  5
14B4
330
6F
100
AcDbEntity
  8
CORTES_INTERIORES
100
AcDbLine
 10
170.1565370789782
 20
357.0388739229638
 30
0.0
 11
166.5323016267727
 21
353.4507104112253
 31
0.0
  0
LINE
  5
14B5
330
6F
100
AcDbEntity
  8
CORTES_INTERIORES
100
AcDbLine
 10
166.5323016267727
 20
353.4507104112253
 30
0.0
 11
165.8639182275269
 21
354.1258130934989
 31
0.0
  0
LINE
  5
14B6
330
6F
100
AcDbEntity
  8
CORTES_INTERIORES
100
AcDbLine
 10
165.8639182275269
 20
354.1258130934989
 30
0.0
 11
165.1888155452534
 21
353.4574296942531
 31
0.0
  0
LINE
  5
14B7
330
6F
100
AcDbEntity
  8
CORTES_INTERIORES
100
AcDbLine
 10
165.1888155452534
 20
353.4574296942531
 30
0.0
 11
161.6006520335147
 21
357.0816651464586
 31
0.0
  0
CIRCLE
  5
14B8
330
6F
100
AcDbEntity
  8
CORTES_INTERIORES
100
AcDbCircle
 10
157.8731139552386
 20
365.7231625534005
 30
0.0
 40
1.0
  0
CIRCLE
  5
14B9
330
6F
100
AcDbEntity
  8
CORTES_INTERIORES
100
AcDbCircle
 10
173.8731041756899
 20
365.7408528179927
 30
0.0
 40
1.0
  0
CIRCLE
  5
14BA
330
6F
100
AcDbEntity
  8
CORTES_INTERIORES
100
AcDbCircle
 10
173.8907944402822
 20
349.7408625975413
 30
0.0
 40
1.0
  0
CIRCLE
  5
14BB
330
6F
100
AcDbEntity
  8
CORTES_INTERIORES
100
AcDbCircle
 10
157.8908042198308
 20
349.723172332949
 30
0.0
 40
1.0
  0
ARC
  5
14BC
330
6F
100
AcDbEntity
  8
0
  6
Continuous
100
AcDbCircle
 10
165.8819541977604
 20
357.7320125754709
 30
0.0
 40
15.0
100
AcDbArc
 50
6.322281218015103
 51
248.5909003078015
  0
ARC
  5
14BD
330
6F
100
AcDbEntity
  8
0
  6
Continuous
100
AcDbCircle
 10
158.5814612050012
 20
339.1120554846858
 30
0.0
 40
5.0
100
AcDbArc
 50
32.10680436162467
 51
68.59090030780132
  0
ARC
  5
14BE
330
6F
100
AcDbEntity
  8
0
  6
Continuous
100
AcDbCircle
 10
185.7603183328076
 20
359.9344292741148
 30
0.0
 40
5.0
100
AcDbArc
 50
186.3222812180146
 51
230.4749359942406
  0
LINE
  5
14BF
330
6F
100
AcDbEntity
  8
FRAME
100
AcDbLine
 10
182.578239802127
 20
356.0776979865371
 30
0.0
 11
255.1304362801542
 21
296.2169585282134
 31
0.0
  0
ARC
  5
14C0
330
6F
100
AcDbEntity
  8
FRAME
100
AcDbCircle
 10
267.8587504028769
 20
311.6438836785244
 30
0.0
 40
20.0
100
AcDbArc
 50
230.4749359942402
 51
270.0950229099481
  0
LINE
  5
14C1
330
6F
100
AcDbEntity
  8
FRAME
100
AcDbLine
 10
267.8919196405399
 20
291.6439111835016
 30
0.0
 11
282.6874991033253
 21
291.6684491218255
 31
0.0
  0
ARC
  5
14C5
330
6F
100
AcDbEntity
  8
FRAME
100
AcDbCircle
 10
333.0987999414272
 20
268.4122926987081
 30
0.0
 40
10.00000000000015
100
AcDbArc
 50
359.0134710963538
 51
180.0
  0
CIRCLE
  5
14C8
330
6F
100
AcDbEntity
  8
CORTES_INTERIORES
  6
Continuous
100
AcDbCircle
 10
263.2321576074629
 20
274.0748902378621
 30
0.0
 40
1.5
  0
CIRCLE
  5
14CA
330
6F
100
AcDbEntity
  8
CORTES_INTERIORES
  6
Continuous
100
AcDbCircle
 10
308.2321576074629
 20
274.0748902378621
 30
0.0
 40
1.5
  0
LINE
  5
14CC
330
6F
100
AcDbEntity
  8
0
  6
Continuous
100
AcDbLine
 10
185.9625774996973
 20
305.0277272629327
 30
0.0
 11
162.8167552415162
 21
341.7695513782406
 31
0.0
  0
ARC
  5
14CE
330
6F
100
AcDbEntity
  8
FRAME
  6
Continuous
100
AcDbCircle
 10
285.9101944664902
 20
259.906575941802
 30
0.0
 40
18.39924862356009
100
AcDbArc
 50
28.32750171476365
 51
151.6724982852364
  0
CIRCLE
  5
14D0
330
6F
100
AcDbEntity
  8
CORTES_INTERIORES
100
AcDbCircle
 10
356.5280147713201
 20
256.8143613269638
 30
0.0
 40
1.5
  0
CIRCLE
  5
14D3
330
6F
100
AcDbEntity
  8
CORTES_INTERIORES
100
AcDbCircle
 10
220.3995251952468
 20
256.9686314810929
 30
0.0
 40
1.5
  0
LINE
  5
14D5
330
6F
100
AcDbEntity
  8
FRAME
100
AcDbLine
 10
323.098799941427
 20
268.4122926987081
 30
0.0
 11
323.0987999414271
 21
251.3885814498922
 31
0.0
  0
LINE
  5
14D6
330
6F
100
AcDbEntity
  8
FRAME
100
AcDbLine
 10
343.0973176498605
 20
251.3691678829671
 30
0.0
 11
343.0973176498605
 21
268.2401194308982
 31
0.0
  0
LINE
  5
14D9
330
6F
100
AcDbEntity
  8
FRAME
100
AcDbLine
 10
269.7142615345037
 20
268.637217749492
 30
0.0
 11
269.7142615345039
 21
251.4404045061931
 31
0.0
  0
LINE
  5
14DA
330
6F
100
AcDbEntity
  8
FRAME
100
AcDbLine
 10
302.1046451069093
 20
251.4089615318494
 30
0.0
 11
302.1046451069093
 21
268.5743318008044
 31
0.0
  0
ARC
  5
14DD
330
6F
100
AcDbEntity
  8
FRAME
  6
Continuous
100
AcDbCircle
 10
130.9307011804246
 20
251.4019102148019
 30
0.0
 40
76.83902436457225
100
AcDbArc
 50
0.0735422413690745
 51
44.25861884912204
  0
LINE
  5
14DF
330
6F
100
AcDbEntity
  8
FRAME
100
AcDbLine
 10
368.9794837528272
 20
251.3440427626388
 30
0.0
 11
368.9764729087393
 21
251.6785809946255
 31
0.0
  0
LINE
  5
14E1
330
6F
100
AcDbEntity
  8
FRAME
100
AcDbLine
 10
252.9665499898753
 20
251.4566623520823
 30
0.0
 11
252.9665499898753
 21
268.6963299829174
 31
0.0
  0
LINE
  5
14E2
330
6F
100
AcDbEntity
  8
FRAME
100
AcDbLine
 10
232.9680322814419
 20
268.8685032507276
 30
0.0
 11
232.968032281442
 21
251.4760759190076
 31
0.0
  0
LINE
  5
14E4
330
6F
100
AcDbEntity
  8
0
  6
Continuous
100
AcDbLine
 10
207.7696622414321
 20
251.5005372441074
 30
0.0
 11
232.968032281442
 21
251.4760759190076
 31
0.0
  0
LINE
  5
14E5
330
6F
100
AcDbEntity
  8
0
  6
Continuous
100
AcDbLine
 10
252.9665499898753
 20
251.4566623520823
 30
0.0
 11
269.7142615345039
 21
251.4404045061931
 31
0.0
  0
LINE
  5
14E6
330
6F
100
AcDbEntity
  8
0
  6
Continuous
100
AcDbLine
 10
302.1046451069093
 20
251.4089615318494
 30
0.0
 11
323.0987999414271
 21
251.3885814498922
 31
0.0
  0
LINE
  5
14E7
330
6F
100
AcDbEntity
  8
0
  6
Continuous
100
AcDbLine
 10
343.0973176498605
 20
251.3691678829668
 30
0.0
 11
368.9761481587959
 21
251.3440460006675
 31
0.0
  0
ENDSEC
  0
SECTION
  2
OBJECTS
  0
DICTIONARY
  5
C
330
0
100
AcDbDictionary
281
     1
  3
ACAD_CIP_PREVIOUS_PRODUCT_INFO
350
2C4
  3
ACAD_COLOR
350
62
  3
ACAD_DETAILVIEWSTYLE
350
69
  3
ACAD_GROUP
350
D
  3
ACAD_IMAGE_VARS
350
648
  3
ACAD_LAYOUT
350
61
  3
ACAD_MATERIAL
350
10
  3
ACAD_MLEADERSTYLE
350
65
  3
ACAD_MLINESTYLE
350
5E
  3
ACAD_PLOTSETTINGS
350
60
  3
ACAD_PLOTSTYLENAME
350
E
  3
ACAD_SCALELIST
350
42
  3
ACAD_SECTIONVIEWSTYLE
350
67
  3
ACAD_TABLESTYLE
350
63
  3
ACAD_VISUALSTYLE
350
29
  3
ACDB_RECOMPOSE_DATA
350
14F2
  3
AcDbVariableDictionary
350
5A7
  3
APPDATA
350
646
  0
SUN
  5
647
330
76
100
AcDbSun
 90
        1
290
     0
 63
     7
421
 16777215
 40
1.0
291
     1
 91
  2455826
 92
 54000000
292
     0
 70
     2
 71
   256
280
     1
  0
DICTIONARY
  5
5A1
330
2
100
AcDbDictionary
280
     1
281
     1
  3
ACAD_LAYERSTATES
360
5A2
  0
DICTIONARY
  5
598
330
54
100
AcDbDictionary
280
     1
281
     1
  3
ADSK_XREC_LAYER_RECONCILED
360
599
  0
DICTIONARY
  5
59A
330
73
100
AcDbDictionary
280
     1
281
     1
  3
ADSK_XREC_LAYER_RECONCILED
360
59B
  0
DICTIONARY
  5
59C
330
74
100
AcDbDictionary
280
     1
281
     1
  3
ADSK_XREC_LAYER_RECONCILED
360
59D
  0
DICTIONARY
  5
2D1
330
6F
100
AcDbDictionary
280
     1
281
     1
  3
ACAD_SORTENTS
360
2D2
  0
XRECORD
  5
2C4
102
{ACAD_REACTORS
330
C
102
}
330
C
100
AcDbXrecord
280
     1
300
ACDLT
300
2015
300
ACDLT_F_S
  0
DICTIONARY
  5
62
102
{ACAD_REACTORS
330
C
102
}
330
C
100
AcDbDictionary
281
     1
  0
DICTIONARY
  5
69
102
{ACAD_REACTORS
330
C
102
}
330
C
100
AcDbDictionary
281
     1
  3
Imperial24
350
6A
  3
Metric50
350
2C2
  0
DICTIONARY
  5
D
102
{ACAD_REACTORS
330
C
102
}
330
C
100
AcDbDictionary
281
     1
  0
RASTERVARIABLES
  5
648
102
{ACAD_REACTORS
330
C
102
}
330
C
100
AcDbRasterVariables
 90
        0
 70
     1
 71
     1
 72
     1
  0
DICTIONARY
  5
61
102
{ACAD_REACTORS
330
C
102
}
330
C
100
AcDbDictionary
281
     1
  3
Layout1
350
6E
  3
Model
350
72
  0
DICTIONARY
  5
10
102
{ACAD_REACTORS
330
C
102
}
330
C
100
AcDbDictionary
281
     1
  3
ByBlock
350
19
  3
ByLayer
350
11
  3
Global
350
21
  0
DICTIONARY
  5
65
102
{ACAD_REACTORS
330
C
102
}
330
C
100
AcDbDictionary
281
     1
  3
Standard
350
66
  0
DICTIONARY
  5
5E
102
{ACAD_REACTORS
330
C
102
}
330
C
100
AcDbDictionary
281
     1
  3
Standard
350
5F
  0
DICTIONARY
  5
60
102
{ACAD_REACTORS
330
C
102
}
330
C
100
AcDbDictionary
281
     1
  0
ACDBDICTIONARYWDFLT
  5
E
102
{ACAD_REACTORS
330
C
102
}
330
C
100
AcDbDictionary
281
     1
  3
Normal
350
F
100
AcDbDictionaryWithDefault
340
F
  0
DICTIONARY
  5
42
102
{ACAD_REACTORS
330
C
102
}
330
C
100
AcDbDictionary
281
     1
  3
A0
350
43
  3
A1
350
44
  3
A2
350
45
  3
A3
350
46
  3
A4
350
47
  3
A5
350
48
  3
A6
350
49
  3
A7
350
4A
  3
A8
350
4B
  3
A9
350
4C
  3
B0
350
4D
  3
B1
350
4E
  3
B2
350
4F
  3
B3
350
50
  3
B4
350
51
  3
B5
350
52
  3
B6
350
53
  0
DICTIONARY
  5
67
102
{ACAD_REACTORS
330
C
102
}
330
C
100
AcDbDictionary
281
     1
  3
Imperial24
350
68
  3
Metric50
350
2C1
  0
DICTIONARY
  5
63
102
{ACAD_REACTORS
330
C
102
}
330
C
100
AcDbDictionary
281
     1
  3
Standard
350
64
  0
DICTIONARY
  5
29
102
{ACAD_REACTORS
330
C
102
}
330
C
100
AcDbDictionary
281
     1
  3
2dWireframe
350
2F
  3
Basic
350
2E
  3
Brighten
350
35
  3
ColorChange
350
39
  3
Conceptual
350
32
  3
Dim
350
34
  3
EdgeColorOff
350
41
  3
Facepattern
350
38
  3
Flat
350
2A
  3
FlatWithEdges
350
2B
  3
Gouraud
350
2C
  3
GouraudWithEdges
350
2D
  3
Hidden
350
31
  3
JitterOff
350
3F
  3
Linepattern
350
37
  3
OverhangOff
350
40
  3
Realistic
350
33
  3
Shaded
350
3E
  3
Shaded with edges
350
3D
  3
Shades of Gray
350
3A
  3
Sketchy
350
3B
  3
Thicken
350
36
  3
Wireframe
350
30
  3
X-Ray
350
3C
  0
XRECORD
  5
14F2
102
{ACAD_REACTORS
330
C
102
}
330
C
100
AcDbXrecord
280
     1
 90
        1
330
64
  0
DICTIONARY
  5
5A7
102
{ACAD_REACTORS
330
C
102
}
330
C
100
AcDbDictionary
281
     1
  3
CANNOSCALE
350
5AC
  3
CMLEADERSTYLE
350
5A9
  3
CTABLESTYLE
350
5A8
  3
CVIEWDETAILSTYLE
350
5AA
  3
CVIEWSECTIONSTYLE
350
5AB
  3
HPTRANSPARENCY
350
A27
  3
MSLTSCALE
350
680
  3
XCLIPFRAME
350
5AD
  0
DICTIONARY
  5
646
102
{ACAD_REACTORS
330
C
102
}
330
C
100
AcDbDictionary
281
     1
  0
DICTIONARY
  5
5A2
102
{ACAD_REACTORS
330
5A1
102
}
330
5A1
100
AcDbDictionary
281
     1
  3
ARGON_LAYERP_1
350
14E8
  3
ARGON_LAYERP_2
350
14E9
  3
ARGON_LAYERP_3
350
14EA
  3
ARGON_LAYERP_4
350
14EB
  3
ARGON_LAYERP_5
350
14EC
  3
ARGON_LAYERP_6
350
14ED
  3
ARGON_LAYERP_7
350
14EE
  3
ARGON_LAYERP_8
350
14EF
  0
XRECORD
  5
599
102
{ACAD_REACTORS
330
598
102
}
330
598
100
AcDbXrecord
280
     1
290
     1
  0
XRECORD
  5
59B
102
{ACAD_REACTORS
330
59A
102
}
330
59A
100
AcDbXrecord
280
     1
290
     1
  0
XRECORD
  5
59D
102
{ACAD_REACTORS
330
59C
102
}
330
59C
100
AcDbXrecord
280
     1
290
     1
  0
SORTENTSTABLE
  5
2D2
102
{ACAD_REACTORS
330
2D1
102
}
330
2D1
100
AcDbSortentsTable
330
6F
331
0
  5
46A
  0
ACDBDETAILVIEWSTYLE
  5
6A
102
{ACAD_REACTORS
330
69
102
}
102
{ACAD_XDICTIONARY
360
640
102
}
330
69
100
AcDbModelDocViewStyle
 70
     0
  3
Imperial24
290
     0
100
AcDbDetailViewStyle
 70
     0
 71
     0
 90
        3
 71
     1
340
55
 62
   256
 40
0.24
340
0
 62
   256
 40
0.24
300

 40
0.36
280
     3
 71
     2
340
5C
 90
       25
 62
   256
 71
     3
340
55
 62
   256
 40
0.24
 90
        1
 40
0.75
 90
        1
300
%<\AcVar ViewType \f "%tc1">% %<\AcVar ViewDetailId>%\PSCALE %<\AcVar ViewScale \f "%sn">%
 71
     4
340
5C
 90
       25
 62
   256
340
5C
 90
       25
 62
   256
280
     0
  0
ACDBDETAILVIEWSTYLE
  5
2C2
102
{ACAD_REACTORS
330
69
102
}
102
{ACAD_XDICTIONARY
360
644
102
}
330
69
100
AcDbModelDocViewStyle
 70
     0
  3
Metric50
290
     0
100
AcDbDetailViewStyle
 70
     0
 71
     0
 90
        3
 71
     1
340
55
 62
   256
 40
5.0
340
0
 62
   256
 40
5.0
300

 40
0.0
280
     1
 71
     2
340
5C
 90
       25
 62
   256
 71
     3
340
55
 62
   256
 40
5.0
 90
        0
 40
15.0
 90
        1
300
%<\AcVar ViewDetailId>% (%<\AcVar ViewScale \f "%sn">%)
 71
     4
340
5C
 90
       25
 62
   256
340
5C
 90
       25
 62
   256
280
     0
  0
LAYOUT
  5
6E
102
{ACAD_REACTORS
330
61
102
}
330
61
100
AcDbPlotSettings
  1

  2
Samsung CLX-3180 Series
  4

  6

 40
0.0
 41
0.0
 42
0.0
 43
0.0
 44
0.0
 45
0.0
 46
0.0
 47
0.0
 48
0.0
 49
0.0
140
0.0
141
0.0
142
1.0
143
1.0
 70
   688
 72
     0
 73
     0
 74
     5
  7

 75
    16
 76
     0
 77
     2
 78
   300
147
1.0
148
0.0
149
0.0
100
AcDbLayout
  1
Layout1
 70
     1
 71
     1
 10
0.0
 20
0.0
 11
12.0
 21
9.0
 12
0.0
 22
0.0
 32
0.0
 14
1.000000000000000E+20
 24
1.000000000000000E+20
 34
1.000000000000000E+20
 15
-1.000000000000000E+20
 25
-1.000000000000000E+20
 35
-1.000000000000000E+20
146
0.0
 13
0.0
 23
0.0
 33
0.0
 16
1.0
 26
0.0
 36
0.0
 17
0.0
 27
1.0
 37
0.0
 76
     0
330
6B
  0
LAYOUT
  5
72
102
{ACAD_REACTORS
330
61
102
}
330
61
100
AcDbPlotSettings
  1

  2
Samsung CLX-3180 Series
  4

  6

 40
0.0
 41
0.0
 42
0.0
 43
0.0
 44
0.0
 45
0.0
 46
0.0
 47
0.0
 48
0.0
 49
0.0
140
0.0
141
0.0
142
1.0
143
1.0
 70
  1712
 72
     0
 73
     0
 74
     0
  7

 75
     0
 76
     0
 77
     2
 78
   300
147
1.0
148
0.0
149
0.0
100
AcDbLayout
  1
Model
 70
     1
 71
     0
 10
0.0
 20
0.0
 11
12.0
 21
9.0
 12
0.0
 22
0.0
 32
0.0
 14
128.7778846026942
 24
-6.366291711987628
 34
0.0
 15
512.7778846026943
 25
377.6337082880124
 35
0.0
146
0.0
 13
0.0
 23
0.0
 33
0.0
 16
1.0
 26
0.0
 36
0.0
 17
0.0
 27
1.0
 37
0.0
 76
     0
330
6F
331
76
  0
MATERIAL
  5
19
102
{ACAD_REACTORS
330
10
102
}
330
10
100
AcDbMaterial
  1
ByBlock
 72
     0
 43
0.0208333333333333
 43
0.0
 43
0.0
 43
0.0
 43
0.0
 43
0.0208333333333333
 43
0.0
 43
0.0
 43
0.0
 43
0.0
 43
1.0
 43
0.0
 43
0.0
 43
0.0
 43
0.0
 43
1.0
 77
     0
 47
0.0208333333333333
 47
0.0
 47
0.0
 47
0.0
 47
0.0
 47
0.0208333333333333
 47
0.0
 47
0.0
 47
0.0
 47
0.0
 47
1.0
 47
0.0
 47
0.0
 47
0.0
 47
0.0
 47
1.0
171
     0
 49
0.0208333333333333
 49
0.0
 49
0.0
 49
0.0
 49
0.0
 49
0.0208333333333333
 49
0.0
 49
0.0
 49
0.0
 49
0.0
 49
1.0
 49
0.0
 49
0.0
 49
0.0
 49
0.0
 49
1.0
175
     0
142
0.0208333333333333
142
0.0
142
0.0
142
0.0
142
0.0
142
0.0208333333333333
142
0.0
142
0.0
142
0.0
142
0.0
142
1.0
142
0.0
142
0.0
142
0.0
142
0.0
142
1.0
179
     0
144
0.0208333333333333
144
0.0
144
0.0
144
0.0
144
0.0
144
0.0208333333333333
144
0.0
144
0.0
144
0.0
144
0.0
144
1.0
144
0.0
144
0.0
144
0.0
144
0.0
144
1.0
147
0.0208333333333333
147
0.0
147
0.0
147
0.0
147
0.0
147
0.0208333333333333
147
0.0
147
0.0
147
0.0
147
0.0
147
1.0
147
0.0
147
0.0
147
0.0
147
0.0
147
1.0
 94
      127
  0
MATERIAL
  5
11
102
{ACAD_REACTORS
330
10
102
}
330
10
100
AcDbMaterial
  1
ByLayer
 72
     0
 43
0.0208333333333333
 43
0.0
 43
0.0
 43
0.0
 43
0.0
 43
0.0208333333333333
 43
0.0
 43
0.0
 43
0.0
 43
0.0
 43
1.0
 43
0.0
 43
0.0
 43
0.0
 43
0.0
 43
1.0
 77
     0
 47
0.0208333333333333
 47
0.0
 47
0.0
 47
0.0
 47
0.0
 47
0.0208333333333333
 47
0.0
 47
0.0
 47
0.0
 47
0.0
 47
1.0
 47
0.0
 47
0.0
 47
0.0
 47
0.0
 47
1.0
171
     0
 49
0.0208333333333333
 49
0.0
 49
0.0
 49
0.0
 49
0.0
 49
0.0208333333333333
 49
0.0
 49
0.0
 49
0.0
 49
0.0
 49
1.0
 49
0.0
 49
0.0
 49
0.0
 49
0.0
 49
1.0
175
     0
142
0.0208333333333333
142
0.0
142
0.0
142
0.0
142
0.0
142
0.0208333333333333
142
0.0
142
0.0
142
0.0
142
0.0
142
1.0
142
0.0
142
0.0
142
0.0
142
0.0
142
1.0
179
     0
144
0.0208333333333333
144
0.0
144
0.0
144
0.0
144
0.0
144
0.0208333333333333
144
0.0
144
0.0
144
0.0
144
0.0
144
1.0
144
0.0
144
0.0
144
0.0
144
0.0
144
1.0
147
0.0208333333333333
147
0.0
147
0.0
147
0.0
147
0.0
147
0.0208333333333333
147
0.0
147
0.0
147
0.0
147
0.0
147
1.0
147
0.0
147
0.0
147
0.0
147
0.0
147
1.0
 94
      127
  0
MATERIAL
  5
21
102
{ACAD_REACTORS
330
10
102
}
330
10
100
AcDbMaterial
  1
Global
 72
     0
 43
0.0208333333333333
 43
0.0
 43
0.0
 43
0.0
 43
0.0
 43
0.0208333333333333
 43
0.0
 43
0.0
 43
0.0
 43
0.0
 43
1.0
 43
0.0
 43
0.0
 43
0.0
 43
0.0
 43
1.0
 77
     0
 47
0.0208333333333333
 47
0.0
 47
0.0
 47
0.0
 47
0.0
 47
0.0208333333333333
 47
0.0
 47
0.0
 47
0.0
 47
0.0
 47
1.0
 47
0.0
 47
0.0
 47
0.0
 47
0.0
 47
1.0
171
     0
 49
0.0208333333333333
 49
0.0
 49
0.0
 49
0.0
 49
0.0
 49
0.0208333333333333
 49
0.0
 49
0.0
 49
0.0
 49
0.0
 49
1.0
 49
0.0
 49
0.0
 49
0.0
 49
0.0
 49
1.0
175
     0
142
0.0208333333333333
142
0.0
142
0.0
142
0.0
142
0.0
142
0.0208333333333333
142
0.0
142
0.0
142
0.0
142
0.0
142
1.0
142
0.0
142
0.0
142
0.0
142
0.0
142
1.0
179
     0
144
0.0208333333333333
144
0.0
144
0.0
144
0.0
144
0.0
144
0.0208333333333333
144
0.0
144
0.0
144
0.0
144
0.0
144
1.0
144
0.0
144
0.0
144
0.0
144
0.0
144
1.0
147
0.0208333333333333
147
0.0
147
0.0
147
0.0
147
0.0
147
0.0208333333333333
147
0.0
147
0.0
147
0.0
147
0.0
147
1.0
147
0.0
147
0.0
147
0.0
147
0.0
147
1.0
 94
      127
  0
MLEADERSTYLE
  5
66
102
{ACAD_REACTORS
330
65
102
}
330
65
100
AcDbMLeaderStyle
179
     2
170
     2
171
     1
172
     0
 90
        2
 40
0.0
 41
0.0
173
     1
 91
-1056964608
340
5A
 92
       -2
290
     1
 42
0.09
291
     1
 43
0.36
  3
Standard
341
0
 44
0.18
300

342
55
174
     1
178
     6
175
     1
176
     0
 93
-1056964608
 45
0.18
292
     0
297
     0
 46
0.18
343
0
 94
-1056964608
 47
1.0
 49
1.0
140
1.0
293
     1
141
0.0
294
     1
177
     0
142
1.0
295
     0
296
     0
143
0.125
271
     0
272
     9
273
     9
298
     0
  0
MLINESTYLE
  5
5F
102
{ACAD_REACTORS
330
5E
102
}
330
5E
100
AcDbMlineStyle
  2
STANDARD
 70
     0
  3

 62
   256
 51
90.0
 52
90.0
 71
     2
 49
0.5
 62
   256
  6
BYLAYER
 49
-0.5
 62
   256
  6
BYLAYER
  0
ACDBPLACEHOLDER
  5
F
102
{ACAD_REACTORS
330
E
102
}
330
E
  0
SCALE
  5
43
102
{ACAD_REACTORS
330
42
102
}
330
42
100
AcDbScale
 70
     0
300
1:1
140
1.0
141
1.0
290
     1
  0
SCALE
  5
44
102
{ACAD_REACTORS
330
42
102
}
330
42
100
AcDbScale
 70
     0
300
1/128" = 1'-0"
140
0.0078125
141
12.0
290
     0
  0
SCALE
  5
45
102
{ACAD_REACTORS
330
42
102
}
330
42
100
AcDbScale
 70
     0
300
1/64" = 1'-0"
140
0.015625
141
12.0
290
     0
  0
SCALE
  5
46
102
{ACAD_REACTORS
330
42
102
}
330
42
100
AcDbScale
 70
     0
300
1/32" = 1'-0"
140
0.03125
141
12.0
290
     0
  0
SCALE
  5
47
102
{ACAD_REACTORS
330
42
102
}
330
42
100
AcDbScale
 70
     0
300
1/16" = 1'-0"
140
0.0625
141
12.0
290
     0
  0
SCALE
  5
48
102
{ACAD_REACTORS
330
42
102
}
330
42
100
AcDbScale
 70
     0
300
3/32" = 1'-0"
140
0.09375
141
12.0
290
     0
  0
SCALE
  5
49
102
{ACAD_REACTORS
330
42
102
}
330
42
100
AcDbScale
 70
     0
300
1/8" = 1'-0"
140
0.125
141
12.0
290
     0
  0
SCALE
  5
4A
102
{ACAD_REACTORS
330
42
102
}
330
42
100
AcDbScale
 70
     0
300
3/16" = 1'-0"
140
0.1875
141
12.0
290
     0
  0
SCALE
  5
4B
102
{ACAD_REACTORS
330
42
102
}
330
42
100
AcDbScale
 70
     0
300
1/4" = 1'-0"
140
0.25
141
12.0
290
     0
  0
SCALE
  5
4C
102
{ACAD_REACTORS
330
42
102
}
330
42
100
AcDbScale
 70
     0
300
3/8" = 1'-0"
140
0.375
141
12.0
290
     0
  0
SCALE
  5
4D
102
{ACAD_REACTORS
330
42
102
}
330
42
100
AcDbScale
 70
     0
300
1/2" = 1'-0"
140
0.5
141
12.0
290
     0
  0
SCALE
  5
4E
102
{ACAD_REACTORS
330
42
102
}
330
42
100
AcDbScale
 70
     0
300
3/4" = 1'-0"
140
0.75
141
12.0
290
     0
  0
SCALE
  5
4F
102
{ACAD_REACTORS
330
42
102
}
330
42
100
AcDbScale
 70
     0
300
1" = 1'-0"
140
1.0
141
12.0
290
     0
  0
SCALE
  5
50
102
{ACAD_REACTORS
330
42
102
}
330
42
100
AcDbScale
 70
     0
300
1-1/2" = 1'-0"
140
1.5
141
12.0
290
     0
  0
SCALE
  5
51
102
{ACAD_REACTORS
330
42
102
}
330
42
100
AcDbScale
 70
     0
300
3" = 1'-0"
140
3.0
141
12.0
290
     0
  0
SCALE
  5
52
102
{ACAD_REACTORS
330
42
102
}
330
42
100
AcDbScale
 70
     0
300
6" = 1'-0"
140
6.0
141
12.0
290
     0
  0
SCALE
  5
53
102
{ACAD_REACTORS
330
42
102
}
330
42
100
AcDbScale
 70
     0
300
1'-0" = 1'-0"
140
12.0
141
12.0
290
     0
  0
ACDBSECTIONVIEWSTYLE
  5
68
102
{ACAD_REACTORS
330
67
102
}
102
{ACAD_XDICTIONARY
360
63E
102
}
330
67
100
AcDbModelDocViewStyle
 70
     0
  3
Imperial24
290
     0
100
AcDbSectionViewStyle
 70
     0
 71
     0
 90
       78
 71
     1
340
55
 62
   256
 40
0.24
340
0
340
0
 62
   256
 40
0.24
300
I, O, Q, S, X, Z
 40
0.48
 90
        3
 40
0.18
 90
        1
 71
     2
340
5C
 90
       25
 62
   256
340
5C
 90
       50
 62
   256
 40
0.24
 40
0.0
 40
0.24
 71
     3
340
55
 62
   256
 40
0.24
 90
        1
 40
0.75
 90
        1
300
%<\AcVar ViewType \f "%tc1">% %<\AcVar ViewSectionStartId>%-%<\AcVar ViewSectionEndId>%\PSCALE %<\AcVar ViewScale \f "%sn">%
 71
     4
 62
   256
 62
   257
300
ANSI31
 40
1.0
 90
        0
290
     0
290
     0
 90
        6
 40
0.0
 40
1.570796326794896
 40
0.2617993877991494
 40
1.308996938995747
 40
-0.2617993877991494
 40
1.832595714594046
  0
ACDBSECTIONVIEWSTYLE
  5
2C1
102
{ACAD_REACTORS
330
67
102
}
102
{ACAD_XDICTIONARY
360
642
102
}
330
67
100
AcDbModelDocViewStyle
 70
     0
  3
Metric50
290
     0
100
AcDbSectionViewStyle
 70
     0
 71
     0
 90
      102
 71
     1
340
55
 62
   256
 40
5.0
340
0
340
0
 62
   256
 40
5.0
300
I, O, Q, S, X, Z
 40
10.0
 90
        0
 40
2.5
 90
        0
 71
     2
340
5C
 90
       25
 62
   256
340
5C
 90
       50
 62
   256
 40
5.0
 40
2.5
 40
5.0
 71
     3
340
55
 62
   256
 40
5.0
 90
        0
 40
15.0
 90
        1
300
%<\AcVar ViewSectionStartId>%-%<\AcVar ViewSectionEndId>% (%<\AcVar ViewScale \f "%sn">%)
 71
     4
 62
   256
 62
   257
300
ANSI31
 40
1.0
 90
        0
290
     0
290
     0
 90
        6
 40
0.0
 40
1.570796326794896
 40
0.2617993877991494
 40
1.308996938995747
 40
-0.2617993877991494
 40
1.832595714594046
  0
TABLESTYLE
  5
64
102
{ACAD_REACTORS
330
63
102
}
102
{ACAD_XDICTIONARY
360
14F0
102
}
330
63
100
AcDbTableStyle
  3
Standard
 70
     0
 71
     0
 40
0.06
 41
0.06
280
     0
281
     0
  7
Standard
140
0.18
170
     2
 62
     0
 63
   257
283
     0
 90
      512
 91
        0
  1

274
    -2
284
     1
 64
     0
275
    -2
285
     1
 65
     0
276
    -2
286
     1
 66
     0
277
    -2
287
     1
 67
     0
278
    -2
288
     1
 68
     0
279
    -2
289
     1
 69
     0
  7
Standard
140
0.25
170
     5
 62
     0
 63
   257
283
     0
 90
      512
 91
        0
  1

274
    -2
284
     1
 64
     0
275
    -2
285
     1
 65
     0
276
    -2
286
     1
 66
     0
277
    -2
287
     1
 67
     0
278
    -2
288
     1
 68
     0
279
    -2
289
     1
 69
     0
  7
Standard
140
0.18
170
     5
 62
     0
 63
   257
283
     0
 90
      512
 91
        0
  1

274
    -2
284
     1
 64
     0
275
    -2
285
     1
 65
     0
276
    -2
286
     1
 66
     0
277
    -2
287
     1
 67
     0
278
    -2
288
     1
 68
     0
279
    -2
289
     1
 69
     0
  0
VISUALSTYLE
  5
2F
102
{ACAD_REACTORS
330
29
102
}
330
29
100
AcDbVisualStyle
  2
2dWireframe
 70
     4
177
     3
291
     0
 70
    58
 90
        0
176
     1
 90
        2
176
     1
 90
        0
176
     1
 90
        0
176
     1
 40
-0.6
176
     1
 40
-30.0
176
     1
 62
     7
420
 16777215
176
     1
 90
        1
176
     1
 90
        4
176
     1
 62
     7
176
     1
 62
   257
176
     1
 90
        1
176
     1
 90
        1
176
     1
 40
1.0
176
     1
 90
        0
176
     1
 62
   257
176
     1
 40
1.0
176
     1
 90
        1
176
     1
 90
        6
176
     1
 90
        2
176
     1
 62
     7
176
     1
 90
        5
176
     1
 90
        0
176
     1
 90
        0
176
     1
290
     0
176
     1
 90
        1
176
     1
 40
0.0
176
     1
 90
        0
176
     1
290
     1
176
     1
290
     1
176
     1
290
     0
176
     1
290
     0
176
     1
290
     0
176
     1
290
     0
176
     1
290
     0
176
     1
290
     0
176
     1
290
     0
176
     1
 90
       50
176
     1
 40
0.0
176
     1
 40
1.0
176
     1
 90
        0
176
     1
 62
    18
420
        0
176
     1
 90
       50
176
     1
 90
        3
176
     1
 62
     5
420
      255
176
     1
290
     0
176
     1
 90
       50
176
     1
 90
       50
176
     1
 90
       50
176
     1
290
     0
176
     1
 90
       50
176
     1
 62
   256
176
     0
 40
1.0
176
     0
 90
        2
176
     1
  1
strokes_ogs.tif
176
     1
290
     0
176
     1
 40
1.0
176
     1
 40
1.0
176
     1
  0
VISUALSTYLE
  5
2E
102
{ACAD_REACTORS
330
29
102
}
330
29
100
AcDbVisualStyle
  2
Basic
 70
     7
177
     3
291
     1
 70
    58
 90
        1
176
     1
 90
        0
176
     1
 90
        1
176
     1
 90
        0
176
     1
 40
-0.6
176
     1
 40
-30.0
176
     1
 62
     7
420
 16777215
176
     1
 90
        0
176
     1
 90
        4
176
     1
 62
     7
176
     1
 62
   257
176
     1
 90
        1
176
     1
 90
        1
176
     1
 40
1.0
176
     1
 90
        8
176
     1
 62
     7
176
     1
 40
1.0
176
     1
 90
        1
176
     1
 90
        6
176
     1
 90
        2
176
     1
 62
     7
176
     1
 90
        5
176
     1
 90
        0
176
     1
 90
        0
176
     1
290
     0
176
     1
 90
        1
176
     1
 40
0.0
176
     1
 90
        0
176
     1
290
     0
176
     1
290
     1
176
     1
290
     1
176
     1
290
     0
176
     1
290
     0
176
     1
290
     0
176
     1
290
     0
176
     1
290
     0
176
     1
290
     0
176
     1
 90
       50
176
     1
 40
0.0
176
     1
 40
1.0
176
     1
 90
        0
176
     1
 62
    18
420
        0
176
     1
 90
       50
176
     1
 90
        3
176
     1
 62
     5
420
      255
176
     1
290
     0
176
     1
 90
       50
176
     1
 90
       50
176
     1
 90
       50
176
     1
290
     0
176
     1
 90
       50
176
     1
 62
   256
176
     0
 40
1.0
176
     0
 90
        2
176
     1
  1
strokes_ogs.tif
176
     1
290
     0
176
     1
 40
1.0
176
     1
 40
1.0
176
     1
  0
VISUALSTYLE
  5
35
102
{ACAD_REACTORS
330
29
102
}
330
29
100
AcDbVisualStyle
  2
Brighten
 70
    12
177
     3
291
     1
 70
    58
 90
        2
176
     1
 90
        2
176
     1
 90
        0
176
     1
 90
        0
176
     1
 40
-0.6
176
     1
 40
-30.0
176
     1
 62
     7
420
 16777215
176
     1
 90
        1
176
     1
 90
        4
176
     1
 62
     7
176
     1
 62
   257
176
     1
 90
        1
176
     1
 90
        1
176
     1
 40
1.0
176
     1
 90
        8
176
     1
 62
     7
176
     1
 40
1.0
176
     1
 90
        1
176
     1
 90
        6
176
     1
 90
        2
176
     1
 62
     7
176
     1
 90
        5
176
     1
 90
        0
176
     1
 90
        0
176
     1
290
     0
176
     1
 90
        1
176
     1
 40
50.0
176
     1
 90
        0
176
     1
290
     0
176
     1
290
     1
176
     1
290
     1
176
     1
290
     0
176
     1
290
     0
176
     1
290
     0
176
     1
290
     0
176
     1
290
     0
176
     1
290
     0
176
     1
 90
       50
176
     1
 40
0.0
176
     1
 40
1.0
176
     1
 90
        0
176
     1
 62
    18
420
        0
176
     1
 90
       50
176
     1
 90
        3
176
     1
 62
     5
420
      255
176
     1
290
     0
176
     1
 90
       50
176
     1
 90
       50
176
     1
 90
       50
176
     1
290
     0
176
     1
 90
       50
176
     1
 62
   256
176
     0
 40
1.0
176
     0
 90
        2
176
     1
  1
strokes_ogs.tif
176
     1
290
     0
176
     1
 40
1.0
176
     1
 40
1.0
176
     1
  0
VISUALSTYLE
  5
39
102
{ACAD_REACTORS
330
29
102
}
330
29
100
AcDbVisualStyle
  2
ColorChange
 70
    16
177
     3
291
     1
 70
    58
 90
        2
176
     1
 90
        2
176
     1
 90
        3
176
     1
 90
        0
176
     1
 40
-0.6
176
     1
 40
-30.0
176
     1
 62
     8
420
  8421504
176
     1
 90
        1
176
     1
 90
        4
176
     1
 62
     7
176
     1
 62
   257
176
     1
 90
        1
176
     1
 90
        1
176
     1
 40
1.0
176
     1
 90
        8
176
     1
 62
     8
420
  8421504
176
     1
 40
1.0
176
     1
 90
        1
176
     1
 90
        6
176
     1
 90
        2
176
     1
 62
     7
176
     1
 90
        5
176
     1
 90
        0
176
     1
 90
        0
176
     1
290
     0
176
     1
 90
        1
176
     1
 40
0.0
176
     1
 90
        0
176
     1
290
     0
176
     1
290
     1
176
     1
290
     1
176
     1
290
     0
176
     1
290
     0
176
     1
290
     0
176
     1
290
     0
176
     1
290
     0
176
     1
290
     0
176
     1
 90
       50
176
     1
 40
0.0
176
     1
 40
1.0
176
     1
 90
        0
176
     1
 62
    18
420
        0
176
     1
 90
       50
176
     1
 90
        3
176
     1
 62
     5
420
      255
176
     1
290
     0
176
     1
 90
       50
176
     1
 90
       50
176
     1
 90
       50
176
     1
290
     0
176
     1
 90
       50
176
     1
 62
   256
176
     0
 40
1.0
176
     0
 90
        2
176
     1
  1
strokes_ogs.tif
176
     1
290
     0
176
     1
 40
1.0
176
     1
 40
1.0
176
     1
  0
VISUALSTYLE
  5
32
102
{ACAD_REACTORS
330
29
102
}
330
29
100
AcDbVisualStyle
  2
Conceptual
 70
     9
177
     3
291
     0
 70
    58
 90
        3
176
     1
 90
        2
176
     1
 90
        0
176
     1
 90
        0
176
     1
 40
-0.6
176
     1
 40
-30.0
176
     1
 62
     7
420
 16777215
176
     1
 90
        2
176
     1
 90
        2
176
     1
 62
     7
176
     1
 62
   257
176
     1
 90
        1
176
     1
 90
        1
176
     1
 40
179.0
176
     1
 90
        8
176
     1
 62
     7
176
     1
 40
1.0
176
     1
 90
        1
176
     1
 90
        6
176
     1
 90
        2
176
     1
 62
     7
176
     1
 90
        3
176
     1
 90
        0
176
     1
 90
        0
176
     1
290
     0
176
     1
 90
        1
176
     1
 40
0.0
176
     1
 90
        0
176
     1
290
     0
176
     1
290
     1
176
     1
290
     1
176
     1
290
     0
176
     1
290
     0
176
     1
290
     0
176
     1
290
     0
176
     1
290
     0
176
     1
290
     0
176
     1
 90
       50
176
     1
 40
0.0
176
     1
 40
1.0
176
     1
 90
        0
176
     1
 62
    18
420
        0
176
     1
 90
       50
176
     1
 90
        3
176
     1
 62
     5
420
      255
176
     1
290
     0
176
     1
 90
       50
176
     1
 90
       50
176
     1
 90
       50
176
     1
290
     0
176
     1
 90
       50
176
     1
 62
   256
176
     0
 40
1.0
176
     0
 90
        2
176
     1
  1
strokes_ogs.tif
176
     1
290
     0
176
     1
 40
1.0
176
     1
 40
1.0
176
     1
  0
VISUALSTYLE
  5
34
102
{ACAD_REACTORS
330
29
102
}
330
29
100
AcDbVisualStyle
  2
Dim
 70
    11
177
     3
291
     1
 70
    58
 90
        2
176
     1
 90
        2
176
     1
 90
        0
176
     1
 90
        0
176
     1
 40
-0.6
176
     1
 40
-30.0
176
     1
 62
     7
420
 16777215
176
     1
 90
        1
176
     1
 90
        4
176
     1
 62
     7
176
     1
 62
   257
176
     1
 90
        1
176
     1
 90
        1
176
     1
 40
1.0
176
     1
 90
        8
176
     1
 62
     7
176
     1
 40
1.0
176
     1
 90
        1
176
     1
 90
        6
176
     1
 90
        2
176
     1
 62
     7
176
     1
 90
        5
176
     1
 90
        0
176
     1
 90
        0
176
     1
290
     0
176
     1
 90
        1
176
     1
 40
-50.0
176
     1
 90
        0
176
     1
290
     0
176
     1
290
     1
176
     1
290
     1
176
     1
290
     0
176
     1
290
     0
176
     1
290
     0
176
     1
290
     0
176
     1
290
     0
176
     1
290
     0
176
     1
 90
       50
176
     1
 40
0.0
176
     1
 40
1.0
176
     1
 90
        0
176
     1
 62
    18
420
        0
176
     1
 90
       50
176
     1
 90
        3
176
     1
 62
     5
420
      255
176
     1
290
     0
176
     1
 90
       50
176
     1
 90
       50
176
     1
 90
       50
176
     1
290
     0
176
     1
 90
       50
176
     1
 62
   256
176
     0
 40
1.0
176
     0
 90
        2
176
     1
  1
strokes_ogs.tif
176
     1
290
     0
176
     1
 40
1.0
176
     1
 40
1.0
176
     1
  0
VISUALSTYLE
  5
41
102
{ACAD_REACTORS
330
29
102
}
330
29
100
AcDbVisualStyle
  2
EdgeColorOff
 70
    22
177
     3
291
     1
 70
    58
 90
        2
176
     0
 90
        2
176
     0
 90
        0
176
     0
 90
        0
176
     0
 40
-0.6
176
     0
 40
-30.0
176
     0
 62
     7
420
 16777215
176
     0
 90
        1
176
     0
 90
        4
176
     0
 62
     7
176
     0
 62
   257
176
     0
 90
        1
176
     0
 90
        1
176
     0
 40
1.0
176
     0
 90
        8
176
     2
 62
     7
176
     0
 40
1.0
176
     0
 90
        1
176
     0
 90
        6
176
     0
 90
        2
176
     0
 62
     7
176
     0
 90
        5
176
     0
 90
        0
176
     0
 90
        0
176
     0
290
     0
176
     0
 90
        1
176
     0
 40
0.0
176
     0
 90
        0
176
     0
290
     0
176
     1
290
     1
176
     1
290
     1
176
     1
290
     0
176
     1
290
     0
176
     1
290
     0
176
     1
290
     0
176
     1
290
     0
176
     1
290
     0
176
     1
 90
       50
176
     0
 40
0.0
176
     0
 40
1.0
176
     0
 90
        0
176
     0
 62
    18
420
        0
176
     0
 90
       50
176
     0
 90
        3
176
     0
 62
     5
420
      255
176
     0
290
     0
176
     1
 90
       50
176
     0
 90
       50
176
     0
 90
       50
176
     0
290
     0
176
     1
 90
       50
176
     0
 62
   256
176
     0
 40
1.0
176
     0
 90
        2
176
     0
  1
strokes_ogs.tif
176
     0
290
     0
176
     1
 40
1.0
176
     0
 40
1.0
176
     0
  0
VISUALSTYLE
  5
38
102
{ACAD_REACTORS
330
29
102
}
330
29
100
AcDbVisualStyle
  2
Facepattern
 70
    15
177
     3
291
     1
 70
    58
 90
        2
176
     1
 90
        2
176
     1
 90
        0
176
     1
 90
        0
176
     1
 40
-0.6
176
     1
 40
-30.0
176
     1
 62
     7
420
 16777215
176
     1
 90
        1
176
     1
 90
        4
176
     1
 62
     7
176
     1
 62
   257
176
     1
 90
        1
176
     1
 90
        1
176
     1
 40
1.0
176
     1
 90
        8
176
     1
 62
     7
176
     1
 40
1.0
176
     1
 90
        1
176
     1
 90
        6
176
     1
 90
        2
176
     1
 62
     7
176
     1
 90
        5
176
     1
 90
        0
176
     1
 90
        0
176
     1
290
     0
176
     1
 90
        1
176
     1
 40
0.0
176
     1
 90
        0
176
     1
290
     0
176
     1
290
     1
176
     1
290
     1
176
     1
290
     0
176
     1
290
     0
176
     1
290
     0
176
     1
290
     0
176
     1
290
     0
176
     1
290
     0
176
     1
 90
       50
176
     1
 40
0.0
176
     1
 40
1.0
176
     1
 90
        0
176
     1
 62
    18
420
        0
176
     1
 90
       50
176
     1
 90
        3
176
     1
 62
     5
420
      255
176
     1
290
     0
176
     1
 90
       50
176
     1
 90
       50
176
     1
 90
       50
176
     1
290
     0
176
     1
 90
       50
176
     1
 62
   256
176
     0
 40
1.0
176
     0
 90
        2
176
     1
  1
strokes_ogs.tif
176
     1
290
     0
176
     1
 40
1.0
176
     1
 40
1.0
176
     1
  0
VISUALSTYLE
  5
2A
102
{ACAD_REACTORS
330
29
102
}
330
29
100
AcDbVisualStyle
  2
Flat
 70
     0
177
     3
291
     1
 70
    58
 90
        2
176
     1
 90
        1
176
     1
 90
        1
176
     1
 90
        2
176
     1
 40
-0.6
176
     1
 40
30.0
176
     1
 62
     7
420
 16777215
176
     1
 90
        0
176
     1
 90
        0
176
     1
 62
     7
176
     1
 62
   257
176
     1
 90
        1
176
     1
 90
        1
176
     1
 40
1.0
176
     1
 90
        8
176
     1
 62
     7
176
     1
 40
1.0
176
     1
 90
        1
176
     1
 90
        6
176
     1
 90
        2
176
     1
 62
     7
176
     1
 90
        5
176
     1
 90
        0
176
     1
 90
        0
176
     1
290
     0
176
     1
 90
       13
176
     1
 40
0.0
176
     1
 90
        0
176
     1
290
     0
176
     1
290
     1
176
     1
290
     1
176
     1
290
     0
176
     1
290
     0
176
     1
290
     0
176
     1
290
     0
176
     1
290
     0
176
     1
290
     0
176
     1
 90
       50
176
     1
 40
0.0
176
     1
 40
1.0
176
     1
 90
        0
176
     1
 62
    18
420
        0
176
     1
 90
       50
176
     1
 90
        3
176
     1
 62
     5
420
      255
176
     1
290
     0
176
     1
 90
       50
176
     1
 90
       50
176
     1
 90
       50
176
     1
290
     0
176
     1
 90
       50
176
     1
 62
   256
176
     0
 40
1.0
176
     0
 90
        2
176
     1
  1
strokes_ogs.tif
176
     1
290
     0
176
     1
 40
1.0
176
     1
 40
1.0
176
     1
  0
VISUALSTYLE
  5
2B
102
{ACAD_REACTORS
330
29
102
}
330
29
100
AcDbVisualStyle
  2
FlatWithEdges
 70
     1
177
     3
291
     1
 70
    58
 90
        2
176
     1
 90
        1
176
     1
 90
        1
176
     1
 90
        2
176
     1
 40
-0.6
176
     1
 40
30.0
176
     1
 62
     7
420
 16777215
176
     1
 90
        1
176
     1
 90
        0
176
     1
 62
     7
176
     1
 62
   257
176
     1
 90
        1
176
     1
 90
        1
176
     1
 40
1.0
176
     1
 90
        0
176
     1
 62
   257
176
     1
 40
1.0
176
     1
 90
        1
176
     1
 90
        6
176
     1
 90
        2
176
     1
 62
     7
176
     1
 90
        5
176
     1
 90
        0
176
     1
 90
        0
176
     1
290
     0
176
     1
 90
       13
176
     1
 40
0.0
176
     1
 90
        0
176
     1
290
     0
176
     1
290
     1
176
     1
290
     1
176
     1
290
     0
176
     1
290
     0
176
     1
290
     0
176
     1
290
     0
176
     1
290
     0
176
     1
290
     0
176
     1
 90
       50
176
     1
 40
0.0
176
     1
 40
1.0
176
     1
 90
        0
176
     1
 62
    18
420
        0
176
     1
 90
       50
176
     1
 90
        3
176
     1
 62
     5
420
      255
176
     1
290
     0
176
     1
 90
       50
176
     1
 90
       50
176
     1
 90
       50
176
     1
290
     0
176
     1
 90
       50
176
     1
 62
   256
176
     0
 40
1.0
176
     0
 90
        2
176
     1
  1
strokes_ogs.tif
176
     1
290
     0
176
     1
 40
1.0
176
     1
 40
1.0
176
     1
  0
VISUALSTYLE
  5
2C
102
{ACAD_REACTORS
330
29
102
}
330
29
100
AcDbVisualStyle
  2
Gouraud
 70
     2
177
     3
291
     1
 70
    58
 90
        2
176
     1
 90
        2
176
     1
 90
        1
176
     1
 90
        2
176
     1
 40
-0.6
176
     1
 40
30.0
176
     1
 62
     7
420
 16777215
176
     1
 90
        0
176
     1
 90
        0
176
     1
 62
     7
176
     1
 62
   257
176
     1
 90
        1
176
     1
 90
        1
176
     1
 40
1.0
176
     1
 90
        0
176
     1
 62
     7
176
     1
 40
1.0
176
     1
 90
        1
176
     1
 90
        6
176
     1
 90
        2
176
     1
 62
     7
176
     1
 90
        5
176
     1
 90
        0
176
     1
 90
        0
176
     1
290
     0
176
     1
 90
       13
176
     1
 40
0.0
176
     1
 90
        0
176
     1
290
     0
176
     1
290
     1
176
     1
290
     1
176
     1
290
     0
176
     1
290
     0
176
     1
290
     0
176
     1
290
     0
176
     1
290
     0
176
     1
290
     0
176
     1
 90
       50
176
     1
 40
0.0
176
     1
 40
1.0
176
     1
 90
        0
176
     1
 62
    18
420
        0
176
     1
 90
       50
176
     1
 90
        3
176
     1
 62
     5
420
      255
176
     1
290
     0
176
     1
 90
       50
176
     1
 90
       50
176
     1
 90
       50
176
     1
290
     0
176
     1
 90
       50
176
     1
 62
   256
176
     0
 40
1.0
176
     0
 90
        2
176
     1
  1
strokes_ogs.tif
176
     1
290
     0
176
     1
 40
1.0
176
     1
 40
1.0
176
     1
  0
VISUALSTYLE
  5
2D
102
{ACAD_REACTORS
330
29
102
}
330
29
100
AcDbVisualStyle
  2
GouraudWithEdges
 70
     3
177
     3
291
     1
 70
    58
 90
        2
176
     1
 90
        2
176
     1
 90
        1
176
     1
 90
        2
176
     1
 40
-0.6
176
     1
 40
30.0
176
     1
 62
     7
420
 16777215
176
     1
 90
        1
176
     1
 90
        0
176
     1
 62
     7
176
     1
 62
   257
176
     1
 90
        1
176
     1
 90
        1
176
     1
 40
1.0
176
     1
 90
        0
176
     1
 62
   257
176
     1
 40
1.0
176
     1
 90
        1
176
     1
 90
        6
176
     1
 90
        2
176
     1
 62
     7
176
     1
 90
        5
176
     1
 90
        0
176
     1
 90
        0
176
     1
290
     0
176
     1
 90
       13
176
     1
 40
0.0
176
     1
 90
        0
176
     1
290
     0
176
     1
290
     1
176
     1
290
     1
176
     1
290
     0
176
     1
290
     0
176
     1
290
     0
176
     1
290
     0
176
     1
290
     0
176
     1
290
     0
176
     1
 90
       50
176
     1
 40
0.0
176
     1
 40
1.0
176
     1
 90
        0
176
     1
 62
    18
420
        0
176
     1
 90
       50
176
     1
 90
        3
176
     1
 62
     5
420
      255
176
     1
290
     0
176
     1
 90
       50
176
     1
 90
       50
176
     1
 90
       50
176
     1
290
     0
176
     1
 90
       50
176
     1
 62
   256
176
     0
 40
1.0
176
     0
 90
        2
176
     1
  1
strokes_ogs.tif
176
     1
290
     0
176
     1
 40
1.0
176
     1
 40
1.0
176
     1
  0
VISUALSTYLE
  5
31
102
{ACAD_REACTORS
330
29
102
}
330
29
100
AcDbVisualStyle
  2
Hidden
 70
     6
177
     3
291
     0
 70
    58
 90
        1
176
     1
 90
        2
176
     1
 90
        2
176
     1
 90
        0
176
     1
 40
-0.6
176
     1
 40
-30.0
176
     1
 62
     7
420
 16777215
176
     1
 90
        2
176
     1
 90
        2
176
     1
 62
     7
176
     1
 62
   257
176
     1
 90
        2
176
     1
 90
        1
176
     1
 40
40.0
176
     1
 90
        0
176
     1
 62
   257
176
     1
 40
1.0
176
     1
 90
        1
176
     1
 90
        6
176
     1
 90
        2
176
     1
 62
     7
176
     1
 90
        3
176
     1
 90
        0
176
     1
 90
        0
176
     1
290
     0
176
     1
 90
        1
176
     1
 40
0.0
176
     1
 90
        0
176
     1
290
     0
176
     1
290
     1
176
     1
290
     1
176
     1
290
     0
176
     1
290
     0
176
     1
290
     0
176
     1
290
     0
176
     1
290
     0
176
     1
290
     0
176
     1
 90
       50
176
     1
 40
0.0
176
     1
 40
1.0
176
     1
 90
        0
176
     1
 62
    18
420
        0
176
     1
 90
       50
176
     1
 90
        3
176
     1
 62
     5
420
      255
176
     1
290
     0
176
     1
 90
       50
176
     1
 90
       50
176
     1
 90
       50
176
     1
290
     0
176
     1
 90
       50
176
     1
 62
   256
176
     0
 40
1.0
176
     0
 90
        2
176
     1
  1
strokes_ogs.tif
176
     1
290
     0
176
     1
 40
1.0
176
     1
 40
1.0
176
     1
  0
VISUALSTYLE
  5
3F
102
{ACAD_REACTORS
330
29
102
}
330
29
100
AcDbVisualStyle
  2
JitterOff
 70
    20
177
     3
291
     1
 70
    58
 90
        2
176
     0
 90
        2
176
     0
 90
        0
176
     0
 90
        0
176
     0
 40
-0.6
176
     0
 40
-30.0
176
     0
 62
     7
420
 16777215
176
     0
 90
        1
176
     0
 90
        4
176
     0
 62
     7
176
     0
 62
   257
176
     0
 90
        1
176
     0
 90
        1
176
     0
 40
1.0
176
     0
 90
       10
176
     2
 62
     7
176
     0
 40
1.0
176
     0
 90
        1
176
     0
 90
        6
176
     0
 90
        2
176
     0
 62
     7
176
     0
 90
        5
176
     0
 90
        0
176
     0
 90
        0
176
     0
290
     0
176
     0
 90
        1
176
     0
 40
0.0
176
     0
 90
        0
176
     0
290
     0
176
     1
290
     1
176
     1
290
     1
176
     1
290
     0
176
     1
290
     0
176
     1
290
     0
176
     1
290
     0
176
     1
290
     0
176
     1
290
     0
176
     1
 90
       50
176
     0
 40
0.0
176
     0
 40
1.0
176
     0
 90
        0
176
     0
 62
    18
420
        0
176
     0
 90
       50
176
     0
 90
        3
176
     0
 62
     5
420
      255
176
     0
290
     0
176
     1
 90
       50
176
     0
 90
       50
176
     0
 90
       50
176
     0
290
     0
176
     1
 90
       50
176
     0
 62
   256
176
     0
 40
1.0
176
     0
 90
        2
176
     0
  1
strokes_ogs.tif
176
     0
290
     0
176
     1
 40
1.0
176
     0
 40
1.0
176
     0
  0
VISUALSTYLE
  5
37
102
{ACAD_REACTORS
330
29
102
}
330
29
100
AcDbVisualStyle
  2
Linepattern
 70
    14
177
     3
291
     1
 70
    58
 90
        2
176
     1
 90
        2
176
     1
 90
        0
176
     1
 90
        0
176
     1
 40
-0.6
176
     1
 40
-30.0
176
     1
 62
     7
420
 16777215
176
     1
 90
        1
176
     1
 90
        4
176
     1
 62
     7
176
     1
 62
   257
176
     1
 90
        7
176
     1
 90
        7
176
     1
 40
1.0
176
     1
 90
        8
176
     1
 62
     7
176
     1
 40
1.0
176
     1
 90
        1
176
     1
 90
        6
176
     1
 90
        2
176
     1
 62
     7
176
     1
 90
        5
176
     1
 90
        0
176
     1
 90
        0
176
     1
290
     0
176
     1
 90
        1
176
     1
 40
0.0
176
     1
 90
        0
176
     1
290
     0
176
     1
290
     1
176
     1
290
     1
176
     1
290
     0
176
     1
290
     0
176
     1
290
     0
176
     1
290
     0
176
     1
290
     0
176
     1
290
     0
176
     1
 90
       50
176
     1
 40
0.0
176
     1
 40
1.0
176
     1
 90
        0
176
     1
 62
    18
420
        0
176
     1
 90
       50
176
     1
 90
        3
176
     1
 62
     5
420
      255
176
     1
290
     0
176
     1
 90
       50
176
     1
 90
       50
176
     1
 90
       50
176
     1
290
     0
176
     1
 90
       50
176
     1
 62
   256
176
     0
 40
1.0
176
     0
 90
        2
176
     1
  1
strokes_ogs.tif
176
     1
290
     0
176
     1
 40
1.0
176
     1
 40
1.0
176
     1
  0
VISUALSTYLE
  5
40
102
{ACAD_REACTORS
330
29
102
}
330
29
100
AcDbVisualStyle
  2
OverhangOff
 70
    21
177
     3
291
     1
 70
    58
 90
        2
176
     0
 90
        2
176
     0
 90
        0
176
     0
 90
        0
176
     0
 40
-0.6
176
     0
 40
-30.0
176
     0
 62
     7
420
 16777215
176
     0
 90
        1
176
     0
 90
        4
176
     0
 62
     7
176
     0
 62
   257
176
     0
 90
        1
176
     0
 90
        1
176
     0
 40
1.0
176
     0
 90
        9
176
     2
 62
     7
176
     0
 40
1.0
176
     0
 90
        1
176
     0
 90
        6
176
     0
 90
        2
176
     0
 62
     7
176
     0
 90
        5
176
     0
 90
        0
176
     0
 90
        0
176
     0
290
     0
176
     0
 90
        1
176
     0
 40
0.0
176
     0
 90
        0
176
     0
290
     0
176
     1
290
     1
176
     1
290
     1
176
     1
290
     0
176
     1
290
     0
176
     1
290
     0
176
     1
290
     0
176
     1
290
     0
176
     1
290
     0
176
     1
 90
       50
176
     0
 40
0.0
176
     0
 40
1.0
176
     0
 90
        0
176
     0
 62
    18
420
        0
176
     0
 90
       50
176
     0
 90
        3
176
     0
 62
     5
420
      255
176
     0
290
     0
176
     1
 90
       50
176
     0
 90
       50
176
     0
 90
       50
176
     0
290
     0
176
     1
 90
       50
176
     0
 62
   256
176
     0
 40
1.0
176
     0
 90
        2
176
     0
  1
strokes_ogs.tif
176
     0
290
     0
176
     1
 40
1.0
176
     0
 40
1.0
176
     0
  0
VISUALSTYLE
  5
33
102
{ACAD_REACTORS
330
29
102
}
330
29
100
AcDbVisualStyle
  2
Realistic
 70
     8
177
     3
291
     0
 70
    58
 90
        2
176
     1
 90
        3
176
     1
 90
        0
176
     1
 90
        2
176
     1
 40
-0.6
176
     1
 40
30.0
176
     1
 62
     7
420
 16777215
176
     1
 90
        0
176
     1
 90
        0
176
     1
 62
     7
176
     1
 62
   257
176
     1
 90
        1
176
     1
 90
        1
176
     1
 40
1.0
176
     1
 90
        8
176
     1
 62
   257
176
     1
 40
1.0
176
     1
 90
        1
176
     1
 90
        6
176
     1
 90
        2
176
     1
 62
     7
176
     1
 90
        3
176
     1
 90
        0
176
     1
 90
        0
176
     1
290
     0
176
     1
 90
       13
176
     1
 40
0.0
176
     1
 90
        0
176
     1
290
     0
176
     1
290
     1
176
     1
290
     1
176
     1
290
     0
176
     1
290
     0
176
     1
290
     0
176
     1
290
     0
176
     1
290
     0
176
     1
290
     0
176
     1
 90
       50
176
     1
 40
0.0
176
     1
 40
1.0
176
     1
 90
        0
176
     1
 62
    18
420
        0
176
     1
 90
       50
176
     1
 90
        3
176
     1
 62
     5
420
      255
176
     1
290
     0
176
     1
 90
       50
176
     1
 90
       50
176
     1
 90
       50
176
     1
290
     0
176
     1
 90
       50
176
     1
 62
   256
176
     0
 40
1.0
176
     0
 90
        2
176
     1
  1
strokes_ogs.tif
176
     1
290
     0
176
     1
 40
1.0
176
     1
 40
1.0
176
     1
  0
VISUALSTYLE
  5
3E
102
{ACAD_REACTORS
330
29
102
}
330
29
100
AcDbVisualStyle
  2
Shaded
 70
    27
177
     3
291
     0
 70
    58
 90
        2
176
     1
 90
        2
176
     1
 90
        1
176
     1
 90
        2
176
     1
 40
-0.6
176
     1
 40
30.0
176
     1
 62
     7
420
 16777215
176
     1
 90
        0
176
     1
 90
        4
176
     1
 62
     7
176
     1
 62
   257
176
     1
 90
        1
176
     1
 90
        1
176
     1
 40
1.0
176
     1
 90
        8
176
     1
 62
   257
176
     1
 40
1.0
176
     1
 90
        1
176
     1
 90
        6
176
     1
 90
        2
176
     1
 62
     8
420
  7895160
176
     1
 90
        3
176
     1
 90
        0
176
     1
 90
        0
176
     1
290
     0
176
     1
 90
        5
176
     1
 40
0.0
176
     1
 90
        0
176
     1
290
     0
176
     1
290
     1
176
     1
290
     1
176
     1
290
     0
176
     1
290
     0
176
     1
290
     0
176
     1
290
     0
176
     1
290
     0
176
     1
290
     0
176
     1
 90
       50
176
     1
 40
0.0
176
     1
 40
1.0
176
     1
 90
        0
176
     1
 62
    18
420
        0
176
     1
 90
       50
176
     1
 90
        3
176
     1
 62
     5
420
      255
176
     1
290
     0
176
     1
 90
       50
176
     1
 90
       50
176
     1
 90
       50
176
     1
290
     0
176
     1
 90
       50
176
     1
 62
   256
176
     0
 40
1.0
176
     0
 90
        2
176
     1
  1
strokes_ogs.tif
176
     1
290
     0
176
     1
 40
1.0
176
     1
 40
1.0
176
     1
  0
VISUALSTYLE
  5
3D
102
{ACAD_REACTORS
330
29
102
}
330
29
100
AcDbVisualStyle
  2
Shaded with edges
 70
    26
177
     3
291
     0
 70
    58
 90
        2
176
     1
 90
        2
176
     1
 90
        1
176
     1
 90
        2
176
     1
 40
-0.6
176
     1
 40
30.0
176
     1
 62
     7
420
 16777215
176
     1
 90
        1
176
     1
 90
       10
176
     1
 62
     7
176
     1
 62
   257
176
     1
 90
        2
176
     1
 90
        1
176
     1
 40
1.0
176
     1
 90
        8
176
     1
 62
   257
176
     1
 40
1.0
176
     1
 90
        1
176
     1
 90
        6
176
     1
 90
        2
176
     1
 62
     7
176
     1
 90
        3
176
     1
 90
        0
176
     1
 90
        0
176
     1
290
     0
176
     1
 90
        5
176
     1
 40
0.0
176
     1
 90
        0
176
     1
290
     0
176
     1
290
     1
176
     1
290
     1
176
     1
290
     0
176
     1
290
     0
176
     1
290
     0
176
     1
290
     0
176
     1
290
     0
176
     1
290
     0
176
     1
 90
       50
176
     1
 40
0.0
176
     1
 40
1.0
176
     1
 90
        0
176
     1
 62
    18
420
        0
176
     1
 90
       50
176
     1
 90
        3
176
     1
 62
     5
420
      255
176
     1
290
     0
176
     1
 90
       50
176
     1
 90
       50
176
     1
 90
       50
176
     1
290
     0
176
     1
 90
       50
176
     1
 62
   256
176
     0
 40
1.0
176
     0
 90
        2
176
     1
  1
strokes_ogs.tif
176
     1
290
     0
176
     1
 40
1.0
176
     1
 40
1.0
176
     1
  0
VISUALSTYLE
  5
3A
102
{ACAD_REACTORS
330
29
102
}
330
29
100
AcDbVisualStyle
  2
Shades of Gray
 70
    23
177
     3
291
     0
 70
    58
 90
        2
176
     1
 90
        2
176
     1
 90
        3
176
     1
 90
        0
176
     1
 40
-0.6
176
     1
 40
-30.0
176
     1
 62
     7
420
 16777215
176
     1
 90
        2
176
     1
 90
        2
176
     1
 62
     7
176
     1
 62
     7
176
     1
 90
        1
176
     1
 90
        1
176
     1
 40
40.0
176
     1
 90
        8
176
     1
 62
     7
176
     1
 40
1.0
176
     1
 90
        1
176
     1
 90
        6
176
     1
 90
        2
176
     1
 62
     7
176
     1
 90
        3
176
     1
 90
        0
176
     1
 90
        0
176
     1
290
     0
176
     1
 90
        1
176
     1
 40
0.0
176
     1
 90
        0
176
     1
290
     0
176
     1
290
     1
176
     1
290
     1
176
     1
290
     0
176
     1
290
     0
176
     1
290
     0
176
     1
290
     0
176
     1
290
     0
176
     1
290
     0
176
     1
 90
       50
176
     1
 40
0.0
176
     1
 40
1.0
176
     1
 90
        0
176
     1
 62
    18
420
        0
176
     1
 90
       50
176
     1
 90
        3
176
     1
 62
     5
420
      255
176
     1
290
     0
176
     1
 90
       50
176
     1
 90
       50
176
     1
 90
       50
176
     1
290
     0
176
     1
 90
       50
176
     1
 62
   256
176
     0
 40
1.0
176
     0
 90
        2
176
     1
  1
strokes_ogs.tif
176
     1
290
     0
176
     1
 40
1.0
176
     1
 40
1.0
176
     1
  0
VISUALSTYLE
  5
3B
102
{ACAD_REACTORS
330
29
102
}
330
29
100
AcDbVisualStyle
  2
Sketchy
 70
    24
177
     3
291
     0
 70
    58
 90
        1
176
     1
 90
        2
176
     1
 90
        2
176
     1
 90
        0
176
     1
 40
-0.6
176
     1
 40
-30.0
176
     1
 62
     7
420
 16777215
176
     1
 90
        2
176
     1
 90
        2
176
     1
 62
     7
176
     1
 62
     7
176
     1
 90
        1
176
     1
 90
        1
176
     1
 40
40.0
176
     1
 90
       11
176
     1
 62
     7
176
     1
 40
1.0
176
     1
 90
        1
176
     1
 90
        6
176
     1
 90
        2
176
     1
 62
     7
176
     1
 90
        6
176
     1
 90
        0
176
     1
 90
        0
176
     1
290
     0
176
     1
 90
        1
176
     1
 40
0.0
176
     1
 90
        0
176
     1
290
     0
176
     1
290
     1
176
     1
290
     1
176
     1
290
     0
176
     1
290
     0
176
     1
290
     0
176
     1
290
     0
176
     1
290
     0
176
     1
290
     0
176
     1
 90
       50
176
     1
 40
0.0
176
     1
 40
1.0
176
     1
 90
        0
176
     1
 62
    18
420
        0
176
     1
 90
       50
176
     1
 90
        3
176
     1
 62
     5
420
      255
176
     1
290
     0
176
     1
 90
       50
176
     1
 90
       50
176
     1
 90
       50
176
     1
290
     0
176
     1
 90
       50
176
     1
 62
   256
176
     0
 40
1.0
176
     0
 90
        2
176
     1
  1
strokes_ogs.tif
176
     1
290
     0
176
     1
 40
1.0
176
     1
 40
1.0
176
     1
  0
VISUALSTYLE
  5
36
102
{ACAD_REACTORS
330
29
102
}
330
29
100
AcDbVisualStyle
  2
Thicken
 70
    13
177
     3
291
     1
 70
    58
 90
        2
176
     1
 90
        2
176
     1
 90
        0
176
     1
 90
        0
176
     1
 40
-0.6
176
     1
 40
-30.0
176
     1
 62
     7
420
 16777215
176
     1
 90
        1
176
     1
 90
        4
176
     1
 62
     7
176
     1
 62
   257
176
     1
 90
        1
176
     1
 90
        1
176
     1
 40
1.0
176
     1
 90
       12
176
     1
 62
     7
176
     1
 40
1.0
176
     1
 90
        1
176
     1
 90
        6
176
     1
 90
        2
176
     1
 62
     7
176
     1
 90
        5
176
     1
 90
        0
176
     1
 90
        0
176
     1
290
     0
176
     1
 90
        1
176
     1
 40
0.0
176
     1
 90
        0
176
     1
290
     0
176
     1
290
     1
176
     1
290
     1
176
     1
290
     0
176
     1
290
     0
176
     1
290
     0
176
     1
290
     0
176
     1
290
     0
176
     1
290
     0
176
     1
 90
       50
176
     1
 40
0.0
176
     1
 40
1.0
176
     1
 90
        0
176
     1
 62
    18
420
        0
176
     1
 90
       50
176
     1
 90
        3
176
     1
 62
     5
420
      255
176
     1
290
     0
176
     1
 90
       50
176
     1
 90
       50
176
     1
 90
       50
176
     1
290
     0
176
     1
 90
       50
176
     1
 62
   256
176
     0
 40
1.0
176
     0
 90
        2
176
     1
  1
strokes_ogs.tif
176
     1
290
     0
176
     1
 40
1.0
176
     1
 40
1.0
176
     1
  0
VISUALSTYLE
  5
30
102
{ACAD_REACTORS
330
29
102
}
330
29
100
AcDbVisualStyle
  2
Wireframe
 70
     5
177
     3
291
     0
 70
    58
 90
        0
176
     1
 90
        2
176
     1
 90
        0
176
     1
 90
        0
176
     1
 40
-0.6
176
     1
 40
-30.0
176
     1
 62
     7
420
 16777215
176
     1
 90
        1
176
     1
 90
        4
176
     1
 62
     7
176
     1
 62
   257
176
     1
 90
        1
176
     1
 90
        1
176
     1
 40
1.0
176
     1
 90
        0
176
     1
 62
   257
176
     1
 40
1.0
176
     1
 90
        1
176
     1
 90
        6
176
     1
 90
        2
176
     1
 62
     7
176
     1
 90
        3
176
     1
 90
        0
176
     1
 90
        0
176
     1
290
     0
176
     1
 90
        1
176
     1
 40
0.0
176
     1
 90
        0
176
     1
290
     0
176
     1
290
     1
176
     1
290
     1
176
     1
290
     0
176
     1
290
     0
176
     1
290
     0
176
     1
290
     0
176
     1
290
     0
176
     1
290
     0
176
     1
 90
       50
176
     1
 40
0.0
176
     1
 40
1.0
176
     1
 90
        0
176
     1
 62
    18
420
        0
176
     1
 90
       50
176
     1
 90
        3
176
     1
 62
     5
420
      255
176
     1
290
     0
176
     1
 90
       50
176
     1
 90
       50
176
     1
 90
       50
176
     1
290
     0
176
     1
 90
       50
176
     1
 62
   256
176
     0
 40
1.0
176
     0
 90
        2
176
     1
  1
strokes_ogs.tif
176
     1
290
     0
176
     1
 40
1.0
176
     1
 40
1.0
176
     1
  0
VISUALSTYLE
  5
3C
102
{ACAD_REACTORS
330
29
102
}
330
29
100
AcDbVisualStyle
  2
X-Ray
 70
    25
177
     3
291
     0
 70
    58
 90
        2
176
     1
 90
        2
176
     1
 90
        1
176
     1
 90
        1
176
     1
 40
0.5
176
     1
 40
-30.0
176
     1
 62
     7
420
 16777215
176
     1
 90
        1
176
     1
 90
        0
176
     1
 62
     7
176
     1
 62
   257
176
     1
 90
        1
176
     1
 90
        1
176
     1
 40
1.0
176
     1
 90
        8
176
     1
 62
     7
176
     1
 40
1.0
176
     1
 90
        1
176
     1
 90
        6
176
     1
 90
        2
176
     1
 62
     7
176
     1
 90
        3
176
     1
 90
        0
176
     1
 90
        0
176
     1
290
     0
176
     1
 90
       13
176
     1
 40
0.0
176
     1
 90
        0
176
     1
290
     0
176
     1
290
     1
176
     1
290
     1
176
     1
290
     0
176
     1
290
     0
176
     1
290
     0
176
     1
290
     0
176
     1
290
     0
176
     1
290
     0
176
     1
 90
       50
176
     1
 40
0.0
176
     1
 40
1.0
176
     1
 90
        0
176
     1
 62
    18
420
        0
176
     1
 90
       50
176
     1
 90
        3
176
     1
 62
     5
420
      255
176
     1
290
     0
176
     1
 90
       50
176
     1
 90
       50
176
     1
 90
       50
176
     1
290
     0
176
     1
 90
       50
176
     1
 62
   256
176
     0
 40
1.0
176
     0
 90
        2
176
     1
  1
strokes_ogs.tif
176
     1
290
     0
176
     1
 40
1.0
176
     1
 40
1.0
176
     1
  0
DICTIONARYVAR
  5
5AC
102
{ACAD_REACTORS
330
5A7
102
}
330
5A7
100
DictionaryVariables
280
     0
  1
1:1
  0
DICTIONARYVAR
  5
5A9
102
{ACAD_REACTORS
330
5A7
102
}
330
5A7
100
DictionaryVariables
280
     0
  1
Standard
  0
DICTIONARYVAR
  5
5A8
102
{ACAD_REACTORS
330
5A7
102
}
330
5A7
100
DictionaryVariables
280
     0
  1
Standard
  0
DICTIONARYVAR
  5
5AA
102
{ACAD_REACTORS
330
5A7
102
}
330
5A7
100
DictionaryVariables
280
     0
  1
Imperial24
  0
DICTIONARYVAR
  5
5AB
102
{ACAD_REACTORS
330
5A7
102
}
330
5A7
100
DictionaryVariables
280
     0
  1
Imperial24
  0
DICTIONARYVAR
  5
A27
102
{ACAD_REACTORS
330
5A7
102
}
330
5A7
100
DictionaryVariables
280
     0
  1
ByLayer
  0
DICTIONARYVAR
  5
680
102
{ACAD_REACTORS
330
5A7
102
}
330
5A7
100
DictionaryVariables
280
     0
  1
0
  0
DICTIONARYVAR
  5
5AD
102
{ACAD_REACTORS
330
5A7
102
}
330
5A7
100
DictionaryVariables
280
     0
  1
2
  0
XRECORD
  5
14E8
102
{ACAD_REACTORS
330
5A2
102
}
330
5A2
100
AcDbXrecord
280
     1
 91
     1023
301

290
     0
302
0
330
54
 90
        8
 62
     7
370
    -3
331
5C
  1
Color_7
330
73
 90
        8
 62
     7
370
    -3
331
5C
  1
Color_7
330
74
 90
        8
 62
     1
370
    -3
331
5C
  1
Color_1
330
78A
 90
        0
 62
     7
370
    -3
331
5C
  1
Color_7
  0
XRECORD
  5
14E9
102
{ACAD_REACTORS
330
5A2
102
}
330
5A2
100
AcDbXrecord
280
     1
 91
     1023
301

290
     0
302
Defpoints
330
54
 90
        8
 62
     7
370
    -3
331
5C
  1
Color_7
330
73
 90
        8
 62
     7
370
    -3
331
5C
  1
Color_7
330
74
 90
        8
 62
     1
370
    -3
331
5C
  1
Color_1
330
78A
 90
        0
 62
     7
370
    -3
331
5C
  1
Color_7
  0
XRECORD
  5
14EA
102
{ACAD_REACTORS
330
5A2
102
}
330
5A2
100
AcDbXrecord
280
     1
 91
     1023
301

290
     0
302
FRAME
330
54
 90
        8
 62
     7
370
    -3
331
5C
  1
Color_7
330
73
 90
        8
 62
     7
370
    -3
331
5C
  1
Color_7
330
74
 90
        8
 62
     1
370
    -3
331
5C
  1
Color_1
330
78A
 90
        0
 62
     7
370
    -3
331
5C
  1
Color_7
  0
XRECORD
  5
14EB
102
{ACAD_REACTORS
330
5A2
102
}
330
5A2
100
AcDbXrecord
280
     1
 91
     1023
301

290
     0
302
0
330
54
 90
        8
 62
     7
370
    -3
331
5C
  1
Color_7
330
73
 90
        8
 62
     7
370
    -3
331
5C
  1
Color_7
330
74
 90
        8
 62
     1
370
    -3
331
5C
  1
Color_1
330
78A
 90
        0
 62
     7
370
    -3
331
5C
  1
Color_7
  0
XRECORD
  5
14EC
102
{ACAD_REACTORS
330
5A2
102
}
330
5A2
100
AcDbXrecord
280
     1
 91
     1023
301

290
     0
302
CORTES_INTERIORES
330
54
 90
        8
 62
     7
370
    -3
331
5C
  1
Color_7
330
73
 90
        8
 62
     7
370
    -3
331
5C
  1
Color_7
330
74
 90
        8
 62
     1
370
    -3
331
5C
  1
Color_1
330
78A
 90
        0
 62
     7
370
    -3
331
5C
  1
Color_7
  0
XRECORD
  5
14ED
102
{ACAD_REACTORS
330
5A2
102
}
330
5A2
100
AcDbXrecord
280
     1
 91
     1023
301

290
     0
302
0
330
54
 90
        8
 62
     7
370
    -3
331
5C
  1
Color_7
330
73
 90
        8
 62
     7
370
    -3
331
5C
  1
Color_7
330
74
 90
        8
 62
     1
370
    -3
331
5C
  1
Color_1
330
78A
 90
        0
 62
     7
370
    -3
331
5C
  1
Color_7
  0
XRECORD
  5
14EE
102
{ACAD_REACTORS
330
5A2
102
}
330
5A2
100
AcDbXrecord
280
     1
 91
     1023
301

290
     0
302
CORTES_INTERIORES
330
54
 90
        8
 62
     7
370
    -3
331
5C
  1
Color_7
330
73
 90
        8
 62
     7
370
    -3
331
5C
  1
Color_7
330
74
 90
        8
 62
     1
370
    -3
331
5C
  1
Color_1
330
78A
 90
        0
 62
     7
370
    -3
331
5C
  1
Color_7
  0
XRECORD
  5
14EF
102
{ACAD_REACTORS
330
5A2
102
}
330
5A2
100
AcDbXrecord
280
     1
 91
     1023
301

290
     0
302
0
330
54
 90
        8
 62
     7
370
    -3
331
5C
  1
Color_7
330
73
 90
        8
 62
     7
370
    -3
331
5C
  1
Color_7
330
74
 90
        8
 62
     1
370
    -3
331
5C
  1
Color_1
330
78A
 90
        0
 62
     7
370
    -3
331
5C
  1
Color_7
  0
DICTIONARY
  5
640
330
6A
100
AcDbDictionary
280
     1
281
     1
  3
ACAD_XREC_ROUNDTRIP
360
641
  0
DICTIONARY
  5
644
330
2C2
100
AcDbDictionary
280
     1
281
     1
  3
ACAD_XREC_ROUNDTRIP
360
645
  0
DICTIONARY
  5
63E
330
68
100
AcDbDictionary
280
     1
281
     1
  3
ACAD_XREC_ROUNDTRIP
360
63F
  0
DICTIONARY
  5
642
330
2C1
100
AcDbDictionary
280
     1
281
     1
  3
ACAD_XREC_ROUNDTRIP
360
643
  0
DICTIONARY
  5
14F0
330
64
100
AcDbDictionary
280
     1
281
     1
  3
ACAD_ROUNDTRIP_2008_TABLESTYLE_CELLSTYLEMAP
360
14F1
  0
XRECORD
  5
641
102
{ACAD_REACTORS
330
640
102
}
330
640
100
AcDbXrecord
280
     1
102
DISPLAYNAME
  1
Imperial24
102
FLAGS
 90
        0
  0
XRECORD
  5
645
102
{ACAD_REACTORS
330
644
102
}
330
644
100
AcDbXrecord
280
     1
102
DISPLAYNAME
  1
Metric50
102
FLAGS
 90
        0
  0
XRECORD
  5
63F
102
{ACAD_REACTORS
330
63E
102
}
330
63E
100
AcDbXrecord
280
     1
102
DISPLAYNAME
  1
Imperial24
102
FLAGS
 90
        0
  0
XRECORD
  5
643
102
{ACAD_REACTORS
330
642
102
}
330
642
100
AcDbXrecord
280
     1
102
DISPLAYNAME
  1
Metric50
102
FLAGS
 90
        0
  0
CELLSTYLEMAP
  5
14F1
102
{ACAD_REACTORS
330
14F0
102
}
330
14F0
100
AcDbCellStyleMap
 90
        3
300
CELLSTYLE
  1
TABLEFORMAT_BEGIN
 90
        5
170
     1
 91
        0
 92
    32768
 62
   257
 93
        1
300
CONTENTFORMAT
  1
CONTENTFORMAT_BEGIN
 90
        0
 91
        0
 92
      512
 93
        0
300

 40
0.0
140
1.0
 94
        5
 62
     0
340
55
144
0.25
309
CONTENTFORMAT_END
171
     0
 94
        0
309
TABLEFORMAT_END
  1
CELLSTYLE_BEGIN
 90
        1
 91
        1
300
_TITLE
309
CELLSTYLE_END
300
CELLSTYLE
  1
TABLEFORMAT_BEGIN
 90
        5
170
     1
 91
        0
 92
        0
 62
   257
 93
        1
300
CONTENTFORMAT
  1
CONTENTFORMAT_BEGIN
 90
        0
 91
        0
 92
      512
 93
        0
300

 40
0.0
140
1.0
 94
        5
 62
     0
340
55
144
0.18
309
CONTENTFORMAT_END
171
     0
 94
        0
309
TABLEFORMAT_END
  1
CELLSTYLE_BEGIN
 90
        2
 91
        1
300
_HEADER
309
CELLSTYLE_END
300
CELLSTYLE
  1
TABLEFORMAT_BEGIN
 90
        5
170
     1
 91
        0
 92
        0
 62
   257
 93
        1
300
CONTENTFORMAT
  1
CONTENTFORMAT_BEGIN
 90
        0
 91
        0
 92
      512
 93
        0
300

 40
0.0
140
1.0
 94
        2
 62
     0
340
55
144
0.18
309
CONTENTFORMAT_END
171
     0
 94
        0
309
TABLEFORMAT_END
  1
CELLSTYLE_BEGIN
 90
        3
 91
        2
300
_DATA
309
CELLSTYLE_END
  0
ENDSEC
  0
EOF
